<?xml version="1.0"?>
<svg xmlns="http://www.w3.org/2000/svg" version="1.1" viewBox="0 0 800.2223187004183 509.51507210150385" width="1600.4446374008367" height="1019.0301442030077">
  <!-- svg-source:excalidraw -->
  <defs>
    <style class="style-fonts">
      @font-face {
        font-family: "Virgil";
        src: url("https://excalidraw.com/Virgil.woff2");
      }
      @font-face {
        font-family: "Cascadia";
        src: url("https://excalidraw.com/Cascadia.woff2");
      }
    </style>
  </defs>
  <rect x="0" y="0" width="800.2223187004183" height="509.51507210150385" fill="#ffffff"/>
  <g stroke-linecap="round" transform="translate(10 58.80126514869812) rotate(0 142.12426381932664 218.680247429588)">
    <path d="M7.86 8.16 C7.86 8.16, 7.86 8.16, 7.86 8.16 M7.86 8.16 C7.86 8.16, 7.86 8.16, 7.86 8.16 M4.85 36.01 C13.55 23.33, 23.6 15.99, 34.37 2.05 M4.85 36.01 C17.4 23.83, 28.27 9.28, 34.37 2.05 M4.46 60.85 C21.06 43.89, 36.99 23.76, 55.63 1.98 M4.46 60.85 C17.3 47.39, 27.81 34.39, 55.63 1.98 M4.72 84.93 C32.81 54.7, 59.23 20.79, 76.89 1.91 M4.72 84.93 C28.72 56.68, 52.17 28.88, 76.89 1.91 M4.99 109.01 C34.42 76.14, 64 41.63, 98.15 1.85 M4.99 109.01 C27.01 80.61, 52.05 54.36, 98.15 1.85 M4.6 133.85 C48.26 84.48, 90.73 36.93, 119.41 1.78 M4.6 133.85 C47.43 85.27, 89.45 36.31, 119.41 1.78 M4.87 157.93 C34.89 118.82, 68.98 79.72, 140.67 1.71 M4.87 157.93 C36.11 124.28, 65.77 90.03, 140.67 1.71 M4.48 182.77 C41.01 140.77, 80.5 99.07, 161.28 2.39 M4.48 182.77 C64.08 114.34, 122.61 46.76, 161.28 2.39 M4.74 206.85 C71.42 131.55, 137.86 56.05, 182.54 2.32 M4.74 206.85 C71.31 132.78, 135.93 59.29, 182.54 2.32 M5.01 230.93 C82.73 142.05, 161.79 49.95, 203.8 2.26 M5.01 230.93 C77.87 148.59, 148.96 66.11, 203.8 2.26 M4.62 255.77 C57.14 193.38, 109.94 130.52, 225.06 2.19 M4.62 255.77 C70.89 177.07, 137.95 99.19, 225.06 2.19 M4.89 279.85 C69.87 205.91, 135.8 131.57, 246.32 2.12 M4.89 279.85 C97.19 171.61, 190.84 64.47, 246.32 2.12 M4.5 304.69 C89.28 207.52, 172.75 112.13, 266.92 2.8 M4.5 304.69 C100.25 194.65, 195.92 85.1, 266.92 2.8 M4.76 328.77 C101.5 218.78, 198.58 107.76, 280.31 11.79 M4.76 328.77 C74.32 249.37, 142.09 170.27, 280.31 11.79 M5.03 352.85 C94.8 251.23, 181.64 150.94, 290.41 24.55 M5.03 352.85 C70.8 275.24, 138.93 196.79, 290.41 24.55 M4.64 377.69 C100.2 268.24, 194.81 157.74, 295.93 42.6 M4.64 377.69 C113.45 251.33, 222.97 124.16, 295.93 42.6 M0.97 406.3 C71.72 323.59, 144.46 240.65, 296.2 66.68 M0.97 406.3 C94.95 299.78, 188.24 192.77, 296.2 66.68 M5.17 425.85 C114.23 301.28, 222.85 176.08, 296.46 90.76 M5.17 425.85 C107.52 308.62, 208.68 191.75, 296.46 90.76 M17.9 435.59 C77.98 367.3, 137.02 299.89, 296.07 115.6 M17.9 435.59 C125.5 314.91, 231.56 192.26, 296.07 115.6 M35.23 440.05 C99.61 366.38, 163.31 294.59, 296.34 139.68 M35.23 440.05 C133.85 326.7, 231.33 213.03, 296.34 139.68 M56.49 439.98 C111.74 380.36, 163.32 318.22, 295.95 164.51 M56.49 439.98 C129.43 357.4, 201.72 272.56, 295.95 164.51 M77.75 439.91 C158.41 345.31, 242.5 251.27, 296.22 188.6 M77.75 439.91 C121.43 387.75, 167.74 335.78, 296.22 188.6 M99.01 439.84 C162.1 367.47, 224.53 295.43, 295.83 213.43 M99.01 439.84 C166.32 362.05, 233.71 285.72, 295.83 213.43 M120.27 439.78 C155.4 397.92, 192.44 355.93, 296.09 237.51 M120.27 439.78 C162.16 391.92, 202.26 344.81, 296.09 237.51 M140.87 440.46 C186.03 391.46, 231.72 337.71, 296.36 261.6 M140.87 440.46 C177.62 399.8, 214.65 357.42, 296.36 261.6 M162.13 440.39 C195.98 402.98, 231.54 361.93, 295.97 286.43 M162.13 440.39 C213.63 380.23, 265.87 320.6, 295.97 286.43 M183.39 440.32 C220.56 392.69, 260.63 348.33, 296.23 310.51 M183.39 440.32 C221.5 395.7, 259.49 352.76, 296.23 310.51 M204.65 440.25 C223.41 418.32, 240.17 396.49, 295.84 335.35 M204.65 440.25 C225.17 416.38, 246.85 392.7, 295.84 335.35 M225.91 440.19 C243.27 419.58, 265.31 398.01, 296.11 359.43 M225.91 440.19 C243.28 419.83, 261.76 400.74, 296.11 359.43 M247.17 440.12 C259.36 424.24, 273.3 413.53, 296.38 383.51 M247.17 440.12 C261.69 425.88, 275.32 408.56, 296.38 383.51" stroke="#4c6ef5" stroke-width="2" fill="none"/>
    <path d="M32 0 M32 0 C83 2.16, 131.43 0.55, 252.25 0 M32 0 C78.16 -1.45, 122.94 -1.21, 252.25 0 M252.25 0 C275.12 1.19, 285.44 12.46, 284.25 32 M252.25 0 C275.28 2.28, 285.12 9.84, 284.25 32 M284.25 32 C283.83 170.73, 284.02 311.88, 284.25 405.36 M284.25 32 C285.22 115.12, 284.54 197.54, 284.25 405.36 M284.25 405.36 C284.43 427.1, 272.47 436.61, 252.25 437.36 M284.25 405.36 C286.25 426.8, 271.92 438.72, 252.25 437.36 M252.25 437.36 C170.81 439.91, 89.52 439.83, 32 437.36 M252.25 437.36 C187.96 437.38, 124.24 437.89, 32 437.36 M32 437.36 C8.86 437.94, 0.38 424.8, 0 405.36 M32 437.36 C8.7 435.86, -0.89 427, 0 405.36 M0 405.36 C-0.46 275.28, -1.22 146.41, 0 32 M0 405.36 C2.55 260.02, 1.65 115.35, 0 32 M0 32 C-0.18 12.07, 12.66 -1.15, 32 0 M0 32 C0.25 12.28, 9.94 -0.49, 32 0" stroke="#343a40" stroke-width="4" fill="none"/>
  </g>
  <g stroke-linecap="round" transform="translate(505.97379106176504 62.15457724232783) rotate(0 142.12426381932664 218.680247429588)">
    <path d="M7.86 8.16 C7.86 8.16, 7.86 8.16, 7.86 8.16 M7.86 8.16 C7.86 8.16, 7.86 8.16, 7.86 8.16 M4.85 36.01 C14.62 26.12, 22.12 17.32, 34.37 2.05 M4.85 36.01 C14.95 24.52, 26.9 10.46, 34.37 2.05 M4.46 60.85 C17.63 42.71, 31.84 27.73, 55.63 1.98 M4.46 60.85 C17.73 44.56, 31.66 28.7, 55.63 1.98 M4.72 84.93 C26.61 59.67, 48 37.52, 76.89 1.91 M4.72 84.93 C25.71 60.52, 45.09 36.53, 76.89 1.91 M4.99 109.01 C34.86 74.52, 60.47 45.36, 98.15 1.85 M4.99 109.01 C28.2 81.75, 49.77 54.8, 98.15 1.85 M4.6 133.85 C48.68 84.56, 89.83 37.93, 119.41 1.78 M4.6 133.85 C41.48 92.2, 79.54 49.24, 119.41 1.78 M4.87 157.93 C48.83 110.99, 92.06 60.13, 140.67 1.71 M4.87 157.93 C36.6 122.41, 67.94 86.97, 140.67 1.71 M4.48 182.77 C58.57 121.82, 111 58.84, 161.28 2.39 M4.48 182.77 C44.93 136.28, 85.16 90.81, 161.28 2.39 M4.74 206.85 C55.94 148.53, 104.16 90.73, 182.54 2.32 M4.74 206.85 C45.94 160.93, 84.56 115.49, 182.54 2.32 M5.01 230.93 C49.99 176.97, 99.05 124.06, 203.8 2.26 M5.01 230.93 C72.9 154.1, 140.26 78.51, 203.8 2.26 M4.62 255.77 C62.08 189.33, 122.13 119.16, 225.06 2.19 M4.62 255.77 C77.89 172.05, 151.69 87.23, 225.06 2.19 M4.89 279.85 C97.77 177.12, 187.06 72.52, 246.32 2.12 M4.89 279.85 C90.08 184.2, 173.92 86.83, 246.32 2.12 M4.5 304.69 C58.03 244.63, 110.08 184.12, 266.92 2.8 M4.5 304.69 C70.41 228.56, 135.36 153.33, 266.92 2.8 M4.76 328.77 C71.82 252.42, 138.92 175.61, 280.31 11.79 M4.76 328.77 C91.03 228.36, 177.51 130.16, 280.31 11.79 M5.03 352.85 C101.35 241.72, 194.77 132.94, 290.41 24.55 M5.03 352.85 C105.15 237.96, 205.14 123.82, 290.41 24.55 M4.64 377.69 C73.28 298.8, 141.7 220.67, 295.93 42.6 M4.64 377.69 C117.37 248.8, 230 120.49, 295.93 42.6 M0.97 406.3 C104.68 288.44, 207.95 169.72, 296.2 66.68 M0.97 406.3 C118.91 272.48, 236.02 136.81, 296.2 66.68 M5.17 425.85 C93.94 320.39, 186.58 214.01, 296.46 90.76 M5.17 425.85 C112.25 300.21, 220.58 175.89, 296.46 90.76 M17.9 435.59 C95.68 346.21, 173.5 256.63, 296.07 115.6 M17.9 435.59 C87.64 353.8, 158.95 271.9, 296.07 115.6 M35.23 440.05 C122.13 338.32, 210.34 238.62, 296.34 139.68 M35.23 440.05 C90.75 378.44, 144.7 316.1, 296.34 139.68 M56.49 439.98 C146.69 335.66, 237.54 230.22, 295.95 164.51 M56.49 439.98 C143.78 338.04, 230.96 238.11, 295.95 164.51 M77.75 439.91 C152.5 355.43, 226.86 269.73, 296.22 188.6 M77.75 439.91 C136.05 373.17, 195.8 303.61, 296.22 188.6 M99.01 439.84 C150.16 382.1, 200.57 325.82, 295.83 213.43 M99.01 439.84 C148.62 381.27, 200.47 322.16, 295.83 213.43 M120.27 439.78 C165.9 387.94, 212.39 334.86, 296.09 237.51 M120.27 439.78 C168.64 382.51, 217.88 325.08, 296.09 237.51 M140.87 440.46 C189.16 380.72, 239.83 322.67, 296.36 261.6 M140.87 440.46 C182.55 390.99, 224.05 342.72, 296.36 261.6 M162.13 440.39 C188.37 406.28, 215.25 377.42, 295.97 286.43 M162.13 440.39 C212.72 380.76, 265.35 321.73, 295.97 286.43 M183.39 440.32 C222.54 394.31, 266.43 346.8, 296.23 310.51 M183.39 440.32 C207.31 415.38, 230.02 389.36, 296.23 310.51 M204.65 440.25 C236.98 402.18, 271.44 362.17, 295.84 335.35 M204.65 440.25 C233.04 408.18, 259.83 377.04, 295.84 335.35 M225.91 440.19 C252.54 409.47, 279.88 377.1, 296.11 359.43 M225.91 440.19 C242.92 419.54, 262.76 396.76, 296.11 359.43 M247.17 440.12 C264.35 421.4, 281.72 399.12, 296.38 383.51 M247.17 440.12 C263.1 421.54, 279.41 403.11, 296.38 383.51" stroke="#4c6ef5" stroke-width="2" fill="none"/>
    <path d="M32 0 M32 0 C101.13 0.97, 172.76 2.45, 252.25 0 M32 0 C106.44 -0.93, 181.74 0.06, 252.25 0 M252.25 0 C271.83 -1.85, 286.08 10.06, 284.25 32 M252.25 0 C272.29 1.1, 284.04 12.28, 284.25 32 M284.25 32 C283.8 180.77, 282.68 330.87, 284.25 405.36 M284.25 32 C284.14 157.6, 284.17 284.15, 284.25 405.36 M284.25 405.36 C285.58 428.59, 275.21 439.03, 252.25 437.36 M284.25 405.36 C285.89 425.94, 271.52 438.04, 252.25 437.36 M252.25 437.36 C200.96 435.45, 152.31 437.23, 32 437.36 M252.25 437.36 C203.72 438.22, 155.32 437.5, 32 437.36 M32 437.36 C9.03 437.63, -1.2 427.26, 0 405.36 M32 437.36 C11.48 438.66, -1.52 428.62, 0 405.36 M0 405.36 C-1.34 281.74, -0.96 158.59, 0 32 M0 405.36 C1.41 256.39, 1.04 108.31, 0 32 M0 32 C-0.27 9.64, 9.12 1.96, 32 0 M0 32 C1.42 9.16, 10.51 -0.18, 32 0" stroke="#343a40" stroke-width="4" fill="none"/>
  </g>
  <g stroke-linecap="round" transform="translate(330.25646307552233 324.54912323116764) rotate(89.99999999999994 67.88260724430165 104.4479313343736)">
    <path d="M7.86 8.16 C7.86 8.16, 7.86 8.16, 7.86 8.16 M7.86 8.16 C7.86 8.16, 7.86 8.16, 7.86 8.16 M8.78 31.49 C14.19 24.81, 22.91 16.44, 34.37 2.05 M8.78 31.49 C19.36 19.32, 27.86 8.32, 34.37 2.05 M8.39 56.32 C18.02 43.44, 30.53 33.13, 55.63 1.98 M8.39 56.32 C18.75 44.65, 29.67 31.78, 55.63 1.98 M8.66 80.4 C23.86 64.55, 39.17 45.57, 76.23 2.67 M8.66 80.4 C33.5 50.1, 60.2 20.57, 76.23 2.67 M8.27 105.24 C35.85 72.76, 62.63 39.06, 97.49 2.6 M8.27 105.24 C37.11 72.77, 67.98 37.22, 97.49 2.6 M8.54 129.32 C41.02 93.01, 71.73 52.3, 118.76 2.53 M8.54 129.32 C46.04 85.13, 86.22 39.74, 118.76 2.53 M8.15 154.16 C45.99 109.57, 84.28 62.33, 132.14 11.52 M8.15 154.16 C46.82 108.08, 87.99 61.81, 132.14 11.52 M5.13 182.01 C51.57 130.46, 96.77 74.93, 141.59 25.03 M5.13 182.01 C57 123.21, 107.39 63.92, 141.59 25.03 M9.99 200.81 C38.87 170.16, 67.74 137.21, 147.76 42.32 M9.99 200.81 C41.06 164.05, 73.94 128.2, 147.76 42.32 M24.69 208.29 C56.95 169.59, 88.3 133.4, 147.37 67.16 M24.69 208.29 C58.04 169.7, 92.56 128.34, 147.37 67.16 M45.95 208.22 C69.69 183.62, 92.58 154.46, 147.64 91.24 M45.95 208.22 C77.14 173.31, 107.67 136.83, 147.64 91.24 M66.56 208.91 C98.57 174.59, 128.95 135.88, 147.25 116.08 M66.56 208.91 C92.3 179.27, 120 146.43, 147.25 116.08 M87.82 208.84 C106.74 185.84, 126.38 164.63, 147.52 140.16 M87.82 208.84 C101.18 192.19, 115.95 176.82, 147.52 140.16 M106.45 211.79 C117.93 199.11, 131.14 183, 147.13 165 M106.45 211.79 C119.54 195.19, 134.1 180.01, 147.13 165 M12.85 204.7 C12.85 204.7, 12.85 204.7, 12.85 204.7 M12.85 204.7 C12.85 204.7, 12.85 204.7, 12.85 204.7 M31.65 199.85 C19.76 189.35, 9.53 180, 2.22 174.26 M31.65 199.85 C21.51 191.02, 12.79 182.95, 2.22 174.26 M56.49 200.24 C38.47 184.46, 19.18 168.68, 2.15 153 M56.49 200.24 C41.52 188.74, 28.34 176.67, 2.15 153 M80.57 199.97 C57.77 182.2, 33.23 161.33, 2.08 131.74 M80.57 199.97 C58.1 180.68, 37.24 161.72, 2.08 131.74 M108.43 202.98 C70.52 172.14, 35.57 140.54, 2.77 111.13 M108.43 202.98 C76.22 173.63, 42.21 144.19, 2.77 111.13 M128.74 199.44 C90.24 167.61, 57.62 137.89, 2.7 89.87 M128.74 199.44 C101.17 175.42, 74.2 151.77, 2.7 89.87 M135.46 184.08 C103.78 159.48, 72.29 131.98, 2.63 68.61 M135.46 184.08 C104.59 158.33, 75.28 132.1, 2.63 68.61 M135.39 162.82 C96.54 128.57, 54.18 94.62, 2.56 47.35 M135.39 162.82 C95.71 129.36, 56.54 94.97, 2.56 47.35 M135.32 141.56 C87.04 97.69, 37.67 55.92, 0.23 24.13 M135.32 141.56 C106.35 112.84, 75.18 87.86, 0.23 24.13 M136.01 120.96 C105.16 93.05, 73.15 62.31, 8.46 10.08 M136.01 120.96 C97.14 86.42, 55.69 52.01, 8.46 10.08 M135.94 99.7 C109.88 79.05, 83.56 56.5, 20.47 -0.68 M135.94 99.7 C103.29 70.25, 69.99 40.91, 20.47 -0.68 M135.87 78.44 C100.88 45.86, 65.3 17.87, 37.76 -6.85 M135.87 78.44 C116.54 62.7, 96.48 43.64, 37.76 -6.85 M135.8 57.18 C114.33 37.12, 90.49 18.49, 62.59 -6.46 M135.8 57.18 C109.85 35.74, 82.94 13.28, 62.59 -6.46 M135.73 35.92 C126.81 25.32, 113.94 16.09, 86.67 -6.73 M135.73 35.92 C119.02 21.25, 101.81 6.68, 86.67 -6.73" stroke="#fa5252" stroke-width="2" fill="none"/>
    <path d="M32 0 M32 0 C50.69 -1.29, 69.39 -0.61, 103.77 0 M32 0 C49.89 -0.51, 66.68 -0.26, 103.77 0 M103.77 0 C124.74 1.05, 137.51 10.7, 135.77 32 M103.77 0 C125.96 -1.3, 137.91 9.45, 135.77 32 M135.77 32 C133.49 75.65, 135.87 120.4, 135.77 176.9 M135.77 32 C138.01 81.19, 136.45 131.66, 135.77 176.9 M135.77 176.9 C134.57 196.3, 123.59 209.44, 103.77 208.9 M135.77 176.9 C134.66 198.67, 123.91 208.73, 103.77 208.9 M103.77 208.9 C79.08 207.9, 55.39 208.09, 32 208.9 M103.77 208.9 C87.07 209.22, 71.19 208.38, 32 208.9 M32 208.9 C9.44 210.86, 0.44 199.79, 0 176.9 M32 208.9 C10.22 209.01, -2.1 197.78, 0 176.9 M0 176.9 C-0.69 146.55, 0.4 119.38, 0 32 M0 176.9 C0.53 132.02, 1.42 88.31, 0 32 M0 32 C1.94 11.99, 11.62 -0.39, 32 0 M0 32 C-0.58 11.53, 9.39 -0.57, 32 0" stroke="#343a40" stroke-width="4" fill="none"/>
  </g>
  <g stroke-linecap="round" transform="translate(329.56478389502445 11.046436815871857) rotate(166.24986728040616 9.31220909116064 40.719704358527565)">
    <path d="M1.24 1.08 C1.24 1.08, 1.24 1.08, 1.24 1.08 M1.24 1.08 C1.24 1.08, 1.24 1.08, 1.24 1.08 M10.69 14.59 C13.47 11.17, 14.67 11.07, 19.22 4.78 M10.69 14.59 C13.12 12.46, 15.39 9.12, 19.22 4.78 M10.96 38.67 C14.47 35.94, 14.88 33.28, 18.83 29.62 M10.96 38.67 C12.64 36.95, 14.04 34.79, 18.83 29.62 M11.22 62.76 C14.43 60.55, 16.85 57.59, 19.1 53.7 M11.22 62.76 C13.98 59.21, 16.67 56.73, 19.1 53.7 M15.43 82.31 C16.31 81.88, 17.05 79.94, 19.36 77.78 M15.43 82.31 C16.72 80.94, 17.63 79.65, 19.36 77.78 M2.46 81.01 C2.46 81.01, 2.46 81.01, 2.46 81.01 M2.46 81.01 C2.46 81.01, 2.46 81.01, 2.46 81.01 M19.75 74.84 C16.29 71.81, 12.2 68.8, 9.18 65.65 M19.75 74.84 C16.88 71.75, 14 69.56, 9.18 65.65 M20.43 54.23 C17.74 52.18, 13.49 50.12, 9.11 44.39 M20.43 54.23 C17.2 51.84, 13.57 49.48, 9.11 44.39 M20.36 32.97 C16.48 29.81, 15.42 29.21, 9.8 23.79 M20.36 32.97 C15.95 30.11, 11.9 25.41, 9.8 23.79 M20.29 11.71 C13.27 7.17, 8.13 2.1, 5.95 -0.75 M20.29 11.71 C16.18 8.13, 12.78 5.29, 5.95 -0.75" stroke="#4c6ef5" stroke-width="2" fill="none"/>
    <path d="M4.66 0 M4.66 0 C6.59 -0.12, 9.26 0.5, 13.97 0 M4.66 0 C8.01 0.16, 10.81 -0.03, 13.97 0 M13.97 0 C17.17 -1.82, 18.23 -0.37, 18.62 4.66 M13.97 0 C15.41 -0.19, 16.62 0.59, 18.62 4.66 M18.62 4.66 C17.77 25.23, 18.2 43.05, 18.62 76.78 M18.62 4.66 C19.98 29.69, 19.12 53.52, 18.62 76.78 M18.62 76.78 C19.38 78.78, 16.58 80.12, 13.97 81.44 M18.62 76.78 C18.48 81.29, 16.52 79.37, 13.97 81.44 M13.97 81.44 C10.36 82, 7.71 81.2, 4.66 81.44 M13.97 81.44 C11.61 81.29, 8.51 81.73, 4.66 81.44 M4.66 81.44 C-0.06 81.18, 1.58 79.6, 0 76.78 M4.66 81.44 C0.49 80.94, -0.16 78.78, 0 76.78 M0 76.78 C1.73 55.81, 0.53 33.42, 0 4.66 M0 76.78 C-0.58 47.52, 1.06 19.76, 0 4.66 M0 4.66 C-1.88 1.37, -0.1 0.43, 4.66 0 M0 4.66 C-1.77 2.67, 1.11 -0.77, 4.66 0" stroke="#343a40" stroke-width="4" fill="none"/>
  </g>
  <g stroke-linecap="round" transform="translate(304.1809652680913 23.65171605919727) rotate(503.4445796477897 9.31220909116064 40.719704358527565)">
    <path d="M1.24 1.08 C1.24 1.08, 1.24 1.08, 1.24 1.08 M1.24 1.08 C1.24 1.08, 1.24 1.08, 1.24 1.08 M10.69 14.59 C12.49 12.14, 14.61 10.48, 19.22 4.78 M10.69 14.59 C12.94 11.49, 15.35 8.58, 19.22 4.78 M10.96 38.67 C14.28 37.38, 15.48 33.96, 18.83 29.62 M10.96 38.67 C12.94 37.25, 14.34 34.99, 18.83 29.62 M11.22 62.76 C13.04 59.67, 13.87 57.7, 19.1 53.7 M11.22 62.76 C13.93 60.33, 16.01 57.46, 19.1 53.7 M15.43 82.31 C16.21 80.41, 17.24 79.86, 19.36 77.78 M15.43 82.31 C16.39 81.29, 17.22 79.88, 19.36 77.78 M2.46 81.01 C2.46 81.01, 2.46 81.01, 2.46 81.01 M2.46 81.01 C2.46 81.01, 2.46 81.01, 2.46 81.01 M19.75 74.84 C14.49 71.09, 10.43 66.88, 9.18 65.65 M19.75 74.84 C16.52 72.64, 13.73 68.94, 9.18 65.65 M20.43 54.23 C16.97 52.08, 13.69 48.05, 9.11 44.39 M20.43 54.23 C16.8 50.37, 12.4 46.87, 9.11 44.39 M20.36 32.97 C15.95 30.41, 13.58 27.79, 9.8 23.79 M20.36 32.97 C17.76 30.74, 16.22 28.55, 9.8 23.79 M20.29 11.71 C16.56 5.68, 9.86 4.26, 5.95 -0.75 M20.29 11.71 C16.19 7.66, 12.06 3.61, 5.95 -0.75" stroke="#4c6ef5" stroke-width="2" fill="none"/>
    <path d="M4.66 0 M4.66 0 C7.43 -0.73, 11.29 -0.17, 13.97 0 M4.66 0 C8.54 0.28, 11.13 0.01, 13.97 0 M13.97 0 C15.43 0.43, 17.08 2.53, 18.62 4.66 M13.97 0 C16.63 -0.77, 17.18 3.47, 18.62 4.66 M18.62 4.66 C20.83 30.08, 17.54 55.36, 18.62 76.78 M18.62 4.66 C18.68 26.71, 18.89 49.78, 18.62 76.78 M18.62 76.78 C19.32 79.17, 17.12 81.77, 13.97 81.44 M18.62 76.78 C16.69 81.1, 15.24 81.44, 13.97 81.44 M13.97 81.44 C11.31 82.4, 7.55 81.75, 4.66 81.44 M13.97 81.44 C11.25 81.78, 8.8 81.85, 4.66 81.44 M4.66 81.44 C1.17 82.57, 1.47 78.35, 0 76.78 M4.66 81.44 C2.15 83.4, 0.67 82.01, 0 76.78 M0 76.78 C-0.26 49.1, 1.53 25.6, 0 4.66 M0 76.78 C0.68 55.19, 0.66 34.59, 0 4.66 M0 4.66 C-1.92 -0.05, 3.29 1.32, 4.66 0 M0 4.66 C-0.45 0.95, 3.08 -1.94, 4.66 0" stroke="#343a40" stroke-width="4" fill="none"/>
  </g>
  <g stroke-linecap="round" transform="translate(344.732190550214 71.23650264680441) rotate(151.43303794892606 9.31220909116064 40.719704358527565)">
    <path d="M1.24 1.08 C1.24 1.08, 1.24 1.08, 1.24 1.08 M1.24 1.08 C1.24 1.08, 1.24 1.08, 1.24 1.08 M10.69 14.59 C12.64 12.1, 14.49 9.93, 19.22 4.78 M10.69 14.59 C13.44 11.91, 15.36 9.54, 19.22 4.78 M10.96 38.67 C12.72 37.4, 14.7 33.61, 18.83 29.62 M10.96 38.67 C13.09 35.6, 15.38 33.98, 18.83 29.62 M11.22 62.76 C14.75 59.91, 16.74 56.59, 19.1 53.7 M11.22 62.76 C12.54 60.41, 14.57 58.33, 19.1 53.7 M15.43 82.31 C16.08 80.93, 17.66 80.58, 19.36 77.78 M15.43 82.31 C16.82 80.47, 18.25 79.11, 19.36 77.78 M2.46 81.01 C2.46 81.01, 2.46 81.01, 2.46 81.01 M2.46 81.01 C2.46 81.01, 2.46 81.01, 2.46 81.01 M19.75 74.84 C16.88 73.42, 12.28 69.59, 9.18 65.65 M19.75 74.84 C16.5 72.94, 13.71 70.66, 9.18 65.65 M20.43 54.23 C16.04 51.94, 15.3 49.23, 9.11 44.39 M20.43 54.23 C16.08 50.1, 10.94 46.91, 9.11 44.39 M20.36 32.97 C17.76 30.46, 11.36 27.1, 9.8 23.79 M20.36 32.97 C18.91 31.48, 16.01 28.96, 9.8 23.79 M20.29 11.71 C15.83 5.79, 11.38 2.7, 5.95 -0.75 M20.29 11.71 C16.3 8.25, 12.05 4.64, 5.95 -0.75" stroke="#4c6ef5" stroke-width="2" fill="none"/>
    <path d="M4.66 0 M4.66 0 C6.32 0.47, 10.18 -0.23, 13.97 0 M4.66 0 C7.78 -0.14, 10.79 -0.33, 13.97 0 M13.97 0 C17.95 0.01, 18.9 3.08, 18.62 4.66 M13.97 0 C15.55 -1.36, 18.22 3.83, 18.62 4.66 M18.62 4.66 C17.81 20.58, 17.89 37.99, 18.62 76.78 M18.62 4.66 C17.85 26.03, 18.58 47.21, 18.62 76.78 M18.62 76.78 C18.22 79.69, 16.8 79.83, 13.97 81.44 M18.62 76.78 C17.22 78.46, 18.12 80.01, 13.97 81.44 M13.97 81.44 C12.28 81.78, 8.27 81.64, 4.66 81.44 M13.97 81.44 C10.34 81.65, 7.89 81.28, 4.66 81.44 M4.66 81.44 C2.33 83.08, -0.25 80.17, 0 76.78 M4.66 81.44 C0.22 81.7, 2 78.87, 0 76.78 M0 76.78 C1.02 57.71, 1.1 33.78, 0 4.66 M0 76.78 C-0.24 53.32, 0.01 28.69, 0 4.66 M0 4.66 C-1.17 0.73, 1.98 -1.2, 4.66 0 M0 4.66 C-1.22 0.87, -0.15 0.61, 4.66 0" stroke="#343a40" stroke-width="4" fill="none"/>
  </g>
  <g stroke-linecap="round" transform="translate(360.5851261797525 140.1295068910672) rotate(149.99999999999991 21.544441099790674 21.544441099790447)">
    <path d="M4.21 10.29 C4.21 10.29, 4.21 10.29, 4.21 10.29 M4.21 10.29 C4.21 10.29, 4.21 10.29, 4.21 10.29 M5.76 31.2 C17.25 19.95, 26.48 11.05, 30.28 1.21 M8.58 29.93 C16.23 20.8, 24.55 10.79, 32.13 3.06 M15.54 46.2 C27.37 30.77, 38.47 21.78, 41.29 14.07 M17.29 44.56 C22.94 37.36, 31.21 30.4, 43.2 14.73 M7.44 37.17 C7.44 37.17, 7.44 37.17, 7.44 37.17 M7.44 37.17 C7.44 37.17, 7.44 37.17, 7.44 37.17 M27.49 33.51 C24.2 27.85, 17.84 25, 7.48 16.2 M29.49 34.75 C22.35 29.23, 15.33 22.87, 5.75 14.98 M42.74 25.22 C35.54 19.6, 27.63 12.43, 11.67 0.65 M42.99 25.57 C33.55 17.97, 22.7 8.22, 12.56 0.87" stroke="#4c6ef5" stroke-width="2" fill="none"/>
    <path d="M15.85 1.14 C19.95 -0.34, 26.89 -0.85, 30.99 1.11 C35.09 3.06, 38.49 8.45, 40.44 12.89 C42.4 17.32, 43.8 23.47, 42.73 27.71 C41.66 31.95, 37.7 35.69, 34.04 38.31 C30.39 40.94, 25.3 43.7, 20.81 43.46 C16.32 43.22, 10.61 40.21, 7.09 36.87 C3.57 33.52, 0.13 27.87, -0.31 23.39 C-0.74 18.92, 1.6 13.95, 4.46 10 C7.32 6.05, 14.27 1.1, 16.85 -0.31 C19.43 -1.73, 19.86 1.01, 19.95 1.5 M23.61 0.83 C28.26 0.83, 34.27 2.55, 37.7 5.84 C41.13 9.14, 44.09 15.76, 44.2 20.58 C44.3 25.4, 41.3 30.99, 38.34 34.77 C35.38 38.54, 31.11 42.31, 26.43 43.21 C21.76 44.11, 14.47 42.55, 10.31 40.17 C6.15 37.78, 3.13 33, 1.48 28.9 C-0.17 24.79, -1.22 19.93, 0.41 15.56 C2.03 11.19, 7.28 5.06, 11.22 2.65 C15.16 0.24, 21.95 1.7, 24.03 1.11 C26.12 0.52, 23.55 -1.13, 23.75 -0.86" stroke="#343a40" stroke-width="4" fill="none"/>
  </g>
  <g stroke-linecap="round" transform="translate(384.57466425172424 84.04027333426689) rotate(269.9999999999999 6.831445202041323 29.872012778649378)">
    <path d="M0.91 0.79 C0.91 0.79, 0.91 0.79, 0.91 0.79 M0.91 0.79 C0.91 0.79, 0.91 0.79, 0.91 0.79 M11.02 13.55 C12.74 12.18, 14.32 10.04, 16.92 6.76 M11.02 13.55 C12.79 11.58, 14.72 9.95, 16.92 6.76 M11.28 37.63 C13.43 35.97, 13.5 34.45, 17.19 30.84 M11.28 37.63 C13.23 34.93, 15.39 33.18, 17.19 30.84 M2.29 59.85 C2.29 59.85, 2.29 59.85, 2.29 59.85 M2.29 59.85 C2.29 59.85, 2.29 59.85, 2.29 59.85 M17.32 51.72 C14.73 48.82, 11.31 46.46, 9.77 45.16 M17.32 51.72 C14.46 49.76, 11.76 47.24, 9.77 45.16 M17.25 30.46 C14.48 27.46, 11.04 26.27, 9.7 23.9 M17.25 30.46 C15.67 29.2, 13.65 27.61, 9.7 23.9 M17.18 9.2 C14.1 7.1, 9.64 2.79, 5.11 -1.3 M17.18 9.2 C15.06 7.37, 11.74 4.31, 5.11 -1.3" stroke="#4c6ef5" stroke-width="2" fill="none"/>
    <path d="M3.42 0 M3.42 0 C5.63 -0.59, 7.95 0.37, 10.25 0 M3.42 0 C5.01 0.27, 7.34 0.23, 10.25 0 M10.25 0 C13.67 -1.56, 15.61 2.61, 13.66 3.42 M10.25 0 C11.64 -1, 15.56 0.66, 13.66 3.42 M13.66 3.42 C12.3 12.99, 14.73 24.9, 13.66 56.33 M13.66 3.42 C12.8 22.24, 12.87 38.94, 13.66 56.33 M13.66 56.33 C12.29 59.51, 13.33 60.41, 10.25 59.74 M13.66 56.33 C13.67 58.81, 14.31 60.05, 10.25 59.74 M10.25 59.74 C7.55 59.68, 4.68 60.28, 3.42 59.74 M10.25 59.74 C9.18 59.72, 7.52 59.82, 3.42 59.74 M3.42 59.74 C-0.58 58.5, 0.24 60.47, 0 56.33 M3.42 59.74 C0.83 59.34, -0.37 58.22, 0 56.33 M0 56.33 C-1.81 41.54, -1.15 31.52, 0 3.42 M0 56.33 C-0.58 36.58, -0.26 17.76, 0 3.42 M0 3.42 C-0.46 1.75, 2.06 1.04, 3.42 0 M0 3.42 C0.71 2.92, -1.06 0.6, 3.42 0" stroke="#343a40" stroke-width="4" fill="none"/>
  </g>
  <g stroke-linecap="round" transform="translate(332.9700206811867 116.40490628045359) rotate(209.99999999999997 6.831445202041323 29.872012778649378)">
    <path d="M0.91 0.79 C0.91 0.79, 0.91 0.79, 0.91 0.79 M0.91 0.79 C0.91 0.79, 0.91 0.79, 0.91 0.79 M11.02 13.55 C13.27 10.64, 15.84 8.44, 16.92 6.76 M11.02 13.55 C12.93 11.44, 14.98 8.37, 16.92 6.76 M11.28 37.63 C12.29 35.53, 13.76 34.12, 17.19 30.84 M11.28 37.63 C13.11 35.14, 14.77 32.85, 17.19 30.84 M2.29 59.85 C2.29 59.85, 2.29 59.85, 2.29 59.85 M2.29 59.85 C2.29 59.85, 2.29 59.85, 2.29 59.85 M17.32 51.72 C15.35 48.87, 13.18 47.94, 9.77 45.16 M17.32 51.72 C14.91 49.78, 12.19 47.24, 9.77 45.16 M17.25 30.46 C15.58 29.64, 13.42 26.89, 9.7 23.9 M17.25 30.46 C15.36 28.47, 12.89 26.33, 9.7 23.9 M17.18 9.2 C14.39 7.02, 11.8 3.42, 5.11 -1.3 M17.18 9.2 C13.87 5.03, 8.59 1.88, 5.11 -1.3" stroke="#4c6ef5" stroke-width="2" fill="none"/>
    <path d="M3.42 0 M3.42 0 C5.53 -0.23, 6.72 0.24, 10.25 0 M3.42 0 C5.2 0.18, 7.23 0.03, 10.25 0 M10.25 0 C11.11 1.95, 11.74 2.56, 13.66 3.42 M10.25 0 C11.62 -1.79, 11.86 2.21, 13.66 3.42 M13.66 3.42 C15.82 13.93, 15.36 27.3, 13.66 56.33 M13.66 3.42 C13.23 17.09, 12.93 32.77, 13.66 56.33 M13.66 56.33 C14.19 58.68, 10.69 61.36, 10.25 59.74 M13.66 56.33 C14.22 56.78, 11.07 61.73, 10.25 59.74 M10.25 59.74 C7.66 59.8, 6.03 59.14, 3.42 59.74 M10.25 59.74 C8.5 59.84, 6.23 59.98, 3.42 59.74 M3.42 59.74 C-0.62 59.23, -1.22 58.75, 0 56.33 M3.42 59.74 C1.39 61.21, -1.51 59.13, 0 56.33 M0 56.33 C1.41 42.52, 1.45 30.82, 0 3.42 M0 56.33 C0.6 42.19, -0.56 29.48, 0 3.42 M0 3.42 C1.56 -0.27, -0.64 1.81, 3.42 0 M0 3.42 C2.17 1.82, 3 -0.31, 3.42 0" stroke="#343a40" stroke-width="4" fill="none"/>
  </g>
</svg>
