<svg width="330" height="347" viewBox="0 0 330 347" fill="none" xmlns="http://www.w3.org/2000/svg">
<rect x="75.7871" width="228.484" height="314.166" rx="114.242" fill="url(#paint0_linear_380_100)"/>
<path d="M113.868 114.242C113.868 72.1793 147.966 38.0806 190.029 38.0806V38.0806C232.092 38.0806 266.191 72.1792 266.191 114.242V224.676C266.191 266.739 232.092 300.838 190.029 300.838V300.838C147.966 300.838 113.868 266.739 113.868 224.676V114.242Z" fill="#02796A"/>
<rect x="47.2266" y="142.08" width="281.848" height="204.455" rx="10" fill="#015A50"/>
<path d="M47.2266 152.08C47.2266 146.557 51.7037 142.08 57.2266 142.08H195.081V346.535H57.2266C51.7037 346.535 47.2266 342.058 47.2266 336.535V152.08Z" fill="url(#paint1_linear_380_100)"/>
<path d="M47.2266 337.294H329.075C329.075 342.398 324.937 346.535 319.834 346.535H56.4675C51.3639 346.535 47.2266 342.398 47.2266 337.294Z" fill="#015A50"/>
<rect x="161.583" y="341.915" width="66.9967" height="4.62046" rx="2.31023" fill="#00082B"/>
<path d="M47.2266 151.321C47.2266 146.217 51.3639 142.08 56.4675 142.08H319.834C324.937 142.08 329.075 146.217 329.075 151.321H47.2266Z" fill="#52B590"/>
<path d="M247.725 246.699L129.506 142L153.5 142L204.742 202.145L285.622 260.421L100.803 243.672L46.6491 320.545L46.6491 295.132L93.2947 228.655L247.725 246.699Z" fill="#F4F0F6"/>
<path d="M211.253 289.357L172.556 242.575H192.193L227.424 289.357L197.969 313.614L257 346.5L254.5 346.5L185.84 313.614L211.253 289.357Z" fill="#F4F0F6"/>
<path d="M311.171 267.987L267.277 258.746L258.036 240.264L316.369 263.366L329 284V287.5L311.171 267.987Z" fill="#F4F0F6"/>
<path d="M249 16.5L217.5 43L227 47.5L249 16.5Z" fill="#F4F0F6"/>
<path d="M83.6133 213.119L92.8542 238.531L134.438 236.221L96.3195 205.033L80.1479 170.379L88.2337 205.033H66.2865L47.5 177V183L62.8212 213.119H83.6133Z" fill="#F4F0F6"/>
<defs>
<linearGradient id="paint0_linear_380_100" x1="190.029" y1="0" x2="190.029" y2="314.166" gradientUnits="userSpaceOnUse">
<stop stop-color="#015B50"/>
<stop offset="1" stop-color="#00082B"/>
</linearGradient>
<linearGradient id="paint1_linear_380_100" x1="15.9496" y1="360.475" x2="267.787" y2="147.355" gradientUnits="userSpaceOnUse">
<stop stop-color="#015B50"/>
<stop offset="1" stop-color="#52B590"/>
</linearGradient>
</defs>
</svg>
