<svg id="svg" version="1.1" xmlns="http://www.w3.org/2000/svg" xmlns:xlink="http://www.w3.org/1999/xlink" width="400" height="400" viewBox="0, 0, 400,400"><g id="svgg"><path id="path0" d="M173.969 4.492 C 173.800 4.935,173.085 5.078,171.052 5.078 C 169.517 5.078,168.359 5.246,168.359 5.469 C 168.359 5.686,167.318 5.859,166.016 5.859 C 164.714 5.859,163.672 6.033,163.672 6.250 C 163.672 6.465,162.793 6.641,161.719 6.641 C 160.645 6.641,159.766 6.816,159.766 7.031 C 159.766 7.246,158.887 7.422,157.813 7.422 C 156.738 7.422,155.859 7.598,155.859 7.813 C 155.859 8.027,155.156 8.203,154.297 8.203 C 153.438 8.203,152.734 8.379,152.734 8.594 C 152.734 8.809,152.031 8.984,151.172 8.984 C 150.313 8.984,149.609 9.160,149.609 9.375 C 149.609 9.590,148.906 9.766,148.047 9.766 C 147.188 9.766,146.484 9.941,146.484 10.156 C 146.484 10.371,145.781 10.547,144.922 10.547 C 144.063 10.547,143.359 10.723,143.359 10.938 C 143.359 11.152,142.832 11.328,142.188 11.328 C 141.543 11.328,141.016 11.504,141.016 11.719 C 141.016 11.934,140.488 12.109,139.844 12.109 C 139.199 12.109,138.672 12.285,138.672 12.500 C 138.672 12.715,138.145 12.891,137.500 12.891 C 136.855 12.891,136.328 13.066,136.328 13.281 C 136.328 13.496,135.801 13.672,135.156 13.672 C 134.512 13.672,133.984 13.848,133.984 14.063 C 133.984 14.277,133.457 14.453,132.813 14.453 C 132.168 14.453,131.641 14.629,131.641 14.844 C 131.641 15.059,131.113 15.234,130.469 15.234 C 129.824 15.234,129.297 15.410,129.297 15.625 C 129.297 15.840,128.770 16.016,128.125 16.016 C 127.480 16.016,126.953 16.191,126.953 16.406 C 126.953 16.621,126.602 16.797,126.172 16.797 C 125.742 16.797,125.391 16.973,125.391 17.188 C 125.391 17.402,124.863 17.578,124.219 17.578 C 123.574 17.578,123.047 17.754,123.047 17.969 C 123.047 18.184,122.695 18.359,122.266 18.359 C 121.836 18.359,121.484 18.535,121.484 18.750 C 121.484 18.965,121.133 19.141,120.703 19.141 C 120.273 19.141,119.922 19.316,119.922 19.531 C 119.922 19.746,119.395 19.922,118.750 19.922 C 118.105 19.922,117.578 20.098,117.578 20.313 C 117.578 20.527,117.227 20.703,116.797 20.703 C 116.367 20.703,116.016 20.879,116.016 21.094 C 116.016 21.309,115.664 21.484,115.234 21.484 C 114.805 21.484,114.453 21.660,114.453 21.875 C 114.453 22.090,114.102 22.266,113.672 22.266 C 113.242 22.266,112.891 22.441,112.891 22.656 C 112.891 22.871,112.539 23.047,112.109 23.047 C 111.680 23.047,111.328 23.223,111.328 23.438 C 111.328 23.652,110.977 23.828,110.547 23.828 C 110.117 23.828,109.766 24.004,109.766 24.219 C 109.766 24.434,109.414 24.609,108.984 24.609 C 108.555 24.609,108.203 24.785,108.203 25.000 C 108.203 25.215,107.852 25.391,107.422 25.391 C 106.992 25.391,106.641 25.566,106.641 25.781 C 106.641 25.996,106.289 26.172,105.859 26.172 C 105.430 26.172,105.078 26.348,105.078 26.563 C 105.078 26.777,104.727 26.953,104.297 26.953 C 103.867 26.953,103.516 27.129,103.516 27.344 C 103.516 27.559,103.164 27.734,102.734 27.734 C 102.305 27.734,101.953 27.910,101.953 28.125 C 101.953 28.340,101.640 28.516,101.258 28.516 C 100.876 28.516,100.310 28.867,100.000 29.297 C 99.690 29.727,99.124 30.078,98.742 30.078 C 98.360 30.078,98.047 30.254,98.047 30.469 C 98.047 30.684,97.734 30.859,97.352 30.859 C 96.970 30.859,96.403 31.211,96.094 31.641 C 95.784 32.070,95.218 32.422,94.836 32.422 C 94.453 32.422,94.141 32.598,94.141 32.813 C 94.141 33.027,93.828 33.203,93.446 33.203 C 93.063 33.203,92.497 33.555,92.188 33.984 C 91.878 34.414,91.350 34.766,91.016 34.766 C 90.681 34.766,90.153 35.117,89.844 35.547 C 89.534 35.977,89.007 36.328,88.672 36.328 C 88.337 36.328,87.810 36.680,87.500 37.109 C 87.190 37.539,86.663 37.891,86.328 37.891 C 85.993 37.891,85.466 38.242,85.156 38.672 C 84.847 39.102,84.351 39.453,84.055 39.453 C 83.759 39.453,83.024 39.980,82.422 40.625 C 81.820 41.270,81.117 41.797,80.859 41.797 C 80.602 41.797,79.899 42.324,79.297 42.969 C 78.695 43.613,77.995 44.141,77.742 44.141 C 77.489 44.141,76.607 44.844,75.781 45.703 C 74.956 46.563,74.077 47.266,73.828 47.266 C 73.580 47.266,72.701 47.969,71.875 48.828 C 71.049 49.688,70.178 50.391,69.939 50.391 C 69.700 50.391,67.758 52.148,65.625 54.297 C 63.492 56.445,61.561 58.203,61.335 58.203 C 60.799 58.203,55.078 63.925,55.078 64.462 C 55.078 64.688,53.496 66.442,51.562 68.359 C 49.629 70.276,48.047 72.039,48.047 72.276 C 48.047 72.513,47.168 73.563,46.094 74.609 C 45.020 75.656,44.141 76.713,44.141 76.958 C 44.141 77.204,43.437 78.081,42.578 78.906 C 41.719 79.732,41.016 80.614,41.016 80.867 C 41.016 81.120,40.488 81.820,39.844 82.422 C 39.199 83.024,38.672 83.759,38.672 84.055 C 38.672 84.351,38.320 84.847,37.891 85.156 C 37.461 85.466,37.109 85.962,37.109 86.258 C 37.109 86.554,36.582 87.289,35.938 87.891 C 35.293 88.493,34.766 89.228,34.766 89.524 C 34.766 89.820,34.414 90.315,33.984 90.625 C 33.555 90.935,33.203 91.462,33.203 91.797 C 33.203 92.132,32.852 92.659,32.422 92.969 C 31.992 93.278,31.641 93.845,31.641 94.227 C 31.641 94.609,31.465 94.922,31.250 94.922 C 31.035 94.922,30.859 95.235,30.859 95.617 C 30.859 95.999,30.508 96.565,30.078 96.875 C 29.648 97.185,29.297 97.712,29.297 98.047 C 29.297 98.382,28.945 98.909,28.516 99.219 C 28.086 99.528,27.734 100.095,27.734 100.477 C 27.734 100.859,27.559 101.172,27.344 101.172 C 27.129 101.172,26.953 101.523,26.953 101.953 C 26.953 102.383,26.777 102.734,26.563 102.734 C 26.348 102.734,26.172 103.047,26.172 103.429 C 26.172 103.812,25.820 104.378,25.391 104.688 C 24.961 104.997,24.609 105.563,24.609 105.946 C 24.609 106.328,24.434 106.641,24.219 106.641 C 24.004 106.641,23.828 106.992,23.828 107.422 C 23.828 107.852,23.652 108.203,23.438 108.203 C 23.223 108.203,23.047 108.555,23.047 108.984 C 23.047 109.414,22.871 109.766,22.656 109.766 C 22.441 109.766,22.266 110.117,22.266 110.547 C 22.266 110.977,22.090 111.328,21.875 111.328 C 21.660 111.328,21.484 111.680,21.484 112.109 C 21.484 112.539,21.309 112.891,21.094 112.891 C 20.879 112.891,20.703 113.242,20.703 113.672 C 20.703 114.102,20.527 114.453,20.313 114.453 C 20.098 114.453,19.922 114.805,19.922 115.234 C 19.922 115.664,19.746 116.016,19.531 116.016 C 19.316 116.016,19.141 116.367,19.141 116.797 C 19.141 117.227,18.965 117.578,18.750 117.578 C 18.535 117.578,18.359 118.105,18.359 118.750 C 18.359 119.395,18.184 119.922,17.969 119.922 C 17.754 119.922,17.578 120.273,17.578 120.703 C 17.578 121.133,17.402 121.484,17.188 121.484 C 16.973 121.484,16.797 121.836,16.797 122.266 C 16.797 122.695,16.621 123.047,16.406 123.047 C 16.191 123.047,16.016 123.398,16.016 123.828 C 16.016 124.258,15.840 124.609,15.625 124.609 C 15.410 124.609,15.234 125.137,15.234 125.781 C 15.234 126.426,15.059 126.953,14.844 126.953 C 14.629 126.953,14.453 127.305,14.453 127.734 C 14.453 128.164,14.277 128.516,14.063 128.516 C 13.848 128.516,13.672 129.043,13.672 129.688 C 13.672 130.332,13.496 130.859,13.281 130.859 C 13.066 130.859,12.891 131.387,12.891 132.031 C 12.891 132.676,12.715 133.203,12.500 133.203 C 12.285 133.203,12.109 133.730,12.109 134.375 C 12.109 135.020,11.934 135.547,11.719 135.547 C 11.504 135.547,11.328 135.898,11.328 136.328 C 11.328 136.758,11.152 137.109,10.938 137.109 C 10.723 137.109,10.547 137.813,10.547 138.672 C 10.547 139.531,10.371 140.234,10.156 140.234 C 9.941 140.234,9.766 140.762,9.766 141.406 C 9.766 142.051,9.590 142.578,9.375 142.578 C 9.160 142.578,8.984 143.105,8.984 143.750 C 8.984 144.395,8.809 144.922,8.594 144.922 C 8.379 144.922,8.203 145.625,8.203 146.484 C 8.203 147.344,8.027 148.047,7.813 148.047 C 7.598 148.047,7.422 148.574,7.422 149.219 C 7.422 149.863,7.246 150.391,7.031 150.391 C 6.816 150.391,6.641 151.094,6.641 151.953 C 6.641 152.813,6.465 153.516,6.250 153.516 C 6.035 153.516,5.859 154.395,5.859 155.469 C 5.859 156.543,5.684 157.422,5.469 157.422 C 5.254 157.422,5.078 158.125,5.078 158.984 C 5.078 159.844,4.902 160.547,4.688 160.547 C 4.473 160.547,4.297 161.426,4.297 162.500 C 4.297 163.574,4.121 164.453,3.906 164.453 C 3.689 164.453,3.516 165.495,3.516 166.797 C 3.516 168.099,3.342 169.141,3.125 169.141 C 2.902 169.141,2.734 170.313,2.734 171.875 C 2.734 174.045,2.613 174.609,2.148 174.609 C 1.634 174.609,1.563 177.734,1.563 200.391 C 1.563 223.047,1.634 226.172,2.148 226.172 C 2.613 226.172,2.734 226.736,2.734 228.906 C 2.734 230.469,2.902 231.641,3.125 231.641 C 3.342 231.641,3.516 232.682,3.516 233.984 C 3.516 235.286,3.689 236.328,3.906 236.328 C 4.121 236.328,4.297 237.207,4.297 238.281 C 4.297 239.355,4.473 240.234,4.688 240.234 C 4.902 240.234,5.078 240.937,5.078 241.797 C 5.078 242.656,5.254 243.359,5.469 243.359 C 5.684 243.359,5.859 244.238,5.859 245.313 C 5.859 246.387,6.035 247.266,6.250 247.266 C 6.465 247.266,6.641 247.969,6.641 248.828 C 6.641 249.688,6.816 250.391,7.031 250.391 C 7.246 250.391,7.422 250.918,7.422 251.563 C 7.422 252.207,7.598 252.734,7.813 252.734 C 8.027 252.734,8.203 253.437,8.203 254.297 C 8.203 255.156,8.379 255.859,8.594 255.859 C 8.809 255.859,8.984 256.387,8.984 257.031 C 8.984 257.676,9.160 258.203,9.375 258.203 C 9.590 258.203,9.766 258.730,9.766 259.375 C 9.766 260.020,9.941 260.547,10.156 260.547 C 10.371 260.547,10.547 261.250,10.547 262.109 C 10.547 262.969,10.723 263.672,10.938 263.672 C 11.152 263.672,11.328 264.023,11.328 264.453 C 11.328 264.883,11.504 265.234,11.719 265.234 C 11.934 265.234,12.109 265.762,12.109 266.406 C 12.109 267.051,12.285 267.578,12.500 267.578 C 12.715 267.578,12.891 268.105,12.891 268.750 C 12.891 269.395,13.066 269.922,13.281 269.922 C 13.496 269.922,13.672 270.449,13.672 271.094 C 13.672 271.738,13.848 272.266,14.063 272.266 C 14.277 272.266,14.453 272.617,14.453 273.047 C 14.453 273.477,14.629 273.828,14.844 273.828 C 15.059 273.828,15.234 274.355,15.234 275.000 C 15.234 275.645,15.410 276.172,15.625 276.172 C 15.840 276.172,16.016 276.523,16.016 276.953 C 16.016 277.383,16.191 277.734,16.406 277.734 C 16.621 277.734,16.797 278.086,16.797 278.516 C 16.797 278.945,16.973 279.297,17.188 279.297 C 17.402 279.297,17.578 279.648,17.578 280.078 C 17.578 280.508,17.754 280.859,17.969 280.859 C 18.184 280.859,18.359 281.387,18.359 282.031 C 18.359 282.676,18.535 283.203,18.750 283.203 C 18.965 283.203,19.141 283.555,19.141 283.984 C 19.141 284.414,19.316 284.766,19.531 284.766 C 19.746 284.766,19.922 285.117,19.922 285.547 C 19.922 285.977,20.098 286.328,20.313 286.328 C 20.527 286.328,20.703 286.680,20.703 287.109 C 20.703 287.539,20.879 287.891,21.094 287.891 C 21.309 287.891,21.484 288.242,21.484 288.672 C 21.484 289.102,21.660 289.453,21.875 289.453 C 22.090 289.453,22.266 289.805,22.266 290.234 C 22.266 290.664,22.441 291.016,22.656 291.016 C 22.871 291.016,23.047 291.367,23.047 291.797 C 23.047 292.227,23.223 292.578,23.438 292.578 C 23.652 292.578,23.828 292.930,23.828 293.359 C 23.828 293.789,24.004 294.141,24.219 294.141 C 24.434 294.141,24.609 294.453,24.609 294.836 C 24.609 295.218,24.961 295.784,25.391 296.094 C 25.820 296.403,26.172 296.970,26.172 297.352 C 26.172 297.734,26.348 298.047,26.563 298.047 C 26.777 298.047,26.953 298.398,26.953 298.828 C 26.953 299.258,27.129 299.609,27.344 299.609 C 27.559 299.609,27.734 299.922,27.734 300.304 C 27.734 300.687,28.086 301.253,28.516 301.562 C 28.945 301.872,29.297 302.400,29.297 302.734 C 29.297 303.069,29.648 303.597,30.078 303.906 C 30.508 304.216,30.859 304.782,30.859 305.164 C 30.859 305.547,31.035 305.859,31.250 305.859 C 31.465 305.859,31.641 306.172,31.641 306.554 C 31.641 306.937,31.992 307.503,32.422 307.812 C 32.852 308.122,33.203 308.650,33.203 308.984 C 33.203 309.319,33.555 309.847,33.984 310.156 C 34.414 310.466,34.766 310.962,34.766 311.258 C 34.766 311.554,35.293 312.289,35.937 312.891 C 36.582 313.493,37.109 314.228,37.109 314.524 C 37.109 314.820,37.461 315.315,37.891 315.625 C 38.320 315.935,38.672 316.430,38.672 316.726 C 38.672 317.022,39.199 317.757,39.844 318.359 C 40.488 318.961,41.016 319.661,41.016 319.914 C 41.016 320.167,41.719 321.049,42.578 321.875 C 43.438 322.701,44.141 323.577,44.141 323.823 C 44.141 324.068,45.020 325.126,46.094 326.172 C 47.168 327.218,48.047 328.268,48.047 328.505 C 48.047 328.742,49.629 330.505,51.562 332.422 C 53.496 334.339,55.078 336.093,55.078 336.319 C 55.078 336.856,60.799 342.578,61.335 342.578 C 61.561 342.578,63.492 344.336,65.625 346.484 C 67.758 348.633,69.700 350.391,69.939 350.391 C 70.178 350.391,71.049 351.094,71.875 351.953 C 72.701 352.813,73.580 353.516,73.828 353.516 C 74.077 353.516,74.956 354.219,75.781 355.078 C 76.607 355.938,77.489 356.641,77.742 356.641 C 77.995 356.641,78.695 357.168,79.297 357.813 C 79.899 358.457,80.602 358.984,80.859 358.984 C 81.117 358.984,81.820 359.512,82.422 360.156 C 83.024 360.801,83.759 361.328,84.055 361.328 C 84.351 361.328,84.847 361.680,85.156 362.109 C 85.466 362.539,85.993 362.891,86.328 362.891 C 86.663 362.891,87.190 363.242,87.500 363.672 C 87.810 364.102,88.337 364.453,88.672 364.453 C 89.007 364.453,89.534 364.805,89.844 365.234 C 90.153 365.664,90.681 366.016,91.016 366.016 C 91.350 366.016,91.878 366.367,92.188 366.797 C 92.497 367.227,93.063 367.578,93.446 367.578 C 93.828 367.578,94.141 367.754,94.141 367.969 C 94.141 368.184,94.453 368.359,94.836 368.359 C 95.218 368.359,95.784 368.711,96.094 369.141 C 96.403 369.570,96.970 369.922,97.352 369.922 C 97.734 369.922,98.047 370.098,98.047 370.313 C 98.047 370.527,98.360 370.703,98.742 370.703 C 99.124 370.703,99.690 371.055,100.000 371.484 C 100.310 371.914,100.876 372.266,101.258 372.266 C 101.640 372.266,101.953 372.441,101.953 372.656 C 101.953 372.871,102.305 373.047,102.734 373.047 C 103.164 373.047,103.516 373.223,103.516 373.438 C 103.516 373.652,103.867 373.828,104.297 373.828 C 104.727 373.828,105.078 374.004,105.078 374.219 C 105.078 374.434,105.430 374.609,105.859 374.609 C 106.289 374.609,106.641 374.785,106.641 375.000 C 106.641 375.215,106.992 375.391,107.422 375.391 C 107.852 375.391,108.203 375.566,108.203 375.781 C 108.203 375.996,108.555 376.172,108.984 376.172 C 109.414 376.172,109.766 376.348,109.766 376.563 C 109.766 376.777,110.117 376.953,110.547 376.953 C 110.977 376.953,111.328 377.129,111.328 377.344 C 111.328 377.559,111.680 377.734,112.109 377.734 C 112.539 377.734,112.891 377.910,112.891 378.125 C 112.891 378.340,113.242 378.516,113.672 378.516 C 114.102 378.516,114.453 378.691,114.453 378.906 C 114.453 379.121,114.805 379.297,115.234 379.297 C 115.664 379.297,116.016 379.473,116.016 379.688 C 116.016 379.902,116.367 380.078,116.797 380.078 C 117.227 380.078,117.578 380.254,117.578 380.469 C 117.578 380.684,118.105 380.859,118.750 380.859 C 119.395 380.859,119.922 381.035,119.922 381.250 C 119.922 381.465,120.273 381.641,120.703 381.641 C 121.133 381.641,121.484 381.816,121.484 382.031 C 121.484 382.246,121.836 382.422,122.266 382.422 C 122.695 382.422,123.047 382.598,123.047 382.813 C 123.047 383.027,123.574 383.203,124.219 383.203 C 124.863 383.203,125.391 383.379,125.391 383.594 C 125.391 383.809,125.742 383.984,126.172 383.984 C 126.602 383.984,126.953 384.160,126.953 384.375 C 126.953 384.590,127.480 384.766,128.125 384.766 C 128.770 384.766,129.297 384.941,129.297 385.156 C 129.297 385.371,129.824 385.547,130.469 385.547 C 131.113 385.547,131.641 385.723,131.641 385.938 C 131.641 386.152,132.168 386.328,132.813 386.328 C 133.457 386.328,133.984 386.504,133.984 386.719 C 133.984 386.934,134.512 387.109,135.156 387.109 C 135.801 387.109,136.328 387.285,136.328 387.500 C 136.328 387.715,136.855 387.891,137.500 387.891 C 138.145 387.891,138.672 388.066,138.672 388.281 C 138.672 388.496,139.199 388.672,139.844 388.672 C 140.488 388.672,141.016 388.848,141.016 389.063 C 141.016 389.277,141.543 389.453,142.188 389.453 C 142.832 389.453,143.359 389.629,143.359 389.844 C 143.359 390.059,144.063 390.234,144.922 390.234 C 145.781 390.234,146.484 390.410,146.484 390.625 C 146.484 390.840,147.188 391.016,148.047 391.016 C 148.906 391.016,149.609 391.191,149.609 391.406 C 149.609 391.621,150.313 391.797,151.172 391.797 C 152.031 391.797,152.734 391.973,152.734 392.188 C 152.734 392.402,153.438 392.578,154.297 392.578 C 155.156 392.578,155.859 392.754,155.859 392.969 C 155.859 393.184,156.738 393.359,157.813 393.359 C 158.887 393.359,159.766 393.535,159.766 393.750 C 159.766 393.965,160.645 394.141,161.719 394.141 C 162.793 394.141,163.672 394.316,163.672 394.531 C 163.672 394.748,164.714 394.922,166.016 394.922 C 167.318 394.922,168.359 395.095,168.359 395.313 C 168.359 395.535,169.517 395.703,171.052 395.703 C 173.085 395.703,173.800 395.847,173.969 396.289 C 174.310 397.177,224.909 397.177,225.249 396.289 C 225.419 395.847,226.134 395.703,228.167 395.703 C 229.701 395.703,230.859 395.535,230.859 395.313 C 230.859 395.095,231.901 394.922,233.203 394.922 C 234.505 394.922,235.547 394.748,235.547 394.531 C 235.547 394.316,236.426 394.141,237.500 394.141 C 238.574 394.141,239.453 393.965,239.453 393.750 C 239.453 393.535,240.332 393.359,241.406 393.359 C 242.480 393.359,243.359 393.184,243.359 392.969 C 243.359 392.754,244.062 392.578,244.922 392.578 C 245.781 392.578,246.484 392.402,246.484 392.188 C 246.484 391.973,247.187 391.797,248.047 391.797 C 248.906 391.797,249.609 391.621,249.609 391.406 C 249.609 391.191,250.312 391.016,251.172 391.016 C 252.031 391.016,252.734 390.840,252.734 390.625 C 252.734 390.410,253.437 390.234,254.297 390.234 C 255.156 390.234,255.859 390.059,255.859 389.844 C 255.859 389.629,256.387 389.453,257.031 389.453 C 257.676 389.453,258.203 389.277,258.203 389.063 C 258.203 388.848,258.730 388.672,259.375 388.672 C 260.020 388.672,260.547 388.496,260.547 388.281 C 260.547 388.066,261.074 387.891,261.719 387.891 C 262.363 387.891,262.891 387.715,262.891 387.500 C 262.891 387.285,263.418 387.109,264.063 387.109 C 264.707 387.109,265.234 386.934,265.234 386.719 C 265.234 386.504,265.762 386.328,266.406 386.328 C 267.051 386.328,267.578 386.152,267.578 385.938 C 267.578 385.723,268.105 385.547,268.750 385.547 C 269.395 385.547,269.922 385.371,269.922 385.156 C 269.922 384.941,270.449 384.766,271.094 384.766 C 271.738 384.766,272.266 384.590,272.266 384.375 C 272.266 384.160,272.617 383.984,273.047 383.984 C 273.477 383.984,273.828 383.809,273.828 383.594 C 273.828 383.379,274.355 383.203,275.000 383.203 C 275.645 383.203,276.172 383.027,276.172 382.813 C 276.172 382.598,276.523 382.422,276.953 382.422 C 277.383 382.422,277.734 382.246,277.734 382.031 C 277.734 381.816,278.086 381.641,278.516 381.641 C 278.945 381.641,279.297 381.465,279.297 381.250 C 279.297 381.035,279.824 380.859,280.469 380.859 C 281.113 380.859,281.641 380.684,281.641 380.469 C 281.641 380.254,281.992 380.078,282.422 380.078 C 282.852 380.078,283.203 379.902,283.203 379.688 C 283.203 379.473,283.555 379.297,283.984 379.297 C 284.414 379.297,284.766 379.121,284.766 378.906 C 284.766 378.691,285.117 378.516,285.547 378.516 C 285.977 378.516,286.328 378.340,286.328 378.125 C 286.328 377.910,286.680 377.734,287.109 377.734 C 287.539 377.734,287.891 377.559,287.891 377.344 C 287.891 377.129,288.242 376.953,288.672 376.953 C 289.102 376.953,289.453 376.777,289.453 376.563 C 289.453 376.348,289.805 376.172,290.234 376.172 C 290.664 376.172,291.016 375.996,291.016 375.781 C 291.016 375.566,291.367 375.391,291.797 375.391 C 292.227 375.391,292.578 375.215,292.578 375.000 C 292.578 374.785,292.930 374.609,293.359 374.609 C 293.789 374.609,294.141 374.434,294.141 374.219 C 294.141 374.004,294.492 373.828,294.922 373.828 C 295.352 373.828,295.703 373.652,295.703 373.438 C 295.703 373.223,296.055 373.047,296.484 373.047 C 296.914 373.047,297.266 372.871,297.266 372.656 C 297.266 372.441,297.578 372.266,297.961 372.266 C 298.343 372.266,298.909 371.914,299.219 371.484 C 299.528 371.055,300.095 370.703,300.477 370.703 C 300.859 370.703,301.172 370.527,301.172 370.313 C 301.172 370.098,301.485 369.922,301.867 369.922 C 302.249 369.922,302.815 369.570,303.125 369.141 C 303.435 368.711,304.001 368.359,304.383 368.359 C 304.765 368.359,305.078 368.184,305.078 367.969 C 305.078 367.754,305.391 367.578,305.773 367.578 C 306.155 367.578,306.722 367.227,307.031 366.797 C 307.341 366.367,307.868 366.016,308.203 366.016 C 308.538 366.016,309.065 365.664,309.375 365.234 C 309.685 364.805,310.212 364.453,310.547 364.453 C 310.882 364.453,311.409 364.102,311.719 363.672 C 312.028 363.242,312.556 362.891,312.891 362.891 C 313.225 362.891,313.753 362.539,314.062 362.109 C 314.372 361.680,314.868 361.328,315.164 361.328 C 315.460 361.328,316.195 360.801,316.797 360.156 C 317.399 359.512,318.102 358.984,318.359 358.984 C 318.617 358.984,319.320 358.457,319.922 357.812 C 320.524 357.168,321.223 356.641,321.476 356.641 C 321.729 356.641,322.612 355.938,323.438 355.078 C 324.263 354.219,325.140 353.516,325.385 353.516 C 325.631 353.516,326.688 352.637,327.734 351.563 C 328.781 350.488,329.831 349.609,330.068 349.609 C 330.305 349.609,332.067 348.027,333.984 346.094 C 335.901 344.160,337.655 342.578,337.882 342.578 C 338.419 342.578,344.141 336.857,344.141 336.319 C 344.141 336.093,345.723 334.339,347.656 332.422 C 349.590 330.505,351.172 328.742,351.172 328.505 C 351.172 328.268,352.051 327.218,353.125 326.172 C 354.199 325.126,355.078 324.068,355.078 323.823 C 355.078 323.577,355.781 322.701,356.641 321.875 C 357.500 321.049,358.203 320.167,358.203 319.914 C 358.203 319.661,358.730 318.961,359.375 318.359 C 360.020 317.757,360.547 317.022,360.547 316.726 C 360.547 316.430,360.898 315.935,361.328 315.625 C 361.758 315.315,362.109 314.820,362.109 314.524 C 362.109 314.228,362.637 313.493,363.281 312.891 C 363.926 312.289,364.453 311.554,364.453 311.258 C 364.453 310.962,364.805 310.466,365.234 310.156 C 365.664 309.847,366.016 309.319,366.016 308.984 C 366.016 308.650,366.367 308.122,366.797 307.813 C 367.227 307.503,367.578 306.937,367.578 306.554 C 367.578 306.172,367.754 305.859,367.969 305.859 C 368.184 305.859,368.359 305.547,368.359 305.164 C 368.359 304.782,368.711 304.216,369.141 303.906 C 369.570 303.597,369.922 303.030,369.922 302.648 C 369.922 302.266,370.098 301.953,370.313 301.953 C 370.527 301.953,370.703 301.640,370.703 301.258 C 370.703 300.876,371.055 300.310,371.484 300.000 C 371.914 299.690,372.266 299.124,372.266 298.742 C 372.266 298.360,372.441 298.047,372.656 298.047 C 372.871 298.047,373.047 297.734,373.047 297.352 C 373.047 296.970,373.398 296.403,373.828 296.094 C 374.258 295.784,374.609 295.218,374.609 294.836 C 374.609 294.453,374.785 294.141,375.000 294.141 C 375.215 294.141,375.391 293.789,375.391 293.359 C 375.391 292.930,375.566 292.578,375.781 292.578 C 375.996 292.578,376.172 292.227,376.172 291.797 C 376.172 291.367,376.348 291.016,376.563 291.016 C 376.777 291.016,376.953 290.664,376.953 290.234 C 376.953 289.805,377.129 289.453,377.344 289.453 C 377.559 289.453,377.734 289.102,377.734 288.672 C 377.734 288.242,377.910 287.891,378.125 287.891 C 378.340 287.891,378.516 287.539,378.516 287.109 C 378.516 286.680,378.691 286.328,378.906 286.328 C 379.121 286.328,379.297 285.977,379.297 285.547 C 379.297 285.117,379.473 284.766,379.688 284.766 C 379.902 284.766,380.078 284.414,380.078 283.984 C 380.078 283.555,380.254 283.203,380.469 283.203 C 380.684 283.203,380.859 282.676,380.859 282.031 C 380.859 281.387,381.035 280.859,381.250 280.859 C 381.465 280.859,381.641 280.508,381.641 280.078 C 381.641 279.648,381.816 279.297,382.031 279.297 C 382.246 279.297,382.422 278.945,382.422 278.516 C 382.422 278.086,382.598 277.734,382.813 277.734 C 383.027 277.734,383.203 277.207,383.203 276.563 C 383.203 275.918,383.379 275.391,383.594 275.391 C 383.809 275.391,383.984 275.039,383.984 274.609 C 383.984 274.180,384.160 273.828,384.375 273.828 C 384.590 273.828,384.766 273.301,384.766 272.656 C 384.766 272.012,384.941 271.484,385.156 271.484 C 385.371 271.484,385.547 271.133,385.547 270.703 C 385.547 270.273,385.723 269.922,385.938 269.922 C 386.152 269.922,386.328 269.395,386.328 268.750 C 386.328 268.105,386.504 267.578,386.719 267.578 C 386.934 267.578,387.109 267.051,387.109 266.406 C 387.109 265.762,387.285 265.234,387.500 265.234 C 387.715 265.234,387.891 264.707,387.891 264.063 C 387.891 263.418,388.066 262.891,388.281 262.891 C 388.496 262.891,388.672 262.363,388.672 261.719 C 388.672 261.074,388.848 260.547,389.063 260.547 C 389.277 260.547,389.453 260.020,389.453 259.375 C 389.453 258.730,389.629 258.203,389.844 258.203 C 390.059 258.203,390.234 257.676,390.234 257.031 C 390.234 256.387,390.410 255.859,390.625 255.859 C 390.840 255.859,391.016 255.156,391.016 254.297 C 391.016 253.437,391.191 252.734,391.406 252.734 C 391.621 252.734,391.797 252.207,391.797 251.563 C 391.797 250.918,391.973 250.391,392.188 250.391 C 392.402 250.391,392.578 249.688,392.578 248.828 C 392.578 247.969,392.754 247.266,392.969 247.266 C 393.184 247.266,393.359 246.387,393.359 245.313 C 393.359 244.238,393.535 243.359,393.750 243.359 C 393.965 243.359,394.141 242.656,394.141 241.797 C 394.141 240.937,394.316 240.234,394.531 240.234 C 394.748 240.234,394.922 239.193,394.922 237.891 C 394.922 236.589,395.095 235.547,395.313 235.547 C 395.530 235.547,395.703 234.505,395.703 233.203 C 395.703 231.901,395.877 230.859,396.094 230.859 C 396.317 230.859,396.484 229.688,396.484 228.125 C 396.484 225.955,396.605 225.391,397.070 225.391 C 397.585 225.391,397.656 222.352,397.656 200.391 C 397.656 178.429,397.585 175.391,397.070 175.391 C 396.605 175.391,396.484 174.826,396.484 172.656 C 396.484 171.094,396.317 169.922,396.094 169.922 C 395.877 169.922,395.703 168.880,395.703 167.578 C 395.703 166.276,395.530 165.234,395.313 165.234 C 395.095 165.234,394.922 164.193,394.922 162.891 C 394.922 161.589,394.748 160.547,394.531 160.547 C 394.316 160.547,394.141 159.844,394.141 158.984 C 394.141 158.125,393.965 157.422,393.750 157.422 C 393.535 157.422,393.359 156.543,393.359 155.469 C 393.359 154.395,393.184 153.516,392.969 153.516 C 392.754 153.516,392.578 152.813,392.578 151.953 C 392.578 151.094,392.402 150.391,392.188 150.391 C 391.973 150.391,391.797 149.863,391.797 149.219 C 391.797 148.574,391.621 148.047,391.406 148.047 C 391.191 148.047,391.016 147.344,391.016 146.484 C 391.016 145.625,390.840 144.922,390.625 144.922 C 390.410 144.922,390.234 144.395,390.234 143.750 C 390.234 143.105,390.059 142.578,389.844 142.578 C 389.629 142.578,389.453 142.051,389.453 141.406 C 389.453 140.762,389.277 140.234,389.063 140.234 C 388.848 140.234,388.672 139.707,388.672 139.063 C 388.672 138.418,388.496 137.891,388.281 137.891 C 388.066 137.891,387.891 137.363,387.891 136.719 C 387.891 136.074,387.715 135.547,387.500 135.547 C 387.285 135.547,387.109 135.020,387.109 134.375 C 387.109 133.730,386.934 133.203,386.719 133.203 C 386.504 133.203,386.328 132.676,386.328 132.031 C 386.328 131.387,386.152 130.859,385.938 130.859 C 385.723 130.859,385.547 130.332,385.547 129.688 C 385.547 129.043,385.371 128.516,385.156 128.516 C 384.941 128.516,384.766 128.164,384.766 127.734 C 384.766 127.305,384.590 126.953,384.375 126.953 C 384.160 126.953,383.984 126.426,383.984 125.781 C 383.984 125.137,383.809 124.609,383.594 124.609 C 383.379 124.609,383.203 124.258,383.203 123.828 C 383.203 123.398,383.027 123.047,382.813 123.047 C 382.598 123.047,382.422 122.695,382.422 122.266 C 382.422 121.836,382.246 121.484,382.031 121.484 C 381.816 121.484,381.641 121.133,381.641 120.703 C 381.641 120.273,381.465 119.922,381.250 119.922 C 381.035 119.922,380.859 119.395,380.859 118.750 C 380.859 118.105,380.684 117.578,380.469 117.578 C 380.254 117.578,380.078 117.227,380.078 116.797 C 380.078 116.367,379.902 116.016,379.688 116.016 C 379.473 116.016,379.297 115.664,379.297 115.234 C 379.297 114.805,379.121 114.453,378.906 114.453 C 378.691 114.453,378.516 114.102,378.516 113.672 C 378.516 113.242,378.340 112.891,378.125 112.891 C 377.910 112.891,377.734 112.539,377.734 112.109 C 377.734 111.680,377.559 111.328,377.344 111.328 C 377.129 111.328,376.953 110.977,376.953 110.547 C 376.953 110.117,376.777 109.766,376.563 109.766 C 376.348 109.766,376.172 109.414,376.172 108.984 C 376.172 108.555,375.996 108.203,375.781 108.203 C 375.566 108.203,375.391 107.852,375.391 107.422 C 375.391 106.992,375.215 106.641,375.000 106.641 C 374.785 106.641,374.609 106.328,374.609 105.946 C 374.609 105.563,374.258 104.997,373.828 104.688 C 373.398 104.378,373.047 103.812,373.047 103.429 C 373.047 103.047,372.871 102.734,372.656 102.734 C 372.441 102.734,372.266 102.383,372.266 101.953 C 372.266 101.523,372.090 101.172,371.875 101.172 C 371.660 101.172,371.484 100.859,371.484 100.477 C 371.484 100.095,371.133 99.528,370.703 99.219 C 370.273 98.909,369.922 98.382,369.922 98.047 C 369.922 97.712,369.570 97.185,369.141 96.875 C 368.711 96.565,368.359 95.999,368.359 95.617 C 368.359 95.235,368.184 94.922,367.969 94.922 C 367.754 94.922,367.578 94.609,367.578 94.227 C 367.578 93.845,367.227 93.278,366.797 92.969 C 366.367 92.659,366.016 92.132,366.016 91.797 C 366.016 91.462,365.664 90.935,365.234 90.625 C 364.805 90.315,364.453 89.820,364.453 89.524 C 364.453 89.228,363.926 88.493,363.281 87.891 C 362.637 87.289,362.109 86.554,362.109 86.258 C 362.109 85.962,361.758 85.466,361.328 85.156 C 360.898 84.847,360.547 84.351,360.547 84.055 C 360.547 83.759,360.020 83.024,359.375 82.422 C 358.730 81.820,358.203 81.120,358.203 80.867 C 358.203 80.614,357.500 79.732,356.641 78.906 C 355.781 78.081,355.078 77.204,355.078 76.958 C 355.078 76.713,354.199 75.656,353.125 74.609 C 352.051 73.563,351.172 72.513,351.172 72.276 C 351.172 72.039,349.590 70.276,347.656 68.359 C 345.723 66.442,344.141 64.688,344.141 64.462 C 344.141 63.925,338.420 58.203,337.883 58.203 C 337.658 58.203,335.727 56.445,333.594 54.297 C 331.460 52.148,329.519 50.391,329.280 50.391 C 329.041 50.391,328.169 49.688,327.344 48.828 C 326.518 47.969,325.639 47.266,325.391 47.266 C 325.142 47.266,324.263 46.563,323.438 45.703 C 322.612 44.844,321.729 44.141,321.476 44.141 C 321.223 44.141,320.524 43.613,319.922 42.969 C 319.320 42.324,318.617 41.797,318.359 41.797 C 318.102 41.797,317.399 41.270,316.797 40.625 C 316.195 39.980,315.460 39.453,315.164 39.453 C 314.868 39.453,314.372 39.102,314.063 38.672 C 313.753 38.242,313.225 37.891,312.891 37.891 C 312.556 37.891,312.028 37.539,311.719 37.109 C 311.409 36.680,310.882 36.328,310.547 36.328 C 310.212 36.328,309.685 35.977,309.375 35.547 C 309.065 35.117,308.538 34.766,308.203 34.766 C 307.868 34.766,307.341 34.414,307.031 33.984 C 306.722 33.555,306.155 33.203,305.773 33.203 C 305.391 33.203,305.078 33.027,305.078 32.813 C 305.078 32.598,304.765 32.422,304.383 32.422 C 304.001 32.422,303.435 32.070,303.125 31.641 C 302.815 31.211,302.249 30.859,301.867 30.859 C 301.485 30.859,301.172 30.684,301.172 30.469 C 301.172 30.254,300.859 30.078,300.477 30.078 C 300.095 30.078,299.528 29.727,299.219 29.297 C 298.909 28.867,298.343 28.516,297.961 28.516 C 297.578 28.516,297.266 28.340,297.266 28.125 C 297.266 27.910,296.914 27.734,296.484 27.734 C 296.055 27.734,295.703 27.559,295.703 27.344 C 295.703 27.129,295.352 26.953,294.922 26.953 C 294.492 26.953,294.141 26.777,294.141 26.563 C 294.141 26.348,293.789 26.172,293.359 26.172 C 292.930 26.172,292.578 25.996,292.578 25.781 C 292.578 25.566,292.227 25.391,291.797 25.391 C 291.367 25.391,291.016 25.215,291.016 25.000 C 291.016 24.785,290.664 24.609,290.234 24.609 C 289.805 24.609,289.453 24.434,289.453 24.219 C 289.453 24.004,289.102 23.828,288.672 23.828 C 288.242 23.828,287.891 23.652,287.891 23.438 C 287.891 23.223,287.539 23.047,287.109 23.047 C 286.680 23.047,286.328 22.871,286.328 22.656 C 286.328 22.441,285.977 22.266,285.547 22.266 C 285.117 22.266,284.766 22.090,284.766 21.875 C 284.766 21.660,284.414 21.484,283.984 21.484 C 283.555 21.484,283.203 21.309,283.203 21.094 C 283.203 20.879,282.852 20.703,282.422 20.703 C 281.992 20.703,281.641 20.527,281.641 20.313 C 281.641 20.098,281.113 19.922,280.469 19.922 C 279.824 19.922,279.297 19.746,279.297 19.531 C 279.297 19.316,278.945 19.141,278.516 19.141 C 278.086 19.141,277.734 18.965,277.734 18.750 C 277.734 18.535,277.383 18.359,276.953 18.359 C 276.523 18.359,276.172 18.184,276.172 17.969 C 276.172 17.754,275.645 17.578,275.000 17.578 C 274.355 17.578,273.828 17.402,273.828 17.188 C 273.828 16.973,273.477 16.797,273.047 16.797 C 272.617 16.797,272.266 16.621,272.266 16.406 C 272.266 16.191,271.738 16.016,271.094 16.016 C 270.449 16.016,269.922 15.840,269.922 15.625 C 269.922 15.410,269.395 15.234,268.750 15.234 C 268.105 15.234,267.578 15.059,267.578 14.844 C 267.578 14.629,267.051 14.453,266.406 14.453 C 265.762 14.453,265.234 14.277,265.234 14.063 C 265.234 13.848,264.707 13.672,264.063 13.672 C 263.418 13.672,262.891 13.496,262.891 13.281 C 262.891 13.066,262.363 12.891,261.719 12.891 C 261.074 12.891,260.547 12.715,260.547 12.500 C 260.547 12.285,260.020 12.109,259.375 12.109 C 258.730 12.109,258.203 11.934,258.203 11.719 C 258.203 11.504,257.676 11.328,257.031 11.328 C 256.387 11.328,255.859 11.152,255.859 10.938 C 255.859 10.723,255.156 10.547,254.297 10.547 C 253.437 10.547,252.734 10.371,252.734 10.156 C 252.734 9.941,252.031 9.766,251.172 9.766 C 250.312 9.766,249.609 9.590,249.609 9.375 C 249.609 9.160,248.906 8.984,248.047 8.984 C 247.187 8.984,246.484 8.809,246.484 8.594 C 246.484 8.379,245.781 8.203,244.922 8.203 C 244.062 8.203,243.359 8.027,243.359 7.813 C 243.359 7.598,242.480 7.422,241.406 7.422 C 240.332 7.422,239.453 7.246,239.453 7.031 C 239.453 6.816,238.574 6.641,237.500 6.641 C 236.426 6.641,235.547 6.465,235.547 6.250 C 235.547 6.033,234.505 5.859,233.203 5.859 C 231.901 5.859,230.859 5.686,230.859 5.469 C 230.859 5.246,229.701 5.078,228.167 5.078 C 226.134 5.078,225.419 4.935,225.249 4.492 C 225.053 3.980,221.840 3.906,199.609 3.906 C 177.378 3.906,174.166 3.980,173.969 4.492 M209.375 12.906 C 305.488 17.937,379.673 88.074,389.914 183.594 C 390.524 189.285,390.767 207.843,390.287 212.109 C 390.057 214.150,389.674 217.666,389.436 219.922 C 382.613 284.501,340.625 342.570,281.033 369.844 C 260.407 379.285,241.015 384.401,216.016 387.000 C 211.656 387.453,188.314 387.320,183.594 386.815 C 151.674 383.400,125.214 374.503,99.609 358.574 C 50.796 328.207,17.519 275.320,12.125 219.531 C 11.886 217.061,11.505 213.369,11.278 211.328 C 9.214 192.739,13.875 160.549,21.841 138.392 C 47.850 66.040,114.353 16.922,191.728 12.915 C 200.256 12.474,201.101 12.473,209.375 12.906 M45.131 152.871 C 44.005 153.695,43.823 157.334,44.846 158.598 C 45.619 159.554,45.748 159.574,52.688 159.766 C 62.438 160.035,61.473 158.458,61.719 174.522 C 61.947 189.429,61.929 189.379,66.589 188.505 C 69.206 188.014,69.141 188.366,69.141 174.795 C 69.141 158.707,68.456 159.772,78.809 159.768 C 86.022 159.765,86.328 159.609,86.328 155.920 C 86.328 152.082,87.863 152.344,65.376 152.344 C 49.601 152.344,45.714 152.445,45.131 152.871 M97.961 153.287 C 82.970 158.578,81.871 180.363,96.263 186.952 C 101.498 189.349,115.710 189.340,120.960 186.936 C 135.587 180.240,134.700 158.611,119.581 153.274 C 115.645 151.885,101.910 151.893,97.961 153.287 M129.943 153.058 C 128.966 154.138,128.756 153.633,137.369 170.947 C 146.521 189.348,145.865 188.477,150.569 188.477 C 154.345 188.477,155.400 187.913,156.647 185.230 C 158.846 180.499,160.683 180.397,162.891 184.883 C 164.352 187.852,165.439 188.477,169.141 188.477 C 173.057 188.477,173.897 187.894,175.943 183.756 C 192.943 149.375,191.973 152.344,186.211 152.344 C 182.580 152.344,182.502 152.442,176.408 164.630 C 169.708 178.031,168.692 178.897,166.198 173.338 C 164.639 169.864,164.899 168.468,168.450 161.255 C 172.676 152.670,172.650 152.344,167.727 152.344 C 164.946 152.344,164.190 152.852,161.396 156.595 C 160.155 158.258,159.198 158.147,157.906 156.193 C 155.697 152.851,154.911 152.344,151.940 152.344 C 147.090 152.344,147.050 153.128,151.454 161.848 C 155.055 168.978,155.214 169.852,153.532 173.269 C 150.795 178.828,149.933 178.115,143.359 164.854 C 137.235 152.500,137.109 152.344,133.234 152.344 C 131.168 152.344,130.448 152.500,129.943 153.058 M194.922 152.846 C 193.975 153.322,179.452 181.661,178.089 185.694 C 177.324 187.956,178.516 188.840,181.960 188.564 C 185.475 188.283,185.699 187.989,191.852 175.512 C 199.235 160.542,198.346 160.539,205.842 175.552 C 211.914 187.711,212.261 188.199,215.076 188.528 C 221.067 189.227,221.070 188.391,215.122 176.367 C 204.342 154.575,203.687 153.334,202.709 152.838 C 201.470 152.210,196.178 152.215,194.922 152.846 M223.301 152.927 C 222.296 153.932,222.222 155.362,222.344 171.568 C 222.479 189.531,222.241 188.477,226.172 188.477 C 230.041 188.477,229.851 189.169,230.078 174.219 C 230.255 162.547,230.338 161.290,230.971 160.658 C 232.077 159.553,254.201 159.595,255.427 160.705 C 256.576 161.745,256.477 163.115,255.191 163.956 C 254.242 164.577,253.209 164.637,245.182 164.537 C 233.561 164.391,232.813 164.656,232.813 168.902 C 232.813 171.911,233.982 173.328,241.602 179.545 C 245.469 182.701,248.809 185.483,249.023 185.728 C 250.832 187.790,252.645 188.386,257.273 188.441 C 264.556 188.527,264.593 188.055,257.735 182.422 C 249.750 175.864,249.233 175.389,248.976 174.366 C 248.590 172.827,249.335 172.485,253.651 172.217 C 256.541 172.038,258.097 171.746,259.227 171.169 C 266.033 167.697,266.363 157.451,259.793 153.589 L 258.008 152.539 240.961 152.426 C 225.886 152.326,223.844 152.384,223.301 152.927 M267.597 153.106 C 265.561 155.142,266.982 159.763,269.644 159.768 C 293.527 159.817,294.782 159.966,297.928 163.111 C 303.360 168.543,302.005 176.208,294.922 180.124 C 293.151 181.103,276.447 181.134,275.473 180.161 C 274.554 179.242,274.175 176.179,274.265 170.404 C 274.344 165.345,274.017 164.844,270.643 164.844 C 266.716 164.844,266.797 164.599,266.797 176.519 C 266.797 185.892,266.852 186.700,267.543 187.554 L 268.289 188.477 279.676 188.591 C 285.939 188.654,292.290 188.536,293.788 188.328 C 311.422 185.885,314.803 161.492,298.573 153.806 L 295.898 152.539 282.147 152.423 C 268.732 152.309,268.377 152.326,267.597 153.106 M317.758 152.759 C 311.809 154.489,309.401 163.181,313.413 168.447 C 316.082 171.952,316.487 172.043,330.273 172.266 C 344.721 172.499,345.703 172.793,345.703 176.885 C 345.703 180.583,344.501 180.859,328.398 180.859 C 314.149 180.859,312.470 181.018,311.711 182.437 C 311.052 183.668,311.257 186.545,312.076 187.554 L 312.823 188.477 328.970 188.477 C 345.076 188.477,345.122 188.474,346.959 187.569 C 355.843 183.194,355.908 170.466,347.070 165.904 L 344.727 164.694 333.014 164.604 L 321.301 164.514 320.449 163.523 C 319.455 162.368,319.614 161.145,320.850 160.437 C 321.454 160.091,325.828 159.931,336.914 159.852 C 354.330 159.727,353.467 159.908,353.812 156.312 C 353.977 154.596,353.876 154.231,352.994 153.349 L 351.989 152.344 335.467 152.379 C 326.380 152.398,318.411 152.570,317.758 152.759 M116.399 160.591 C 125.810 163.411,125.627 177.553,116.143 180.310 C 112.747 181.297,101.972 180.954,99.756 179.788 C 91.797 175.600,91.929 165.394,100.000 160.913 C 102.060 159.769,112.943 159.555,116.399 160.591 M180.768 240.538 C 178.359 241.649,176.449 245.271,151.057 296.875 C 143.858 311.505,143.936 312.116,153.002 312.101 C 158.324 312.092,160.301 311.593,161.829 309.874 C 162.449 309.176,174.652 284.933,181.643 270.508 C 184.442 264.733,185.754 263.064,187.815 262.652 C 190.035 262.208,190.843 263.543,202.734 287.286 C 216.130 314.034,214.421 311.863,222.203 312.027 C 230.968 312.211,231.943 311.106,228.774 304.576 C 213.547 273.192,198.450 243.234,197.215 241.949 C 195.110 239.760,184.437 238.844,180.768 240.538 M237.600 240.246 C 235.052 241.270,235.159 239.701,235.158 275.898 C 235.156 315.320,234.514 312.109,242.402 312.109 C 250.634 312.109,250.000 315.129,250.000 275.948 C 250.000 239.770,250.118 241.287,247.221 240.277 C 245.747 239.764,238.856 239.741,237.600 240.246 " stroke="none" fill="#f9fbfc" fill-rule="evenodd"></path><path id="path1" d="M191.728 12.915 C 114.353 16.922,47.850 66.040,21.841 138.392 C 13.875 160.549,9.214 192.739,11.278 211.328 C 11.505 213.369,11.886 217.061,12.125 219.531 C 17.519 275.320,50.796 328.207,99.609 358.574 C 125.214 374.503,151.674 383.400,183.594 386.815 C 188.314 387.320,211.656 387.453,216.016 387.000 C 241.015 384.401,260.407 379.285,281.033 369.844 C 340.625 342.570,382.613 284.501,389.436 219.922 C 389.674 217.666,390.057 214.150,390.287 212.109 C 390.537 209.888,390.626 204.164,390.508 197.852 C 388.643 97.561,310.940 18.222,209.375 12.906 C 201.101 12.473,200.256 12.474,191.728 12.915 M85.614 152.990 C 86.667 153.944,86.623 157.908,85.547 158.984 C 84.834 159.697,84.243 159.766,78.809 159.768 C 68.456 159.772,69.141 158.707,69.141 174.795 C 69.141 188.366,69.206 188.014,66.589 188.505 C 61.929 189.379,61.947 189.429,61.719 174.522 C 61.473 158.458,62.438 160.035,52.688 159.766 C 45.748 159.574,45.619 159.554,44.846 158.598 C 43.823 157.334,44.005 153.695,45.131 152.871 C 46.334 151.992,84.635 152.104,85.614 152.990 M119.581 153.274 C 134.700 158.611,135.587 180.240,120.960 186.936 C 115.710 189.340,101.498 189.349,96.263 186.952 C 81.871 180.363,82.970 158.578,97.961 153.287 C 101.910 151.893,115.645 151.885,119.581 153.274 M136.982 153.280 C 137.696 153.885,139.948 157.972,143.359 164.854 C 149.933 178.115,150.795 178.828,153.532 173.269 C 155.214 169.852,155.055 168.978,151.454 161.848 C 147.050 153.128,147.090 152.344,151.940 152.344 C 154.911 152.344,155.697 152.851,157.906 156.193 C 159.198 158.147,160.155 158.258,161.396 156.595 C 164.190 152.852,164.946 152.344,167.727 152.344 C 172.650 152.344,172.676 152.670,168.450 161.255 C 164.899 168.468,164.639 169.864,166.198 173.338 C 168.692 178.897,169.708 178.031,176.408 164.630 C 182.502 152.442,182.580 152.344,186.211 152.344 C 191.563 152.344,191.608 152.065,183.650 168.164 C 180.252 175.039,176.784 182.055,175.943 183.756 C 173.897 187.894,173.057 188.477,169.141 188.477 C 165.439 188.477,164.352 187.852,162.891 184.883 C 160.683 180.397,158.846 180.499,156.647 185.230 C 155.171 188.407,149.514 189.844,146.434 187.826 C 145.490 187.208,129.297 155.476,129.297 154.246 C 129.297 152.168,134.847 151.470,136.982 153.280 M202.709 152.838 C 203.687 153.334,204.342 154.575,215.122 176.367 C 221.070 188.391,221.067 189.227,215.076 188.528 C 212.261 188.199,211.914 187.711,205.842 175.552 C 198.346 160.539,199.235 160.542,191.852 175.512 C 185.699 187.989,185.475 188.283,181.960 188.564 C 178.516 188.840,177.324 187.956,178.089 185.694 C 179.452 181.661,193.975 153.322,194.922 152.846 C 196.178 152.215,201.470 152.210,202.709 152.838 M259.793 153.589 C 266.363 157.451,266.033 167.697,259.227 171.169 C 258.097 171.746,256.541 172.038,253.651 172.217 C 249.335 172.485,248.590 172.827,248.976 174.366 C 249.233 175.389,249.750 175.864,257.735 182.422 C 264.593 188.055,264.556 188.527,257.273 188.441 C 252.645 188.386,250.832 187.790,249.023 185.728 C 248.809 185.483,245.469 182.701,241.602 179.545 C 233.982 173.328,232.813 171.911,232.813 168.902 C 232.813 164.656,233.561 164.391,245.182 164.537 C 253.209 164.637,254.242 164.577,255.191 163.956 C 256.477 163.115,256.576 161.745,255.427 160.705 C 254.201 159.595,232.077 159.553,230.971 160.658 C 230.338 161.290,230.255 162.547,230.078 174.219 C 229.851 189.169,230.041 188.477,226.172 188.477 C 222.241 188.477,222.479 189.531,222.344 171.568 C 222.280 163.036,222.331 155.489,222.457 154.798 C 222.933 152.196,222.116 152.301,240.961 152.426 L 258.008 152.539 259.793 153.589 M298.573 153.806 C 314.803 161.492,311.422 185.885,293.788 188.328 C 292.290 188.536,285.939 188.654,279.676 188.591 L 268.289 188.477 267.543 187.554 C 266.852 186.700,266.797 185.892,266.797 176.519 C 266.797 164.599,266.716 164.844,270.643 164.844 C 274.017 164.844,274.344 165.345,274.265 170.404 C 274.175 176.179,274.554 179.242,275.473 180.161 C 276.447 181.134,293.151 181.103,294.922 180.124 C 302.005 176.208,303.360 168.543,297.928 163.111 C 294.782 159.966,293.527 159.817,269.644 159.768 C 267.736 159.764,266.797 158.515,266.797 155.981 C 266.797 152.141,266.165 152.288,282.147 152.423 L 295.898 152.539 298.573 153.806 M352.994 153.349 C 353.876 154.231,353.977 154.596,353.812 156.312 C 353.467 159.908,354.330 159.727,336.914 159.852 C 325.828 159.931,321.454 160.091,320.850 160.437 C 319.614 161.145,319.455 162.368,320.449 163.523 L 321.301 164.514 333.014 164.604 L 344.727 164.694 347.070 165.904 C 355.908 170.466,355.843 183.194,346.959 187.569 C 345.122 188.474,345.076 188.477,328.970 188.477 L 312.823 188.477 312.076 187.554 C 311.257 186.545,311.052 183.668,311.711 182.437 C 312.470 181.018,314.149 180.859,328.398 180.859 C 344.501 180.859,345.703 180.583,345.703 176.885 C 345.703 172.793,344.721 172.499,330.273 172.266 C 318.252 172.072,318.151 172.063,316.424 171.094 C 310.377 167.699,309.570 159.097,314.873 154.558 C 317.358 152.431,317.486 152.417,335.467 152.379 L 351.989 152.344 352.994 153.349 M103.320 160.100 C 92.831 161.310,90.379 174.854,99.756 179.788 C 101.972 180.954,112.747 181.297,116.143 180.310 C 121.519 178.747,124.865 172.520,123.094 167.376 C 120.999 161.290,114.318 158.832,103.320 160.100 M194.560 240.289 C 195.378 240.534,196.572 241.281,197.215 241.949 C 198.450 243.234,213.547 273.192,228.774 304.576 C 231.943 311.106,230.968 312.211,222.203 312.027 C 214.421 311.863,216.130 314.034,202.734 287.286 C 190.843 263.543,190.035 262.208,187.815 262.652 C 185.754 263.064,184.442 264.733,181.643 270.508 C 174.652 284.933,162.449 309.176,161.829 309.874 C 160.301 311.593,158.324 312.092,153.002 312.101 C 143.936 312.116,143.858 311.505,151.057 296.875 C 176.449 245.271,178.359 241.649,180.768 240.538 C 182.518 239.730,192.116 239.557,194.560 240.289 M247.221 240.277 C 250.118 241.287,250.000 239.770,250.000 275.948 C 250.000 315.129,250.634 312.109,242.402 312.109 C 234.514 312.109,235.156 315.320,235.158 275.898 C 235.159 236.383,234.466 239.920,242.227 239.869 C 244.290 239.855,246.537 240.039,247.221 240.277 " stroke="none" fill="#04abfc" fill-rule="evenodd"></path></g></svg>