<svg version="1.1" xmlns="http://www.w3.org/2000/svg" viewBox="0 0 377.7943330754292 482.280399536555" width="755.5886661508584" height="964.56079907311">
  <!-- svg-source:excalidraw -->
  
  <defs>
    <style class="style-fonts">
      @font-face {
        font-family: "Virgil";
        src: url("https://excalidraw.com/Virgil.woff2");
      }
      @font-face {
        font-family: "Cascadia";
        src: url("https://excalidraw.com/Cascadia.woff2");
      }
    </style>
  </defs>
  <rect x="0" y="0" width="377.7943330754292" height="482.280399536555" fill="#ffffff"></rect><g stroke-linecap="round" transform="translate(144.60305763007318 10) rotate(0 111.59563772267802 33.37997510240484)"><path d="M2.6 6.23 C2.6 6.23, 2.6 6.23, 2.6 6.23 M2.6 6.23 C2.6 6.23, 2.6 6.23, 2.6 6.23 M10.74 21.26 C13.48 14.19, 18.56 10.41, 23.86 6.16 M10.74 21.26 C15.22 15.74, 18.62 11.83, 23.86 6.16 M1.82 55.91 C15.31 42.62, 24.55 28.58, 45.12 6.09 M1.82 55.91 C14.26 41.62, 26.18 27.73, 45.12 6.09 M12.58 67.91 C25.86 56.53, 33.92 45.24, 66.38 6.03 M12.58 67.91 C32.1 42.91, 54.62 20.87, 66.38 6.03 M27.28 75.39 C47.94 53.78, 66.83 28.96, 87.64 5.96 M27.28 75.39 C49.55 47.75, 73.54 22.41, 87.64 5.96 M47.88 76.08 C67.11 54.54, 83.08 34.71, 108.9 5.89 M47.88 76.08 C72.37 49.05, 95.32 21.51, 108.9 5.89 M69.14 76.01 C89.52 51.52, 112.29 29.91, 129.5 6.57 M69.14 76.01 C88.16 56.48, 105.37 36.61, 129.5 6.57 M90.4 75.94 C106.82 54.1, 126.14 37.3, 150.76 6.5 M90.4 75.94 C110.73 52.83, 131.69 28.37, 150.76 6.5 M111.66 75.87 C129 55.32, 144.6 37.41, 172.02 6.44 M111.66 75.87 C135.46 49.28, 156.13 23.83, 172.02 6.44 M132.92 75.8 C149.37 55.97, 165.54 40.4, 193.28 6.37 M132.92 75.8 C157.59 49.01, 180.29 21.17, 193.28 6.37 M154.19 75.73 C172.46 54.7, 186.84 36.12, 216.51 4.03 M154.19 75.73 C166.06 60.35, 179.66 45.73, 216.51 4.03 M175.45 75.66 C188.55 61.48, 199.99 46.25, 227.27 16.04 M175.45 75.66 C195.66 51.4, 216.8 27.73, 227.27 16.04 M196.71 75.59 C204.43 67.97, 211.66 60.58, 226.88 40.88 M196.71 75.59 C206.12 63.36, 218.44 51.68, 226.88 40.88" stroke="#4c6ef5" stroke-width="2" fill="none"></path><path d="M16.69 0 M16.69 0 C72.64 0.58, 130.71 2.94, 206.5 0 M16.69 0 C56.62 -2.16, 97.2 -0.87, 206.5 0 M206.5 0 C218.72 -1.83, 224.16 6.57, 223.19 16.69 M206.5 0 C217.18 -1.75, 222.48 7.2, 223.19 16.69 M223.19 16.69 C223.22 28.26, 222.99 35.47, 223.19 50.07 M223.19 16.69 C224.22 26.86, 223.07 37.62, 223.19 50.07 M223.19 50.07 C223.21 62.06, 217.23 66.12, 206.5 66.76 M223.19 50.07 C222.57 59.66, 219.79 68.88, 206.5 66.76 M206.5 66.76 C140.54 66.05, 78.11 64.47, 16.69 66.76 M206.5 66.76 C145.32 67.22, 85.11 67.66, 16.69 66.76 M16.69 66.76 C6.75 67.44, -1.78 62.39, 0 50.07 M16.69 66.76 C3.96 68.89, -1.6 62.2, 0 50.07 M0 50.07 C-1.76 41.83, 1.35 36.41, 0 16.69 M0 50.07 C-0.94 41.68, -0.51 32.13, 0 16.69 M0 16.69 C1.92 5.51, 4.33 1.14, 16.69 0 M0 16.69 C0.31 7.03, 6.43 -1.51, 16.69 0" stroke="#343a40" stroke-width="4" fill="none"></path></g><g transform="translate(216.9947158605637 20.879975102404842) rotate(0 39.2039794921875 22.5)"><text x="39.2039794921875" y="0" font-family="Virgil, Segoe UI Emoji" font-size="36px" fill="#343a40" text-anchor="middle" style="white-space: pre;" direction="ltr" dominant-baseline="text-before-edge">Hello</text></g><g stroke-linecap="round" transform="translate(10 116.36147907449549) rotate(0 111.59563772267802 50)"><path d="M6 6.54 C6 6.54, 6 6.54, 6 6.54 M6 6.54 C6 6.54, 6 6.54, 6 6.54 M9.55 26.85 C17.05 19.43, 25.06 9.88, 29.23 4.21 M9.55 26.85 C13.97 21.84, 18.79 16.18, 29.23 4.21 M9.16 51.68 C22.68 35.72, 33.67 25.34, 50.49 4.14 M9.16 51.68 C19.86 41.38, 27.82 30.19, 50.49 4.14 M2.86 83.31 C26.53 57.49, 51.44 27.89, 71.75 4.07 M2.86 83.31 C29.98 50.68, 57.29 20.46, 71.75 4.07 M11 98.34 C28.15 78.5, 46.97 56.75, 93.01 4 M11 98.34 C33.59 73.1, 58.12 46.18, 93.01 4 M28.32 102.8 C53.91 76.92, 76.73 47.38, 114.27 3.93 M28.32 102.8 C55.59 70.58, 84.05 39.64, 114.27 3.93 M49.58 102.73 C77.78 71.04, 106.5 37.03, 135.53 3.86 M49.58 102.73 C68.05 80.2, 88.56 59.37, 135.53 3.86 M70.84 102.66 C92.27 77.13, 116.43 49.32, 156.79 3.79 M70.84 102.66 C105.48 64.16, 139.6 25.24, 156.79 3.79 M92.1 102.59 C110.98 79.69, 132.37 57.48, 178.05 3.72 M92.1 102.59 C112.52 80.27, 130.48 56.81, 178.05 3.72 M113.36 102.52 C136.08 77.7, 158.71 49.56, 200.62 2.14 M113.36 102.52 C142.03 68.66, 171.97 36.13, 200.62 2.14 M133.97 103.21 C154.28 80.52, 170.01 57.56, 217.29 7.36 M133.97 103.21 C164.92 68.2, 194.61 34.68, 217.29 7.36 M155.23 103.14 C179.75 77.55, 200.33 46.72, 226.08 21.63 M155.23 103.14 C175.86 77.22, 197.41 53.5, 226.08 21.63 M176.49 103.07 C187.96 89.67, 198.23 79.41, 226.35 45.71 M176.49 103.07 C190 88.21, 203.46 71.93, 226.35 45.71 M199.72 100.74 C204.61 93.22, 212.18 89.12, 225.96 70.55 M199.72 100.74 C205.35 95.74, 209.48 87.78, 225.96 70.55" stroke="#40c057" stroke-width="2" fill="none"></path><path d="M25 0 M25 0 C85.72 -2.62, 149.14 -1.47, 198.19 0 M25 0 C71.4 -1.41, 119.65 -0.56, 198.19 0 M198.19 0 C216.31 -0.56, 224.03 6.55, 223.19 25 M198.19 0 C214.55 -0.21, 222.45 9.93, 223.19 25 M223.19 25 C222.31 36.94, 224.61 49.3, 223.19 75 M223.19 25 C222.6 36.96, 222.51 50.31, 223.19 75 M223.19 75 C225.01 90.39, 215.21 99.63, 198.19 100 M223.19 75 C223.52 89.71, 215.01 102.22, 198.19 100 M198.19 100 C151.91 99.47, 105.24 99.23, 25 100 M198.19 100 C132.16 100.75, 68.35 100.62, 25 100 M25 100 C9.76 100.3, -1.21 93.39, 0 75 M25 100 C6.37 100.9, 0.76 92.58, 0 75 M0 75 C-0.86 58.19, -0.34 44.84, 0 25 M0 75 C-0.44 57.24, -0.24 41.77, 0 25 M0 25 C-0.04 6.55, 9.03 0.28, 25 0 M0 25 C-0.61 10.02, 6.23 1.48, 25 0" stroke="#343a40" stroke-width="4" fill="none"></path></g><g transform="translate(15.665660305685833 121.36147907449549) rotate(0 105.92997741699219 45)"><text x="105.92997741699219" y="0" font-family="Virgil, Segoe UI Emoji" font-size="36px" fill="#343a40" text-anchor="middle" style="white-space: pre;" direction="ltr" dominant-baseline="text-before-edge">Hi, How are </text><text x="105.92997741699219" y="45" font-family="Virgil, Segoe UI Emoji" font-size="36px" fill="#343a40" text-anchor="middle" style="white-space: pre;" direction="ltr" dominant-baseline="text-before-edge">you?</text></g><g stroke-linecap="round" transform="translate(140.3227363545002 242.97963158023845) rotate(0 111.59563772267802 50)"><path d="M6 6.54 C6 6.54, 6 6.54, 6 6.54 M6 6.54 C6 6.54, 6 6.54, 6 6.54 M9.55 26.85 C16.05 19.74, 23.54 10.43, 29.23 4.21 M9.55 26.85 C16.08 18.79, 21.38 12.08, 29.23 4.21 M9.16 51.68 C18.88 41.55, 24.98 33.43, 50.49 4.14 M9.16 51.68 C21.8 37.41, 35.74 21.2, 50.49 4.14 M2.86 83.31 C25.74 53.9, 48.34 29.57, 71.75 4.07 M2.86 83.31 C20.1 62.73, 38.85 43.17, 71.75 4.07 M11 98.34 C41.03 63.2, 65.98 31.63, 93.01 4 M11 98.34 C32.04 72.36, 55.51 46.35, 93.01 4 M28.32 102.8 C49.43 77.46, 73.44 50.66, 114.27 3.93 M28.32 102.8 C50.97 76.88, 72.67 49.9, 114.27 3.93 M49.58 102.73 C77.87 70.06, 110.03 32.52, 135.53 3.86 M49.58 102.73 C76.96 71.83, 100.99 43.49, 135.53 3.86 M70.84 102.66 C88.64 79.9, 109.77 56.85, 156.79 3.79 M70.84 102.66 C88.93 81.72, 108.67 60.72, 156.79 3.79 M92.1 102.59 C114.79 76.3, 137.78 50.99, 178.05 3.72 M92.1 102.59 C113.44 76.88, 136.35 51.69, 178.05 3.72 M113.36 102.52 C134.3 76.35, 156.23 52.26, 200.62 2.14 M113.36 102.52 C147.92 63.28, 181.36 23.97, 200.62 2.14 M133.97 103.21 C168.02 65.24, 199.18 26.82, 217.29 7.36 M133.97 103.21 C153.14 80.37, 171.31 59.53, 217.29 7.36 M155.23 103.14 C170.92 84.64, 187.91 63.59, 226.08 21.63 M155.23 103.14 C178.2 74.92, 201.61 48.28, 226.08 21.63 M176.49 103.07 C189.57 86.41, 202.47 69.86, 226.35 45.71 M176.49 103.07 C188.7 87.78, 203.33 71.52, 226.35 45.71 M199.72 100.74 C209.06 89.02, 219.79 79.83, 225.96 70.55 M199.72 100.74 C209.77 89.26, 220.08 77.29, 225.96 70.55" stroke="#4c6ef5" stroke-width="2" fill="none"></path><path d="M25 0 M25 0 C70.15 2.59, 112.44 0.69, 198.19 0 M25 0 C69.57 -1.06, 113.45 0.18, 198.19 0 M198.19 0 C215.46 -0.27, 221.53 9.32, 223.19 25 M198.19 0 C214.92 0.98, 223.72 6.12, 223.19 25 M223.19 25 C225.44 39.94, 223.21 54.71, 223.19 75 M223.19 25 C224 40.3, 223.33 55.96, 223.19 75 M223.19 75 C222.6 90.55, 215.28 99.65, 198.19 100 M223.19 75 C225.07 90.06, 213.69 98.14, 198.19 100 M198.19 100 C163.97 102.74, 128.62 100.12, 25 100 M198.19 100 C147.27 98.4, 95.92 99.41, 25 100 M25 100 C9.59 98.28, -0.72 92.65, 0 75 M25 100 C8 101.31, -0.22 89.67, 0 75 M0 75 C1.52 56.26, -1.18 40.52, 0 25 M0 75 C0.33 54.81, 0.39 35.13, 0 25 M0 25 C1.39 8.03, 9.91 1.22, 25 0 M0 25 C-1.08 7.78, 6.59 2.16, 25 0" stroke="#343a40" stroke-width="4" fill="none"></path></g><g transform="translate(154.52040959963915 247.97963158023845) rotate(0 97.39796447753906 45)"><text x="97.39796447753906" y="0" font-family="Virgil, Segoe UI Emoji" font-size="36px" fill="#343a40" text-anchor="middle" style="white-space: pre;" direction="ltr" dominant-baseline="text-before-edge">Well, what </text><text x="97.39796447753906" y="45" font-family="Virgil, Segoe UI Emoji" font-size="36px" fill="#343a40" text-anchor="middle" style="white-space: pre;" direction="ltr" dominant-baseline="text-before-edge">is 5*5?</text></g><g stroke-linecap="round" transform="translate(10.550016974466871 372.280399536555) rotate(0 111.59563772267802 50)"><path d="M6 6.54 C6 6.54, 6 6.54, 6 6.54 M6 6.54 C6 6.54, 6 6.54, 6 6.54 M9.55 26.85 C13.75 24.01, 18.16 17.16, 29.23 4.21 M9.55 26.85 C16.35 19.39, 23.57 10.83, 29.23 4.21 M9.16 51.68 C26.24 32.57, 43.96 12.53, 50.49 4.14 M9.16 51.68 C19.07 40.66, 30.89 29.34, 50.49 4.14 M2.86 83.31 C29 51.28, 58.19 20.1, 71.75 4.07 M2.86 83.31 C28.09 52.18, 55.82 22.06, 71.75 4.07 M11 98.34 C41.08 66.81, 69.59 33.54, 93.01 4 M11 98.34 C28.79 80.4, 43.3 61.53, 93.01 4 M28.32 102.8 C51.92 76.34, 74.97 51.55, 114.27 3.93 M28.32 102.8 C51.25 78.68, 72.07 53.63, 114.27 3.93 M49.58 102.73 C78.7 71.85, 106.47 37.9, 135.53 3.86 M49.58 102.73 C73.11 73.01, 97.81 45.79, 135.53 3.86 M70.84 102.66 C97.55 68.01, 127.7 36.91, 156.79 3.79 M70.84 102.66 C90.84 77.58, 113.45 54.79, 156.79 3.79 M92.1 102.59 C121.84 68.81, 149.88 33.95, 178.05 3.72 M92.1 102.59 C122.22 67.21, 153.55 33.54, 178.05 3.72 M113.36 102.52 C148.05 65.62, 180.28 25.67, 200.62 2.14 M113.36 102.52 C141.54 70.12, 170.72 36.9, 200.62 2.14 M133.97 103.21 C164.87 69.71, 193.35 33.07, 217.29 7.36 M133.97 103.21 C156.15 78.29, 179.38 51.65, 217.29 7.36 M155.23 103.14 C181.13 72.83, 210.83 40.66, 226.08 21.63 M155.23 103.14 C173.42 83.2, 193.01 60.6, 226.08 21.63 M176.49 103.07 C187.63 89.69, 197.5 79.06, 226.35 45.71 M176.49 103.07 C188.21 88.42, 200.74 73.4, 226.35 45.71 M199.72 100.74 C204.13 95.36, 211.38 86.03, 225.96 70.55 M199.72 100.74 C206.06 92.31, 213.5 84.09, 225.96 70.55" stroke="#40c057" stroke-width="2" fill="none"></path><path d="M25 0 M25 0 C71.33 -1.19, 112.09 -0.23, 198.19 0 M25 0 C85.07 0.56, 146.66 -0.97, 198.19 0 M198.19 0 C216.03 -0.63, 223.58 7.49, 223.19 25 M198.19 0 C216.18 -1.04, 223.43 6.65, 223.19 25 M223.19 25 C221.86 40.85, 225.38 56.6, 223.19 75 M223.19 25 C223.6 36.04, 222.27 47.59, 223.19 75 M223.19 75 C221.75 90.09, 213.12 99.74, 198.19 100 M223.19 75 C224.73 89.52, 215.42 99.24, 198.19 100 M198.19 100 C152.26 99.92, 102.73 100.73, 25 100 M198.19 100 C153.18 100.99, 108.92 100.95, 25 100 M25 100 C9.19 98.23, 1.63 92.21, 0 75 M25 100 C10.62 99.12, 1.78 89.92, 0 75 M0 75 C-0.46 54.93, -1.5 36.71, 0 25 M0 75 C-0.79 62.68, -0.01 49.1, 0 25 M0 25 C-0.53 10.1, 8.26 0.09, 25 0 M0 25 C1.05 7.37, 10.5 -0.43, 25 0" stroke="#343a40" stroke-width="4" fill="none"></path></g><g transform="translate(17.33168985339489 377.280399536555) rotate(0 104.81396484375 45)"><text x="104.81396484375" y="0" font-family="Virgil, Segoe UI Emoji" font-size="36px" fill="#343a40" text-anchor="middle" style="white-space: pre;" direction="ltr" dominant-baseline="text-before-edge">I think it is</text><text x="104.81396484375" y="45" font-family="Virgil, Segoe UI Emoji" font-size="36px" fill="#343a40" text-anchor="middle" style="white-space: pre;" direction="ltr" dominant-baseline="text-before-edge">25</text></g></svg>