<svg version="1.1" xmlns="http://www.w3.org/2000/svg" viewBox="0 0 918.1266979826055 313.2274819888597" width="1836.253395965211" height="626.4549639777194">
  <!-- svg-source:excalidraw -->
  
  <defs>
    <style class="style-fonts">
      @font-face {
        font-family: "Virgil";
        src: url("https://excalidraw.com/Virgil.woff2");
      }
      @font-face {
        font-family: "Cascadia";
        src: url("https://excalidraw.com/Cascadia.woff2");
      }
    </style>
  </defs>
  <rect x="0" y="0" width="918.1266979826055" height="313.2274819888597" fill="#ffffff"></rect><g stroke-linecap="round" transform="translate(10 50.986988024803054) rotate(0 98.8786401922078 124.43954917024348)"><path d="M7.86 8.16 C7.86 8.16, 7.86 8.16, 7.86 8.16 M7.86 8.16 C7.86 8.16, 7.86 8.16, 7.86 8.16 M3.66 19.09 C6.37 13.2, 10.96 9.96, 18.1 2.48 M3.66 19.09 C8.16 12.99, 13.76 8.33, 18.1 2.48 M2.75 26.24 C7.76 19.24, 15 11.22, 24.4 1.33 M2.75 26.24 C7.55 20.71, 14.11 13.17, 24.4 1.33 M2.48 32.64 C6.2 25.11, 12.54 20.05, 30.7 0.18 M2.48 32.64 C13.45 20.79, 22.52 10.61, 30.7 0.18 M2.88 38.28 C13.84 29.27, 19.07 17.33, 34.37 2.05 M2.88 38.28 C13.56 26.51, 24.82 13.68, 34.37 2.05 M2.62 44.68 C12.62 34.13, 22.85 22.47, 39.36 2.41 M2.62 44.68 C11.03 36.62, 19.27 26.77, 39.36 2.41 M2.36 51.07 C20.82 32.04, 37.56 13.79, 45 2.02 M2.36 51.07 C11.04 40.52, 21.27 28.65, 45 2.02 M2.75 56.72 C18.12 39.71, 30.56 24.93, 49.99 2.38 M2.75 56.72 C20.73 34.8, 38.95 15.24, 49.99 2.38 M2.49 63.11 C14.08 48.02, 27.14 32.14, 55.63 1.98 M2.49 63.11 C16.11 46.19, 32.45 28.8, 55.63 1.98 M2.23 69.51 C15.9 57.35, 25.73 43.1, 60.62 2.34 M2.23 69.51 C24.2 45.34, 43.84 20.37, 60.62 2.34 M2.62 75.16 C18.43 60.42, 32.35 41.42, 66.26 1.95 M2.62 75.16 C23.41 50.4, 44.6 26.09, 66.26 1.95 M2.36 81.55 C16.12 61.17, 34.05 45.68, 71.25 2.31 M2.36 81.55 C23.88 57.38, 44.05 32.8, 71.25 2.31 M2.76 87.2 C22.4 66.07, 37.98 42.62, 76.89 1.91 M2.76 87.2 C27.04 59.24, 52.03 33.35, 76.89 1.91 M2.49 93.59 C27.92 64.53, 57.19 33.31, 81.88 2.27 M2.49 93.59 C25.88 66.67, 49.74 39.72, 81.88 2.27 M2.23 99.99 C32.03 65.5, 61.17 32.6, 87.52 1.88 M2.23 99.99 C20.16 80.87, 38.92 58.24, 87.52 1.88 M2.63 105.64 C22.54 82.69, 40.63 62.79, 92.51 2.24 M2.63 105.64 C23.7 80.72, 45.07 56.81, 92.51 2.24 M2.37 112.03 C24.48 87.42, 48.37 58.08, 97.49 2.6 M2.37 112.03 C27.6 82.65, 54.28 52.63, 97.49 2.6 M2.1 118.43 C30.33 85.29, 61.02 52.16, 103.14 2.21 M2.1 118.43 C35.77 79.81, 69.9 42.06, 103.14 2.21 M2.5 124.07 C28.98 92.43, 52.63 64.15, 108.12 2.57 M2.5 124.07 C29.79 93.63, 57.14 64.24, 108.12 2.57 M2.24 130.47 C37.13 91.59, 68.64 55.69, 113.77 2.17 M2.24 130.47 C32.27 98.47, 61.36 63.79, 113.77 2.17 M2.63 136.11 C46.22 89.6, 85.38 40.61, 118.76 2.53 M2.63 136.11 C42.05 90.42, 83.1 42.13, 118.76 2.53 M2.37 142.51 C40.52 101.01, 78.68 58.21, 124.4 2.14 M2.37 142.51 C46.45 89.16, 92.84 34.64, 124.4 2.14 M2.11 148.91 C39.06 105.44, 78.02 62.05, 129.39 2.5 M2.11 148.91 C36.13 109.75, 68.96 71.29, 129.39 2.5 M2.5 154.55 C43.61 107.45, 84.76 59.35, 135.03 2.1 M2.5 154.55 C42.19 108.52, 82.84 61.23, 135.03 2.1 M2.24 160.95 C47.32 109.86, 91.12 57.47, 140.02 2.46 M2.24 160.95 C50.03 106.04, 98.78 49.56, 140.02 2.46 M1.98 167.35 C38.57 127.46, 70.43 89.91, 145 2.82 M1.98 167.35 C51.05 111.81, 100.46 53.75, 145 2.82 M2.38 172.99 C34.03 133.38, 68.83 95.6, 150.65 2.43 M2.38 172.99 C40.67 130.39, 78.28 86.35, 150.65 2.43 M2.11 179.39 C51.72 125.52, 99.3 68.3, 155.63 2.79 M2.11 179.39 C43.87 132.89, 84.33 84.75, 155.63 2.79 M2.51 185.03 C48.64 129.2, 97.09 75.83, 161.28 2.39 M2.51 185.03 C48.7 131.58, 95.95 77.76, 161.28 2.39 M2.25 191.43 C54.47 129.29, 108.69 67.94, 166.26 2.75 M2.25 191.43 C56.78 127.83, 111.97 63.23, 166.26 2.75 M1.99 197.83 C67.66 122.19, 132.77 49.57, 173.22 0.85 M1.99 197.83 C43.04 149.38, 86.37 99.21, 173.22 0.85 M2.38 203.47 C63.86 135, 122.57 66.13, 177.55 1.96 M2.38 203.47 C48.27 149.13, 95.56 94.45, 177.55 1.96 M2.12 209.87 C39.38 163.79, 80.58 118.81, 181.88 3.08 M2.12 209.87 C70.77 131.39, 140.39 51.34, 181.88 3.08 M0.55 217.78 C73.78 133.07, 147.03 50.23, 185.55 4.95 M0.55 217.78 C51.02 159.05, 100.6 101.37, 185.55 4.95 M1.6 222.66 C56.34 158.51, 111.3 94.03, 188.57 7.57 M1.6 222.66 C46.15 169.16, 91.21 117.37, 188.57 7.57 M1.99 228.31 C45.58 178.54, 89.68 130.25, 191.59 10.2 M1.99 228.31 C40.54 181.65, 80.08 135.58, 191.59 10.2 M3.7 232.44 C46.33 185.62, 89.49 137.65, 193.95 13.58 M3.7 232.44 C46.79 182.68, 90.43 132.22, 193.95 13.58 M5.4 236.58 C62.37 168.64, 118.63 105.19, 196.32 16.95 M5.4 236.58 C51.27 183.8, 97.91 128.6, 196.32 16.95 M7.77 239.95 C70.29 171.85, 128.81 99.18, 198.68 20.33 M7.77 239.95 C54.03 185.64, 101.8 131.59, 198.68 20.33 M10.79 242.58 C50.02 195.27, 91.31 149.99, 199.08 25.98 M10.79 242.58 C49.56 197.34, 87.75 154.42, 199.08 25.98 M13.8 245.2 C61.26 191.43, 107.14 139.03, 198.81 32.37 M13.8 245.2 C58.44 191.67, 103.79 140.94, 198.81 32.37 M17.48 247.07 C67.17 187.83, 116.59 131.79, 198.55 38.77 M17.48 247.07 C86.75 168.57, 156.87 89.05, 198.55 38.77 M20.5 249.7 C89.21 169.21, 156.87 90.79, 198.29 45.17 M20.5 249.7 C69.68 193.91, 117.67 138.97, 198.29 45.17 M25.49 250.06 C86.77 184.05, 146.46 113.6, 198.69 50.81 M25.49 250.06 C87.25 179.37, 147.71 109.44, 198.69 50.81 M30.47 250.42 C73.38 202.78, 113.62 155.04, 198.42 57.21 M30.47 250.42 C71.39 206.51, 110.24 160.45, 198.42 57.21 M34.8 251.53 C96.27 182.04, 155.87 109.94, 198.82 62.85 M34.8 251.53 C97.98 178.48, 161.28 106.48, 198.82 62.85 M40.45 251.14 C77.41 207.74, 117.64 162.5, 198.56 69.25 M40.45 251.14 C91.47 191.84, 143.63 131.96, 198.56 69.25 M45.43 251.5 C85.5 206.28, 124.68 161.11, 198.3 75.65 M45.43 251.5 C104.23 184.04, 162.16 116.14, 198.3 75.65 M51.08 251.1 C102.95 193.44, 152.04 136.17, 198.69 81.29 M51.08 251.1 C81.13 217.46, 112.33 181.01, 198.69 81.29 M56.06 251.46 C86.1 217.17, 117.14 179.51, 198.43 87.69 M56.06 251.46 C107.29 190.83, 158.82 132.41, 198.43 87.69 M61.71 251.07 C92.18 215.64, 121.54 179.51, 198.82 93.33 M61.71 251.07 C92.45 215.39, 123.53 179.84, 198.82 93.33 M66.69 251.43 C116.68 190.76, 170.84 130.01, 198.56 99.73 M66.69 251.43 C118.63 192.14, 170.21 134.49, 198.56 99.73 M72.34 251.03 C112.16 207.32, 147.09 166.52, 198.3 106.13 M72.34 251.03 C121.28 197.64, 169.07 143.25, 198.3 106.13 M77.32 251.39 C107.85 215.32, 140.82 180.49, 198.69 111.77 M77.32 251.39 C103.92 220.27, 130.41 191.05, 198.69 111.77 M82.31 251.75 C115.17 215.73, 147.86 179.77, 198.43 118.17 M82.31 251.75 C124.23 202.95, 167.8 153.55, 198.43 118.17 M87.95 251.36 C132.89 198.65, 174.55 148.47, 198.83 123.81 M87.95 251.36 C119.94 217.28, 149.89 179.99, 198.83 123.81 M92.94 251.72 C117.39 225.48, 139.02 195.44, 198.57 130.21 M92.94 251.72 C129.41 209.5, 168.13 165.39, 198.57 130.21 M98.58 251.32 C132.44 213.24, 162.77 177.11, 198.31 136.61 M98.58 251.32 C127.23 219.75, 154.22 186.68, 198.31 136.61 M103.57 251.68 C133.72 217.7, 164.96 178.41, 198.7 142.25 M103.57 251.68 C139.95 210.59, 175.61 169.04, 198.7 142.25 M109.21 251.29 C137.28 221.39, 164.21 188.43, 198.44 148.65 M109.21 251.29 C142.25 212.56, 176.53 174.55, 198.44 148.65 M114.2 251.65 C139.42 222.66, 162.46 193.9, 198.83 154.29 M114.2 251.65 C143.79 219.43, 172.14 184.99, 198.83 154.29 M119.84 251.26 C142.13 224.9, 164.85 197.6, 198.57 160.69 M119.84 251.26 C138.62 228.82, 157.8 208.02, 198.57 160.69 M124.83 251.62 C150.2 224.84, 171.89 194.52, 198.31 167.09 M124.83 251.62 C144.03 231.05, 161.86 211.17, 198.31 167.09 M130.47 251.22 C156.84 222.27, 179.94 192.78, 198.7 172.73 M130.47 251.22 C156.25 221.75, 181.84 191.91, 198.7 172.73 M135.46 251.58 C151.08 234.23, 163.72 219.5, 198.44 179.13 M135.46 251.58 C156.45 225.52, 179.9 201.4, 198.44 179.13 M141.1 251.19 C160.07 226.23, 181.76 203.11, 198.84 184.77 M141.1 251.19 C152.27 236.27, 164.61 222.8, 198.84 184.77 M146.09 251.55 C156.13 237.66, 170.78 221.94, 198.58 191.17 M146.09 251.55 C168.13 228.63, 187.49 204.4, 198.58 191.17 M151.73 251.15 C162.64 240.2, 172.22 228.99, 198.31 197.57 M151.73 251.15 C169.5 230.02, 188.89 210.14, 198.31 197.57 M156.72 251.51 C170.47 233.32, 185.86 216.94, 198.71 203.21 M156.72 251.51 C171.93 232.68, 190.32 213.23, 198.71 203.21 M162.36 251.12 C177.68 234.59, 189.48 220.49, 198.45 209.61 M162.36 251.12 C173.23 238.78, 183.71 227.2, 198.45 209.61 M168.01 250.72 C178.15 236.68, 191.52 227.32, 198.84 215.25 M168.01 250.72 C174.49 242.57, 183.26 234.93, 198.84 215.25 M174.31 249.57 C180.86 242.89, 190.62 233.57, 200.55 219.39 M174.31 249.57 C184.04 238.72, 192.04 228.72, 200.55 219.39 M181.26 247.67 C184.33 241.6, 188.92 238.3, 195.7 231.07 M181.26 247.67 C185.56 242.97, 189.66 238.85, 195.7 231.07" stroke="#4c6ef5" stroke-width="0.5" fill="none"></path><path d="M32 0 M32 0 C59.98 -2.25, 87.87 -1.93, 165.76 0 M32 0 C61.69 1.38, 90.61 0.69, 165.76 0 M165.76 0 C186.06 1.72, 195.79 10.83, 197.76 32 M165.76 0 C185.61 -1.35, 199.92 12.23, 197.76 32 M197.76 32 C199.94 67.86, 197.51 105.79, 197.76 216.88 M197.76 32 C196.83 68.88, 196.12 106.62, 197.76 216.88 M197.76 216.88 C197.73 239.2, 187.85 249.26, 165.76 248.88 M197.76 216.88 C196.59 237.84, 185.67 247.5, 165.76 248.88 M165.76 248.88 C133.82 246.98, 99.06 248.14, 32 248.88 M165.76 248.88 C125.49 248.86, 84.28 247.48, 32 248.88 M32 248.88 C10.67 250.36, -1.27 238.98, 0 216.88 M32 248.88 C12 248.55, 1.84 237.71, 0 216.88 M0 216.88 C-2.3 178.64, 0.99 143.18, 0 32 M0 216.88 C0.34 152.75, 0.7 90.14, 0 32 M0 32 C1 12.3, 12.06 -0.23, 32 0 M0 32 C-1 11.17, 12.68 -0.98, 32 0" stroke="#000000" stroke-width="1" fill="none"></path></g><g stroke-linecap="round" transform="translate(15.496706484567085 56.9784815498989) rotate(0 92.97254328005789 116.9497033388617)"><path d="M32.21 0.46 L163.44 -1.36 L173.81 6.42 L182.23 13.56 L184.48 16.48 L187.68 33.74 L186.31 199.99 L183.19 217.3 L182.47 220.62 L174.67 229.14 L169.13 230.73 L155.04 232.89 L33 234.28 L19.78 231.74 L10.64 231.23 L4.17 222.9 L1.77 215.54 L0.7 203.6 L-0.95 25.28 L2.28 18.64 L8.65 6.7 L17.31 3.03 L33.73 1.37" stroke="none" stroke-width="0" fill="#ffffff"></path><path d="M32 0 M32 0 C69.16 -0.44, 109.36 -0.38, 153.95 0 M32 0 C77.34 -0.24, 121.12 -0.29, 153.95 0 M153.95 0 C176.89 -1.81, 185.33 9.31, 185.95 32 M153.95 0 C176.49 -0.58, 184.07 11.45, 185.95 32 M185.95 32 C188.62 90.52, 186.07 150.93, 185.95 201.9 M185.95 32 C186.03 71.59, 186.49 113.45, 185.95 201.9 M185.95 201.9 C187.51 223.93, 174.26 233.78, 153.95 233.9 M185.95 201.9 C185.94 222.06, 174.89 232.93, 153.95 233.9 M153.95 233.9 C107.79 233.63, 59.91 234.11, 32 233.9 M153.95 233.9 C117.1 233.83, 80.51 232.61, 32 233.9 M32 233.9 C11.69 232.04, -1.66 222.09, 0 201.9 M32 233.9 C10.76 233.22, 1.79 224.61, 0 201.9 M0 201.9 C1.92 135.8, -0.72 65.96, 0 32 M0 201.9 C2.07 138.52, 0.74 77.27, 0 32 M0 32 C0.18 9.34, 11.4 1.18, 32 0 M0 32 C-1.61 11.67, 8.8 -1.9, 32 0" stroke="#000000" stroke-width="1" fill="none"></path></g><g stroke-linecap="round"><g transform="translate(591.77814267295 193.87651066629303) rotate(0 56.5137081520939 0.07041032379447643)"><path d="M0.22 1.15 C19.05 1.45, 95.19 1.02, 114.15 0.68 M-1.12 0.71 C17.48 0.76, 94.36 -0.99, 113.45 -1.11" stroke="#000000" stroke-width="1" fill="none"></path></g><g transform="translate(591.77814267295 193.87651066629303) rotate(0 56.5137081520939 0.07041032379447643)"><path d="M87.34 10.37 C97.78 5.79, 106.39 2.72, 115.19 -0.75 M85.93 9.19 C91.8 7.07, 97.51 4.43, 114 -1.62" stroke="#000000" stroke-width="1" fill="none"></path></g><g transform="translate(591.77814267295 193.87651066629303) rotate(0 56.5137081520939 0.07041032379447643)"><path d="M87.02 -10.15 C97.4 -6.53, 106.14 -1.4, 115.19 -0.75 M85.62 -11.33 C91.47 -9.25, 97.25 -7.7, 114 -1.62" stroke="#000000" stroke-width="1" fill="none"></path></g></g><mask></mask><g stroke-linecap="round" transform="translate(714.1266979826055 122.11529143361827) rotate(0 97 74.00000000000006)"><path d="M7.86 8.16 C7.86 8.16, 7.86 8.16, 7.86 8.16 M7.86 8.16 C7.86 8.16, 7.86 8.16, 7.86 8.16 M3.66 19.09 C8.51 13.6, 12.2 9.42, 18.1 2.48 M3.66 19.09 C8.6 12.22, 14.66 7.17, 18.1 2.48 M2.75 26.24 C11.6 18.63, 17.58 8.37, 24.4 1.33 M2.75 26.24 C8.81 18.01, 16.77 11.4, 24.4 1.33 M2.48 32.64 C11.79 19.91, 22.15 10.23, 30.7 0.18 M2.48 32.64 C9.06 25.43, 15.78 16.79, 30.7 0.18 M2.88 38.28 C9.58 28.46, 18.86 20.55, 34.37 2.05 M2.88 38.28 C10.55 30.82, 17.1 22.03, 34.37 2.05 M2.62 44.68 C11.17 37.01, 18.96 24.19, 39.36 2.41 M2.62 44.68 C14.65 29.97, 26.32 16.58, 39.36 2.41 M2.36 51.07 C14.91 37.28, 23.97 28.54, 45 2.02 M2.36 51.07 C13.77 36.96, 25.14 23.62, 45 2.02 M2.75 56.72 C20.39 36.2, 34.24 17.9, 49.99 2.38 M2.75 56.72 C17.88 40.78, 31.29 23.87, 49.99 2.38 M2.49 63.11 C20.14 42.52, 38.94 19.93, 55.63 1.98 M2.49 63.11 C21.43 42.81, 38.71 22.22, 55.63 1.98 M2.23 69.51 C22.04 43.48, 44.14 21.88, 60.62 2.34 M2.23 69.51 C23.69 45.7, 43.3 21.7, 60.62 2.34 M2.62 75.16 C22.67 54.09, 40.43 35.77, 66.26 1.95 M2.62 75.16 C24.85 51.02, 45.14 25.12, 66.26 1.95 M2.36 81.55 C15.65 63.19, 32.31 45.4, 71.25 2.31 M2.36 81.55 C27.18 52.05, 52.74 23.21, 71.25 2.31 M2.1 87.95 C19.36 71.98, 34.57 53.3, 76.89 1.91 M2.1 87.95 C22.78 64.25, 41.63 42.82, 76.89 1.91 M2.49 93.59 C32.78 57.62, 63 21.05, 81.88 2.27 M2.49 93.59 C22.04 70.42, 43.34 45.89, 81.88 2.27 M2.23 99.99 C26.62 71.47, 53.44 38.25, 87.52 1.88 M2.23 99.99 C18.91 81.07, 36.19 61, 87.52 1.88 M1.97 106.39 C30.77 75.21, 57.74 43.57, 92.51 2.24 M1.97 106.39 C25.96 79.91, 48.94 52.29, 92.51 2.24 M2.37 112.03 C25.04 87.38, 46.29 60.77, 98.15 1.85 M2.37 112.03 C31.87 80.48, 58.81 47.04, 98.15 1.85 M2.1 118.43 C28.21 86.2, 54.54 56.09, 103.14 2.21 M2.1 118.43 C26.11 91.61, 48.71 62.77, 103.14 2.21 M3.16 123.32 C42.02 74.48, 83.87 30.87, 108.78 1.81 M3.16 123.32 C43.1 77.09, 83.59 30.93, 108.78 1.81 M2.24 130.47 C41.04 87.88, 80.89 43.15, 113.77 2.17 M2.24 130.47 C44.69 83.4, 85.31 36.05, 113.77 2.17 M4.6 133.85 C34.03 97.62, 68.73 62.68, 119.41 1.78 M4.6 133.85 C44.73 88.35, 83.12 41.46, 119.41 1.78 M6.96 137.23 C45.84 96.43, 83.9 50.11, 124.4 2.14 M6.96 137.23 C41.4 98.37, 76.14 57.62, 124.4 2.14 M9.33 140.61 C50.38 95.89, 92.19 46.29, 130.04 1.74 M9.33 140.61 C54.03 86.24, 100.73 33.9, 130.04 1.74 M12.35 143.23 C47.34 104.32, 83.67 60.24, 135.03 2.1 M12.35 143.23 C52.84 97.24, 92.05 52.58, 135.03 2.1 M16.02 145.1 C59.1 94.79, 103.86 45.44, 140.67 1.71 M16.02 145.1 C56.64 97.82, 97.31 50.63, 140.67 1.71 M19.69 146.97 C58.55 103.13, 95.92 57.88, 145.66 2.07 M19.69 146.97 C51.19 111.67, 81.95 75.66, 145.66 2.07 M24.03 148.09 C52.7 117.11, 77.21 84.13, 150.65 2.43 M24.03 148.09 C63.34 102.26, 103.28 56.88, 150.65 2.43 M29.01 148.45 C64.56 104.85, 103.55 62.04, 156.29 2.03 M29.01 148.45 C71.3 101.82, 112.04 52.77, 156.29 2.03 M33.34 149.56 C76.63 101.92, 118.6 52.47, 162.59 0.88 M33.34 149.56 C78.96 96.64, 125.23 45.76, 162.59 0.88 M38.99 149.17 C83.12 97.67, 126.39 49.21, 167.57 1.24 M38.99 149.17 C75.74 105.26, 114.92 60.27, 167.57 1.24 M43.97 149.53 C73.56 114.59, 106.44 77, 171.91 2.36 M43.97 149.53 C80.15 105.54, 118.8 63.5, 171.91 2.36 M49.62 149.13 C85.48 108.27, 117.14 68.49, 176.89 2.72 M49.62 149.13 C98.39 93.9, 147.19 37.45, 176.89 2.72 M54.6 149.49 C84.02 114.61, 115.86 81.32, 180.57 4.59 M54.6 149.49 C95.25 103.66, 133.21 58.79, 180.57 4.59 M60.25 149.1 C108.05 92.42, 157.3 36.26, 183.59 7.21 M60.25 149.1 C93.07 111.41, 125.53 74.99, 183.59 7.21 M65.23 149.46 C100.54 106.4, 132.98 68.51, 187.26 9.08 M65.23 149.46 C92.81 119.2, 121.22 87, 187.26 9.08 M70.88 149.06 C114.53 96.81, 158.92 45.32, 189.62 12.46 M70.88 149.06 C107.67 105.76, 144.63 65.12, 189.62 12.46 M75.86 149.42 C112.24 107.69, 147.33 65.49, 191.33 16.59 M75.86 149.42 C113.55 104.67, 152.43 60.25, 191.33 16.59 M81.51 149.03 C125.7 97.05, 168.01 46.75, 193.69 19.97 M81.51 149.03 C122.53 103.25, 162.09 58.04, 193.69 19.97 M86.49 149.39 C126.86 104.85, 163.35 57.15, 194.74 24.86 M86.49 149.39 C109.36 121.12, 131.74 94, 194.74 24.86 M92.14 148.99 C127.49 109.78, 162.89 70.43, 195.14 30.51 M92.14 148.99 C123.77 112.09, 157.01 76.41, 195.14 30.51 M97.12 149.35 C116.53 126.79, 136.36 100.81, 196.85 34.64 M97.12 149.35 C128.8 112.31, 162.33 73.84, 196.85 34.64 M102.11 149.71 C127.62 120.7, 152.15 92.32, 196.58 41.04 M102.11 149.71 C136.8 108.41, 172.29 69.67, 196.58 41.04 M107.75 149.32 C136.21 115.78, 166.65 81.88, 196.98 46.68 M107.75 149.32 C142.64 111.35, 176.34 72.17, 196.98 46.68 M112.74 149.68 C139.68 117.73, 165.86 89.92, 196.72 53.08 M112.74 149.68 C147.65 110.07, 180.98 72.99, 196.72 53.08 M118.38 149.29 C144.23 119.26, 173.49 84.61, 197.11 58.72 M118.38 149.29 C149.65 113.79, 178.99 79.77, 197.11 58.72 M123.37 149.65 C152.49 119.69, 179.98 84.68, 196.85 65.12 M123.37 149.65 C147.29 122.35, 171.61 94.51, 196.85 65.12 M129.01 149.25 C144.88 130.73, 159.55 116.29, 196.59 71.52 M129.01 149.25 C145.1 132.92, 158.9 115.66, 196.59 71.52 M134 149.61 C148.5 131.85, 163.77 112.97, 196.98 77.16 M134 149.61 C158.56 120.88, 181.82 94.57, 196.98 77.16 M139.64 149.22 C163.47 123.41, 185.48 97.91, 196.72 83.56 M139.64 149.22 C151.94 134.51, 165.35 119.37, 196.72 83.56 M144.63 149.58 C157.16 134.72, 173.05 117.43, 196.46 89.95 M144.63 149.58 C157.9 135.65, 170.21 120.07, 196.46 89.95 M150.27 149.18 C164.1 135.72, 176.38 120.71, 196.86 95.6 M150.27 149.18 C163.06 135.21, 173.63 121.21, 196.86 95.6 M155.26 149.54 C165.98 136.3, 176.41 126.53, 196.59 102 M155.26 149.54 C166.58 136.6, 178.05 125.68, 196.59 102 M160.9 149.15 C173.75 134.7, 186.26 120.47, 196.33 108.39 M160.9 149.15 C173.77 133.26, 186.71 119.32, 196.33 108.39 M165.24 150.26 C170.64 141.75, 180.26 134.75, 196.73 114.04 M165.24 150.26 C173.58 140.27, 184.3 127.54, 196.73 114.04 M170.88 149.87 C178.81 142.59, 184.53 130.88, 193.84 123.45 M170.88 149.87 C179.65 139.78, 189.21 129.16, 193.84 123.45 M177.83 147.96 C181.86 142.09, 187.5 136.82, 192.92 130.61 M177.83 147.96 C181.07 142.9, 185.43 138.16, 192.92 130.61" stroke="#12b886" stroke-width="0.5" fill="none"></path><path d="M32 0 M32 0 C75.67 1.03, 116.83 1.86, 162 0 M32 0 C73.15 0.2, 115.17 -0.43, 162 0 M162 0 C182.63 -1.96, 193.41 8.94, 194 32 M162 0 C181.8 -2.01, 194.97 11.53, 194 32 M194 32 C196.31 55.64, 196.55 75.56, 194 116 M194 32 C193.61 50.73, 194.08 68.4, 194 116 M194 116 C192.69 135.94, 182.87 146.47, 162 148 M194 116 C192.84 137.48, 183.37 146.45, 162 148 M162 148 C119.84 147.72, 81.86 147.03, 32 148 M162 148 C133.9 147.43, 106.57 149.09, 32 148 M32 148 C12.28 148.46, -0.69 138.34, 0 116 M32 148 C12.36 149.73, 1.5 135.37, 0 116 M0 116 C1.96 91.86, -0.85 68.66, 0 32 M0 116 C0.86 91.85, -0.02 65.93, 0 32 M0 32 C0.65 12.07, 9.43 -0.27, 32 0 M0 32 C-1.59 9.8, 9.12 -1.64, 32 0" stroke="#000000" stroke-width="1" fill="none"></path></g><g transform="translate(770.7667355192266 183.61529143361827) rotate(0 40.359962463378906 12.500000000000057)"><text x="40.359962463378906" y="0" font-family="Virgil, Segoe UI Emoji" font-size="20px" fill="#000000" text-anchor="middle" style="white-space: pre;" direction="ltr" dominant-baseline="text-before-edge">negative</text></g><g transform="translate(15.208587504649131 10) rotate(0 94.42992401123047 12.5)"><text x="0" y="0" font-family="Virgil, Segoe UI Emoji" font-size="20px" fill="#000000" text-anchor="start" style="white-space: pre;" direction="ltr" dominant-baseline="text-before-edge">A Few Shot Prompt</text></g><g transform="translate(744.8609918482482 13.952614385245056) rotate(0 66.83993530273438 12.5)"><text x="0" y="0" font-family="Virgil, Segoe UI Emoji" font-size="20px" fill="#000000" text-anchor="start" style="white-space: pre;" direction="ltr" dominant-baseline="text-before-edge">Model Output</text></g><g stroke-linecap="round" transform="translate(26.86187469505819 70.70856524888814) rotate(0 79.88182944558554 20.006022439693766)"><path d="M2.66 2.31 C2.66 2.31, 2.66 2.31, 2.66 2.31 M2.66 2.31 C2.66 2.31, 2.66 2.31, 2.66 2.31 M0.43 10.98 C4.82 7.3, 8.4 4.2, 10.27 -0.34 M0.43 10.98 C3.99 6.48, 8.4 2.51, 10.27 -0.34 M0.83 16.62 C3.93 11.15, 8.24 5.52, 13.29 2.28 M0.83 16.62 C4.79 12.76, 8.03 7.33, 13.29 2.28 M1.22 22.26 C4.7 15.37, 12.48 9.05, 18.28 2.64 M1.22 22.26 C5.47 18.44, 7.74 14.77, 18.28 2.64 M0.96 28.66 C7.39 18.61, 15.99 9.43, 23.27 3 M0.96 28.66 C9.37 19.32, 17.15 10.89, 23.27 3 M0.7 35.06 C9.29 23.94, 22.51 10.22, 28.91 2.61 M0.7 35.06 C8.33 25.15, 18.05 15.67, 28.91 2.61 M3.72 37.68 C10.67 27.51, 19.23 19.64, 33.9 2.97 M3.72 37.68 C15.61 24.92, 27.59 11.68, 33.9 2.97 M6.74 40.31 C15.26 33.07, 19.18 25.77, 39.54 2.57 M6.74 40.31 C18.38 25.98, 29.48 13.48, 39.54 2.57 M11.72 40.67 C24.95 28.07, 38.34 11.6, 44.53 2.93 M11.72 40.67 C24.21 26.02, 37.29 13, 44.53 2.93 M17.37 40.27 C26.97 29.81, 36.56 18.85, 50.17 2.54 M17.37 40.27 C29.06 25.36, 42.29 12.09, 50.17 2.54 M22.35 40.63 C32.14 30.86, 40.17 21.12, 55.16 2.9 M22.35 40.63 C31.28 30.1, 40.79 20.21, 55.16 2.9 M28 40.24 C38.02 28.43, 53.56 11.35, 60.8 2.5 M28 40.24 C36.11 31.08, 43.03 23.02, 60.8 2.5 M32.98 40.6 C46.04 29.08, 56.53 13.16, 65.79 2.86 M32.98 40.6 C41.16 30.56, 49.98 20.07, 65.79 2.86 M38.63 40.2 C51.04 28.16, 60.32 15.53, 70.77 3.22 M38.63 40.2 C45.99 31.88, 53.08 24.47, 70.77 3.22 M43.61 40.56 C53.47 27.3, 65.48 14.26, 76.42 2.83 M43.61 40.56 C50.89 33.01, 57.81 24.94, 76.42 2.83 M49.26 40.17 C57.71 32.79, 60.86 22.68, 81.4 3.19 M49.26 40.17 C59.1 28.88, 69.47 16.92, 81.4 3.19 M54.24 40.53 C65.14 26.51, 79.58 11.17, 87.05 2.79 M54.24 40.53 C63.09 30.5, 69.82 22.29, 87.05 2.79 M59.23 40.89 C71.45 28.11, 82.85 14.69, 92.03 3.15 M59.23 40.89 C68.09 31.32, 76.83 21.18, 92.03 3.15 M64.87 40.49 C72.71 31.54, 79.36 24.79, 97.68 2.76 M64.87 40.49 C77.56 26.66, 90.62 10.84, 97.68 2.76 M69.86 40.85 C76.2 34.8, 83.81 25.3, 102.66 3.12 M69.86 40.85 C81.79 26.74, 93.36 13.77, 102.66 3.12 M75.5 40.46 C82.27 30.14, 88.98 23.18, 108.31 2.72 M75.5 40.46 C86.94 28.53, 97.05 17.01, 108.31 2.72 M80.49 40.82 C92.37 24.34, 106.99 12.24, 113.29 3.08 M80.49 40.82 C89.5 31.98, 96.71 20.98, 113.29 3.08 M86.13 40.43 C93.41 30.24, 102.4 24.68, 118.28 3.44 M86.13 40.43 C92.9 32.59, 100.34 24.89, 118.28 3.44 M91.12 40.79 C97.81 31.14, 103.09 24.4, 123.92 3.05 M91.12 40.79 C99.89 32.38, 105.79 24.43, 123.92 3.05 M96.76 40.39 C104.23 33.3, 112.59 23.87, 128.91 3.41 M96.76 40.39 C106.14 28.5, 117.65 16.51, 128.91 3.41 M101.75 40.75 C111.04 29.04, 118.97 20.13, 134.55 3.02 M101.75 40.75 C111.77 30.73, 121.01 19.44, 134.55 3.02 M106.74 41.11 C117.94 27.9, 129.46 18.14, 139.54 3.38 M106.74 41.11 C116.8 29.1, 126.25 16.92, 139.54 3.38 M112.38 40.72 C119.01 31.2, 126.64 25.65, 145.18 2.98 M112.38 40.72 C120.86 30.37, 129.58 20.58, 145.18 2.98 M117.37 41.08 C130.14 29.81, 137.99 14.77, 150.17 3.34 M117.37 41.08 C124.33 33.8, 131.17 24.12, 150.17 3.34 M123.01 40.68 C132.16 29.29, 141.57 18.15, 156.47 2.19 M123.01 40.68 C132.13 30.52, 141.18 19.72, 156.47 2.19 M128 41.04 C133.26 33.78, 140.11 27.27, 158.83 5.57 M128 41.04 C136.65 30.3, 144.97 19.91, 158.83 5.57 M133.64 40.65 C140.43 30.05, 149.07 22.16, 161.85 8.19 M133.64 40.65 C142.9 29.01, 153.34 18.78, 161.85 8.19 M138.63 41.01 C144.17 33.39, 151.94 24.75, 162.25 13.84 M138.63 41.01 C143.92 34.9, 150.97 26.78, 162.25 13.84 M144.27 40.61 C145.96 35.48, 150.14 32.89, 161.99 20.24 M144.27 40.61 C151.52 33.04, 156.95 27.03, 161.99 20.24 M149.92 40.22 C154.94 37.47, 154.96 32.13, 161.72 26.63 M149.92 40.22 C154.03 36.15, 158.62 30.98, 161.72 26.63" stroke="#fab005" stroke-width="0.5" fill="none"></path><path d="M10 0 M10 0 C48.85 1.09, 87.85 1.23, 149.76 0 M10 0 C40.66 1.35, 71.08 0.6, 149.76 0 M149.76 0 C158.28 -1.59, 161.24 4.67, 159.76 10 M149.76 0 C157.04 1.53, 161.53 1.56, 159.76 10 M159.76 10 C161.32 16.83, 159.44 23.5, 159.76 30.01 M159.76 10 C159.58 16.8, 160.6 25.54, 159.76 30.01 M159.76 30.01 C161.23 37, 156.68 38.33, 149.76 40.01 M159.76 30.01 C159.97 38.06, 155.27 41.49, 149.76 40.01 M149.76 40.01 C98.99 40.12, 50.7 41.85, 10 40.01 M149.76 40.01 C112.28 39.45, 72.17 40.57, 10 40.01 M10 40.01 C2.43 41.68, 1.9 35.72, 0 30.01 M10 40.01 C5.6 41.4, -0.86 38.69, 0 30.01 M0 30.01 C-0.53 21.36, -1.82 13.75, 0 10 M0 30.01 C-0.09 24.19, 0.64 17.39, 0 10 M0 10 C-0.45 3.33, 2.04 1.11, 10 0 M0 10 C-1.55 5.62, 3.97 -1.71, 10 0" stroke="#000000" stroke-width="1" fill="none"></path></g><g transform="translate(60.64373618410076 78.2145876885819) rotate(0 46.099967956543 12.5)"><text x="46.09996795654297" y="0" font-family="Virgil, Segoe UI Emoji" font-size="20px" fill="#000000" text-anchor="middle" style="white-space: pre;" direction="ltr" dominant-baseline="text-before-edge">Example 1</text></g><g stroke-linecap="round" transform="translate(27.087395597218347 123.47507446520729) rotate(0 79.88182944558554 20.006022439693766)"><path d="M2.66 2.31 C2.66 2.31, 2.66 2.31, 2.66 2.31 M2.66 2.31 C2.66 2.31, 2.66 2.31, 2.66 2.31 M0.43 10.98 C4.33 6.33, 5.09 5.58, 10.27 -0.34 M0.43 10.98 C2.74 7.55, 4.3 4.91, 10.27 -0.34 M0.83 16.62 C6.2 13.5, 6.9 8.33, 13.29 2.28 M0.83 16.62 C3.69 13.78, 6.18 9.74, 13.29 2.28 M1.22 22.26 C6.85 16.71, 10.51 14.64, 18.28 2.64 M1.22 22.26 C5.89 16.73, 11.2 10.09, 18.28 2.64 M0.96 28.66 C7.26 21.78, 12.34 13.65, 23.27 3 M0.96 28.66 C4.84 23.56, 10.08 17.34, 23.27 3 M0.7 35.06 C11.93 22.41, 22 8.29, 28.91 2.61 M0.7 35.06 C6.86 27.9, 14.59 19.56, 28.91 2.61 M3.72 37.68 C15.59 23.59, 26.68 10.46, 33.9 2.97 M3.72 37.68 C11.64 28.35, 19.48 19.71, 33.9 2.97 M6.74 40.31 C17.55 29.9, 26.92 17.75, 39.54 2.57 M6.74 40.31 C17.8 28.16, 27.49 14.9, 39.54 2.57 M11.72 40.67 C19.87 30.25, 30.06 20.15, 44.53 2.93 M11.72 40.67 C21.26 29.88, 30.92 19.3, 44.53 2.93 M17.37 40.27 C28.81 27.89, 37.64 15.25, 50.17 2.54 M17.37 40.27 C26.54 29.44, 34.44 20.5, 50.17 2.54 M22.35 40.63 C31.15 32.54, 36.41 24.88, 55.16 2.9 M22.35 40.63 C35.21 26.79, 48.74 11.56, 55.16 2.9 M28 40.24 C34.74 32.14, 42.26 22.13, 60.8 2.5 M28 40.24 C35.67 29.5, 44.16 20.81, 60.8 2.5 M32.98 40.6 C40.74 32.22, 49.38 22.51, 65.79 2.86 M32.98 40.6 C43.55 28.82, 53.41 16.98, 65.79 2.86 M38.63 40.2 C50.16 26.43, 61.83 14.28, 70.77 3.22 M38.63 40.2 C51.15 25.64, 63.21 12.17, 70.77 3.22 M43.61 40.56 C50.11 33.9, 57.84 26.21, 76.42 2.83 M43.61 40.56 C51.36 31.37, 59.44 20.53, 76.42 2.83 M49.26 40.17 C57.73 32.68, 61.38 25.77, 81.4 3.19 M49.26 40.17 C61.78 25.06, 75.13 10.24, 81.4 3.19 M54.24 40.53 C63.53 29.55, 77.61 15.79, 87.05 2.79 M54.24 40.53 C64.44 29.07, 73.88 17.11, 87.05 2.79 M59.23 40.89 C70.18 26.89, 84.02 15.36, 92.03 3.15 M59.23 40.89 C69.06 29.07, 80.66 16.92, 92.03 3.15 M64.87 40.49 C73.43 30.47, 81.03 24.31, 97.68 2.76 M64.87 40.49 C72.19 31.96, 80.77 21.3, 97.68 2.76 M69.86 40.85 C81.03 30.61, 90.52 19.74, 102.66 3.12 M69.86 40.85 C78.64 31.63, 86.62 22.6, 102.66 3.12 M75.5 40.46 C84.24 27.37, 96.25 16.89, 108.31 2.72 M75.5 40.46 C85.63 30.01, 95.33 17.69, 108.31 2.72 M80.49 40.82 C89.67 29.38, 99.62 15.89, 113.29 3.08 M80.49 40.82 C92.24 27.78, 105.14 12.99, 113.29 3.08 M86.13 40.43 C96.27 32.02, 104.99 21.39, 118.28 3.44 M86.13 40.43 C98.39 25.56, 110.48 11.8, 118.28 3.44 M91.12 40.79 C102.44 28.58, 115.85 15.19, 123.92 3.05 M91.12 40.79 C101.51 27.74, 112.82 15.1, 123.92 3.05 M96.76 40.39 C107.05 27.96, 119.88 17.05, 128.91 3.41 M96.76 40.39 C106.36 29.23, 114.12 19.19, 128.91 3.41 M101.75 40.75 C110.94 28.52, 122.54 18.71, 134.55 3.02 M101.75 40.75 C110 30.97, 119.69 21.24, 134.55 3.02 M106.74 41.11 C114.85 30.32, 122.53 20.85, 139.54 3.38 M106.74 41.11 C115.86 31.85, 123.4 22.6, 139.54 3.38 M112.38 40.72 C124.93 26.01, 135.82 11.82, 145.18 2.98 M112.38 40.72 C123.72 26.57, 134.76 14.57, 145.18 2.98 M117.37 41.08 C126.54 31.59, 139.77 20.02, 150.17 3.34 M117.37 41.08 C126.2 30.89, 133.69 21.77, 150.17 3.34 M123.01 40.68 C134.47 27.56, 144.79 15.26, 156.47 2.19 M123.01 40.68 C132.7 29.11, 142 17.26, 156.47 2.19 M128 41.04 C139.22 28.49, 145.17 19.82, 158.83 5.57 M128 41.04 C137.14 30.51, 147.16 20.44, 158.83 5.57 M133.64 40.65 C141.04 30.57, 146.61 22.64, 161.85 8.19 M133.64 40.65 C139.26 32.43, 145.45 26.94, 161.85 8.19 M138.63 41.01 C148.11 30.99, 155.72 20.09, 162.25 13.84 M138.63 41.01 C144.43 34.21, 151.7 26.65, 162.25 13.84 M144.27 40.61 C148.12 34.69, 154.05 27.45, 161.99 20.24 M144.27 40.61 C151.6 33.26, 157.11 25.74, 161.99 20.24 M149.92 40.22 C153.55 33.74, 158.73 28.99, 161.72 26.63 M149.92 40.22 C153.16 36.68, 157.06 31.79, 161.72 26.63" stroke="#fab005" stroke-width="0.5" fill="none"></path><path d="M10 0 M10 0 C61.91 0.16, 115.94 -2.56, 149.76 0 M10 0 C45.86 -0.01, 79.65 0.1, 149.76 0 M149.76 0 C156.78 -1.11, 160.1 3.08, 159.76 10 M149.76 0 C154.73 1.98, 160.68 2.73, 159.76 10 M159.76 10 C158.02 16.58, 160.53 20.91, 159.76 30.01 M159.76 10 C160.03 15.5, 160.45 21.41, 159.76 30.01 M159.76 30.01 C160.88 38.18, 156.78 38.29, 149.76 40.01 M159.76 30.01 C160.48 37.66, 155.33 40.21, 149.76 40.01 M149.76 40.01 C113.29 39.39, 74.44 39.56, 10 40.01 M149.76 40.01 C113.59 39.37, 75.59 39.26, 10 40.01 M10 40.01 C2.09 41.01, -1.53 36.31, 0 30.01 M10 40.01 C3.88 40.97, 0.09 37.64, 0 30.01 M0 30.01 C1.47 22.36, 0.64 17.48, 0 10 M0 30.01 C0.3 22.4, 0.82 13.94, 0 10 M0 10 C-1.8 4.14, 2.45 -0.74, 10 0 M0 10 C-1.2 3.51, 1.35 2.29, 10 0" stroke="#000000" stroke-width="1" fill="none"></path></g><g transform="translate(56.45926105354607 130.98109690490105) rotate(0 50.509963989257784 12.5)"><text x="50.50996398925781" y="0" font-family="Virgil, Segoe UI Emoji" font-size="20px" fill="#000000" text-anchor="middle" style="white-space: pre;" direction="ltr" dominant-baseline="text-before-edge">Example 2</text></g><g stroke-linecap="round" transform="translate(28.69634344679207 174.8855894868044) rotate(0 80 23)"><path d="M3.06 2.66 C3.06 2.66, 3.06 2.66, 3.06 2.66 M3.06 2.66 C3.06 2.66, 3.06 2.66, 3.06 2.66 M1.49 10.57 C4.57 9.08, 6.35 6.83, 10.02 0.76 M1.49 10.57 C4.31 7.2, 7.69 4.49, 10.02 0.76 M1.88 16.21 C5.88 14.49, 5.89 8.09, 14.35 1.87 M1.88 16.21 C7.11 11.18, 12.05 5.46, 14.35 1.87 M1.62 22.61 C7.22 15.3, 14.34 7.21, 19.33 2.23 M1.62 22.61 C7.31 15.85, 13.31 8.69, 19.33 2.23 M2.02 28.25 C8.71 19.21, 17.98 8.75, 24.32 2.59 M2.02 28.25 C8.3 20.36, 14.3 13.6, 24.32 2.59 M1.75 34.65 C8.6 25.64, 18.39 18.15, 29.96 2.2 M1.75 34.65 C10.72 24.21, 18.49 13.77, 29.96 2.2 M2.8 39.54 C16.27 26.78, 26.23 10.53, 34.95 2.56 M2.8 39.54 C14.68 26.36, 28.35 11.19, 34.95 2.56 M3.86 44.43 C13.84 34.28, 24.95 19.72, 40.59 2.16 M3.86 44.43 C12.16 34.11, 22.04 23.37, 40.59 2.16 M7.53 46.3 C20.92 32.75, 32.5 19.65, 45.58 2.52 M7.53 46.3 C18.53 32.17, 31.28 20.07, 45.58 2.52 M13.17 45.9 C27.81 29.78, 39.78 15.51, 51.22 2.13 M13.17 45.9 C22.21 35.85, 30.06 25.99, 51.22 2.13 M18.16 46.26 C29.18 35.99, 39.88 21.85, 56.21 2.49 M18.16 46.26 C25.71 37.01, 34.24 27.62, 56.21 2.49 M23.15 46.62 C32.89 34.64, 42.88 24.11, 61.85 2.09 M23.15 46.62 C33.43 35.75, 43.7 22.9, 61.85 2.09 M28.79 46.23 C41.66 33.71, 52.05 18.9, 66.84 2.45 M28.79 46.23 C42.26 28.4, 57.83 12.86, 66.84 2.45 M33.78 46.59 C49.83 27.79, 64.14 12.27, 71.83 2.81 M33.78 46.59 C44.78 34.02, 57.19 21.42, 71.83 2.81 M39.42 46.19 C47.86 36.72, 58.54 26.3, 77.47 2.42 M39.42 46.19 C47.64 36.54, 56.47 26.4, 77.47 2.42 M44.41 46.55 C52.18 34.01, 64.01 25.11, 82.46 2.78 M44.41 46.55 C53.31 37.65, 60.64 28.13, 82.46 2.78 M50.05 46.16 C59.41 34.74, 65.52 26.37, 88.1 2.38 M50.05 46.16 C60.77 34.4, 70.9 22.4, 88.1 2.38 M55.04 46.52 C66.13 32.14, 79.86 19.54, 93.09 2.75 M55.04 46.52 C69.05 29.73, 82.52 13.51, 93.09 2.75 M60.02 46.88 C71.85 30.96, 82.44 20.2, 98.73 2.35 M60.02 46.88 C74.66 30.98, 88.45 14.29, 98.73 2.35 M65.67 46.48 C76.89 29.84, 92.66 16.8, 103.72 2.71 M65.67 46.48 C79.12 31.21, 91.17 17.98, 103.72 2.71 M70.65 46.84 C78.07 38.73, 86.96 30.16, 108.71 3.07 M70.65 46.84 C82.86 33.25, 95.23 19.9, 108.71 3.07 M76.3 46.45 C92.22 29.43, 104.4 12.77, 114.35 2.68 M76.3 46.45 C87.1 32.6, 99.07 19.83, 114.35 2.68 M81.28 46.81 C90.33 34.33, 103.04 22.61, 119.34 3.04 M81.28 46.81 C95.96 30.27, 109.78 14.44, 119.34 3.04 M86.93 46.41 C100.69 34.42, 109.11 17.99, 124.98 2.64 M86.93 46.41 C96.94 34.99, 106.53 23.93, 124.98 2.64 M91.91 46.77 C103.99 32.77, 116.9 14.55, 129.97 3 M91.91 46.77 C100.7 36.05, 110.16 26.8, 129.97 3 M97.56 46.38 C109.91 32.54, 122.33 15.18, 135.61 2.61 M97.56 46.38 C108.26 34.26, 120.33 20.48, 135.61 2.61 M102.54 46.74 C117.64 29.95, 133.1 12.39, 140.6 2.97 M102.54 46.74 C117.7 28.65, 131.71 11.08, 140.6 2.97 M107.53 47.1 C121.55 32.38, 133.53 13.88, 146.24 2.57 M107.53 47.1 C116.5 35.68, 126.75 26.95, 146.24 2.57 M113.17 46.71 C126.71 28.48, 143.83 13.92, 151.23 2.93 M113.17 46.71 C127.09 30.67, 140.42 15.05, 151.23 2.93 M118.16 47.07 C127.99 33.57, 136.79 24.46, 156.21 3.29 M118.16 47.07 C125.74 37.52, 134.45 28.27, 156.21 3.29 M123.8 46.67 C139.5 30.59, 152.27 14.18, 159.89 5.16 M123.8 46.67 C136.05 32.56, 150.19 17.34, 159.89 5.16 M128.79 47.03 C137.97 36.33, 148.67 26.27, 160.94 10.05 M128.79 47.03 C139.34 35.8, 149.59 23.47, 160.94 10.05 M134.44 46.64 C145.88 34.05, 152.89 22.97, 160.68 16.45 M134.44 46.64 C142.62 38.21, 148.81 30.7, 160.68 16.45 M139.42 47 C146.49 37.41, 152.23 28.73, 161.07 22.09 M139.42 47 C146.91 39.59, 153.81 30.76, 161.07 22.09 M145.07 46.6 C149.34 41.05, 157.76 33.33, 160.81 28.49 M145.07 46.6 C147.78 43.21, 152.29 38.84, 160.81 28.49 M150.05 46.96 C154.23 42.57, 157.37 40, 160.55 34.89 M150.05 46.96 C153.01 42.51, 156.49 39.81, 160.55 34.89" stroke="#fab005" stroke-width="0.5" fill="none"></path><path d="M11.5 0 M11.5 0 C54.12 1.04, 94.56 0.22, 148.5 0 M11.5 0 C52.84 -1.29, 94.66 -0.4, 148.5 0 M148.5 0 C157.52 0.22, 159.22 4.95, 160 11.5 M148.5 0 C154.32 2.04, 161.81 1.77, 160 11.5 M160 11.5 C161.72 19.28, 161.1 23.34, 160 34.5 M160 11.5 C160.96 16.75, 160.68 22.47, 160 34.5 M160 34.5 C160.55 41.54, 157.28 47.53, 148.5 46 M160 34.5 C161.16 44.09, 156.4 44.87, 148.5 46 M148.5 46 C95.49 43.75, 45.87 43.78, 11.5 46 M148.5 46 C100.42 46.11, 51.77 44.77, 11.5 46 M11.5 46 C1.85 45.23, 0.98 43.19, 0 34.5 M11.5 46 C4.29 47.62, -1.7 44.28, 0 34.5 M0 34.5 C1.96 29.54, -1.23 22.63, 0 11.5 M0 34.5 C0.09 28.25, 0.62 20.66, 0 11.5 M0 11.5 C1.77 4.95, 3.73 0.37, 11.5 0 M0 11.5 C1.93 1.82, 4.58 1.61, 11.5 0" stroke="#000000" stroke-width="1" fill="none"></path></g><g transform="translate(45.70440008741707 187.8855894868044) rotate(0 62.991943359375 10)"><text x="62.991943359375" y="0" font-family="Virgil, Segoe UI Emoji" font-size="16px" fill="#000000" text-anchor="middle" style="white-space: pre;" direction="ltr" dominant-baseline="text-before-edge">More examples...</text></g><g stroke-linecap="round" transform="translate(27.493633975835337 229.5643967414552) rotate(0 80 23)"><path d="M3.06 2.66 C3.06 2.66, 3.06 2.66, 3.06 2.66 M3.06 2.66 C3.06 2.66, 3.06 2.66, 3.06 2.66 M1.49 10.57 C3.22 7.54, 7.32 4.85, 10.02 0.76 M1.49 10.57 C3.31 8.81, 5.09 6.54, 10.02 0.76 M1.88 16.21 C6.06 10.3, 8.39 6.02, 14.35 1.87 M1.88 16.21 C5.88 12.9, 7.56 8.57, 14.35 1.87 M1.62 22.61 C6.09 19.98, 11.19 13.55, 19.33 2.23 M1.62 22.61 C6.52 18.31, 10.26 13.66, 19.33 2.23 M2.02 28.25 C11.65 19.99, 19.12 6.63, 24.32 2.59 M2.02 28.25 C6.85 22.09, 12.38 18.12, 24.32 2.59 M1.75 34.65 C5.94 25.68, 12.83 19.38, 29.96 2.2 M1.75 34.65 C11.32 22.77, 20.15 12.77, 29.96 2.2 M2.8 39.54 C12.19 28.81, 17.77 22.06, 34.95 2.56 M2.8 39.54 C10.49 31.39, 19.22 21.89, 34.95 2.56 M3.86 44.43 C11.54 36.09, 19.98 23.98, 40.59 2.16 M3.86 44.43 C13.98 32.78, 22.46 22.28, 40.59 2.16 M7.53 46.3 C19.4 30.98, 31.8 21.45, 45.58 2.52 M7.53 46.3 C21.96 29.3, 37.94 13.24, 45.58 2.52 M13.17 45.9 C25.73 34, 35.24 18.27, 51.22 2.13 M13.17 45.9 C27.11 29.34, 42.15 13.35, 51.22 2.13 M18.16 46.26 C26.81 36.53, 32.32 26.7, 56.21 2.49 M18.16 46.26 C31.98 31.79, 45.87 15.3, 56.21 2.49 M23.15 46.62 C39.96 28.18, 53.62 11.45, 61.85 2.09 M23.15 46.62 C36.69 32.02, 48.78 17.58, 61.85 2.09 M28.79 46.23 C39.1 37.53, 45.52 26.79, 66.84 2.45 M28.79 46.23 C41.54 31.13, 54.95 16.08, 66.84 2.45 M33.78 46.59 C42.82 35.51, 50.79 27.12, 71.83 2.81 M33.78 46.59 C43.57 36.59, 52.1 25.16, 71.83 2.81 M39.42 46.19 C50.81 31.8, 63.5 18.26, 77.47 2.42 M39.42 46.19 C47.26 36.32, 57.01 26.17, 77.47 2.42 M44.41 46.55 C59.81 31.2, 71.77 17.34, 82.46 2.78 M44.41 46.55 C57.59 31.64, 68.61 16.78, 82.46 2.78 M50.05 46.16 C62.28 33.53, 73.29 17.31, 88.1 2.38 M50.05 46.16 C61.73 32.31, 73.88 19.32, 88.1 2.38 M55.04 46.52 C70.59 32.02, 81.81 15.93, 93.09 2.75 M55.04 46.52 C65.11 35.48, 74.51 24.78, 93.09 2.75 M60.02 46.88 C72.24 34.95, 81.24 20.47, 98.73 2.35 M60.02 46.88 C69.6 36.07, 78.06 26.85, 98.73 2.35 M65.67 46.48 C79.73 33.44, 91.3 16.17, 103.72 2.71 M65.67 46.48 C79.09 29.05, 94.5 12.37, 103.72 2.71 M70.65 46.84 C83.87 31.27, 94.17 18.67, 108.71 3.07 M70.65 46.84 C81.78 34.38, 91.34 21.08, 108.71 3.07 M76.3 46.45 C85.24 36.28, 93.21 27.94, 114.35 2.68 M76.3 46.45 C88.23 33.04, 101.43 18.22, 114.35 2.68 M81.28 46.81 C93.78 33.65, 102.99 21.49, 119.34 3.04 M81.28 46.81 C88.36 36.53, 97.67 26.72, 119.34 3.04 M86.93 46.41 C100.91 28.18, 116.68 13.73, 124.98 2.64 M86.93 46.41 C101.62 29.51, 116.23 12.84, 124.98 2.64 M91.91 46.77 C106.23 28.98, 121.89 12.92, 129.97 3 M91.91 46.77 C103.14 33.87, 114.13 22.49, 129.97 3 M97.56 46.38 C104.79 34.82, 113.8 24.37, 135.61 2.61 M97.56 46.38 C111.32 30.28, 124.83 15.46, 135.61 2.61 M102.54 46.74 C114.55 33.24, 124.19 22.6, 140.6 2.97 M102.54 46.74 C117.76 30.74, 131.47 14.13, 140.6 2.97 M107.53 47.1 C123 29.43, 135.75 16.75, 146.24 2.57 M107.53 47.1 C117.59 34.6, 127.94 24.52, 146.24 2.57 M113.17 46.71 C123.43 38.95, 130.63 29.72, 151.23 2.93 M113.17 46.71 C125.32 33.26, 137.11 18.62, 151.23 2.93 M118.16 47.07 C125.56 36.39, 135.81 26.98, 156.21 3.29 M118.16 47.07 C126.66 35.75, 136.49 26, 156.21 3.29 M123.8 46.67 C136.99 31.98, 149.75 18.92, 159.89 5.16 M123.8 46.67 C136.18 33.65, 147.2 19.03, 159.89 5.16 M128.79 47.03 C135.79 36.88, 147.47 27.83, 160.94 10.05 M128.79 47.03 C138.73 35.74, 149.78 24.98, 160.94 10.05 M134.44 46.64 C142.47 36.32, 153.6 23.57, 160.68 16.45 M134.44 46.64 C144.98 35.15, 153.87 23.79, 160.68 16.45 M139.42 47 C144.33 41.9, 151.51 33.54, 161.07 22.09 M139.42 47 C145.38 38.17, 153.06 30.1, 161.07 22.09 M145.07 46.6 C149.44 43.64, 152.06 38.25, 160.81 28.49 M145.07 46.6 C149.79 41.81, 153.89 36.52, 160.81 28.49 M150.05 46.96 C153.45 43.03, 159.41 37.31, 160.55 34.89 M150.05 46.96 C152.41 44.62, 154.52 40.65, 160.55 34.89" stroke="#fa5252" stroke-width="0.5" fill="none"></path><path d="M11.5 0 M11.5 0 C67.19 0.85, 119.46 2.61, 148.5 0 M11.5 0 C52.45 0.38, 93.02 -0.29, 148.5 0 M148.5 0 C156.73 0.2, 159.98 2.63, 160 11.5 M148.5 0 C157.94 2.12, 158.7 3.56, 160 11.5 M160 11.5 C158.12 17.88, 158.79 27.53, 160 34.5 M160 11.5 C160.09 18.65, 160.92 26.01, 160 34.5 M160 34.5 C159.74 40.66, 155.51 46.49, 148.5 46 M160 34.5 C159.82 40.11, 157.38 45.27, 148.5 46 M148.5 46 C115.98 44.86, 88.62 45.3, 11.5 46 M148.5 46 C98.24 44.34, 47.08 45.51, 11.5 46 M11.5 46 C3.8 45.61, 0.96 40.65, 0 34.5 M11.5 46 C4.99 45.35, 1.31 42.71, 0 34.5 M0 34.5 C0.87 28.99, 1.63 24.2, 0 11.5 M0 34.5 C-0.79 28.17, 0.72 23.64, 0 11.5 M0 11.5 C0.85 2.67, 2.76 1.08, 11.5 0 M0 11.5 C-1.62 5.97, 5.13 -1.77, 11.5 0" stroke="#000000" stroke-width="1" fill="none"></path></g><g transform="translate(68.45365594849159 242.5643967414552) rotate(0 39.03997802734375 10)"><text x="39.03997802734375" y="0" font-family="Virgil, Segoe UI Emoji" font-size="16px" fill="#000000" text-anchor="middle" style="white-space: pre;" direction="ltr" dominant-baseline="text-before-edge">Your input</text></g><g transform="translate(376.2777440762487 10.952203757267739) rotate(0 38.38996887207031 12.5)"><text x="0" y="0" font-family="Virgil, Segoe UI Emoji" font-size="20px" fill="#000000" text-anchor="start" style="white-space: pre;" direction="ltr" dominant-baseline="text-before-edge">Example</text></g><g stroke-linecap="round" transform="translate(259.56079391245805 50.22748198885961) rotate(0 160 126.50000000000006)"><path d="M7.86 8.16 C7.86 8.16, 7.86 8.16, 7.86 8.16 M7.86 8.16 C7.86 8.16, 7.86 8.16, 7.86 8.16 M3.66 19.09 C7.04 14.07, 12.27 8.14, 18.1 2.48 M3.66 19.09 C8.41 13.68, 13.94 7.45, 18.1 2.48 M2.75 26.24 C8.86 19.3, 15.77 11.3, 24.4 1.33 M2.75 26.24 C10.64 17.44, 20.07 6.51, 24.4 1.33 M2.48 32.64 C12.2 23.12, 20.23 11.66, 30.7 0.18 M2.48 32.64 C12.12 21.71, 21.05 12.2, 30.7 0.18 M2.88 38.28 C11.64 23.74, 26.33 11.87, 34.37 2.05 M2.88 38.28 C13.73 25.88, 26.48 13.45, 34.37 2.05 M2.62 44.68 C15.58 27.8, 28.27 14.9, 39.36 2.41 M2.62 44.68 C13.74 31.84, 27.25 16.65, 39.36 2.41 M2.36 51.07 C12.94 36.16, 24.78 23.3, 45 2.02 M2.36 51.07 C15.1 35.58, 29.36 19.12, 45 2.02 M2.75 56.72 C20 39.55, 38.52 17.97, 49.99 2.38 M2.75 56.72 C12.68 44.59, 24.15 31.46, 49.99 2.38 M2.49 63.11 C18.92 44.19, 36.18 25.19, 55.63 1.98 M2.49 63.11 C18.71 45.89, 32.84 28.74, 55.63 1.98 M2.23 69.51 C22.3 44.52, 45.14 21.38, 60.62 2.34 M2.23 69.51 C13.34 55.74, 26.06 41.68, 60.62 2.34 M2.62 75.16 C14.88 57.78, 27.98 43.27, 66.26 1.95 M2.62 75.16 C23.43 49.29, 46.24 23.43, 66.26 1.95 M2.36 81.55 C29.69 50.9, 58.35 18.38, 71.25 2.31 M2.36 81.55 C21.8 60.26, 41.07 37.69, 71.25 2.31 M2.76 87.2 C16.66 68.62, 33.59 49.57, 76.89 1.91 M2.76 87.2 C23.86 64, 43.98 41.76, 76.89 1.91 M2.49 93.59 C31.03 61.21, 60.37 26.97, 81.88 2.27 M2.49 93.59 C28.95 61.98, 55.65 32.49, 81.88 2.27 M2.23 99.99 C28.49 68.43, 54.4 38.3, 87.52 1.88 M2.23 99.99 C26.47 70.72, 50.86 43.72, 87.52 1.88 M2.63 105.64 C30.03 77.15, 55.93 47.6, 92.51 2.24 M2.63 105.64 C34.56 68.61, 67.6 30.1, 92.51 2.24 M2.37 112.03 C42.74 67.59, 79.43 24.23, 98.15 1.85 M2.37 112.03 C33.15 77.5, 63.62 41.35, 98.15 1.85 M2.1 118.43 C39.24 76.59, 77.06 36.2, 103.14 2.21 M2.1 118.43 C24.84 93.1, 45.76 69.21, 103.14 2.21 M2.5 124.07 C34.66 87.31, 69.05 50.14, 108.78 1.81 M2.5 124.07 C39.06 81.63, 77.1 38.33, 108.78 1.81 M2.24 130.47 C31.6 96.42, 61.84 61.04, 113.77 2.17 M2.24 130.47 C25.57 104.69, 50.51 75.91, 113.77 2.17 M2.63 136.11 C23.81 107.67, 50.63 82.44, 119.41 1.78 M2.63 136.11 C33.1 102.92, 60.66 70.43, 119.41 1.78 M2.37 142.51 C32.2 109.58, 60.18 75.02, 124.4 2.14 M2.37 142.51 C45.47 91.77, 89.96 40.46, 124.4 2.14 M2.11 148.91 C47.18 98.69, 91.6 47.38, 130.04 1.74 M2.11 148.91 C44.53 99.18, 88.94 50.21, 130.04 1.74 M2.5 154.55 C56.46 93.62, 107.47 32.84, 135.03 2.1 M2.5 154.55 C47.12 104.07, 90.86 52.31, 135.03 2.1 M2.24 160.95 C52.47 104.04, 100.5 47.07, 140.67 1.71 M2.24 160.95 C37.15 122.64, 70.83 82.14, 140.67 1.71 M1.98 167.35 C33.12 131.31, 65.24 94.33, 145.66 2.07 M1.98 167.35 C41.68 121.78, 82.74 76.16, 145.66 2.07 M2.38 172.99 C59.15 109.55, 114.1 47.05, 150.65 2.43 M2.38 172.99 C41.9 128.96, 80.59 84.35, 150.65 2.43 M2.11 179.39 C50.45 127.16, 94.33 72.69, 156.29 2.03 M2.11 179.39 C35.6 138.35, 71.63 96.66, 156.29 2.03 M2.51 185.03 C38.33 141.39, 73.17 103.64, 161.28 2.39 M2.51 185.03 C57.56 120.66, 111.45 57.96, 161.28 2.39 M2.25 191.43 C61.94 125.38, 116.4 59.99, 166.92 2 M2.25 191.43 C49.35 138.69, 95.35 85.77, 166.92 2 M1.99 197.83 C54.14 138.55, 107.54 78.02, 171.91 2.36 M1.99 197.83 C57.21 133.17, 113.4 68.68, 171.91 2.36 M2.38 203.47 C41.92 159.68, 79.78 116.58, 177.55 1.96 M2.38 203.47 C36.6 162.37, 73.54 120.71, 177.55 1.96 M2.12 209.87 C61.41 141.61, 121.87 74.42, 182.54 2.32 M2.12 209.87 C65.47 140.3, 126.76 68.84, 182.54 2.32 M1.86 216.27 C51.82 159.37, 101.46 103.58, 188.18 1.93 M1.86 216.27 C49.95 158.6, 100.49 101.02, 188.18 1.93 M1.6 222.66 C61.93 153.39, 118.53 85.16, 193.17 2.29 M1.6 222.66 C69.35 144.73, 139.27 65.19, 193.17 2.29 M2.65 227.55 C80.31 137.91, 156.97 47.25, 198.81 1.9 M2.65 227.55 C77.46 141.15, 153.61 54.27, 198.81 1.9 M3.04 233.2 C44.12 184.31, 86.5 136.86, 203.8 2.26 M3.04 233.2 C53.98 175.25, 103.83 118.41, 203.8 2.26 M4.75 237.33 C50.03 186.78, 91.92 136.55, 209.44 1.86 M4.75 237.33 C78.44 153.94, 151.57 69.52, 209.44 1.86 M7.11 240.71 C73.27 166.25, 137.91 91.21, 214.43 2.22 M7.11 240.71 C81.15 156.97, 154.28 72.97, 214.43 2.22 M8.16 245.6 C68.79 179.53, 124.29 112.74, 220.07 1.83 M8.16 245.6 C63.35 180.46, 119.17 116.9, 220.07 1.83 M11.84 247.47 C58.04 193.94, 103.98 141.11, 225.06 2.19 M11.84 247.47 C69.92 180.02, 127.95 112.44, 225.06 2.19 M15.51 249.34 C67.12 192.21, 118.58 133.69, 230.7 1.79 M15.51 249.34 C69.44 185.14, 125.05 121.9, 230.7 1.79 M18.53 251.96 C74 187.69, 131 125.7, 235.69 2.15 M18.53 251.96 C86.12 173.61, 154.83 94.28, 235.69 2.15 M23.52 252.32 C88.69 180.84, 151.5 107.83, 241.33 1.76 M23.52 252.32 C101.99 164.09, 179.71 74.28, 241.33 1.76 M28.5 252.68 C90.22 181.81, 151.3 112.48, 246.32 2.12 M28.5 252.68 C80.33 193.61, 130.6 135.5, 246.32 2.12 M32.84 253.8 C113.11 162.85, 189.98 70.73, 251.96 1.72 M32.84 253.8 C94.69 183.48, 154.67 113.58, 251.96 1.72 M38.48 253.4 C100.78 181.78, 162.96 108.99, 256.95 2.08 M38.48 253.4 C96.21 185.75, 153.38 119.45, 256.95 2.08 M43.47 253.76 C105.57 178.85, 169.38 106.17, 262.59 1.69 M43.47 253.76 C125.13 159.46, 208.41 64.04, 262.59 1.69 M48.45 254.12 C125.96 164.99, 203.27 74.83, 267.58 2.05 M48.45 254.12 C120.23 170.67, 192.55 88.03, 267.58 2.05 M54.1 253.73 C106.74 193.77, 158.67 131.68, 272.56 2.41 M54.1 253.73 C124.41 174.86, 194.76 93.16, 272.56 2.41 M59.08 254.09 C130.24 168.47, 204.21 85.16, 278.21 2.01 M59.08 254.09 C104.93 201.25, 150.31 148.75, 278.21 2.01 M64.73 253.69 C133.82 176.18, 200.54 98.1, 283.19 2.37 M64.73 253.69 C112.98 195, 163.92 137.73, 283.19 2.37 M69.71 254.05 C152.36 159.34, 235.72 65.31, 289.49 1.22 M69.71 254.05 C149.48 160.45, 230.82 66.94, 289.49 1.22 M75.36 253.66 C142.66 175.3, 210.47 95.57, 294.48 1.58 M75.36 253.66 C140.11 178.07, 207.93 101.08, 294.48 1.58 M80.34 254.02 C157.58 166.84, 232.6 79.08, 298.81 2.7 M80.34 254.02 C157.25 165.92, 234.3 77.4, 298.81 2.7 M85.99 253.62 C169.88 153.88, 254.86 55.21, 303.8 3.06 M85.99 253.62 C133.6 198.46, 182.03 142.32, 303.8 3.06 M90.97 253.98 C147.98 186.82, 206.19 118.2, 306.82 5.68 M90.97 253.98 C170.53 162.17, 250.32 70.28, 306.82 5.68 M96.62 253.59 C142.52 201.3, 188.02 147.3, 310.49 7.55 M96.62 253.59 C168.4 171.87, 240.33 89.24, 310.49 7.55 M101.6 253.95 C160.4 189.77, 215.83 123.68, 314.17 9.42 M101.6 253.95 C165.7 178.76, 231.79 102.16, 314.17 9.42 M107.25 253.55 C187.39 162.46, 263.94 73.05, 315.87 13.56 M107.25 253.55 C163.62 190.35, 220.54 124.62, 315.87 13.56 M112.23 253.91 C194.85 159.31, 276.27 62.91, 318.24 16.94 M112.23 253.91 C183.25 175.18, 252.23 94.37, 318.24 16.94 M117.88 253.52 C197.99 162.48, 275.24 71.2, 320.6 20.31 M117.88 253.52 C185.78 179.51, 250.76 104.21, 320.6 20.31 M122.86 253.88 C170.96 200.3, 218.33 145.34, 321.65 25.2 M122.86 253.88 C181.73 188.97, 238.97 121.99, 321.65 25.2 M128.51 253.49 C186.53 187.77, 246.32 120.31, 320.73 32.36 M128.51 253.49 C180.38 192.33, 233.79 130.85, 320.73 32.36 M133.49 253.85 C187.18 190.15, 241.75 129.01, 320.47 38.75 M133.49 253.85 C186.48 192.17, 240.05 132.67, 320.47 38.75 M139.14 253.45 C187.58 192.2, 240.84 134.12, 320.86 44.4 M139.14 253.45 C209.56 175.16, 277.79 95.85, 320.86 44.4 M144.12 253.81 C214.08 175.7, 281.34 95.53, 320.6 50.79 M144.12 253.81 C194.87 192.32, 247.11 132.32, 320.6 50.79 M149.77 253.42 C186.5 211.85, 222.69 169.92, 320.34 57.19 M149.77 253.42 C211.9 182.47, 271.23 113.03, 320.34 57.19 M154.75 253.78 C202.37 200.46, 251.14 143.8, 320.74 62.83 M154.75 253.78 C190.55 214.78, 224.79 174.91, 320.74 62.83 M160.4 253.38 C209.72 193.2, 263.75 135.96, 320.47 69.23 M160.4 253.38 C194.2 215.87, 227.58 178.35, 320.47 69.23 M165.38 253.74 C207.85 207.49, 246.5 157.04, 320.87 74.88 M165.38 253.74 C220.01 191.46, 274.46 130.79, 320.87 74.88 M170.37 254.1 C221.56 194.69, 274.02 135.33, 320.61 81.27 M170.37 254.1 C203.75 216.68, 236.32 180.94, 320.61 81.27 M176.01 253.71 C224.42 196.4, 271.88 141.23, 320.35 87.67 M176.01 253.71 C223.78 199.62, 271.85 144.98, 320.35 87.67 M181 254.07 C230.82 198.58, 283.29 140.83, 320.74 93.31 M181 254.07 C227.04 203.1, 272.41 150.46, 320.74 93.31 M186.64 253.67 C216.05 221.21, 241.99 188.56, 320.48 99.71 M186.64 253.67 C220.36 215.32, 253.05 178.33, 320.48 99.71 M191.63 254.03 C236.22 200.52, 282.61 149.23, 320.87 105.36 M191.63 254.03 C238.5 200.86, 284.93 146.91, 320.87 105.36 M197.27 253.64 C241.33 200.19, 287.2 150.5, 320.61 111.75 M197.27 253.64 C227.54 218.41, 260.15 181.38, 320.61 111.75 M202.26 254 C228.05 224.03, 259.39 191.51, 320.35 118.15 M202.26 254 C228.3 222.85, 256.68 190.54, 320.35 118.15 M207.9 253.6 C248.8 205.83, 292.23 160.63, 320.75 123.79 M207.9 253.6 C232.17 226.77, 255.28 199.77, 320.75 123.79 M212.89 253.96 C238.78 223.43, 267.51 192.43, 320.48 130.19 M212.89 253.96 C245.96 217.45, 279.93 177.94, 320.48 130.19 M218.53 253.57 C251.86 213.53, 284.85 177.28, 320.88 135.83 M218.53 253.57 C258.57 207.18, 299.28 160.73, 320.88 135.83 M223.52 253.93 C259.51 212.95, 297.6 167.85, 320.62 142.23 M223.52 253.93 C246.3 226.72, 269.23 201.55, 320.62 142.23 M229.16 253.53 C253.38 224.68, 279.19 198.04, 320.36 148.63 M229.16 253.53 C250.58 228.73, 272.23 204.71, 320.36 148.63 M234.15 253.89 C261.66 223, 286.41 191.34, 320.75 154.27 M234.15 253.89 C264.99 218.85, 297.33 181.55, 320.75 154.27 M239.79 253.5 C265.95 220.3, 296.41 189.31, 320.49 160.67 M239.79 253.5 C267.51 219.74, 297.48 186.17, 320.49 160.67 M244.78 253.86 C264.8 232.14, 283.66 211.86, 320.88 166.31 M244.78 253.86 C264 230.97, 284.42 208.29, 320.88 166.31 M250.42 253.47 C268.05 233.61, 287.17 212.26, 320.62 172.71 M250.42 253.47 C273.76 225.96, 297.66 198.92, 320.62 172.71 M255.41 253.83 C278.74 227.7, 299.06 203.56, 320.36 179.11 M255.41 253.83 C270.29 236.26, 286.56 220.13, 320.36 179.11 M261.05 253.43 C282.02 228.96, 306.85 201.66, 320.76 184.75 M261.05 253.43 C281.46 228.9, 303.1 203.6, 320.76 184.75 M266.04 253.79 C282.3 236.96, 295.89 220.67, 320.49 191.15 M266.04 253.79 C278.23 239.82, 290.18 226.79, 320.49 191.15 M271.68 253.4 C284.93 239.02, 297.52 221.77, 320.89 196.79 M271.68 253.4 C287.35 235.86, 303.8 217.36, 320.89 196.79 M276.67 253.76 C287.36 244.06, 295.08 232.22, 320.63 203.19 M276.67 253.76 C286.81 241.8, 297.19 231.36, 320.63 203.19 M281.66 254.12 C294.8 236.03, 309.76 220.44, 320.37 209.59 M281.66 254.12 C297.19 236.34, 312.02 219.92, 320.37 209.59 M287.3 253.72 C294.76 242.18, 308.06 232.29, 320.76 215.23 M287.3 253.72 C299.82 238.78, 313.93 223.59, 320.76 215.23 M290.98 255.59 C298.88 245.69, 307.92 237.03, 320.5 221.63 M290.98 255.59 C297.99 247.35, 303.94 241.15, 320.5 221.63 M297.28 254.44 C303.11 247.21, 312.6 234.82, 319.58 228.78 M297.28 254.44 C303.7 248.57, 308.88 241.39, 319.58 228.78 M304.23 252.54 C307.7 246.71, 311.81 243.42, 318.66 235.94 M304.23 252.54 C307.93 248.66, 313.49 242.71, 318.66 235.94" stroke="#4c6ef5" stroke-width="0.5" fill="none"></path><path d="M32 0 M32 0 C120.65 -1.86, 209.69 -0.8, 288 0 M32 0 C109.68 -1.49, 189.09 -1.28, 288 0 M288 0 C310.82 0.17, 319.73 10.21, 320 32 M288 0 C311.58 1.25, 321.62 8.45, 320 32 M320 32 C321.39 96.91, 321.89 166.31, 320 221 M320 32 C321.88 96.72, 322.15 160.04, 320 221 M320 221 C321.36 243.35, 309.28 253.16, 288 253 M320 221 C318.24 241.21, 310.95 252.05, 288 253 M288 253 C213.98 251.17, 135.96 250.78, 32 253 M288 253 C217.19 252.57, 146.82 251.73, 32 253 M32 253 C10.64 254.19, 0.51 242, 0 221 M32 253 C9.92 252.43, -0.92 241.82, 0 221 M0 221 C-2.51 180.02, -3.28 139.43, 0 32 M0 221 C0.71 169.81, 0.48 117.6, 0 32 M0 32 C-1.61 8.67, 12.63 -0.6, 32 0 M0 32 C1.85 9.4, 12.11 1.88, 32 0" stroke="#000000" stroke-width="1" fill="none"></path></g><g transform="translate(264.56079391245805 126.72748198885961) rotate(0 153.579833984375 50.00000000000006)"><text x="0" y="0" font-family="Virgil, Segoe UI Emoji" font-size="20px" fill="#000000" text-anchor="start" style="white-space: pre;" direction="ltr" dominant-baseline="text-before-edge">Great product, 10/10: positive</text><text x="0" y="25" font-family="Virgil, Segoe UI Emoji" font-size="20px" fill="#000000" text-anchor="start" style="white-space: pre;" direction="ltr" dominant-baseline="text-before-edge">Didn't work very well: negative</text><text x="0" y="50" font-family="Virgil, Segoe UI Emoji" font-size="20px" fill="#000000" text-anchor="start" style="white-space: pre;" direction="ltr" dominant-baseline="text-before-edge">Super helpful, worth it: positive</text><text x="0" y="75" font-family="Virgil, Segoe UI Emoji" font-size="20px" fill="#000000" text-anchor="start" style="white-space: pre;" direction="ltr" dominant-baseline="text-before-edge">It doesnt work!:</text></g></svg>