<?xml version="1.0" encoding="UTF-8"?>
<svg xmlns="http://www.w3.org/2000/svg" xmlns:xlink="http://www.w3.org/1999/xlink" version="1.2" >
<font id="Calcutta Medium Regular">
<font-face  font-family="Calcutta" units-per-em="1024" ascent="819" descent="-205" font-style="normal" font-weight="500" font-stretch="normal" cap-height="679" x-height="505" underline-position="-327" underline-thickness="51" />
<missing-glyph  horiz-adv-x="374" d="M34 0 L306 0 L306 682 L34 682 L34 0 Z M68 34 L68 648 L272 648 L272 34 L68 34 Z " />
<glyph glyph-name="NULL" d="" />
<glyph glyph-name="CR" unicode="&#xd;" horiz-adv-x="256" d="" />
<glyph glyph-name="space" unicode="&#x20;" horiz-adv-x="258" d="" />
<glyph glyph-name="glyph3" d="" />
<glyph glyph-name="uni000D" d="" />
<glyph glyph-name="exclam" unicode="&#x21;" horiz-adv-x="276" d="M88 226 L188 226 L188 711 L88 711 L88 226 Z M65 63 C65 42.3333 71.8333 25.3333 85.5 12 C99.1667 -1.33333 116.333 -8 137 -8 C150.333 -8 162.5 -5 173.5 1 C184.5 7 193.333 15.5 200 26.5 C206.667 37.5 210 49.6667 210 63 C210 83 202.833 100.167 188.5 114.5 C174.167 128.833 157 136 137 136 C116.333 136 99.1667 128.833 85.5 114.5 C71.8333 100.167 65 83 65 63 L65 63 Z " />
<glyph glyph-name="quotedbl" unicode="&#x22;" horiz-adv-x="338" d="M45 460 L135 460 L135 718 L45 718 L45 460 Z M205 460 L295 460 L295 718 L205 718 L205 460 Z " />
<glyph glyph-name="numbersign" unicode="&#x23;" horiz-adv-x="762" d="M450 256 L275 256 L316 450 L491 450 L450 256 Z M710 450 L710 535 L600 535 L637 711 L546 711 L510 535 L335 535 L371 711 L278 711 L241 535 L104 535 L104 450 L224 450 L183 256 L54 256 L54 174 L167 174 L130 0 L220 0 L258 174 L433 174 L396 0 L487 0 L524 174 L660 174 L660 256 L541 256 L582 450 L710 450 Z " />
<glyph glyph-name="dollar" unicode="&#x24;" horiz-adv-x="534" d="M449 683 C419.667 697 384.333 707 343 713 L343 828 L253 828 L253 715 C191.667 709 142.333 688.833 105 654.5 C67.6667 620.167 49 575.333 49 520 C49 493.333 53.5 469.167 62.5 447.5 C71.5 425.833 84.6667 407.333 102 392 C119.333 376.667 136.167 364 152.5 354 C168.833 344 189 333.333 213 322 C215.667 321.333 218.5 320.333 221.5 319 C224.5 317.667 227 316.5 229 315.5 C231 314.5 233.667 313.333 237 312 L280.5 292.5 C290.167 288.167 302 282 316 274 C330 266 340.333 258.333 347 251 C353.667 243.667 359.667 234.667 365 224 C370.333 213.333 373 202 373 190 C373 158 361.667 133.167 339 115.5 C316.333 97.8333 285.667 89 247 89 C173 89 108.667 109.333 54 150 L54 38 C93.3333 14.6667 142.333 0.333328 201 -5 L201 -118 L289 -118 L289 -5 C318.333 -1.66667 345 5 369 15 C393 25 413.667 38.3333 431 55 C448.333 71.6667 461.833 91.8333 471.5 115.5 C481.167 139.167 486 165.333 486 194 C486 216.667 482.333 237.833 475 257.5 C467.667 277.167 459 293.5 449 306.5 C439 319.5 425.167 332.167 407.5 344.5 C389.833 356.833 374.167 366.667 360.5 374 C346.833 381.333 329.333 389.667 308 399 C288 407.667 273.167 414.167 263.5 418.5 C253.833 422.833 241.5 429.5 226.5 438.5 C211.5 447.5 200.5 455.667 193.5 463 C186.5 470.333 180.167 479.333 174.5 490 C168.833 500.667 166 512.333 166 525 C166 543.667 170.833 560 180.5 574 C190.167 588 204.333 599 223 607 C241.667 615 263.667 619 289 619 C317 619 345.5 615 374.5 607 C403.5 599 428.333 588.333 449 575 L449 683 Z " />
<glyph glyph-name="percent" unicode="&#x25;" horiz-adv-x="932" d="M224 -1 L320 -1 L706 714 L608 714 L224 -1 Z M528 169 C528 120.333 545.333 78.8333 580 44.5 C614.667 10.1667 656.667 -7 706 -7 C737.333 -7 766.5 0.833328 793.5 16.5 C820.5 32.1667 842 53.5 858 80.5 C874 107.5 882 137 882 169 C882 217.667 864.667 259.333 830 294 C795.333 328.667 754 346 706 346 C674 346 644.333 338 617 322 C589.667 306 568 284.5 552 257.5 C536 230.5 528 201 528 169 L528 169 Z M50 548 C50 499.333 67.3333 457.667 102 423 C136.667 388.333 178.333 371 227 371 C275.667 371 317.333 388.333 352 423 C386.667 457.667 404 499.333 404 548 C404 596.667 386.667 638.167 352 672.5 C317.333 706.833 275.667 724 227 724 C178.333 724 136.667 706.833 102 672.5 C67.3333 638.167 50 596.667 50 548 L50 548 Z M138 548 C138 564 142 578.833 150 592.5 C158 606.167 168.833 617 182.5 625 C196.167 633 211 637 227 637 C251.667 637 272.667 628.167 290 610.5 C307.333 592.833 316 572 316 548 C316 523.333 307.333 502.167 290 484.5 C272.667 466.833 251.667 458 227 458 C202.333 458 181.333 466.833 164 484.5 C146.667 502.167 138 523.333 138 548 L138 548 Z M616 169 C616 193.667 624.667 214.833 642 232.5 C659.333 250.167 680.667 259 706 259 C730 259 750.667 250.167 768 232.5 C785.333 214.833 794 193.667 794 169 C794 144.333 785.333 123.167 768 105.5 C750.667 87.8333 730 79 706 79 C696 79 686.5 80.5 677.5 83.5 C668.5 86.5 660.333 90.8333 653 96.5 C645.667 102.167 639.167 108.667 633.5 116 C627.833 123.333 623.5 131.5 620.5 140.5 C617.5 149.5 616 159 616 169 L616 169 Z " />
<glyph glyph-name="ampersand" unicode="&#x26;" horiz-adv-x="753" d="M291 306 L484 124 C443.333 96 395 82 339 82 C307 82 278.333 86.3333 253 95 C227.667 103.667 207.667 116.333 193 133 C178.333 149.667 171 169 171 191 C171 216.333 180.5 238 199.5 256 C218.5 274 248.667 291 290 307 L291 306 Z M342 637 C364.667 637 384 632.333 400 623 C416 613.667 427.833 601.667 435.5 587 C443.167 572.333 447 555.667 447 537 C447 511 437.667 487.167 419 465.5 C400.333 443.833 370 422.667 328 402 C298.667 432.667 277.333 458.833 264 480.5 C250.667 502.167 244 523.667 244 545 C244 573.667 253.167 596.167 271.5 612.5 C289.833 628.833 313.333 637 342 637 L342 637 Z M751 0 C743 7.33333 723.5 25.5 692.5 54.5 C661.5 83.5 636.333 107.333 617 126 C649.667 174 667.667 229.667 671 293 L574 293 C572 256.333 562.667 222.667 546 192 L390 342 C448.667 368.667 490.5 398.167 515.5 430.5 C540.5 462.833 553 499.333 553 540 C553 576 544.5 608.333 527.5 637 C510.5 665.667 486 688 454 704 C422 720 385 728 343 728 C281.667 728 232 711.5 194 678.5 C156 645.5 137 601 137 545 C137 513.667 144.667 484.333 160 457 C175.333 429.667 198 400.667 228 370 C190.667 356.667 160 341.333 136 324 C112 306.667 94 286.667 82 264 C70 241.333 64 215.667 64 187 C64 130.333 89.1667 83.6667 139.5 47 C189.833 10.3333 256.667 -8 340 -8 C426 -8 497.333 14 554 58 L616 0 L751 0 Z " />
<glyph glyph-name="quotesingle" unicode="&#x27;" horiz-adv-x="180" d="M45 460 L135 460 L135 718 L45 718 L45 460 Z " />
<glyph glyph-name="parenleft" unicode="&#x28;" horiz-adv-x="334" d="M349 -207 C292.333 -135.667 249.333 -58 220 26 C190.667 110 176 191.333 176 270 C176 351.333 190 433.333 218 516 C246 598.667 287 675.333 341 746 L229 746 C195 702.667 166 656.5 142 607.5 C118 558.5 99.1667 505.5 85.5 448.5 C71.8333 391.5 65 333.667 65 275 C65 95.6667 122 -65 236 -207 L349 -207 Z " />
<glyph glyph-name="parenright" unicode="&#x29;" horiz-adv-x="334" d="M107 746 L-4 746 C49.3333 674.667 90.1667 597.667 118.5 515 C146.833 432.333 161 350.667 161 270 C161 192 146 110.833 116 26.5 C86 -57.8333 43 -135.667 -13 -207 L100 -207 C213.333 -64.3333 270 96.3333 270 275 C270 362.333 255.667 446.333 227 527 C198.333 607.667 158.333 680.667 107 746 L107 746 Z " />
<glyph glyph-name="asterisk" unicode="&#x2a;" horiz-adv-x="460" d="M291 496 C307 496 321.333 498.333 334 503 L431 535 L404 615 L307 584 C289.667 578 275.333 570.333 264 561 C269.333 574.333 272 590.333 272 609 L272 711 L187 711 L187 609 C187 591.667 190.333 575 197 559 C186.333 569 172 577 154 583 L56 615 L31 535 L128 502 C140 497.333 154 495 170 495 L176 495 C161.333 485.667 149.667 474.667 141 462 L80 380 L148 331 L210 412 C220.667 426.667 227.667 440.667 231 454 C235.667 439.333 242.667 425.333 252 412 L312 331 L380 380 L320 464 C310 478 298.667 488.667 286 496 L291 496 Z " />
<glyph glyph-name="plus" unicode="&#x2b;" horiz-adv-x="594" d="M538 405 L343 405 L343 603 L247 603 L247 405 L56 405 L56 311 L247 311 L247 115 L343 115 L343 311 L538 311 L538 405 Z " />
<glyph glyph-name="comma" unicode="&#x2c;" horiz-adv-x="257" d="M-8 -131 L82 -131 L220 116 L93 116 L-8 -131 Z " />
<glyph glyph-name="hyphen" unicode="&#x2d;" horiz-adv-x="368" d="M56 237 L313 237 L313 325 L56 325 L56 237 Z " />
<glyph glyph-name="period" unicode="&#x2e;" horiz-adv-x="202" d="M31 63 C31 49.6667 34.1667 37.5 40.5 26.5 C46.8333 15.5 55.3333 7 66 1 C76.6667 -5 88.6667 -8 102 -8 C122 -8 138.833 -1.16667 152.5 12.5 C166.167 26.1667 173 43 173 63 C173 76.3333 169.833 88.3333 163.5 99 C157.167 109.667 148.5 118.167 137.5 124.5 C126.5 130.833 114.667 134 102 134 C82 134 65.1667 127.167 51.5 113.5 C37.8333 99.8333 31 83 31 63 L31 63 Z " />
<glyph glyph-name="slash" unicode="&#x2f;" horiz-adv-x="443" d="M-7 -107 L99 -107 L482 746 L376 746 L-7 -107 Z " />
<glyph glyph-name="zero" unicode="0" horiz-adv-x="574" d="M43 347 C43 276.333 52.6667 214.333 72 161 C91.3333 107.667 119.333 66.1667 156 36.5 C192.667 6.83333 236 -8 286 -8 C365.333 -8 426 24.1667 468 88.5 C510 152.833 531 239 531 347 C531 455.667 509.333 541.667 466 605 C422.667 668.333 362.667 700 286 700 C211.333 700 152.167 668.333 108.5 605 C64.8333 541.667 43 455.667 43 347 L43 347 Z M148 347 C148 429.667 161.167 493.333 187.5 538 C213.833 582.667 246.667 605 286 605 C327.333 605 360.833 582.833 386.5 538.5 C412.167 494.167 425 430.333 425 347 C425 263.667 412.667 199.667 388 155 C363.333 110.333 329.333 88 286 88 C245.333 88 212.167 110.667 186.5 156 C160.833 201.333 148 265 148 347 L148 347 Z " />
<glyph glyph-name="one" unicode="1" horiz-adv-x="358" d="M16 477 L180 577 L180 0 L282 0 L282 690 L188 690 L16 587 L16 477 Z " />
<glyph glyph-name="two" unicode="2" horiz-adv-x="522" d="M180 90 C366.667 231.333 460 364 460 488 C460 522 454.167 552.5 442.5 579.5 C430.833 606.5 414.833 628.5 394.5 645.5 C374.167 662.5 350.5 675.333 323.5 684 C296.5 692.667 267.667 697 237 697 C205 697 172.667 691.833 140 681.5 C107.333 671.167 79.6667 657.333 57 640 L57 537 C72.3333 549 89.5 559.833 108.5 569.5 C127.5 579.167 146.833 586.667 166.5 592 C186.167 597.333 204.667 600 222 600 C263.333 600 295.5 589.333 318.5 568 C341.5 546.667 353 516 353 476 C353 446 343.833 413.333 325.5 378 C307.167 342.667 282.333 307.833 251 273.5 C219.667 239.167 186.5 206.667 151.5 176 C116.5 145.333 78.6667 115 38 85 L38 0 L480 0 L480 90 L180 90 Z " />
<glyph glyph-name="three" unicode="3" horiz-adv-x="496" d="M60 559 C79.3333 571.667 102.167 582.333 128.5 591 C154.833 599.667 179.667 604 203 604 C240.333 604 269.5 595.5 290.5 578.5 C311.5 561.5 322 536 322 502 C322 468 308.833 441.333 282.5 422 C256.167 402.667 223.667 393 185 393 L143 393 L143 305 L185 305 C237 305 276.167 295.833 302.5 277.5 C328.833 259.167 342 233.333 342 200 C342 167.333 330.167 140.667 306.5 120 C282.833 99.3333 250.333 89 209 89 C146.333 89 89.3333 103 38 131 L38 30 C60.6667 18.6667 88.1667 9.83333 120.5 3.5 C152.833 -2.83333 184 -6 214 -6 C288 -6 345.333 12.3333 386 49 C426.667 85.6667 447 132.667 447 190 C447 217.333 441.833 242 431.5 264 C421.167 286 406.5 304.167 387.5 318.5 C368.5 332.833 345.667 343 319 349 C355.667 363.667 383.5 385.333 402.5 414 C421.5 442.667 431 476 431 514 C431 566.667 411.167 610.333 371.5 645 C331.833 679.667 276.667 697 206 697 C153.333 697 104.667 684.333 60 659 L60 559 Z " />
<glyph glyph-name="four" unicode="4" horiz-adv-x="575" d="M144 251 L352 627 L352 251 L144 251 Z M553 251 L455 251 L455 691 L288 691 L40 251 L40 162 L352 162 L352 0 L455 0 L455 162 L553 162 L553 251 Z " />
<glyph glyph-name="five" unicode="5" horiz-adv-x="534" d="M190 602 L445 602 L445 691 L88 691 L88 300 C141.333 324.667 194 337 246 337 C288 337 321.5 327 346.5 307 C371.5 287 384 258.667 384 222 C384 132.667 328.333 88 217 88 C189 88 160 91.6667 130 99 C100 106.333 75 116.333 55 129 L55 29 C101 5 160.667 -7 234 -7 C314.667 -7 377.667 13.5 423 54.5 C468.333 95.5 491 150.333 491 219 C491 283.667 470.5 334.667 429.5 372 C388.5 409.333 332.667 428 262 428 C240 428 216 425.333 190 420 L190 602 Z " />
<glyph glyph-name="six" unicode="6" horiz-adv-x="557" d="M299 80 C259 80 225.833 97 199.5 131 C173.167 165 158.667 216 156 284 C198 330 246.333 353 301 353 C336.333 353 364.333 341.333 385 318 C405.667 294.667 416 263.333 416 224 C416 180.667 405.5 145.833 384.5 119.5 C363.5 93.1667 335 80 299 80 L299 80 Z M474 692 C442 702.667 408.333 708 373 708 C307.667 708 250.167 690.667 200.5 656 C150.833 621.333 113.167 574.333 87.5 515 C61.8333 455.667 49 388.333 49 313 C49 215 70.3333 136.167 113 76.5 C155.667 16.8333 217.333 -13 298 -13 C343.333 -13 383.167 -2.83333 417.5 17.5 C451.833 37.8333 478 66 496 102 C514 138 523 179 523 225 C523 291 504.833 344 468.5 384 C432.167 424 382.667 444 320 444 C257.333 444 203.667 422 159 378 C168.333 446.667 191.667 503 229 547 C266.333 591 316 613 378 613 C413.333 613 445.333 605.667 474 591 L474 692 Z " />
<glyph glyph-name="seven" unicode="7" horiz-adv-x="484" d="M14 690 L14 600 L359 600 L78 0 L188 0 L470 600 L470 690 L14 690 Z " />
<glyph glyph-name="eight" unicode="8" horiz-adv-x="566" d="M281 79 C239.667 79 208.167 89 186.5 109 C164.833 129 154 153.333 154 182 C154 214 164.667 241.333 186 264 C207.333 286.667 239 298.333 281 299 C325 299 358.167 288.333 380.5 267 C402.833 245.667 414 219.333 414 188 C414 158 402.667 132.333 380 111 C357.333 89.6667 324.333 79 281 79 L281 79 Z M280 611 C300.667 611 318.833 608 334.5 602 C350.167 596 362.5 587.833 371.5 577.5 C380.5 567.167 387.333 555.833 392 543.5 C396.667 531.167 399 517.667 399 503 C399 467.667 388.167 440.333 366.5 421 C344.833 401.667 317.333 392 284 392 C249.333 392 221 401.167 199 419.5 C177 437.833 166 465.333 166 502 C166 532 176 557.667 196 579 C216 600.333 244 611 280 611 L280 611 Z M401 347 C469.667 379.667 504 430.667 504 500 C504 543.333 493.333 580.5 472 611.5 C450.667 642.5 423.5 664.833 390.5 678.5 C357.5 692.167 320.667 699 280 699 C218.667 699 166.667 681.5 124 646.5 C81.3333 611.5 60 563 60 501 C60 465 69.3333 433.833 88 407.5 C106.667 381.167 132.667 360.667 166 346 C129.333 331.333 100.5 310 79.5 282 C58.5 254 48 219.333 48 178 C48 140 58.1667 106.667 78.5 78 C98.8333 49.3333 126.5 27.6667 161.5 13 C196.5 -1.66667 236 -9 280 -9 C349.333 -9 406.5 8.5 451.5 43.5 C496.5 78.5 519 125 519 183 C519 265 479.667 319.667 401 347 L401 347 Z " />
<glyph glyph-name="nine" unicode="9" horiz-adv-x="539" d="M266 334 C227.333 334 196.667 346 174 370 C151.333 394 140 427.333 140 470 C140 511.333 150.833 544.167 172.5 568.5 C194.167 592.833 223.667 605 261 605 C290.333 605 315.167 595.833 335.5 577.5 C355.833 559.167 370.667 534.667 380 504 C389.333 473.333 394.667 437.333 396 396 C362.667 354.667 319.333 334 266 334 L266 334 Z M69 11 C105 -1.66667 145.333 -8 190 -8 C289.333 -8 365.333 26.3333 418 95 C470.667 163.667 497 260.667 497 386 C497 446 488.667 499 472 545 C455.333 591 428.5 628 391.5 656 C354.5 684 309.333 698 256 698 C187.333 698 133 676.167 93 632.5 C53 588.833 33 534 33 468 C33 400.667 53 346.667 93 306 C133 265.333 182 245 240 245 C307.333 245 357.667 264.333 391 303 C373 159.667 303.333 88 182 88 C144.667 88 107 96 69 112 L69 11 Z " />
<glyph glyph-name="colon" unicode="&#x3a;" horiz-adv-x="263" d="M61 412 C61 398.667 64 386.667 70 376 C76 365.333 84.5 357 95.5 351 C106.5 345 118.667 342 132 342 C151.333 342 168 348.667 182 362 C196 375.333 203 392 203 412 C203 424.667 199.833 436.5 193.5 447.5 C187.167 458.5 178.5 467.167 167.5 473.5 C156.5 479.833 144.667 483 132 483 C112 483 95.1667 476.167 81.5 462.5 C67.8333 448.833 61 432 61 412 L61 412 Z M61 70 C61 50 67.8333 33.1667 81.5 19.5 C95.1667 5.83333 112 -1 132 -1 C151.333 -1 168 5.83333 182 19.5 C196 33.1667 203 50 203 70 C203 82.6667 199.833 94.5 193.5 105.5 C187.167 116.5 178.5 125 167.5 131 C156.5 137 144.667 140 132 140 C112 140 95.1667 133.167 81.5 119.5 C67.8333 105.833 61 89.3333 61 70 L61 70 Z " />
<glyph glyph-name="semicolon" unicode="&#x3b;" horiz-adv-x="257" d="M75 411 C75 391.667 81.6667 375.333 95 362 C108.333 348.667 124.667 342 144 342 C157.333 342 169.5 345 180.5 351 C191.5 357 200.167 365.333 206.5 376 C212.833 386.667 216 398.333 216 411 C216 431 209 448 195 462 C181 476 164 483 144 483 C124.667 483 108.333 476 95 462 C81.6667 448 75 431 75 411 L75 411 Z M-8 -131 L82 -131 L220 116 L93 116 L-8 -131 Z " />
<glyph glyph-name="less" unicode="&#x3c;" horiz-adv-x="574" d="M56 309 L524 114 L524 219 L493 231 L413 261 C381 273 348.333 285.333 315 298 C281.667 310.667 250.667 322.833 222 334.5 C193.333 346.167 174 354.333 164 359 C180 367 220.833 383.667 286.5 409 C352.167 434.333 402.5 453.5 437.5 466.5 C472.5 479.5 501.333 490.333 524 499 L524 605 L56 409 L56 309 Z " />
<glyph glyph-name="equal" unicode="&#x3d;" horiz-adv-x="594" d="M56 425 L538 425 L538 514 L56 514 L56 425 Z M56 204 L538 204 L538 294 L56 294 L56 204 Z " />
<glyph glyph-name="greater" unicode="&#x3e;" horiz-adv-x="574" d="M518 409 L50 605 L50 499 L128 470 C180 450.667 236 429.333 296 406 C356 382.667 394.333 367 411 359 C373 341 252.667 294.333 50 219 L50 114 L518 309 L518 409 Z " />
<glyph glyph-name="question" unicode="&#x3f;" horiz-adv-x="477" d="M54 578 C105.333 611.333 157.333 628 210 628 C230.667 628 249.167 625.333 265.5 620 C281.833 614.667 295 607 305 597 C315 587 322.5 575.5 327.5 562.5 C332.5 549.5 335 535 335 519 C335 437 271 396 143 396 L144 226 L243 226 L244 333 C266.667 334.333 289 339.167 311 347.5 C333 355.833 354 367.333 374 382 C394 396.667 410.167 416.5 422.5 441.5 C434.833 466.5 441 494.667 441 526 C441 566.667 431.667 601.5 413 630.5 C394.333 659.5 368.333 681.5 335 696.5 C301.667 711.5 263 719 219 719 C153.667 719 98.6667 706 54 680 L54 578 Z M121 63 C121 42.3333 127.667 25.3333 141 12 C154.333 -1.33333 171.333 -8 192 -8 C212.667 -8 230 -1.33333 244 12 C258 25.3333 265 42.3333 265 63 C265 83 257.833 100.167 243.5 114.5 C229.167 128.833 212 136 192 136 C172 136 155.167 128.833 141.5 114.5 C127.833 100.167 121 83 121 63 L121 63 Z " />
<glyph glyph-name="at" unicode="&#x40;" horiz-adv-x="976" d="M467 94 C448.333 94 431.333 98.6667 416 108 C400.667 117.333 388.667 131 380 149 C371.333 167 367 187.667 367 211 C367 255.667 378.5 292.667 401.5 322 C424.5 351.333 453.333 366 488 366 C549.333 366 585.333 330 596 258 C596 250.667 595.5 241 594.5 229 C593.5 217 592.667 208.667 592 204 C582 169.333 565.333 142.333 542 123 C518.667 103.667 493.667 94 467 94 L467 94 Z M649 -58 C591.667 -88.6667 526.667 -104 454 -104 C422 -104 391.333 -99.8333 362 -91.5 C332.667 -83.1667 305.167 -70.5 279.5 -53.5 C253.833 -36.5 231.667 -16 213 8 C194.333 32 179.5 61.1667 168.5 95.5 C157.5 129.833 152 167 152 207 C152 275 168.5 337.5 201.5 394.5 C234.5 451.5 279.5 496.333 336.5 529 C393.5 561.667 455.667 578 523 578 C583 578 636.667 567.167 684 545.5 C731.333 523.833 769.5 489.667 798.5 443 C827.5 396.333 842 340.333 842 275 C842 222.333 832.333 179.667 813 147 C793.667 114.333 769.667 98 741 98 C717.667 98 700.833 106.833 690.5 124.5 C680.167 142.167 675 169.667 675 207 C675 219 677.667 261.333 683 334 L693 442 L609 442 C608.333 433.333 607.5 421.667 606.5 407 C605.5 392.333 605 382 605 376 C577.667 422.667 535.667 446 479 446 C420.333 446 371 424.333 331 381 C291 337.667 271 282.667 271 216 C271 158.667 286.667 110.5 318 71.5 C349.333 32.5 391.333 13 444 13 C478 13 508.667 22 536 40 C563.333 58 585.333 82.6667 602 114 C607.333 96 614.833 80.1667 624.5 66.5 C634.167 52.8333 648.667 40.8333 668 30.5 C687.333 20.1667 710 15 736 15 C788 15 833.5 39.1667 872.5 87.5 C911.5 135.833 931 200.333 931 281 C931 339 920.167 392.333 898.5 441 C876.833 489.667 847.5 530.167 810.5 562.5 C773.5 594.833 730.5 619.833 681.5 637.5 C632.5 655.167 580.667 664 526 664 C462.667 664 402.333 652.5 345 629.5 C287.667 606.5 237.833 575 195.5 535 C153.167 495 119.5 446.5 94.5 389.5 C69.5 332.5 57 272 57 208 C57 152 65.8333 99.8333 83.5 51.5 C101.167 3.16667 126.667 -39 160 -75 C193.333 -111 235.167 -139.5 285.5 -160.5 C335.833 -181.5 391.667 -192 453 -192 C530.333 -192 594.333 -179.333 645 -154 L649 -58 Z " />
<glyph glyph-name="A" unicode="A" horiz-adv-x="695" d="M234 265 L246 301 C307.333 486.333 341.667 595.333 349 628 L351 622 C351.667 617.333 354.167 607.667 358.5 593 C362.833 578.333 368.333 559.833 375 537.5 C381.667 515.167 391.667 483.167 405 441.5 C418.333 399.833 433.333 353 450 301 L462 265 L234 265 Z M547 0 L663 0 L421 711 L278 711 L33 0 L147 0 L205 174 L491 174 L547 0 Z " />
<glyph glyph-name="B" unicode="B" horiz-adv-x="611" d="M185 90 L185 314 L314 314 C361.333 314 397.167 304.167 421.5 284.5 C445.833 264.833 458 237 458 201 C458 164.333 446.667 136.667 424 118 C401.333 99.3333 368 90 324 90 L185 90 Z M185 621 L302 621 C348 621 382.5 611.5 405.5 592.5 C428.5 573.5 440 549 440 519 C440 497 434.833 477.667 424.5 461 C414.167 444.333 397 430.5 373 419.5 C349 408.5 319 403 283 403 L185 403 L185 621 Z M77 711 L77 0 L350 0 C419.333 0 473.333 17.6667 512 53 C550.667 88.3333 570 134.333 570 191 C570 239.667 556.833 278.333 530.5 307 C504.167 335.667 471.667 353.333 433 360 C467.667 368.667 496 387.667 518 417 C540 446.333 551 481 551 521 C551 578.333 529.5 624.333 486.5 659 C443.5 693.667 384.667 711 310 711 L77 711 Z " />
<glyph glyph-name="C" unicode="C" horiz-adv-x="637" d="M590 682 C546 707.333 485.333 720 408 720 C303.333 720 217.167 686.333 149.5 619 C81.8333 551.667 48 464 48 356 C48 245.333 81.6667 157 149 91 C216.333 25 303.333 -8 410 -8 C487.333 -8 547.667 6.33333 591 35 L591 144 C569.667 128 543.833 115.333 513.5 106 C483.167 96.6667 452 92 420 92 C343.333 92 281.333 115.833 234 163.5 C186.667 211.167 163 275.333 163 356 C163 409.333 174 456.167 196 496.5 C218 536.833 247.833 567.5 285.5 588.5 C323.167 609.5 365 620 411 620 C449.667 620 481.667 616.667 507 610 C532.333 603.333 560 591.667 590 575 L590 682 Z " />
<glyph glyph-name="D" unicode="D" horiz-adv-x="703" d="M187 92 L187 618 L297 618 C373 618 433.667 593.667 479 545 C524.333 496.333 547 435.667 547 363 C547 311.667 538.5 266 521.5 226 C504.5 186 477 153.667 439 129 C401 104.333 354.667 92 300 92 L187 92 Z M77 711 L77 0 L301 0 C375.667 0 440.333 16 495 48 C549.667 80 590.667 123.167 618 177.5 C645.333 231.833 659 293.667 659 363 C659 464.333 625.333 547.667 558 613 C490.667 678.333 404.333 711 299 711 L77 711 Z " />
<glyph glyph-name="E" unicode="E" horiz-adv-x="541" d="M185 91 L185 310 L448 310 L448 401 L185 401 L185 620 L482 620 L482 711 L77 711 L77 0 L487 0 L487 91 L185 91 Z " />
<glyph glyph-name="F" unicode="F" horiz-adv-x="520" d="M480 620 L480 711 L77 711 L77 0 L185 0 L185 297 L444 297 L444 387 L185 387 L185 620 L480 620 Z " />
<glyph glyph-name="G" unicode="G" horiz-adv-x="717" d="M649 406 L398 406 L398 312 L542 312 L542 116 C502 100.667 462 93 422 93 C341.333 93 278 116.333 232 163 C186 209.667 163 274 163 356 C163 436 186.333 500.167 233 548.5 C279.667 596.833 340.667 621 416 621 C491.333 621 559 602 619 564 L619 676 C563.667 707.333 494.667 723 412 723 C306.667 723 219.667 689 151 621 C82.3333 553 48 464.667 48 356 C48 243.333 82.1667 154.5 150.5 89.5 C218.833 24.5 308.333 -8 419 -8 C465.667 -8 509 -1.83333 549 10.5 C589 22.8333 622.333 38.6667 649 58 L648 65 L649 65 L649 406 Z " />
<glyph glyph-name="H" unicode="H" horiz-adv-x="691" d="M505 711 L505 405 L185 405 L185 711 L77 711 L77 0 L185 0 L185 311 L505 311 L505 0 L614 0 L614 711 L505 711 Z " />
<glyph glyph-name="I" unicode="I" horiz-adv-x="278" d="M85 0 L193 0 L193 711 L85 711 L85 0 Z " />
<glyph glyph-name="J" unicode="J" horiz-adv-x="387" d="M32 23 C60 7.66667 94.6667 0 136 0 C190 0 233 15.6667 265 47 C297 78.3333 313 126.667 313 192 L313 711 L205 711 L205 187 C205 126.333 176 96 118 96 C91.3333 96 62.6667 105 32 123 L32 23 Z " />
<glyph glyph-name="K" unicode="K" horiz-adv-x="631" d="M77 0 L185 0 L185 711 L77 711 L77 0 Z M329 352 L589 711 L457 711 L200 351 L469 0 L606 0 L329 352 Z " />
<glyph glyph-name="L" unicode="L" horiz-adv-x="505" d="M185 96 L185 711 L77 711 L77 0 L477 0 L477 96 L185 96 Z " />
<glyph glyph-name="M" unicode="M" horiz-adv-x="914" d="M68 0 L175 0 L196 278 C207.333 444 213 537.667 213 559 L309 278 L405 13 L490 13 L589 278 C626.333 378 661 473 693 563 L715 278 L741 0 L848 0 L783 711 L654 711 L555 451 C517 348.333 481.333 249.333 448 154 L435 195 C426.333 222.333 413.5 260.833 396.5 310.5 C379.5 360.167 362.667 407 346 451 L251 711 L123 711 L68 0 Z " />
<glyph glyph-name="N" unicode="N" horiz-adv-x="716" d="M77 0 L185 0 L185 298 C185 416.667 182.333 511 177 581 L193 550 C203.667 529.333 222.167 495.333 248.5 448 C274.833 400.667 304 350.333 336 297 L512 0 L641 0 L641 711 L531 711 L531 412 C531 288.667 533.333 195 538 131 L523 160 C513 179.333 495 212.5 469 259.5 C443 306.5 413.667 357.667 381 413 L206 711 L77 711 L77 0 Z " />
<glyph glyph-name="O" unicode="O" horiz-adv-x="749" d="M48 358 C48 247.333 77.8333 158.667 137.5 92 C197.167 25.3333 276.667 -8 376 -8 C476 -8 555.167 25.1667 613.5 91.5 C671.833 157.833 701 246.667 701 358 C701 469.333 672 558.167 614 624.5 C556 690.833 476.333 724 375 724 C275.667 724 196.333 690.667 137 624 C77.6667 557.333 48 468.667 48 358 L48 358 Z M163 358.5 C163 440.167 181.833 504.667 219.5 552 C257.167 599.333 309 623 375 623 C419.667 623 458 612.333 490 591 C522 569.667 546.167 539.167 562.5 499.5 C578.833 459.833 587 412.667 587 358 C587 303.333 578.833 256.167 562.5 216.5 C546.167 176.833 522 146.333 490 125 C458 103.667 420 93 376 93 C311.333 93 259.667 116.833 221 164.5 C182.333 212.167 163 276.833 163 358.5 L163 358.5 Z " />
<glyph glyph-name="P" unicode="P" horiz-adv-x="579" d="M185 342 L185 621 L276 621 C310.667 621 340.167 615.167 364.5 603.5 C388.833 591.833 407 575.5 419 554.5 C431 533.5 437 508.667 437 480 C437 438.667 423.333 405.333 396 380 C368.667 354.667 329.333 342 278 342 L185 342 Z M77 711 L77 0 L185 0 L185 252 L287 252 C363.667 252 426 273 474 315 C522 357 546 412 546 480 C546 524.667 535.5 564.333 514.5 599 C493.5 633.667 462.667 661 422 681 C381.333 701 334 711 280 711 L77 711 Z " />
<glyph glyph-name="Q" unicode="Q" horiz-adv-x="758" d="M163 358.5 C163 440.167 181.833 504.667 219.5 552 C257.167 599.333 309 623 375 623 C419.667 623 458 612.333 490 591 C522 569.667 546.167 539.167 562.5 499.5 C578.833 459.833 587 412.667 587 358 C587 303.333 578.833 256.167 562.5 216.5 C546.167 176.833 522 146.333 490 125 C458 103.667 420 93 376 93 C311.333 93 259.667 116.833 221 164.5 C182.333 212.167 163 276.833 163 358.5 L163 358.5 Z M737 -104 L524 24 C561.333 42 593.333 67 620 99 C646.667 131 666.833 169 680.5 213 C694.167 257 701 305.333 701 358 C701 469.333 672 558.167 614 624.5 C556 690.833 476.333 724 375 724 C275.667 724 196.333 690.667 137 624 C77.6667 557.333 48 468.667 48 358 C48 247.333 77.8333 158.667 137.5 92 C197.167 25.3333 276.667 -8 376 -8 C390.667 -8 401.667 -7.66667 409 -7 L617 -151 L737 -104 Z " />
<glyph glyph-name="R" unicode="R" horiz-adv-x="598" d="M185 620 L278 620 C324.667 620 360.167 609 384.5 587 C408.833 565 421 532.667 421 490 C421 475.333 419.333 461.333 416 448 C412.667 434.667 407.333 422.667 400 412 C392.667 401.333 383.5 392.167 372.5 384.5 C361.5 376.833 348.5 370.833 333.5 366.5 C318.5 362.167 301.667 360 283 360 L185 360 L185 620 Z M446 0 L576 0 L390 287 C433.333 303 467.333 328.333 492 363 C516.667 397.667 529.333 439.667 530 489 C530 557.667 507.833 611.833 463.5 651.5 C419.167 691.167 356.333 711 275 711 L77 711 L77 0 L185 0 L185 270 L279 270 L446 0 Z " />
<glyph glyph-name="S" unicode="S" horiz-adv-x="548" d="M460 683 C417.333 705 363.333 716 298 716 C252 716 211.333 708.333 176 693 C140.667 677.667 112.667 655.167 92 625.5 C71.3333 595.833 61 560.667 61 520 C61 502.667 63.1667 486.333 67.5 471 C71.8333 455.667 76.8333 442.5 82.5 431.5 C88.1667 420.5 97 409.333 109 398 C121 386.667 130.833 377.833 138.5 371.5 C146.167 365.167 158.667 357.333 176 348 C193.333 338.667 205.5 332.333 212.5 329 C219.5 325.667 232.333 319.667 251 311 C274.333 301 292.167 292.667 304.5 286 C316.833 279.333 330.167 271 344.5 261 C358.833 251 369 240.167 375 228.5 C381 216.833 384 204 384 190 C384 158 372.667 133.167 350 115.5 C327.333 97.8333 297 89 259 89 C184.333 89 119.667 109.333 65 150 L65 38 C115 8 180 -7 260 -7 C330 -7 387 10.6667 431 46 C475 81.3333 497 130.667 497 194 C497 211.333 495 227.5 491 242.5 C487 257.5 482 270.833 476 282.5 C470 294.167 461.667 305.333 451 316 C440.333 326.667 430.5 335.667 421.5 343 C412.5 350.333 400.5 358 385.5 366 C370.5 374 358.167 380.333 348.5 385 C338.833 389.667 325.667 395.667 309 403 C286.333 413 268.833 421.167 256.5 427.5 C244.167 433.833 230.833 442 216.5 452 C202.167 462 191.833 473 185.5 485 C179.167 497 176 510.333 176 525 C176 553.667 187.167 576.5 209.5 593.5 C231.833 610.5 262.333 619 301 619 C328.333 619 356.5 615 385.5 607 C414.5 599 439.333 588.333 460 575 L460 683 Z " />
<glyph glyph-name="T" unicode="T" horiz-adv-x="527" d="M504 711 L24 711 L24 620 L209 620 L209 0 L317 0 L317 620 L504 620 L504 711 Z " />
<glyph glyph-name="U" unicode="U" horiz-adv-x="687" d="M504 270 C504 150.667 450.333 91 343 91 C295 91 256.333 104.833 227 132.5 C197.667 160.167 183 204.333 183 265 L183 711 L75 711 L75 264 C75 175.333 98.8333 107.667 146.5 61 C194.167 14.3333 259.667 -9 343 -9 C427 -9 493 14.8333 541 62.5 C589 110.167 613 180 613 272 L613 711 L504 711 L504 270 Z " />
<glyph glyph-name="V" unicode="V" horiz-adv-x="677" d="M647 711 L530 711 L439 428 C393.667 292 360 181.667 338 97 L328 134 C320.667 159.333 308.833 199.5 292.5 254.5 C276.167 309.5 258.333 367.333 239 428 L148 711 L33 711 L272 0 L401 0 L647 711 Z " />
<glyph glyph-name="W" unicode="W" horiz-adv-x="998" d="M455 700 L383 448 C353 344 322 233 290 115 L286 137 C282.667 151 278.167 170.167 272.5 194.5 C266.833 218.833 260.833 244.833 254.5 272.5 C248.167 300.167 241.167 330.167 233.5 362.5 C225.833 394.833 218.667 423.333 212 448 L145 711 L33 711 L219 0 L350 0 L415 225 C457.667 369 487.333 474.667 504 542 L596 225 L663 0 L793 0 L967 711 L858 711 L795 447 C772.333 352.333 748 241 722 113 L626 447 L552 700 L455 700 Z " />
<glyph glyph-name="X" unicode="X" horiz-adv-x="662" d="M265 359 L37 0 L167 0 C172.333 10.6667 198.833 54.8333 246.5 132.5 C294.167 210.167 321.333 255 328 267 L496 0 L624 0 L389 358 L605 711 L475 711 C471 704.333 461.5 688.167 446.5 662.5 C431.5 636.833 415.833 610.333 399.5 583 C383.167 555.667 367.667 529.333 353 504 C338.333 478.667 329 462.333 325 455 L175 711 L49 711 L265 359 Z " />
<glyph glyph-name="Y" unicode="Y" horiz-adv-x="640" d="M617 711 L492 711 L441 607 C365.667 459.667 324.667 375 318 353 L313 367 C309 377 297.167 403 277.5 445 C257.833 487 232 541 200 607 L148 711 L25 711 L265 265 L265 0 L373 0 L373 265 L617 711 Z " />
<glyph glyph-name="Z" unicode="Z" horiz-adv-x="615" d="M544 711 L62 711 L62 621 L415 621 L57 85 L57 0 L559 0 L559 90 L184 90 L544 627 L544 711 Z " />
<glyph glyph-name="bracketleft" unicode="&#x5b;" horiz-adv-x="341" d="M337 654 L337 746 L77 746 L77 -196 L337 -196 L337 -104 L178 -104 L178 654 L337 654 Z " />
<glyph glyph-name="backslash" unicode="&#x5c;" horiz-adv-x="442" d="M69 746 L-39 746 L345 -108 L451 -108 L69 746 Z " />
<glyph glyph-name="bracketright" unicode="&#x5d;" horiz-adv-x="341" d="M266 746 L7 746 L7 654 L166 654 L166 -104 L7 -104 L7 -196 L266 -196 L266 746 Z " />
<glyph glyph-name="asciicircum" unicode="&#x5e;" horiz-adv-x="495" d="M451 350 L302 626 L196 626 L43 350 L144 350 L249 551 L351 350 L451 350 Z " />
<glyph glyph-name="underscore" unicode="&#x5f;" horiz-adv-x="587" d="M28 -126 L560 -126 L560 -37 L28 -37 L28 -126 Z " />
<glyph glyph-name="grave" unicode="&#x60;" horiz-adv-x="467" d="M243 842 L128 842 L254 671 L343 671 L243 842 Z " />
<glyph glyph-name="a" unicode="a" horiz-adv-x="525" d="M354 238 L354 178 C354 148 344.5 123.667 325.5 105 C306.5 86.3333 280 77 246 77 C216.667 77 194.333 84.1667 179 98.5 C163.667 112.833 156 132.333 156 157 C156 180.333 165.833 199.667 185.5 215 C205.167 230.333 234.667 238 274 238 L354 238 Z M85 407 C131 438.333 182.667 454 240 454 C281.333 454 310.667 444.667 328 426 C345.333 407.333 354 380 354 344 L354 313 L266 313 C196.667 313 142.5 298.667 103.5 270 C64.5 241.333 45 201.333 45 150 C45 105.333 60.3333 68.5 91 39.5 C121.667 10.5 162.333 -4 213 -4 C251 -4 281.833 2.5 305.5 15.5 C329.167 28.5 346.333 44.3333 357 63 L357 0 L459 0 L459 340 C459 407.333 442.167 458 408.5 492 C374.833 526 322 543 250 543 C229.333 543 208.333 541.333 187 538 C165.667 534.667 146.333 530.5 129 525.5 C111.667 520.5 97 514.667 85 508 L85 407 Z " />
<glyph glyph-name="b" unicode="b" horiz-adv-x="612" d="M324 83 C283.333 83 249 98.5 221 129.5 C193 160.5 179 207.667 179 271 C179 303 183.5 331.167 192.5 355.5 C201.5 379.833 213.333 398.667 228 412 C242.667 425.333 257.833 435.167 273.5 441.5 C289.167 447.833 305 451 321 451 C348.333 451 372.5 444.333 393.5 431 C414.5 417.667 431.667 396.5 445 367.5 C458.333 338.5 465 303.667 465 263 C465 236.333 461.333 211.833 454 189.5 C446.667 167.167 436.667 148.333 424 133 C411.333 117.667 396.5 105.5 379.5 96.5 C362.5 87.5 344 83 324 83 L324 83 Z M179 746 L75 746 L75 0 L179 0 L179 81 C217 22.3333 271.333 -7 342 -7 C389.333 -7 430.667 5.83333 466 31.5 C501.333 57.1667 527.667 90.3333 545 131 C562.333 171.667 571 216.333 571 265 C571 306.333 565.167 344.5 553.5 379.5 C541.833 414.5 525.833 443.833 505.5 467.5 C485.167 491.167 460.833 509.5 432.5 522.5 C404.167 535.5 373.667 542 341 542 C271.667 542 217.667 512.333 179 453 L179 746 Z " />
<glyph glyph-name="c" unicode="c" horiz-adv-x="496" d="M149 265 C149 291.667 153.333 316.5 162 339.5 C170.667 362.5 182.833 382.333 198.5 399 C214.167 415.667 233.667 428.667 257 438 C280.333 447.333 306 452 334 452 C378.667 452 417.333 441.333 450 420 L450 515 C413.333 534.333 370.667 544 322 544 C264.667 544 214.333 530.833 171 504.5 C127.667 478.167 95.5 444.167 74.5 402.5 C53.5 360.833 43 315.333 43 266 C43 187.333 68 121.667 118 69 C168 16.3333 234.667 -10 318 -10 C371.333 -10 415.333 0.333328 450 21 L450 114 C412 90.6667 373 79 333 79 C275.667 79 231 96.5 199 131.5 C167 166.5 150.333 211 149 265 L149 265 Z " />
<glyph glyph-name="d" unicode="d" horiz-adv-x="610" d="M289 83 C249 83 215.667 99.6667 189 133 C162.333 166.333 149 209.667 149 263 C149 323.667 162.5 370.167 189.5 402.5 C216.5 434.833 251 451 293 451 C309 451 324.833 447.833 340.5 441.5 C356.167 435.167 371.333 425.333 386 412 C400.667 398.667 412.5 379.833 421.5 355.5 C430.5 331.167 435 303 435 271 C435 238.333 431 209.5 423 184.5 C415 159.5 404 139.833 390 125.5 C376 111.167 360.5 100.5 343.5 93.5 C326.5 86.5 308.333 83 289 83 L289 83 Z M435 746 L435 453 C396.333 512.333 342.333 542 273 542 C205.667 542 150.5 516.667 107.5 466 C64.5 415.333 43 348.333 43 265 C43 216.333 51.5 171.667 68.5 131 C85.5 90.3333 111.667 57.1667 147 31.5 C182.333 5.83333 223.667 -7 271 -7 C342.333 -7 397 22.3333 435 81 L435 0 L539 0 L539 746 L435 746 Z " />
<glyph glyph-name="e" unicode="e" horiz-adv-x="553" d="M405 306 L146 306 C152 354 167.667 390.833 193 416.5 C218.333 442.167 248.667 455 284 455 C322 455 351.333 443.333 372 420 C392.667 396.667 403.667 364.667 405 324 L405 306 Z M472 122 C434.667 94.6667 387 81 329 81 C279.667 81 238.833 93.3333 206.5 118 C174.167 142.667 154.333 178.333 147 225 L499 225 C503 248.333 505 271.333 505 294 C505 374 485 435.167 445 477.5 C405 519.833 350.667 541 282 541 C212.667 541 155.5 516.5 110.5 467.5 C65.5 418.5 43 351.333 43 266 C43 212.667 54 165.667 76 125 C98 84.3333 129.667 52.5 171 29.5 C212.333 6.5 260.333 -5 315 -5 C341.667 -5 369.833 -2 399.5 4 C429.167 10 453.333 18.3333 472 29 L472 122 Z " />
<glyph glyph-name="f" unicode="f" horiz-adv-x="352" d="M348 747 C328 752.333 308 755 288 755 C234.667 755 192.833 739.167 162.5 707.5 C132.167 675.833 117 632 117 576 L117 535 L32 535 L32 454 L117 454 L117 0 L220 0 L220 454 L334 454 L334 535 L220 535 L220 575 C220 607 227.167 630.167 241.5 644.5 C255.833 658.833 274.667 666 298 666 C316 666 332.667 662.667 348 656 L348 747 Z " />
<glyph glyph-name="g" unicode="g" horiz-adv-x="589" d="M283 103 C247.667 103 217.333 117.5 192 146.5 C166.667 175.5 154 217.667 154 273 C154 326.333 166 369.333 190 402 C214 434.667 246.667 451 288 451 C324.667 451 355.833 435.833 381.5 405.5 C407.167 375.167 420 328.667 420 266 C420 214.667 406.5 174.667 379.5 146 C352.5 117.333 320.333 103 283 103 L283 103 Z M420 535 L420 451 C387.333 511.667 335.667 542 265 542 C199 542 145.833 516.5 105.5 465.5 C65.1667 414.5 45 349.667 45 271 C45 237.667 49 206.833 57 178.5 C65 150.167 76 126 90 106 C104 86 120.333 69 139 55 C157.667 41 177.667 30.6667 199 24 C220.333 17.3333 242.333 14 265 14 C333.667 14 385.333 43 420 101 L420 46 C420 -56.6667 367.667 -108 263 -108 C198.333 -108 143.667 -93.3333 99 -64 L99 -169 C145.667 -192.333 203.667 -204 273 -204 C307.667 -204 339.833 -199 369.5 -189 C399.167 -179 425.667 -164.167 449 -144.5 C472.333 -124.833 490.5 -98.8333 503.5 -66.5 C516.5 -34.1667 523 3 523 45 L523 535 L420 535 Z " />
<glyph glyph-name="h" unicode="h" horiz-adv-x="580" d="M176 746 L73 746 L73 0 L176 0 L176 290 C176 313.333 178.833 334.333 184.5 353 C190.167 371.667 197.333 387 206 399 C214.667 411 225 421.167 237 429.5 C249 437.833 261 443.667 273 447 C285 450.333 297.333 452 310 452 C340 452 364.333 442.167 383 422.5 C401.667 402.833 411 374.667 411 338 L411 0 L515 0 L515 358 C515 416 499.167 461.167 467.5 493.5 C435.833 525.833 394 542 342 542 C262 542 206.667 509 176 443 L176 746 Z " />
<glyph glyph-name="i" unicode="i" horiz-adv-x="257" d="M77 0 L181 0 L181 535 L77 535 L77 0 Z M64 698 C64 680 70.3333 664.667 83 652 C95.6667 639.333 111 633 129 633 C147 633 162.333 639.333 175 652 C187.667 664.667 194 680 194 698 C194 710.667 191 721.833 185 731.5 C179 741.167 171.167 748.833 161.5 754.5 C151.833 760.167 141 763 129 763 C111 763 95.6667 756.833 83 744.5 C70.3333 732.167 64 716.667 64 698 L64 698 Z " />
<glyph glyph-name="j" unicode="j" horiz-adv-x="254" d="M-46 -191 C-15.3333 -201.667 10.3333 -207 31 -207 C79 -207 116.167 -192.833 142.5 -164.5 C168.833 -136.167 182 -97 182 -47 L182 535 L79 535 L79 -45 C79 -95.6667 59.6667 -121 21 -121 C0.333328 -121 -22 -115 -46 -103 L-46 -191 Z M65 698 C65 686.667 67.8333 676 73.5 666 C79.1667 656 87 648 97 642 C107 636 118 633 130 633 C148 633 163.333 639.333 176 652 C188.667 664.667 195 680 195 698 C195 710.667 192 721.833 186 731.5 C180 741.167 172.167 748.833 162.5 754.5 C152.833 760.167 142 763 130 763 C112 763 96.6667 756.833 84 744.5 C71.3333 732.167 65 716.667 65 698 L65 698 Z " />
<glyph glyph-name="k" unicode="k" horiz-adv-x="527" d="M73 0 L176 0 L176 739 L73 739 L73 0 Z M300 279 L503 535 L382 535 L180 279 L386 0 L510 0 L300 279 Z " />
<glyph glyph-name="l" unicode="l" horiz-adv-x="257" d="M77 0 L181 0 L181 746 L77 746 L77 0 Z " />
<glyph glyph-name="m" unicode="m" horiz-adv-x="874" d="M176 535 L73 535 L73 0 L176 0 L176 290 C176 318 179.667 342.833 187 364.5 C194.333 386.167 204 403.167 216 415.5 C228 427.833 240.833 437 254.5 443 C268.167 449 282 452 296 452 C358 452 389 414 389 338 L389 0 L492 0 L492 290 C492 344 504.167 384.5 528.5 411.5 C552.833 438.5 580.667 452 612 452 C642.667 452 665.833 442.167 681.5 422.5 C697.167 402.833 705 374.667 705 338 L705 0 L808 0 L808 359 C808 417 793.833 462 765.5 494 C737.167 526 695.667 542 641 542 C605 542 573.167 533.167 545.5 515.5 C517.833 497.833 496.333 472.333 481 439 C470.333 471.667 452 497 426 515 C400 533 367 542 327 542 C257 542 206.667 511 176 449 L176 535 Z " />
<glyph glyph-name="n" unicode="n" horiz-adv-x="580" d="M176 535 L73 535 L73 0 L176 0 L176 290 C176 341.333 189 381.167 215 409.5 C241 437.833 272.333 452 309 452 C340.333 452 365.167 442.333 383.5 423 C401.833 403.667 411 375.333 411 338 L411 0 L515 0 L515 362 C515 417.333 499.5 461.167 468.5 493.5 C437.5 525.833 395.667 542 343 542 C263.667 542 208 509 176 443 L176 535 Z " />
<glyph glyph-name="o" unicode="o" horiz-adv-x="594" d="M297 -9 C376.333 -9 438.667 17 484 69 C529.333 121 552 187 552 267 C552 347 529.833 412.833 485.5 464.5 C441.167 516.167 378.333 542 297 542 C220.333 542 158.833 515.5 112.5 462.5 C66.1667 409.5 43 343 43 263 C43 184.333 65.5 119.333 110.5 68 C155.5 16.6667 217.667 -9 297 -9 L297 -9 Z M296 454 C330 454 358.333 445 381 427 C403.667 409 419.667 386.333 429 359 C438.333 331.667 443 300.333 443 265 C443 211 430.5 166.333 405.5 131 C380.5 95.6667 344.333 78 297 78 C252.333 78 216.667 96.1667 190 132.5 C163.333 168.833 150 213.333 150 266 C150 291.333 153.167 315.167 159.5 337.5 C165.833 359.833 175 379.833 187 397.5 C199 415.167 214.333 429 233 439 C251.667 449 272.667 454 296 454 L296 454 Z " />
<glyph glyph-name="p" unicode="p" horiz-adv-x="610" d="M319 83 C302.333 83 286 86.5 270 93.5 C254 100.5 238.667 111 224 125 C209.333 139 197.667 158.5 189 183.5 C180.333 208.5 176 237 176 269 C176 301.667 180.333 330.167 189 354.5 C197.667 378.833 209.333 397.833 224 411.5 C238.667 425.167 254.333 435.167 271 441.5 C287.667 447.833 305 451 323 451 C363.667 451 397 434.667 423 402 C449 369.333 462 325.333 462 270 C462 210.667 448.667 164.667 422 132 C395.333 99.3333 361 83 319 83 L319 83 Z M176 535 L73 535 L73 -205 L176 -205 L176 81 C213.333 22.3333 267.667 -7 339 -7 C408.333 -7 464 19 506 71 C548 123 569 189.667 569 271 C569 350.333 548.5 415.333 507.5 466 C466.5 516.667 411 542 341 542 C268.333 542 213.333 512 176 452 L176 535 Z " />
<glyph glyph-name="q" unicode="q" horiz-adv-x="610" d="M293 83 C251.667 83 217.333 99.5 190 132.5 C162.667 165.5 149 211.333 149 270 C149 324.667 162.333 368.5 189 401.5 C215.667 434.5 249 451 289 451 C307.667 451 325.167 447.833 341.5 441.5 C357.833 435.167 373.167 425.167 387.5 411.5 C401.833 397.833 413.333 378.833 422 354.5 C430.667 330.167 435 301.667 435 269 C435 237 430.667 208.5 422 183.5 C413.333 158.5 401.833 139 387.5 125 C373.167 111 358 100.5 342 93.5 C326 86.5 309.667 83 293 83 L293 83 Z M435 535 L435 454 C396.333 512.667 342 542 272 542 C201.333 542 145.5 516.667 104.5 466 C63.5 415.333 43 350.333 43 271 C43 189.667 64 123 106 71 C148 19 203.667 -7 273 -7 C342.333 -7 396.333 22.6667 435 82 L435 -205 L539 -205 L539 535 L435 535 Z " />
<glyph glyph-name="r" unicode="r" horiz-adv-x="357" d="M176 535 L73 535 L73 0 L176 0 L176 284 C176 328 187.667 365.833 211 397.5 C234.333 429.167 264 445 300 445 C318.667 445 335 442 349 436 L349 537 C337.667 539 326.667 540 316 540 C249.333 540 202.667 507 176 441 L176 535 Z " />
<glyph glyph-name="s" unicode="s" horiz-adv-x="441" d="M378 517 C345.333 532.333 300.333 540 243 540 C190.333 540 146.333 526.5 111 499.5 C75.6667 472.5 58 435.667 58 389 C58 368.333 61.5 349.667 68.5 333 C75.5 316.333 85.5 302 98.5 290 C111.5 278 124.5 268 137.5 260 C150.5 252 165.667 244.333 183 237 C202.333 229 215.5 223.333 222.5 220 C229.5 216.667 239.667 211.5 253 204.5 C266.333 197.5 275.333 191.5 280 186.5 C284.667 181.5 289.333 174.833 294 166.5 C298.667 158.167 301 149.333 301 140 C301 121.333 293.5 106.5 278.5 95.5 C263.5 84.5 242 79 214 79 C160 79 109 94.3333 61 125 L61 27 C105 5.66667 157.667 -5 219 -5 C277 -5 322.833 8.33333 356.5 35 C390.167 61.6667 407 99 407 147 C407 167 403.5 185.167 396.5 201.5 C389.5 217.833 379.167 232 365.5 244 C351.833 256 338.167 266.167 324.5 274.5 C310.833 282.833 294 291.667 274 301 C270 302.333 264.5 304.667 257.5 308 C250.5 311.333 245 313.833 241 315.5 C237 317.167 232 319.5 226 322.5 C220 325.5 215.167 328.167 211.5 330.5 C207.833 332.833 203.5 335.5 198.5 338.5 C193.5 341.5 189.667 344.333 187 347 C184.333 349.667 181.333 352.833 178 356.5 C174.667 360.167 172.167 363.833 170.5 367.5 C168.833 371.167 167.5 375 166.5 379 C165.5 383 165 387.333 165 392 C165 410.667 172.167 425.5 186.5 436.5 C200.833 447.5 220.333 453 245 453 C298.333 453 342.667 443 378 423 L378 517 Z " />
<glyph glyph-name="t" unicode="t" horiz-adv-x="393" d="M207 454 L347 454 L347 535 L207 535 L207 665 L102 665 L102 535 L19 535 L19 454 L102 454 L102 163 C102 51 157.333 -5 268 -5 C301.333 -5 329.667 1 353 13 L353 106 C333.667 90.6667 309.333 83 280 83 C231.333 83 207 109 207 161 L207 454 Z " />
<glyph glyph-name="u" unicode="u" horiz-adv-x="580" d="M405 535 L405 244 C405 192.667 393 152.833 369 124.5 C345 96.1667 312.667 82 272 82 C240.667 82 216 91.6667 198 111 C180 130.333 171 158.333 171 195 L171 535 L67 535 L67 170 C67 114.667 82.3333 71.5 113 40.5 C143.667 9.5 185.333 -6 238 -6 C320 -6 375.667 26.6667 405 92 L405 0 L509 0 L509 535 L405 535 Z " />
<glyph glyph-name="v" unicode="v" horiz-adv-x="541" d="M210 0 L328 0 L522 535 L414 535 L340 309 C300 191.667 276.667 115.667 270 81 L265 99 C262.333 111 255.333 136 244 174 C232.667 212 218.667 257 202 309 L129 535 L20 535 L210 0 Z " />
<glyph glyph-name="w" unicode="w" horiz-adv-x="839" d="M187 0 L305 0 L353 175 C386.333 293.667 408 376 418 422 L423 400 C426.333 385.333 433.333 357.5 444 316.5 C454.667 275.5 467.333 228.333 482 175 L531 0 L650 0 L820 535 L715 535 L662 358 C623.333 227.333 599.333 141 590 99 L589 103 C589 105.667 588.167 110 586.5 116 C584.833 122 583 129.5 581 138.5 C579 147.5 576 159.167 572 173.5 C568 187.833 563.667 203.5 559 220.5 C554.333 237.5 548.667 258 542 282 C535.333 306 528 331.333 520 358 L468 535 L367 535 L315 358 C278.333 230.667 255.333 144.667 246 100 L245 108 L238 136 C234.667 149.333 230.833 165.333 226.5 184 C222.167 202.667 215.833 227.333 207.5 258 C199.167 288.667 189.667 321.667 179 357 L130 535 L20 535 L187 0 Z " />
<glyph glyph-name="x" unicode="x" horiz-adv-x="518" d="M316 271 L494 536 L379 536 L264 347 L151 536 L35 536 L206 272 L24 0 L137 0 L261 196 L378 0 L494 0 L316 271 Z " />
<glyph glyph-name="y" unicode="y" horiz-adv-x="531" d="M220 11 C192.667 -63.6667 145 -101 77 -101 C64.3333 -101 52.3333 -99.6667 41 -97 L41 -185 C54.3333 -189 70.6667 -191 90 -191 C140.667 -191 185.5 -175.167 224.5 -143.5 C263.5 -111.833 296.667 -59.3333 324 14 L518 535 L408 535 L348 360 C303.333 231.333 278 156.333 272 135 L271 137 C271 138.333 270.167 141.333 268.5 146 C266.833 150.667 264.833 156.333 262.5 163 C260.167 169.667 256.833 179 252.5 191 C248.167 203 243.333 216.333 238 231 C232.667 245.667 225.667 264.333 217 287 C208.333 309.667 198.667 334 188 360 L123 535 L7 535 L220 11 Z " />
<glyph glyph-name="z" unicode="z" horiz-adv-x="486" d="M427 535 L55 535 L55 448 L305 448 L45 79 L45 0 L441 0 L441 88 L165 88 L427 460 L427 535 Z " />
<glyph glyph-name="braceleft" unicode="&#x7b;" horiz-adv-x="366" d="M48 224 C60 224 69 223.333 75 222 C105.667 218 128.667 205 144 183 C159.333 161 167 134.667 167 104 C167 89.3333 163.667 66.3333 157 35 C150.333 3.66667 147 -20.6667 147 -38 C147 -87.3333 161.167 -127.5 189.5 -158.5 C217.833 -189.5 252.667 -205 294 -205 C310 -205 328.333 -201.667 349 -195 L349 -96 C337.667 -102 326 -105 314 -105 C294.667 -105 279.5 -98.3333 268.5 -85 C257.5 -71.6667 252 -54.3333 252 -33 C252 -17.6667 255.167 6.83333 261.5 40.5 C267.833 74.1667 271 101 271 121 C271 161 259.667 195.167 237 223.5 C214.333 251.833 183.333 268.667 144 274 C183.333 279.333 214.333 296.167 237 324.5 C259.667 352.833 271 387 271 427 C271 447 267.833 473.667 261.5 507 C255.167 540.333 252 565 252 581 C252 601.667 257.5 618.833 268.5 632.5 C279.5 646.167 294.667 653 314 653 C326 653 337.667 650 349 644 L349 743 C330.333 749 312 752 294 752 C252.667 752 217.833 736.5 189.5 705.5 C161.167 674.5 147 634.333 147 585 C147 567.667 150.333 543.333 157 512 C163.667 480.667 167 457.667 167 443 C167 423.667 163.667 405.667 157 389 C150.333 372.333 139.833 358 125.5 346 C111.167 334 94.3333 327 75 325 C67.6667 324.333 58.6667 324 48 324 L48 224 Z " />
<glyph glyph-name="bar" unicode="&#x7c;" horiz-adv-x="255" d="M80 -205 L176 -205 L176 733 L80 733 L80 -205 Z " />
<glyph glyph-name="braceright" unicode="&#x7d;" horiz-adv-x="366" d="M18 644 C28 650 39.3333 653 52 653 C71.3333 653 86.6667 646.167 98 632.5 C109.333 618.833 115 601.667 115 581 C115 565 111.833 540.333 105.5 507 C99.1667 473.667 96 447 96 427 C96 387 107.333 352.833 130 324.5 C152.667 296.167 183 279.333 221 274 C183 268.667 152.667 251.833 130 223.5 C107.333 195.167 96 161 96 121 C96 101 99.1667 74.1667 105.5 40.5 C111.833 6.83333 115 -17.6667 115 -33 C115 -54.3333 109.333 -71.6667 98 -85 C86.6667 -98.3333 71.3333 -105 52 -105 C39.3333 -105 28 -102 18 -96 L18 -195 C38 -201.667 56.3333 -205 73 -205 C114.333 -205 148.833 -189.667 176.5 -159 C204.167 -128.333 218 -88 218 -38 C218 -20.6667 215 3.66667 209 35 C203 66.3333 200 89.3333 200 104 C200 134.667 207.833 161 223.5 183 C239.167 205 262.333 218 293 222 C298.333 223.333 306.667 224 318 224 L318 324 C308 324 299.667 324.333 293 325 C263 328.333 240 341.333 224 364 C208 386.667 200 413 200 443 C200 457.667 203 480.667 209 512 C215 543.333 218 567.667 218 585 C218 605 215.667 623.667 211 641 C206.333 658.333 199.5 673.833 190.5 687.5 C181.5 701.167 171.167 712.833 159.5 722.5 C147.833 732.167 134.5 739.5 119.5 744.5 C104.5 749.5 89 752 73 752 C54.3333 752 36 749 18 743 L18 644 Z " />
<glyph glyph-name="asciitilde" unicode="&#x7e;" horiz-adv-x="647" d="M538 359 C509.333 318.333 476 298 438 298 C422 298 404.833 301.5 386.5 308.5 C368.167 315.5 351.5 323.333 336.5 332 C321.5 340.667 302.167 348.667 278.5 356 C254.833 363.333 230.333 367 205 367 C173 367 142.5 357.5 113.5 338.5 C84.5 319.5 58.6667 294.333 36 263 L105 204 C139 250 178.667 273 224 273 C242.667 273 264.167 267.167 288.5 255.5 C312.833 243.833 339.167 232.167 367.5 220.5 C395.833 208.833 424 203 452 203 C514.667 203 568.333 236.667 613 304 L538 359 Z " />
<glyph glyph-name="uni00A0" unicode="&#xa0;" horiz-adv-x="258" d="" />
<glyph glyph-name="exclamdown" unicode="&#xa1;" horiz-adv-x="276" d="M65 474 C65 460.667 68.1667 448.333 74.5 437 C80.8333 425.667 89.5 416.833 100.5 410.5 C111.5 404.167 123.667 401 137 401 C157 401 174.167 408.167 188.5 422.5 C202.833 436.833 210 454 210 474 C210 494 203 510.833 189 524.5 C175 538.167 157.667 545 137 545 C116.333 545 99.1667 538.333 85.5 525 C71.8333 511.667 65 494.667 65 474 L65 474 Z M88 -174 L188 -174 L188 311 L88 311 L88 -174 Z " />
<glyph glyph-name="cent" unicode="&#xa2;" horiz-adv-x="485" d="M443 515 C416.333 527.667 388.333 535.667 359 539 L359 651 L271 651 L271 537 C200.333 525 144.833 493.667 104.5 443 C64.1667 392.333 43.6667 333.333 43 266 C43 196 63.5 136.167 104.5 86.5 C145.5 36.8333 201 6.33333 271 -5 L271 -117 L359 -117 L359 -6 C390.333 -2 418.333 6 443 18 L443 111 C407.667 91 372 81 336 81 C278.667 81 233.5 98.3333 200.5 133 C167.5 167.667 150.333 211.667 149 265 C149.667 319 167.167 363.333 201.5 398 C235.833 432.667 280.667 450 336 450 C373.333 450 409 440.667 443 422 L443 515 Z " />
<glyph glyph-name="sterling" unicode="&#xa3;" horiz-adv-x="555" d="M186 90 C212 106 231.667 127.333 245 154 C258.333 180.667 265 217.333 265 264 C265 267.333 264.833 273.167 264.5 281.5 C264.167 289.833 264 296.333 264 301 L441 301 L441 380 L255 380 C251 420 249 448.667 249 466 C249 553.333 292 597 378 597 C414 597 449.667 586.333 485 565 L485 666 C450.333 685.333 409.333 695 362 695 C326 695 294 689.833 266 679.5 C238 669.167 214.5 654.333 195.5 635 C176.5 615.667 162.167 591.667 152.5 563 C142.833 534.333 138 502 138 466 C138 444.667 140.333 416 145 380 L63 380 L63 301 L154 301 C156 284.333 157 272 157 264 C157 217.333 149.833 180.667 135.5 154 C121.167 127.333 95.6667 105 59 87 L59 0 L517 0 L517 90 L186 90 Z " />
<glyph glyph-name="currency" unicode="&#xa4;" horiz-adv-x="580" d="M59 327 C59 276.333 71.3333 233.667 96 199 L34 137 L98 75 L160 136 C195.333 112.667 238.333 101 289 101 C339.667 101 383 113.333 419 138 L484 75 L547 137 L483 201 C509.667 239.667 523 283.333 523 332 C523 377.333 510.667 419 486 457 L547 519 L484 581 L423 521 C383.667 545 340.667 557 294 557 C243.333 557 199.333 544 162 518 L98 581 L34 519 L97 455 C71.6667 416.333 59 373.667 59 327 L59 327 Z M147 329 C147 355.667 153.167 380 165.5 402 C177.833 424 195 441.5 217 454.5 C239 467.5 263.667 474 291 474 C333 474 367.5 460 394.5 432 C421.5 404 435 369.667 435 329 C435 308.333 431.333 289.167 424 271.5 C416.667 253.833 406.833 238.5 394.5 225.5 C382.167 212.5 367.167 202.333 349.5 195 C331.833 187.667 312.333 184 291 184 C249.667 184 215.333 197.833 188 225.5 C160.667 253.167 147 287.667 147 329 L147 329 Z " />
<glyph glyph-name="yen" unicode="&#xa5;" horiz-adv-x="632" d="M603 690 L479 690 L313 373 L151 690 L28 690 L196 382 L74 382 L74 310 L236 310 L260 268 L260 225 L74 225 L74 152 L260 152 L260 0 L368 0 L368 152 L555 152 L555 225 L368 225 L368 268 L391 310 L555 310 L555 382 L432 382 L603 690 Z " />
<glyph glyph-name="brokenbar" unicode="&#xa6;" horiz-adv-x="255" d="M176 387 L176 739 L80 739 L80 387 L176 387 Z M176 -169 L176 182 L80 182 L80 -169 L176 -169 Z " />
<glyph glyph-name="section" unicode="&#xa7;" horiz-adv-x="565" d="M162 313 C162 337.667 169.333 359.667 184 379 C192.667 375 205.167 369.167 221.5 361.5 C237.833 353.833 250.333 348 259 344 C261 342.667 264.667 340.667 270 338 C290 328.667 304.667 321.5 314 316.5 C323.333 311.5 334.833 304.833 348.5 296.5 C362.167 288.167 372 280.333 378 273 C384 265.667 389.333 256.833 394 246.5 C398.667 236.167 401 225 401 213 C401 187.667 394.333 166.333 381 149 C352.333 164.333 326.667 176.333 304 185 C253.333 207.667 217 227.5 195 244.5 C173 261.5 162 284.333 162 313 L162 313 Z M458 684 C415.333 706 361.333 717 296 717 C262 717 230.833 713 202.5 705 C174.167 697 149.667 685.333 129 670 C108.333 654.667 92.1667 635.333 80.5 612 C68.8333 588.667 63 562.333 63 533 C63 493.667 75.6667 461 101 435 C71 400.333 56 359.667 56 313 C56 301.667 56.8333 290.833 58.5 280.5 C60.1667 270.167 62.6667 260.5 66 251.5 C69.3333 242.5 73 234 77 226 C81 218 86 210.5 92 203.5 C98 196.5 104.167 189.833 110.5 183.5 C116.833 177.167 124 171 132 165 C140 159 147.833 153.667 155.5 149 C163.167 144.333 171.667 139.5 181 134.5 C190.333 129.5 199.167 125 207.5 121 C215.833 117 225 112.667 235 108 C297 81.3333 338.333 59.8333 359 43.5 C379.667 27.1667 390 6 390 -20 C390 -50 379 -73 357 -89 C335 -105 304 -113 264 -113 C191.333 -113 127 -92 71 -50 L71 -164 C121.667 -194 186.333 -209 265 -209 C311 -209 351.667 -201.833 387 -187.5 C422.333 -173.167 450.167 -151.5 470.5 -122.5 C490.833 -93.5 501 -58.8333 501 -18.5 C501 21.8333 487.333 57.6667 460 89 C490 121.667 505 162.667 505 212 C505 230.667 503 248 499 264 C495 280 488.833 294.167 480.5 306.5 C472.167 318.833 463.5 329.833 454.5 339.5 C445.5 349.167 433.667 358.667 419 368 C404.333 377.333 391.333 385 380 391 C368.667 397 354.333 404.333 337 413 C324.333 419 309.167 426 291.5 434 C273.833 442 260.5 448.167 251.5 452.5 C242.5 456.833 232.333 462.333 221 469 C209.667 475.667 201.333 481.833 196 487.5 C190.667 493.167 186 500.167 182 508.5 C178 516.833 176 526 176 536 C176 562 186.667 582.5 208 597.5 C229.333 612.5 259.667 620 299 620 C326.333 620 354.333 616 383 608 C411.667 600 436.667 589.333 458 576 L458 684 Z " />
<glyph glyph-name="dieresis" unicode="&#xa8;" horiz-adv-x="467" d="M54 758 C54 740 60 725 72 713 C84 701 99.3333 695 118 695 C136 695 151 701 163 713 C175 725 181 740 181 758 C181 776 175 791.167 163 803.5 C151 815.833 136 822 118 822 C99.3333 822 84 815.833 72 803.5 C60 791.167 54 776 54 758 L54 758 Z M287 758 C287 740 293 725 305 713 C317 701 332 695 350 695 C368.667 695 384 701 396 713 C408 725 414 740 414 758 C414 776 408 791.167 396 803.5 C384 815.833 368.667 822 350 822 C338 822 327.333 819.167 318 813.5 C308.667 807.833 301.167 800.167 295.5 790.5 C289.833 780.833 287 770 287 758 L287 758 Z " />
<glyph glyph-name="copyright" unicode="&#xa9;" horiz-adv-x="813" d="M43 355.5 C43 289.833 59.3333 229 92 173 C124.667 117 169 72.6667 225 40 C281 7.33333 341.667 -9 407 -9 C472.333 -9 533 7.33333 589 40 C645 72.6667 689.333 117 722 173 C754.667 229 771 289.833 771 355.5 C771 421.167 754.667 481.833 722 537.5 C689.333 593.167 645 637.333 589 670 C533 702.667 472.333 719 407 719 C341.667 719 281 702.667 225 670 C169 637.333 124.667 593.167 92 537.5 C59.3333 481.833 43 421.167 43 355.5 L43 355.5 Z M123 354 C123 434 150.5 501.833 205.5 557.5 C260.5 613.167 328 641 408 641 C487.333 641 554.5 613.167 609.5 557.5 C664.5 501.833 692 434.167 692 354.5 C692 274.833 664.5 207.5 609.5 152.5 C554.5 97.5 487.333 70 408 70 C327.333 70 259.667 97.5 205 152.5 C150.333 207.5 123 274.667 123 354 L123 354 Z M321 353 C321 389 332 417.833 354 439.5 C376 461.167 403.667 472 437 472 C467 472 494.667 464 520 448 L520 525 C493.333 539.667 463.667 547 431 547 C400.333 547 372.5 541.667 347.5 531 C322.5 520.333 301.833 506.167 285.5 488.5 C269.167 470.833 256.667 450.333 248 427 C239.333 403.667 235 379 235 353 C235 299 252.833 253.833 288.5 217.5 C324.167 181.167 370.333 163 427 163 C463.667 163 494.667 170 520 184 L520 263 C494 245 466 236 436 236 C402.667 236 375.333 247 354 269 C332.667 291 321.667 319 321 353 L321 353 Z " />
<glyph glyph-name="ordfeminine" unicode="&#xaa;" horiz-adv-x="384" d="M265 614 L265 560 C265 537.333 256.333 518.167 239 502.5 C221.667 486.833 199.667 479 173 479 C147.667 479 128.333 484.833 115 496.5 C101.667 508.167 95 524 95 544 C95 566 104.5 583.167 123.5 595.5 C142.5 607.833 169.667 614 205 614 L265 614 Z M38 757 C75.3333 783 118.667 796 168 796 C203.333 796 228.333 788.167 243 772.5 C257.667 756.833 265 733.333 265 702 L265 679 L191 679 C131.667 679 85.6667 666.667 53 642 C20.3333 617.333 4 583.667 4 541 C4 501 16.8333 469 42.5 445 C68.1667 421 102.333 409 145 409 C198.333 409 239 429.333 267 470 L267 413 L353 413 L353 700 C353 738 347 769.5 335 794.5 C323 819.5 303.833 838.5 277.5 851.5 C251.167 864.5 217.667 871 177 871 C121.667 871 75.3333 860.667 38 840 L38 757 Z " />
<glyph glyph-name="guillemotleft" unicode="&#xab;" horiz-adv-x="539" d="M300 438 L186 438 L29 267 L186 96 L300 96 L144 267 L300 438 Z M505 438 L393 438 L234 267 L393 96 L505 96 L351 267 L505 438 Z " />
<glyph glyph-name="logicalnot" unicode="&#xac;" horiz-adv-x="595" d="M555 162 L555 437 L33 437 L33 348 L464 348 L464 162 L555 162 Z " />
<glyph glyph-name="uni00AD" unicode="&#xad;" horiz-adv-x="368" d="M56 237 L313 237 L313 325 L56 325 L56 237 Z " />
<glyph glyph-name="registered" unicode="&#xae;" horiz-adv-x="487" d="M221 680 L244 680 C252 680 258.333 679 263 677 C267.667 675 271.167 671.667 273.5 667 C275.833 662.333 277 656 277 648 C277 638 274.5 629.833 269.5 623.5 C264.5 617.167 257 614 247 614 L221 614 L221 680 Z M172 721 L172 489 L221 489 L221 574 L239 574 L290 489 L349 489 L290 582 C315.333 594 328 616 328 648 C328 696.667 298.333 721 239 721 L172 721 Z M245 419 C191 419 147.5 435.667 114.5 469 C81.5 502.333 65 545.333 65 598 C65 624.667 69.3333 649.167 78 671.5 C86.6667 693.833 98.8333 712.833 114.5 728.5 C130.167 744.167 149.167 756.5 171.5 765.5 C193.833 774.5 218.333 779 245 779 C298.333 779 341.333 762.167 374 728.5 C406.667 694.833 423 651.333 423 598 C423 572 418.833 547.833 410.5 525.5 C402.167 503.167 390.167 484.333 374.5 469 C358.833 453.667 340 441.5 318 432.5 C296 423.5 271.667 419 245 419 L245 419 Z M244 830 C176.667 830 120.833 808.167 76.5 764.5 C32.1667 720.833 10 665.333 10 598 C10 530.667 32.1667 475.167 76.5 431.5 C120.833 387.833 176.667 366 244 366 C311.333 366 367 387.833 411 431.5 C455 475.167 477 530.667 477 598 C477 665.333 455 720.833 411 764.5 C367 808.167 311.333 830 244 830 L244 830 Z " />
<glyph glyph-name="macron" unicode="&#xaf;" horiz-adv-x="467" d="M394 718 L394 790 L74 790 L74 718 L394 718 Z " />
<glyph glyph-name="degree" unicode="&#xb0;" horiz-adv-x="400" d="M32 548 C32 500 48 460.5 80 429.5 C112 398.5 152 383 200 383 C247.333 383 287.333 399 320 431 C352.667 463 369 503 369 551 C369 598.333 353 637.667 321 669 C289 700.333 249.333 716 202 716 C154 716 113.667 699.833 81 667.5 C48.3333 635.167 32 595.333 32 548 L32 548 Z M111 550 C111 575.333 119.5 597 136.5 615 C153.5 633 174.667 642 200 642 C225.333 642 246.667 633 264 615 C281.333 597 290 575.333 290 550 C290 524.667 281.5 502.833 264.5 484.5 C247.5 466.167 226.5 457 201.5 457 C176.5 457 155.167 466.167 137.5 484.5 C119.833 502.833 111 524.667 111 550 L111 550 Z " />
<glyph glyph-name="plusminus" unicode="&#xb1;" horiz-adv-x="594" d="M56 32 L538 32 L538 121 L56 121 L56 32 Z M343 437 L343 606 L247 606 L247 437 L56 437 L56 347 L247 347 L247 178 L343 178 L343 347 L538 347 L538 437 L343 437 Z " />
<glyph glyph-name="uni00B2" unicode="&#xb2;" horiz-adv-x="384" d="M45 413 L345 413 L345 482 L154 482 C188.667 507.333 218.833 533.167 244.5 559.5 C270.167 585.833 291 614.167 307 644.5 C323 674.833 331 704 331 732 C331 776 316.167 810.333 286.5 835 C256.833 859.667 220.333 872 177 872 C137 872 97.6667 860.333 59 837 L59 754 C96.3333 782 133.333 796 170 796 C192.667 796 211 789.833 225 777.5 C239 765.167 246 747.333 246 724 C246 657.333 179 574 45 474 L45 413 Z " />
<glyph glyph-name="uni00B3" unicode="&#xb3;" horiz-adv-x="350" d="M111 677 L111 609 L133 609 C166.333 609 191.167 603 207.5 591 C223.833 579 232 563 232 543 C232 523.667 225.167 508.333 211.5 497 C197.833 485.667 178.667 480 154 480 C114.667 480 75.6667 490 37 510 L37 436 C73.6667 418 115.667 409 163 409 C210.333 409 247.333 420.667 274 444 C300.667 467.333 314 498 314 536 C314 551.333 311.5 565.5 306.5 578.5 C301.5 591.5 294.667 602.667 286 612 C277.333 621.333 267.167 628.833 255.5 634.5 C243.833 640.167 231.667 643.667 219 645 C236.333 649 251.167 655.5 263.5 664.5 C275.833 673.5 285.5 685.167 292.5 699.5 C299.5 713.833 303 730.333 303 749 C303 784.333 290 813.667 264 837 C238 860.333 201.333 872 154 872 C117.333 872 82.6667 862.667 50 844 L50 765 C85.3333 788.333 118.333 800 149 800 C171 800 188.167 795.167 200.5 785.5 C212.833 775.833 219 761 219 741 C219 727 215.167 715.167 207.5 705.5 C199.833 695.833 189.5 688.667 176.5 684 C163.5 679.333 149 677 133 677 L111 677 Z " />
<glyph glyph-name="acute" unicode="&#xb4;" horiz-adv-x="467" d="M128 671 L216 671 L343 842 L228 842 L128 671 Z " />
<glyph glyph-name="mu" unicode="&#xb5;" horiz-adv-x="587" d="M411 535 L411 244 C411 209.333 406.5 180 397.5 156 C388.5 132 375.333 113.667 358 101 C340.667 88.3333 319.667 82 295 82 C273.667 82 254.333 86 237 94 C219.667 102 205.167 114.833 193.5 132.5 C181.833 150.167 176 171 176 195 L176 535 L73 535 L73 -188 L176 -188 L176 25 C206.667 4.33333 241 -6 279 -6 C341 -6 385 21.3333 411 76 L411 0 L515 0 L515 535 L411 535 Z " />
<glyph glyph-name="paragraph" unicode="&#xb6;" horiz-adv-x="589" d="M313 711 L234 711 C198.667 711 167.167 705.833 139.5 695.5 C111.833 685.167 89.6667 671.333 73 654 C56.3333 636.667 43.8333 617.5 35.5 596.5 C27.1667 575.5 23 553.333 23 530 C23 480 40.6667 437.833 76 403.5 C111.333 369.167 161.667 352 227 352 L227 -157 L313 -157 L313 711 Z M427 -157 L515 -157 L515 711 L428 711 L427 -157 Z " />
<glyph glyph-name="periodcentered" unicode="&#xb7;" horiz-adv-x="254" d="M57 316 C57 302.667 60.1667 290.667 66.5 280 C72.8333 269.333 81.5 260.833 92.5 254.5 C103.5 248.167 115.667 245 129 245 C148.333 245 165 251.833 179 265.5 C193 279.167 200 296 200 316 C200 329.333 196.833 341.5 190.5 352.5 C184.167 363.5 175.5 372 164.5 378 C153.5 384 141.667 387 129 387 C109 387 92 380.167 78 366.5 C64 352.833 57 336 57 316 L57 316 Z " />
<glyph glyph-name="cedilla" unicode="&#xb8;" horiz-adv-x="467" d="M317 -130 C317 -96.6667 311 -71.3333 299 -54 L210 -54 C227.333 -80.6667 236 -104.833 236 -126.5 C236 -148.167 228.5 -165.5 213.5 -178.5 C198.5 -191.5 177 -198.667 149 -200 L149 -271 C203.667 -269.667 245.333 -255.667 274 -229 C302.667 -202.333 317 -169.333 317 -130 L317 -130 Z " />
<glyph glyph-name="uni00B9" unicode="&#xb9;" horiz-adv-x="271" d="M10 715 L126 779 L126 413 L205 413 L205 868 L139 868 L10 794 L10 715 Z " />
<glyph glyph-name="ordmasculine" unicode="&#xba;" horiz-adv-x="416" d="M208 407 C274 407 325.5 429 362.5 473 C399.5 517 418 573.333 418 642 C418 709.333 399.833 764.667 363.5 808 C327.167 851.333 275.333 873 208 873 C144.667 873 94 850.667 56 806 C18 761.333 -1 705 -1 637 C-1 570.333 17.3333 515.333 54 472 C90.6667 428.667 142 407 208 407 L208 407 Z M207 800 C249 800 279.167 785 297.5 755 C315.833 725 325 686.667 325 640 C325 593.333 315.167 555 295.5 525 C275.833 495 246.667 480 208 480 C171.333 480 142.5 495.333 121.5 526 C100.5 556.667 90 594.667 90 640 C90 669.333 94.1667 695.833 102.5 719.5 C110.833 743.167 124 762.5 142 777.5 C160 792.5 181.667 800 207 800 L207 800 Z " />
<glyph glyph-name="guillemotright" unicode="&#xbb;" horiz-adv-x="541" d="M146 438 L35 438 L188 267 L35 96 L146 96 L306 267 L146 438 Z M353 438 L241 438 L396 267 L241 96 L353 96 L512 267 L353 438 Z " />
<glyph glyph-name="onequarter" unicode="&#xbc;" horiz-adv-x="875" d="M167 296 L246 296 L246 750 L180 750 L52 677 L52 598 L167 660 L167 296 Z M614 751 L145 0 L232 0 L700 751 L614 751 Z M574 165 L701 393 L701 165 L574 165 Z M840 165 L779 165 L779 452 L658 452 L494 165 L494 100 L701 100 L701 0 L779 0 L779 100 L840 100 L840 165 Z " />
<glyph glyph-name="onehalf" unicode="&#xbd;" horiz-adv-x="877" d="M544 0 L844 0 L844 69 L653 69 C706.333 107.667 749 148.5 781 191.5 C813 234.5 829 276.667 829 318 C829 340.667 824.833 361 816.5 379 C808.167 397 797 411.667 783 423 C769 434.333 752.833 443 734.5 449 C716.167 455 696.667 458 676 458 C635.333 458 596 446.667 558 424 L558 341 C596 369 632.667 383 668 383 C691.333 383 710 376.833 724 364.5 C738 352.167 745 334.333 745 311 C745 243.667 678 160 544 60 L544 0 Z M52 598 L167 660 L167 296 L246 296 L246 750 L180 750 L52 677 L52 598 Z M145 0 L232 0 L700 751 L614 751 L145 0 Z " />
<glyph glyph-name="threequarters" unicode="&#xbe;" horiz-adv-x="923" d="M75 648 C109 671.333 142 683 174 683 C196 683 213.167 677.833 225.5 667.5 C237.833 657.167 244 642 244 622 C244 602 235.833 586.333 219.5 575 C203.167 563.667 182.667 558 158 558 L134 558 L134 490 L158 490 C223.333 490 256 468.333 256 425 C256 412.333 253 401.333 247 392 C241 382.667 232 375.333 220 370 C208 364.667 194 362 178 362 C137.333 362 98.3333 371.667 61 391 L61 317 C96.3333 299.667 138 291 186 291 C234 291 271.5 302.667 298.5 326 C325.5 349.333 339 380 339 418 C339 448 329.667 472.833 311 492.5 C292.333 512.167 270 523 244 525 C270 531 290.333 543 305 561 C319.667 579 327 601.667 327 629 C327 665.667 314 695.667 288 719 C262 742.333 225 754 177 754 C140.333 754 106.333 744.667 75 726 L75 648 Z M672 751 L204 0 L290 0 L759 751 L672 751 Z M632 165 L759 393 L759 165 L632 165 Z M898 165 L836 165 L836 452 L716 452 L553 165 L553 100 L759 100 L759 0 L836 0 L836 100 L898 100 L898 165 Z " />
<glyph glyph-name="questiondown" unicode="&#xbf;" horiz-adv-x="477" d="M441 -41 C390.333 -74.3333 338 -91 284 -91 C242.667 -91 211.833 -81 191.5 -61 C171.167 -41 161 -14.3333 161 19 C161 100.333 224.333 141 351 141 L350 312 L252 312 L251 206 C229 204.667 206.833 199.667 184.5 191 C162.167 182.333 141 170.5 121 155.5 C101 140.5 84.8333 120.333 72.5 95 C60.1667 69.6667 54 41.3333 54 10 C54 -50 74 -97 114 -131 C154 -165 207.333 -182 274 -182 C335.333 -182 391 -169 441 -143 L441 -41 Z M375 474 C375 480.667 374.167 487.167 372.5 493.5 C370.833 499.833 368.5 505.5 365.5 510.5 C362.5 515.5 358.667 520.167 354 524.5 C349.333 528.833 344.333 532.5 339 535.5 C333.667 538.5 328 540.833 322 542.5 C316 544.167 309.667 545 303 545 C282.333 545 265 538.167 251 524.5 C237 510.833 230 494 230 474 C230 460.667 233.167 448.5 239.5 437.5 C245.833 426.5 254.667 417.833 266 411.5 C277.333 405.167 289.667 402 303 402 C323 402 340 409 354 423 C368 437 375 454 375 474 L375 474 Z " />
<glyph glyph-name="Agrave" unicode="&#xc0;" horiz-adv-x="695" d="M389 764 L289 935 L174 935 L301 764 L389 764 Z M234 265 L246 301 C307.333 486.333 341.667 595.333 349 628 L351 622 C351.667 617.333 354.167 607.667 358.5 593 C362.833 578.333 368.333 559.833 375 537.5 C381.667 515.167 391.667 483.167 405 441.5 C418.333 399.833 433.333 353 450 301 L462 265 L234 265 Z M547 0 L663 0 L421 711 L278 711 L33 0 L147 0 L205 174 L491 174 L547 0 Z " />
<glyph glyph-name="Aacute" unicode="&#xc1;" horiz-adv-x="695" d="M529 935 L414 935 L314 764 L403 764 L529 935 Z M234 265 L246 301 C307.333 486.333 341.667 595.333 349 628 L351 622 C351.667 617.333 354.167 607.667 358.5 593 C362.833 578.333 368.333 559.833 375 537.5 C381.667 515.167 391.667 483.167 405 441.5 C418.333 399.833 433.333 353 450 301 L462 265 L234 265 Z M547 0 L663 0 L421 711 L278 711 L33 0 L147 0 L205 174 L491 174 L547 0 Z " />
<glyph glyph-name="Acircumflex" unicode="&#xc2;" horiz-adv-x="695" d="M350 872 L439 764 L541 764 L399 935 L304 935 L162 764 L264 764 L350 872 Z M234 265 L246 301 C307.333 486.333 341.667 595.333 349 628 L351 622 C351.667 617.333 354.167 607.667 358.5 593 C362.833 578.333 368.333 559.833 375 537.5 C381.667 515.167 391.667 483.167 405 441.5 C418.333 399.833 433.333 353 450 301 L462 265 L234 265 Z M547 0 L663 0 L421 711 L278 711 L33 0 L147 0 L205 174 L491 174 L547 0 Z " />
<glyph glyph-name="Atilde" unicode="&#xc3;" horiz-adv-x="695" d="M478 916 C464 885.333 443.333 870 416 870 C402.667 870 381.167 877.333 351.5 892 C321.833 906.667 296 914 274 914 C250.667 914 229 906.333 209 891 C189 875.667 174 857 164 835 L215 788 C226.333 804.667 237.333 816.833 248 824.5 C258.667 832.167 272.333 836 289 836 C300.333 836 320.333 828.833 349 814.5 C377.667 800.167 402 793 422 793 C446.667 793 469 799.833 489 813.5 C509 827.167 525 846.333 537 871 L478 916 Z M234 265 L246 301 C307.333 486.333 341.667 595.333 349 628 L351 622 C351.667 617.333 354.167 607.667 358.5 593 C362.833 578.333 368.333 559.833 375 537.5 C381.667 515.167 391.667 483.167 405 441.5 C418.333 399.833 433.333 353 450 301 L462 265 L234 265 Z M547 0 L663 0 L421 711 L278 711 L33 0 L147 0 L205 174 L491 174 L547 0 Z " />
<glyph glyph-name="Adieresis" unicode="&#xc4;" horiz-adv-x="695" d="M470 788 C488 788 503.167 794 515.5 806 C527.833 818 534 833 534 851 C534 863 531.167 873.833 525.5 883.5 C519.833 893.167 512.167 900.833 502.5 906.5 C492.833 912.167 482 915 470 915 C452 915 436.833 908.833 424.5 896.5 C412.167 884.167 406 869 406 851 C406 833 412.167 818 424.5 806 C436.833 794 452 788 470 788 L470 788 Z M237 788 C255 788 270.167 794 282.5 806 C294.833 818 301 833 301 851 C301 869 294.833 884.167 282.5 896.5 C270.167 908.833 255 915 237 915 C218.333 915 203 908.833 191 896.5 C179 884.167 173 868.833 173 850.5 C173 832.167 179 817.167 191 805.5 C203 793.833 218.333 788 237 788 L237 788 Z M234 265 L246 301 C307.333 486.333 341.667 595.333 349 628 L351 622 C351.667 617.333 354.167 607.667 358.5 593 C362.833 578.333 368.333 559.833 375 537.5 C381.667 515.167 391.667 483.167 405 441.5 C418.333 399.833 433.333 353 450 301 L462 265 L234 265 Z M547 0 L663 0 L421 711 L278 711 L33 0 L147 0 L205 174 L491 174 L547 0 Z " />
<glyph glyph-name="Aring" unicode="&#xc5;" horiz-adv-x="695" d="M351 933 C367.667 933 381.333 927.5 392 916.5 C402.667 905.5 408 892.167 408 876.5 C408 860.833 402.667 847.333 392 836 C381.333 824.667 367.667 819 351 819 C335.667 819 322.667 824.667 312 836 C301.333 847.333 296 860.833 296 876.5 C296 892.167 301.333 905.5 312 916.5 C322.667 927.5 335.667 933 351 933 L351 933 Z M351 754 C385 754 414 765.667 438 789 C462 812.333 474 840.667 474 874 C474 896.667 468.5 917.333 457.5 936 C446.5 954.667 431.667 969.5 413 980.5 C394.333 991.5 373.667 997 351 997 C317.667 997 289.333 985 266 961 C242.667 937 231 908 231 874 C231 852.667 236.333 832.667 247 814 C257.667 795.333 272.167 780.667 290.5 770 C308.833 759.333 329 754 351 754 L351 754 Z M234 265 L246 301 C307.333 486.333 341.667 595.333 349 628 L351 622 C351.667 617.333 354.167 607.667 358.5 593 C362.833 578.333 368.333 559.833 375 537.5 C381.667 515.167 391.667 483.167 405 441.5 C418.333 399.833 433.333 353 450 301 L462 265 L234 265 Z M547 0 L663 0 L421 711 L278 711 L33 0 L147 0 L205 174 L491 174 L547 0 Z " />
<glyph glyph-name="AE" unicode="&#xc6;" horiz-adv-x="945" d="M280 265 L301 301 C383.667 448.333 444.667 562 484 642 L484 265 L280 265 Z M589 91 L589 310 L852 310 L852 401 L589 401 L589 620 L886 620 L886 711 L406 711 L20 0 L134 0 L230 174 L484 174 L484 0 L891 0 L891 91 L589 91 Z " />
<glyph glyph-name="Ccedilla" unicode="&#xc7;" horiz-adv-x="637" d="M346 -54 C363.333 -80.6667 372 -105 372 -127 C372 -149 364.667 -166.333 350 -179 C335.333 -191.667 314 -198.667 286 -200 L286 -271 C340.667 -269.667 382.167 -255.667 410.5 -229 C438.833 -202.333 453 -169.333 453 -130 C453 -96.6667 447 -71.3333 435 -54 L346 -54 Z M590 682 C546 707.333 485.333 720 408 720 C303.333 720 217.167 686.333 149.5 619 C81.8333 551.667 48 464 48 356 C48 245.333 81.6667 157 149 91 C216.333 25 303.333 -8 410 -8 C487.333 -8 547.667 6.33333 591 35 L591 144 C569.667 128 543.833 115.333 513.5 106 C483.167 96.6667 452 92 420 92 C343.333 92 281.333 115.833 234 163.5 C186.667 211.167 163 275.333 163 356 C163 409.333 174 456.167 196 496.5 C218 536.833 247.833 567.5 285.5 588.5 C323.167 609.5 365 620 411 620 C449.667 620 481.667 616.667 507 610 C532.333 603.333 560 591.667 590 575 L590 682 Z " />
<glyph glyph-name="Egrave" unicode="&#xc8;" horiz-adv-x="541" d="M345 764 L245 935 L130 935 L256 764 L345 764 Z M185 91 L185 310 L448 310 L448 401 L185 401 L185 620 L482 620 L482 711 L77 711 L77 0 L487 0 L487 91 L185 91 Z " />
<glyph glyph-name="Eacute" unicode="&#xc9;" horiz-adv-x="541" d="M467 935 L351 935 L251 764 L340 764 L467 935 Z M185 91 L185 310 L448 310 L448 401 L185 401 L185 620 L482 620 L482 711 L77 711 L77 0 L487 0 L487 91 L185 91 Z " />
<glyph glyph-name="Ecircumflex" unicode="&#xca;" horiz-adv-x="541" d="M287 872 L376 764 L478 764 L336 935 L240 935 L98 764 L201 764 L287 872 Z M185 91 L185 310 L448 310 L448 401 L185 401 L185 620 L482 620 L482 711 L77 711 L77 0 L487 0 L487 91 L185 91 Z " />
<glyph glyph-name="Edieresis" unicode="&#xcb;" horiz-adv-x="541" d="M400 787 C418 787 433.333 793 446 805 C458.667 817 465 832 465 850 C465 868 458.667 883.167 446 895.5 C433.333 907.833 418 914 400 914 C382 914 367 907.833 355 895.5 C343 883.167 337 868 337 850 C337 832 343 817 355 805 C367 793 382 787 400 787 L400 787 Z M168 787 C186 787 201 793 213 805 C225 817 231 832 231 850 C231 858.667 229.333 867 226 875 C222.667 883 218.333 889.833 213 895.5 C207.667 901.167 201 905.667 193 909 C185 912.333 176.667 914 168 914 C160.667 914 153.5 912.833 146.5 910.5 C139.5 908.167 133.5 905.167 128.5 901.5 C123.5 897.833 119 893.333 115 888 C111 882.667 108 876.667 106 870 C104 863.333 103 856.667 103 850 C103 832 109 817 121 805 C133 793 148.667 787 168 787 L168 787 Z M185 91 L185 310 L448 310 L448 401 L185 401 L185 620 L482 620 L482 711 L77 711 L77 0 L487 0 L487 91 L185 91 Z " />
<glyph glyph-name="Igrave" unicode="&#xcc;" horiz-adv-x="278" d="M85 0 L193 0 L193 711 L85 711 L85 0 Z M78 935 L-37 935 L90 764 L178 764 L78 935 Z " />
<glyph glyph-name="Iacute" unicode="&#xcd;" horiz-adv-x="278" d="M85 0 L193 0 L193 711 L85 711 L85 0 Z M99 764 L187 764 L314 935 L200 935 L99 764 Z " />
<glyph glyph-name="Icircumflex" unicode="&#xce;" horiz-adv-x="278" d="M93 935 L-49 764 L53 764 L139 872 L228 764 L331 764 L187 935 L93 935 Z M85 0 L193 0 L193 711 L85 711 L85 0 Z " />
<glyph glyph-name="Idieresis" unicode="&#xcf;" horiz-adv-x="278" d="M85 0 L193 0 L193 711 L85 711 L85 0 Z M-38 851 C-38 833 -32 818 -20 806 C-8 794 7.66667 788 27 788 C45 788 60 794 72 806 C84 818 90 833 90 851 C90 869 84 884.167 72 896.5 C60 908.833 45 915 27 915 C7.66667 915 -8 908.833 -20 896.5 C-32 884.167 -38 869 -38 851 L-38 851 Z M195 851 C195 839 197.667 828.167 203 818.5 C208.333 808.833 216 801.333 226 796 C236 790.667 247 788 259 788 C277 788 292 794 304 806 C316 818 322 833 322 851 C322 859.667 320.5 868 317.5 876 C314.5 884 310.167 890.833 304.5 896.5 C298.833 902.167 292 906.667 284 910 C276 913.333 267.667 915 259 915 C240.333 915 225 908.833 213 896.5 C201 884.167 195 869 195 851 L195 851 Z " />
<glyph glyph-name="Eth" unicode="&#xd0;" horiz-adv-x="775" d="M260 92 L260 310 L433 310 L433 399 L260 399 L260 618 L368 618 C398.667 618 427.333 613.667 454 605 C480.667 596.333 504 584.333 524 569 C544 553.667 561.333 535.333 576 514 C590.667 492.667 601.667 469.167 609 443.5 C616.333 417.833 620 391 620 363 C620 311.667 611.333 266 594 226 C576.667 186 548.833 153.667 510.5 129 C472.167 104.333 425.667 92 371 92 L260 92 Z M149 711 L149 399 L65 399 L65 310 L149 310 L149 0 L372 0 C446.667 0 511.5 16 566.5 48 C621.5 80 662.667 123.167 690 177.5 C717.333 231.833 731 293.667 731 363 C731 464.333 697.333 547.667 630 613 C562.667 678.333 476 711 370 711 L149 711 Z " />
<glyph glyph-name="Ntilde" unicode="&#xd1;" horiz-adv-x="716" d="M77 0 L185 0 L185 298 C185 416.667 182.333 511 177 581 L193 550 C203.667 529.333 222.167 495.333 248.5 448 C274.833 400.667 304 350.333 336 297 L512 0 L641 0 L641 711 L531 711 L531 412 C531 288.667 533.333 195 538 131 L523 160 C513 179.333 495 212.5 469 259.5 C443 306.5 413.667 357.667 381 413 L206 711 L77 711 L77 0 Z M494 916 C480.667 885.333 460.667 870 434 870 C420.667 870 399.167 877.333 369.5 892 C339.833 906.667 313.667 914 291 914 C267.667 914 245.833 906.333 225.5 891 C205.167 875.667 190 857 180 835 L232 788 C242.667 804.667 253.5 816.833 264.5 824.5 C275.5 832.167 289.333 836 306 836 C317.333 836 337.333 828.833 366 814.5 C394.667 800.167 419 793 439 793 C463.667 793 486 799.833 506 813.5 C526 827.167 542 846.333 554 871 L494 916 Z " />
<glyph glyph-name="Ograve" unicode="&#xd2;" horiz-adv-x="749" d="M48 358 C48 247.333 77.8333 158.667 137.5 92 C197.167 25.3333 276.667 -8 376 -8 C476 -8 555.167 25.1667 613.5 91.5 C671.833 157.833 701 246.667 701 358 C701 469.333 672 558.167 614 624.5 C556 690.833 476.333 724 375 724 C275.667 724 196.333 690.667 137 624 C77.6667 557.333 48 468.667 48 358 L48 358 Z M163 358.5 C163 440.167 181.833 504.667 219.5 552 C257.167 599.333 309 623 375 623 C419.667 623 458 612.333 490 591 C522 569.667 546.167 539.167 562.5 499.5 C578.833 459.833 587 412.667 587 358 C587 303.333 578.833 256.167 562.5 216.5 C546.167 176.833 522 146.333 490 125 C458 103.667 420 93 376 93 C311.333 93 259.667 116.833 221 164.5 C182.333 212.167 163 276.833 163 358.5 L163 358.5 Z M329 935 L214 935 L341 764 L430 764 L329 935 Z " />
<glyph glyph-name="Oacute" unicode="&#xd3;" horiz-adv-x="749" d="M338 764 L426 764 L553 935 L438 935 L338 764 Z M48 358 C48 247.333 77.8333 158.667 137.5 92 C197.167 25.3333 276.667 -8 376 -8 C476 -8 555.167 25.1667 613.5 91.5 C671.833 157.833 701 246.667 701 358 C701 469.333 672 558.167 614 624.5 C556 690.833 476.333 724 375 724 C275.667 724 196.333 690.667 137 624 C77.6667 557.333 48 468.667 48 358 L48 358 Z M163 358.5 C163 440.167 181.833 504.667 219.5 552 C257.167 599.333 309 623 375 623 C419.667 623 458 612.333 490 591 C522 569.667 546.167 539.167 562.5 499.5 C578.833 459.833 587 412.667 587 358 C587 303.333 578.833 256.167 562.5 216.5 C546.167 176.833 522 146.333 490 125 C458 103.667 420 93 376 93 C311.333 93 259.667 116.833 221 164.5 C182.333 212.167 163 276.833 163 358.5 L163 358.5 Z " />
<glyph glyph-name="Ocircumflex" unicode="&#xd4;" horiz-adv-x="749" d="M163 358.5 C163 440.167 181.833 504.667 219.5 552 C257.167 599.333 309 623 375 623 C419.667 623 458 612.333 490 591 C522 569.667 546.167 539.167 562.5 499.5 C578.833 459.833 587 412.667 587 358 C587 303.333 578.833 256.167 562.5 216.5 C546.167 176.833 522 146.333 490 125 C458 103.667 420 93 376 93 C311.333 93 259.667 116.833 221 164.5 C182.333 212.167 163 276.833 163 358.5 L163 358.5 Z M48 358 C48 247.333 77.8333 158.667 137.5 92 C197.167 25.3333 276.667 -8 376 -8 C476 -8 555.167 25.1667 613.5 91.5 C671.833 157.833 701 246.667 701 358 C701 469.333 672 558.167 614 624.5 C556 690.833 476.333 724 375 724 C275.667 724 196.333 690.667 137 624 C77.6667 557.333 48 468.667 48 358 L48 358 Z M335 935 L192 764 L295 764 L381 872 L470 764 L572 764 L430 935 L335 935 Z " />
<glyph glyph-name="Otilde" unicode="&#xd5;" horiz-adv-x="749" d="M48 358 C48 247.333 77.8333 158.667 137.5 92 C197.167 25.3333 276.667 -8 376 -8 C476 -8 555.167 25.1667 613.5 91.5 C671.833 157.833 701 246.667 701 358 C701 469.333 672 558.167 614 624.5 C556 690.833 476.333 724 375 724 C275.667 724 196.333 690.667 137 624 C77.6667 557.333 48 468.667 48 358 L48 358 Z M163 358.5 C163 440.167 181.833 504.667 219.5 552 C257.167 599.333 309 623 375 623 C419.667 623 458 612.333 490 591 C522 569.667 546.167 539.167 562.5 499.5 C578.833 459.833 587 412.667 587 358 C587 303.333 578.833 256.167 562.5 216.5 C546.167 176.833 522 146.333 490 125 C458 103.667 420 93 376 93 C311.333 93 259.667 116.833 221 164.5 C182.333 212.167 163 276.833 163 358.5 L163 358.5 Z M504 917 C490 886.333 469.667 871 443 871 C429.667 871 408.167 878.333 378.5 893 C348.833 907.667 323 915 301 915 C285 915 269.5 911.167 254.5 903.5 C239.5 895.833 226.5 886.167 215.5 874.5 C204.5 862.833 196 850 190 836 L241 789 C251.667 806.333 262.5 818.667 273.5 826 C284.5 833.333 298.333 837 315 837 C326.333 837 346.333 829.833 375 815.5 C403.667 801.167 428 794 448 794 C472.667 794 495.167 800.833 515.5 814.5 C535.833 828.167 551.667 847.333 563 872 L504 917 Z " />
<glyph glyph-name="Odieresis" unicode="&#xd6;" horiz-adv-x="749" d="M201 850.5 C201 832.167 206.833 817.167 218.5 805.5 C230.167 793.833 245.667 788 265 788 C283 788 298 794 310 806 C322 818 328 833 328 851 C328 869 322 884.167 310 896.5 C298 908.833 283 915 265 915 C245.667 915 230.167 908.833 218.5 896.5 C206.833 884.167 201 868.833 201 850.5 L201 850.5 Z M434 851 C434 833 439.833 818 451.5 806 C463.167 794 478 788 496 788 C514.667 788 530.167 794 542.5 806 C554.833 818 561 833 561 851 C561 869 554.833 884.167 542.5 896.5 C530.167 908.833 514.667 915 496 915 C478.667 915 464 908.833 452 896.5 C440 884.167 434 869 434 851 L434 851 Z M48 358 C48 247.333 77.8333 158.667 137.5 92 C197.167 25.3333 276.667 -8 376 -8 C476 -8 555.167 25.1667 613.5 91.5 C671.833 157.833 701 246.667 701 358 C701 469.333 672 558.167 614 624.5 C556 690.833 476.333 724 375 724 C275.667 724 196.333 690.667 137 624 C77.6667 557.333 48 468.667 48 358 L48 358 Z M163 358.5 C163 440.167 181.833 504.667 219.5 552 C257.167 599.333 309 623 375 623 C419.667 623 458 612.333 490 591 C522 569.667 546.167 539.167 562.5 499.5 C578.833 459.833 587 412.667 587 358 C587 303.333 578.833 256.167 562.5 216.5 C546.167 176.833 522 146.333 490 125 C458 103.667 420 93 376 93 C311.333 93 259.667 116.833 221 164.5 C182.333 212.167 163 276.833 163 358.5 L163 358.5 Z " />
<glyph glyph-name="multiply" unicode="&#xd7;" horiz-adv-x="530" d="M472 497 L404 565 L264 426 L124 565 L57 499 L197 359 L60 222 L128 157 L265 293 L403 156 L470 221 L332 358 L472 497 Z " />
<glyph glyph-name="Oslash" unicode="&#xd8;" horiz-adv-x="723" d="M548 524 C572 480 584 424.667 584 358 C584 274 565.167 208.167 527.5 160.5 C489.833 112.833 437.333 89 370 89 C324 89 284.333 101 251 125 L548 524 Z M192 192 C166.667 234.667 154 290 154 358 C154 441.333 173.167 507 211.5 555 C249.833 603 302.333 627 369 627 C417.667 627 457.667 615.333 489 592 L192 192 Z M697 723 L587 723 L551 675 C499.667 707.667 439 724 369 724 C269 724 189.5 690.833 130.5 624.5 C71.5 558.167 42 469.333 42 358 C42 252.667 69.3333 167 124 101 L42 -8 L151 -8 L190 42 C240 8.66667 300 -8 370 -8 C470 -8 549.333 25.3333 608 92 C666.667 158.667 696 247.333 696 358 C696 463.333 669.667 549 617 615 L697 723 Z " />
<glyph glyph-name="Ugrave" unicode="&#xd9;" horiz-adv-x="687" d="M504 270 C504 150.667 450.333 91 343 91 C295 91 256.333 104.833 227 132.5 C197.667 160.167 183 204.333 183 265 L183 711 L75 711 L75 264 C75 175.333 98.8333 107.667 146.5 61 C194.167 14.3333 259.667 -9 343 -9 C427 -9 493 14.8333 541 62.5 C589 110.167 613 180 613 272 L613 711 L504 711 L504 270 Z M293 935 L177 935 L304 764 L392 764 L293 935 Z " />
<glyph glyph-name="Uacute" unicode="&#xda;" horiz-adv-x="687" d="M313 764 L402 764 L528 935 L413 935 L313 764 Z M504 270 C504 150.667 450.333 91 343 91 C295 91 256.333 104.833 227 132.5 C197.667 160.167 183 204.333 183 265 L183 711 L75 711 L75 264 C75 175.333 98.8333 107.667 146.5 61 C194.167 14.3333 259.667 -9 343 -9 C427 -9 493 14.8333 541 62.5 C589 110.167 613 180 613 272 L613 711 L504 711 L504 270 Z " />
<glyph glyph-name="Ucircumflex" unicode="&#xdb;" horiz-adv-x="687" d="M504 270 C504 150.667 450.333 91 343 91 C295 91 256.333 104.833 227 132.5 C197.667 160.167 183 204.333 183 265 L183 711 L75 711 L75 264 C75 175.333 98.8333 107.667 146.5 61 C194.167 14.3333 259.667 -9 343 -9 C427 -9 493 14.8333 541 62.5 C589 110.167 613 180 613 272 L613 711 L504 711 L504 270 Z M298 935 L156 764 L258 764 L344 872 L433 764 L535 764 L392 935 L298 935 Z " />
<glyph glyph-name="Udieresis" unicode="&#xdc;" horiz-adv-x="687" d="M166 850.5 C166 832.167 171.833 817.167 183.5 805.5 C195.167 793.833 210.667 788 230 788 C248 788 263.167 794 275.5 806 C287.833 818 294 833 294 851 C294 869 287.833 884.167 275.5 896.5 C263.167 908.833 248 915 230 915 C210.667 915 195.167 908.833 183.5 896.5 C171.833 884.167 166 868.833 166 850.5 L166 850.5 Z M399 851 C399 833 405 818 417 806 C429 794 444 788 462 788 C480.667 788 496 794 508 806 C520 818 526 833 526 851 C526 863 523.333 873.833 518 883.5 C512.667 893.167 505.167 900.833 495.5 906.5 C485.833 912.167 474.667 915 462 915 C444 915 429 908.833 417 896.5 C405 884.167 399 869 399 851 L399 851 Z M504 270 C504 150.667 450.333 91 343 91 C295 91 256.333 104.833 227 132.5 C197.667 160.167 183 204.333 183 265 L183 711 L75 711 L75 264 C75 175.333 98.8333 107.667 146.5 61 C194.167 14.3333 259.667 -9 343 -9 C427 -9 493 14.8333 541 62.5 C589 110.167 613 180 613 272 L613 711 L504 711 L504 270 Z " />
<glyph glyph-name="Yacute" unicode="&#xdd;" horiz-adv-x="640" d="M509 935 L393 935 L294 764 L382 764 L509 935 Z M617 711 L492 711 L441 607 C365.667 459.667 324.667 375 318 353 L313 367 C309 377 297.167 403 277.5 445 C257.833 487 232 541 200 607 L148 711 L25 711 L265 265 L265 0 L373 0 L373 265 L617 711 Z " />
<glyph glyph-name="Thorn" unicode="&#xde;" horiz-adv-x="573" d="M185 216 L185 494 L273 494 C327 494 367 480.833 393 454.5 C419 428.167 432 393.667 432 351 C432 311 419 278.5 393 253.5 C367 228.5 329 216 279 216 L185 216 Z M185 584 L185 711 L77 711 L77 0 L185 0 L185 127 L281 127 C359.667 127 422.667 147.667 470 189 C517.333 230.333 541 285 541 353 C541 421.667 517.5 477.333 470.5 520 C423.5 562.667 358.333 584 275 584 L185 584 Z " />
<glyph glyph-name="germandbls" unicode="&#xdf;" horiz-adv-x="588" d="M278 8 C304 -2.66667 337.667 -8 379 -8 C435.667 -8 480 6.66667 512 36 C544 65.3333 560 103.333 560 150 C560 176.667 555 200.833 545 222.5 C535 244.167 522.667 261.833 508 275.5 C493.333 289.167 478.833 301.667 464.5 313 C450.167 324.333 437.833 335.667 427.5 347 C417.167 358.333 412 369.333 412 380 C412 389.333 414.5 398.667 419.5 408 C424.5 417.333 430.833 426.667 438.5 436 C446.167 445.333 453.667 455.5 461 466.5 C468.333 477.5 474.5 491.167 479.5 507.5 C484.5 523.833 487 541.333 487 560 C487 606.667 468.833 646.333 432.5 679 C396.167 711.667 348 728 288 728 C222 728 170 709.667 132 673 C94 636.333 75 583 75 513 L75 0 L177 0 L177 517 C177 594.333 214.333 633 289 633 C317.667 633 340.333 626 357 612 C373.667 598 382 579 382 555 C382 541.667 379.333 528.667 374 516 C368.667 503.333 362.167 491.833 354.5 481.5 L331.5 450.5 C323.833 440.167 317.333 428.167 312 414.5 C306.667 400.833 304 386.333 304 371 C304 353 307.833 336.333 315.5 321 C323.167 305.667 332.667 292.833 344 282.5 C355.333 272.167 367.833 261.667 381.5 251 C395.167 240.333 407.667 230.333 419 221 C430.333 211.667 439.833 200.667 447.5 188 C455.167 175.333 459 161.667 459 147 C459 126.333 451.167 109.667 435.5 97 C419.833 84.3333 399 78 373 78 C339.667 78 308 86.3333 278 103 L278 8 Z " />
<glyph glyph-name="agrave" unicode="&#xe0;" horiz-adv-x="525" d="M317 588 L217 759 L102 759 L229 588 L317 588 Z M354 238 L354 178 C354 148 344.5 123.667 325.5 105 C306.5 86.3333 280 77 246 77 C216.667 77 194.333 84.1667 179 98.5 C163.667 112.833 156 132.333 156 157 C156 180.333 165.833 199.667 185.5 215 C205.167 230.333 234.667 238 274 238 L354 238 Z M85 407 C131 438.333 182.667 454 240 454 C281.333 454 310.667 444.667 328 426 C345.333 407.333 354 380 354 344 L354 313 L266 313 C196.667 313 142.5 298.667 103.5 270 C64.5 241.333 45 201.333 45 150 C45 105.333 60.3333 68.5 91 39.5 C121.667 10.5 162.333 -4 213 -4 C251 -4 281.833 2.5 305.5 15.5 C329.167 28.5 346.333 44.3333 357 63 L357 0 L459 0 L459 340 C459 407.333 442.167 458 408.5 492 C374.833 526 322 543 250 543 C229.333 543 208.333 541.333 187 538 C165.667 534.667 146.333 530.5 129 525.5 C111.667 520.5 97 514.667 85 508 L85 407 Z " />
<glyph glyph-name="aacute" unicode="&#xe1;" horiz-adv-x="525" d="M442 759 L327 759 L227 588 L315 588 L442 759 Z M354 238 L354 178 C354 148 344.5 123.667 325.5 105 C306.5 86.3333 280 77 246 77 C216.667 77 194.333 84.1667 179 98.5 C163.667 112.833 156 132.333 156 157 C156 180.333 165.833 199.667 185.5 215 C205.167 230.333 234.667 238 274 238 L354 238 Z M85 407 C131 438.333 182.667 454 240 454 C281.333 454 310.667 444.667 328 426 C345.333 407.333 354 380 354 344 L354 313 L266 313 C196.667 313 142.5 298.667 103.5 270 C64.5 241.333 45 201.333 45 150 C45 105.333 60.3333 68.5 91 39.5 C121.667 10.5 162.333 -4 213 -4 C251 -4 281.833 2.5 305.5 15.5 C329.167 28.5 346.333 44.3333 357 63 L357 0 L459 0 L459 340 C459 407.333 442.167 458 408.5 492 C374.833 526 322 543 250 543 C229.333 543 208.333 541.333 187 538 C165.667 534.667 146.333 530.5 129 525.5 C111.667 520.5 97 514.667 85 508 L85 407 Z " />
<glyph glyph-name="acircumflex" unicode="&#xe2;" horiz-adv-x="525" d="M268 696 L356 588 L458 588 L316 759 L221 759 L79 588 L181 588 L268 696 Z M354 238 L354 178 C354 148 344.5 123.667 325.5 105 C306.5 86.3333 280 77 246 77 C216.667 77 194.333 84.1667 179 98.5 C163.667 112.833 156 132.333 156 157 C156 180.333 165.833 199.667 185.5 215 C205.167 230.333 234.667 238 274 238 L354 238 Z M85 407 C131 438.333 182.667 454 240 454 C281.333 454 310.667 444.667 328 426 C345.333 407.333 354 380 354 344 L354 313 L266 313 C196.667 313 142.5 298.667 103.5 270 C64.5 241.333 45 201.333 45 150 C45 105.333 60.3333 68.5 91 39.5 C121.667 10.5 162.333 -4 213 -4 C251 -4 281.833 2.5 305.5 15.5 C329.167 28.5 346.333 44.3333 357 63 L357 0 L459 0 L459 340 C459 407.333 442.167 458 408.5 492 C374.833 526 322 543 250 543 C229.333 543 208.333 541.333 187 538 C165.667 534.667 146.333 530.5 129 525.5 C111.667 520.5 97 514.667 85 508 L85 407 Z " />
<glyph glyph-name="atilde" unicode="&#xe3;" horiz-adv-x="525" d="M393 740 C379.667 709.333 359.667 694 333 694 C319.667 694 298 701.167 268 715.5 C238 729.833 212 737 190 737 C166 737 144 729.5 124 714.5 C104 699.5 89 681 79 659 L131 612 C141.667 628.667 152.5 640.833 163.5 648.5 C174.5 656.167 188.333 660 205 660 C216.333 660 236.333 652.833 265 638.5 C293.667 624.167 318 617 338 617 C362.667 617 384.833 623.833 404.5 637.5 C424.167 651.167 440 670.333 452 695 L393 740 Z M354 238 L354 178 C354 148 344.5 123.667 325.5 105 C306.5 86.3333 280 77 246 77 C216.667 77 194.333 84.1667 179 98.5 C163.667 112.833 156 132.333 156 157 C156 180.333 165.833 199.667 185.5 215 C205.167 230.333 234.667 238 274 238 L354 238 Z M85 407 C131 438.333 182.667 454 240 454 C281.333 454 310.667 444.667 328 426 C345.333 407.333 354 380 354 344 L354 313 L266 313 C196.667 313 142.5 298.667 103.5 270 C64.5 241.333 45 201.333 45 150 C45 105.333 60.3333 68.5 91 39.5 C121.667 10.5 162.333 -4 213 -4 C251 -4 281.833 2.5 305.5 15.5 C329.167 28.5 346.333 44.3333 357 63 L357 0 L459 0 L459 340 C459 407.333 442.167 458 408.5 492 C374.833 526 322 543 250 543 C229.333 543 208.333 541.333 187 538 C165.667 534.667 146.333 530.5 129 525.5 C111.667 520.5 97 514.667 85 508 L85 407 Z " />
<glyph glyph-name="adieresis" unicode="&#xe4;" horiz-adv-x="525" d="M386 610 C404.667 610 420 615.833 432 627.5 C444 639.167 450 654.333 450 673 C450 684.333 447.333 695 442 705 C436.667 715 429 722.667 419 728 C409 733.333 398 736 386 736 C368 736 352.833 730 340.5 718 C328.167 706 322 691 322 673 C322 655 328.167 640 340.5 628 C352.833 616 368 610 386 610 L386 610 Z M154 610 C172.667 610 187.833 616 199.5 628 C211.167 640 217 655 217 673 C217 691 211 706 199 718 C187 730 172 736 154 736 C135.333 736 120 730 108 718 C96 706 90 690.833 90 672.5 C90 654.167 96 639.167 108 627.5 C120 615.833 135.333 610 154 610 L154 610 Z M354 238 L354 178 C354 148 344.5 123.667 325.5 105 C306.5 86.3333 280 77 246 77 C216.667 77 194.333 84.1667 179 98.5 C163.667 112.833 156 132.333 156 157 C156 180.333 165.833 199.667 185.5 215 C205.167 230.333 234.667 238 274 238 L354 238 Z M85 407 C131 438.333 182.667 454 240 454 C281.333 454 310.667 444.667 328 426 C345.333 407.333 354 380 354 344 L354 313 L266 313 C196.667 313 142.5 298.667 103.5 270 C64.5 241.333 45 201.333 45 150 C45 105.333 60.3333 68.5 91 39.5 C121.667 10.5 162.333 -4 213 -4 C251 -4 281.833 2.5 305.5 15.5 C329.167 28.5 346.333 44.3333 357 63 L357 0 L459 0 L459 340 C459 407.333 442.167 458 408.5 492 C374.833 526 322 543 250 543 C229.333 543 208.333 541.333 187 538 C165.667 534.667 146.333 530.5 129 525.5 C111.667 520.5 97 514.667 85 508 L85 407 Z " />
<glyph glyph-name="aring" unicode="&#xe5;" horiz-adv-x="525" d="M270 757 C286 757 299.5 751.5 310.5 740.5 C321.5 729.5 327 716 327 700 C327 690 324.5 680.667 319.5 672 C314.5 663.333 307.667 656.333 299 651 C290.333 645.667 280.667 643 270 643 C254 643 240.667 648.667 230 660 C219.333 671.333 214 684.833 214 700.5 C214 716.167 219.333 729.5 230 740.5 C240.667 751.5 254 757 270 757 L270 757 Z M270 578 C304 578 332.833 589.667 356.5 613 C380.167 636.333 392 664.667 392 698 C392 720.667 386.667 741.333 376 760 C365.333 778.667 350.5 793.5 331.5 804.5 C312.5 815.5 292 821 270 821 C236.667 821 208.167 809 184.5 785 C160.833 761 149 732 149 698 C149 676 154.333 655.833 165 637.5 C175.667 619.167 190.333 604.667 209 594 C227.667 583.333 248 578 270 578 L270 578 Z M354 238 L354 178 C354 148 344.5 123.667 325.5 105 C306.5 86.3333 280 77 246 77 C216.667 77 194.333 84.1667 179 98.5 C163.667 112.833 156 132.333 156 157 C156 180.333 165.833 199.667 185.5 215 C205.167 230.333 234.667 238 274 238 L354 238 Z M85 407 C131 438.333 182.667 454 240 454 C281.333 454 310.667 444.667 328 426 C345.333 407.333 354 380 354 344 L354 313 L266 313 C196.667 313 142.5 298.667 103.5 270 C64.5 241.333 45 201.333 45 150 C45 105.333 60.3333 68.5 91 39.5 C121.667 10.5 162.333 -4 213 -4 C251 -4 281.833 2.5 305.5 15.5 C329.167 28.5 346.333 44.3333 357 63 L357 0 L459 0 L459 340 C459 407.333 442.167 458 408.5 492 C374.833 526 322 543 250 543 C229.333 543 208.333 541.333 187 538 C165.667 534.667 146.333 530.5 129 525.5 C111.667 520.5 97 514.667 85 508 L85 407 Z " />
<glyph glyph-name="ae" unicode="&#xe6;" horiz-adv-x="860" d="M359 184 C359 152.667 348.833 127.167 328.5 107.5 C308.167 87.8333 282.333 78 251 78 C221.667 78 199.167 85 183.5 99 C167.833 113 160 132 160 156 C160 173.333 164.833 188 174.5 200 C184.167 212 198.667 221.167 218 227.5 C237.333 233.833 261 237 289 237 L359 237 L359 184 Z M718 306 L460 306 C466 354.667 482.167 391.667 508.5 417 C534.833 442.333 565.333 455 600 455 C636.667 455 665.167 443.667 685.5 421 C705.833 398.333 716.667 366 718 324 L718 306 Z M812 225 C816.667 251.667 819 273.333 819 290 C819 372 799.833 434.333 761.5 477 C723.167 519.667 669 541 599 541 C561 541 526.5 533.333 495.5 518 C464.5 502.667 439.333 481 420 453 C408 481.667 387.667 503.833 359 519.5 C330.333 535.167 294.333 543 251 543 C185 543 131.667 531 91 507 L91 408 C111.667 422 135.833 433.167 163.5 441.5 C191.167 449.833 218.667 454 246 454 C287.333 454 316.5 444.833 333.5 426.5 C350.5 408.167 359 380.667 359 344 L359 314 L273 314 C238.333 314 207 310.333 179 303 C151 295.667 127.667 285 109 271 C90.3333 257 75.8333 239.667 65.5 219 C55.1667 198.333 50 175.333 50 150 C50 118.667 57.3333 91.3333 72 68 C86.6667 44.6667 107.333 26.6667 134 14 C160.667 1.33333 192 -5 228 -5 C276 -5 316 5 348 25 C380 45 402.667 70.3333 416 101 C436.667 67.6667 466.5 41.6667 505.5 23 C544.5 4.33333 586 -5 630 -5 C647.333 -5 665 -3.83333 683 -1.5 C701 0.833328 718.833 4.66667 736.5 10 C754.167 15.3333 769.333 21.6667 782 29 L782 122 C744.667 94.6667 697.667 81 641 81 C594.333 81 555 93.3333 523 118 C491 142.667 471.333 178.333 464 225 L812 225 Z " />
<glyph glyph-name="ccedilla" unicode="&#xe7;" horiz-adv-x="496" d="M149 265 C149 291.667 153.333 316.5 162 339.5 C170.667 362.5 182.833 382.333 198.5 399 C214.167 415.667 233.667 428.667 257 438 C280.333 447.333 306 452 334 452 C378.667 452 417.333 441.333 450 420 L450 515 C413.333 534.333 370.667 544 322 544 C264.667 544 214.333 530.833 171 504.5 C127.667 478.167 95.5 444.167 74.5 402.5 C53.5 360.833 43 315.333 43 266 C43 187.333 68 121.667 118 69 C168 16.3333 234.667 -10 318 -10 C371.333 -10 415.333 0.333328 450 21 L450 114 C412 90.6667 373 79 333 79 C275.667 79 231 96.5 199 131.5 C167 166.5 150.333 211 149 265 L149 265 Z M367 -130 C367 -96.6667 360.667 -71.3333 348 -54 L260 -54 C277.333 -82 286 -106.333 286 -127 C286 -148.333 278.667 -165.5 264 -178.5 C249.333 -191.5 228 -198.667 200 -200 L200 -271 C254 -269.667 295.333 -255.667 324 -229 C352.667 -202.333 367 -169.333 367 -130 L367 -130 Z " />
<glyph glyph-name="egrave" unicode="&#xe8;" horiz-adv-x="553" d="M342 588 L241 759 L127 759 L253 588 L342 588 Z M405 306 L146 306 C152 354 167.667 390.833 193 416.5 C218.333 442.167 248.667 455 284 455 C322 455 351.333 443.333 372 420 C392.667 396.667 403.667 364.667 405 324 L405 306 Z M472 122 C434.667 94.6667 387 81 329 81 C279.667 81 238.833 93.3333 206.5 118 C174.167 142.667 154.333 178.333 147 225 L499 225 C503 248.333 505 271.333 505 294 C505 374 485 435.167 445 477.5 C405 519.833 350.667 541 282 541 C212.667 541 155.5 516.5 110.5 467.5 C65.5 418.5 43 351.333 43 266 C43 212.667 54 165.667 76 125 C98 84.3333 129.667 52.5 171 29.5 C212.333 6.5 260.333 -5 315 -5 C341.667 -5 369.833 -2 399.5 4 C429.167 10 453.333 18.3333 472 29 L472 122 Z " />
<glyph glyph-name="eacute" unicode="&#xe9;" horiz-adv-x="553" d="M473 759 L357 759 L258 588 L346 588 L473 759 Z M405 306 L146 306 C152 354 167.667 390.833 193 416.5 C218.333 442.167 248.667 455 284 455 C322 455 351.333 443.333 372 420 C392.667 396.667 403.667 364.667 405 324 L405 306 Z M472 122 C434.667 94.6667 387 81 329 81 C279.667 81 238.833 93.3333 206.5 118 C174.167 142.667 154.333 178.333 147 225 L499 225 C503 248.333 505 271.333 505 294 C505 374 485 435.167 445 477.5 C405 519.833 350.667 541 282 541 C212.667 541 155.5 516.5 110.5 467.5 C65.5 418.5 43 351.333 43 266 C43 212.667 54 165.667 76 125 C98 84.3333 129.667 52.5 171 29.5 C212.333 6.5 260.333 -5 315 -5 C341.667 -5 369.833 -2 399.5 4 C429.167 10 453.333 18.3333 472 29 L472 122 Z " />
<glyph glyph-name="ecircumflex" unicode="&#xea;" horiz-adv-x="553" d="M293 696 L381 588 L483 588 L341 759 L246 759 L103 588 L206 588 L293 696 Z M405 306 L146 306 C152 354 167.667 390.833 193 416.5 C218.333 442.167 248.667 455 284 455 C322 455 351.333 443.333 372 420 C392.667 396.667 403.667 364.667 405 324 L405 306 Z M472 122 C434.667 94.6667 387 81 329 81 C279.667 81 238.833 93.3333 206.5 118 C174.167 142.667 154.333 178.333 147 225 L499 225 C503 248.333 505 271.333 505 294 C505 374 485 435.167 445 477.5 C405 519.833 350.667 541 282 541 C212.667 541 155.5 516.5 110.5 467.5 C65.5 418.5 43 351.333 43 266 C43 212.667 54 165.667 76 125 C98 84.3333 129.667 52.5 171 29.5 C212.333 6.5 260.333 -5 315 -5 C341.667 -5 369.833 -2 399.5 4 C429.167 10 453.333 18.3333 472 29 L472 122 Z " />
<glyph glyph-name="edieresis" unicode="&#xeb;" horiz-adv-x="553" d="M413 612 C431.667 612 447.167 618 459.5 630 C471.833 642 478 657 478 675 C478 693 471.833 708.167 459.5 720.5 C447.167 732.833 431.667 739 413 739 C395 739 380 732.833 368 720.5 C356 708.167 350 693 350 675 C350 657 356 642 368 630 C380 618 395 612 413 612 L413 612 Z M181 612 C199 612 214.167 618 226.5 630 C238.833 642 245 657 245 675 C245 693 238.833 708.167 226.5 720.5 C214.167 732.833 199 739 181 739 C162.333 739 147 732.833 135 720.5 C123 708.167 117 692.833 117 674.5 C117 656.167 123 641.167 135 629.5 C147 617.833 162.333 612 181 612 L181 612 Z M405 306 L146 306 C152 354 167.667 390.833 193 416.5 C218.333 442.167 248.667 455 284 455 C322 455 351.333 443.333 372 420 C392.667 396.667 403.667 364.667 405 324 L405 306 Z M472 122 C434.667 94.6667 387 81 329 81 C279.667 81 238.833 93.3333 206.5 118 C174.167 142.667 154.333 178.333 147 225 L499 225 C503 248.333 505 271.333 505 294 C505 374 485 435.167 445 477.5 C405 519.833 350.667 541 282 541 C212.667 541 155.5 516.5 110.5 467.5 C65.5 418.5 43 351.333 43 266 C43 212.667 54 165.667 76 125 C98 84.3333 129.667 52.5 171 29.5 C212.333 6.5 260.333 -5 315 -5 C341.667 -5 369.833 -2 399.5 4 C429.167 10 453.333 18.3333 472 29 L472 122 Z " />
<glyph glyph-name="igrave" unicode="&#xec;" horiz-adv-x="257" d="M77 0 L181 0 L181 535 L77 535 L77 0 Z M67 759 L-48 759 L78 588 L167 588 L67 759 Z " />
<glyph glyph-name="iacute" unicode="&#xed;" horiz-adv-x="257" d="M77 0 L181 0 L181 535 L77 535 L77 0 Z M93 588 L181 588 L308 759 L193 759 L93 588 Z " />
<glyph glyph-name="icircumflex" unicode="&#xee;" horiz-adv-x="257" d="M83 759 L-59 588 L43 588 L130 696 L218 588 L320 588 L178 759 L83 759 Z M77 0 L181 0 L181 535 L77 535 L77 0 Z " />
<glyph glyph-name="idieresis" unicode="&#xef;" horiz-adv-x="257" d="M77 0 L181 0 L181 535 L77 535 L77 0 Z M-50 675.5 C-50 657.167 -44.1667 642.167 -32.5 630.5 C-20.8333 618.833 -5.66667 613 13 613 C31.6667 613 47 619 59 631 C71 643 77 658 77 676 C77 694 70.8333 709.167 58.5 721.5 C46.1667 733.833 31 740 13 740 C-5.66667 740 -20.8333 733.833 -32.5 721.5 C-44.1667 709.167 -50 693.833 -50 675.5 L-50 675.5 Z M182 676 C182 664 184.833 653.167 190.5 643.5 C196.167 633.833 203.833 626.333 213.5 621 C223.167 615.667 234 613 246 613 C264.667 613 280 619 292 631 C304 643 310 658 310 676 C310 688 307.333 698.833 302 708.5 C296.667 718.167 289 725.833 279 731.5 C269 737.167 258 740 246 740 C228 740 212.833 733.833 200.5 721.5 C188.167 709.167 182 694 182 676 L182 676 Z " />
<glyph glyph-name="eth" unicode="&#xf0;" horiz-adv-x="556" d="M270 84 C232.667 84 202.667 95.3333 180 118 C157.333 140.667 146 171 146 209 C146 235.667 151.167 258.833 161.5 278.5 C171.833 298.167 185.833 312.833 203.5 322.5 C221.167 332.167 241.667 337 265 337 C321 337 368.333 312.667 407 264 C403.667 200.667 389.333 154.833 364 126.5 C338.667 98.1667 307.333 84 270 84 L270 84 Z M486 643 L486 713 L359 650 C335 675.333 311 695.667 287 711 L137 711 C189.667 681 235.333 646.333 274 607 L169 554 L169 483 L317 558 C362.333 498 391 433 403 363 C361 406.333 309.667 428 249 428 C190.333 428 140.667 408.833 100 370.5 C59.3333 332.167 39 280 39 214 C39 174 48 137.167 66 103.5 C84 69.8333 110.833 42.6667 146.5 22 C182.167 1.33333 223.333 -9 270 -9 C344.667 -9 403.333 17.1667 446 69.5 C488.667 121.833 510 195.333 510 290 C510 401.333 474 504.667 402 600 L486 643 Z " />
<glyph glyph-name="ntilde" unicode="&#xf1;" horiz-adv-x="580" d="M426 740 C412.667 709.333 392.333 694 365 694 C351.667 694 330.167 701.167 300.5 715.5 C270.833 729.833 244.667 737 222 737 C198.667 737 177 729.5 157 714.5 C137 699.5 122 681 112 659 L164 612 C171.333 623.333 178.167 632.333 184.5 639 C190.833 645.667 198.333 650.833 207 654.5 C215.667 658.167 225.667 660 237 660 C248.333 660 268.333 652.833 297 638.5 C325.667 624.167 350 617 370 617 C394.667 617 417 623.833 437 637.5 C457 651.167 473 670.333 485 695 L426 740 Z M176 535 L73 535 L73 0 L176 0 L176 290 C176 341.333 189 381.167 215 409.5 C241 437.833 272.333 452 309 452 C340.333 452 365.167 442.333 383.5 423 C401.833 403.667 411 375.333 411 338 L411 0 L515 0 L515 362 C515 417.333 499.5 461.167 468.5 493.5 C437.5 525.833 395.667 542 343 542 C263.667 542 208 509 176 443 L176 535 Z " />
<glyph glyph-name="ograve" unicode="&#xf2;" horiz-adv-x="594" d="M297 -9 C376.333 -9 438.667 17 484 69 C529.333 121 552 187 552 267 C552 347 529.833 412.833 485.5 464.5 C441.167 516.167 378.333 542 297 542 C220.333 542 158.833 515.5 112.5 462.5 C66.1667 409.5 43 343 43 263 C43 184.333 65.5 119.333 110.5 68 C155.5 16.6667 217.667 -9 297 -9 L297 -9 Z M296 454 C330 454 358.333 445 381 427 C403.667 409 419.667 386.333 429 359 C438.333 331.667 443 300.333 443 265 C443 211 430.5 166.333 405.5 131 C380.5 95.6667 344.333 78 297 78 C252.333 78 216.667 96.1667 190 132.5 C163.333 168.833 150 213.333 150 266 C150 291.333 153.167 315.167 159.5 337.5 C165.833 359.833 175 379.833 187 397.5 C199 415.167 214.333 429 233 439 C251.667 449 272.667 454 296 454 L296 454 Z M247 759 L132 759 L259 588 L347 588 L247 759 Z " />
<glyph glyph-name="oacute" unicode="&#xf3;" horiz-adv-x="594" d="M266 588 L354 588 L481 759 L366 759 L266 588 Z M297 -9 C376.333 -9 438.667 17 484 69 C529.333 121 552 187 552 267 C552 347 529.833 412.833 485.5 464.5 C441.167 516.167 378.333 542 297 542 C220.333 542 158.833 515.5 112.5 462.5 C66.1667 409.5 43 343 43 263 C43 184.333 65.5 119.333 110.5 68 C155.5 16.6667 217.667 -9 297 -9 L297 -9 Z M296 454 C330 454 358.333 445 381 427 C403.667 409 419.667 386.333 429 359 C438.333 331.667 443 300.333 443 265 C443 211 430.5 166.333 405.5 131 C380.5 95.6667 344.333 78 297 78 C252.333 78 216.667 96.1667 190 132.5 C163.333 168.833 150 213.333 150 266 C150 291.333 153.167 315.167 159.5 337.5 C165.833 359.833 175 379.833 187 397.5 C199 415.167 214.333 429 233 439 C251.667 449 272.667 454 296 454 L296 454 Z " />
<glyph glyph-name="ocircumflex" unicode="&#xf4;" horiz-adv-x="594" d="M296 454 C330 454 358.333 445 381 427 C403.667 409 419.667 386.333 429 359 C438.333 331.667 443 300.333 443 265 C443 211 430.5 166.333 405.5 131 C380.5 95.6667 344.333 78 297 78 C252.333 78 216.667 96.1667 190 132.5 C163.333 168.833 150 213.333 150 266 C150 291.333 153.167 315.167 159.5 337.5 C165.833 359.833 175 379.833 187 397.5 C199 415.167 214.333 429 233 439 C251.667 449 272.667 454 296 454 L296 454 Z M297 -9 C376.333 -9 438.667 17 484 69 C529.333 121 552 187 552 267 C552 347 529.833 412.833 485.5 464.5 C441.167 516.167 378.333 542 297 542 C220.333 542 158.833 515.5 112.5 462.5 C66.1667 409.5 43 343 43 263 C43 184.333 65.5 119.333 110.5 68 C155.5 16.6667 217.667 -9 297 -9 L297 -9 Z M253 758 L111 587 L213 587 L300 695 L388 587 L490 587 L348 758 L253 758 Z " />
<glyph glyph-name="otilde" unicode="&#xf5;" horiz-adv-x="594" d="M297 -9 C376.333 -9 438.667 17 484 69 C529.333 121 552 187 552 267 C552 347 529.833 412.833 485.5 464.5 C441.167 516.167 378.333 542 297 542 C220.333 542 158.833 515.5 112.5 462.5 C66.1667 409.5 43 343 43 263 C43 184.333 65.5 119.333 110.5 68 C155.5 16.6667 217.667 -9 297 -9 L297 -9 Z M296 454 C330 454 358.333 445 381 427 C403.667 409 419.667 386.333 429 359 C438.333 331.667 443 300.333 443 265 C443 211 430.5 166.333 405.5 131 C380.5 95.6667 344.333 78 297 78 C252.333 78 216.667 96.1667 190 132.5 C163.333 168.833 150 213.333 150 266 C150 291.333 153.167 315.167 159.5 337.5 C165.833 359.833 175 379.833 187 397.5 C199 415.167 214.333 429 233 439 C251.667 449 272.667 454 296 454 L296 454 Z M428 740 C414.667 709.333 394.333 694 367 694 C353.667 694 332.167 701.167 302.5 715.5 C272.833 729.833 247 737 225 737 C201 737 179 729.5 159 714.5 C139 699.5 124 681 114 659 L166 612 C171.333 620.667 176.333 627.667 181 633 C185.667 638.333 191 643.167 197 647.5 C203 651.833 209.333 655 216 657 C222.667 659 230.333 660 239 660 C250.333 660 270.333 652.833 299 638.5 C327.667 624.167 352 617 372 617 C396.667 617 419 623.833 439 637.5 C459 651.167 475 670.333 487 695 L428 740 Z " />
<glyph glyph-name="odieresis" unicode="&#xf6;" horiz-adv-x="594" d="M127 673.5 C127 655.167 132.833 640.167 144.5 628.5 C156.167 616.833 171.667 611 191 611 C202.333 611 213 613.667 223 619 C233 624.333 240.667 631.833 246 641.5 C251.333 651.167 254 662 254 674 C254 692 248 707 236 719 C224 731 209 737 191 737 C171.667 737 156.167 731 144.5 719 C132.833 707 127 691.833 127 673.5 L127 673.5 Z M359 674 C359 656 365.167 641 377.5 629 C389.833 617 405 611 423 611 C441.667 611 457 617 469 629 C481 641 487 656 487 674 C487 685.333 484.333 696 479 706 C473.667 716 466.167 723.667 456.5 729 C446.833 734.333 435.667 737 423 737 C405 737 389.833 731 377.5 719 C365.167 707 359 692 359 674 L359 674 Z M297 -9 C376.333 -9 438.667 17 484 69 C529.333 121 552 187 552 267 C552 347 529.833 412.833 485.5 464.5 C441.167 516.167 378.333 542 297 542 C220.333 542 158.833 515.5 112.5 462.5 C66.1667 409.5 43 343 43 263 C43 184.333 65.5 119.333 110.5 68 C155.5 16.6667 217.667 -9 297 -9 L297 -9 Z M296 454 C330 454 358.333 445 381 427 C403.667 409 419.667 386.333 429 359 C438.333 331.667 443 300.333 443 265 C443 211 430.5 166.333 405.5 131 C380.5 95.6667 344.333 78 297 78 C252.333 78 216.667 96.1667 190 132.5 C163.333 168.833 150 213.333 150 266 C150 291.333 153.167 315.167 159.5 337.5 C165.833 359.833 175 379.833 187 397.5 C199 415.167 214.333 429 233 439 C251.667 449 272.667 454 296 454 L296 454 Z " />
<glyph glyph-name="divide" unicode="&#xf7;" horiz-adv-x="594" d="M233 545.5 C233 528.5 239.167 513.833 251.5 501.5 C263.833 489.167 278.667 483 296 483 C306.667 483 316.833 485.833 326.5 491.5 C336.167 497.167 343.667 504.833 349 514.5 C354.333 524.167 357 534.667 357 546 C357 562.667 351 577.333 339 590 C327 602.667 312.5 609 295.5 609 C278.5 609 263.833 602.667 251.5 590 C239.167 577.333 233 562.5 233 545.5 L233 545.5 Z M56 312 L538 312 L538 405 L56 405 L56 312 Z M233 170.5 C233 153.5 239.167 138.833 251.5 126.5 C263.833 114.167 278.5 108 295.5 108 C312.5 108 327 114.167 339 126.5 C351 138.833 357 153.667 357 171 C357 182.333 354.333 192.833 349 202.5 C343.667 212.167 336.167 219.833 326.5 225.5 C316.833 231.167 306.667 234 296 234 C278.667 234 263.833 227.667 251.5 215 C239.167 202.333 233 187.5 233 170.5 L233 170.5 Z " />
<glyph glyph-name="oslash" unicode="&#xf8;" horiz-adv-x="593" d="M441 380 C456.333 348 464 309.667 464 265 C464 208.333 450.5 161.5 423.5 124.5 C396.5 87.5 357.667 69 307 69 C276.333 69 249.667 77 227 93 L441 380 Z M175 156 C158.333 190 150 226.667 150 266 C150 322 163.667 369.167 191 407.5 C218.333 445.833 256.667 465 306 465 C337.333 465 364.667 457.333 388 442 L175 156 Z M562 542 L464 542 L439 510 C401.667 531.333 357.333 542 306 542 C230 542 168.833 515.5 122.5 462.5 C76.1667 409.5 53 343 53 263 C53 187.667 73.6667 124.667 115 74 L53 -9 L150 -9 L175 24 C213.667 2 257.333 -9 306 -9 C386 -9 448.667 17 494 69 C539.333 121 562 187 562 267 C562 344.333 541.333 408 500 458 L562 542 Z " />
<glyph glyph-name="ugrave" unicode="&#xf9;" horiz-adv-x="580" d="M336 587 L235 758 L121 758 L247 587 L336 587 Z M405 535 L405 244 C405 192.667 393 152.833 369 124.5 C345 96.1667 312.667 82 272 82 C240.667 82 216 91.6667 198 111 C180 130.333 171 158.333 171 195 L171 535 L67 535 L67 170 C67 114.667 82.3333 71.5 113 40.5 C143.667 9.5 185.333 -6 238 -6 C320 -6 375.667 26.6667 405 92 L405 0 L509 0 L509 535 L405 535 Z " />
<glyph glyph-name="uacute" unicode="&#xfa;" horiz-adv-x="580" d="M469 759 L353 759 L253 588 L342 588 L469 759 Z M405 535 L405 244 C405 192.667 393 152.833 369 124.5 C345 96.1667 312.667 82 272 82 C240.667 82 216 91.6667 198 111 C180 130.333 171 158.333 171 195 L171 535 L67 535 L67 170 C67 114.667 82.3333 71.5 113 40.5 C143.667 9.5 185.333 -6 238 -6 C320 -6 375.667 26.6667 405 92 L405 0 L509 0 L509 535 L405 535 Z " />
<glyph glyph-name="ucircumflex" unicode="&#xfb;" horiz-adv-x="580" d="M289 696 L378 588 L480 588 L338 759 L243 759 L100 588 L203 588 L289 696 Z M405 535 L405 244 C405 192.667 393 152.833 369 124.5 C345 96.1667 312.667 82 272 82 C240.667 82 216 91.6667 198 111 C180 130.333 171 158.333 171 195 L171 535 L67 535 L67 170 C67 114.667 82.3333 71.5 113 40.5 C143.667 9.5 185.333 -6 238 -6 C320 -6 375.667 26.6667 405 92 L405 0 L509 0 L509 535 L405 535 Z " />
<glyph glyph-name="udieresis" unicode="&#xfc;" horiz-adv-x="580" d="M406 611 C424.667 611 440.167 617 452.5 629 C464.833 641 471 656 471 674 C471 692 464.833 707 452.5 719 C440.167 731 424.667 737 406 737 C388 737 373 731 361 719 C349 707 343 692 343 674 C343 656 349 641 361 629 C373 617 388 611 406 611 L406 611 Z M174 611 C192 611 207 617 219 629 C231 641 237 656 237 674 C237 692 231 707 219 719 C207 731 192 737 174 737 C155.333 737 139.833 731 127.5 719 C115.167 707 109 691.833 109 673.5 C109 655.167 115.167 640.167 127.5 628.5 C139.833 616.833 155.333 611 174 611 L174 611 Z M405 535 L405 244 C405 192.667 393 152.833 369 124.5 C345 96.1667 312.667 82 272 82 C240.667 82 216 91.6667 198 111 C180 130.333 171 158.333 171 195 L171 535 L67 535 L67 170 C67 114.667 82.3333 71.5 113 40.5 C143.667 9.5 185.333 -6 238 -6 C320 -6 375.667 26.6667 405 92 L405 0 L509 0 L509 535 L405 535 Z " />
<glyph glyph-name="yacute" unicode="&#xfd;" horiz-adv-x="531" d="M235 588 L323 588 L450 759 L336 759 L235 588 Z M220 11 C192.667 -63.6667 145 -101 77 -101 C64.3333 -101 52.3333 -99.6667 41 -97 L41 -185 C54.3333 -189 70.6667 -191 90 -191 C140.667 -191 185.5 -175.167 224.5 -143.5 C263.5 -111.833 296.667 -59.3333 324 14 L518 535 L408 535 L348 360 C303.333 231.333 278 156.333 272 135 L271 137 C271 138.333 270.167 141.333 268.5 146 C266.833 150.667 264.833 156.333 262.5 163 C260.167 169.667 256.833 179 252.5 191 C248.167 203 243.333 216.333 238 231 C232.667 245.667 225.667 264.333 217 287 C208.333 309.667 198.667 334 188 360 L123 535 L7 535 L220 11 Z " />
<glyph glyph-name="thorn" unicode="&#xfe;" horiz-adv-x="610" d="M319 83 C302.333 83 286 86.5 270 93.5 C254 100.5 238.667 111 224 125 C209.333 139 197.667 158.5 189 183.5 C180.333 208.5 176 237 176 269 C176 301.667 180.333 330.167 189 354.5 C197.667 378.833 209.333 397.833 224 411.5 C238.667 425.167 254.333 435.167 271 441.5 C287.667 447.833 305 451 323 451 C363.667 451 397 434.667 423 402 C449 369.333 462 325.333 462 270 C462 210.667 448.667 164.667 422 132 C395.333 99.3333 361 83 319 83 L319 83 Z M176 746 L73 746 L73 -205 L176 -205 L176 81 C213.333 22.3333 267.667 -7 339 -7 C408.333 -7 464 19 506 71 C548 123 569 189.667 569 271 C569 350.333 548.5 415.333 507.5 466 C466.5 516.667 411 542 341 542 C268.333 542 213.333 512 176 452 L176 746 Z " />
<glyph glyph-name="ydieresis" unicode="&#xff;" horiz-adv-x="531" d="M328 674 C328 664.667 329.5 656.167 332.5 648.5 C335.5 640.833 339.833 634.167 345.5 628.5 C351.167 622.833 358 618.5 366 615.5 C374 612.5 382.333 611 391 611 C409.667 611 425 617 437 629 C449 641 455 656 455 674 C455 692 449 707 437 719 C425 731 409.667 737 391 737 C373 737 358 731 346 719 C334 707 328 692 328 674 L328 674 Z M95 674 C95 662 97.6667 651.167 103 641.5 C108.333 631.833 116 624.333 126 619 C136 613.667 147.333 611 160 611 C178 611 192.833 617 204.5 629 C216.167 641 222 656 222 674 C222 692 216.167 707 204.5 719 C192.833 731 178 737 160 737 C140.667 737 125 731 113 719 C101 707 95 692 95 674 L95 674 Z M220 11 C192.667 -63.6667 145 -101 77 -101 C64.3333 -101 52.3333 -99.6667 41 -97 L41 -185 C54.3333 -189 70.6667 -191 90 -191 C140.667 -191 185.5 -175.167 224.5 -143.5 C263.5 -111.833 296.667 -59.3333 324 14 L518 535 L408 535 L348 360 C303.333 231.333 278 156.333 272 135 L271 137 C271 138.333 270.167 141.333 268.5 146 C266.833 150.667 264.833 156.333 262.5 163 C260.167 169.667 256.833 179 252.5 191 C248.167 203 243.333 216.333 238 231 C232.667 245.667 225.667 264.333 217 287 C208.333 309.667 198.667 334 188 360 L123 535 L7 535 L220 11 Z " />
<glyph glyph-name="Amacron" unicode="&#x100;" horiz-adv-x="695" d="M513 887 L192 887 L192 816 L513 816 L513 887 Z M234 265 L246 301 C307.333 486.333 341.667 595.333 349 628 L351 622 C351.667 617.333 354.167 607.667 358.5 593 C362.833 578.333 368.333 559.833 375 537.5 C381.667 515.167 391.667 483.167 405 441.5 C418.333 399.833 433.333 353 450 301 L462 265 L234 265 Z M547 0 L663 0 L421 711 L278 711 L33 0 L147 0 L205 174 L491 174 L547 0 Z " />
<glyph glyph-name="amacron" unicode="&#x101;" horiz-adv-x="525" d="M425 710 L104 710 L104 639 L425 639 L425 710 Z M354 238 L354 178 C354 148 344.5 123.667 325.5 105 C306.5 86.3333 280 77 246 77 C216.667 77 194.333 84.1667 179 98.5 C163.667 112.833 156 132.333 156 157 C156 180.333 165.833 199.667 185.5 215 C205.167 230.333 234.667 238 274 238 L354 238 Z M85 407 C131 438.333 182.667 454 240 454 C281.333 454 310.667 444.667 328 426 C345.333 407.333 354 380 354 344 L354 313 L266 313 C196.667 313 142.5 298.667 103.5 270 C64.5 241.333 45 201.333 45 150 C45 105.333 60.3333 68.5 91 39.5 C121.667 10.5 162.333 -4 213 -4 C251 -4 281.833 2.5 305.5 15.5 C329.167 28.5 346.333 44.3333 357 63 L357 0 L459 0 L459 340 C459 407.333 442.167 458 408.5 492 C374.833 526 322 543 250 543 C229.333 543 208.333 541.333 187 538 C165.667 534.667 146.333 530.5 129 525.5 C111.667 520.5 97 514.667 85 508 L85 407 Z " />
<glyph glyph-name="Abreve" unicode="&#x102;" horiz-adv-x="695" d="M449 935 C449 915 445.5 897.5 438.5 882.5 C431.5 867.5 420.333 855.333 405 846 C389.667 836.667 370.667 832 348 832 C314.667 832 289.5 841.5 272.5 860.5 C255.5 879.5 247 904.333 247 935 L165 935 C165 899 171.833 868 185.5 842 C199.167 816 219.833 796 247.5 782 C275.167 768 308.667 761 348 761 C407.333 761 452.667 776.333 484 807 C515.333 837.667 531 880.333 531 935 L449 935 Z M234 265 L246 301 C307.333 486.333 341.667 595.333 349 628 L351 622 C351.667 617.333 354.167 607.667 358.5 593 C362.833 578.333 368.333 559.833 375 537.5 C381.667 515.167 391.667 483.167 405 441.5 C418.333 399.833 433.333 353 450 301 L462 265 L234 265 Z M547 0 L663 0 L421 711 L278 711 L33 0 L147 0 L205 174 L491 174 L547 0 Z " />
<glyph glyph-name="abreve" unicode="&#x103;" horiz-adv-x="525" d="M366 758 C366 738 362.5 720.5 355.5 705.5 C348.5 690.5 337.333 678.333 322 669 C306.667 659.667 287.667 655 265 655 C231 655 205.667 664.5 189 683.5 C172.333 702.5 164 727.333 164 758 L81 758 C81 721.333 88 690.167 102 664.5 C116 638.833 136.833 619 164.5 605 C192.167 591 225.667 584 265 584 C324.333 584 369.667 599.167 401 629.5 C432.333 659.833 448 702.667 448 758 L366 758 Z M354 238 L354 178 C354 148 344.5 123.667 325.5 105 C306.5 86.3333 280 77 246 77 C216.667 77 194.333 84.1667 179 98.5 C163.667 112.833 156 132.333 156 157 C156 180.333 165.833 199.667 185.5 215 C205.167 230.333 234.667 238 274 238 L354 238 Z M85 407 C131 438.333 182.667 454 240 454 C281.333 454 310.667 444.667 328 426 C345.333 407.333 354 380 354 344 L354 313 L266 313 C196.667 313 142.5 298.667 103.5 270 C64.5 241.333 45 201.333 45 150 C45 105.333 60.3333 68.5 91 39.5 C121.667 10.5 162.333 -4 213 -4 C251 -4 281.833 2.5 305.5 15.5 C329.167 28.5 346.333 44.3333 357 63 L357 0 L459 0 L459 340 C459 407.333 442.167 458 408.5 492 C374.833 526 322 543 250 543 C229.333 543 208.333 541.333 187 538 C165.667 534.667 146.333 530.5 129 525.5 C111.667 520.5 97 514.667 85 508 L85 407 Z " />
<glyph glyph-name="Aogonek" unicode="&#x104;" horiz-adv-x="691" d="M231 265 L243 301 C305 486.333 339.333 595.333 346 628 L351 608 C355 595.333 365.5 561.667 382.5 507 C399.5 452.333 421.333 383.667 448 301 L459 265 L231 265 Z M419 711 L275 711 L31 0 L145 0 L202 174 L489 174 L542 8 C482.667 -35.3333 453 -85.3333 453 -142 C453 -158.667 455.833 -174 461.5 -188 C467.167 -202 475.333 -214.5 486 -225.5 C496.667 -236.5 510.667 -245.167 528 -251.5 C545.333 -257.833 565 -261 587 -261 C621.667 -261 652.667 -253.333 680 -238 L680 -163 C656 -179 630.333 -187 603 -187 C583.667 -187 568.5 -182.5 557.5 -173.5 C546.5 -164.5 541 -151.333 541 -134 C541 -87.3333 581 -42.6667 661 0 L419 711 Z " />
<glyph glyph-name="aogonek" unicode="&#x105;" horiz-adv-x="523" d="M354 237 L354 174 C354 147.333 344 124.667 324 106 C304 87.3333 278 78 246 78 C216.667 78 194 85 178 99 C162 113 154 132 154 156 C154 182 165 202 187 216 C209 230 241 237 283 237 L354 237 Z M459 340 C459 407.333 442.167 458 408.5 492 C374.833 526 322 543 250 543 C229.333 543 208.333 541.333 187 538 C165.667 534.667 146.333 530.333 129 525 C111.667 519.667 97 513.667 85 507 L85 408 C131.667 438.667 183.333 454 240 454 C281.333 454 310.667 444.667 328 426 C345.333 407.333 354 380 354 344 L354 314 L268 314 C198 314 143.333 299.5 104 270.5 C64.6667 241.5 45 201.333 45 150 C45 104 60.3333 66.8333 91 38.5 C121.667 10.1667 162.333 -4 213 -4 C275.667 -4 323.667 19.6667 357 67 L357 15 C287 -29.6667 252 -82 252 -142 C252 -158.667 254.833 -174 260.5 -188 C266.167 -202 274.333 -214.5 285 -225.5 C295.667 -236.5 309.667 -245.167 327 -251.5 C344.333 -257.833 364 -261 386 -261 C420.667 -261 451.667 -253.333 479 -238 L479 -163 C455 -179 429 -187 401 -187 C381.667 -187 366.667 -182.5 356 -173.5 C345.333 -164.5 340 -151.333 340 -134 C340 -88 379.667 -43.3333 459 0 L459 340 Z " />
<glyph glyph-name="Cacute" unicode="&#x106;" horiz-adv-x="637" d="M590 682 C546 707.333 485.333 720 408 720 C303.333 720 217.167 686.333 149.5 619 C81.8333 551.667 48 464 48 356 C48 245.333 81.6667 157 149 91 C216.333 25 303.333 -8 410 -8 C487.333 -8 547.667 6.33333 591 35 L591 144 C569.667 128 543.833 115.333 513.5 106 C483.167 96.6667 452 92 420 92 C343.333 92 281.333 115.833 234 163.5 C186.667 211.167 163 275.333 163 356 C163 409.333 174 456.167 196 496.5 C218 536.833 247.833 567.5 285.5 588.5 C323.167 609.5 365 620 411 620 C449.667 620 481.667 616.667 507 610 C532.333 603.333 560 591.667 590 575 L590 682 Z M341 764 L430 764 L556 935 L441 935 L341 764 Z " />
<glyph glyph-name="cacute" unicode="&#x107;" horiz-adv-x="496" d="M267 587 L355 587 L482 758 L367 758 L267 587 Z M149 265 C149 291.667 153.333 316.5 162 339.5 C170.667 362.5 182.833 382.333 198.5 399 C214.167 415.667 233.667 428.667 257 438 C280.333 447.333 306 452 334 452 C378.667 452 417.333 441.333 450 420 L450 515 C413.333 534.333 370.667 544 322 544 C264.667 544 214.333 530.833 171 504.5 C127.667 478.167 95.5 444.167 74.5 402.5 C53.5 360.833 43 315.333 43 266 C43 187.333 68 121.667 118 69 C168 16.3333 234.667 -10 318 -10 C371.333 -10 415.333 0.333328 450 21 L450 114 C412 90.6667 373 79 333 79 C275.667 79 231 96.5 199 131.5 C167 166.5 150.333 211 149 265 L149 265 Z " />
<glyph glyph-name="Ccaron" unicode="&#x10c;" horiz-adv-x="637" d="M590 682 C546 707.333 485.333 720 408 720 C303.333 720 217.167 686.333 149.5 619 C81.8333 551.667 48 464 48 356 C48 245.333 81.6667 157 149 91 C216.333 25 303.333 -8 410 -8 C487.333 -8 547.667 6.33333 591 35 L591 144 C569.667 128 543.833 115.333 513.5 106 C483.167 96.6667 452 92 420 92 C343.333 92 281.333 115.833 234 163.5 C186.667 211.167 163 275.333 163 356 C163 409.333 174 456.167 196 496.5 C218 536.833 247.833 567.5 285.5 588.5 C323.167 609.5 365 620 411 620 C449.667 620 481.667 616.667 507 610 C532.333 603.333 560 591.667 590 575 L590 682 Z M441 764 L583 935 L481 935 L393 828 L306 935 L204 935 L346 764 L441 764 Z " />
<glyph glyph-name="ccaron" unicode="&#x10d;" horiz-adv-x="496" d="M450 515 C413.333 534.333 370.667 544 322 544 C264.667 544 214.333 530.833 171 504.5 C127.667 478.167 95.5 444.167 74.5 402.5 C53.5 360.833 43 315.333 43 266 C43 187.333 68 121.667 118 69 C168 16.3333 234.667 -10 318 -10 C371.333 -10 415.333 0.333328 450 21 L450 114 C412 90.6667 373 79 333 79 C275.667 79 231 96.5 199 131.5 C167 166.5 150.333 211 149 265 C149 291.667 153.333 316.5 162 339.5 C170.667 362.5 182.833 382.333 198.5 399 C214.167 415.667 233.667 428.667 257 438 C280.333 447.333 306 452 334 452 C378.667 452 417.333 441.333 450 420 L450 515 Z M339 588 L481 759 L379 759 L291 652 L204 759 L101 759 L244 588 L339 588 Z " />
<glyph glyph-name="Dcaron" unicode="&#x10e;" horiz-adv-x="703" d="M375 764 L517 935 L414 935 L327 828 L239 935 L137 935 L279 764 L375 764 Z M187 92 L187 618 L297 618 C373 618 433.667 593.667 479 545 C524.333 496.333 547 435.667 547 363 C547 311.667 538.5 266 521.5 226 C504.5 186 477 153.667 439 129 C401 104.333 354.667 92 300 92 L187 92 Z M77 711 L77 0 L301 0 C375.667 0 440.333 16 495 48 C549.667 80 590.667 123.167 618 177.5 C645.333 231.833 659 293.667 659 363 C659 464.333 625.333 547.667 558 613 C490.667 678.333 404.333 711 299 711 L77 711 Z " />
<glyph glyph-name="dcaron" unicode="&#x10f;" horiz-adv-x="722" d="M289 83 C249 83 215.667 99.6667 189 133 C162.333 166.333 149 209.667 149 263 C149 323.667 162.5 370.167 189.5 402.5 C216.5 434.833 251 451 293 451 C309 451 324.833 447.833 340.5 441.5 C356.167 435.167 371.333 425.333 386 412 C400.667 398.667 412.5 379.833 421.5 355.5 C430.5 331.167 435 303 435 271 C435 238.333 431 209.5 423 184.5 C415 159.5 404 139.833 390 125.5 C376 111.167 360.5 100.5 343.5 93.5 C326.5 86.5 308.333 83 289 83 L289 83 Z M435 453 C396.333 512.333 342.333 542 273 542 C205.667 542 150.5 516.667 107.5 466 C64.5 415.333 43 348.333 43 265 C43 216.333 51.5 171.667 68.5 131 C85.5 90.3333 111.667 57.1667 147 31.5 C182.333 5.83333 223.667 -7 271 -7 C342.333 -7 397 22.3333 435 81 L435 0 L539 0 L539 746 L435 746 L435 453 Z M682 746 L596 538 L677 538 L796 746 L682 746 Z " />
<glyph glyph-name="Dcroat" unicode="&#x110;" horiz-adv-x="775" d="M260 92 L260 310 L433 310 L433 399 L260 399 L260 618 L368 618 C398.667 618 427.333 613.667 454 605 C480.667 596.333 504 584.333 524 569 C544 553.667 561.333 535.333 576 514 C590.667 492.667 601.667 469.167 609 443.5 C616.333 417.833 620 391 620 363 C620 311.667 611.333 266 594 226 C576.667 186 548.833 153.667 510.5 129 C472.167 104.333 425.667 92 371 92 L260 92 Z M149 711 L149 399 L65 399 L65 310 L149 310 L149 0 L372 0 C446.667 0 511.5 16 566.5 48 C621.5 80 662.667 123.167 690 177.5 C717.333 231.833 731 293.667 731 363 C731 464.333 697.333 547.667 630 613 C562.667 678.333 476 711 370 711 L149 711 Z " />
<glyph glyph-name="dcroat" unicode="&#x111;" horiz-adv-x="610" d="M289 83 C249 83 215.667 99.6667 189 133 C162.333 166.333 149 209.667 149 263 C149 323.667 162.5 370.167 189.5 402.5 C216.5 434.833 251 451 293 451 C309 451 324.833 447.833 340.5 441.5 C356.167 435.167 371.333 425.333 386 412 C400.667 398.667 412.5 379.833 421.5 355.5 C430.5 331.167 435 303 435 271 C435 238.333 431 209.5 423 184.5 C415 159.5 404 139.833 390 125.5 C376 111.167 360.5 100.5 343.5 93.5 C326.5 86.5 308.333 83 289 83 L289 83 Z M610 678 L539 678 L539 746 L435 746 L435 678 L244 678 L244 612 L435 612 L435 453 C396.333 512.333 342.333 542 273 542 C205.667 542 150.5 516.667 107.5 466 C64.5 415.333 43 348.333 43 265 C43 216.333 51.5 171.667 68.5 131 C85.5 90.3333 111.667 57.1667 147 31.5 C182.333 5.83333 223.667 -7 271 -7 C342.333 -7 397 22.3333 435 81 L435 0 L539 0 L539 612 L610 612 L610 678 Z " />
<glyph glyph-name="Emacron" unicode="&#x112;" horiz-adv-x="541" d="M441 888 L121 888 L121 817 L441 817 L441 888 Z M185 91 L185 310 L448 310 L448 401 L185 401 L185 620 L482 620 L482 711 L77 711 L77 0 L487 0 L487 91 L185 91 Z " />
<glyph glyph-name="emacron" unicode="&#x113;" horiz-adv-x="553" d="M449 710 L129 710 L129 639 L449 639 L449 710 Z M405 306 L146 306 C152 354 167.667 390.833 193 416.5 C218.333 442.167 248.667 455 284 455 C322 455 351.333 443.333 372 420 C392.667 396.667 403.667 364.667 405 324 L405 306 Z M472 122 C434.667 94.6667 387 81 329 81 C279.667 81 238.833 93.3333 206.5 118 C174.167 142.667 154.333 178.333 147 225 L499 225 C503 248.333 505 271.333 505 294 C505 374 485 435.167 445 477.5 C405 519.833 350.667 541 282 541 C212.667 541 155.5 516.5 110.5 467.5 C65.5 418.5 43 351.333 43 266 C43 212.667 54 165.667 76 125 C98 84.3333 129.667 52.5 171 29.5 C212.333 6.5 260.333 -5 315 -5 C341.667 -5 369.833 -2 399.5 4 C429.167 10 453.333 18.3333 472 29 L472 122 Z " />
<glyph glyph-name="Edotaccent" unicode="&#x116;" horiz-adv-x="541" d="M293 789 C311 789 325.833 795 337.5 807 C349.167 819 355 834 355 852 C355 870 349.167 885.167 337.5 897.5 C325.833 909.833 311 916 293 916 C274.333 916 258.833 909.833 246.5 897.5 C234.167 885.167 228 870 228 852 C228 840 230.833 829.167 236.5 819.5 C242.167 809.833 249.833 802.333 259.5 797 C269.167 791.667 280.333 789 293 789 L293 789 Z M185 91 L185 310 L448 310 L448 401 L185 401 L185 620 L482 620 L482 711 L77 711 L77 0 L487 0 L487 91 L185 91 Z " />
<glyph glyph-name="edotaccent" unicode="&#x117;" horiz-adv-x="553" d="M297 612 C315 612 329.833 617.833 341.5 629.5 C353.167 641.167 359 656.333 359 675 C359 687 356.5 697.833 351.5 707.5 C346.5 717.167 339.167 724.833 329.5 730.5 C319.833 736.167 308.833 739 296.5 739 C284.167 739 273.167 736.167 263.5 730.5 C253.833 724.833 246.167 717 240.5 707 C234.833 697 232 686.333 232 675 C232 657 238.167 642 250.5 630 C262.833 618 278.333 612 297 612 L297 612 Z M405 306 L146 306 C152 354 167.667 390.833 193 416.5 C218.333 442.167 248.667 455 284 455 C322 455 351.333 443.333 372 420 C392.667 396.667 403.667 364.667 405 324 L405 306 Z M472 122 C434.667 94.6667 387 81 329 81 C279.667 81 238.833 93.3333 206.5 118 C174.167 142.667 154.333 178.333 147 225 L499 225 C503 248.333 505 271.333 505 294 C505 374 485 435.167 445 477.5 C405 519.833 350.667 541 282 541 C212.667 541 155.5 516.5 110.5 467.5 C65.5 418.5 43 351.333 43 266 C43 212.667 54 165.667 76 125 C98 84.3333 129.667 52.5 171 29.5 C212.333 6.5 260.333 -5 315 -5 C341.667 -5 369.833 -2 399.5 4 C429.167 10 453.333 18.3333 472 29 L472 122 Z " />
<glyph glyph-name="Eogonek" unicode="&#x118;" horiz-adv-x="541" d="M487 0 L487 91 L185 91 L185 310 L448 310 L448 401 L185 401 L185 620 L482 620 L482 711 L77 711 L77 0 L297 0 C241.667 -43.3333 214 -90.6667 214 -142 C214 -176.667 225.5 -205.167 248.5 -227.5 C271.5 -249.833 304.667 -261 348 -261 C382 -261 412.667 -253.333 440 -238 L440 -163 C417.333 -179 391.333 -187 362 -187 C342.667 -187 327.667 -182.5 317 -173.5 C306.333 -164.5 301 -151.333 301 -134 C301 -88 341 -43.3333 421 0 L487 0 Z " />
<glyph glyph-name="eogonek" unicode="&#x119;" horiz-adv-x="553" d="M405 306 L146 306 C152 354 167.667 390.833 193 416.5 C218.333 442.167 248.667 455 284 455 C322 455 351.333 443.333 372 420 C392.667 396.667 403.667 364.667 405 324 L405 306 Z M430 -152 C406 -169.333 379.667 -178 351 -178 C332.333 -178 317.5 -173.5 306.5 -164.5 C295.5 -155.5 290 -142.333 290 -125 C290 -81 326.667 -38 400 4 C427.333 9.33333 451.333 17.6667 472 29 L472 122 C434.667 94.6667 387 81 329 81 C279.667 81 238.833 93.3333 206.5 118 C174.167 142.667 154.333 178.333 147 225 L499 225 C503 248.333 505 271.333 505 294 C505 374 485 435.167 445 477.5 C405 519.833 350.667 541 282 541 C212.667 541 155.5 516.5 110.5 467.5 C65.5 418.5 43 351.333 43 266 C43 193.333 63.5 132.667 104.5 84 C145.5 35.3333 201 6.66667 271 -2 C226.333 -42 204 -85.6667 204 -133 C204 -167.667 215.333 -196 238 -218 C260.667 -240 294 -251 338 -251 C372 -251 402.667 -243.667 430 -229 L430 -152 Z " />
<glyph glyph-name="Ecaron" unicode="&#x11a;" horiz-adv-x="541" d="M337 764 L479 935 L377 935 L289 828 L202 935 L99 935 L241 764 L337 764 Z M185 91 L185 310 L448 310 L448 401 L185 401 L185 620 L482 620 L482 711 L77 711 L77 0 L487 0 L487 91 L185 91 Z " />
<glyph glyph-name="ecaron" unicode="&#x11b;" horiz-adv-x="553" d="M337 588 L479 759 L377 759 L289 652 L202 759 L99 759 L241 588 L337 588 Z M405 306 L146 306 C152 354 167.667 390.833 193 416.5 C218.333 442.167 248.667 455 284 455 C322 455 351.333 443.333 372 420 C392.667 396.667 403.667 364.667 405 324 L405 306 Z M472 122 C434.667 94.6667 387 81 329 81 C279.667 81 238.833 93.3333 206.5 118 C174.167 142.667 154.333 178.333 147 225 L499 225 C503 248.333 505 271.333 505 294 C505 374 485 435.167 445 477.5 C405 519.833 350.667 541 282 541 C212.667 541 155.5 516.5 110.5 467.5 C65.5 418.5 43 351.333 43 266 C43 212.667 54 165.667 76 125 C98 84.3333 129.667 52.5 171 29.5 C212.333 6.5 260.333 -5 315 -5 C341.667 -5 369.833 -2 399.5 4 C429.167 10 453.333 18.3333 472 29 L472 122 Z " />
<glyph glyph-name="Gbreve" unicode="&#x11e;" horiz-adv-x="717" d="M492 935 C492 904.333 483.667 879.5 467 860.5 C450.333 841.5 425.167 832 391.5 832 C357.833 832 332.5 841.5 315.5 860.5 C298.5 879.5 290 904.333 290 935 L208 935 C208 899 215 868 229 842 C243 816 263.667 796 291 782 C318.333 768 351.667 761 391 761 C450.333 761 495.833 776.333 527.5 807 C559.167 837.667 575 880.333 575 935 L492 935 Z M649 406 L398 406 L398 312 L542 312 L542 116 C502 100.667 462 93 422 93 C341.333 93 278 116.333 232 163 C186 209.667 163 274 163 356 C163 436 186.333 500.167 233 548.5 C279.667 596.833 340.667 621 416 621 C491.333 621 559 602 619 564 L619 676 C563.667 707.333 494.667 723 412 723 C306.667 723 219.667 689 151 621 C82.3333 553 48 464.667 48 356 C48 243.333 82.1667 154.5 150.5 89.5 C218.833 24.5 308.333 -8 419 -8 C465.667 -8 509 -1.83333 549 10.5 C589 22.8333 622.333 38.6667 649 58 L648 65 L649 65 L649 406 Z " />
<glyph glyph-name="gbreve" unicode="&#x11f;" horiz-adv-x="589" d="M414 759 C414 728.333 405.5 703.5 388.5 684.5 C371.5 665.5 346.333 656 313 656 C290.333 656 271.333 660.667 256 670 C240.667 679.333 229.5 691.5 222.5 706.5 C215.5 721.5 212 739 212 759 L130 759 C130 703.667 145.667 660.833 177 630.5 C208.333 600.167 253.667 585 313 585 C372.333 585 417.667 600.167 449 630.5 C480.333 660.833 496 703.667 496 759 L414 759 Z M283 103 C247.667 103 217.333 117.5 192 146.5 C166.667 175.5 154 217.667 154 273 C154 326.333 166 369.333 190 402 C214 434.667 246.667 451 288 451 C324.667 451 355.833 435.833 381.5 405.5 C407.167 375.167 420 328.667 420 266 C420 214.667 406.5 174.667 379.5 146 C352.5 117.333 320.333 103 283 103 L283 103 Z M420 535 L420 451 C387.333 511.667 335.667 542 265 542 C199 542 145.833 516.5 105.5 465.5 C65.1667 414.5 45 349.667 45 271 C45 237.667 49 206.833 57 178.5 C65 150.167 76 126 90 106 C104 86 120.333 69 139 55 C157.667 41 177.667 30.6667 199 24 C220.333 17.3333 242.333 14 265 14 C333.667 14 385.333 43 420 101 L420 46 C420 -56.6667 367.667 -108 263 -108 C198.333 -108 143.667 -93.3333 99 -64 L99 -169 C145.667 -192.333 203.667 -204 273 -204 C307.667 -204 339.833 -199 369.5 -189 C399.167 -179 425.667 -164.167 449 -144.5 C472.333 -124.833 490.5 -98.8333 503.5 -66.5 C516.5 -34.1667 523 3 523 45 L523 535 L420 535 Z " />
<glyph glyph-name="uni0122" unicode="&#x122;" horiz-adv-x="717" d="M253 -263 L335 -263 L453 -54 L339 -54 L253 -263 Z M649 406 L398 406 L398 312 L542 312 L542 116 C502 100.667 462 93 422 93 C341.333 93 278 116.333 232 163 C186 209.667 163 274 163 356 C163 436 186.333 500.167 233 548.5 C279.667 596.833 340.667 621 416 621 C491.333 621 559 602 619 564 L619 676 C563.667 707.333 494.667 723 412 723 C306.667 723 219.667 689 151 621 C82.3333 553 48 464.667 48 356 C48 243.333 82.1667 154.5 150.5 89.5 C218.833 24.5 308.333 -8 419 -8 C465.667 -8 509 -1.83333 549 10.5 C589 22.8333 622.333 38.6667 649 58 L648 65 L649 65 L649 406 Z " />
<glyph glyph-name="uni0123" unicode="&#x123;" horiz-adv-x="589" d="M472 796 L391 796 L272 588 L387 588 L472 796 Z M283 103 C247.667 103 217.333 117.5 192 146.5 C166.667 175.5 154 217.667 154 273 C154 326.333 166 369.333 190 402 C214 434.667 246.667 451 288 451 C324.667 451 355.833 435.833 381.5 405.5 C407.167 375.167 420 328.667 420 266 C420 214.667 406.5 174.667 379.5 146 C352.5 117.333 320.333 103 283 103 L283 103 Z M420 535 L420 451 C387.333 511.667 335.667 542 265 542 C199 542 145.833 516.5 105.5 465.5 C65.1667 414.5 45 349.667 45 271 C45 237.667 49 206.833 57 178.5 C65 150.167 76 126 90 106 C104 86 120.333 69 139 55 C157.667 41 177.667 30.6667 199 24 C220.333 17.3333 242.333 14 265 14 C333.667 14 385.333 43 420 101 L420 46 C420 -56.6667 367.667 -108 263 -108 C198.333 -108 143.667 -93.3333 99 -64 L99 -169 C145.667 -192.333 203.667 -204 273 -204 C307.667 -204 339.833 -199 369.5 -189 C399.167 -179 425.667 -164.167 449 -144.5 C472.333 -124.833 490.5 -98.8333 503.5 -66.5 C516.5 -34.1667 523 3 523 45 L523 535 L420 535 Z " />
<glyph glyph-name="Imacron" unicode="&#x12a;" horiz-adv-x="278" d="M85 0 L193 0 L193 711 L85 711 L85 0 Z M300 815 L300 886 L-21 886 L-21 815 L300 815 Z " />
<glyph glyph-name="imacron" unicode="&#x12b;" horiz-adv-x="257" d="M77 0 L181 0 L181 535 L77 535 L77 0 Z M290 639 L290 710 L-31 710 L-31 639 L290 639 Z " />
<glyph glyph-name="Iogonek" unicode="&#x12e;" horiz-adv-x="278" d="M193 711 L85 711 L85 11 C19.6667 -33.6667 -13 -84.6667 -13 -142 C-13 -176.667 -1.66667 -205.167 21 -227.5 C43.6667 -249.833 77 -261 121 -261 C155 -261 185.333 -253.333 212 -238 L212 -163 C189.333 -179 163.333 -187 134 -187 C114.667 -187 99.6667 -182.5 89 -173.5 C78.3333 -164.5 73 -151.333 73 -134 C73 -88 113 -43.3333 193 0 L193 711 Z " />
<glyph glyph-name="iogonek" unicode="&#x12f;" horiz-adv-x="257" d="M129 633 C147 633 162.333 639.333 175 652 C187.667 664.667 194 680 194 698 C194 710.667 191 721.833 185 731.5 C179 741.167 171.167 748.833 161.5 754.5 C151.833 760.167 141 763 129 763 C111 763 95.6667 756.833 83 744.5 C70.3333 732.167 64 716.667 64 698 C64 680 70.3333 664.667 83 652 C95.6667 639.333 111 633 129 633 L129 633 Z M181 535 L77 535 L77 13 C8.33333 -31.6667 -26 -83.3333 -26 -142 C-26 -176.667 -14.5 -205.167 8.5 -227.5 C31.5 -249.833 64.6667 -261 108 -261 C142.667 -261 173.667 -253.333 201 -238 L201 -163 C178.333 -179 152.333 -187 123 -187 C103.667 -187 88.5 -182.5 77.5 -173.5 C66.5 -164.5 61 -151.333 61 -134 C61 -88 101 -43.3333 181 0 L181 535 Z " />
<glyph glyph-name="Idotaccent" unicode="&#x130;" horiz-adv-x="278" d="M85 0 L193 0 L193 711 L85 711 L85 0 Z M76 852 C76 834 82 819 94 807 C106 795 121.333 789 140 789 C158.667 789 174 795 186 807 C198 819 204 834 204 852 C204 870 198 885.167 186 897.5 C174 909.833 158.667 916 140 916 C121.333 916 106 909.833 94 897.5 C82 885.167 76 870 76 852 L76 852 Z " />
<glyph glyph-name="dotlessi" unicode="&#x131;" horiz-adv-x="257" d="M77 0 L181 0 L181 535 L77 535 L77 0 Z " />
<glyph glyph-name="uni0136" unicode="&#x136;" horiz-adv-x="631" d="M185 711 L77 711 L77 0 L185 0 L185 711 Z M181 -263 L263 -263 L382 -54 L267 -54 L181 -263 Z M329 352 L589 711 L457 711 L200 351 L469 0 L606 0 L329 352 Z " />
<glyph glyph-name="uni0137" unicode="&#x137;" horiz-adv-x="527" d="M176 739 L73 739 L73 0 L176 0 L176 739 Z M133 -263 L214 -263 L334 -54 L218 -54 L133 -263 Z M300 279 L503 535 L382 535 L180 279 L386 0 L510 0 L300 279 Z " />
<glyph glyph-name="Lacute" unicode="&#x139;" horiz-adv-x="505" d="M485 935 L370 935 L270 764 L358 764 L485 935 Z M185 711 L77 711 L77 0 L477 0 L477 96 L185 96 L185 711 Z " />
<glyph glyph-name="lacute" unicode="&#x13a;" horiz-adv-x="257" d="M87 799 L175 799 L302 970 L186 970 L87 799 Z M77 0 L181 0 L181 746 L77 746 L77 0 Z " />
<glyph glyph-name="uni013B" unicode="&#x13b;" horiz-adv-x="505" d="M146 -263 L228 -263 L347 -54 L232 -54 L146 -263 Z M185 96 L185 711 L77 711 L77 0 L477 0 L477 96 L185 96 Z " />
<glyph glyph-name="uni013C" unicode="&#x13c;" horiz-adv-x="257" d="M77 0 L181 0 L181 746 L77 746 L77 0 Z M-13 -263 L68 -263 L186 -54 L72 -54 L-13 -263 Z " />
<glyph glyph-name="Lcaron" unicode="&#x13d;" horiz-adv-x="505" d="M472 740 L356 740 L271 530 L352 530 L472 740 Z M185 96 L185 711 L77 711 L77 0 L477 0 L477 96 L185 96 Z " />
<glyph glyph-name="lcaron" unicode="&#x13e;" horiz-adv-x="278" d="M77 0 L181 0 L181 746 L77 746 L77 0 Z M250 538 L331 538 L449 747 L335 747 L250 538 Z " />
<glyph glyph-name="Lslash" unicode="&#x141;" horiz-adv-x="545" d="M218 96 L218 315 L381 420 L381 515 L218 410 L218 711 L111 711 L111 341 L36 293 L36 197 L111 246 L111 0 L510 0 L510 96 L218 96 Z " />
<glyph glyph-name="lslash" unicode="&#x142;" horiz-adv-x="322" d="M298 536 L211 476 L211 746 L106 746 L106 403 L33 351 L33 255 L106 307 L106 0 L211 0 L211 381 L298 441 L298 536 Z " />
<glyph glyph-name="Nacute" unicode="&#x143;" horiz-adv-x="716" d="M337 764 L425 764 L552 935 L437 935 L337 764 Z M77 0 L185 0 L185 298 C185 416.667 182.333 511 177 581 L193 550 C203.667 529.333 222.167 495.333 248.5 448 C274.833 400.667 304 350.333 336 297 L512 0 L641 0 L641 711 L531 711 L531 412 C531 288.667 533.333 195 538 131 L523 160 C513 179.333 495 212.5 469 259.5 C443 306.5 413.667 357.667 381 413 L206 711 L77 711 L77 0 Z " />
<glyph glyph-name="nacute" unicode="&#x144;" horiz-adv-x="580" d="M493 759 L379 759 L278 588 L367 588 L493 759 Z M176 535 L73 535 L73 0 L176 0 L176 290 C176 341.333 189 381.167 215 409.5 C241 437.833 272.333 452 309 452 C340.333 452 365.167 442.333 383.5 423 C401.833 403.667 411 375.333 411 338 L411 0 L515 0 L515 362 C515 417.333 499.5 461.167 468.5 493.5 C437.5 525.833 395.667 542 343 542 C263.667 542 208 509 176 443 L176 535 Z " />
<glyph glyph-name="uni0145" unicode="&#x145;" horiz-adv-x="716" d="M227 -263 L308 -263 L427 -54 L312 -54 L227 -263 Z M77 0 L185 0 L185 298 C185 416.667 182.333 511 177 581 L193 550 C203.667 529.333 222.167 495.333 248.5 448 C274.833 400.667 304 350.333 336 297 L512 0 L641 0 L641 711 L531 711 L531 412 C531 288.667 533.333 195 538 131 L523 160 C513 179.333 495 212.5 469 259.5 C443 306.5 413.667 357.667 381 413 L206 711 L77 711 L77 0 Z " />
<glyph glyph-name="uni0146" unicode="&#x146;" horiz-adv-x="580" d="M158 -263 L238 -263 L357 -54 L243 -54 L158 -263 Z M176 535 L73 535 L73 0 L176 0 L176 290 C176 341.333 189 381.167 215 409.5 C241 437.833 272.333 452 309 452 C340.333 452 365.167 442.333 383.5 423 C401.833 403.667 411 375.333 411 338 L411 0 L515 0 L515 362 C515 417.333 499.5 461.167 468.5 493.5 C437.5 525.833 395.667 542 343 542 C263.667 542 208 509 176 443 L176 535 Z " />
<glyph glyph-name="Ncaron" unicode="&#x147;" horiz-adv-x="716" d="M77 0 L185 0 L185 298 C185 416.667 182.333 511 177 581 L193 550 C203.667 529.333 222.167 495.333 248.5 448 C274.833 400.667 304 350.333 336 297 L512 0 L641 0 L641 711 L531 711 L531 412 C531 288.667 533.333 195 538 131 L523 160 C513 179.333 495 212.5 469 259.5 C443 306.5 413.667 357.667 381 413 L206 711 L77 711 L77 0 Z M420 764 L562 935 L459 935 L372 828 L284 935 L182 935 L324 764 L420 764 Z " />
<glyph glyph-name="ncaron" unicode="&#x148;" horiz-adv-x="580" d="M354 588 L496 759 L394 759 L307 652 L219 759 L117 759 L260 588 L354 588 Z M176 535 L73 535 L73 0 L176 0 L176 290 C176 341.333 189 381.167 215 409.5 C241 437.833 272.333 452 309 452 C340.333 452 365.167 442.333 383.5 423 C401.833 403.667 411 375.333 411 338 L411 0 L515 0 L515 362 C515 417.333 499.5 461.167 468.5 493.5 C437.5 525.833 395.667 542 343 542 C263.667 542 208 509 176 443 L176 535 Z " />
<glyph glyph-name="Omacron" unicode="&#x14c;" horiz-adv-x="749" d="M536 815 L536 886 L215 886 L215 815 L536 815 Z M48 358 C48 247.333 77.8333 158.667 137.5 92 C197.167 25.3333 276.667 -8 376 -8 C476 -8 555.167 25.1667 613.5 91.5 C671.833 157.833 701 246.667 701 358 C701 469.333 672 558.167 614 624.5 C556 690.833 476.333 724 375 724 C275.667 724 196.333 690.667 137 624 C77.6667 557.333 48 468.667 48 358 L48 358 Z M163 358.5 C163 440.167 181.833 504.667 219.5 552 C257.167 599.333 309 623 375 623 C419.667 623 458 612.333 490 591 C522 569.667 546.167 539.167 562.5 499.5 C578.833 459.833 587 412.667 587 358 C587 303.333 578.833 256.167 562.5 216.5 C546.167 176.833 522 146.333 490 125 C458 103.667 420 93 376 93 C311.333 93 259.667 116.833 221 164.5 C182.333 212.167 163 276.833 163 358.5 L163 358.5 Z " />
<glyph glyph-name="omacron" unicode="&#x14d;" horiz-adv-x="594" d="M459 639 L459 710 L139 710 L139 639 L459 639 Z M297 -9 C376.333 -9 438.667 17 484 69 C529.333 121 552 187 552 267 C552 347 529.833 412.833 485.5 464.5 C441.167 516.167 378.333 542 297 542 C220.333 542 158.833 515.5 112.5 462.5 C66.1667 409.5 43 343 43 263 C43 184.333 65.5 119.333 110.5 68 C155.5 16.6667 217.667 -9 297 -9 L297 -9 Z M296 454 C330 454 358.333 445 381 427 C403.667 409 419.667 386.333 429 359 C438.333 331.667 443 300.333 443 265 C443 211 430.5 166.333 405.5 131 C380.5 95.6667 344.333 78 297 78 C252.333 78 216.667 96.1667 190 132.5 C163.333 168.833 150 213.333 150 266 C150 291.333 153.167 315.167 159.5 337.5 C165.833 359.833 175 379.833 187 397.5 C199 415.167 214.333 429 233 439 C251.667 449 272.667 454 296 454 L296 454 Z " />
<glyph glyph-name="Ohungarumlaut" unicode="&#x150;" horiz-adv-x="749" d="M436 764 L515 764 L656 935 L541 935 L436 764 Z M262 764 L341 764 L470 935 L360 935 L262 764 Z M48 358 C48 247.333 77.8333 158.667 137.5 92 C197.167 25.3333 276.667 -8 376 -8 C476 -8 555.167 25.1667 613.5 91.5 C671.833 157.833 701 246.667 701 358 C701 469.333 672 558.167 614 624.5 C556 690.833 476.333 724 375 724 C275.667 724 196.333 690.667 137 624 C77.6667 557.333 48 468.667 48 358 L48 358 Z M163 358.5 C163 440.167 181.833 504.667 219.5 552 C257.167 599.333 309 623 375 623 C419.667 623 458 612.333 490 591 C522 569.667 546.167 539.167 562.5 499.5 C578.833 459.833 587 412.667 587 358 C587 303.333 578.833 256.167 562.5 216.5 C546.167 176.833 522 146.333 490 125 C458 103.667 420 93 376 93 C311.333 93 259.667 116.833 221 164.5 C182.333 212.167 163 276.833 163 358.5 L163 358.5 Z " />
<glyph glyph-name="ohungarumlaut" unicode="&#x151;" horiz-adv-x="594" d="M364 588 L443 588 L584 759 L470 759 L364 588 Z M190 588 L269 588 L398 759 L289 759 L190 588 Z M297 -9 C376.333 -9 438.667 17 484 69 C529.333 121 552 187 552 267 C552 347 529.833 412.833 485.5 464.5 C441.167 516.167 378.333 542 297 542 C220.333 542 158.833 515.5 112.5 462.5 C66.1667 409.5 43 343 43 263 C43 184.333 65.5 119.333 110.5 68 C155.5 16.6667 217.667 -9 297 -9 L297 -9 Z M296 454 C330 454 358.333 445 381 427 C403.667 409 419.667 386.333 429 359 C438.333 331.667 443 300.333 443 265 C443 211 430.5 166.333 405.5 131 C380.5 95.6667 344.333 78 297 78 C252.333 78 216.667 96.1667 190 132.5 C163.333 168.833 150 213.333 150 266 C150 291.333 153.167 315.167 159.5 337.5 C165.833 359.833 175 379.833 187 397.5 C199 415.167 214.333 429 233 439 C251.667 449 272.667 454 296 454 L296 454 Z " />
<glyph glyph-name="OE" unicode="&#x152;" horiz-adv-x="1041" d="M370 93 C327.333 93 290.333 103.667 259 125 C227.667 146.333 203.833 177 187.5 217 C171.167 257 163 304 163 358 C163 440.667 181 505.5 217 552.5 C253 599.5 303.667 623 369 623 C435.667 623 487.167 599.667 523.5 553 C559.833 506.333 578 441.333 578 358 C578 303.333 570 256.167 554 216.5 C538 176.833 514.333 146.333 483 125 C451.667 103.667 414 93 370 93 L370 93 Z M682 91 L682 310 L950 310 L950 401 L682 401 L682 620 L983 620 L983 711 L578 711 L578 642 C524 696.667 454.333 724 369 724 C269.667 724 191.333 690.833 134 624.5 C76.6667 558.167 48 469.333 48 358 C48 246.667 77 157.833 135 91.5 C193 25.1667 271.333 -8 370 -8 C453.333 -8 522.667 20 578 76 L578 0 L988 0 L988 91 L682 91 Z " />
<glyph glyph-name="oe" unicode="&#x153;" horiz-adv-x="937" d="M793 306 L536 306 C541.333 354.667 557 391.667 583 417 C609 442.333 639.667 455 675 455 C692.333 455 708.167 452.167 722.5 446.5 C736.833 440.833 749 432.833 759 422.5 C769 412.167 777 399 783 383 C789 367 792.333 349 793 329 L793 306 Z M290 78 C246 78 211.667 96 187 132 C162.333 168 150 212.667 150 266 C150 319.333 162 364 186 400 C210 436 244.667 454 290 454 C316 454 338.5 449 357.5 439 C376.5 429 391.167 415 401.5 397 C411.833 379 419.5 359.167 424.5 337.5 C429.5 315.833 432 291.667 432 265 C432 229.667 427.333 198.5 418 171.5 C408.667 144.5 393 122.167 371 104.5 C349 86.8333 322 78 290 78 L290 78 Z M858 122 C820.667 94.6667 773.333 81 716 81 C668.667 81 628.833 93.5 596.5 118.5 C564.167 143.5 544.333 179 537 225 L887 225 C891 248.333 893 270 893 290 C893 372 873.833 434.333 835.5 477 C797.167 519.667 743.333 541 674 541 C648.667 541 624.5 537.333 601.5 530 C578.5 522.667 557 512 537 498 C517 484 499.333 466.667 484 446 C440.667 510 376 542 290 542 C214.667 542 154.667 515.667 110 463 C65.3333 410.333 43 343.667 43 263 C43 184.333 64.6667 119.333 108 68 C151.333 16.6667 212 -9 290 -9 C376 -9 441.667 25 487 93 C511 61.6667 541.667 37.5 579 20.5 C616.333 3.5 657.333 -5 702 -5 C719.333 -5 737.167 -3.83333 755.5 -1.5 C773.833 0.833328 792.333 4.66667 811 10 C829.667 15.3333 845.333 21.6667 858 29 L858 122 Z " />
<glyph glyph-name="Racute" unicode="&#x154;" horiz-adv-x="598" d="M465 935 L349 935 L249 764 L338 764 L465 935 Z M185 620 L278 620 C324.667 620 360.167 609 384.5 587 C408.833 565 421 532.667 421 490 C421 475.333 419.333 461.333 416 448 C412.667 434.667 407.333 422.667 400 412 C392.667 401.333 383.5 392.167 372.5 384.5 C361.5 376.833 348.5 370.833 333.5 366.5 C318.5 362.167 301.667 360 283 360 L185 360 L185 620 Z M446 0 L576 0 L390 287 C433.333 303 467.333 328.333 492 363 C516.667 397.667 529.333 439.667 530 489 C530 557.667 507.833 611.833 463.5 651.5 C419.167 691.167 356.333 711 275 711 L77 711 L77 0 L185 0 L185 270 L279 270 L446 0 Z " />
<glyph glyph-name="racute" unicode="&#x155;" horiz-adv-x="357" d="M390 759 L275 759 L175 588 L264 588 L390 759 Z M176 535 L73 535 L73 0 L176 0 L176 284 C176 328 187.667 365.833 211 397.5 C234.333 429.167 264 445 300 445 C318.667 445 335 442 349 436 L349 537 C337.667 539 326.667 540 316 540 C249.333 540 202.667 507 176 441 L176 535 Z " />
<glyph glyph-name="uni0156" unicode="&#x156;" horiz-adv-x="598" d="M168 -263 L249 -263 L368 -54 L253 -54 L168 -263 Z M185 620 L278 620 C324.667 620 360.167 609 384.5 587 C408.833 565 421 532.667 421 490 C421 475.333 419.333 461.333 416 448 C412.667 434.667 407.333 422.667 400 412 C392.667 401.333 383.5 392.167 372.5 384.5 C361.5 376.833 348.5 370.833 333.5 366.5 C318.5 362.167 301.667 360 283 360 L185 360 L185 620 Z M390 287 C433.333 303 467.333 328.333 492 363 C516.667 397.667 529.333 439.667 530 489 C530 557.667 507.833 611.833 463.5 651.5 C419.167 691.167 356.333 711 275 711 L77 711 L77 0 L185 0 L185 270 L279 270 L446 0 L576 0 L390 287 Z " />
<glyph glyph-name="uni0157" unicode="&#x157;" horiz-adv-x="357" d="M-21 -263 L60 -263 L179 -54 L64 -54 L-21 -263 Z M176 535 L73 535 L73 0 L176 0 L176 284 C176 328 187.667 365.833 211 397.5 C234.333 429.167 264 445 300 445 C318.667 445 335 442 349 436 L349 537 C337.667 539 326.667 540 316 540 C249.333 540 202.667 507 176 441 L176 535 Z " />
<glyph glyph-name="Rcaron" unicode="&#x158;" horiz-adv-x="598" d="M353 764 L495 935 L393 935 L306 828 L218 935 L116 935 L259 764 L353 764 Z M185 620 L278 620 C324.667 620 360.167 609 384.5 587 C408.833 565 421 532.667 421 490 C421 475.333 419.333 461.333 416 448 C412.667 434.667 407.333 422.667 400 412 C392.667 401.333 383.5 392.167 372.5 384.5 C361.5 376.833 348.5 370.833 333.5 366.5 C318.5 362.167 301.667 360 283 360 L185 360 L185 620 Z M446 0 L576 0 L390 287 C433.333 303 467.333 328.333 492 363 C516.667 397.667 529.333 439.667 530 489 C530 557.667 507.833 611.833 463.5 651.5 C419.167 691.167 356.333 711 275 711 L77 711 L77 0 L185 0 L185 270 L279 270 L446 0 Z " />
<glyph glyph-name="rcaron" unicode="&#x159;" horiz-adv-x="357" d="M264 588 L406 759 L304 759 L216 652 L129 759 L27 759 L169 588 L264 588 Z M176 535 L73 535 L73 0 L176 0 L176 284 C176 328 187.667 365.833 211 397.5 C234.333 429.167 264 445 300 445 C318.667 445 335 442 349 436 L349 537 C337.667 539 326.667 540 316 540 C249.333 540 202.667 507 176 441 L176 535 Z " />
<glyph glyph-name="Sacute" unicode="&#x15a;" horiz-adv-x="548" d="M247 764 L336 764 L462 935 L347 935 L247 764 Z M460 683 C417.333 705 363.333 716 298 716 C252 716 211.333 708.333 176 693 C140.667 677.667 112.667 655.167 92 625.5 C71.3333 595.833 61 560.667 61 520 C61 502.667 63.1667 486.333 67.5 471 C71.8333 455.667 76.8333 442.5 82.5 431.5 C88.1667 420.5 97 409.333 109 398 C121 386.667 130.833 377.833 138.5 371.5 C146.167 365.167 158.667 357.333 176 348 C193.333 338.667 205.5 332.333 212.5 329 C219.5 325.667 232.333 319.667 251 311 C274.333 301 292.167 292.667 304.5 286 C316.833 279.333 330.167 271 344.5 261 C358.833 251 369 240.167 375 228.5 C381 216.833 384 204 384 190 C384 158 372.667 133.167 350 115.5 C327.333 97.8333 297 89 259 89 C184.333 89 119.667 109.333 65 150 L65 38 C115 8 180 -7 260 -7 C330 -7 387 10.6667 431 46 C475 81.3333 497 130.667 497 194 C497 211.333 495 227.5 491 242.5 C487 257.5 482 270.833 476 282.5 C470 294.167 461.667 305.333 451 316 C440.333 326.667 430.5 335.667 421.5 343 C412.5 350.333 400.5 358 385.5 366 C370.5 374 358.167 380.333 348.5 385 C338.833 389.667 325.667 395.667 309 403 C286.333 413 268.833 421.167 256.5 427.5 C244.167 433.833 230.833 442 216.5 452 C202.167 462 191.833 473 185.5 485 C179.167 497 176 510.333 176 525 C176 553.667 187.167 576.5 209.5 593.5 C231.833 610.5 262.333 619 301 619 C328.333 619 356.5 615 385.5 607 C414.5 599 439.333 588.333 460 575 L460 683 Z " />
<glyph glyph-name="sacute" unicode="&#x15b;" horiz-adv-x="441" d="M196 588 L284 588 L411 759 L297 759 L196 588 Z M378 517 C345.333 532.333 300.333 540 243 540 C190.333 540 146.333 526.5 111 499.5 C75.6667 472.5 58 435.667 58 389 C58 368.333 61.5 349.667 68.5 333 C75.5 316.333 85.5 302 98.5 290 C111.5 278 124.5 268 137.5 260 C150.5 252 165.667 244.333 183 237 C202.333 229 215.5 223.333 222.5 220 C229.5 216.667 239.667 211.5 253 204.5 C266.333 197.5 275.333 191.5 280 186.5 C284.667 181.5 289.333 174.833 294 166.5 C298.667 158.167 301 149.333 301 140 C301 121.333 293.5 106.5 278.5 95.5 C263.5 84.5 242 79 214 79 C160 79 109 94.3333 61 125 L61 27 C105 5.66667 157.667 -5 219 -5 C277 -5 322.833 8.33333 356.5 35 C390.167 61.6667 407 99 407 147 C407 167 403.5 185.167 396.5 201.5 C389.5 217.833 379.167 232 365.5 244 C351.833 256 338.167 266.167 324.5 274.5 C310.833 282.833 294 291.667 274 301 C270 302.333 264.5 304.667 257.5 308 C250.5 311.333 245 313.833 241 315.5 C237 317.167 232 319.5 226 322.5 C220 325.5 215.167 328.167 211.5 330.5 C207.833 332.833 203.5 335.5 198.5 338.5 C193.5 341.5 189.667 344.333 187 347 C184.333 349.667 181.333 352.833 178 356.5 C174.667 360.167 172.167 363.833 170.5 367.5 C168.833 371.167 167.5 375 166.5 379 C165.5 383 165 387.333 165 392 C165 410.667 172.167 425.5 186.5 436.5 C200.833 447.5 220.333 453 245 453 C298.333 453 342.667 443 378 423 L378 517 Z " />
<glyph glyph-name="Scedilla" unicode="&#x15e;" horiz-adv-x="548" d="M460 683 C417.333 705 363.333 716 298 716 C252 716 211.333 708.333 176 693 C140.667 677.667 112.667 655.167 92 625.5 C71.3333 595.833 61 560.667 61 520 C61 502.667 63.1667 486.333 67.5 471 C71.8333 455.667 76.8333 442.5 82.5 431.5 C88.1667 420.5 97 409.333 109 398 C121 386.667 130.833 377.833 138.5 371.5 C146.167 365.167 158.667 357.333 176 348 C193.333 338.667 205.5 332.333 212.5 329 C219.5 325.667 232.333 319.667 251 311 C274.333 301 292.167 292.667 304.5 286 C316.833 279.333 330.167 271 344.5 261 C358.833 251 369 240.167 375 228.5 C381 216.833 384 204 384 190 C384 158 372.667 133.167 350 115.5 C327.333 97.8333 297 89 259 89 C184.333 89 119.667 109.333 65 150 L65 38 C115 8 180 -7 260 -7 C330 -7 387 10.6667 431 46 C475 81.3333 497 130.667 497 194 C497 211.333 495 227.5 491 242.5 C487 257.5 482 270.833 476 282.5 C470 294.167 461.667 305.333 451 316 C440.333 326.667 430.5 335.667 421.5 343 C412.5 350.333 400.5 358 385.5 366 C370.5 374 358.167 380.333 348.5 385 C338.833 389.667 325.667 395.667 309 403 C286.333 413 268.833 421.167 256.5 427.5 C244.167 433.833 230.833 442 216.5 452 C202.167 462 191.833 473 185.5 485 C179.167 497 176 510.333 176 525 C176 553.667 187.167 576.5 209.5 593.5 C231.833 610.5 262.333 619 301 619 C328.333 619 356.5 615 385.5 607 C414.5 599 439.333 588.333 460 575 L460 683 Z M339 -130 C339 -97.3333 332.333 -72 319 -54 L231 -54 C249 -82 258 -106.333 258 -127 C258 -148.333 250.5 -165.5 235.5 -178.5 C220.5 -191.5 199 -198.667 171 -200 L171 -271 C225.667 -269.667 267.333 -255.667 296 -229 C324.667 -202.333 339 -169.333 339 -130 L339 -130 Z " />
<glyph glyph-name="scedilla" unicode="&#x15f;" horiz-adv-x="441" d="M378 517 C345.333 532.333 300.333 540 243 540 C190.333 540 146.333 526.5 111 499.5 C75.6667 472.5 58 435.667 58 389 C58 368.333 61.5 349.667 68.5 333 C75.5 316.333 85.5 302 98.5 290 C111.5 278 124.5 268 137.5 260 C150.5 252 165.667 244.333 183 237 C202.333 229 215.5 223.333 222.5 220 C229.5 216.667 239.667 211.5 253 204.5 C266.333 197.5 275.333 191.5 280 186.5 C284.667 181.5 289.333 174.833 294 166.5 C298.667 158.167 301 149.333 301 140 C301 121.333 293.5 106.5 278.5 95.5 C263.5 84.5 242 79 214 79 C160 79 109 94.3333 61 125 L61 27 C105 5.66667 157.667 -5 219 -5 C277 -5 322.833 8.33333 356.5 35 C390.167 61.6667 407 99 407 147 C407 167 403.5 185.167 396.5 201.5 C389.5 217.833 379.167 232 365.5 244 C351.833 256 338.167 266.167 324.5 274.5 C310.833 282.833 294 291.667 274 301 C270 302.333 264.5 304.667 257.5 308 C250.5 311.333 245 313.833 241 315.5 C237 317.167 232 319.5 226 322.5 C220 325.5 215.167 328.167 211.5 330.5 C207.833 332.833 203.5 335.5 198.5 338.5 C193.5 341.5 189.667 344.333 187 347 C184.333 349.667 181.333 352.833 178 356.5 C174.667 360.167 172.167 363.833 170.5 367.5 C168.833 371.167 167.5 375 166.5 379 C165.5 383 165 387.333 165 392 C165 410.667 172.167 425.5 186.5 436.5 C200.833 447.5 220.333 453 245 453 C298.333 453 342.667 443 378 423 L378 517 Z M299 -130 C299 -97.3333 292.333 -72 279 -54 L191 -54 C208.333 -82 217 -106.333 217 -127 C217 -148.333 209.667 -165.5 195 -178.5 C180.333 -191.5 159 -198.667 131 -200 L131 -271 C185 -269.667 226.5 -255.667 255.5 -229 C284.5 -202.333 299 -169.333 299 -130 L299 -130 Z " />
<glyph glyph-name="Scaron" unicode="&#x160;" horiz-adv-x="548" d="M460 683 C417.333 705 363.333 716 298 716 C252 716 211.333 708.333 176 693 C140.667 677.667 112.667 655.167 92 625.5 C71.3333 595.833 61 560.667 61 520 C61 502.667 63.1667 486.333 67.5 471 C71.8333 455.667 76.8333 442.5 82.5 431.5 C88.1667 420.5 97 409.333 109 398 C121 386.667 130.833 377.833 138.5 371.5 C146.167 365.167 158.667 357.333 176 348 C193.333 338.667 205.5 332.333 212.5 329 C219.5 325.667 232.333 319.667 251 311 C274.333 301 292.167 292.667 304.5 286 C316.833 279.333 330.167 271 344.5 261 C358.833 251 369 240.167 375 228.5 C381 216.833 384 204 384 190 C384 158 372.667 133.167 350 115.5 C327.333 97.8333 297 89 259 89 C184.333 89 119.667 109.333 65 150 L65 38 C115 8 180 -7 260 -7 C330 -7 387 10.6667 431 46 C475 81.3333 497 130.667 497 194 C497 211.333 495 227.5 491 242.5 C487 257.5 482 270.833 476 282.5 C470 294.167 461.667 305.333 451 316 C440.333 326.667 430.5 335.667 421.5 343 C412.5 350.333 400.5 358 385.5 366 C370.5 374 358.167 380.333 348.5 385 C338.833 389.667 325.667 395.667 309 403 C286.333 413 268.833 421.167 256.5 427.5 C244.167 433.833 230.833 442 216.5 452 C202.167 462 191.833 473 185.5 485 C179.167 497 176 510.333 176 525 C176 553.667 187.167 576.5 209.5 593.5 C231.833 610.5 262.333 619 301 619 C328.333 619 356.5 615 385.5 607 C414.5 599 439.333 588.333 460 575 L460 683 Z M325 764 L469 935 L366 935 L278 828 L191 935 L89 935 L231 764 L325 764 Z " />
<glyph glyph-name="scaron" unicode="&#x161;" horiz-adv-x="441" d="M378 517 C345.333 532.333 300.333 540 243 540 C190.333 540 146.333 526.5 111 499.5 C75.6667 472.5 58 435.667 58 389 C58 368.333 61.5 349.667 68.5 333 C75.5 316.333 85.5 302 98.5 290 C111.5 278 124.5 268 137.5 260 C150.5 252 165.667 244.333 183 237 C202.333 229 215.5 223.333 222.5 220 C229.5 216.667 239.667 211.5 253 204.5 C266.333 197.5 275.333 191.5 280 186.5 C284.667 181.5 289.333 174.833 294 166.5 C298.667 158.167 301 149.333 301 140 C301 121.333 293.5 106.5 278.5 95.5 C263.5 84.5 242 79 214 79 C160 79 109 94.3333 61 125 L61 27 C105 5.66667 157.667 -5 219 -5 C277 -5 322.833 8.33333 356.5 35 C390.167 61.6667 407 99 407 147 C407 167 403.5 185.167 396.5 201.5 C389.5 217.833 379.167 232 365.5 244 C351.833 256 338.167 266.167 324.5 274.5 C310.833 282.833 294 291.667 274 301 C270 302.333 264.5 304.667 257.5 308 C250.5 311.333 245 313.833 241 315.5 C237 317.167 232 319.5 226 322.5 C220 325.5 215.167 328.167 211.5 330.5 C207.833 332.833 203.5 335.5 198.5 338.5 C193.5 341.5 189.667 344.333 187 347 C184.333 349.667 181.333 352.833 178 356.5 C174.667 360.167 172.167 363.833 170.5 367.5 C168.833 371.167 167.5 375 166.5 379 C165.5 383 165 387.333 165 392 C165 410.667 172.167 425.5 186.5 436.5 C200.833 447.5 220.333 453 245 453 C298.333 453 342.667 443 378 423 L378 517 Z M294 588 L436 759 L334 759 L246 652 L159 759 L56 759 L199 588 L294 588 Z " />
<glyph glyph-name="uni0162" unicode="&#x162;" horiz-adv-x="527" d="M116 -263 L197 -263 L315 -54 L201 -54 L116 -263 Z M504 711 L24 711 L24 620 L209 620 L209 0 L317 0 L317 620 L504 620 L504 711 Z " />
<glyph glyph-name="uni0163" unicode="&#x163;" horiz-adv-x="393" d="M69 -263 L149 -263 L268 -54 L152 -54 L69 -263 Z M207 454 L347 454 L347 535 L207 535 L207 665 L102 665 L102 535 L19 535 L19 454 L102 454 L102 163 C102 51 157.333 -5 268 -5 C301.333 -5 329.667 1 353 13 L353 106 C333.667 90.6667 309.333 83 280 83 C231.333 83 207 109 207 161 L207 454 Z " />
<glyph glyph-name="Tcaron" unicode="&#x164;" horiz-adv-x="527" d="M312 764 L454 935 L352 935 L265 828 L177 935 L75 935 L217 764 L312 764 Z M504 711 L24 711 L24 620 L209 620 L209 0 L317 0 L317 620 L504 620 L504 711 Z " />
<glyph glyph-name="tcaron" unicode="&#x165;" horiz-adv-x="393" d="M467 814 L351 814 L267 605 L347 605 L467 814 Z M207 454 L347 454 L347 535 L207 535 L207 665 L102 665 L102 535 L19 535 L19 454 L102 454 L102 163 C102 51 157.333 -5 268 -5 C301.333 -5 329.667 1 353 13 L353 106 C333.667 90.6667 309.333 83 280 83 C231.333 83 207 109 207 161 L207 454 Z " />
<glyph glyph-name="Umacron" unicode="&#x16a;" horiz-adv-x="687" d="M504 270 C504 150.667 450.333 91 343 91 C295 91 256.333 104.833 227 132.5 C197.667 160.167 183 204.333 183 265 L183 711 L75 711 L75 264 C75 175.333 98.8333 107.667 146.5 61 C194.167 14.3333 259.667 -9 343 -9 C427 -9 493 14.8333 541 62.5 C589 110.167 613 180 613 272 L613 711 L504 711 L504 270 Z M510 815 L510 886 L188 886 L188 815 L510 815 Z " />
<glyph glyph-name="umacron" unicode="&#x16b;" horiz-adv-x="580" d="M448 710 L128 710 L128 639 L448 639 L448 710 Z M405 535 L405 244 C405 192.667 393 152.833 369 124.5 C345 96.1667 312.667 82 272 82 C240.667 82 216 91.6667 198 111 C180 130.333 171 158.333 171 195 L171 535 L67 535 L67 170 C67 114.667 82.3333 71.5 113 40.5 C143.667 9.5 185.333 -6 238 -6 C320 -6 375.667 26.6667 405 92 L405 0 L509 0 L509 535 L405 535 Z " />
<glyph glyph-name="Uring" unicode="&#x16e;" horiz-adv-x="687" d="M226 874 C226 840.667 237.667 812.333 261 789 C284.333 765.667 312.667 754 346 754 C380 754 409 765.667 433 789 C457 812.333 469 840.667 469 874 C469 908 457 937 433 961 C409 985 380 997 346 997 C312.667 997 284.333 985 261 961 C237.667 937 226 908 226 874 L226 874 Z M290 876.5 C290 892.167 295.333 905.5 306 916.5 C316.667 927.5 330 933 346 933 C362 933 375.5 927.5 386.5 916.5 C397.5 905.5 403 892.333 403 877 C403 866.333 400.5 856.667 395.5 848 C390.5 839.333 383.667 832.333 375 827 C366.333 821.667 356.667 819 346 819 C330 819 316.667 824.667 306 836 C295.333 847.333 290 860.833 290 876.5 L290 876.5 Z M504 270 C504 150.667 450.333 91 343 91 C295 91 256.333 104.833 227 132.5 C197.667 160.167 183 204.333 183 265 L183 711 L75 711 L75 264 C75 175.333 98.8333 107.667 146.5 61 C194.167 14.3333 259.667 -9 343 -9 C427 -9 493 14.8333 541 62.5 C589 110.167 613 180 613 272 L613 711 L504 711 L504 270 Z " />
<glyph glyph-name="uring" unicode="&#x16f;" horiz-adv-x="580" d="M295 757 C305.667 757 315.333 754.5 324 749.5 C332.667 744.5 339.333 737.667 344 729 C348.667 720.333 351 710.833 351 700.5 C351 690.167 348.667 680.667 344 672 C339.333 663.333 332.667 656.333 324 651 C315.333 645.667 305.667 643 295 643 C279 643 265.5 648.667 254.5 660 C243.5 671.333 238 684.833 238 700.5 C238 716.167 243.5 729.5 254.5 740.5 C265.5 751.5 279 757 295 757 L295 757 Z M295 578 C311.667 578 327.5 581.167 342.5 587.5 C357.5 593.833 370.333 602.333 381 613 C391.667 623.667 400.167 636.5 406.5 651.5 C412.833 666.5 416 682 416 698 C416 732 404.167 761 380.5 785 C356.833 809 328.333 821 295 821 C261 821 232.333 809 209 785 C185.667 761 174 732 174 698 C174 664.667 185.667 636.333 209 613 C232.333 589.667 261 578 295 578 L295 578 Z M405 535 L405 244 C405 192.667 393 152.833 369 124.5 C345 96.1667 312.667 82 272 82 C240.667 82 216 91.6667 198 111 C180 130.333 171 158.333 171 195 L171 535 L67 535 L67 170 C67 114.667 82.3333 71.5 113 40.5 C143.667 9.5 185.333 -6 238 -6 C320 -6 375.667 26.6667 405 92 L405 0 L509 0 L509 535 L405 535 Z " />
<glyph glyph-name="Uhungarumlaut" unicode="&#x170;" horiz-adv-x="687" d="M504 270 C504 150.667 450.333 91 343 91 C295 91 256.333 104.833 227 132.5 C197.667 160.167 183 204.333 183 265 L183 711 L75 711 L75 264 C75 175.333 98.8333 107.667 146.5 61 C194.167 14.3333 259.667 -9 343 -9 C427 -9 493 14.8333 541 62.5 C589 110.167 613 180 613 272 L613 711 L504 711 L504 270 Z M389 764 L469 764 L610 935 L494 935 L389 764 Z M215 764 L295 764 L423 935 L314 935 L215 764 Z " />
<glyph glyph-name="uhungarumlaut" unicode="&#x171;" horiz-adv-x="580" d="M420 588 L561 759 L446 759 L341 588 L420 588 Z M375 759 L266 759 L167 588 L246 588 L375 759 Z M405 244 C405 192.667 393 152.833 369 124.5 C345 96.1667 312.667 82 272 82 C240.667 82 216 91.6667 198 111 C180 130.333 171 158.333 171 195 L171 535 L67 535 L67 170 C67 114.667 82.3333 71.5 113 40.5 C143.667 9.5 185.333 -6 238 -6 C320 -6 375.667 26.6667 405 92 L405 0 L509 0 L509 535 L405 535 L405 244 Z " />
<glyph glyph-name="Uogonek" unicode="&#x172;" horiz-adv-x="687" d="M504 711 L504 270 C504 150.667 450.333 91 343 91 C295 91 256.333 104.833 227 132.5 C197.667 160.167 183 204.333 183 265 L183 711 L75 711 L75 264 C75 181.333 95.6667 116.833 137 70.5 C178.333 24.1667 235.667 -2 309 -8 C266.333 -46 245 -88.3333 245 -135 C245 -169.667 256.333 -198 279 -220 C301.667 -242 335 -253 379 -253 C413 -253 443.667 -245.667 471 -231 L471 -156 C447.667 -172 421.333 -180 392 -180 C373.333 -180 358.667 -175.5 348 -166.5 C337.333 -157.5 332 -144.333 332 -127 C332 -81 371.333 -36.6667 450 6 C502 24 542.167 55.3333 570.5 100 C598.833 144.667 613 202 613 272 L613 711 L504 711 Z " />
<glyph glyph-name="uogonek" unicode="&#x173;" horiz-adv-x="580" d="M509 535 L405 535 L405 244 C405 192.667 393 152.833 369 124.5 C345 96.1667 312.667 82 272 82 C240.667 82 216 91.6667 198 111 C180 130.333 171 158.333 171 195 L171 535 L67 535 L67 170 C67 114.667 82.3333 71.5 113 40.5 C143.667 9.5 185.333 -6 238 -6 C320 -6 375.667 26.6667 405 92 L405 14 C336.333 -30.6667 302 -82.6667 302 -142 C302 -176.667 313.333 -205.167 336 -227.5 C358.667 -249.833 392 -261 436 -261 C470 -261 500.333 -253.333 527 -238 L527 -163 C504.333 -179 478.333 -187 449 -187 C430.333 -187 415.5 -182.5 404.5 -173.5 C393.5 -164.5 388 -151.333 388 -134 C388 -88 428.333 -43.3333 509 0 L509 535 Z " />
<glyph glyph-name="Ydieresis" unicode="&#x178;" horiz-adv-x="640" d="M440 787 C458.667 787 474 793 486 805 C498 817 504 832 504 850 C504 862 501.167 872.833 495.5 882.5 C489.833 892.167 482.167 899.833 472.5 905.5 C462.833 911.167 452 914 440 914 C428 914 417.167 911.167 407.5 905.5 C397.833 899.833 390.333 892.167 385 882.5 C379.667 872.833 377 862 377 850 C377 838 379.667 827.167 385 817.5 C390.333 807.833 397.833 800.333 407.5 795 C417.167 789.667 428 787 440 787 L440 787 Z M208 787 C226 787 241 793 253 805 C265 817 271 832 271 850 C271 868 265 883.167 253 895.5 C241 907.833 226 914 208 914 C198.667 914 190 912.333 182 909 C174 905.667 167.167 901.167 161.5 895.5 C155.833 889.833 151.333 883 148 875 C144.667 867 143 858.667 143 850 C143 832 149.167 817 161.5 805 C173.833 793 189.333 787 208 787 L208 787 Z M617 711 L492 711 L441 607 C365.667 459.667 324.667 375 318 353 L313 367 C309 377 297.167 403 277.5 445 C257.833 487 232 541 200 607 L148 711 L25 711 L265 265 L265 0 L373 0 L373 265 L617 711 Z " />
<glyph glyph-name="Zacute" unicode="&#x179;" horiz-adv-x="615" d="M280 764 L369 764 L495 935 L381 935 L280 764 Z M544 711 L62 711 L62 621 L415 621 L57 85 L57 0 L559 0 L559 90 L184 90 L544 627 L544 711 Z " />
<glyph glyph-name="zacute" unicode="&#x17a;" horiz-adv-x="486" d="M211 588 L300 588 L426 759 L311 759 L211 588 Z M427 535 L55 535 L55 448 L305 448 L45 79 L45 0 L441 0 L441 88 L165 88 L427 460 L427 535 Z " />
<glyph glyph-name="Zdotaccent" unicode="&#x17b;" horiz-adv-x="615" d="M544 711 L62 711 L62 621 L415 621 L57 85 L57 0 L559 0 L559 90 L184 90 L544 627 L544 711 Z M255 852 C255 834 261.167 819 273.5 807 C285.833 795 301.167 789 319.5 789 C337.833 789 353 795 365 807 C377 819 383 834 383 852 C383 864 380.333 874.833 375 884.5 C369.667 894.167 362.167 901.833 352.5 907.5 C342.833 913.167 331.667 916 319 916 C301 916 285.833 909.833 273.5 897.5 C261.167 885.167 255 870 255 852 L255 852 Z " />
<glyph glyph-name="zdotaccent" unicode="&#x17c;" horiz-adv-x="486" d="M427 535 L55 535 L55 448 L305 448 L45 79 L45 0 L441 0 L441 88 L165 88 L427 460 L427 535 Z M194 674 C194 662 196.833 651.167 202.5 641.5 C208.167 631.833 215.833 624.333 225.5 619 C235.167 613.667 246.333 611 259 611 C277 611 291.833 616.833 303.5 628.5 C315.167 640.167 321 655.167 321 673.5 C321 691.833 315.167 707 303.5 719 C291.833 731 277 737 259 737 C240.333 737 224.833 731 212.5 719 C200.167 707 194 692 194 674 L194 674 Z " />
<glyph glyph-name="Zcaron" unicode="&#x17d;" horiz-adv-x="615" d="M544 711 L62 711 L62 621 L415 621 L57 85 L57 0 L559 0 L559 90 L184 90 L544 627 L544 711 Z M357 764 L500 935 L398 935 L310 828 L222 935 L121 935 L263 764 L357 764 Z " />
<glyph glyph-name="zcaron" unicode="&#x17e;" horiz-adv-x="486" d="M427 535 L55 535 L55 448 L305 448 L45 79 L45 0 L441 0 L441 88 L165 88 L427 460 L427 535 Z M308 588 L450 759 L348 759 L261 652 L173 759 L71 759 L213 588 L308 588 Z " />
<glyph glyph-name="florin" unicode="&#x192;" horiz-adv-x="453" d="M179 396 L68 396 L68 315 L167 315 L102 -64 C95.3333 -103.333 84.6667 -132.833 70 -152.5 C55.3333 -172.167 34.6667 -182 8 -182 C-15.3333 -182 -37.6667 -177.667 -59 -169 L-59 -259 C-37.6667 -267 -10.3333 -271 23 -271 C123 -271 183.667 -205 205 -73 L271 315 L387 315 L387 396 L283 396 L304 511 C308 537 314 558.5 322 575.5 C330 592.5 340.5 605.5 353.5 614.5 C366.5 623.5 382 628 400 628 C420 628 439.667 624.667 459 618 L459 708 C441.667 714 416.667 717 384 717 C282.667 717 221.667 651 201 519 L179 396 Z " />
<glyph glyph-name="uni0218" unicode="&#x218;" horiz-adv-x="548" d="M460 683 C417.333 705 363.333 716 298 716 C252 716 211.333 708.333 176 693 C140.667 677.667 112.667 655.167 92 625.5 C71.3333 595.833 61 560.667 61 520 C61 502.667 63.1667 486.333 67.5 471 C71.8333 455.667 76.8333 442.5 82.5 431.5 C88.1667 420.5 97 409.333 109 398 C121 386.667 130.833 377.833 138.5 371.5 C146.167 365.167 158.667 357.333 176 348 C193.333 338.667 205.5 332.333 212.5 329 C219.5 325.667 232.333 319.667 251 311 C274.333 301 292.167 292.667 304.5 286 C316.833 279.333 330.167 271 344.5 261 C358.833 251 369 240.167 375 228.5 C381 216.833 384 204 384 190 C384 158 372.667 133.167 350 115.5 C327.333 97.8333 297 89 259 89 C184.333 89 119.667 109.333 65 150 L65 38 C115 8 180 -7 260 -7 C330 -7 387 10.6667 431 46 C475 81.3333 497 130.667 497 194 C497 211.333 495 227.5 491 242.5 C487 257.5 482 270.833 476 282.5 C470 294.167 461.667 305.333 451 316 C440.333 326.667 430.5 335.667 421.5 343 C412.5 350.333 400.5 358 385.5 366 C370.5 374 358.167 380.333 348.5 385 C338.833 389.667 325.667 395.667 309 403 C286.333 413 268.833 421.167 256.5 427.5 C244.167 433.833 230.833 442 216.5 452 C202.167 462 191.833 473 185.5 485 C179.167 497 176 510.333 176 525 C176 553.667 187.167 576.5 209.5 593.5 C231.833 610.5 262.333 619 301 619 C328.333 619 356.5 615 385.5 607 C414.5 599 439.333 588.333 460 575 L460 683 Z M138 -263 L219 -263 L338 -54 L222 -54 L138 -263 Z " />
<glyph glyph-name="uni0219" unicode="&#x219;" horiz-adv-x="441" d="M90 -263 L170 -263 L289 -54 L174 -54 L90 -263 Z M378 517 C345.333 532.333 300.333 540 243 540 C190.333 540 146.333 526.5 111 499.5 C75.6667 472.5 58 435.667 58 389 C58 368.333 61.5 349.667 68.5 333 C75.5 316.333 85.5 302 98.5 290 C111.5 278 124.5 268 137.5 260 C150.5 252 165.667 244.333 183 237 C202.333 229 215.5 223.333 222.5 220 C229.5 216.667 239.667 211.5 253 204.5 C266.333 197.5 275.333 191.5 280 186.5 C284.667 181.5 289.333 174.833 294 166.5 C298.667 158.167 301 149.333 301 140 C301 121.333 293.5 106.5 278.5 95.5 C263.5 84.5 242 79 214 79 C160 79 109 94.3333 61 125 L61 27 C105 5.66667 157.667 -5 219 -5 C277 -5 322.833 8.33333 356.5 35 C390.167 61.6667 407 99 407 147 C407 167 403.5 185.167 396.5 201.5 C389.5 217.833 379.167 232 365.5 244 C351.833 256 338.167 266.167 324.5 274.5 C310.833 282.833 294 291.667 274 301 C270 302.333 264.5 304.667 257.5 308 C250.5 311.333 245 313.833 241 315.5 C237 317.167 232 319.5 226 322.5 C220 325.5 215.167 328.167 211.5 330.5 C207.833 332.833 203.5 335.5 198.5 338.5 C193.5 341.5 189.667 344.333 187 347 C184.333 349.667 181.333 352.833 178 356.5 C174.667 360.167 172.167 363.833 170.5 367.5 C168.833 371.167 167.5 375 166.5 379 C165.5 383 165 387.333 165 392 C165 410.667 172.167 425.5 186.5 436.5 C200.833 447.5 220.333 453 245 453 C298.333 453 342.667 443 378 423 L378 517 Z " />
<glyph glyph-name="uni021A" unicode="&#x21a;" horiz-adv-x="527" d="M119 -263 L201 -263 L318 -54 L204 -54 L119 -263 Z M24 711 L24 620 L209 620 L209 0 L317 0 L317 620 L504 620 L504 711 L24 711 Z " />
<glyph glyph-name="uni021B" unicode="&#x21b;" horiz-adv-x="393" d="M117 -263 L199 -263 L316 -54 L202 -54 L117 -263 Z M207 454 L347 454 L347 535 L207 535 L207 665 L102 665 L102 535 L19 535 L19 454 L102 454 L102 163 C102 51 157.333 -5 268 -5 C301.333 -5 329.667 1 353 13 L353 106 C333.667 90.6667 309.333 83 280 83 C231.333 83 207 109 207 161 L207 454 Z " />
<glyph glyph-name="circumflex" unicode="&#x2c6;" horiz-adv-x="467" d="M186 842 L44 671 L146 671 L233 779 L321 671 L424 671 L281 842 L186 842 Z " />
<glyph glyph-name="ring" unicode="&#x2da;" horiz-adv-x="467" d="M113 756 C113 734 118.333 713.833 129 695.5 C139.667 677.167 154.167 662.667 172.5 652 C190.833 641.333 211 636 233 636 C267 636 295.833 647.667 319.5 671 C343.167 694.333 355 722.667 355 756 C355 790 343.167 819 319.5 843 C295.833 867 267 879 233 879 C199.667 879 171.333 867 148 843 C124.667 819 113 790 113 756 L113 756 Z M177 758.5 C177 774.167 182.333 787.667 193 799 C203.667 810.333 217 816 233 816 C249 816 262.5 810.333 273.5 799 C284.5 787.667 290 774 290 758 C290 748 287.667 738.5 283 729.5 C278.333 720.5 271.5 713.333 262.5 708 C253.5 702.667 243.667 700 233 700 C217 700 203.667 705.833 193 717.5 C182.333 729.167 177 742.833 177 758.5 L177 758.5 Z " />
<glyph glyph-name="tilde" unicode="&#x2dc;" horiz-adv-x="467" d="M368 804 C354 774 333.667 759 307 759 C293.667 759 272.167 766.167 242.5 780.5 C212.833 794.833 187 802 165 802 C141 802 118.833 794.5 98.5 779.5 C78.1667 764.5 63.3333 746 54 724 L105 677 C116.333 694.333 127.333 706.833 138 714.5 C148.667 722.167 162.333 726 179 726 C190.333 726 210.333 718.833 239 704.5 C267.667 690.167 292 683 312 683 C336.667 683 359.167 689.667 379.5 703 C399.833 716.333 415.667 735.333 427 760 L368 804 Z " />
<glyph glyph-name="uni2000" unicode="&#x2000;" horiz-adv-x="498" d="" />
<glyph glyph-name="uni2001" unicode="&#x2001;" horiz-adv-x="997" d="" />
<glyph glyph-name="uni2002" unicode="&#x2002;" horiz-adv-x="498" d="" />
<glyph glyph-name="uni2003" unicode="&#x2003;" horiz-adv-x="997" d="" />
<glyph glyph-name="uni2004" unicode="&#x2004;" horiz-adv-x="332" d="" />
<glyph glyph-name="uni2005" unicode="&#x2005;" horiz-adv-x="249" d="" />
<glyph glyph-name="uni2006" unicode="&#x2006;" horiz-adv-x="166" d="" />
<glyph glyph-name="uni2007" unicode="&#x2007;" horiz-adv-x="166" d="" />
<glyph glyph-name="uni2008" unicode="&#x2008;" horiz-adv-x="124" d="" />
<glyph glyph-name="uni2009" unicode="&#x2009;" horiz-adv-x="199" d="" />
<glyph glyph-name="uni200A" unicode="&#x200a;" horiz-adv-x="55" d="" />
<glyph glyph-name="uni200B" unicode="&#x200b;" d="" />
<glyph glyph-name="uni200C" unicode="&#x200c;" d="M26 -243 L26 855 L-25 855 L-25 -243 L26 -243 Z " />
<glyph glyph-name="uni200D" unicode="&#x200d;" d="M136 625 L35 726 L136 827 L102 861 L1 760 L-99 861 L-134 826 L-34 726 L-132 627 L-97 592 L-25 670 L-25 -243 L26 -243 L26 670 L101 590 L136 625 Z " />
<glyph glyph-name="uni2010" unicode="&#x2010;" horiz-adv-x="368" d="M56 237 L313 237 L313 325 L56 325 L56 237 Z " />
<glyph glyph-name="uni2011" unicode="&#x2011;" horiz-adv-x="368" d="M56 237 L313 237 L313 325 L56 325 L56 237 Z " />
<glyph glyph-name="figuredash" unicode="&#x2012;" horiz-adv-x="368" d="M56 237 L313 237 L313 325 L56 325 L56 237 Z " />
<glyph glyph-name="endash" unicode="&#x2013;" horiz-adv-x="573" d="M56 244 L518 244 L518 325 L56 325 L56 244 Z " />
<glyph glyph-name="emdash" unicode="&#x2014;" horiz-adv-x="870" d="M56 246 L816 246 L816 328 L56 328 L56 246 Z " />
<glyph glyph-name="quoteleft" unicode="&#x2018;" horiz-adv-x="215" d="M233 733 L147 733 L16 485 L139 485 L233 733 Z " />
<glyph glyph-name="quoteright" unicode="&#x2019;" horiz-adv-x="216" d="M18 485 L102 485 L234 733 L111 733 L18 485 Z " />
<glyph glyph-name="quotesinglbase" unicode="&#x201a;" horiz-adv-x="216" d="M-1 -131 L84 -131 L215 116 L93 116 L-1 -131 Z " />
<glyph glyph-name="quotedblleft" unicode="&#x201c;" horiz-adv-x="380" d="M233 733 L150 733 L16 485 L138 485 L233 733 Z M398 733 L314 733 L190 485 L306 485 L398 733 Z " />
<glyph glyph-name="quotedblright" unicode="&#x201d;" horiz-adv-x="380" d="M181 485 L265 485 L398 733 L276 733 L181 485 Z M18 485 L100 485 L225 733 L108 733 L18 485 Z " />
<glyph glyph-name="quotedblbase" unicode="&#x201e;" horiz-adv-x="380" d="M166 -131 L248 -131 L382 116 L261 116 L166 -131 Z M1 -131 L84 -131 L208 116 L93 116 L1 -131 Z " />
<glyph glyph-name="dagger" unicode="&#x2020;" horiz-adv-x="562" d="M522 537 L325 537 L325 711 L232 711 L232 537 L40 537 L40 449 L232 449 L232 0 L325 0 L325 449 L522 449 L522 537 Z " />
<glyph glyph-name="daggerdbl" unicode="&#x2021;" horiz-adv-x="576" d="M529 449 L529 537 L333 537 L333 711 L238 711 L238 537 L47 537 L47 449 L238 449 L238 270 L47 270 L47 181 L238 181 L238 0 L333 0 L333 181 L529 181 L529 270 L333 270 L333 449 L529 449 Z " />
<glyph glyph-name="bullet" unicode="&#x2022;" horiz-adv-x="465" d="M93 376 C93 336 106.167 302.5 132.5 275.5 C158.833 248.5 192.333 235 233 235 C271.667 235 304.5 248.5 331.5 275.5 C358.5 302.5 372 335.833 372 375.5 C372 415.167 358.5 448.5 331.5 475.5 C304.5 502.5 271.333 516 232 516 C192 516 158.833 502.667 132.5 476 C106.167 449.333 93 416 93 376 L93 376 Z " />
<glyph glyph-name="ellipsis" unicode="&#x2026;" horiz-adv-x="825" d="M45 63 C45 43 52 26.1667 66 12.5 C80 -1.16667 97 -8 117 -8 C130.333 -8 142.333 -5 153 1 C163.667 7 172 15.5 178 26.5 C184 37.5 187 49.6667 187 63 C187 83 180.333 99.8333 167 113.5 C153.667 127.167 137 134 117 134 C97 134 80 127.167 66 113.5 C52 99.8333 45 83 45 63 L45 63 Z M342 63 C342 43 348.833 26.1667 362.5 12.5 C376.167 -1.16667 393 -8 413 -8 C422.333 -8 431.5 -6.16667 440.5 -2.5 C449.5 1.16667 457.167 6.16667 463.5 12.5 C469.833 18.8333 474.833 26.3333 478.5 35 C482.167 43.6667 484 53 484 63 C484 83 477.167 99.8333 463.5 113.5 C449.833 127.167 433 134 413 134 C393 134 376.167 127.167 362.5 113.5 C348.833 99.8333 342 83 342 63 L342 63 Z M639 63 C639 43 645.833 26.1667 659.5 12.5 C673.167 -1.16667 690 -8 710 -8 C729.333 -8 746 -1.16667 760 12.5 C774 26.1667 781 43 781 63 C781 83 774 99.8333 760 113.5 C746 127.167 729.333 134 710 134 C690 134 673.167 127.167 659.5 113.5 C645.833 99.8333 639 83 639 63 L639 63 Z " />
<glyph glyph-name="uni202F" unicode="&#x202f;" horiz-adv-x="199" d="" />
<glyph glyph-name="perthousand" unicode="&#x2030;" horiz-adv-x="1339" d="M220 -1 L317 -1 L702 714 L605 714 L220 -1 Z M525 169 C525 120.333 542.333 78.8333 577 44.5 C611.667 10.1667 653.333 -7 702 -7 C734 -7 763.5 0.833328 790.5 16.5 C817.5 32.1667 839 53.5 855 80.5 C871 107.5 879 137 879 169 C879 217.667 861.667 259.333 827 294 C792.333 328.667 750.667 346 702 346 C653.333 346 611.667 328.667 577 294 C542.333 259.333 525 217.667 525 169 L525 169 Z M47 548 C47 499.333 64.3333 457.667 99 423 C133.667 388.333 175.667 371 225 371 C273 371 314.333 388.333 349 423 C383.667 457.667 401 499.333 401 548 C401 596.667 383.667 638.167 349 672.5 C314.333 706.833 273 724 225 724 C192.333 724 162.5 716.167 135.5 700.5 C108.5 684.833 87 663.5 71 636.5 C55 609.5 47 580 47 548 L47 548 Z M135 548 C135 572 143.833 592.833 161.5 610.5 C179.167 628.167 200.333 637 225 637 C249 637 269.667 628.167 287 610.5 C304.333 592.833 313 572 313 548 C313 523.333 304.333 502.167 287 484.5 C269.667 466.833 249 458 225 458 C199.667 458 178.333 466.833 161 484.5 C143.667 502.167 135 523.333 135 548 L135 548 Z M613 169 C613 193.667 621.667 214.833 639 232.5 C656.333 250.167 677.333 259 702 259 C726.667 259 747.833 250.167 765.5 232.5 C783.167 214.833 792 193.667 792 169 C792 144.333 783.167 123.167 765.5 105.5 C747.833 87.8333 726.667 79 702 79 C677.333 79 656.333 87.8333 639 105.5 C621.667 123.167 613 144.333 613 169 L613 169 Z M952 169 C952 120.333 969.167 78.8333 1003.5 44.5 C1037.83 10.1667 1079.33 -7 1128 -7 C1176.67 -7 1218.33 10.1667 1253 44.5 C1287.67 78.8333 1305 120.333 1305 169 C1305 217.667 1287.5 259.333 1252.5 294 C1217.5 328.667 1175.83 346 1127.5 346 C1079.17 346 1037.83 328.667 1003.5 294 C969.167 259.333 952 217.667 952 169 L952 169 Z M1039 169 C1039 185 1043 200 1051 214 C1059 228 1069.83 239 1083.5 247 C1097.17 255 1112 259 1128 259 C1152.67 259 1173.67 250.167 1191 232.5 C1208.33 214.833 1217 193.667 1217 169 C1217 144.333 1208.33 123.167 1191 105.5 C1173.67 87.8333 1152.67 79 1128 79 C1103.33 79 1082.33 87.8333 1065 105.5 C1047.67 123.167 1039 144.333 1039 169 L1039 169 Z " />
<glyph glyph-name="guilsinglleft" unicode="&#x2039;" horiz-adv-x="336" d="M301 438 L188 438 L30 267 L188 96 L301 96 L146 267 L301 438 Z " />
<glyph glyph-name="guilsinglright" unicode="&#x203a;" horiz-adv-x="334" d="M148 438 L37 438 L191 267 L37 96 L148 96 L308 267 L148 438 Z " />
<glyph glyph-name="fraction" unicode="&#x2044;" horiz-adv-x="314" d="M-37 0 L432 751 L345 751 L-124 0 L-37 0 Z " />
<glyph glyph-name="uni205F" unicode="&#x205f;" horiz-adv-x="249" d="" />
<glyph glyph-name="uni20A8" unicode="&#x20a8;" horiz-adv-x="963" d="M185 620 L278 620 C324.667 620 360.167 609 384.5 587 C408.833 565 421 532.667 421 490 C421 475.333 419.333 461.333 416 448 C412.667 434.667 407.333 422.667 400 412 C392.667 401.333 383.5 392.167 372.5 384.5 C361.5 376.833 348.5 370.833 333.5 366.5 C318.5 362.167 301.667 360 283 360 L185 360 L185 620 Z M77 711 L77 0 L185 0 L185 270 L279 270 L446 0 L576 0 L390 287 C433.333 303 467.333 328.333 492 363 C516.667 397.667 529.333 439.667 530 489 C530 557.667 507.833 611.833 463.5 651.5 C419.167 691.167 356.333 711 275 711 L77 711 Z M913 517 C880.333 532.333 835.333 540 778 540 C725.333 540 681.167 526.5 645.5 499.5 C609.833 472.5 592 435.667 592 389 C592 368.333 595.5 349.667 602.5 333 C609.5 316.333 619.5 302 632.5 290 C645.5 278 658.667 268 672 260 C685.333 252 700.667 244.333 718 237 C734.667 229.667 745.667 224.833 751 222.5 C756.333 220.167 765.167 216 777.5 210 C789.833 204 798.333 199.167 803 195.5 C807.667 191.833 813.167 187 819.5 181 C825.833 175 830 168.667 832 162 C834 155.333 835 148 835 140 C835 121.333 827.5 106.5 812.5 95.5 C797.5 84.5 776.333 79 749 79 C695.667 79 644.667 94.3333 596 125 L596 27 C640 5.66667 692.667 -5 754 -5 C812 -5 857.667 8.33333 891 35 C924.333 61.6667 941 99 941 147 C941 185 929.333 215.5 906 238.5 C882.667 261.5 850.333 282.333 809 301 C805 302.333 798 305.333 788 310 C778 314.667 771.167 317.833 767.5 319.5 C763.833 321.167 758 324.167 750 328.5 C742 332.833 736.333 336.333 733 339 C729.667 341.667 725.333 345.167 720 349.5 C714.667 353.833 710.833 358 708.5 362 C706.167 366 704 370.667 702 376 C700 381.333 699 386.667 699 392 C699 410.667 706.167 425.5 720.5 436.5 C734.833 447.5 754.667 453 780 453 C833.333 453 877.667 443 913 423 L913 517 Z " />
<glyph glyph-name="Euro" unicode="&#x20ac;" horiz-adv-x="632" d="M590 667 C552.667 687 506 697 450 697 C380 697 318.667 676.5 266 635.5 C213.333 594.5 177 537.333 157 464 L50 464 L50 392 L143 392 C141.667 370 141 353 141 341 C141 329.667 141.667 315.333 143 298 L50 298 L50 227 L156 227 C174.667 154.333 210.167 97 262.5 55 C314.833 13 376.667 -8 448 -8 C506 -8 553.333 1.33333 590 20 L590 124 C555.333 100.667 511.667 89 459 89 C415.667 89 377.167 100.833 343.5 124.5 C309.833 148.167 285 182.333 269 227 L476 227 L476 298 L253 298 C251.667 315.333 251 329.333 251 340 C251 358.667 252 376 254 392 L476 392 L476 464 L271 464 C287 507.333 312 540.5 346 563.5 C380 586.5 420 598 466 598 C513.333 598 554.667 587 590 565 L590 667 Z " />
<glyph glyph-name="uni20B9" unicode="&#x20b9;" horiz-adv-x="575" d="M527 711 L67 711 L67 626 L165 626 C205.667 626 238.167 617.5 262.5 600.5 C286.833 583.5 303.333 560 312 530 L67 530 L67 446 L317 446 C306.333 378 256.333 344 167 344 L67 344 L67 258 L269 0 L400 0 L190 258 C258 260 312.333 277.667 353 311 C393.667 344.333 417 389.333 423 446 L527 446 L527 530 L418 530 C408.667 568.667 389 600.667 359 626 L527 626 L527 711 Z " />
<glyph glyph-name="uni20BA" unicode="&#x20ba;" horiz-adv-x="612" d="M479 383 C479 311 458.5 247 417.5 191 C376.5 135 322.667 101.667 256 91 L256 410 L366 468 L366 562 L256 505 L256 691 L152 691 L152 452 L63 406 L63 311 L152 357 L152 0 L225 0 C295 0 357.167 17.1667 411.5 51.5 C465.833 85.8333 507.333 132 536 190 C564.667 248 579 312.333 579 383 L479 383 Z " />
<glyph glyph-name="uni20BD" unicode="&#x20bd;" horiz-adv-x="602" d="M227 604 L301 604 C353.667 604 393.333 592.333 420 569 C446.667 545.667 460 513 460 471 C460 429.667 446.833 397.833 420.5 375.5 C394.167 353.167 355 342 303 342 L227 342 L227 604 Z M311 262 C390.333 262 452.667 280.667 498 318 C543.333 355.333 566 407.333 566 474 C566 539.333 543.5 591.833 498.5 631.5 C453.5 671.167 389 691 305 691 L119 691 L119 342 L16 342 L16 262 L119 262 L119 170 L16 170 L16 90 L119 90 L119 0 L227 0 L227 90 L440 90 L440 170 L227 170 L227 262 L311 262 Z " />
<glyph glyph-name="trademark" unicode="&#x2122;" horiz-adv-x="749" d="M293 349 L366 349 L376 499 C379.333 553.667 380.333 595.667 379 625 L380 620 C380.667 617.333 382 612.333 384 605 C386 597.667 388.5 589.333 391.5 580 C394.5 570.667 398.5 558.667 403.5 544 C408.5 529.333 413.667 514.333 419 499 L470 355 L539 355 L594 499 C615.333 555.667 628.667 597.667 634 625 L634 620 C634 616.667 634.167 611.333 634.5 604 C634.833 596.667 635 588.167 635 578.5 C635 568.833 635.333 557 636 543 C636.667 529 637.667 514.667 639 500 L650 349 L722 349 L692 711 L603 711 L546 561 C526 509 511.667 468.333 503 439 L502 444 C501.333 447.333 500 452.5 498 459.5 L491 484 C488.333 493.333 484.667 504.833 480 518.5 C475.333 532.167 470.333 546.333 465 561 L410 711 L321 711 L293 349 Z M4 646 L96 646 L96 348 L170 348 L170 646 L259 646 L259 711 L4 711 L4 646 Z " />
<glyph glyph-name="uni25FC" unicode="&#x25fc;" horiz-adv-x="537" d="M0 538 L0 0 L538 0 L538 538 L0 538 Z " />
</font>
</svg>
