<?xml version="1.0"?>
<svg xmlns="http://www.w3.org/2000/svg" version="1.1" viewBox="0 0 614.0150836916837 507.26219772603963" width="1228.0301673833674" height="1014.5243954520793">
  <!-- svg-source:excalidraw -->
  <defs>
    <style class="style-fonts">
      @font-face {
        font-family: "Virgil";
        src: url("https://excalidraw.com/Virgil.woff2");
      }
      @font-face {
        font-family: "Cascadia";
        src: url("https://excalidraw.com/Cascadia.woff2");
      }
    </style>
  </defs>
  <rect x="0" y="0" width="614.0150836916837" height="507.26219772603963" fill="#ffffff"/>
  <g stroke-linecap="round" transform="translate(229.94642818038847 316.3760642265561) rotate(89.99999999999994 107.42833520869999 73.45779829078344)">
    <path d="M12.16 38.39 C12.16 38.39, 12.16 38.39, 12.16 38.39 M12.16 38.39 C12.16 38.39, 12.16 38.39, 12.16 38.39 M5.05 70.55 C22.76 49.42, 38.11 31.23, 47.69 24.25 M6.77 69.7 C21.77 51.73, 37.37 34.45, 48.07 22.12 M5.44 94.1 C24.31 74.49, 39.62 52.53, 82.24 7.63 M4.94 94.36 C27.72 69.15, 50.23 42.63, 82.67 5.94 M17.45 109.03 C41.74 78.73, 68.2 47.68, 102.38 5.82 M16.28 107.83 C36.86 83.31, 59.56 58.57, 103.1 6.59 M24.45 121.99 C64.01 78.4, 98.58 37.8, 123.16 7.76 M25.8 120.06 C47.78 95.31, 70.38 68.53, 125.14 5.9 M41.25 126.91 C82.48 81.97, 121.29 32.22, 141.59 10.98 M40.52 129.48 C71.43 90.29, 103.65 52.43, 143.58 10.49 M54.26 135.23 C89.14 99.1, 123.56 58.01, 162.1 11.45 M53.4 137.01 C90.15 98.39, 123.95 56.74, 160.38 12.5 M65.25 145.65 C103.98 100.31, 145.62 55.23, 175.96 21.55 M65.77 146.6 C110.04 95.73, 153.52 46.66, 175.9 21.24 M83.73 149.88 C124.02 106.25, 162.82 58.32, 192.24 27.49 M85.44 150.78 C123.29 106.31, 162.45 59.7, 190.44 27.42 M101.81 151.62 C138.83 109.42, 174.65 68.6, 201.25 39.74 M104.29 152.37 C129.47 121.67, 155.31 92.38, 201.5 39.42 M125.74 151.44 C153.53 121.91, 182.48 90.13, 213.4 53.97 M125.54 151.22 C147.02 127.25, 166.56 105.43, 211.36 52.95 M148.02 151.79 C163.16 135.91, 176.4 116.8, 214.13 74.78 M146.53 151.9 C172.31 121.47, 199.49 90.8, 213.67 74.54" stroke="#40c057" stroke-width="2" fill="none"/>
    <path d="M157.43 9.12 C169.64 12.28, 182.43 19.28, 191.36 26.57 C200.3 33.86, 207.23 43.94, 211.04 52.85 C214.85 61.77, 215.87 70.71, 214.23 80.05 C212.59 89.39, 207.55 100.45, 201.17 108.88 C194.79 117.31, 186.39 124.78, 175.94 130.62 C165.49 136.47, 151.6 141.28, 138.46 143.95 C125.33 146.62, 110.84 147.61, 97.15 146.65 C83.47 145.69, 68.43 142.8, 56.35 138.18 C44.27 133.56, 33.33 126.25, 24.64 118.92 C15.95 111.59, 8.09 103.18, 4.2 94.22 C0.31 85.26, -0.02 74.5, 1.32 65.18 C2.65 55.86, 5.73 46.49, 12.24 38.3 C18.74 30.1, 29.6 22.01, 40.35 16 C51.1 10, 63.78 4.72, 76.74 2.26 C89.7 -0.19, 103.64 -0.28, 118.1 1.28 C132.56 2.83, 155.17 9.51, 163.48 11.6 C171.79 13.7, 168.77 12.76, 167.96 13.83 M151.99 6.17 C164.52 9.06, 176.85 17.86, 185.94 24.54 C195.04 31.22, 201.85 37.68, 206.56 46.27 C211.27 54.85, 214.49 66.35, 214.2 76.05 C213.91 85.75, 210.35 95.96, 204.82 104.46 C199.29 112.96, 190.81 120.98, 181.01 127.05 C171.21 133.12, 158.68 137.81, 146.05 140.9 C133.41 143.99, 119.17 145.83, 105.19 145.6 C91.21 145.36, 74.85 143.21, 62.16 139.48 C49.47 135.74, 38.13 130.03, 29.04 123.19 C19.95 116.36, 12.55 107.14, 7.62 98.46 C2.69 89.77, -0.72 80.27, -0.54 71.08 C-0.37 61.9, 2.81 51.9, 8.69 43.34 C14.57 34.79, 24.55 26.09, 34.72 19.74 C44.89 13.4, 57.16 8.68, 69.73 5.28 C82.29 1.89, 96.46 -0.82, 110.1 -0.65 C123.75 -0.49, 144.75 4.79, 151.59 6.28 C158.43 7.77, 151.7 7.15, 151.14 8.29" stroke="transparent" stroke-width="4" fill="none"/>
  </g>
  <g stroke-linecap="round" transform="translate(10 10) rotate(0 297.00754184584184 203.08906451327357)">
    <path d="M35.8 106.65 C35.8 106.65, 35.8 106.65, 35.8 106.65 M35.8 106.65 C35.8 106.65, 35.8 106.65, 35.8 106.65 M13.73 154.56 C36.77 132.28, 56.25 105.97, 83.44 75.41 M13.9 156.18 C39.25 128.64, 63.38 101.03, 84.87 73.21 M6.84 187.21 C43.96 148.2, 78.24 108.85, 136.26 39.97 M6.83 188.95 C51.75 138.48, 96.65 86.38, 137.01 39.45 M11.08 210.69 C57.43 155.9, 102 103.16, 169.46 29.4 M10.89 208.67 C58.18 156.41, 103.31 102.65, 167.14 28.41 M14.09 230.38 C81.89 150.54, 149.96 73.05, 198.16 15.33 M13.42 229.17 C63.35 172.52, 112.94 114.65, 199.38 16.49 M13.01 253.9 C65.86 195.65, 116.34 134.97, 223.54 12.33 M13.51 253.19 C75.73 182.37, 138.86 110.32, 223.41 13.15 M20.96 268.51 C67.82 215.31, 116.08 160.13, 247.46 8.99 M21.64 269.25 C75.25 206.48, 128.33 145.05, 247.86 8.93 M29.43 284.95 C105.91 193.79, 185.53 104.41, 271.01 6.11 M29.56 285.27 C116.24 184.33, 202.2 85.65, 271.22 6.26 M38.4 299.73 C138.1 181.73, 239.91 66.39, 291.7 6.05 M37.67 299.94 C100.31 225.68, 164.37 152.47, 292.2 7.02 M47.9 310.52 C110.54 239.17, 173.07 166.92, 313.72 5.52 M48.64 311.74 C104.44 246.2, 159.7 182.82, 313.81 6.85 M59.4 322.66 C123.11 252.32, 186.16 178.27, 339.23 2.65 M59.2 323.44 C151.17 219.14, 243.11 113.51, 338.33 2.72 M71.53 334 C173.71 215.25, 278.44 98.17, 355.58 6.35 M70.48 334.24 C151.23 242.98, 229.67 151.94, 356.6 6.25 M83.22 345.22 C147.05 273.19, 209.68 199, 375.45 9 M82.37 346.1 C143.99 276.15, 204.39 206.3, 374.8 9.09 M96.57 354.09 C161.38 276.6, 228.32 199.47, 393.68 12.96 M96.45 353.74 C194.53 240.9, 294.25 127.31, 393.18 12.81 M110.95 363.08 C171.8 293.07, 232.25 223.82, 409.47 18.02 M110.81 361.92 C181.17 280.24, 251.28 199.47, 409.77 17.57 M125.07 370.86 C193.37 290.07, 262.09 211.55, 426.76 23.33 M124.74 370.33 C192.52 291.44, 262 211.2, 426.48 22.91 M138.45 379.46 C202.97 305.75, 265.3 233.53, 441.04 29.47 M137.67 379.85 C221.98 283.5, 305.68 187, 441.31 30.12 M154.02 385.74 C250.77 273.63, 349.57 161.55, 458.35 36.86 M153.53 385.3 C263.75 256.4, 374.86 129.05, 457.44 35.97 M169.05 390.53 C287.79 256.35, 405.74 120.98, 473.27 42.74 M170.28 391.83 C232.52 318.95, 295.26 246.77, 473.17 42.91 M189.47 392.22 C285.86 282.98, 382.5 171.04, 487.89 51.84 M189.41 393.14 C252.79 318.68, 318.08 244.31, 487.37 51.13 M206.83 396.07 C295.93 294.38, 384.61 191.28, 501.85 58.59 M208.19 396.25 C270.51 323.1, 334.63 249.68, 501.5 58.79 M225.99 399.06 C288.07 329.64, 349.13 259.15, 515.53 67.64 M226.55 399.6 C289.35 325.1, 353.13 251.69, 514.73 67.29 M244.6 403.34 C307.98 330.72, 368.8 260.2, 528.81 76.3 M245.1 402.06 C335.01 299.64, 424.47 196.38, 528.32 76.55 M261.44 407.63 C323.8 335.36, 385.44 264.16, 539.91 87.81 M262.76 406.85 C337.86 320.48, 413.56 233.48, 540.01 87.37 M282.63 406.6 C341.13 337.86, 400.01 271.2, 551.27 99.51 M283.1 406.6 C343.27 339.68, 402.72 271.19, 551.69 98.95 M303.14 408.71 C393.81 299.58, 487.14 194.15, 562.59 111.06 M304.15 407.36 C367.42 337.14, 429.47 265.69, 561.62 110.97 M325.62 408.65 C396.82 322.55, 471.62 238.13, 573.51 121.36 M325.87 407.84 C391.23 333.88, 456.27 258.54, 574.12 121.75 M341.89 414.83 C406.38 337.88, 470.84 262.78, 581.23 138.09 M340.23 413.81 C400.97 343.56, 460.36 274.26, 581.32 137.43 M365.7 410.82 C422 346.4, 477.39 281.04, 586.15 155.87 M364.98 410.9 C428.99 337.89, 492.46 263.1, 586.28 157.01 M399.08 394.73 C473.87 308.07, 547.49 222.95, 589.06 177.92 M400.25 394.64 C474.11 311, 548.47 225.4, 590.08 177.16 M429.61 383.53 C463.51 345.99, 494.19 307.3, 593.41 196.64 M431.29 383.53 C491.77 314.74, 550.64 247.16, 593.03 197.26 M463.5 373.67 C488.63 340.6, 516.82 306.67, 601.07 211.44 M461.42 371.83 C493.68 336.04, 524.55 300.05, 601.92 211.84 M474.76 383.22 C503.85 345.69, 536.62 311.46, 584.21 254.67 M475.45 383.04 C503.52 348.93, 533.87 315.26, 586.29 254.52" stroke="#40c057" stroke-width="2" fill="none"/>
    <path d="M405.89 13.69 C428.34 16.35, 448.3 28.2, 467.74 37.77 C487.17 47.34, 506.79 58.82, 522.52 71.12 C538.25 83.42, 551.59 97.43, 562.11 111.6 C572.63 125.76, 580.35 140.37, 585.63 156.13 C590.91 171.89, 594.02 189.84, 593.79 206.15 C593.56 222.46, 590.24 238.29, 584.23 254.01 C578.22 269.72, 568.87 286.27, 557.74 300.43 C546.6 314.59, 533.24 327.13, 517.43 338.96 C501.62 350.79, 482.59 362.2, 462.9 371.41 C443.21 380.63, 421.55 388.82, 399.28 394.25 C377.02 399.68, 352.81 402.45, 329.32 404.01 C305.82 405.58, 281.83 405.67, 258.3 403.64 C234.77 401.61, 210.14 397.56, 188.13 391.83 C166.12 386.1, 145.66 378.59, 126.23 369.28 C106.8 359.96, 87.33 348.28, 71.57 335.93 C55.8 323.59, 42.15 309.68, 31.64 295.22 C21.14 280.76, 13.81 264.94, 8.53 249.17 C3.26 233.4, -0.18 216.75, -0.01 200.59 C0.16 184.43, 3.59 167.85, 9.55 152.2 C15.51 136.56, 24.61 121.09, 35.74 106.72 C46.87 92.36, 60.35 77.93, 76.33 66 C92.32 54.08, 111.89 44.21, 131.65 35.16 C151.41 26.11, 172.58 17.28, 194.91 11.71 C217.25 6.14, 242.12 3.51, 265.66 1.76 C289.2 0, 311.73 -1.19, 336.17 1.17 C360.6 3.53, 398.6 12.5, 412.27 15.93 C425.94 19.36, 419.99 18.7, 418.19 21.75 M179.68 15.85 C198.46 6.71, 224.99 5.15, 248.33 2.67 C271.68 0.19, 296.48 -0.15, 319.75 0.95 C343.02 2.06, 365.49 4.11, 387.94 9.28 C410.39 14.44, 434.2 23.51, 454.46 31.93 C474.72 40.35, 492.98 48.33, 509.5 59.8 C526.03 71.27, 541.57 86.46, 553.61 100.75 C565.64 115.05, 575.19 130.29, 581.72 145.57 C588.24 160.85, 591.6 176.21, 592.77 192.42 C593.94 208.63, 593.19 226.53, 588.73 242.81 C584.27 259.1, 575.89 275.5, 566 290.12 C556.12 304.75, 544.16 318.3, 529.41 330.55 C514.65 342.8, 496.33 354.02, 477.46 363.63 C458.6 373.24, 437.88 381.66, 416.22 388.19 C394.55 394.71, 370.76 400.04, 347.48 402.79 C324.2 405.53, 300.06 405.78, 276.55 404.65 C253.03 403.52, 229.26 400.62, 206.38 396 C183.51 391.39, 159.84 385.33, 139.3 376.96 C118.77 368.59, 99.54 357.5, 83.16 345.78 C66.78 334.05, 52.98 320.78, 41.04 306.62 C29.1 292.47, 18.45 276.67, 11.51 260.82 C4.56 244.97, 0.12 227.68, -0.63 211.53 C-1.38 195.37, 2.36 179.52, 7.01 163.9 C11.66 148.27, 17.62 132.29, 27.26 117.78 C36.9 103.28, 49.82 89.61, 64.84 76.87 C79.87 64.14, 98.37 51.32, 117.38 41.36 C136.4 31.41, 168.19 20.67, 178.94 17.16 C189.68 13.64, 179.78 17.21, 181.84 20.27" stroke="transparent" stroke-width="4" fill="none"/>
  </g>
  <g transform="translate(40.589445807531774 282.0463427831314) rotate(0 246.58346771712513 -135.6273000814881)" stroke="none">
    <path fill="#343a40" d="M 0,4.97 Q 0,4.97 -2.33,5.03 -4.67,5.09 -6.98,5.29 -9.29,5.49 -11.89,5.03 -14.49,4.56 -17.29,2.79 -20.10,1.02 -22.29,-2.06 -24.48,-5.16 -25.97,-9.17 -27.47,-13.18 -27.98,-15.62 -28.49,-18.06 -28.90,-20.26 -29.31,-22.46 -29.68,-24.63 -30.05,-26.79 -30.34,-29.03 -30.64,-31.28 -31.21,-34.94 -31.78,-38.60 -32.28,-41.88 -32.77,-45.15 -32.88,-47.59 -32.99,-50.02 -32.75,-53.86 -32.51,-57.69 -31.10,-59.58 -29.69,-61.47 -27.45,-62.34 -25.21,-63.21 -22.53,-63.44 -19.86,-63.67 -17.37,-64.14 -14.88,-64.60 -16.84,-63.26 -18.81,-61.92 -20.13,-64.15 -21.45,-66.38 -21.65,-68.72 -21.86,-71.06 -21.91,-73.40 -21.96,-75.75 -20.86,-79.78 -19.77,-83.82 -16.86,-85.28 -13.95,-86.73 -11.75,-86.81 -9.54,-86.90 -6.43,-88.69 -3.31,-90.48 -0.71,-90.67 1.88,-90.87 -0.19,-88.87 -2.27,-86.88 -2.25,-89.72 -2.22,-92.56 -2.14,-95.84 -2.05,-99.11 -1.97,-101.25 -1.89,-103.38 -1.80,-105.67 -1.71,-107.97 -1.62,-110.32 -1.53,-112.68 -1.44,-114.95 -1.34,-117.22 -1.12,-119.45 -0.89,-121.69 -0.49,-123.83 -0.09,-125.98 1.15,-129.99 2.39,-134.00 4.28,-137.94 6.16,-141.88 7.54,-143.89 8.91,-145.91 10.65,-147.79 12.39,-149.67 14.16,-151.20 15.93,-152.72 18.52,-154.59 21.12,-156.45 23.21,-157.58 25.29,-158.72 27.34,-159.41 29.38,-160.11 31.90,-160.35 34.42,-160.58 32.76,-158.14 31.10,-155.69 31.63,-158.31 32.17,-160.94 33.51,-163.81 34.86,-166.69 36.60,-168.91 38.35,-171.14 40.88,-173.41 43.41,-175.68 46.26,-177.54 49.11,-179.40 51.65,-181.00 54.19,-182.61 56.84,-183.86 59.49,-185.11 61.83,-186.00 64.17,-186.89 66.24,-187.52 68.31,-188.14 70.52,-188.65 72.72,-189.16 75.37,-189.53 78.02,-189.90 80.64,-189.97 83.27,-190.03 85.39,-190.19 87.51,-190.35 89.17,-193.11 90.82,-195.86 91.67,-198.55 92.51,-201.23 93.40,-205.09 94.30,-208.95 94.71,-211.19 95.12,-213.43 95.60,-215.84 96.08,-218.25 97.06,-221.83 98.03,-225.41 98.82,-228.17 99.61,-230.92 100.50,-233.29 101.39,-235.66 102.31,-237.64 103.23,-239.62 105.11,-242.71 107.00,-245.81 109.39,-248.45 111.79,-251.09 114.85,-253.48 117.92,-255.88 121.07,-257.78 124.22,-259.67 126.33,-261.02 128.45,-262.37 130.83,-263.74 133.22,-265.11 136.10,-266.43 138.99,-267.75 140.95,-268.66 142.92,-269.57 145.82,-270.52 148.73,-271.48 152.18,-272.04 155.62,-272.61 158.82,-272.78 162.02,-272.96 164.36,-273.01 166.71,-273.07 169.69,-273.12 172.67,-273.17 176.10,-272.51 179.53,-271.86 181.88,-270.74 184.23,-269.62 186.16,-268.57 188.10,-267.51 189.99,-266.10 191.88,-264.69 193.93,-266.53 195.98,-268.37 199.73,-270.02 203.47,-271.67 205.62,-272.52 207.76,-273.37 210.02,-274.16 212.29,-274.96 215.75,-276.04 219.21,-277.11 222.34,-277.51 225.46,-277.91 227.86,-278.03 230.25,-278.14 232.84,-277.72 235.44,-277.31 237.99,-275.97 240.55,-274.64 243.42,-273.45 246.29,-272.26 249.06,-271.85 251.83,-271.44 255.10,-271.36 258.36,-271.28 261.50,-271.24 264.64,-271.21 267.00,-271.22 269.37,-271.22 271.83,-271.58 274.28,-271.94 276.48,-272.04 278.69,-272.13 281.56,-272.15 284.43,-272.17 287.59,-272.12 290.75,-272.08 293.59,-272.06 296.44,-272.04 300.41,-271.38 304.38,-270.72 306.57,-270.64 308.76,-270.56 311.42,-270.61 314.08,-270.65 316.53,-271.55 318.99,-272.44 321.46,-273.08 323.93,-273.71 327.45,-274.04 330.96,-274.38 333.46,-274.67 335.96,-274.95 339.32,-275.06 342.68,-275.17 345.74,-275.16 348.79,-275.15 352.29,-274.99 355.80,-274.82 359.14,-274.06 362.48,-273.29 364.97,-272.41 367.45,-271.53 369.67,-270.39 371.89,-269.26 374.94,-266.92 377.99,-264.59 380.15,-263.19 382.31,-261.79 385.78,-259.76 389.26,-257.73 392.40,-255.90 395.54,-254.08 398.35,-252.30 401.16,-250.53 403.88,-248.67 406.59,-246.81 409.51,-243.94 412.43,-241.06 413.88,-238.95 415.34,-236.84 416.62,-234.69 417.89,-232.53 419.36,-229.53 420.83,-226.53 421.89,-224.52 422.96,-222.51 424.40,-219.43 425.84,-216.35 426.80,-214.16 427.75,-211.96 426.08,-213.69 424.41,-215.42 426.58,-214.09 428.76,-212.77 432.39,-212.12 436.03,-211.47 439.78,-210.28 443.53,-209.08 446.13,-207.80 448.73,-206.53 450.59,-205.05 452.44,-203.58 455.15,-201.84 457.86,-200.10 460.56,-198.09 463.26,-196.08 465.81,-193.15 468.36,-190.22 469.83,-186.97 471.30,-183.72 471.64,-180.52 471.99,-177.31 472.74,-174.66 473.49,-172.01 471.03,-174.01 468.57,-176.01 472.54,-175.89 476.51,-175.77 478.14,-174.37 479.77,-172.97 480.91,-170.16 482.05,-167.36 482.55,-165.22 483.06,-163.09 484.35,-161.30 485.65,-159.50 487.14,-157.30 488.63,-155.10 489.84,-153.08 491.06,-151.05 491.44,-148.36 491.83,-145.66 491.84,-143.49 491.85,-141.31 493.94,-138.78 496.03,-136.25 497.34,-133.49 498.65,-130.74 499.64,-128.29 500.62,-125.84 501.76,-122.98 502.89,-120.13 504.33,-117.04 505.77,-113.96 507.12,-111.29 508.47,-108.62 509.53,-106.33 510.59,-104.03 511.43,-101.62 512.28,-99.21 512.51,-96.51 512.74,-93.81 511.71,-90.35 510.69,-86.89 509.44,-84.68 508.19,-82.47 506.90,-78.69 505.61,-74.92 503.45,-73.33 501.29,-71.75 502.37,-74.23 503.46,-76.70 500.70,-80.83 497.94,-84.96 500.61,-84.48 503.28,-84.00 504.85,-82.43 506.41,-80.86 507.81,-78.84 509.20,-76.83 510.67,-74.47 512.14,-72.11 513.77,-69.51 515.40,-66.91 516.59,-65.06 517.79,-63.20 519.52,-61.02 521.25,-58.85 522.62,-56.75 524.00,-54.64 525.03,-52.66 526.06,-50.68 526.62,-48.10 527.17,-45.52 527.23,-43.04 527.29,-40.56 527.29,-38.32 527.29,-36.07 527.15,-33.55 527.01,-31.03 525.51,-27.86 524.00,-24.69 522.03,-23.03 520.05,-21.37 517.97,-20.16 515.90,-18.94 511.82,-17.54 507.74,-16.14 506.55,-16.22 505.36,-16.29 504.26,-16.73 503.16,-17.18 502.25,-17.96 501.35,-18.73 500.74,-19.76 500.14,-20.78 499.89,-21.94 499.64,-23.11 499.77,-24.29 499.91,-25.47 500.42,-26.55 500.92,-27.63 501.75,-28.49 502.57,-29.34 503.62,-29.90 504.68,-30.45 505.85,-30.63 507.03,-30.82 508.20,-30.62 509.38,-30.42 510.42,-29.85 511.47,-29.29 512.28,-28.42 513.10,-27.55 513.59,-26.47 514.08,-25.39 514.21,-24.20 514.33,-23.02 514.06,-21.86 513.80,-20.70 513.18,-19.68 512.56,-18.67 511.65,-17.90 510.74,-17.14 509.63,-16.70 508.52,-16.27 507.33,-16.21 506.14,-16.15 505.00,-16.48 503.86,-16.81 502.87,-17.48 501.89,-18.15 501.18,-19.10 500.46,-20.06 500.09,-21.19 499.72,-22.32 499.73,-23.51 499.73,-24.70 500.12,-25.82 500.51,-26.95 501.23,-27.89 501.96,-28.83 502.95,-29.49 503.94,-30.16 505.09,-30.47 506.24,-30.78 506.23,-30.78 506.23,-30.78 508.06,-31.53 509.88,-32.28 511.38,-34.18 512.88,-36.07 512.87,-38.31 512.87,-40.55 512.83,-43.19 512.78,-45.83 511.52,-48.00 510.26,-50.17 508.28,-52.61 506.29,-55.05 503.90,-58.31 501.51,-61.57 499.83,-64.08 498.14,-66.58 497.41,-68.84 496.67,-71.10 495.15,-76.93 493.62,-82.77 494.17,-85.33 494.72,-87.90 496.52,-90.49 498.31,-93.07 498.18,-95.24 498.04,-97.40 497.06,-99.73 496.08,-102.06 494.67,-104.74 493.26,-107.41 491.42,-110.93 489.58,-114.44 488.31,-117.33 487.04,-120.22 486.13,-122.38 485.21,-124.54 484.20,-126.56 483.19,-128.58 481.74,-130.48 480.30,-132.39 478.63,-135.66 476.97,-138.92 476.97,-141.13 476.98,-143.34 476.32,-145.63 475.66,-147.93 474.13,-150.16 472.59,-152.39 471.15,-154.74 469.70,-157.10 470.55,-159.86 471.40,-162.62 468.97,-162.34 466.55,-162.06 464.62,-162.95 462.69,-163.84 460.97,-167.10 459.25,-170.36 458.85,-173.71 458.46,-177.06 458.29,-179.59 458.12,-182.12 456.46,-184.14 454.80,-186.15 452.94,-187.64 451.07,-189.13 447.70,-191.33 444.33,-193.53 441.53,-195.40 438.74,-197.28 436.02,-198.21 433.29,-199.13 430.46,-199.65 427.62,-200.16 424.21,-201.68 420.81,-203.19 418.54,-205.23 416.27,-207.26 415.45,-209.47 414.64,-211.67 413.58,-214.31 412.52,-216.96 411.49,-218.88 410.47,-220.80 407.70,-225.19 404.93,-229.58 402.92,-232.16 400.92,-234.74 398.86,-236.48 396.81,-238.22 394.22,-239.98 391.63,-241.74 388.97,-243.46 386.32,-245.18 383.00,-247.11 379.69,-249.04 377.81,-250.13 375.93,-251.23 373.57,-252.55 371.22,-253.88 366.71,-256.24 362.19,-258.60 359.46,-259.55 356.72,-260.51 354.39,-260.83 352.06,-261.16 348.93,-261.11 345.81,-261.07 342.98,-261.00 340.15,-260.93 337.54,-260.68 334.94,-260.42 332.26,-260.16 329.58,-259.91 326.77,-259.37 323.97,-258.83 321.87,-258.11 319.76,-257.38 317.02,-256.80 314.29,-256.21 311.48,-256.24 308.68,-256.27 306.52,-256.39 304.36,-256.51 301.79,-257.13 299.23,-257.76 296.46,-257.84 293.69,-257.92 290.62,-257.88 287.55,-257.84 283.92,-257.82 280.30,-257.81 277.46,-257.80 274.63,-257.79 272.00,-257.48 269.38,-257.17 267.01,-257.18 264.64,-257.19 261.50,-257.15 258.36,-257.12 254.38,-257.05 250.40,-256.97 247.97,-257.11 245.55,-257.24 243.17,-258.19 240.79,-259.15 238.71,-260.15 236.64,-261.15 233.91,-262.67 231.19,-264.20 228.71,-264.28 226.22,-264.37 223.33,-263.93 220.45,-263.49 216.86,-262.10 213.28,-260.71 211.30,-259.76 209.32,-258.81 206.32,-257.33 203.31,-255.84 201.45,-254.71 199.60,-253.57 197.50,-252.43 195.40,-251.29 192.51,-250.89 189.62,-250.49 187.05,-251.27 184.48,-252.05 182.00,-254.14 179.53,-256.22 177.24,-257.46 174.95,-258.70 172.79,-258.99 170.63,-259.29 167.64,-259.32 164.66,-259.35 162.39,-259.32 160.11,-259.30 157.34,-259.00 154.57,-258.71 151.40,-257.91 148.24,-257.10 146.26,-256.27 144.29,-255.44 142.28,-254.62 140.28,-253.80 137.93,-252.72 135.57,-251.64 132.95,-250.10 130.33,-248.56 127.69,-247.06 125.06,-245.55 122.68,-243.80 120.30,-242.05 118.62,-240.44 116.93,-238.84 115.39,-236.65 113.85,-234.47 112.37,-231.18 110.90,-227.89 110.32,-225.53 109.73,-223.17 109.34,-219.62 108.96,-216.07 108.64,-213.77 108.32,-211.47 108.04,-209.07 107.77,-206.66 107.42,-204.23 107.08,-201.79 106.64,-199.64 106.20,-197.49 105.28,-194.26 104.35,-191.02 103.64,-188.84 102.93,-186.66 100.89,-183.34 98.85,-180.03 96.58,-178.82 94.31,-177.61 91.81,-176.94 89.31,-176.27 86.39,-176.04 83.48,-175.81 81.31,-175.76 79.15,-175.72 76.52,-175.31 73.88,-174.91 71.33,-174.26 68.79,-173.61 65.98,-172.53 63.17,-171.46 61.26,-170.41 59.36,-169.35 56.82,-167.66 54.28,-165.97 52.44,-164.62 50.60,-163.28 48.83,-161.33 47.06,-159.38 46.03,-157.01 45.00,-154.65 43.77,-152.03 42.54,-149.41 39.10,-148.13 35.66,-146.86 33.27,-146.83 30.89,-146.81 28.62,-145.68 26.34,-144.55 24.04,-142.76 21.73,-140.96 19.69,-138.42 17.65,-135.87 16.22,-132.78 14.78,-129.68 13.85,-126.61 12.91,-123.55 12.49,-120.28 12.08,-117.02 12.11,-114.85 12.14,-112.68 12.23,-110.32 12.32,-107.97 12.41,-105.67 12.50,-103.38 12.63,-99.43 12.77,-95.48 12.80,-92.09 12.84,-88.70 12.70,-86.46 12.56,-84.22 11.68,-82.04 10.81,-79.87 9.16,-78.42 7.51,-76.98 4.76,-76.42 2.02,-75.87 -0.32,-75.06 -2.66,-74.26 -4.87,-73.35 -7.08,-72.45 -9.56,-72.30 -12.04,-72.15 -9.74,-73.35 -7.44,-74.54 -7.41,-71.93 -7.38,-69.32 -6.88,-67.15 -6.37,-64.97 -6.26,-61.80 -6.15,-58.64 -6.92,-56.30 -7.70,-53.97 -10.91,-52.40 -14.12,-50.83 -17.34,-50.72 -20.55,-50.60 -20.26,-47.12 -19.97,-43.63 -19.54,-40.27 -19.11,-36.91 -18.54,-32.92 -17.97,-28.93 -17.17,-24.80 -16.38,-20.67 -15.49,-17.18 -14.59,-13.70 -13.67,-11.44 -12.74,-9.19 -11.02,-7.34 -9.29,-5.49 -6.98,-5.29 -4.67,-5.09 -2.33,-5.03 0,-4.97 0.59,-4.90 1.19,-4.83 1.75,-4.62 2.31,-4.40 2.80,-4.06 3.30,-3.72 3.69,-3.27 4.09,-2.82 4.37,-2.29 4.65,-1.76 4.79,-1.18 4.94,-0.59 4.94,0.00 4.94,0.60 4.79,1.18 4.65,1.76 4.37,2.29 4.09,2.82 3.69,3.27 3.30,3.72 2.80,4.06 2.31,4.40 1.75,4.62 1.19,4.83 0.59,4.90 -0.00,4.97 -0.00,4.97 L 0,4.97 Z"/>
  </g>
  <g transform="translate(552.0603970704597 258.671111099507) rotate(0 -40.79636502838639 48.50998460208325)" stroke="none">
    <path fill="#343a40" d="M 5.15,-1.13 Q 5.15,-1.13 5.66,0.92 6.16,2.97 7.17,5.41 8.18,7.85 9.41,11.83 10.64,15.81 11.43,19.62 12.21,23.43 12.44,26.28 12.66,29.13 12.76,31.54 12.85,33.95 12.96,36.80 13.06,39.65 12.78,42.14 12.49,44.64 10.95,47.10 9.41,49.57 7.32,51.01 5.23,52.45 2.73,53.74 0.24,55.04 -1.88,55.66 -4.01,56.27 -6.70,56.46 -9.39,56.64 -11.90,56.69 -14.40,56.75 -16.69,56.80 -18.99,56.85 -16.11,55.18 -13.24,53.51 -14.10,56.16 -14.96,58.80 -16.24,61.60 -17.52,64.40 -19.11,67.33 -20.70,70.27 -22.74,73.38 -24.79,76.49 -25.93,78.29 -27.07,80.08 -28.83,82.24 -30.60,84.40 -33.11,85.59 -35.62,86.77 -38.37,86.95 -41.12,87.14 -43.71,87.22 -46.29,87.31 -48.75,87.38 -51.21,87.44 -54.35,87.49 -57.48,87.54 -60.25,87.58 -63.03,87.62 -65.60,87.66 -68.17,87.70 -71.49,87.37 -74.82,87.03 -77.09,85.67 -79.35,84.31 -80.58,81.68 -81.80,79.06 -81.89,77.37 -81.99,75.69 -81.91,74.83 -81.82,73.96 -81.54,73.14 -81.25,72.31 -80.78,71.58 -80.30,70.85 -79.66,70.26 -79.03,69.66 -78.27,69.23 -77.51,68.81 -76.67,68.58 -75.83,68.35 -74.96,68.32 -74.09,68.30 -73.23,68.48 -72.38,68.67 -71.60,69.05 -70.82,69.44 -70.15,70.00 -69.48,70.56 -68.97,71.26 -68.45,71.96 -68.12,72.77 -67.79,73.58 -67.66,74.44 -67.53,75.30 -67.51,77.98 -67.48,80.67 -67.46,83.57 -67.43,86.46 -67.51,88.65 -67.58,90.84 -68.15,92.95 -68.72,95.06 -70.22,97.31 -71.72,99.57 -74.37,101.12 -77.01,102.68 -79.89,103.45 -82.77,104.23 -89.26,99.63 -95.74,95.03 -95.57,93.81 -95.39,92.59 -94.84,91.50 -94.28,90.40 -93.41,89.54 -92.53,88.67 -91.43,88.14 -90.32,87.60 -89.10,87.44 -87.88,87.29 -86.68,87.53 -85.47,87.77 -84.41,88.38 -83.34,88.99 -82.53,89.92 -81.71,90.84 -81.24,91.97 -80.76,93.10 -80.67,94.33 -80.58,95.55 -80.89,96.74 -81.19,97.93 -81.86,98.97 -82.53,100.00 -83.50,100.76 -84.46,101.52 -85.62,101.94 -86.77,102.35 -88.00,102.37 -89.23,102.40 -90.40,102.03 -91.58,101.66 -92.57,100.93 -93.56,100.21 -94.27,99.20 -94.98,98.20 -95.33,97.02 -95.68,95.84 -95.64,94.62 -95.60,93.39 -95.16,92.24 -94.73,91.09 -93.95,90.14 -93.17,89.18 -92.13,88.53 -91.09,87.88 -89.90,87.59 -88.70,87.30 -87.48,87.41 -86.25,87.52 -85.13,88.02 -84.00,88.51 -83.10,89.34 -82.19,90.17 -81.59,91.24 -80.99,92.32 -80.77,93.52 -80.55,94.73 -80.55,94.73 -80.55,94.73 -83.08,91.94 -85.62,89.14 -83.87,87.80 -82.12,86.46 -82.10,83.57 -82.07,80.67 -82.03,78.18 -81.99,75.69 -81.91,74.83 -81.82,73.96 -81.54,73.14 -81.25,72.31 -80.78,71.58 -80.30,70.85 -79.66,70.26 -79.03,69.66 -78.27,69.24 -77.51,68.81 -76.67,68.58 -75.83,68.35 -74.96,68.32 -74.09,68.30 -73.23,68.48 -72.38,68.67 -71.60,69.05 -70.82,69.44 -70.15,70.00 -69.48,70.56 -68.97,71.26 -68.45,71.96 -68.12,72.77 -67.79,73.57 -67.66,74.44 -67.53,75.30 -67.85,74.44 -68.17,73.59 -65.60,73.63 -63.03,73.67 -60.25,73.71 -57.48,73.75 -55.32,73.78 -53.16,73.81 -50.55,73.87 -47.94,73.93 -45.43,74.01 -42.92,74.09 -40.71,74.66 -38.50,75.23 -36.76,72.92 -35.01,70.60 -33.61,67.73 -32.21,64.85 -31.14,62.14 -30.07,59.43 -29.24,56.90 -28.42,54.37 -27.20,50.43 -25.98,46.49 -22.48,44.41 -18.99,42.34 -16.70,42.39 -14.41,42.44 -11.99,42.48 -9.58,42.52 -6.90,42.24 -4.23,41.96 -2.09,40.81 0.04,39.66 0.14,36.83 0.24,34.00 0.29,31.74 0.35,29.49 0.34,27.17 0.34,24.86 -0.10,21.93 -0.55,19.01 -1.25,16.70 -1.94,14.39 -2.64,12.11 -3.33,9.82 -3.84,7.55 -4.35,5.28 -4.75,3.20 -5.15,1.13 -5.21,0.49 -5.27,-0.13 -5.18,-0.76 -5.09,-1.39 -4.85,-1.98 -4.61,-2.57 -4.23,-3.08 -3.86,-3.60 -3.37,-4.01 -2.88,-4.42 -2.31,-4.70 -1.74,-4.98 -1.12,-5.12 -0.50,-5.25 0.13,-5.24 0.77,-5.22 1.38,-5.05 1.99,-4.88 2.55,-4.57 3.11,-4.26 3.57,-3.83 4.04,-3.39 4.38,-2.86 4.73,-2.33 4.94,-1.73 5.15,-1.13 5.15,-1.13 L 5.15,-1.13 Z"/>
  </g>
  <g transform="translate(43.952488142297625 288.86990423946645) rotate(0 208.4240081948492 16.26296746866842)" stroke="none">
    <path fill="#343a40" d="M 4.83,0.24 Q 4.83,0.24 4.40,4.27 3.96,8.30 3.65,12.47 3.34,16.63 3.55,19.08 3.77,21.54 4.83,24.27 5.90,26.99 8.71,27.14 11.52,27.28 13.95,27.13 16.39,26.99 18.52,26.73 20.65,26.47 22.65,25.55 24.65,24.64 26.54,23.00 28.43,21.37 31.17,20.01 33.91,18.64 36.39,17.52 38.87,16.41 41.08,16.18 43.29,15.95 46.03,16.81 48.77,17.66 50.92,17.82 53.06,17.98 55.97,17.97 58.88,17.97 61.07,17.97 63.26,17.97 63.93,15.84 64.59,13.72 67.52,11.31 70.44,8.90 73.09,8.71 75.73,8.53 78.39,8.51 81.05,8.50 83.51,8.49 85.97,8.48 87.63,6.71 89.28,4.93 90.93,3.44 92.59,1.94 94.70,0.01 96.81,-1.91 98.67,-3.57 100.53,-5.22 102.84,-6.51 105.16,-7.79 107.73,-8.22 110.31,-8.66 109.31,-6.60 108.32,-4.54 108.26,-6.98 108.20,-9.42 108.75,-12.42 109.30,-15.41 110.87,-17.67 112.44,-19.92 114.70,-21.93 116.96,-23.93 120.48,-26.11 124.01,-28.28 127.41,-30.15 130.81,-32.02 133.69,-33.32 136.57,-34.62 139.91,-35.09 143.24,-35.57 146.23,-35.65 149.23,-35.73 151.74,-35.76 154.25,-35.79 156.69,-35.81 159.12,-35.83 161.49,-35.87 163.87,-35.91 166.56,-36.29 169.26,-36.67 171.71,-37.05 174.15,-37.43 176.30,-37.51 178.45,-37.58 180.84,-37.57 183.23,-37.56 186.03,-38.04 188.84,-38.51 191.60,-39.55 194.36,-40.59 196.95,-41.48 199.55,-42.37 201.97,-43.19 204.40,-44.01 206.42,-44.80 208.45,-45.60 210.81,-46.40 213.18,-47.21 215.40,-47.50 217.62,-47.80 220.24,-47.85 222.87,-47.90 225.62,-47.92 228.37,-47.93 231.79,-47.69 235.21,-47.46 238.40,-46.25 241.59,-45.03 244.47,-44.21 247.36,-43.39 249.55,-42.95 251.74,-42.50 253.93,-42.41 256.13,-42.31 259.45,-41.17 262.77,-40.03 265.40,-40.09 268.02,-40.14 270.49,-40.14 272.95,-40.14 275.41,-40.14 277.87,-40.15 280.35,-40.12 282.82,-40.09 286.43,-39.20 290.04,-38.31 292.14,-35.42 294.24,-32.52 294.62,-29.61 295.00,-26.70 295.05,-24.35 295.10,-22.00 295.13,-19.37 295.15,-16.74 292.46,-19.24 289.77,-21.73 293.13,-21.69 296.49,-21.65 298.71,-21.56 300.93,-21.46 303.40,-21.35 305.87,-21.23 308.30,-21.13 310.73,-21.03 312.98,-20.96 315.23,-20.90 318.90,-20.86 322.58,-20.83 324.84,-20.87 327.10,-20.91 329.30,-20.81 331.50,-20.71 334.69,-20.12 337.87,-19.52 340.44,-18.77 343.01,-18.01 346.26,-16.76 349.50,-15.51 352.28,-14.46 355.05,-13.41 357.36,-12.28 359.68,-11.15 361.85,-9.81 364.03,-8.47 365.86,-6.77 367.69,-5.06 370.05,-2.68 372.41,-0.30 374.58,1.72 376.75,3.74 378.83,5.71 380.90,7.67 382.63,9.21 384.36,10.75 386.23,12.45 388.09,14.14 389.92,16.65 391.76,19.17 392.50,21.59 393.25,24.02 393.71,26.18 394.17,28.35 394.22,30.61 394.27,32.86 391.64,31.12 389.01,29.37 391.62,30.32 394.24,31.27 395.80,32.92 397.37,34.58 399.26,36.74 401.16,38.91 403.02,40.97 404.89,43.03 406.57,44.84 408.26,46.64 409.71,48.26 411.15,49.88 413.31,52.53 415.47,55.17 416.91,57.22 418.36,59.27 419.03,61.42 419.69,63.57 421.65,66.50 423.60,69.43 424.01,70.49 424.42,71.54 424.47,72.68 424.52,73.81 424.21,74.90 423.89,75.99 423.25,76.92 422.60,77.85 421.69,78.53 420.78,79.21 419.70,79.56 418.63,79.91 417.49,79.90 416.36,79.89 415.29,79.52 414.21,79.15 413.32,78.45 412.42,77.75 411.80,76.81 411.17,75.86 410.88,74.77 410.58,73.67 410.66,72.54 410.73,71.41 411.16,70.36 411.59,69.31 412.33,68.45 413.07,67.60 414.05,67.02 415.03,66.45 416.14,66.21 417.25,65.98 418.38,66.11 419.50,66.25 420.53,66.73 421.55,67.22 422.37,68.01 423.18,68.80 423.70,69.80 424.22,70.81 424.40,71.93 424.57,73.05 424.37,74.17 424.18,75.29 423.64,76.29 423.10,77.28 422.27,78.05 421.44,78.83 420.40,79.29 419.37,79.76 418.24,79.87 417.11,79.98 416.00,79.73 414.90,79.47 413.93,78.88 412.97,78.28 412.24,77.41 411.52,76.54 411.52,76.54 411.52,76.54 409.70,73.09 407.88,69.65 407.25,67.44 406.62,65.23 405.08,63.13 403.54,61.03 401.25,58.48 398.95,55.93 397.17,54.27 395.39,52.60 393.33,50.77 391.28,48.93 388.76,46.46 386.24,43.98 384.34,43.00 382.45,42.02 381.22,39.83 380.00,37.64 379.79,35.25 379.57,32.87 379.58,30.40 379.59,27.93 378.36,25.44 377.14,22.95 375.22,21.34 373.30,19.73 371.28,17.89 369.25,16.05 367.11,14.04 364.97,12.03 362.70,9.93 360.43,7.82 358.85,6.20 357.28,4.58 355.78,3.07 354.27,1.56 352.14,0.43 350.00,-0.68 347.40,-1.66 344.79,-2.64 341.68,-3.76 338.56,-4.88 335.89,-5.69 333.21,-6.50 330.15,-6.99 327.10,-7.48 324.84,-7.52 322.58,-7.56 318.90,-7.52 315.23,-7.48 312.98,-7.42 310.73,-7.35 308.30,-7.25 305.87,-7.15 303.40,-7.04 300.93,-6.92 297.04,-6.79 293.15,-6.65 290.18,-6.74 287.21,-6.83 285.14,-7.97 283.08,-9.11 281.59,-12.92 280.10,-16.74 280.12,-19.36 280.13,-21.97 281.48,-23.62 282.82,-25.27 279.53,-25.24 276.24,-25.21 273.77,-25.21 271.30,-25.21 268.83,-25.22 266.36,-25.22 263.93,-25.27 261.49,-25.31 259.07,-26.46 256.64,-27.60 254.24,-27.68 251.84,-27.76 249.26,-28.12 246.68,-28.48 244.26,-28.95 241.84,-29.42 239.48,-30.13 237.11,-30.84 234.39,-31.89 231.66,-32.95 229.23,-32.97 226.79,-32.99 224.29,-33.00 221.78,-33.02 219.65,-33.05 217.52,-33.08 215.05,-32.24 212.59,-31.39 210.16,-30.50 207.72,-29.61 205.32,-28.84 202.92,-28.07 200.24,-27.18 197.55,-26.29 194.54,-25.19 191.53,-24.08 188.94,-23.57 186.35,-23.06 183.62,-22.90 180.89,-22.75 178.25,-22.72 175.60,-22.69 172.56,-22.25 169.52,-21.82 167.09,-21.54 164.66,-21.26 162.53,-21.30 160.39,-21.34 158.15,-21.36 155.91,-21.38 153.44,-21.41 150.98,-21.43 148.45,-21.44 145.93,-21.44 143.07,-21.16 140.20,-20.87 137.54,-19.38 134.88,-17.90 131.80,-15.86 128.72,-13.81 126.03,-12.35 123.34,-10.88 123.32,-8.49 123.30,-6.11 123.07,-3.29 122.83,-0.47 121.53,1.58 120.23,3.64 117.83,4.86 115.44,6.09 113.07,6.11 110.70,6.12 108.74,7.67 106.78,9.22 104.84,11.02 102.91,12.82 100.90,14.74 98.89,16.66 96.65,18.63 94.41,20.61 91.61,21.93 88.82,23.25 86.49,23.36 84.16,23.47 81.88,23.46 79.60,23.46 76.85,23.37 74.10,23.28 76.14,20.79 78.19,18.31 78.11,20.69 78.03,23.07 76.86,25.89 75.69,28.71 72.86,30.39 70.03,32.07 67.73,32.27 65.42,32.47 63.25,32.47 61.08,32.47 58.84,32.48 56.60,32.48 54.01,32.46 51.42,32.45 48.94,32.35 46.46,32.25 44.07,31.17 41.68,30.09 39.31,31.25 36.94,32.40 34.90,33.78 32.86,35.16 30.39,36.39 27.93,37.61 25.20,38.40 22.47,39.18 20.18,39.20 17.89,39.22 15.48,39.08 13.07,38.93 10.45,38.72 7.84,38.51 5.49,38.03 3.14,37.55 0.54,35.19 -2.04,32.82 -3.01,29.71 -3.97,26.60 -4.28,24.22 -4.58,21.85 -4.55,19.16 -4.51,16.47 -4.65,12.16 -4.78,7.86 -4.81,3.80 -4.83,-0.24 -4.73,-0.82 -4.63,-1.39 -4.40,-1.93 -4.17,-2.46 -3.81,-2.93 -3.45,-3.39 -3.00,-3.75 -2.54,-4.12 -2.01,-4.36 -1.48,-4.61 -0.91,-4.72 -0.33,-4.83 0.24,-4.80 0.82,-4.77 1.38,-4.60 1.94,-4.43 2.44,-4.13 2.95,-3.84 3.36,-3.43 3.78,-3.02 4.09,-2.52 4.39,-2.03 4.57,-1.47 4.75,-0.91 4.79,-0.33 4.83,0.24 4.83,0.24 L 4.83,0.24 Z"/>
  </g>
  <g transform="translate(169.80266148929604 284.9838793735903) rotate(0 25.281713619022412 23.23498066628281)" stroke="none">
    <path fill="#343a40" d="M 5.23,-0.33 Q 5.23,-0.33 5.38,2.49 5.54,5.31 6.39,9.10 7.23,12.90 8.24,15.59 9.25,18.28 10.52,21.12 11.79,23.97 13.40,25.68 15.02,27.39 17.21,27.97 19.40,28.55 22.20,29.02 24.99,29.49 28.17,30.03 31.34,30.56 34.03,31.25 36.72,31.93 38.96,32.55 41.19,33.18 44.41,34.08 47.62,34.98 50.09,36.28 52.57,37.57 54.56,39.86 56.55,42.15 57.09,43.22 57.62,44.29 57.78,45.47 57.94,46.66 57.72,47.83 57.50,49.00 56.91,50.05 56.32,51.09 55.43,51.89 54.54,52.69 53.45,53.16 52.35,53.63 51.16,53.73 49.97,53.83 48.81,53.54 47.65,53.26 46.64,52.61 45.63,51.97 44.88,51.04 44.13,50.11 43.72,48.99 43.30,47.87 43.27,46.67 43.24,45.48 43.59,44.33 43.94,43.19 44.63,42.22 45.33,41.25 46.30,40.55 47.27,39.85 48.41,39.50 49.55,39.14 50.75,39.18 51.94,39.21 53.07,39.62 54.19,40.03 55.12,40.78 56.05,41.53 56.70,42.53 57.34,43.54 57.63,44.70 57.92,45.86 57.83,47.05 57.73,48.24 57.26,49.34 56.79,50.44 55.99,51.33 55.19,52.22 54.15,52.81 53.11,53.40 51.94,53.62 50.77,53.85 49.58,53.69 48.40,53.53 47.32,53.00 46.25,52.47 45.41,51.63 44.56,50.78 44.56,50.78 44.56,50.78 42.57,49.23 40.58,47.68 37.83,47.18 35.08,46.68 32.66,45.75 30.25,44.82 27.72,44.36 25.19,43.91 22.38,43.21 19.57,42.52 16.93,41.88 14.29,41.25 11.46,40.09 8.63,38.93 6.62,37.16 4.62,35.40 3.29,33.53 1.97,31.66 0.90,29.40 -0.15,27.15 -0.98,24.53 -1.80,21.91 -2.34,19.75 -2.88,17.59 -3.49,14.24 -4.11,10.90 -4.47,8.44 -4.82,5.97 -5.03,3.15 -5.23,0.33 -5.19,-0.29 -5.15,-0.92 -4.97,-1.53 -4.78,-2.13 -4.46,-2.67 -4.13,-3.22 -3.69,-3.66 -3.24,-4.11 -2.70,-4.44 -2.16,-4.77 -1.56,-4.96 -0.96,-5.15 -0.32,-5.19 0.30,-5.23 0.92,-5.12 1.54,-5.00 2.12,-4.75 2.69,-4.49 3.19,-4.10 3.69,-3.71 4.08,-3.22 4.47,-2.72 4.73,-2.14 4.99,-1.57 5.11,-0.95 5.23,-0.33 5.23,-0.33 L 5.23,-0.33 Z"/>
  </g>
  <g transform="translate(202.46241733088664 327.5232709988918) rotate(0 129.78055667417266 30.936765104296683)" stroke="none">
    <path fill="#343a40" d="M 5.20,-0.93 Q 5.20,-0.93 5.58,0.78 5.96,2.49 7.05,4.41 8.13,6.33 9.42,8.35 10.71,10.38 12.05,12.30 13.40,14.22 14.40,16.21 15.41,18.20 16.92,21.34 18.44,24.47 19.57,26.37 20.71,28.27 22.67,30.29 24.64,32.31 26.43,34.71 28.23,37.12 30.02,39.38 31.82,41.65 33.37,43.19 34.92,44.72 36.85,45.94 38.77,47.15 40.78,48.06 42.78,48.97 44.86,49.57 46.95,50.18 50.10,50.20 53.25,50.22 56.21,50.22 59.17,50.22 61.35,50.22 63.52,50.22 65.79,50.23 68.06,50.24 70.72,50.22 73.39,50.21 75.48,49.62 77.58,49.02 79.82,47.65 82.07,46.28 83.54,44.53 85.00,42.78 86.77,40.74 88.54,38.69 90.41,36.59 92.29,34.49 94.88,32.47 97.46,30.46 99.72,29.65 101.98,28.85 104.11,28.60 106.25,28.34 108.83,28.30 111.40,28.26 114.37,29.04 117.34,29.82 119.06,31.43 120.79,33.03 121.26,35.30 121.73,37.56 123.77,39.12 125.81,40.68 127.96,42.48 130.11,44.28 132.85,46.07 135.59,47.86 138.85,49.71 142.12,51.56 144.64,52.77 147.17,53.98 149.28,54.31 151.40,54.63 153.69,54.63 155.99,54.63 158.45,54.60 160.92,54.57 162.83,53.31 164.73,52.05 166.58,50.94 168.42,49.83 170.37,48.17 172.32,46.50 174.23,45.07 176.13,43.64 178.52,41.92 180.90,40.21 183.57,38.83 186.24,37.46 188.84,36.96 191.45,36.46 194.12,36.43 196.78,36.40 199.41,36.73 202.04,37.06 202.70,34.72 203.35,32.37 204.15,30.40 204.95,28.42 205.93,26.39 206.90,24.35 208.69,21.46 210.48,18.57 212.68,16.33 214.88,14.09 217.20,12.85 219.52,11.61 221.64,10.92 223.76,10.23 226.81,9.54 229.85,8.84 232.32,8.64 234.78,8.44 237.05,8.42 239.32,8.39 241.59,8.38 243.87,8.38 246.99,8.60 250.10,8.82 252.32,8.90 254.53,8.97 257.04,8.96 259.56,8.95 260.73,9.14 261.90,9.34 262.95,9.89 263.99,10.45 264.81,11.31 265.63,12.17 266.12,13.25 266.62,14.32 266.75,15.50 266.88,16.68 266.62,17.84 266.37,19.00 265.76,20.02 265.14,21.03 264.24,21.80 263.33,22.57 262.23,23.01 261.13,23.45 259.95,23.51 258.76,23.57 257.62,23.26 256.48,22.94 255.49,22.27 254.51,21.61 253.79,20.66 253.08,19.72 252.70,18.59 252.32,17.47 252.32,16.28 252.32,15.10 252.70,13.97 253.08,12.85 253.80,11.90 254.52,10.96 255.50,10.29 256.48,9.63 257.62,9.31 258.77,9.00 259.95,9.06 261.14,9.12 262.24,9.56 263.34,10.00 264.24,10.77 265.15,11.54 265.76,12.56 266.37,13.57 266.62,14.73 266.88,15.89 266.75,17.07 266.62,18.25 266.12,19.33 265.62,20.40 264.81,21.26 263.99,22.12 262.94,22.68 261.89,23.23 260.72,23.43 259.55,23.62 259.55,23.62 259.55,23.62 257.03,23.61 254.50,23.59 251.91,23.50 249.32,23.40 246.60,23.05 243.89,22.70 241.65,22.71 239.40,22.71 236.55,22.74 233.70,22.77 231.37,23.14 229.03,23.51 226.55,24.21 224.06,24.91 222.42,26.48 220.77,28.06 219.47,30.63 218.18,33.21 217.47,35.41 216.76,37.60 215.85,40.11 214.93,42.62 213.67,44.89 212.41,47.16 210.37,49.02 208.33,50.87 204.76,51.46 201.19,52.04 198.99,51.74 196.78,51.44 194.17,51.42 191.55,51.40 189.66,52.46 187.78,53.51 185.69,55.12 183.61,56.73 181.61,58.35 179.61,59.97 177.70,61.35 175.79,62.74 173.49,64.03 171.18,65.31 168.94,66.44 166.70,67.58 163.83,68.37 160.96,69.17 158.45,69.13 155.94,69.10 153.22,69.00 150.51,68.91 147.64,68.53 144.77,68.15 141.61,67.00 138.46,65.86 135.23,64.28 132.01,62.70 128.41,60.90 124.82,59.10 123.04,57.73 121.25,56.35 118.84,54.51 116.42,52.67 114.28,51.18 112.14,49.69 110.15,46.90 108.16,44.12 107.74,41.88 107.32,39.64 109.96,41.46 112.60,43.28 110.35,43.28 108.10,43.27 105.95,43.72 103.81,44.18 102.30,45.79 100.79,47.41 99.17,49.22 97.55,51.04 95.67,52.95 93.79,54.86 91.74,56.92 89.70,58.98 86.96,60.58 84.21,62.18 80.96,63.34 77.71,64.49 75.55,64.63 73.39,64.77 70.72,64.76 68.06,64.74 65.79,64.75 63.52,64.76 61.35,64.76 59.17,64.76 56.18,64.76 53.20,64.75 51.07,64.73 48.93,64.72 46.73,64.58 44.52,64.45 41.35,63.48 38.18,62.50 36.04,61.53 33.90,60.55 31.85,59.35 29.80,58.14 27.99,56.87 26.19,55.60 24.44,53.92 22.70,52.25 21.17,50.41 19.64,48.58 18.28,46.63 16.92,44.69 15.08,42.28 13.24,39.88 11.38,37.64 9.52,35.39 8.11,32.86 6.71,30.32 5.38,27.56 4.05,24.80 2.95,22.22 1.84,19.64 0.58,17.33 -0.68,15.03 -1.88,12.33 -3.09,9.63 -3.90,7.03 -4.71,4.43 -4.96,2.68 -5.20,0.93 -5.23,0.29 -5.27,-0.33 -5.15,-0.96 -5.04,-1.58 -4.77,-2.16 -4.51,-2.74 -4.11,-3.24 -3.72,-3.74 -3.22,-4.14 -2.71,-4.53 -2.13,-4.79 -1.55,-5.05 -0.92,-5.16 -0.30,-5.27 0.33,-5.23 0.96,-5.19 1.57,-5.00 2.18,-4.81 2.72,-4.48 3.27,-4.14 3.72,-3.69 4.17,-3.24 4.49,-2.69 4.82,-2.15 5.01,-1.54 5.20,-0.93 5.20,-0.93 L 5.20,-0.93 Z"/>
  </g>
  <g transform="translate(278.7582252443417 392.38726974335987) rotate(0 48.14663661762188 40.78648688364342)" stroke="none">
    <path fill="#343a40" d="M 4.02,-2.92 Q 4.02,-2.92 5.75,-0.50 7.48,1.90 9.32,4.54 11.16,7.17 11.91,9.43 12.65,11.69 12.87,13.86 13.09,16.03 13.26,18.66 13.44,21.28 14.88,23.91 16.33,26.54 17.80,28.66 19.28,30.78 20.93,33.48 22.57,36.19 23.88,38.69 25.18,41.20 26.56,43.87 27.95,46.54 29.23,48.68 30.51,50.81 32.35,53.28 34.18,55.75 35.99,57.95 37.80,60.15 39.24,61.76 40.69,63.38 42.64,65.34 44.59,67.31 46.52,68.50 48.46,69.70 51.44,70.81 54.43,71.91 58.30,72.82 62.17,73.72 65.30,74.18 68.43,74.64 71.02,74.68 73.60,74.72 76.08,74.65 78.57,74.59 79.98,72.91 81.38,71.24 82.39,69.13 83.39,67.03 84.44,64.98 85.48,62.94 85.70,60.82 85.92,58.70 85.90,56.33 85.88,53.97 85.49,51.88 85.09,49.79 84.35,47.51 83.60,45.23 83.15,42.66 82.70,40.10 82.67,37.81 82.64,35.52 82.98,32.15 83.31,28.78 84.54,26.38 85.76,23.99 88.08,22.39 90.39,20.78 89.59,22.52 88.79,24.25 89.17,23.09 89.55,21.92 90.28,20.93 91.01,19.95 92.01,19.25 93.02,18.54 94.19,18.20 95.37,17.86 96.60,17.91 97.82,17.96 98.97,18.40 100.11,18.84 101.05,19.62 102.00,20.40 102.65,21.44 103.29,22.48 103.57,23.68 103.85,24.87 103.73,26.09 103.62,27.31 103.12,28.43 102.62,29.55 101.78,30.45 100.95,31.35 99.88,31.94 98.80,32.53 97.59,32.74 96.39,32.96 95.17,32.77 93.96,32.59 92.87,32.03 91.78,31.47 90.93,30.59 90.07,29.71 89.54,28.61 89.01,27.50 88.87,26.28 88.72,25.07 88.96,23.87 89.21,22.67 89.83,21.61 90.45,20.55 91.37,19.74 92.30,18.94 93.43,18.47 94.56,18.00 95.79,17.92 97.01,17.84 98.20,18.15 99.38,18.46 100.40,19.14 101.43,19.81 102.18,20.78 102.94,21.74 103.34,22.90 103.75,24.06 103.77,25.28 103.78,26.51 103.78,26.51 103.78,26.51 100.77,29.50 97.75,32.49 97.75,35.16 97.76,37.82 98.10,40.07 98.44,42.32 99.26,44.84 100.07,47.37 100.46,49.57 100.84,51.77 100.83,54.03 100.81,56.30 100.78,58.80 100.75,61.30 100.52,63.53 100.29,65.77 98.76,68.77 97.22,71.78 96.37,73.79 95.52,75.80 94.30,77.99 93.09,80.19 91.83,81.98 90.56,83.78 88.57,85.60 86.57,87.43 83.65,88.02 80.72,88.60 78.34,88.54 75.96,88.48 73.78,88.39 71.59,88.30 69.17,88.13 66.75,87.95 63.33,87.48 59.91,87.01 57.55,86.66 55.20,86.32 52.79,85.82 50.37,85.32 46.24,83.97 42.11,82.61 39.07,80.81 36.03,79.01 33.86,76.84 31.68,74.68 30.14,73.05 28.59,71.42 26.97,69.60 25.34,67.78 23.63,65.54 21.91,63.29 20.43,61.31 18.95,59.33 17.85,57.34 16.74,55.35 15.63,53.08 14.52,50.82 13.26,48.26 12.00,45.70 10.92,43.44 9.85,41.18 8.47,38.81 7.08,36.45 5.71,34.10 4.34,31.76 3.54,29.73 2.73,27.70 1.82,24.55 0.90,21.40 1.05,19.06 1.20,16.72 1.45,14.34 1.70,11.96 0.60,9.83 -0.49,7.71 -2.26,5.31 -4.02,2.92 -4.31,2.39 -4.60,1.87 -4.76,1.29 -4.91,0.71 -4.93,0.11 -4.94,-0.47 -4.81,-1.06 -4.69,-1.65 -4.42,-2.18 -4.15,-2.72 -3.77,-3.18 -3.38,-3.64 -2.90,-3.99 -2.41,-4.34 -1.86,-4.57 -1.30,-4.79 -0.71,-4.88 -0.12,-4.97 0.47,-4.91 1.07,-4.85 1.63,-4.65 2.20,-4.45 2.70,-4.12 3.20,-3.80 3.61,-3.36 4.02,-2.92 4.02,-2.92 L 4.02,-2.92 Z"/>
  </g>
  <g transform="translate(363.03706515085196 388.23844895130196) rotate(0 86.84398907816649 -16.423533915764438)" stroke="none">
    <path fill="#343a40" d="M 4.59,-2.57 Q 4.59,-2.57 6.10,0.29 7.60,3.17 9.84,5.52 12.08,7.87 14.23,9.73 16.39,11.60 18.88,12.75 21.36,13.90 24.18,14.95 27.01,15.99 29.15,17.23 31.29,18.47 33.45,19.85 35.61,21.23 37.95,22.47 40.29,23.71 42.64,24.32 44.99,24.93 47.32,25.29 49.65,25.65 52.52,25.62 55.40,25.59 57.86,25.60 60.33,25.61 62.87,25.62 65.42,25.63 67.97,25.58 70.51,25.53 73.03,25.03 75.55,24.53 79.11,23.42 82.67,22.31 84.69,21.55 86.71,20.79 89.02,19.95 91.33,19.10 93.47,18.26 95.61,17.41 97.74,16.53 99.87,15.65 101.99,14.76 104.12,13.87 107.66,12.35 111.19,10.83 114.01,9.52 116.83,8.21 119.57,6.49 122.31,4.78 124.87,2.64 127.43,0.50 129.09,-1.04 130.74,-2.60 132.28,-4.56 133.82,-6.52 135.76,-9.06 137.69,-11.59 140.09,-14.81 142.48,-18.03 144.05,-20.05 145.63,-22.07 147.24,-24.10 148.86,-26.14 150.28,-28.09 151.71,-30.04 153.02,-31.92 154.32,-33.80 156.74,-37.02 159.15,-40.23 161.04,-42.23 162.92,-44.23 164.92,-46.22 166.92,-48.20 166.85,-50.57 166.78,-52.94 166.73,-55.44 166.67,-57.95 166.64,-60.10 166.60,-62.25 166.58,-63.92 166.57,-65.59 166.76,-66.72 166.95,-67.86 167.48,-68.88 168.02,-69.89 168.86,-70.68 169.69,-71.47 170.74,-71.96 171.78,-72.44 172.92,-72.56 174.07,-72.69 175.19,-72.44 176.31,-72.19 177.30,-71.60 178.29,-71.01 179.03,-70.13 179.77,-69.25 180.20,-68.19 180.63,-67.12 180.69,-65.97 180.75,-64.82 180.44,-63.71 180.13,-62.60 179.49,-61.65 178.84,-60.70 177.93,-60.00 177.01,-59.31 175.92,-58.94 174.83,-58.57 173.68,-58.57 172.53,-58.57 171.44,-58.94 170.35,-59.31 169.44,-60.01 168.52,-60.70 167.88,-61.65 167.23,-62.61 166.92,-63.71 166.62,-64.82 166.68,-65.97 166.74,-67.12 167.17,-68.19 167.59,-69.26 168.34,-70.13 169.08,-71.01 170.07,-71.60 171.05,-72.19 172.18,-72.44 173.30,-72.69 174.44,-72.56 175.59,-72.44 176.63,-71.96 177.67,-71.47 178.51,-70.68 179.34,-69.89 179.88,-68.87 180.42,-67.86 180.61,-66.72 180.79,-65.59 180.79,-65.59 180.79,-65.59 180.78,-63.92 180.77,-62.25 180.73,-60.10 180.69,-57.95 180.65,-55.76 180.61,-53.56 180.46,-51.11 180.31,-48.66 179.65,-46.11 178.98,-43.55 177.72,-41.48 176.46,-39.40 174.79,-38.02 173.13,-36.64 170.84,-34.50 168.55,-32.36 166.46,-29.68 164.36,-27.01 163.06,-25.03 161.76,-23.06 160.31,-20.87 158.86,-18.68 157.40,-16.59 155.94,-14.50 154.59,-12.53 153.23,-10.55 150.85,-7.09 148.46,-3.63 146.39,-0.87 144.32,1.88 142.36,4.27 140.40,6.65 138.12,8.70 135.84,10.76 133.71,12.48 131.57,14.21 129.30,15.64 127.03,17.07 124.40,18.47 121.78,19.86 118.98,21.05 116.18,22.24 112.65,23.74 109.12,25.24 107.00,26.21 104.89,27.19 102.75,28.17 100.60,29.15 98.39,30.16 96.19,31.16 93.96,32.14 91.74,33.12 89.57,34.07 87.39,35.03 85.21,35.90 83.02,36.77 80.94,37.45 78.85,38.13 75.03,38.91 71.20,39.69 68.31,39.77 65.42,39.86 62.87,39.86 60.32,39.87 57.83,39.87 55.34,39.88 52.00,39.80 48.66,39.73 45.88,39.26 43.09,38.79 41.01,38.23 38.92,37.67 36.83,36.89 34.74,36.10 32.17,34.59 29.59,33.08 27.55,31.60 25.51,30.13 23.65,28.76 21.79,27.39 19.33,26.21 16.87,25.03 14.13,23.56 11.39,22.08 8.96,19.91 6.52,17.75 4.09,15.00 1.65,12.25 0.20,10.20 -1.24,8.15 -2.92,5.36 -4.59,2.57 -4.83,1.99 -5.07,1.40 -5.17,0.77 -5.26,0.14 -5.20,-0.48 -5.15,-1.11 -4.94,-1.71 -4.73,-2.31 -4.38,-2.84 -4.04,-3.38 -3.57,-3.81 -3.11,-4.25 -2.56,-4.56 -2.00,-4.87 -1.39,-5.04 -0.78,-5.21 -0.14,-5.22 0.48,-5.24 1.10,-5.11 1.72,-4.97 2.30,-4.69 2.87,-4.41 3.35,-4.01 3.84,-3.60 4.22,-3.09 4.59,-2.57 4.59,-2.57 L 4.59,-2.57 Z"/>
  </g>
  <g transform="translate(236.86184492778284 301.27126263398213) rotate(0 10.210460442555359 20.54598192515914)" stroke="none">
    <path fill="#343a40" d="M 3.78,-3.69 Q 3.78,-3.69 5.37,-2.13 6.96,-0.56 9.14,1.66 11.32,3.88 12.87,5.98 14.42,8.07 15.72,10.25 17.02,12.43 18.74,16.08 20.47,19.73 21.73,22.62 23.00,25.51 23.94,27.57 24.88,29.63 25.74,31.88 26.60,34.12 26.85,37.60 27.09,41.08 26.92,42.15 26.74,43.22 26.24,44.17 25.73,45.12 24.95,45.87 24.17,46.61 23.19,47.07 22.21,47.52 21.13,47.64 20.06,47.75 19.00,47.52 17.95,47.29 17.02,46.73 16.10,46.18 15.40,45.35 14.70,44.53 14.30,43.53 13.90,42.53 13.84,41.45 13.78,40.37 14.07,39.33 14.36,38.29 14.96,37.39 15.57,36.50 16.43,35.84 17.29,35.19 18.31,34.84 19.33,34.50 20.41,34.50 21.49,34.50 22.52,34.84 23.54,35.19 24.40,35.84 25.26,36.49 25.87,37.39 26.47,38.28 26.76,39.32 27.05,40.36 27.00,41.44 26.94,42.52 26.54,43.52 26.14,44.53 25.44,45.35 24.74,46.17 23.81,46.73 22.89,47.29 21.83,47.52 20.78,47.75 19.71,47.64 18.63,47.52 17.65,47.07 16.67,46.61 15.89,45.87 15.10,45.13 14.60,44.17 14.09,43.22 13.91,42.15 13.74,41.09 13.74,41.09 13.74,41.09 13.38,37.71 13.02,34.32 12.26,32.31 11.50,30.31 10.40,27.47 9.29,24.64 8.40,22.68 7.51,20.73 6.33,18.35 5.14,15.97 4.01,13.70 2.88,11.42 1.07,9.18 -0.73,6.95 -2.25,5.32 -3.78,3.69 -4.17,3.19 -4.56,2.68 -4.81,2.10 -5.07,1.51 -5.18,0.88 -5.28,0.25 -5.24,-0.37 -5.19,-1.01 -4.99,-1.62 -4.80,-2.23 -4.46,-2.77 -4.12,-3.31 -3.67,-3.76 -3.21,-4.20 -2.66,-4.53 -2.11,-4.85 -1.50,-5.03 -0.89,-5.21 -0.25,-5.25 0.38,-5.28 1.00,-5.15 1.63,-5.03 2.21,-4.76 2.79,-4.49 3.29,-4.09 3.78,-3.69 3.78,-3.69 L 3.78,-3.69 Z"/>
  </g>
  <g transform="translate(255.7063630159837 310.49129928098546) rotate(0 24.668336744508906 -1.440438521626902)" stroke="none">
    <path fill="#343a40" d="M 0.19,-5.20 Q 0.19,-5.20 2.82,-5.11 5.44,-5.01 10.44,-5.90 15.44,-6.80 19.21,-7.42 22.98,-8.05 26.21,-8.54 29.44,-9.03 32.07,-9.28 34.69,-9.53 36.84,-9.65 38.99,-9.77 41.99,-9.89 45.00,-10.02 47.16,-10.04 49.33,-10.06 50.35,-9.89 51.37,-9.72 52.29,-9.24 53.20,-8.75 53.92,-8.00 54.63,-7.25 55.06,-6.31 55.50,-5.37 55.61,-4.34 55.72,-3.31 55.50,-2.30 55.28,-1.29 54.74,-0.40 54.21,0.47 53.42,1.14 52.63,1.81 51.67,2.20 50.71,2.58 49.67,2.64 48.64,2.69 47.64,2.41 46.64,2.14 45.79,1.56 44.93,0.98 44.30,0.15 43.68,-0.66 43.35,-1.64 43.02,-2.63 43.02,-3.66 43.02,-4.70 43.35,-5.68 43.68,-6.66 44.31,-7.48 44.93,-8.31 45.79,-8.89 46.65,-9.47 47.64,-9.74 48.64,-10.02 49.67,-9.96 50.71,-9.91 51.67,-9.53 52.63,-9.14 53.42,-8.47 54.21,-7.80 54.74,-6.91 55.28,-6.03 55.50,-5.02 55.72,-4.01 55.61,-2.98 55.50,-1.95 55.06,-1.01 54.63,-0.07 53.91,0.67 53.20,1.42 52.29,1.91 51.37,2.39 50.35,2.56 49.33,2.73 49.33,2.73 49.33,2.73 45.20,2.63 41.07,2.54 38.06,2.42 35.05,2.29 32.89,2.27 30.73,2.24 27.30,2.49 23.87,2.74 20.72,2.96 17.57,3.17 14.30,3.94 11.02,4.71 8.05,5.06 5.07,5.41 2.44,5.31 -0.19,5.20 -0.81,5.10 -1.43,5.00 -2.01,4.75 -2.59,4.51 -3.09,4.13 -3.59,3.76 -3.99,3.27 -4.39,2.79 -4.66,2.22 -4.93,1.66 -5.06,1.04 -5.18,0.43 -5.16,-0.19 -5.14,-0.82 -4.96,-1.42 -4.79,-2.02 -4.48,-2.57 -4.16,-3.11 -3.73,-3.57 -3.30,-4.02 -2.77,-4.36 -2.24,-4.69 -1.64,-4.89 -1.05,-5.09 -0.42,-5.15 0.19,-5.20 0.19,-5.20 L 0.19,-5.20 Z"/>
  </g>
  <g transform="translate(337.6390503559878 309.27554195723906) rotate(0 -0.3097637087334988 15.769339801653132)" stroke="none">
    <path fill="#343a40" d="M 5.30,0 Q 5.30,0 5.36,2.01 5.42,4.02 5.55,7.23 5.68,10.43 5.85,13.40 6.02,16.38 6.14,18.89 6.27,21.40 6.37,24.19 6.47,26.98 5.01,31.78 3.54,36.59 2.62,37.12 1.70,37.65 0.67,37.86 -0.36,38.08 -1.41,37.95 -2.46,37.81 -3.42,37.35 -4.37,36.89 -5.13,36.15 -5.89,35.41 -6.37,34.47 -6.85,33.53 -7.01,32.48 -7.16,31.43 -6.97,30.39 -6.79,29.35 -6.27,28.42 -5.76,27.49 -4.98,26.77 -4.20,26.06 -3.24,25.63 -2.27,25.20 -1.21,25.10 -0.16,25.00 0.86,25.25 1.89,25.49 2.79,26.05 3.69,26.61 4.36,27.43 5.04,28.25 5.41,29.24 5.79,30.23 5.83,31.28 5.87,32.34 5.57,33.36 5.27,34.38 4.67,35.24 4.06,36.11 3.20,36.74 2.35,37.37 1.34,37.69 0.33,38.01 -0.72,37.99 -1.77,37.98 -2.77,37.62 -3.77,37.27 -4.60,36.62 -5.44,35.96 -6.02,35.07 -6.60,34.19 -6.87,33.16 -7.13,32.14 -7.06,31.08 -6.99,30.03 -6.58,29.05 -6.17,28.07 -5.47,27.27 -4.77,26.48 -4.77,26.48 -4.78,26.48 -5.62,26.73 -6.47,26.98 -6.37,24.19 -6.27,21.40 -6.14,18.89 -6.02,16.38 -5.85,13.40 -5.68,10.43 -5.55,7.23 -5.42,4.02 -5.36,2.01 -5.30,0 -5.23,-0.63 -5.15,-1.27 -4.92,-1.86 -4.70,-2.46 -4.33,-2.99 -3.97,-3.52 -3.49,-3.94 -3.01,-4.36 -2.44,-4.66 -1.88,-4.96 -1.26,-5.11 -0.63,-5.27 0.00,-5.27 0.64,-5.27 1.26,-5.11 1.88,-4.96 2.44,-4.66 3.01,-4.36 3.49,-3.94 3.97,-3.52 4.33,-2.99 4.70,-2.46 4.92,-1.86 5.15,-1.27 5.23,-0.63 5.30,0.00 5.30,0.00 L 5.30,0 Z"/>
  </g>
  <g transform="translate(344.31555792171366 330.579904466535) rotate(0 18.937708132946682 -7.242637087554158)" stroke="none">
    <path fill="#343a40" d="M 0.50,-5.22 Q 0.50,-5.22 2.62,-5.07 4.74,-4.92 8.37,-4.91 12.01,-4.89 15.61,-4.97 19.20,-5.04 21.90,-5.14 24.60,-5.24 25.06,-7.72 25.52,-10.19 27.62,-12.79 29.73,-15.39 31.77,-16.04 33.81,-16.69 31.93,-15.41 30.06,-14.14 31.26,-16.85 32.46,-19.57 33.30,-20.32 34.14,-21.07 35.18,-21.51 36.21,-21.95 37.34,-22.04 38.46,-22.12 39.55,-21.85 40.64,-21.57 41.59,-20.96 42.53,-20.35 43.24,-19.47 43.94,-18.60 44.32,-17.54 44.71,-16.48 44.74,-15.35 44.76,-14.23 44.43,-13.15 44.09,-12.08 43.43,-11.17 42.77,-10.25 41.86,-9.60 40.94,-8.95 39.86,-8.62 38.79,-8.29 37.66,-8.33 36.54,-8.36 35.48,-8.75 34.42,-9.15 33.55,-9.85 32.67,-10.56 32.07,-11.51 31.47,-12.46 31.20,-13.56 30.93,-14.65 31.03,-15.77 31.12,-16.89 31.57,-17.93 32.02,-18.96 32.78,-19.79 33.53,-20.63 34.51,-21.18 35.49,-21.73 36.60,-21.94 37.71,-22.15 38.82,-21.99 39.94,-21.84 40.94,-21.33 41.95,-20.83 42.74,-20.03 43.54,-19.23 44.03,-18.22 44.53,-17.21 44.68,-16.09 44.83,-14.98 44.61,-13.87 44.39,-12.77 43.84,-11.79 43.28,-10.81 43.28,-10.81 43.28,-10.81 42.44,-8.78 41.59,-6.75 38.93,-4.33 36.27,-1.91 35.07,0.02 33.86,1.95 32.29,3.55 30.73,5.14 27.66,5.90 24.59,6.66 21.87,6.55 19.16,6.44 15.49,6.32 11.83,6.20 7.77,5.97 3.71,5.74 1.60,5.48 -0.50,5.22 -1.12,5.09 -1.74,4.95 -2.30,4.67 -2.87,4.39 -3.36,3.98 -3.84,3.57 -4.21,3.06 -4.58,2.55 -4.82,1.96 -5.06,1.38 -5.15,0.75 -5.24,0.12 -5.18,-0.50 -5.12,-1.13 -4.91,-1.72 -4.70,-2.32 -4.36,-2.85 -4.01,-3.38 -3.55,-3.81 -3.08,-4.24 -2.53,-4.55 -1.98,-4.86 -1.37,-5.02 -0.75,-5.19 -0.12,-5.21 0.50,-5.22 0.50,-5.22 L 0.50,-5.22 Z"/>
  </g>
  <g transform="translate(143.03922615882493 95.67911351885141) rotate(0 -5.878241642440116 24.186451023131667)" stroke="none">
    <path fill="#343a40" d="M 5.03,0 Q 5.03,0 4.99,3.05 4.95,6.10 5.11,9.76 5.27,13.43 5.62,15.89 5.97,18.36 6.60,21.07 7.24,23.77 7.56,25.97 7.88,28.17 8.09,31.69 8.29,35.21 8.05,38.12 7.82,41.03 7.33,43.24 6.84,45.45 5.92,47.83 5.00,50.21 2.71,52.03 0.41,53.85 -2.04,54.36 -4.50,54.87 -6.79,54.99 -9.07,55.10 -11.67,55.15 -14.26,55.19 -15.35,55.01 -16.44,54.83 -17.41,54.32 -18.39,53.80 -19.15,53.00 -19.90,52.20 -20.37,51.20 -20.83,50.19 -20.95,49.10 -21.07,48.00 -20.83,46.92 -20.60,45.84 -20.03,44.90 -19.46,43.95 -18.62,43.24 -17.77,42.52 -16.75,42.11 -15.72,41.70 -14.62,41.64 -13.52,41.58 -12.46,41.88 -11.39,42.18 -10.48,42.80 -9.56,43.41 -8.90,44.29 -8.23,45.17 -7.88,46.22 -7.52,47.26 -7.52,48.37 -7.52,49.47 -7.88,50.52 -8.23,51.56 -8.90,52.44 -9.57,53.32 -10.48,53.94 -11.39,54.56 -12.46,54.86 -13.52,55.15 -14.62,55.09 -15.73,55.03 -16.75,54.62 -17.78,54.21 -18.62,53.50 -19.46,52.78 -20.03,51.84 -20.60,50.89 -20.83,49.81 -21.07,48.74 -20.95,47.64 -20.83,46.54 -20.37,45.54 -19.90,44.54 -19.14,43.74 -18.38,42.94 -17.41,42.42 -16.43,41.90 -15.34,41.72 -14.26,41.54 -14.26,41.54 -14.26,41.54 -11.72,41.58 -9.18,41.62 -6.82,41.08 -4.45,40.54 -3.87,37.88 -3.29,35.22 -3.19,32.72 -3.09,30.22 -2.97,27.89 -2.85,25.56 -3.11,22.48 -3.36,19.40 -3.57,16.85 -3.78,14.30 -4.37,10.20 -4.95,6.10 -4.99,3.05 -5.03,0 -4.95,-0.60 -4.88,-1.20 -4.67,-1.77 -4.45,-2.33 -4.11,-2.83 -3.76,-3.33 -3.31,-3.73 -2.85,-4.14 -2.32,-4.42 -1.78,-4.70 -1.19,-4.85 -0.60,-4.99 0.00,-4.99 0.60,-4.99 1.19,-4.85 1.78,-4.70 2.32,-4.42 2.85,-4.14 3.31,-3.73 3.76,-3.33 4.11,-2.83 4.45,-2.33 4.67,-1.77 4.88,-1.20 4.95,-0.60 5.03,0.00 5.03,0.00 L 5.03,0 Z"/>
  </g>
  <g transform="translate(138.66525821866253 144.05201556511474) rotate(0 20.624634322924067 18.187248702612806)" stroke="none">
    <path fill="#343a40" d="M 0.26,-5.23 Q 0.26,-5.23 3.11,-5.06 5.97,-4.89 9.27,-4.12 12.58,-3.35 15.19,-2.11 17.79,-0.88 21.26,0.93 24.72,2.75 27.57,4.48 30.43,6.21 33.13,8.56 35.84,10.92 37.61,12.59 39.38,14.25 41.10,16.33 42.82,18.40 44.06,20.59 45.29,22.77 46.22,25.14 47.14,27.50 47.48,29.68 47.81,31.87 47.89,34.11 47.97,36.35 47.79,37.43 47.62,38.50 47.11,39.46 46.61,40.42 45.82,41.17 45.03,41.93 44.05,42.38 43.06,42.84 41.98,42.96 40.90,43.08 39.83,42.85 38.77,42.62 37.84,42.06 36.90,41.51 36.20,40.68 35.49,39.85 35.09,38.84 34.68,37.83 34.62,36.75 34.56,35.66 34.85,34.61 35.13,33.56 35.74,32.66 36.35,31.76 37.22,31.10 38.08,30.44 39.11,30.09 40.14,29.74 41.23,29.73 42.32,29.73 43.35,30.08 44.38,30.42 45.25,31.08 46.11,31.73 46.73,32.63 47.34,33.53 47.63,34.58 47.93,35.63 47.87,36.71 47.81,37.80 47.41,38.81 47.01,39.82 46.31,40.65 45.61,41.48 44.68,42.05 43.75,42.61 42.69,42.85 41.62,43.08 40.54,42.97 39.46,42.85 38.47,42.40 37.48,41.94 36.69,41.20 35.90,40.45 35.39,39.49 34.88,38.53 34.70,37.46 34.52,36.39 34.52,36.39 34.52,36.39 34.53,34.71 34.53,33.02 34.09,30.67 33.65,28.32 32.70,26.33 31.76,24.33 30.37,22.71 28.98,21.09 27.37,19.26 25.76,17.42 23.67,15.70 21.58,13.97 18.93,12.17 16.28,10.36 13.21,8.48 10.14,6.60 7.78,6.03 5.42,5.46 2.57,5.34 -0.26,5.23 -0.88,5.12 -1.50,5.01 -2.08,4.76 -2.66,4.50 -3.16,4.12 -3.66,3.74 -4.06,3.24 -4.45,2.75 -4.72,2.18 -4.98,1.60 -5.10,0.98 -5.22,0.36 -5.19,-0.26 -5.16,-0.89 -4.97,-1.49 -4.79,-2.10 -4.47,-2.64 -4.15,-3.18 -3.71,-3.64 -3.27,-4.09 -2.73,-4.42 -2.19,-4.75 -1.59,-4.94 -0.99,-5.14 -0.36,-5.18 0.26,-5.23 0.26,-5.23 L 0.26,-5.23 Z"/>
  </g>
  <g transform="translate(84.31421480199333 193.25691833086285) rotate(0 19.01375120945795 -8.674315744975047)" stroke="none">
    <path fill="#343a40" d="M 0,-5.24 Q 0,-5.24 2.59,-5.24 5.19,-5.25 8.02,-5.23 10.86,-5.21 14.68,-5.55 18.50,-5.89 20.79,-6.56 23.09,-7.23 25.32,-9.14 27.56,-11.04 29.05,-13.11 30.55,-15.17 31.23,-17.14 31.91,-19.10 32.35,-20.03 32.79,-20.96 33.51,-21.70 34.22,-22.44 35.13,-22.91 36.05,-23.39 37.06,-23.54 38.08,-23.70 39.09,-23.53 40.11,-23.35 41.01,-22.86 41.92,-22.37 42.62,-21.62 43.32,-20.86 43.74,-19.93 44.16,-18.99 44.27,-17.97 44.37,-16.94 44.14,-15.94 43.91,-14.94 43.37,-14.06 42.83,-13.18 42.04,-12.52 41.25,-11.87 40.29,-11.49 39.33,-11.12 38.30,-11.08 37.28,-11.03 36.29,-11.31 35.30,-11.60 34.45,-12.18 33.61,-12.77 32.99,-13.59 32.38,-14.42 32.06,-15.40 31.74,-16.37 31.75,-17.40 31.76,-18.43 32.10,-19.40 32.43,-20.37 33.06,-21.19 33.69,-22.00 34.55,-22.57 35.41,-23.14 36.40,-23.40 37.39,-23.67 38.42,-23.61 39.45,-23.54 40.40,-23.15 41.35,-22.76 42.13,-22.09 42.91,-21.41 43.43,-20.53 43.95,-19.64 44.16,-18.64 44.37,-17.63 44.25,-16.61 44.13,-15.59 44.13,-15.59 44.13,-15.59 42.31,-11.61 40.49,-7.63 38.56,-5.27 36.63,-2.90 34.04,-0.68 31.44,1.54 28.37,2.74 25.30,3.95 22.50,4.42 19.70,4.88 15.28,5.04 10.86,5.21 8.02,5.23 5.19,5.25 2.59,5.24 0,5.24 -0.62,5.16 -1.25,5.08 -1.84,4.86 -2.43,4.64 -2.95,4.28 -3.47,3.92 -3.89,3.44 -4.31,2.97 -4.60,2.41 -4.90,1.85 -5.05,1.24 -5.20,0.63 -5.20,-0.00 -5.20,-0.63 -5.05,-1.24 -4.89,-1.85 -4.60,-2.41 -4.31,-2.97 -3.89,-3.45 -3.47,-3.92 -2.95,-4.28 -2.43,-4.64 -1.84,-4.86 -1.25,-5.08 -0.62,-5.16 0.00,-5.24 0.00,-5.24 L 0,-5.24 Z"/>
  </g>
  <g transform="translate(122.34171722090923 178.18957913627582) rotate(0 3.363974235213391 16.30592807929611)" stroke="none">
    <path fill="#343a40" d="M 5.27,0 Q 5.27,0 5.35,1.47 5.43,2.94 5.66,5.96 5.88,8.97 5.73,12.31 5.59,15.64 5.53,17.99 5.46,20.35 5.55,22.88 5.63,25.41 6.92,25.64 8.20,25.86 9.26,26.15 10.32,26.44 11.23,27.05 12.14,27.66 12.81,28.52 13.48,29.39 13.84,30.43 14.19,31.47 14.20,32.56 14.21,33.66 13.86,34.70 13.52,35.74 12.86,36.62 12.20,37.50 11.30,38.12 10.40,38.74 9.34,39.04 8.29,39.34 7.19,39.29 6.10,39.24 5.07,38.84 4.05,38.44 3.21,37.73 2.37,37.03 1.80,36.09 1.23,35.16 0.99,34.09 0.74,33.02 0.86,31.93 0.97,30.83 1.42,29.84 1.88,28.84 2.63,28.04 3.37,27.24 4.34,26.72 5.31,26.20 6.39,26.01 7.47,25.83 8.55,26.00 9.64,26.17 10.61,26.68 11.58,27.18 12.34,27.98 13.10,28.77 13.57,29.76 14.03,30.75 14.16,31.84 14.28,32.93 14.05,34.00 13.82,35.08 13.27,36.02 12.71,36.96 11.87,37.68 11.04,38.39 10.03,38.81 9.01,39.22 7.91,39.29 6.82,39.35 6.82,39.35 6.82,39.35 2.67,37.74 -1.47,36.14 -3.11,34.75 -4.76,33.36 -5.98,29.36 -7.20,25.36 -7.05,22.58 -6.90,19.80 -6.64,17.11 -6.38,14.43 -6.13,11.70 -5.88,8.97 -5.66,5.96 -5.43,2.94 -5.35,1.47 -5.27,0 -5.19,-0.63 -5.11,-1.26 -4.89,-1.85 -4.66,-2.44 -4.30,-2.97 -3.94,-3.49 -3.47,-3.91 -2.99,-4.33 -2.43,-4.63 -1.86,-4.92 -1.25,-5.08 -0.63,-5.23 0.00,-5.23 0.63,-5.23 1.25,-5.08 1.86,-4.92 2.43,-4.63 2.99,-4.33 3.47,-3.91 3.94,-3.49 4.30,-2.97 4.66,-2.44 4.89,-1.85 5.11,-1.26 5.19,-0.63 5.27,0.00 5.27,0.00 L 5.27,0 Z"/>
  </g>
  <g transform="translate(45.97843971505881 290.88243644578415) rotate(0 20.361838396743224 -16.898896334010033)" stroke="none">
    <path fill="#343a40" d="M -4.29,-1.68 Q -4.29,-1.68 -2.88,-5.01 -1.46,-8.35 0.38,-11.38 2.24,-14.42 4.36,-17.05 6.48,-19.69 8.44,-21.89 10.40,-24.09 13.13,-26.33 15.85,-28.57 17.58,-29.99 19.30,-31.41 22.15,-33.35 24.99,-35.29 29.52,-36.20 34.05,-37.11 36.86,-37.77 39.66,-38.43 40.43,-38.47 41.20,-38.52 41.94,-38.32 42.68,-38.12 43.32,-37.69 43.96,-37.26 44.43,-36.66 44.90,-36.05 45.15,-35.32 45.40,-34.59 45.41,-33.83 45.41,-33.06 45.17,-32.33 44.93,-31.60 44.47,-30.98 44.01,-30.37 43.38,-29.93 42.74,-29.50 42.00,-29.28 41.27,-29.07 40.50,-29.11 39.73,-29.15 39.01,-29.43 38.30,-29.71 37.71,-30.20 37.12,-30.69 36.72,-31.35 36.32,-32.00 36.15,-32.75 35.98,-33.50 36.05,-34.27 36.13,-35.03 36.45,-35.73 36.77,-36.43 37.29,-36.99 37.82,-37.55 38.49,-37.92 39.17,-38.28 39.93,-38.41 40.69,-38.54 41.45,-38.42 42.20,-38.31 42.89,-37.95 43.57,-37.59 44.10,-37.04 44.63,-36.49 44.96,-35.79 45.29,-35.10 45.38,-34.33 45.46,-33.57 45.30,-32.82 45.14,-32.06 44.75,-31.40 44.36,-30.74 43.78,-30.24 43.20,-29.74 42.48,-29.45 41.77,-29.16 41.77,-29.16 41.77,-29.16 38.96,-28.54 36.14,-27.92 31.89,-26.53 27.63,-25.14 24.62,-23.36 21.61,-21.58 19.35,-19.72 17.09,-17.87 15.23,-15.95 13.38,-14.03 11.56,-11.86 9.74,-9.69 8.24,-7.39 6.74,-5.09 5.52,-1.70 4.29,1.68 4.03,2.17 3.76,2.66 3.39,3.07 3.02,3.49 2.55,3.80 2.09,4.11 1.57,4.30 1.05,4.49 0.49,4.55 -0.05,4.61 -0.60,4.54 -1.15,4.46 -1.67,4.26 -2.19,4.06 -2.64,3.74 -3.10,3.41 -3.46,2.99 -3.82,2.57 -4.08,2.08 -4.33,1.58 -4.46,1.04 -4.58,0.50 -4.58,-0.05 -4.57,-0.61 -4.43,-1.14 -4.29,-1.68 -4.29,-1.68 L -4.29,-1.68 Z"/>
  </g>
  <g transform="translate(63.071730482407474 270.32676275597123) rotate(0 -10.46952876694695 -14.009352616594697)" stroke="none">
    <path fill="#343a40" d="M -4.71,2.27 Q -4.71,2.27 -5.87,-0.14 -7.04,-2.55 -8.36,-4.64 -9.68,-6.72 -11.52,-9.80 -13.36,-12.87 -14.96,-14.77 -16.56,-16.66 -18.54,-18.48 -20.53,-20.30 -21.79,-21.20 -23.05,-22.10 -23.94,-22.59 -24.83,-23.08 -25.51,-23.83 -26.20,-24.58 -26.61,-25.51 -27.02,-26.44 -27.11,-27.46 -27.20,-28.47 -26.96,-29.46 -26.73,-30.45 -26.19,-31.31 -25.65,-32.17 -24.86,-32.81 -24.07,-33.46 -23.12,-33.81 -22.17,-34.17 -21.16,-34.21 -20.14,-34.25 -19.17,-33.96 -18.19,-33.67 -17.36,-33.08 -16.53,-32.50 -15.93,-31.67 -15.33,-30.85 -15.02,-29.89 -14.72,-28.92 -14.73,-27.90 -14.75,-26.88 -15.10,-25.93 -15.44,-24.97 -16.07,-24.17 -16.70,-23.37 -17.55,-22.82 -18.40,-22.26 -19.39,-22.01 -20.37,-21.76 -21.38,-21.83 -22.40,-21.90 -23.33,-22.30 -24.27,-22.69 -25.03,-23.36 -25.80,-24.03 -26.30,-24.92 -26.81,-25.80 -27.01,-26.79 -27.21,-27.79 -27.08,-28.80 -26.96,-29.81 -26.51,-30.72 -26.07,-31.64 -25.36,-32.36 -24.64,-33.08 -23.74,-33.54 -22.83,-34.00 -21.82,-34.15 -20.82,-34.30 -19.82,-34.11 -18.82,-33.93 -18.82,-33.93 -18.82,-33.93 -16.11,-32.25 -13.41,-30.57 -11.69,-28.80 -9.96,-27.03 -8.16,-24.80 -6.35,-22.57 -4.98,-20.29 -3.61,-18.01 -2.24,-15.14 -0.87,-12.28 0.75,-9.69 2.37,-7.11 3.54,-4.69 4.71,-2.27 4.91,-1.67 5.12,-1.08 5.17,-0.45 5.23,0.17 5.13,0.80 5.03,1.42 4.79,2.00 4.54,2.58 4.17,3.09 3.79,3.60 3.31,4.00 2.82,4.40 2.25,4.67 1.68,4.95 1.07,5.08 0.45,5.21 -0.17,5.19 -0.80,5.17 -1.41,4.99 -2.02,4.82 -2.56,4.51 -3.11,4.20 -3.57,3.76 -4.03,3.33 -4.37,2.80 -4.71,2.27 -4.71,2.27 L -4.71,2.27 Z"/>
  </g>
  <g transform="translate(162.86149419649246 277.02079005011046) rotate(0 36.632447449080246 -24.915197173039132)" stroke="none">
    <path fill="#343a40" d="M -5.29,0 Q -5.29,0 -5.37,-1.35 -5.45,-2.70 -4.80,-5.52 -4.15,-8.34 -2.28,-10.30 -0.41,-12.25 1.68,-14.76 3.79,-17.26 5.58,-19.25 7.38,-21.23 9.09,-22.83 10.81,-24.43 12.26,-26.29 13.71,-28.16 15.31,-29.88 16.92,-31.60 18.84,-33.78 20.76,-35.96 22.59,-37.40 24.43,-38.83 26.99,-40.37 29.54,-41.90 31.74,-42.75 33.93,-43.60 36.29,-44.49 38.64,-45.39 41.37,-46.80 44.10,-48.21 46.05,-49.21 48.00,-50.21 50.29,-50.67 52.58,-51.14 55.04,-51.16 57.50,-51.18 60.36,-51.60 63.23,-52.02 66.01,-52.76 68.78,-53.50 67.64,-52.69 66.49,-51.88 66.99,-52.90 67.50,-53.93 68.30,-54.74 69.11,-55.56 70.13,-56.07 71.16,-56.58 72.29,-56.74 73.43,-56.90 74.55,-56.69 75.68,-56.48 76.67,-55.92 77.67,-55.36 78.44,-54.51 79.21,-53.66 79.66,-52.61 80.12,-51.56 80.22,-50.42 80.31,-49.28 80.04,-48.17 79.77,-47.05 79.16,-46.09 78.54,-45.12 77.65,-44.40 76.76,-43.68 75.69,-43.28 74.62,-42.88 73.47,-42.85 72.33,-42.81 71.23,-43.14 70.14,-43.48 69.21,-44.14 68.28,-44.81 67.60,-45.73 66.93,-46.66 66.59,-47.75 66.25,-48.85 66.28,-49.99 66.31,-51.13 66.70,-52.21 67.09,-53.29 67.80,-54.18 68.52,-55.07 69.48,-55.69 70.44,-56.31 71.55,-56.59 72.66,-56.87 73.80,-56.79 74.94,-56.70 76.00,-56.25 77.05,-55.80 77.90,-55.04 78.76,-54.28 79.33,-53.28 79.89,-52.29 80.11,-51.16 80.33,-50.04 80.18,-48.91 80.03,-47.77 80.03,-47.77 80.03,-47.77 76.36,-43.86 72.69,-39.95 69.60,-39.06 66.50,-38.16 62.07,-37.35 57.64,-36.54 54.41,-36.07 51.17,-35.61 49.30,-34.56 47.43,-33.51 44.40,-32.32 41.37,-31.14 39.28,-30.47 37.18,-29.79 34.93,-28.77 32.68,-27.75 30.95,-26.51 29.22,-25.26 27.52,-23.37 25.81,-21.48 24.22,-19.78 22.63,-18.08 20.85,-16.41 19.07,-14.75 16.79,-12.81 14.51,-10.88 12.62,-8.97 10.72,-7.07 8.09,-4.88 5.45,-2.70 5.37,-1.35 5.29,0 5.21,0.63 5.14,1.26 4.91,1.86 4.68,2.46 4.32,2.98 3.96,3.51 3.48,3.93 3.00,4.35 2.44,4.65 1.87,4.95 1.25,5.10 0.63,5.25 -0.00,5.25 -0.63,5.25 -1.25,5.10 -1.87,4.95 -2.44,4.65 -3.00,4.35 -3.48,3.93 -3.96,3.51 -4.32,2.98 -4.68,2.46 -4.91,1.86 -5.14,1.26 -5.21,0.63 -5.29,-0.00 -5.29,-0.00 L -5.29,0 Z"/>
  </g>
  <g transform="translate(353.496268369835 24.784227838651532) rotate(0 -51.772661258658445 91.02579914606395)" stroke="none">
    <path fill="#343a40" d="M 4.52,1.51 Q 4.52,1.51 3.73,4.02 2.94,6.52 1.75,9.39 0.57,12.25 -1.45,15.56 -3.48,18.87 -6.76,23.53 -10.05,28.19 -11.61,30.72 -13.18,33.25 -14.88,36.41 -16.58,39.57 -17.92,41.80 -19.26,44.03 -21.03,46.32 -22.80,48.62 -24.61,50.51 -26.41,52.39 -28.89,53.86 -31.38,55.32 -34.55,55.82 -37.72,56.31 -42.27,55.75 -46.83,55.19 -49.18,54.12 -51.54,53.04 -53.49,51.77 -55.45,50.51 -52.55,49.13 -49.65,47.75 -49.47,45.58 -49.29,43.42 -47.87,45.53 -46.45,47.64 -45.91,50.34 -45.38,53.03 -45.31,56.10 -45.24,59.17 -45.85,62.14 -46.47,65.11 -47.73,67.61 -49.00,70.11 -49.94,72.69 -50.89,75.26 -51.36,77.51 -51.84,79.76 -51.88,82.04 -51.91,84.32 -49.70,86.04 -47.48,87.76 -45.11,88.95 -42.74,90.15 -40.57,91.16 -38.41,92.18 -36.61,93.36 -34.82,94.54 -33.02,95.81 -31.22,97.09 -28.95,98.61 -26.67,100.13 -24.89,101.85 -23.10,103.57 -21.30,105.38 -19.50,107.19 -17.44,110.22 -15.38,113.25 -14.26,117.43 -13.14,121.61 -12.98,124.23 -12.81,126.85 -12.85,129.80 -12.90,132.74 -14.22,135.82 -15.54,138.91 -17.59,140.85 -19.64,142.79 -21.91,144.31 -24.18,145.83 -26.15,147.04 -28.12,148.25 -31.33,150.15 -34.55,152.05 -37.80,153.71 -41.06,155.38 -44.27,156.45 -47.48,157.53 -49.72,158.07 -51.96,158.62 -54.29,159.03 -56.62,159.45 -59.35,159.75 -62.08,160.04 -64.48,160.09 -66.88,160.14 -64.66,158.55 -62.45,156.95 -62.53,159.22 -62.61,161.48 -63.40,164.64 -64.19,167.80 -65.10,170.05 -66.00,172.30 -67.94,175.26 -69.88,178.22 -72.02,180.81 -74.15,183.41 -76.16,185.14 -78.17,186.88 -80.77,187.92 -83.37,188.96 -86.17,189.13 -88.97,189.31 -94.19,187.30 -99.40,185.30 -101.27,183.93 -103.14,182.57 -105.68,180.29 -108.22,178.02 -108.92,177.14 -109.62,176.26 -110.01,175.20 -110.39,174.14 -110.41,173.01 -110.43,171.88 -110.09,170.81 -109.76,169.74 -109.09,168.83 -108.43,167.91 -107.51,167.26 -106.59,166.61 -105.51,166.29 -104.43,165.97 -103.31,166.00 -102.18,166.04 -101.13,166.44 -100.07,166.83 -99.20,167.54 -98.33,168.26 -97.73,169.21 -97.13,170.16 -96.86,171.26 -96.60,172.35 -96.70,173.47 -96.80,174.60 -97.25,175.63 -97.70,176.66 -98.46,177.49 -99.22,178.33 -100.20,178.87 -101.18,179.42 -102.29,179.63 -103.40,179.83 -104.51,179.67 -105.63,179.51 -106.63,179.00 -107.64,178.50 -108.43,177.70 -109.22,176.89 -109.72,175.88 -110.21,174.87 -110.35,173.75 -110.50,172.63 -110.28,171.53 -110.06,170.42 -109.50,169.45 -108.94,168.47 -108.09,167.72 -107.25,166.98 -106.21,166.54 -105.17,166.10 -104.05,166.02 -102.93,165.94 -101.84,166.21 -100.75,166.49 -99.80,167.11 -98.86,167.72 -98.86,167.72 -98.86,167.72 -96.98,169.47 -95.10,171.21 -92.14,172.96 -89.18,174.72 -86.52,173.57 -83.86,172.43 -82.55,170.75 -81.24,169.07 -79.95,167.14 -78.67,165.21 -77.94,162.90 -77.21,160.58 -76.90,157.88 -76.59,155.18 -75.41,152.13 -74.23,149.07 -71.95,147.79 -69.66,146.50 -66.92,146.24 -64.18,145.97 -61.94,145.95 -59.71,145.92 -57.37,145.61 -55.02,145.30 -52.01,144.65 -49.00,143.99 -46.67,143.03 -44.34,142.07 -41.50,140.35 -38.66,138.63 -35.55,136.59 -32.43,134.55 -29.74,131.55 -27.04,128.55 -27.14,126.07 -27.23,123.59 -27.87,121.36 -28.50,119.12 -30.65,116.75 -32.80,114.39 -35.21,112.27 -37.62,110.16 -40.14,108.43 -42.66,106.70 -44.42,105.46 -46.18,104.22 -48.42,103.33 -50.65,102.43 -53.41,100.88 -56.16,99.34 -58.17,97.77 -60.19,96.20 -62.30,94.10 -64.42,92.00 -65.37,88.95 -66.31,85.90 -66.25,83.06 -66.18,80.21 -65.82,77.42 -65.45,74.63 -64.70,72.08 -63.95,69.54 -63.06,67.24 -62.17,64.95 -60.76,62.49 -59.36,60.03 -59.19,57.90 -59.03,55.77 -59.34,53.59 -59.66,51.41 -60.67,48.62 -61.68,45.84 -61.15,43.61 -60.62,41.39 -57.08,39.72 -53.55,38.05 -51.10,39.11 -48.64,40.17 -46.36,41.68 -44.09,43.19 -41.21,43.59 -38.34,43.98 -35.43,43.33 -32.53,42.67 -30.90,41.16 -29.26,39.66 -27.50,37.66 -25.74,35.65 -24.29,33.99 -22.84,32.33 -21.57,30.47 -20.29,28.62 -18.63,26.20 -16.97,23.78 -14.23,19.00 -11.49,14.23 -9.94,11.37 -8.40,8.52 -7.34,5.97 -6.28,3.43 -5.40,0.95 -4.52,-1.51 -4.27,-2.03 -4.02,-2.55 -3.66,-3.00 -3.30,-3.44 -2.83,-3.78 -2.37,-4.13 -1.85,-4.35 -1.32,-4.58 -0.75,-4.67 -0.18,-4.76 0.38,-4.71 0.96,-4.67 1.50,-4.48 2.05,-4.30 2.53,-3.99 3.02,-3.69 3.42,-3.27 3.81,-2.86 4.10,-2.36 4.39,-1.86 4.55,-1.31 4.70,-0.75 4.73,-0.18 4.75,0.39 4.63,0.95 4.52,1.51 4.52,1.51 L 4.52,1.51 Z"/>
  </g>
  <g transform="translate(241.38118933774695 53.33747116849963) rotate(0 10.513887228246404 19.245514850739482)" stroke="none">
    <path fill="#343a40" d="M 5.32,0.48 Q 5.32,0.48 5.13,2.82 4.95,5.17 4.95,8.37 4.96,11.58 5.03,15.05 5.10,18.51 5.19,21.68 5.27,24.85 5.36,27.17 5.45,29.50 7.68,29.75 9.91,30.00 12.25,29.98 14.60,29.96 17.00,30.02 19.40,30.08 23.34,32.27 27.28,34.45 27.78,35.44 28.28,36.42 28.44,37.51 28.60,38.61 28.40,39.69 28.20,40.78 27.66,41.75 27.13,42.71 26.31,43.46 25.50,44.21 24.49,44.65 23.48,45.10 22.38,45.20 21.28,45.30 20.20,45.04 19.13,44.78 18.19,44.20 17.26,43.61 16.56,42.76 15.86,41.90 15.47,40.87 15.07,39.83 15.03,38.73 14.99,37.63 15.31,36.57 15.62,35.51 16.26,34.61 16.90,33.70 17.79,33.05 18.68,32.40 19.73,32.06 20.78,31.73 21.89,31.75 22.99,31.77 24.03,32.14 25.07,32.51 25.94,33.20 26.81,33.88 27.41,34.81 28.02,35.73 28.29,36.80 28.57,37.87 28.49,38.97 28.41,40.07 27.98,41.09 27.55,42.11 26.82,42.94 26.09,43.77 25.14,44.32 24.18,44.87 23.10,45.09 22.02,45.31 20.92,45.17 19.82,45.03 18.83,44.55 17.84,44.07 17.05,43.29 16.26,42.52 16.26,42.52 16.26,42.52 15.82,42.88 15.39,43.24 13.08,43.13 10.78,43.02 8.32,42.74 5.87,42.46 3.56,41.89 1.25,41.31 -1.02,39.80 -3.29,38.29 -5.12,33.89 -6.94,29.49 -6.85,27.16 -6.76,24.84 -6.66,21.65 -6.57,18.47 -6.46,14.89 -6.34,11.30 -6.07,7.74 -5.80,4.18 -5.56,1.84 -5.32,-0.48 -5.18,-1.11 -5.05,-1.74 -4.76,-2.32 -4.48,-2.90 -4.07,-3.40 -3.66,-3.89 -3.14,-4.27 -2.62,-4.65 -2.02,-4.90 -1.43,-5.15 -0.79,-5.24 -0.15,-5.34 0.48,-5.28 1.12,-5.22 1.73,-5.01 2.34,-4.80 2.88,-4.45 3.42,-4.10 3.86,-3.63 4.30,-3.16 4.62,-2.60 4.94,-2.04 5.11,-1.42 5.28,-0.80 5.30,-0.15 5.32,0.48 5.32,0.48 L 5.32,0.48 Z"/>
  </g>
  <g transform="translate(240.0422347748472 103.26646058191818) rotate(0 -10.22853931123609 28.85760201598623)" stroke="none">
    <path fill="#343a40" d="M 4.60,0 Q 4.60,0 4.34,4.44 4.08,8.89 3.88,13.29 3.69,17.69 3.68,20.41 3.68,23.12 3.32,26.19 2.97,29.27 2.39,32.43 1.81,35.60 1.28,38.29 0.75,40.99 -0.21,44.13 -1.18,47.28 -1.86,50.32 -2.54,53.37 -3.71,55.80 -4.88,58.23 -7.32,60.22 -9.76,62.21 -12.52,62.87 -15.29,63.54 -17.84,63.61 -20.39,63.68 -22.46,62.45 -24.53,61.22 -25.53,59.21 -26.54,57.19 -26.67,55.21 -26.79,53.23 -26.65,52.22 -26.51,51.20 -26.05,50.28 -25.59,49.36 -24.86,48.64 -24.13,47.92 -23.21,47.47 -22.29,47.01 -21.27,46.88 -20.26,46.75 -19.25,46.94 -18.24,47.14 -17.35,47.65 -16.46,48.16 -15.78,48.92 -15.09,49.69 -14.69,50.63 -14.29,51.58 -14.21,52.60 -14.13,53.62 -14.38,54.62 -14.64,55.61 -15.19,56.48 -15.75,57.34 -16.55,57.98 -17.35,58.62 -18.32,58.97 -19.28,59.32 -20.31,59.34 -21.33,59.37 -22.31,59.06 -23.29,58.75 -24.12,58.15 -24.95,57.55 -25.55,56.72 -26.15,55.88 -26.44,54.90 -26.74,53.92 -26.71,52.89 -26.68,51.86 -26.32,50.90 -25.96,49.94 -25.31,49.14 -24.67,48.35 -23.80,47.80 -22.93,47.25 -21.94,47.01 -20.94,46.76 -19.92,46.85 -18.90,46.94 -17.96,47.35 -17.01,47.76 -16.25,48.44 -15.49,49.13 -14.99,50.03 -14.49,50.92 -14.30,51.93 -14.11,52.94 -14.11,52.94 -14.11,52.94 -14.11,54.14 -14.11,55.33 -15.53,53.53 -16.95,51.72 -14.46,51.13 -11.97,50.53 -10.81,47.57 -9.66,44.60 -8.75,41.80 -7.85,39.00 -7.18,36.48 -6.50,33.95 -5.88,31.01 -5.25,28.07 -4.76,25.36 -4.28,22.66 -3.98,20.18 -3.69,17.69 -3.88,13.29 -4.08,8.89 -4.34,4.44 -4.60,0 -4.53,-0.55 -4.46,-1.10 -4.27,-1.61 -4.07,-2.13 -3.75,-2.59 -3.44,-3.05 -3.02,-3.41 -2.61,-3.78 -2.12,-4.04 -1.63,-4.30 -1.09,-4.43 -0.55,-4.56 0.00,-4.56 0.55,-4.56 1.09,-4.43 1.63,-4.30 2.12,-4.04 2.61,-3.78 3.02,-3.41 3.44,-3.05 3.75,-2.59 4.07,-2.13 4.27,-1.61 4.46,-1.10 4.53,-0.55 4.60,0.00 4.60,0.00 L 4.60,0 Z"/>
  </g>
  <g transform="translate(385.8939738056024 283.31149083059245) rotate(0 67.48748488413594 -38.591488569714556)" stroke="none">
    <path fill="#343a40" d="M 0,-4.20 Q 0,-4.20 4.15,-4.02 8.31,-3.84 12.68,-3.67 17.05,-3.51 23.82,-3.39 30.59,-3.27 35.22,-3.18 39.84,-3.09 43.69,-3.12 47.54,-3.15 50.52,-3.42 53.50,-3.68 55.68,-4.14 57.87,-4.60 60.66,-5.41 63.45,-6.21 65.79,-7.65 68.13,-9.09 71.60,-11.68 75.06,-14.27 77.61,-16.05 80.16,-17.82 82.52,-19.69 84.88,-21.56 86.73,-23.44 88.58,-25.33 90.17,-27.11 91.75,-28.90 93.59,-31.91 95.42,-34.93 96.10,-37.88 96.77,-40.83 96.84,-43.71 96.91,-46.59 96.81,-49.33 96.71,-52.07 96.78,-54.44 96.86,-56.81 98.15,-59.38 99.44,-61.95 101.34,-63.04 103.24,-64.14 105.87,-63.79 108.50,-63.45 110.86,-62.94 113.21,-62.43 115.39,-62.00 117.57,-61.58 119.70,-61.59 121.83,-61.60 124.07,-61.65 126.31,-61.70 127.30,-63.62 128.29,-65.55 128.03,-68.44 127.78,-71.33 127.76,-74.25 127.73,-77.18 127.92,-78.33 128.11,-79.49 128.66,-80.52 129.21,-81.56 130.06,-82.36 130.91,-83.17 131.97,-83.66 133.03,-84.15 134.20,-84.28 135.36,-84.40 136.51,-84.15 137.65,-83.90 138.65,-83.30 139.66,-82.69 140.41,-81.80 141.17,-80.91 141.60,-79.82 142.04,-78.73 142.10,-77.56 142.16,-76.39 141.85,-75.27 141.54,-74.14 140.88,-73.17 140.22,-72.20 139.29,-71.49 138.36,-70.78 137.25,-70.41 136.14,-70.04 134.97,-70.04 133.80,-70.04 132.69,-70.41 131.58,-70.79 130.65,-71.49 129.72,-72.20 129.06,-73.17 128.40,-74.14 128.09,-75.27 127.78,-76.40 127.84,-77.57 127.90,-78.74 128.34,-79.82 128.77,-80.91 129.53,-81.80 130.29,-82.69 131.29,-83.30 132.29,-83.90 133.44,-84.15 134.58,-84.40 135.74,-84.28 136.91,-84.15 137.97,-83.66 139.03,-83.17 139.88,-82.36 140.73,-81.56 141.28,-80.52 141.83,-79.49 142.02,-78.33 142.21,-77.18 142.21,-77.18 142.21,-77.18 142.19,-74.84 142.18,-72.50 142.15,-69.89 142.12,-67.27 141.91,-64.58 141.69,-61.89 140.47,-59.28 139.26,-56.67 137.87,-54.94 136.48,-53.21 134.03,-51.12 131.58,-49.02 128.25,-48.46 124.92,-47.90 122.39,-47.98 119.86,-48.06 117.66,-48.23 115.45,-48.41 113.05,-48.95 110.65,-49.49 108.02,-50.53 105.39,-51.56 107.56,-53.78 109.73,-56.00 109.26,-53.33 108.79,-50.65 108.63,-48.36 108.48,-46.06 108.06,-42.25 107.65,-38.44 107.09,-36.31 106.54,-34.17 105.67,-32.03 104.80,-29.89 103.53,-27.75 102.25,-25.62 100.72,-23.82 99.18,-22.02 97.42,-20.19 95.66,-18.36 93.44,-16.11 91.22,-13.87 88.70,-11.70 86.17,-9.54 83.72,-7.69 81.27,-5.84 79.03,-4.18 76.79,-2.53 73.48,-0.70 70.17,1.11 67.71,1.80 65.25,2.50 62.03,2.74 58.82,2.99 56.28,3.12 53.75,3.24 50.64,3.20 47.54,3.15 43.69,3.12 39.84,3.09 35.22,3.18 30.59,3.27 23.82,3.39 17.05,3.51 12.68,3.67 8.31,3.84 4.15,4.02 0,4.20 -0.50,4.14 -1.00,4.08 -1.48,3.90 -1.95,3.72 -2.37,3.43 -2.79,3.14 -3.12,2.77 -3.46,2.39 -3.69,1.94 -3.93,1.49 -4.05,0.99 -4.17,0.50 -4.17,-0.00 -4.17,-0.50 -4.05,-1.00 -3.93,-1.49 -3.69,-1.94 -3.46,-2.39 -3.12,-2.77 -2.79,-3.15 -2.37,-3.43 -1.95,-3.72 -1.48,-3.90 -1.00,-4.08 -0.50,-4.14 0.00,-4.20 0.00,-4.20 L 0,-4.20 Z"/>
  </g>
  <g transform="translate(464.0942134734714 73.04921581309964) rotate(0 -39.57184784043511 54.67711538323283)" stroke="none">
    <path fill="#343a40" d="M 4.92,0 Q 4.92,0 4.98,2.35 5.04,4.70 5.06,7.34 5.08,9.98 5.29,12.73 5.49,15.48 6.13,18.92 6.76,22.35 7.54,25.11 8.32,27.87 9.04,30.15 9.76,32.43 10.60,35.89 11.43,39.35 11.71,41.52 11.98,43.70 12.20,46.09 12.42,48.48 12.38,51.70 12.34,54.92 11.31,56.97 10.27,59.01 8.35,61.21 6.43,63.40 3.89,64.93 1.36,66.45 -1.61,67.28 -4.59,68.10 -7.19,68.63 -9.78,69.16 -12.38,69.24 -14.99,69.32 -12.31,67.24 -9.63,65.17 -9.49,68.55 -9.34,71.92 -9.36,74.65 -9.38,77.37 -9.40,80.09 -9.41,82.80 -9.41,85.20 -9.41,87.60 -9.49,89.78 -9.58,91.95 -9.95,94.30 -10.33,96.65 -10.80,99.57 -11.26,102.49 -12.33,105.01 -13.40,107.52 -15.54,109.82 -17.69,112.12 -20.37,113.36 -23.06,114.59 -25.34,115.13 -27.62,115.67 -30.02,115.80 -32.42,115.92 -35.48,116.29 -38.53,116.66 -41.50,116.70 -44.47,116.73 -47.68,116.01 -50.89,115.28 -53.02,113.31 -55.15,111.34 -56.17,109.28 -57.18,107.21 -58.12,104.37 -59.06,101.53 -59.84,99.24 -60.62,96.94 -60.90,94.30 -61.17,91.65 -59.53,93.28 -57.88,94.92 -60.01,95.57 -62.14,96.21 -64.16,97.11 -66.18,98.01 -68.66,98.43 -71.14,98.84 -73.75,98.91 -76.36,98.98 -78.80,99.00 -81.24,99.01 -84.91,99.52 -88.57,100.04 -90.38,98.23 -92.20,96.42 -92.41,91.46 -92.62,86.49 -92.14,85.36 -91.65,84.24 -90.83,83.32 -90.01,82.41 -88.94,81.81 -87.87,81.20 -86.67,80.97 -85.46,80.74 -84.25,80.91 -83.03,81.08 -81.93,81.62 -80.83,82.17 -79.97,83.04 -79.10,83.91 -78.56,85.01 -78.01,86.11 -77.85,87.32 -77.68,88.54 -77.92,89.74 -78.15,90.95 -78.75,92.02 -79.36,93.08 -80.27,93.90 -81.19,94.72 -82.31,95.21 -83.44,95.69 -84.66,95.79 -85.89,95.89 -87.08,95.59 -88.27,95.29 -89.30,94.63 -90.34,93.97 -91.10,93.01 -91.87,92.05 -92.29,90.90 -92.72,89.75 -92.75,88.52 -92.78,87.29 -92.42,86.12 -92.06,84.95 -91.34,83.95 -90.62,82.96 -89.63,82.24 -88.63,81.53 -87.45,81.17 -86.28,80.81 -85.05,80.84 -83.83,80.88 -82.68,81.30 -81.52,81.73 -80.57,82.50 -79.61,83.27 -78.95,84.30 -78.29,85.34 -78.00,86.53 -77.70,87.72 -77.81,88.94 -77.91,90.16 -77.91,90.16 -77.91,90.16 -77.95,90.51 -78.00,90.85 -79.65,89.47 -81.31,88.09 -85.55,88.46 -89.80,88.82 -87.87,86.98 -85.94,85.14 -83.04,84.56 -80.14,83.97 -77.79,83.98 -75.44,83.99 -73.15,83.95 -70.86,83.90 -68.73,82.97 -66.61,82.04 -63.58,81.47 -60.55,80.89 -58.03,80.92 -55.51,80.94 -53.05,81.53 -50.59,82.11 -49.35,83.94 -48.11,85.76 -47.33,89.34 -46.56,92.93 -45.89,94.96 -45.23,97.00 -44.88,99.48 -44.53,101.96 -41.90,101.93 -39.28,101.90 -36.94,101.62 -34.59,101.34 -32.03,101.24 -29.47,101.14 -27.41,100.49 -25.36,99.85 -24.89,97.14 -24.43,94.44 -24.01,91.02 -23.60,87.60 -23.59,85.20 -23.59,82.80 -23.61,80.09 -23.62,77.37 -23.64,74.64 -23.66,71.91 -23.67,69.23 -23.69,66.55 -23.41,63.56 -23.14,60.58 -21.79,58.88 -20.44,57.18 -17.72,56.16 -14.99,55.14 -12.61,55.20 -10.23,55.26 -8.12,54.92 -6.02,54.59 -3.94,53.99 -1.86,53.40 -0.67,51.53 0.51,49.67 0.70,47.34 0.88,45.01 0.98,42.83 1.08,40.64 0.78,37.84 0.48,35.03 -0.09,32.68 -0.66,30.33 -1.44,27.41 -2.22,24.49 -3.37,20.40 -4.53,16.31 -4.81,13.15 -5.08,9.98 -5.06,7.34 -5.04,4.70 -4.98,2.35 -4.92,0 -4.85,-0.58 -4.78,-1.17 -4.57,-1.73 -4.36,-2.28 -4.02,-2.77 -3.68,-3.26 -3.24,-3.66 -2.79,-4.05 -2.27,-4.32 -1.74,-4.60 -1.17,-4.74 -0.59,-4.88 0.00,-4.88 0.59,-4.88 1.17,-4.74 1.74,-4.60 2.27,-4.32 2.79,-4.05 3.24,-3.65 3.68,-3.26 4.02,-2.77 4.36,-2.28 4.57,-1.73 4.78,-1.17 4.85,-0.58 4.92,0.00 4.92,0.00 L 4.92,0 Z"/>
  </g>
  <g transform="translate(385.46716340066905 63.28178084326282) rotate(0 1.3767897210668707 33.71121911645173)" stroke="none">
    <path fill="#343a40" d="M 4.98,-0.12 Q 4.98,-0.12 5.09,2.16 5.21,4.45 5.79,6.68 6.37,8.91 7.00,11.22 7.63,13.53 8.31,16.06 8.99,18.60 9.69,21.32 10.40,24.04 11.01,26.95 11.62,29.86 12.10,32.60 12.57,35.34 12.86,37.83 13.15,40.33 13.43,44.34 13.71,48.35 13.87,50.61 14.03,52.87 14.20,55.36 14.37,57.84 14.21,60.17 14.05,62.50 12.18,65.04 10.30,67.57 7.79,69.17 5.28,70.77 2.40,71.82 -0.47,72.88 -2.10,73.41 -3.73,73.94 -4.82,74.05 -5.91,74.17 -6.97,73.93 -8.04,73.69 -8.98,73.13 -9.91,72.56 -10.62,71.72 -11.33,70.89 -11.73,69.87 -12.13,68.85 -12.19,67.76 -12.24,66.67 -11.95,65.61 -11.65,64.56 -11.03,63.66 -10.42,62.75 -9.54,62.09 -8.67,61.43 -7.63,61.09 -6.59,60.74 -5.50,60.74 -4.41,60.75 -3.37,61.10 -2.33,61.45 -1.46,62.12 -0.60,62.78 0.01,63.69 0.62,64.60 0.91,65.65 1.20,66.71 1.13,67.80 1.07,68.89 0.66,69.91 0.25,70.92 -0.45,71.75 -1.16,72.59 -2.10,73.15 -3.04,73.71 -4.11,73.94 -5.18,74.17 -6.26,74.05 -7.35,73.93 -8.34,73.47 -9.33,73.00 -10.13,72.25 -10.92,71.49 -11.43,70.52 -11.94,69.56 -12.11,68.48 -12.28,67.40 -12.10,66.32 -11.92,65.24 -11.41,64.27 -10.89,63.31 -10.09,62.56 -9.30,61.81 -8.30,61.35 -7.31,60.89 -7.31,60.90 -7.31,60.90 -4.95,60.25 -2.58,59.60 -0.20,58.72 2.17,57.85 2.34,55.40 2.50,52.96 2.61,50.77 2.72,48.59 2.72,44.96 2.73,41.33 2.57,39.18 2.42,37.03 2.01,34.53 1.61,32.02 1.02,29.35 0.42,26.68 -0.30,23.96 -1.03,21.25 -1.70,18.66 -2.38,16.07 -2.95,13.68 -3.51,11.28 -4.24,8.02 -4.98,4.75 -4.98,2.44 -4.98,0.12 -4.92,-0.47 -4.86,-1.07 -4.66,-1.63 -4.46,-2.20 -4.13,-2.70 -3.81,-3.20 -3.37,-3.61 -2.93,-4.02 -2.40,-4.32 -1.88,-4.61 -1.30,-4.77 -0.72,-4.92 -0.12,-4.94 0.47,-4.95 1.06,-4.83 1.64,-4.70 2.18,-4.43 2.72,-4.16 3.18,-3.78 3.64,-3.39 3.99,-2.91 4.35,-2.42 4.57,-1.86 4.80,-1.31 4.89,-0.71 4.98,-0.12 4.98,-0.12 L 4.98,-0.12 Z"/>
  </g>
  <g transform="translate(426.38355720668824 67.98433688119621) rotate(0 -16.778867556377918 17.058251310524383)" stroke="none">
    <path fill="#343a40" d="M 4.48,2.64 Q 4.48,2.64 2.78,5.37 1.07,8.10 -0.41,10.87 -1.91,13.64 -3.57,15.81 -5.23,17.99 -6.83,19.47 -8.42,20.95 -10.05,22.36 -11.67,23.76 -13.67,25.76 -15.68,27.76 -17.33,29.56 -18.98,31.36 -21.08,33.17 -23.18,34.98 -26.69,37.44 -30.20,39.89 -31.21,40.28 -32.22,40.66 -33.30,40.70 -34.38,40.75 -35.42,40.44 -36.46,40.13 -37.34,39.51 -38.23,38.89 -38.87,38.02 -39.51,37.15 -39.84,36.12 -40.17,35.09 -40.15,34.01 -40.13,32.92 -39.77,31.91 -39.41,30.89 -38.74,30.04 -38.07,29.18 -37.17,28.59 -36.26,28.00 -35.22,27.73 -34.17,27.45 -33.09,27.53 -32.01,27.61 -31.01,28.02 -30.01,28.44 -29.20,29.15 -28.39,29.87 -27.85,30.80 -27.30,31.74 -27.09,32.80 -26.87,33.86 -27.01,34.93 -27.14,36.00 -27.61,36.98 -28.08,37.95 -28.84,38.73 -29.59,39.50 -30.56,39.99 -31.52,40.48 -32.59,40.64 -33.66,40.80 -34.73,40.60 -35.79,40.41 -36.74,39.89 -37.68,39.37 -38.42,38.57 -39.15,37.77 -39.58,36.78 -40.02,35.80 -40.12,34.72 -40.22,33.64 -39.97,32.59 -39.72,31.54 -39.15,30.62 -38.58,29.70 -37.74,29.01 -36.91,28.33 -36.91,28.33 -36.91,28.33 -33.93,26.23 -30.94,24.14 -29.11,22.56 -27.28,20.99 -24.93,19.08 -22.59,17.17 -20.82,15.52 -19.05,13.88 -16.81,12.40 -14.57,10.93 -12.75,9.31 -10.92,7.70 -9.27,5.34 -7.61,2.97 -6.05,0.16 -4.48,-2.64 -4.10,-3.14 -3.72,-3.64 -3.23,-4.03 -2.74,-4.42 -2.17,-4.69 -1.60,-4.95 -0.98,-5.07 -0.36,-5.19 0.25,-5.16 0.88,-5.13 1.48,-4.95 2.08,-4.77 2.62,-4.45 3.16,-4.13 3.61,-3.69 4.06,-3.25 4.39,-2.72 4.72,-2.18 4.92,-1.59 5.11,-0.99 5.15,-0.36 5.20,0.25 5.09,0.87 4.98,1.49 4.73,2.07 4.48,2.64 4.48,2.64 L 4.48,2.64 Z"/>
  </g>
  <g transform="translate(327.6904539391662 257.2125005191547) rotate(0 45.907279842393564 -25.35598608468422)" stroke="none">
    <path fill="#343a40" d="M -2.93,-3.88 Q -2.93,-3.88 0.83,-6.36 4.60,-8.84 6.37,-10.54 8.15,-12.23 10.01,-14.19 11.86,-16.16 14.12,-18.41 16.37,-20.67 18.36,-22.78 20.35,-24.90 21.78,-26.63 23.22,-28.35 25.21,-30.87 27.20,-33.38 29.58,-36.78 31.97,-40.18 34.17,-43.32 36.37,-46.46 38.94,-49.28 41.51,-52.09 43.88,-54.01 46.25,-55.93 48.62,-56.69 50.99,-57.45 53.29,-57.24 55.58,-57.03 57.62,-55.83 59.65,-54.63 61.97,-53.39 64.30,-52.14 66.73,-50.95 69.16,-49.76 71.22,-48.46 73.29,-47.16 75.67,-45.73 78.06,-44.30 80.23,-43.01 82.41,-41.72 84.60,-41.99 86.79,-42.26 85.68,-39.68 84.57,-37.11 84.86,-38.25 85.15,-39.39 85.79,-40.37 86.44,-41.36 87.36,-42.09 88.28,-42.82 89.39,-43.22 90.50,-43.61 91.67,-43.63 92.85,-43.66 93.97,-43.30 95.09,-42.95 96.04,-42.25 96.99,-41.56 97.67,-40.60 98.35,-39.64 98.69,-38.51 99.02,-37.38 98.98,-36.21 98.94,-35.03 98.53,-33.93 98.11,-32.83 97.37,-31.92 96.62,-31.01 95.63,-30.38 94.63,-29.75 93.48,-29.48 92.34,-29.21 91.17,-29.31 90.00,-29.42 88.92,-29.89 87.84,-30.36 86.97,-31.16 86.10,-31.95 85.53,-32.98 84.96,-34.01 84.75,-35.16 84.54,-36.32 84.71,-37.49 84.87,-38.65 85.41,-39.70 85.94,-40.75 86.78,-41.58 87.62,-42.40 88.67,-42.91 89.73,-43.43 90.90,-43.58 92.07,-43.73 93.22,-43.50 94.37,-43.26 95.39,-42.68 96.41,-42.09 97.19,-41.21 97.97,-40.32 98.43,-39.24 98.88,-38.16 98.97,-36.98 99.05,-35.81 99.05,-35.81 99.05,-35.81 93.61,-31.81 88.17,-27.81 85.88,-27.84 83.59,-27.87 81.29,-28.00 79.00,-28.14 76.40,-29.15 73.80,-30.16 71.51,-31.86 69.22,-33.57 66.66,-35.26 64.09,-36.95 61.88,-38.24 59.66,-39.54 57.05,-41.06 54.44,-42.58 52.03,-43.19 49.63,-43.81 47.42,-41.72 45.22,-39.63 42.94,-36.77 40.65,-33.92 39.13,-31.83 37.60,-29.73 36.23,-28.06 34.86,-26.38 32.59,-24.16 30.31,-21.94 28.65,-20.24 26.99,-18.54 24.90,-16.41 22.81,-14.27 20.59,-12.02 18.37,-9.76 16.21,-7.64 14.06,-5.52 11.91,-3.76 9.77,-2.00 6.35,0.94 2.93,3.88 2.42,4.18 1.91,4.47 1.35,4.64 0.79,4.80 0.20,4.83 -0.38,4.85 -0.95,4.73 -1.53,4.62 -2.06,4.37 -2.59,4.12 -3.04,3.75 -3.50,3.38 -3.85,2.91 -4.21,2.44 -4.44,1.90 -4.67,1.36 -4.77,0.78 -4.86,0.20 -4.82,-0.37 -4.77,-0.96 -4.58,-1.52 -4.40,-2.07 -4.09,-2.57 -3.77,-3.07 -3.35,-3.47 -2.93,-3.88 -2.93,-3.88 L -2.93,-3.88 Z"/>
  </g>
  <g transform="translate(531.1161208940593 311.1354288702646) rotate(0 -7.2596908657428685 -18.988310327242743)" stroke="none">
    <path fill="#343a40" d="M -5.29,0 Q -5.29,0 -5.27,-2.80 -5.25,-5.61 -5.41,-8.23 -5.57,-10.85 -5.55,-14.30 -5.54,-17.75 -5.41,-20.66 -5.28,-23.58 -5.37,-26.18 -5.46,-28.78 -7.70,-29.94 -9.95,-31.10 -15.19,-31.99 -20.43,-32.87 -21.04,-33.81 -21.66,-34.76 -21.93,-35.84 -22.21,-36.93 -22.13,-38.05 -22.05,-39.17 -21.61,-40.20 -21.18,-41.24 -20.43,-42.08 -19.69,-42.92 -18.72,-43.48 -17.74,-44.04 -16.64,-44.26 -15.54,-44.48 -14.43,-44.33 -13.31,-44.19 -12.30,-43.70 -11.30,-43.21 -10.50,-42.42 -9.70,-41.63 -9.19,-40.63 -8.69,-39.63 -8.53,-38.52 -8.37,-37.40 -8.57,-36.30 -8.77,-35.20 -9.32,-34.22 -9.86,-33.23 -10.69,-32.48 -11.52,-31.72 -12.55,-31.27 -13.58,-30.82 -14.70,-30.72 -15.82,-30.62 -16.91,-30.89 -18.00,-31.15 -18.95,-31.75 -19.90,-32.35 -20.61,-33.22 -21.32,-34.09 -21.71,-35.14 -22.11,-36.19 -22.15,-37.31 -22.18,-38.43 -21.86,-39.51 -21.54,-40.58 -20.89,-41.50 -20.24,-42.41 -19.34,-43.08 -18.43,-43.74 -17.36,-44.07 -16.29,-44.41 -15.17,-44.39 -14.04,-44.37 -12.99,-43.99 -11.93,-43.61 -11.05,-42.91 -10.17,-42.21 -10.17,-42.21 -10.17,-42.21 -11.58,-43.47 -12.98,-44.74 -10.27,-44.73 -7.57,-44.73 -5.43,-44.56 -3.29,-44.39 -0.23,-42.73 2.82,-41.07 4.62,-38.52 6.42,-35.96 6.72,-32.33 7.02,-28.70 6.84,-25.80 6.65,-22.91 6.32,-19.82 5.99,-16.73 5.78,-13.79 5.57,-10.85 5.41,-8.23 5.25,-5.61 5.27,-2.80 5.29,0 5.22,0.63 5.14,1.26 4.91,1.86 4.69,2.46 4.32,2.98 3.96,3.51 3.48,3.93 3.01,4.36 2.44,4.65 1.87,4.95 1.25,5.10 0.63,5.26 -0.00,5.26 -0.63,5.26 -1.25,5.10 -1.87,4.95 -2.44,4.65 -3.01,4.36 -3.48,3.93 -3.96,3.51 -4.32,2.98 -4.69,2.46 -4.91,1.86 -5.14,1.26 -5.22,0.63 -5.29,-0.00 -5.29,-0.00 L -5.29,0 Z"/>
  </g>
  <g transform="translate(497.50247175445566 151.71074620245645) rotate(0 -0.5473983228330326 18.977313901962816)" stroke="none">
    <path fill="#343a40" d="M 3.77,-3.71 Q 3.77,-3.71 5.09,-2.47 6.40,-1.23 8.41,1.23 10.42,3.70 11.48,6.33 12.53,8.95 12.85,12.07 13.16,15.19 13.63,17.81 14.11,20.43 14.25,22.72 14.39,25.02 12.63,28.93 10.87,32.85 8.80,33.67 6.72,34.50 4.43,34.69 2.14,34.87 -0.06,34.96 -2.26,35.04 -4.62,35.11 -6.98,35.18 -7.81,35.20 -8.65,35.23 -9.51,35.12 -10.37,35.02 -11.18,34.71 -11.99,34.40 -12.70,33.91 -13.41,33.42 -13.99,32.77 -14.56,32.12 -14.96,31.35 -15.37,30.59 -15.57,29.75 -15.78,28.90 -15.78,28.04 -15.78,27.17 -15.57,26.33 -15.37,25.49 -14.96,24.72 -14.56,23.96 -13.99,23.31 -13.41,22.66 -12.70,22.17 -11.99,21.67 -11.18,21.37 -10.37,21.06 -9.51,20.96 -8.65,20.85 -5.55,22.45 -2.45,24.05 -1.52,26.86 -0.60,29.67 -0.05,30.71 0.49,31.74 1.38,32.54 2.26,33.34 2.85,34.38 3.43,35.42 3.66,36.59 3.88,37.76 3.72,38.94 3.55,40.13 3.02,41.19 2.49,42.26 1.64,43.10 0.80,43.95 -0.26,44.47 -1.33,45.00 -2.51,45.16 -3.69,45.32 -4.87,45.09 -6.04,44.87 -7.07,44.28 -8.11,43.69 -8.91,42.80 -9.70,41.91 -10.17,40.81 -10.64,39.72 -10.73,38.53 -10.83,37.34 -10.54,36.18 -10.25,35.02 -9.60,34.02 -8.96,33.02 -8.03,32.27 -7.10,31.52 -5.98,31.12 -4.86,30.71 -3.66,30.68 -2.47,30.65 -1.33,31.00 -0.19,31.35 0.77,32.05 1.73,32.75 2.43,33.72 3.12,34.69 3.47,35.83 3.82,36.97 3.78,38.16 3.75,39.35 3.33,40.47 2.92,41.59 2.17,42.52 1.42,43.45 0.42,44.09 -0.58,44.73 -1.74,45.01 -2.90,45.30 -4.09,45.20 -5.28,45.10 -6.37,44.63 -7.46,44.15 -7.46,44.15 -7.46,44.15 -8.59,43.51 -9.71,42.87 -12.02,40.05 -14.34,37.23 -14.01,34.99 -13.68,32.76 -11.16,33.99 -8.65,35.23 -9.51,35.12 -10.37,35.02 -11.18,34.71 -11.99,34.40 -12.70,33.91 -13.41,33.42 -13.99,32.77 -14.56,32.12 -14.96,31.36 -15.37,30.59 -15.57,29.75 -15.78,28.91 -15.78,28.04 -15.78,27.17 -15.57,26.33 -15.37,25.49 -14.96,24.72 -14.56,23.96 -13.99,23.31 -13.41,22.66 -12.70,22.17 -11.99,21.67 -11.18,21.37 -10.37,21.06 -9.51,20.96 -8.65,20.85 -6.59,20.91 -4.54,20.97 -2.36,21.03 -0.19,21.09 1.94,21.12 4.08,21.15 2.58,23.60 1.07,26.06 1.17,23.59 1.27,21.13 1.00,18.24 0.73,15.36 0.90,13.12 1.06,10.88 -0.14,8.63 -1.35,6.38 -2.56,5.04 -3.77,3.71 -4.16,3.20 -4.55,2.70 -4.81,2.11 -5.07,1.53 -5.18,0.90 -5.29,0.27 -5.24,-0.36 -5.20,-1.00 -5.00,-1.60 -4.81,-2.21 -4.47,-2.75 -4.14,-3.30 -3.68,-3.75 -3.23,-4.19 -2.68,-4.52 -2.13,-4.84 -1.52,-5.03 -0.90,-5.21 -0.27,-5.25 0.36,-5.28 0.99,-5.16 1.62,-5.04 2.20,-4.77 2.78,-4.50 3.27,-4.11 3.77,-3.71 3.77,-3.71 L 3.77,-3.71 Z"/>
  </g>
  <g transform="translate(461.5508707722847 257.29748983996205) rotate(0 4.350670428974809 -29.588491536922902)" stroke="none">
    <path fill="#343a40" d="M -5.08,1.23 Q -5.08,1.23 -5.63,-0.81 -6.19,-2.86 -7.26,-5.46 -8.33,-8.07 -9.26,-10.34 -10.19,-12.60 -11.43,-14.51 -12.66,-16.41 -13.82,-18.26 -14.98,-20.11 -15.52,-22.29 -16.07,-24.48 -15.50,-28.23 -14.92,-31.98 -13.14,-33.75 -11.35,-35.52 -7.76,-36.32 -4.17,-37.11 -1.39,-37.18 1.37,-37.26 4.00,-37.31 6.64,-37.36 9.86,-38.14 13.09,-38.91 12.52,-33.72 11.95,-28.53 9.61,-31.99 7.26,-35.45 5.46,-38.70 3.65,-41.96 2.70,-44.39 1.75,-46.81 1.06,-49.45 0.38,-52.09 0.28,-55.63 0.19,-59.16 0.37,-60.30 0.56,-61.43 1.09,-62.44 1.63,-63.46 2.46,-64.25 3.29,-65.04 4.33,-65.52 5.38,-66.01 6.52,-66.13 7.66,-66.26 8.78,-66.01 9.90,-65.77 10.89,-65.18 11.87,-64.59 12.61,-63.71 13.36,-62.84 13.78,-61.77 14.21,-60.71 14.27,-59.56 14.34,-58.41 14.03,-57.31 13.73,-56.20 13.08,-55.25 12.44,-54.30 11.53,-53.60 10.61,-52.91 9.53,-52.54 8.44,-52.17 7.29,-52.17 6.14,-52.17 5.05,-52.53 3.97,-52.90 3.05,-53.59 2.14,-54.29 1.49,-55.24 0.85,-56.19 0.54,-57.29 0.23,-58.40 0.29,-59.54 0.35,-60.69 0.78,-61.76 1.20,-62.82 1.94,-63.70 2.68,-64.57 3.67,-65.17 4.65,-65.76 5.77,-66.01 6.89,-66.26 8.03,-66.13 9.17,-66.01 10.22,-65.53 11.26,-65.05 12.09,-64.26 12.93,-63.47 13.47,-62.46 14.00,-61.44 14.19,-60.31 14.38,-59.18 14.38,-59.18 14.38,-59.18 14.38,-57.22 14.38,-55.25 14.78,-52.69 15.19,-50.14 16.11,-48.13 17.02,-46.12 19.15,-42.96 21.28,-39.80 22.52,-37.87 23.76,-35.95 21.05,-30.44 18.34,-24.92 15.94,-24.56 13.54,-24.20 10.83,-23.76 8.11,-23.32 5.89,-23.36 3.67,-23.41 0.70,-23.62 -2.25,-23.83 -0.95,-21.63 0.35,-19.42 0.96,-17.03 1.57,-14.64 2.29,-12.58 3.02,-10.51 3.60,-7.95 4.19,-5.38 4.63,-3.31 5.08,-1.23 5.15,-0.60 5.23,0.01 5.15,0.64 5.07,1.26 4.84,1.85 4.62,2.44 4.26,2.96 3.90,3.48 3.43,3.89 2.95,4.31 2.39,4.60 1.83,4.89 1.22,5.04 0.61,5.19 -0.01,5.19 -0.64,5.19 -1.25,5.03 -1.87,4.88 -2.42,4.58 -2.98,4.29 -3.45,3.87 -3.92,3.45 -4.28,2.93 -4.63,2.41 -4.86,1.82 -5.08,1.23 -5.08,1.23 L -5.08,1.23 Z"/>
  </g>
  <g transform="translate(371.07153804860627 208.87091032792569) rotate(0 -28.051880889119275 10.155851076335011)" stroke="none">
    <path fill="#343a40" d="M 0,5.17 Q 0,5.17 -2.77,5.16 -5.55,5.15 -8.02,5.18 -10.48,5.22 -13.56,5.16 -16.63,5.10 -18.96,5.15 -21.30,5.20 -23.44,5.25 -25.58,5.31 -28.76,5.55 -31.95,5.80 -34.09,6.23 -36.23,6.66 -38.43,7.05 -40.62,7.45 -42.94,7.65 -45.25,7.86 -45.60,10.68 -45.94,13.51 -46.75,15.67 -47.56,17.84 -48.85,20.89 -50.14,23.93 -50.88,24.79 -51.61,25.65 -52.58,26.22 -53.55,26.80 -54.66,27.04 -55.76,27.27 -56.88,27.14 -58.00,27.02 -59.02,26.54 -60.04,26.06 -60.86,25.28 -61.67,24.50 -62.20,23.50 -62.72,22.50 -62.90,21.38 -63.07,20.27 -62.88,19.16 -62.70,18.04 -62.16,17.05 -61.63,16.06 -60.80,15.28 -59.98,14.51 -58.95,14.05 -57.93,13.58 -56.81,13.46 -55.68,13.35 -54.58,13.59 -53.48,13.84 -52.52,14.43 -51.55,15.02 -50.83,15.88 -50.10,16.74 -49.69,17.79 -49.28,18.85 -49.23,19.97 -49.17,21.10 -49.48,22.18 -49.79,23.27 -50.42,24.20 -51.06,25.13 -51.96,25.81 -52.87,26.49 -53.94,26.84 -55.01,27.19 -56.14,27.19 -57.27,27.18 -58.33,26.82 -59.40,26.45 -60.29,25.76 -61.19,25.07 -61.82,24.14 -62.44,23.20 -62.74,22.11 -63.04,21.02 -62.97,19.90 -62.90,18.77 -62.48,17.72 -62.05,16.68 -62.05,16.68 -62.05,16.68 -60.85,13.84 -59.65,10.99 -58.89,8.68 -58.12,6.36 -57.29,3.89 -56.46,1.43 -54.91,-0.69 -53.35,-2.82 -50.41,-3.83 -47.48,-4.85 -45.18,-4.71 -42.88,-4.58 -40.47,-4.73 -38.06,-4.88 -35.41,-5.11 -32.76,-5.35 -29.17,-5.33 -25.58,-5.31 -23.44,-5.25 -21.30,-5.20 -18.96,-5.15 -16.63,-5.10 -13.56,-5.16 -10.48,-5.22 -8.02,-5.18 -5.55,-5.15 -2.77,-5.16 0,-5.17 0.61,-5.10 1.23,-5.02 1.82,-4.80 2.40,-4.58 2.91,-4.22 3.43,-3.87 3.84,-3.40 4.25,-2.93 4.54,-2.38 4.83,-1.83 4.98,-1.22 5.13,-0.62 5.13,0.00 5.13,0.62 4.98,1.22 4.83,1.83 4.54,2.38 4.25,2.94 3.84,3.40 3.43,3.87 2.91,4.22 2.40,4.58 1.82,4.80 1.23,5.02 0.61,5.10 -0.00,5.17 -0.00,5.17 L 0,5.17 Z"/>
  </g>
</svg>
