<?xml version="1.0"?>
<svg xmlns="http://www.w3.org/2000/svg" version="1.1" viewBox="0 0 282.0804353006829 527.0624873959246" width="564.1608706013658" height="1054.1249747918491">
  <!-- svg-source:excalidraw -->
  <defs>
    <style class="style-fonts">
      @font-face {
        font-family: "Virgil";
        src: url("https://excalidraw.com/Virgil.woff2");
      }
      @font-face {
        font-family: "Cascadia";
        src: url("https://excalidraw.com/Cascadia.woff2");
      }
    </style>
  </defs>
  <rect x="0" y="0" width="282.0804353006829" height="527.0624873959246" fill="#ffffff"/>
  <g stroke-linecap="round" transform="translate(10 10) rotate(0 131.04021765034145 253.53124369796228)">
    <path d="M7.86 8.16 C7.86 8.16, 7.86 8.16, 7.86 8.16 M7.86 8.16 C7.86 8.16, 7.86 8.16, 7.86 8.16 M3.66 19.09 C7.36 15.38, 8.4 10.72, 18.1 2.48 M3.66 19.09 C7.85 14.87, 9.97 10.26, 18.1 2.48 M2.75 26.24 C5.84 19.3, 11.67 14.45, 24.4 1.33 M2.75 26.24 C8.58 20.49, 12.41 15.33, 24.4 1.33 M1.83 33.39 C11.11 22.31, 22.72 10.5, 30.7 0.18 M1.83 33.39 C13.81 19.66, 24.22 7.58, 30.7 0.18 M1.57 39.79 C8.67 30.64, 17.11 22.06, 34.37 2.05 M1.57 39.79 C14.02 25.63, 24.9 12.23, 34.37 2.05 M1.96 45.43 C15.09 30.69, 30.16 11.49, 39.36 2.41 M1.96 45.43 C13.45 32.36, 25.56 19.39, 39.36 2.41 M1.7 51.83 C13.77 37.05, 28.31 20.33, 45 2.02 M1.7 51.83 C18.22 32.62, 34.39 15.45, 45 2.02 M1.44 58.23 C19.43 38.75, 35.27 21.39, 49.99 2.38 M1.44 58.23 C10.21 47.74, 21.01 35.09, 49.99 2.38 M1.83 63.87 C19.42 40.95, 39.68 21.42, 55.63 1.98 M1.83 63.87 C13.96 50.82, 24.64 37.48, 55.63 1.98 M1.57 70.27 C24.82 46.39, 44.05 19.78, 60.62 2.34 M1.57 70.27 C22.45 46.61, 42.89 22.58, 60.62 2.34 M1.97 75.91 C22.21 57, 41.53 32.92, 66.26 1.95 M1.97 75.91 C23.48 53.12, 41.92 29.09, 66.26 1.95 M1.71 82.31 C24.44 59.66, 43.99 33.48, 71.25 2.31 M1.71 82.31 C26.83 54.69, 50.78 26.66, 71.25 2.31 M1.44 88.71 C25.15 66.34, 43.63 41.76, 76.89 1.91 M1.44 88.71 C20.18 65.58, 41.32 42.88, 76.89 1.91 M1.84 94.35 C32.57 59.33, 58.64 29.47, 81.88 2.27 M1.84 94.35 C19.64 73.24, 38.8 50.15, 81.88 2.27 M1.58 100.75 C19.51 79.61, 37.97 56.97, 87.52 1.88 M1.58 100.75 C32.84 62.38, 65.9 24.77, 87.52 1.88 M1.97 106.39 C27.86 79.89, 49.84 52.14, 92.51 2.24 M1.97 106.39 C21.46 86.36, 40.19 65.58, 92.51 2.24 M1.71 112.79 C37.22 69.65, 73.8 27.49, 98.15 1.85 M1.71 112.79 C34.73 73.8, 68.03 34.74, 98.15 1.85 M1.45 119.19 C32.18 85.6, 60.92 50.21, 103.14 2.21 M1.45 119.19 C28.62 88.47, 54.07 57.01, 103.14 2.21 M1.84 124.83 C26.85 91.94, 56.55 61.37, 108.12 2.57 M1.84 124.83 C38.43 82.24, 74.73 39.75, 108.12 2.57 M1.58 131.23 C32.94 98.68, 62.35 63.66, 113.77 2.17 M1.58 131.23 C46.01 82.16, 88.26 31.46, 113.77 2.17 M1.98 136.87 C41.28 93.47, 78.14 49.04, 118.76 2.53 M1.98 136.87 C43.17 90.73, 83.57 45.98, 118.76 2.53 M1.72 143.27 C38.86 100.48, 75.57 56.09, 124.4 2.14 M1.72 143.27 C47.05 89.57, 92.59 37.17, 124.4 2.14 M1.45 149.67 C30.19 117.97, 56.1 90.43, 129.39 2.5 M1.45 149.67 C51.41 93.1, 101.45 34.87, 129.39 2.5 M1.85 155.31 C42.15 109.95, 85.39 61.89, 135.03 2.1 M1.85 155.31 C48.13 100.87, 94.92 47.78, 135.03 2.1 M1.59 161.71 C51.63 107.66, 98.97 50.68, 140.02 2.46 M1.59 161.71 C50.04 106.07, 96.97 51.63, 140.02 2.46 M1.98 167.35 C45.43 120.35, 87.7 70.77, 145.66 2.07 M1.98 167.35 C43.45 117.97, 88.11 68.21, 145.66 2.07 M1.72 173.75 C60.1 105.75, 117.04 41.51, 150.65 2.43 M1.72 173.75 C51.25 117.8, 99.58 61.63, 150.65 2.43 M1.46 180.14 C65.01 109.65, 125.02 40.41, 156.29 2.03 M1.46 180.14 C55.69 117.89, 109.27 55.98, 156.29 2.03 M1.85 185.79 C49.02 128.7, 100.21 70.03, 161.28 2.39 M1.85 185.79 C44.22 136.28, 86.38 85.98, 161.28 2.39 M1.59 192.19 C56.65 133.08, 110.49 69.94, 166.26 2.75 M1.59 192.19 C42.56 147.36, 80.78 101.64, 166.26 2.75 M1.99 197.83 C57.66 135.5, 111.68 72.48, 171.91 2.36 M1.99 197.83 C67.65 123.86, 131.98 48.45, 171.91 2.36 M1.72 204.23 C53.69 148.47, 102.14 92.69, 176.89 2.72 M1.72 204.23 C51.07 149.3, 98.37 93.12, 176.89 2.72 M1.46 210.62 C36.87 168.72, 73.42 126.57, 182.54 2.32 M1.46 210.62 C52.92 153.6, 101.33 96.15, 182.54 2.32 M1.86 216.27 C50.5 162.92, 95.7 109.7, 187.52 2.68 M1.86 216.27 C72.3 133.58, 143.45 50.34, 187.52 2.68 M1.6 222.66 C61.12 155.3, 117.57 87.54, 193.17 2.29 M1.6 222.66 C43.39 172.4, 85.98 122.96, 193.17 2.29 M1.99 228.31 C63.78 159.11, 124.56 89.3, 198.15 2.65 M1.99 228.31 C51.32 172.19, 99.77 116.72, 198.15 2.65 M1.73 234.71 C40.38 188.97, 83.6 141.7, 203.8 2.26 M1.73 234.71 C65.43 159.47, 131.28 85.55, 203.8 2.26 M1.47 241.1 C64.38 168.46, 128.43 96.2, 208.78 2.62 M1.47 241.1 C76.96 152.37, 153.62 63.65, 208.78 2.62 M1.86 246.75 C48.14 195.36, 91.64 145.56, 214.43 2.22 M1.86 246.75 C72.56 166.48, 141.45 86.7, 214.43 2.22 M1.6 253.14 C85.43 157.11, 167.59 60.83, 219.41 2.58 M1.6 253.14 C44.66 200.75, 89.99 150.11, 219.41 2.58 M2 258.79 C63.87 190.55, 122.36 119.77, 225.06 2.19 M2 258.79 C49.89 204.81, 96.51 151.21, 225.06 2.19 M1.73 265.19 C65.38 191.97, 129.78 119.1, 230.04 2.55 M1.73 265.19 C56.22 201.88, 112.35 137.34, 230.04 2.55 M1.47 271.58 C64.34 197.92, 126.91 126.13, 235.03 2.91 M1.47 271.58 C51.6 214.69, 101.63 158.16, 235.03 2.91 M1.87 277.23 C97.77 168.75, 192.84 58.9, 240.02 3.27 M1.87 277.23 C77.85 189.78, 152.77 103.59, 240.02 3.27 M1.61 283.62 C86.57 189.01, 168.86 93.49, 245.66 2.87 M1.61 283.62 C91.73 179.94, 181.43 75.82, 245.66 2.87 M2 289.27 C88.77 190.98, 172.19 92.35, 248.68 5.5 M2 289.27 C74.17 208.13, 144.6 126.7, 248.68 5.5 M1.74 295.66 C82.62 203.81, 162.89 110.88, 252.35 7.37 M1.74 295.66 C55.65 237.76, 106.68 178.08, 252.35 7.37 M1.48 302.06 C57.1 239.54, 110.08 177.48, 256.03 9.24 M1.48 302.06 C94.45 195.13, 187.27 87.8, 256.03 9.24 M1.87 307.71 C80.18 217.1, 159.96 125, 257.74 13.37 M1.87 307.71 C63.73 237.88, 125.28 167.4, 257.74 13.37 M1.61 314.1 C71.61 237.31, 139.34 159, 260.1 16.75 M1.61 314.1 C54.8 253.85, 107.24 193.89, 260.1 16.75 M2.01 319.75 C90.69 216.93, 179.08 116.15, 262.46 20.13 M2.01 319.75 C74.3 236.63, 145.43 155.76, 262.46 20.13 M1.74 326.14 C71.5 246.02, 138.89 166.73, 263.51 25.02 M1.74 326.14 C99.65 210.87, 198.58 97.45, 263.51 25.02 M1.48 332.54 C72.78 250.05, 141.78 170.07, 262.59 32.17 M1.48 332.54 C78.37 244.4, 155.61 154.94, 262.59 32.17 M1.88 338.19 C93.57 231.6, 185.37 126.85, 262.33 38.57 M1.88 338.19 C85.1 243.32, 167.59 148.68, 262.33 38.57 M1.62 344.58 C79.27 254.52, 159.62 163.7, 262.73 44.21 M1.62 344.58 C105.26 227.98, 207.9 109.72, 262.73 44.21 M2.01 350.23 C96.87 241, 191.37 133.36, 262.47 50.61 M2.01 350.23 C102.08 234.91, 202.68 119.9, 262.47 50.61 M1.75 356.62 C71.62 275.49, 144.84 191.96, 262.2 57 M1.75 356.62 C62.78 285.74, 122.88 215.84, 262.2 57 M1.49 363.02 C80.35 271.58, 162.38 177.45, 262.6 62.65 M1.49 363.02 C102.25 245.66, 203.91 128.89, 262.6 62.65 M1.88 368.66 C94.58 261.09, 184.91 156.75, 262.34 69.04 M1.88 368.66 C99.6 254.93, 199.18 141.52, 262.34 69.04 M1.62 375.06 C77.35 286.25, 155.25 197.85, 262.73 74.69 M1.62 375.06 C70.97 295.78, 138.9 216.59, 262.73 74.69 M2.02 380.71 C91.51 276.38, 183.65 173.54, 262.47 81.09 M2.02 380.71 C98.98 268.72, 197 155.59, 262.47 81.09 M1.75 387.1 C56.58 323.39, 113.19 259.27, 262.21 87.48 M1.75 387.1 C103.87 269.1, 206.71 151.37, 262.21 87.48 M1.49 393.5 C53.79 330.21, 107.46 267.87, 262.6 93.13 M1.49 393.5 C70.06 315.16, 138.56 235.61, 262.6 93.13 M1.89 399.14 C63.44 329.2, 123.47 257.85, 262.34 99.52 M1.89 399.14 C76.86 310.34, 153.64 222.39, 262.34 99.52 M1.63 405.54 C80.86 312.5, 159.48 221.31, 262.74 105.17 M1.63 405.54 C70.29 323.58, 141.07 242.96, 262.74 105.17 M2.02 411.18 C85.37 317.38, 165.36 222.61, 262.48 111.57 M2.02 411.18 C86.7 311.75, 173.23 212.87, 262.48 111.57 M1.76 417.58 C95.34 310.63, 187.89 203.25, 262.21 117.96 M1.76 417.58 C83.47 324.82, 164.32 231.84, 262.21 117.96 M1.5 423.98 C83.28 333.26, 161.75 241.64, 262.61 123.61 M1.5 423.98 C103.46 306.03, 207.25 187.29, 262.61 123.61 M1.89 429.62 C85.8 335.51, 168.39 240.32, 262.35 130 M1.89 429.62 C76.64 344.98, 151.42 258.86, 262.35 130 M1.63 436.02 C61.66 364.46, 124 295.5, 262.74 135.65 M1.63 436.02 C62.52 365.39, 123.72 296.22, 262.74 135.65 M2.02 441.66 C73.63 358.69, 143.64 275.81, 262.48 142.04 M2.02 441.66 C106.3 323.53, 209.99 205.45, 262.48 142.04 M1.76 448.06 C60.89 378.43, 119.48 311.86, 262.22 148.44 M1.76 448.06 C84.36 356.19, 164.89 262.78, 262.22 148.44 M1.5 454.46 C93.68 350.42, 185.87 243.3, 262.61 154.09 M1.5 454.46 C59.1 385.91, 116.98 319.12, 262.61 154.09 M1.9 460.1 C100.81 346.18, 200.07 233.45, 262.35 160.48 M1.9 460.1 C92.22 354.16, 183.47 248.43, 262.35 160.48 M1.64 466.5 C55.76 405.76, 108.61 346.27, 262.75 166.13 M1.64 466.5 C63.79 393.61, 126.3 321.8, 262.75 166.13 M2.03 472.14 C77.34 386.68, 149.66 303.76, 262.49 172.52 M2.03 472.14 C55.94 411.66, 109.21 350.82, 262.49 172.52 M2.42 477.79 C86.52 377.89, 171.42 279.73, 262.22 178.92 M2.42 477.79 C81.76 386.91, 161.18 296.94, 262.22 178.92 M3.47 482.68 C84.73 389.28, 168.13 295.17, 262.62 184.57 M3.47 482.68 C97.25 373.37, 192.45 264.02, 262.62 184.57 M2.56 489.83 C96.19 384.11, 190.06 275.38, 262.36 190.96 M2.56 489.83 C98.23 380.38, 194.15 270.81, 262.36 190.96 M4.26 493.96 C91.45 392.56, 180.03 294.22, 262.75 196.61 M4.26 493.96 C72.67 414.83, 142.52 334.62, 262.75 196.61 M7.28 496.59 C100.98 390.98, 194.4 284.8, 262.49 203 M7.28 496.59 C102.75 385.81, 198.02 276.4, 262.49 203 M9.65 499.96 C109.04 385.44, 207 269.94, 262.23 209.4 M9.65 499.96 C105.27 388.99, 201.28 278.24, 262.23 209.4 M12.66 502.59 C97.36 404.1, 183.21 307.35, 262.62 215.04 M12.66 502.59 C99.07 404.78, 184.67 305.25, 262.62 215.04 M17 503.7 C74.05 439.54, 129.49 377.26, 262.36 221.44 M17 503.7 C94.71 414.96, 171.5 325.07, 262.36 221.44 M20.67 505.57 C100.25 413.7, 179.91 321.9, 262.76 227.09 M20.67 505.57 C94 419.99, 168.02 336.64, 262.76 227.09 M25 506.69 C107.55 413.72, 189.33 316.78, 262.49 233.48 M25 506.69 C101.82 418.08, 178.13 329.97, 262.49 233.48 M29.99 507.05 C104.13 425.2, 174.11 343.02, 262.23 239.88 M29.99 507.05 C113.65 414.32, 195.7 318.97, 262.23 239.88 M33.66 508.92 C116.86 412.54, 202.15 315.32, 262.63 245.52 M33.66 508.92 C123.84 408.01, 212.58 304.83, 262.63 245.52 M39.31 508.52 C102.07 436.73, 165.58 362.82, 262.37 251.92 M39.31 508.52 C128.55 409.1, 215.49 308.17, 262.37 251.92 M44.29 508.88 C101.84 441.29, 160.62 373.83, 262.76 257.57 M44.29 508.88 C119.45 420.44, 194.84 334.65, 262.76 257.57 M49.94 508.49 C95.74 454.03, 141.51 401.96, 262.5 263.96 M49.94 508.49 C95.46 457.41, 138.24 408.55, 262.5 263.96 M54.92 508.85 C122.67 430.02, 193.97 347.6, 262.24 270.36 M54.92 508.85 C127.56 425.21, 201.48 341.29, 262.24 270.36 M60.57 508.45 C114.38 444.7, 166.39 382.52, 262.63 276 M60.57 508.45 C134.25 423.42, 207.97 338.17, 262.63 276 M65.55 508.81 C111.96 455.23, 156.85 403.06, 262.37 282.4 M65.55 508.81 C109.37 457.78, 153.4 407.01, 262.37 282.4 M71.2 508.42 C140.23 425.95, 212.64 344.31, 262.77 288.04 M71.2 508.42 C132.43 434.9, 196.46 362.69, 262.77 288.04 M76.18 508.78 C134.83 445.43, 191.29 376.6, 262.5 294.44 M76.18 508.78 C130.72 444.4, 187.45 379.03, 262.5 294.44 M81.83 508.39 C132.98 451.93, 182.71 395.3, 262.24 300.84 M81.83 508.39 C146.13 434.01, 210.93 358.9, 262.24 300.84 M86.81 508.75 C138.51 450.36, 192.87 391.05, 262.64 306.48 M86.81 508.75 C149.87 434.91, 214.43 360.77, 262.64 306.48 M92.46 508.35 C139.04 454.35, 188.01 401.06, 262.38 312.88 M92.46 508.35 C159.87 431.66, 226.04 354.6, 262.38 312.88 M97.44 508.71 C131.48 467.79, 169.52 426.71, 262.77 318.52 M97.44 508.71 C155.23 443.04, 212.26 377.63, 262.77 318.52 M103.09 508.32 C148.28 455.31, 196.24 399.96, 262.51 324.92 M103.09 508.32 C158.44 443.06, 215.84 378.6, 262.51 324.92 M108.07 508.68 C149.23 459.39, 192.2 408.74, 262.25 331.32 M108.07 508.68 C138.51 474.57, 170.27 437.5, 262.25 331.32 M113.06 509.04 C170.24 439.87, 230.44 373.42, 262.64 336.96 M113.06 509.04 C152.92 461.97, 194.32 415.31, 262.64 336.96 M118.7 508.64 C172.51 446.98, 226.46 388.77, 262.38 343.36 M118.7 508.64 C151.46 470.78, 185.85 431.48, 262.38 343.36 M123.69 509 C164.27 465.43, 202.24 421.35, 262.78 349 M123.69 509 C173.08 452.12, 222.74 396.72, 262.78 349 M129.33 508.61 C177.6 450.39, 228.11 394.17, 262.51 355.4 M129.33 508.61 C180.34 449.83, 231.46 392.98, 262.51 355.4 M134.32 508.97 C179.06 457.15, 230.24 401.76, 262.25 361.8 M134.32 508.97 C170.36 467.28, 207.09 426.29, 262.25 361.8 M139.96 508.57 C171.9 470.28, 202.17 436.68, 262.65 367.44 M139.96 508.57 C178.62 463.72, 219.93 418.69, 262.65 367.44 M144.95 508.93 C188.08 462.92, 229.83 413.79, 262.39 373.84 M144.95 508.93 C186.91 458.67, 230.66 408.87, 262.39 373.84 M150.59 508.54 C192.7 463.49, 231.24 415.03, 262.78 379.48 M150.59 508.54 C192.05 459.49, 236.13 410.69, 262.78 379.48 M155.58 508.9 C178.56 479.87, 205.99 453.88, 262.52 385.88 M155.58 508.9 C194.81 463.75, 234.11 419.03, 262.52 385.88 M161.22 508.5 C194.3 468.5, 230.61 427.31, 262.26 392.28 M161.22 508.5 C181.86 485.46, 202.28 461.45, 262.26 392.28 M166.21 508.86 C188.48 481.62, 212.22 457.87, 262.65 397.92 M166.21 508.86 C188.51 480.36, 212.77 453, 262.65 397.92 M171.85 508.47 C206.93 464.38, 243.74 425.36, 262.39 404.32 M171.85 508.47 C198.92 477.47, 227.94 445.31, 262.39 404.32 M176.84 508.83 C205.51 475.32, 237.59 442.19, 262.13 410.72 M176.84 508.83 C198.49 482.05, 222.65 456.11, 262.13 410.72 M182.48 508.43 C202.02 486.72, 222.97 461.56, 262.52 416.36 M182.48 508.43 C208.01 481.5, 232.55 452.44, 262.52 416.36 M187.47 508.79 C215.42 474.45, 245.49 443.03, 262.26 422.76 M187.47 508.79 C207.66 486.87, 225.58 463.02, 262.26 422.76 M193.11 508.4 C207.65 490.74, 221.55 475.67, 262.66 428.4 M193.11 508.4 C212.77 484.56, 232.98 462.49, 262.66 428.4 M198.1 508.76 C218.81 484.98, 237.21 463.57, 262.4 434.8 M198.1 508.76 C222.32 480.74, 246.03 453.21, 262.4 434.8 M203.74 508.37 C218.74 495.53, 231.49 480.07, 262.13 441.2 M203.74 508.37 C218.32 491.17, 233.18 474.09, 262.13 441.2 M208.73 508.73 C225.72 491.04, 241.45 472.96, 262.53 446.84 M208.73 508.73 C224.49 489.65, 241.27 469.4, 262.53 446.84 M214.37 508.33 C227.63 494.98, 241.77 478.28, 262.27 453.24 M214.37 508.33 C227.69 493.35, 241.3 478.75, 262.27 453.24 M219.36 508.69 C229.61 495.18, 242.08 481.89, 262.66 458.88 M219.36 508.69 C232.44 493.82, 244.17 478.12, 262.66 458.88 M224.35 509.05 C231.44 501.19, 242.06 488.62, 262.4 465.28 M224.35 509.05 C236.15 495.55, 249.47 479.51, 262.4 465.28 M230.65 507.9 C243.85 495.7, 252.39 481.69, 262.14 471.68 M230.65 507.9 C241.8 496.56, 251.35 483.13, 262.14 471.68 M236.95 506.75 C243.74 497.67, 253.45 487.43, 263.19 476.56 M236.95 506.75 C242.78 499.16, 249.24 491.32, 263.19 476.56 M243.25 505.6 C248.37 497.34, 255.21 493.57, 262.27 483.72 M243.25 505.6 C248.16 498.83, 254.21 493.18, 262.27 483.72" stroke="#4c6ef5" stroke-width="0.5" fill="none"/>
    <path d="M32 0 M32 0 C74.27 1.32, 113.65 0.79, 230.08 0 M32 0 C111.36 0.38, 189.8 0.49, 230.08 0 M230.08 0 C249.87 -0.09, 261.21 8.87, 262.08 32 M230.08 0 C252.06 0.05, 262.61 9.33, 262.08 32 M262.08 32 C262.07 200.92, 263.03 371.53, 262.08 475.06 M262.08 32 C260.19 157.53, 260.56 282.83, 262.08 475.06 M262.08 475.06 C263.35 495.03, 252.91 508.73, 230.08 507.06 M262.08 475.06 C261.16 496.23, 252.8 507.82, 230.08 507.06 M230.08 507.06 C172.19 504.01, 119.37 504.06, 32 507.06 M230.08 507.06 C178.38 506.69, 125.84 505.42, 32 507.06 M32 507.06 C11.9 507.83, 1.41 496.85, 0 475.06 M32 507.06 C11.12 504.78, -2.05 496.25, 0 475.06 M0 475.06 C-1.2 377.16, -0.52 279.73, 0 32 M0 475.06 C2.05 306.89, 2.51 139.51, 0 32 M0 32 C-0.71 9.07, 10.78 -1.72, 32 0 M0 32 C0.45 8.55, 9.98 -1.87, 32 0" stroke="#000000" stroke-width="1" fill="none"/>
  </g>
  <g stroke-linecap="round" transform="translate(23.17754544840136 23.431540370248968) rotate(0 118.94649517634389 240.2042686243958)">
    <path d="M30.72 0.83 L212.38 0.07 L221.18 3.16 L229.17 8.2 L234.89 18.94 L237.15 31.85 L236.03 446.64 L238.74 456.62 L234.15 467.77 L228.64 471.12 L218.59 477.76 L207.32 481.88 L24.09 478.86 L10.65 474.27 L5.32 467.53 L0.47 460.86 L-0.42 447.45 L-1.3 32.54 L0.84 19.63 L7.94 7.12 L19.33 2.5 L30.1 -1.55" stroke="none" stroke-width="0" fill="#ffffff"/>
    <path d="M32 0 M32 0 C79.04 0.34, 128.32 -3.02, 205.89 0 M32 0 C91.63 0.53, 150.18 0.24, 205.89 0 M205.89 0 C226.04 -0.11, 237.05 11.28, 237.89 32 M205.89 0 C228.52 -1.71, 236.15 11.79, 237.89 32 M237.89 32 C238.03 117.1, 236.47 200.67, 237.89 448.41 M237.89 32 C237.98 185.17, 237.41 337.49, 237.89 448.41 M237.89 448.41 C237.9 471.03, 228.14 480.33, 205.89 480.41 M237.89 448.41 C236.47 470.7, 226 480.59, 205.89 480.41 M205.89 480.41 C150 481.23, 92 480.13, 32 480.41 M205.89 480.41 C136.58 480.31, 68.92 480.81, 32 480.41 M32 480.41 C10.81 481.54, -1.81 471.44, 0 448.41 M32 480.41 C9.27 478.28, 2.12 469.07, 0 448.41 M0 448.41 C-0.62 324.54, -1.84 201.98, 0 32 M0 448.41 C1.48 328.71, 1.83 208.34, 0 32 M0 32 C-0.2 12.09, 10.9 -1.13, 32 0 M0 32 C1.64 11.8, 9.23 -0.49, 32 0" stroke="#000000" stroke-width="1" fill="none"/>
  </g>
  <g stroke-linecap="round" transform="translate(37.15261442265182 40.773167113396994) rotate(0 102.5 25)">
    <path d="M3.33 2.89 C3.33 2.89, 3.33 2.89, 3.33 2.89 M3.33 2.89 C3.33 2.89, 3.33 2.89, 3.33 2.89 M0.44 12.31 C2.76 7.55, 6.03 4.23, 10.28 0.99 M0.44 12.31 C3.62 7.43, 7.05 4.23, 10.28 0.99 M0.18 18.71 C3.94 13.2, 7.11 10.03, 14.61 2.1 M0.18 18.71 C3.1 15.36, 7.27 9.73, 14.61 2.1 M0.57 24.35 C6.82 17.82, 11.3 13.48, 20.26 1.71 M0.57 24.35 C4.36 19.62, 8.93 13.64, 20.26 1.71 M0.31 30.75 C5.08 25.12, 12.49 16.76, 25.24 2.07 M0.31 30.75 C5.45 23.63, 12.15 18.61, 25.24 2.07 M0.71 36.39 C7.95 26.52, 15.23 21.73, 30.89 1.67 M0.71 36.39 C7.47 29.73, 12.97 21.54, 30.89 1.67 M1.1 42.03 C13.85 26.52, 26.52 16.63, 35.87 2.03 M1.1 42.03 C11.37 31.76, 20.53 19.45, 35.87 2.03 M3.47 45.41 C11.56 37.28, 17.77 28.46, 41.52 1.64 M3.47 45.41 C12.69 34.55, 22.49 24.48, 41.52 1.64 M5.83 48.79 C20.68 33.67, 30.73 18.07, 46.5 2 M5.83 48.79 C14.18 38.28, 24.57 28.03, 46.5 2 M10.16 49.91 C18.63 37.71, 31 27.56, 51.49 2.36 M10.16 49.91 C20.6 37.64, 31.25 24.34, 51.49 2.36 M15.15 50.27 C26.45 37.85, 34.36 25.74, 57.13 1.97 M15.15 50.27 C27.55 33.83, 41.53 19.14, 57.13 1.97 M20.79 49.87 C34.49 33.19, 49.15 17.12, 62.12 2.33 M20.79 49.87 C32.43 36.5, 43.31 22.83, 62.12 2.33 M25.78 50.23 C32.65 41.82, 41.45 32.49, 67.76 1.93 M25.78 50.23 C42.01 33.13, 57.07 14.55, 67.76 1.93 M31.42 49.84 C43.92 35.69, 58.28 18.36, 72.75 2.29 M31.42 49.84 C43.78 34.57, 56.05 20.58, 72.75 2.29 M36.41 50.2 C52.17 30.74, 69.1 16.14, 78.39 1.9 M36.41 50.2 C52.81 31.42, 69.33 11.48, 78.39 1.9 M42.05 49.8 C52.16 37.26, 60.85 23.95, 83.38 2.26 M42.05 49.8 C52.1 39.49, 61.78 28.17, 83.38 2.26 M47.04 50.16 C60.61 33.58, 78.11 16.62, 89.02 1.86 M47.04 50.16 C62.58 31.73, 79.42 13.74, 89.02 1.86 M52.02 50.52 C63.79 36.96, 75.61 23.11, 94.01 2.22 M52.02 50.52 C64.96 34.41, 79.77 18.36, 94.01 2.22 M57.67 50.13 C73.98 33.38, 89.26 16.64, 99.65 1.83 M57.67 50.13 C71.98 33.46, 86.66 15.11, 99.65 1.83 M62.65 50.49 C73.17 38.32, 82.27 29.34, 104.64 2.19 M62.65 50.49 C70.05 40.28, 79.75 29.93, 104.64 2.19 M68.3 50.09 C79.41 35.52, 92.32 21.41, 110.28 1.79 M68.3 50.09 C79.04 39, 89.68 26.8, 110.28 1.79 M73.28 50.45 C81.5 39.08, 93.14 29.77, 115.27 2.15 M73.28 50.45 C89.69 31.54, 104.53 12.4, 115.27 2.15 M78.93 50.06 C96.08 33.14, 112.25 14.28, 120.91 1.76 M78.93 50.06 C90.32 36.93, 102.16 22.18, 120.91 1.76 M83.91 50.42 C94.99 38.79, 105.25 27.28, 125.9 2.12 M83.91 50.42 C98.23 34.29, 112.63 18.28, 125.9 2.12 M89.56 50.03 C97.51 40.17, 109.43 26.86, 131.54 1.72 M89.56 50.03 C104.31 32.67, 119.26 15.52, 131.54 1.72 M94.54 50.39 C105.47 38.48, 113.82 29.51, 136.53 2.08 M94.54 50.39 C107.84 36.79, 120.04 21.64, 136.53 2.08 M100.19 49.99 C116.26 32.15, 131.39 14.03, 141.52 2.44 M100.19 49.99 C110.98 36.82, 123.18 23.8, 141.52 2.44 M105.17 50.35 C117.98 36.53, 131.93 19.86, 147.16 2.05 M105.17 50.35 C121.23 32.11, 137.12 14.19, 147.16 2.05 M110.82 49.96 C121.2 36.42, 131.02 28.36, 152.15 2.41 M110.82 49.96 C123.41 33.94, 136.89 18.82, 152.15 2.41 M115.8 50.32 C125.41 39.26, 132.26 28.29, 157.79 2.01 M115.8 50.32 C128.48 34.59, 142.85 18.3, 157.79 2.01 M121.45 49.92 C133.56 35.61, 144.98 24.21, 162.78 2.37 M121.45 49.92 C131.1 37.55, 142.29 24.4, 162.78 2.37 M126.43 50.28 C134.77 41.58, 143.08 28.44, 168.42 1.98 M126.43 50.28 C139.41 33.55, 152.99 19.16, 168.42 1.98 M131.42 50.64 C146.17 34.6, 159.65 15.22, 173.41 2.34 M131.42 50.64 C146.66 31.77, 161.69 14.26, 173.41 2.34 M137.06 50.25 C144.82 40.66, 156.17 30.78, 179.05 1.95 M137.06 50.25 C152.68 30.8, 169.77 12.15, 179.05 1.95 M142.05 50.61 C155.61 32.67, 170.92 15.84, 184.04 2.31 M142.05 50.61 C158.1 31.39, 175.39 11.8, 184.04 2.31 M147.69 50.21 C159.61 36.7, 169.26 23.28, 189.68 1.91 M147.69 50.21 C164.48 32.05, 178.82 13.42, 189.68 1.91 M152.68 50.57 C168.28 36.42, 180.06 19.63, 195.98 0.76 M152.68 50.57 C170.74 31.98, 186.66 11.2, 195.98 0.76 M158.32 50.18 C169.24 37.25, 182.11 26.36, 199.66 2.63 M158.32 50.18 C175.31 30.51, 190.21 11.28, 199.66 2.63 M163.31 50.54 C176.51 36.86, 190.58 19.37, 203.33 4.5 M163.31 50.54 C172.41 39.51, 184.4 27.44, 203.33 4.5 M168.95 50.14 C175.78 39.68, 182.67 33.22, 205.69 7.88 M168.95 50.14 C184.18 34.44, 197.42 17.09, 205.69 7.88 M173.94 50.5 C181.65 39.41, 190.82 28.24, 205.43 14.28 M173.94 50.5 C181.6 41.92, 189.27 31.78, 205.43 14.28 M179.58 50.11 C190.36 39.39, 198.46 27.5, 205.83 19.92 M179.58 50.11 C188.09 40.22, 195.68 32.34, 205.83 19.92 M184.57 50.47 C187.66 46.54, 192.58 38.06, 205.57 26.32 M184.57 50.47 C189.73 44.73, 196.41 37.77, 205.57 26.32 M190.21 50.07 C196.5 43.9, 201.2 35.96, 205.96 31.96 M190.21 50.07 C196.48 42.55, 203.08 34.95, 205.96 31.96 M194.55 51.19 C197.91 47.22, 201.41 44.65, 205.7 38.36 M194.55 51.19 C197.17 46.73, 201.28 43.87, 205.7 38.36" stroke="#fa5252" stroke-width="0.5" fill="none"/>
    <path d="M12.5 0 M12.5 0 C70.69 -0.41, 131.47 -2.57, 192.5 0 M12.5 0 C63.41 -0.16, 114.61 -0.21, 192.5 0 M192.5 0 C200.47 -1.79, 205.54 2.22, 205 12.5 M192.5 0 C200.54 -2.14, 202.85 2.06, 205 12.5 M205 12.5 C206.74 19.89, 203.61 31.08, 205 37.5 M205 12.5 C204.01 22.01, 205.19 30.09, 205 37.5 M205 37.5 C205.94 46.56, 200.26 50.56, 192.5 50 M205 37.5 C205.28 47.5, 200.74 49.46, 192.5 50 M192.5 50 C119.46 51.05, 47.31 51.71, 12.5 50 M192.5 50 C144.56 49.42, 97.17 50.9, 12.5 50 M12.5 50 C5.96 51.3, 1.45 43.87, 0 37.5 M12.5 50 C2.15 50.59, -1.75 46.18, 0 37.5 M0 37.5 C1.02 30.08, 1.37 21.76, 0 12.5 M0 37.5 C-0.88 29.86, -0.14 20.09, 0 12.5 M0 12.5 C0.47 5.61, 3.39 -1.48, 12.5 0 M0 12.5 C1.66 4.47, 3.28 -1.62, 12.5 0" stroke="#000000" stroke-width="1" fill="none"/>
  </g>
  <g transform="translate(111.06462461552292 48.273167113396994) rotate(0 28.587989807128906 17.5)">
    <text x="28.587989807128906" y="0" font-family="Virgil, Segoe UI Emoji" font-size="28px" fill="#000000" text-anchor="middle" style="white-space: pre;" direction="ltr" dominant-baseline="text-before-edge">Role</text>
  </g>
  <g stroke-linecap="round" transform="translate(42.11001651182232 167.5875417369457) rotate(0 99.5 29)">
    <path d="M2 5.71 C2 5.71, 2 5.71, 2 5.71 M2 5.71 C2 5.71, 2 5.71, 2 5.71 M1.74 12.11 C3.06 9.62, 6.34 8.47, 8.3 4.56 M1.74 12.11 C3.2 10.27, 5.35 7.57, 8.3 4.56 M1.47 18.51 C3.57 15.25, 7.07 12.48, 16.56 1.15 M1.47 18.51 C6.28 12.3, 9.75 7.88, 16.56 1.15 M1.87 24.15 C8.98 17.25, 11.02 12.71, 21.55 1.51 M1.87 24.15 C5.82 18.57, 9.88 13.51, 21.55 1.51 M1.61 30.55 C10.19 20.54, 14.9 14.56, 26.54 1.87 M1.61 30.55 C7.56 25.45, 11.17 18.7, 26.54 1.87 M1.35 36.95 C12.89 25.97, 22.05 11.57, 32.18 1.47 M1.35 36.95 C10.33 25.54, 20.04 14.98, 32.18 1.47 M1.74 42.59 C13.95 32.33, 22.98 19.63, 37.17 1.83 M1.74 42.59 C9.7 32.7, 16.31 24.68, 37.17 1.83 M2.14 48.23 C11.06 37.31, 22.44 21.37, 42.81 1.44 M2.14 48.23 C18.63 30.27, 34.44 11.3, 42.81 1.44 M3.84 52.37 C11.11 41.06, 20.61 31.59, 47.8 1.8 M3.84 52.37 C17.56 37.9, 29 23.87, 47.8 1.8 M5.55 56.5 C23.68 38.36, 38.51 18.84, 53.44 1.41 M5.55 56.5 C20.35 38.42, 34.66 22.76, 53.44 1.41 M9.22 58.37 C28.28 34.32, 47.89 15.74, 58.43 1.77 M9.22 58.37 C25.39 40.4, 41.58 23.19, 58.43 1.77 M14.87 57.97 C34.52 36.06, 51.86 16.41, 63.42 2.13 M14.87 57.97 C29.42 40.27, 43.56 24.48, 63.42 2.13 M19.85 58.33 C37.95 38.61, 58.41 14.63, 69.06 1.73 M19.85 58.33 C36.3 38.85, 52.42 21.29, 69.06 1.73 M25.5 57.94 C35.68 45.71, 48.08 30.55, 74.05 2.09 M25.5 57.94 C43.23 37.12, 63.13 15.97, 74.05 2.09 M30.48 58.3 C47.51 42.6, 63.19 21.75, 79.69 1.7 M30.48 58.3 C45.84 39.61, 61.31 23.24, 79.69 1.7 M35.47 58.66 C48.93 39.54, 64.85 24.02, 84.68 2.06 M35.47 58.66 C53.04 39.03, 69.85 18.36, 84.68 2.06 M41.11 58.27 C57.47 41.74, 73.07 23.24, 90.32 1.66 M41.11 58.27 C59.37 38.48, 77.17 17.71, 90.32 1.66 M46.1 58.63 C63.43 38.93, 82.83 18.56, 95.31 2.02 M46.1 58.63 C65.43 37.22, 85.64 13.49, 95.31 2.02 M51.74 58.23 C65.87 43.94, 79.37 28.01, 100.95 1.63 M51.74 58.23 C68.76 37.34, 85.59 18.93, 100.95 1.63 M56.73 58.59 C72.5 42.08, 83.27 26.79, 105.94 1.99 M56.73 58.59 C72.89 40.21, 87.83 23.53, 105.94 1.99 M62.37 58.2 C77.33 40.45, 89.47 25.85, 110.92 2.35 M62.37 58.2 C74.33 44.95, 85.32 30.61, 110.92 2.35 M67.36 58.56 C83.68 42.51, 98.61 25.65, 116.57 1.95 M67.36 58.56 C79.22 42.8, 94.04 29.51, 116.57 1.95 M73 58.16 C86.59 44.5, 96.43 30.09, 121.55 2.31 M73 58.16 C92.59 34.75, 111.3 12.23, 121.55 2.31 M77.99 58.52 C96.3 38.36, 113.52 17.82, 127.2 1.92 M77.99 58.52 C89.92 45.32, 100.12 32.6, 127.2 1.92 M82.98 58.88 C103.86 35.25, 123.78 14.57, 132.18 2.28 M82.98 58.88 C95.73 44.14, 107.96 30.15, 132.18 2.28 M88.62 58.49 C104.88 41.26, 121.27 18.93, 137.83 1.88 M88.62 58.49 C105.89 38.19, 122.71 19.7, 137.83 1.88 M93.61 58.85 C103.99 46.51, 112.9 36.26, 142.81 2.24 M93.61 58.85 C107.46 43.55, 119.43 30.36, 142.81 2.24 M99.25 58.45 C114.8 40.9, 130.13 25.11, 148.46 1.85 M99.25 58.45 C117.03 38.68, 134.13 16.49, 148.46 1.85 M104.24 58.81 C117.42 45.27, 132.11 29.48, 153.44 2.21 M104.24 58.81 C120.33 40.22, 134.98 23.09, 153.44 2.21 M109.88 58.42 C126.59 36.37, 146.47 18.35, 158.43 2.57 M109.88 58.42 C129.35 36.15, 147.82 15.33, 158.43 2.57 M114.87 58.78 C129.25 43.82, 139.79 29.62, 164.07 2.18 M114.87 58.78 C132.54 37.79, 149.19 19.34, 164.07 2.18 M120.51 58.38 C134.27 39.89, 149.61 25.27, 169.06 2.54 M120.51 58.38 C138.2 38.57, 157.85 16.91, 169.06 2.54 M125.5 58.74 C141.91 36.9, 161.02 21.19, 174.7 2.14 M125.5 58.74 C142.65 38.52, 159.91 19.23, 174.7 2.14 M130.49 59.1 C145.57 44.69, 158.78 27.84, 179.69 2.5 M130.49 59.1 C150.56 36.43, 170.74 14.71, 179.69 2.5 M136.13 58.71 C151.77 40.12, 171.92 19.15, 185.33 2.11 M136.13 58.71 C152.7 39.53, 168.41 21.83, 185.33 2.11 M141.12 59.07 C154.71 41.25, 172.37 26.11, 191.63 0.96 M141.12 59.07 C158.79 37.41, 179 13.95, 191.63 0.96 M146.76 58.68 C165.66 36.53, 186.05 12.5, 194.65 3.58 M146.76 58.68 C162.41 39.06, 178.11 20.33, 194.65 3.58 M151.75 59.04 C165.03 46.86, 177.39 32.56, 197.67 6.21 M151.75 59.04 C167.96 38.43, 186.71 19.6, 197.67 6.21 M157.39 58.64 C171.15 42.97, 182.87 29.57, 200.03 9.58 M157.39 58.64 C169.42 46.4, 178.52 34.24, 200.03 9.58 M162.38 59 C169.46 50.29, 181.95 37.83, 201.74 13.72 M162.38 59 C173.6 44.84, 185.74 32.21, 201.74 13.72 M167.36 59.36 C179.47 43.53, 193.86 29.79, 201.48 20.12 M167.36 59.36 C175.13 49.36, 184.16 40.25, 201.48 20.12 M173.01 58.97 C181.68 47.79, 192.89 34.14, 201.22 26.51 M173.01 58.97 C183.39 47.71, 193.69 34.76, 201.22 26.51 M177.99 59.33 C181.85 51.71, 188.03 44.87, 201.61 32.16 M177.99 59.33 C184.45 52.47, 189.27 47.04, 201.61 32.16 M183.64 58.93 C190.6 49.49, 198.99 42.78, 201.35 38.55 M183.64 58.93 C189.23 52.18, 193.63 47.7, 201.35 38.55 M187.31 60.8 C192.68 56.34, 195.01 51.81, 201.09 44.95 M187.31 60.8 C191.54 56.66, 195.06 53.48, 201.09 44.95" stroke="#fab005" stroke-width="0.5" fill="none"/>
    <path d="M14.5 0 M14.5 0 C72.45 -2.11, 130.63 -0.03, 184.5 0 M14.5 0 C59.03 0.56, 102.97 0.58, 184.5 0 M184.5 0 C194.71 -1.95, 198.75 2.98, 199 14.5 M184.5 0 C192.02 -2.11, 200.54 6.54, 199 14.5 M199 14.5 C197.65 21.1, 200.3 26.13, 199 43.5 M199 14.5 C199.08 23.03, 199.22 32.1, 199 43.5 M199 43.5 C198.43 53.73, 194.41 59.45, 184.5 58 M199 43.5 C198.9 52.62, 196.45 57.38, 184.5 58 M184.5 58 C119.14 58.08, 56.05 58.31, 14.5 58 M184.5 58 C132.34 57.63, 81.46 57.49, 14.5 58 M14.5 58 C6.28 56.03, -1.75 53.68, 0 43.5 M14.5 58 C3.09 58.35, -0.45 53.49, 0 43.5 M0 43.5 C1.25 31.89, 0.57 24.36, 0 14.5 M0 43.5 C0.17 34.99, 0.47 28.42, 0 14.5 M0 14.5 C-0.78 3.35, 6.28 0.26, 14.5 0 M0 14.5 C-0.89 3.22, 2.57 1.78, 14.5 0" stroke="#000000" stroke-width="1" fill="none"/>
  </g>
  <g transform="translate(95.51004855527935 184.0875417369457) rotate(0 46.09996795654297 12.5)">
    <text x="46.09996795654297" y="0" font-family="Virgil, Segoe UI Emoji" font-size="20px" fill="#000000" text-anchor="middle" style="white-space: pre;" direction="ltr" dominant-baseline="text-before-edge">&#x41F;&#x440;&#x438;&#x43A;&#x43B;&#x430;&#x434; 1</text>
  </g>
  <g stroke-linecap="round" transform="translate(38.3021497209329 101.04278978714774) rotate(0 101 27.5)">
    <path d="M1.79 5.53 C1.79 5.53, 1.79 5.53, 1.79 5.53 M1.79 5.53 C1.79 5.53, 1.79 5.53, 1.79 5.53 M1.53 11.93 C3.84 10.91, 4.46 7.87, 8.09 4.38 M1.53 11.93 C2.86 9.95, 3.93 8.67, 8.09 4.38 M1.93 17.57 C4.34 15.17, 8.92 8.67, 15.7 1.73 M1.93 17.57 C6.16 11.69, 11.73 7, 15.7 1.73 M1.66 23.97 C4.26 20, 8.35 13.07, 20.69 2.09 M1.66 23.97 C7.2 16.3, 14.2 9.3, 20.69 2.09 M1.4 30.37 C7.98 22.04, 15.8 10.94, 26.33 1.69 M1.4 30.37 C5.69 23.87, 12.19 18.35, 26.33 1.69 M1.8 36.01 C6.45 28.57, 14.94 21.87, 31.32 2.05 M1.8 36.01 C12.43 23.93, 22.29 13.05, 31.32 2.05 M1.54 42.41 C8.22 35.34, 14.53 26.92, 36.96 1.66 M1.54 42.41 C13.23 28.46, 26.46 13.4, 36.96 1.66 M3.24 46.54 C16.23 28.49, 33.08 13.89, 41.95 2.02 M3.24 46.54 C14.81 32.95, 25.17 20.71, 41.95 2.02 M3.64 52.19 C15.19 38.42, 29.16 22.03, 47.59 1.62 M3.64 52.19 C15.46 38.18, 29.27 22.18, 47.59 1.62 M7.31 54.06 C18.83 40.02, 32.49 24.63, 52.58 1.98 M7.31 54.06 C20.59 39.02, 36.14 23.43, 52.58 1.98 M10.33 56.68 C22.81 44.98, 35.01 28.08, 58.22 1.59 M10.33 56.68 C20.61 46.17, 31.03 34.05, 58.22 1.59 M15.97 56.29 C28.63 42.5, 42.58 26.63, 63.21 1.95 M15.97 56.29 C28.83 41.62, 44.34 24.32, 63.21 1.95 M20.96 56.65 C40.32 34.82, 57.58 16.6, 68.2 2.31 M20.96 56.65 C37.95 38.16, 53.67 17.34, 68.2 2.31 M26.6 56.25 C45.73 33.03, 65.88 11.86, 73.84 1.91 M26.6 56.25 C39.71 42.45, 51.08 28.92, 73.84 1.91 M31.59 56.61 C43.52 42.74, 52.48 31.19, 78.83 2.27 M31.59 56.61 C46.76 40.01, 62.73 21.48, 78.83 2.27 M36.58 56.97 C49.25 42.43, 65.12 27.58, 84.47 1.88 M36.58 56.97 C55.02 35.1, 72.85 13.73, 84.47 1.88 M42.22 56.58 C59.17 37.94, 74.29 19.2, 89.46 2.24 M42.22 56.58 C58.12 38.5, 74.8 19.32, 89.46 2.24 M47.21 56.94 C64.59 39.21, 82.01 16.96, 95.1 1.84 M47.21 56.94 C65.55 35.66, 82.17 16.61, 95.1 1.84 M52.85 56.54 C69.16 39.16, 84.64 19.94, 100.09 2.2 M52.85 56.54 C69.08 38.21, 86.71 19.03, 100.09 2.2 M57.84 56.9 C65.59 46.36, 77.94 31.77, 105.73 1.81 M57.84 56.9 C70.4 42.66, 83.43 27.35, 105.73 1.81 M63.48 56.51 C73.51 43.56, 84.59 31.22, 110.72 2.17 M63.48 56.51 C80.82 35.36, 99.77 13.8, 110.72 2.17 M68.47 56.87 C82.22 43.01, 92.24 28.86, 115.7 2.53 M68.47 56.87 C81.89 44.16, 92.7 30.3, 115.7 2.53 M74.11 56.47 C90.08 37.06, 109.49 17.03, 121.35 2.14 M74.11 56.47 C90.67 36.07, 109.09 17.53, 121.35 2.14 M79.1 56.83 C93.83 39.99, 106.12 24.29, 126.33 2.5 M79.1 56.83 C90.98 42.41, 105.58 26.49, 126.33 2.5 M84.09 57.19 C103.2 37.64, 119.45 15.53, 131.98 2.1 M84.09 57.19 C96.71 42.66, 111.02 27.47, 131.98 2.1 M89.73 56.8 C102.53 40, 116.62 28.01, 136.96 2.46 M89.73 56.8 C106.96 37.96, 122.22 18.5, 136.96 2.46 M94.72 57.16 C107.12 42.68, 120.15 26.67, 142.61 2.07 M94.72 57.16 C105.86 44.97, 117.27 31.02, 142.61 2.07 M100.36 56.77 C118.75 37.91, 135.39 18.14, 147.6 2.43 M100.36 56.77 C115.81 37.01, 132.2 19.29, 147.6 2.43 M105.35 57.13 C115.7 47.17, 125.6 33.86, 153.24 2.03 M105.35 57.13 C114.71 45.76, 126.72 34.04, 153.24 2.03 M110.99 56.73 C124.74 43.75, 138.98 26.18, 158.23 2.39 M110.99 56.73 C126.3 39.49, 142.01 21.35, 158.23 2.39 M115.98 57.09 C124.84 45.99, 136.99 32.11, 163.21 2.75 M115.98 57.09 C129.41 41.74, 144.53 24.68, 163.21 2.75 M121.62 56.7 C139.62 37.22, 157.87 15.73, 168.86 2.36 M121.62 56.7 C134.06 43.27, 145.56 30.09, 168.86 2.36 M126.61 57.06 C144.21 41.08, 159.97 20.9, 173.84 2.72 M126.61 57.06 C137 45.3, 148.59 31.42, 173.84 2.72 M131.59 57.42 C148.46 38.44, 164.29 19.67, 179.49 2.32 M131.59 57.42 C144.84 43.52, 157.21 27.78, 179.49 2.32 M137.24 57.02 C153.33 39.91, 165.83 23.67, 184.47 2.68 M137.24 57.02 C150.48 41.82, 164.3 26.42, 184.47 2.68 M142.22 57.38 C157.44 43.49, 170.53 28.93, 190.12 2.29 M142.22 57.38 C160.96 35.51, 179.98 16.29, 190.12 2.29 M147.87 56.99 C167.71 34.02, 184.92 16.71, 195.76 1.89 M147.87 56.99 C165.69 35.44, 183.78 15.24, 195.76 1.89 M152.85 57.35 C167.3 42.77, 179.78 28.79, 199.43 3.76 M152.85 57.35 C165.81 44.33, 177.63 29.83, 199.43 3.76 M158.5 56.95 C174.25 39.33, 190.9 16.78, 201.14 7.9 M158.5 56.95 C172.78 39.58, 188.38 20.61, 201.14 7.9 M163.48 57.31 C174.36 45.89, 181.31 38.55, 202.85 12.03 M163.48 57.31 C178.14 41.44, 193.64 23.26, 202.85 12.03 M169.13 56.92 C178.91 46.69, 188.96 33.1, 203.24 17.67 M169.13 56.92 C181.4 43.47, 192.54 31.26, 203.24 17.67 M174.11 57.28 C184.3 44.02, 195.64 34.9, 202.98 24.07 M174.11 57.28 C180.94 48.8, 188.27 39.1, 202.98 24.07 M179.1 57.64 C187.34 45.58, 195.77 36.43, 202.72 30.47 M179.1 57.64 C186.86 49.17, 194.89 40.74, 202.72 30.47 M184.74 57.24 C192.04 50.59, 195.46 44.89, 202.46 36.87 M184.74 57.24 C188.89 52.73, 193.86 47.07, 202.46 36.87 M190.39 56.85 C193.26 53.3, 196.16 48.15, 202.85 42.51 M190.39 56.85 C193.11 54.92, 195.71 50.43, 202.85 42.51" stroke="#228be6" stroke-width="0.5" fill="none"/>
    <path d="M13.75 0 M13.75 0 C68.9 1.85, 123.94 1.48, 188.25 0 M13.75 0 C50.73 0.71, 88.35 0.63, 188.25 0 M188.25 0 C197.17 -1.86, 200.13 2.75, 202 13.75 M188.25 0 C198.96 1.7, 200.15 6.38, 202 13.75 M202 13.75 C202.86 18.45, 201.73 23.64, 202 41.25 M202 13.75 C202.56 24.19, 201.8 34.18, 202 41.25 M202 41.25 C202.24 51.86, 197.33 54.53, 188.25 55 M202 41.25 C204.28 49.79, 199.16 53.63, 188.25 55 M188.25 55 C137.93 55.88, 89.15 54.56, 13.75 55 M188.25 55 C148.73 57.04, 108.13 55.41, 13.75 55 M13.75 55 C2.83 55.51, -1.52 50.72, 0 41.25 M13.75 55 C4.13 55.32, 0.94 51.63, 0 41.25 M0 41.25 C0.53 34.19, -0.74 24.28, 0 13.75 M0 41.25 C0.25 31.63, -0.37 19.84, 0 13.75 M0 13.75 C1.44 4.85, 3.81 -1.41, 13.75 0 M0 13.75 C-2.27 6.36, 5.98 1.96, 13.75 0" stroke="#000000" stroke-width="1" fill="none"/>
  </g>
  <g transform="translate(63.35219091966337 111.04278978714774) rotate(0 75.94995880126953 17.5)">
    <text x="75.94995880126953" y="0" font-family="Virgil, Segoe UI Emoji" font-size="28px" fill="#000000" text-anchor="middle" style="white-space: pre;" direction="ltr" dominant-baseline="text-before-edge">Instruction</text>
  </g>
  <g stroke-linecap="round" transform="translate(41.915336342101 235.20861746470337) rotate(0 99.5 29)">
    <path d="M2 5.71 C2 5.71, 2 5.71, 2 5.71 M2 5.71 C2 5.71, 2 5.71, 2 5.71 M1.74 12.11 C3.23 9.52, 4.27 7.21, 8.3 4.56 M1.74 12.11 C3.6 9.48, 5.99 6.69, 8.3 4.56 M1.47 18.51 C6.45 11.84, 12.77 7.53, 16.56 1.15 M1.47 18.51 C4.44 15.89, 7.02 12.39, 16.56 1.15 M1.87 24.15 C5.52 17.02, 12.73 11.33, 21.55 1.51 M1.87 24.15 C6.86 18.25, 12.09 13.64, 21.55 1.51 M1.61 30.55 C5.52 23.31, 11.24 19.06, 26.54 1.87 M1.61 30.55 C11.17 20.65, 18.44 10.75, 26.54 1.87 M1.35 36.95 C13.71 24.34, 26.63 9.15, 32.18 1.47 M1.35 36.95 C8.62 28.98, 14.99 20.92, 32.18 1.47 M1.74 42.59 C14.39 27.96, 31.21 10.71, 37.17 1.83 M1.74 42.59 C10.29 32.65, 19.76 21.83, 37.17 1.83 M2.14 48.23 C19.92 30.01, 33.67 13.39, 42.81 1.44 M2.14 48.23 C14.88 33.28, 29.37 15.88, 42.81 1.44 M3.84 52.37 C15.85 37.42, 27.71 26.4, 47.8 1.8 M3.84 52.37 C18.33 35.65, 31.34 21.04, 47.8 1.8 M5.55 56.5 C22.75 36.89, 39.44 17.52, 53.44 1.41 M5.55 56.5 C16.82 45.77, 25.34 33.48, 53.44 1.41 M9.22 58.37 C19.53 45.33, 27.21 35, 58.43 1.77 M9.22 58.37 C23.64 42.24, 36.36 26.8, 58.43 1.77 M14.87 57.97 C28.65 43.04, 41.8 26.25, 63.42 2.13 M14.87 57.97 C28.25 43.09, 40.36 29.4, 63.42 2.13 M19.85 58.33 C39.63 37.67, 59.67 14.85, 69.06 1.73 M19.85 58.33 C31.32 42.98, 45.45 28.73, 69.06 1.73 M25.5 57.94 C43.89 37.73, 58.28 17.68, 74.05 2.09 M25.5 57.94 C39.9 41.23, 53.63 25.09, 74.05 2.09 M30.48 58.3 C49.21 36.01, 68.37 14.26, 79.69 1.7 M30.48 58.3 C42.13 44.92, 53.09 31.03, 79.69 1.7 M35.47 58.66 C47.84 47.19, 59.58 34.83, 84.68 2.06 M35.47 58.66 C52.2 38.56, 69.48 20.28, 84.68 2.06 M41.11 58.27 C58.56 37.8, 74.71 20.05, 90.32 1.66 M41.11 58.27 C61.19 35.51, 80.36 12.96, 90.32 1.66 M46.1 58.63 C65.28 36.08, 82.4 16.95, 95.31 2.02 M46.1 58.63 C65.13 36.76, 85.34 14.22, 95.31 2.02 M51.74 58.23 C70.34 36.88, 88.33 16.09, 100.95 1.63 M51.74 58.23 C63.18 46.11, 73.37 33.45, 100.95 1.63 M56.73 58.59 C71.59 40.34, 84.78 26.45, 105.94 1.99 M56.73 58.59 C67.56 45.83, 77.87 34.02, 105.94 1.99 M62.37 58.2 C71.32 47.14, 83.9 36.01, 110.92 2.35 M62.37 58.2 C81.37 36.27, 99.6 16.08, 110.92 2.35 M67.36 58.56 C82.43 40.45, 98.49 19.07, 116.57 1.95 M67.36 58.56 C76.45 47.45, 87.55 36.05, 116.57 1.95 M73 58.16 C91.21 39.3, 106.58 21.28, 121.55 2.31 M73 58.16 C84.79 46.44, 95.14 34.08, 121.55 2.31 M77.99 58.52 C91.22 42.02, 106.78 25.77, 127.2 1.92 M77.99 58.52 C93.49 41.39, 107.41 26.32, 127.2 1.92 M82.98 58.88 C94.97 43.54, 108.39 28.31, 132.18 2.28 M82.98 58.88 C98.04 42.84, 111.71 25.67, 132.18 2.28 M88.62 58.49 C108.72 38.36, 128.19 16.37, 137.83 1.88 M88.62 58.49 C99.23 44.94, 111.9 31.03, 137.83 1.88 M93.61 58.85 C105.63 43.83, 117.9 31.54, 142.81 2.24 M93.61 58.85 C104.05 46.43, 115.21 34.75, 142.81 2.24 M99.25 58.45 C113.76 42.94, 127.09 26.94, 148.46 1.85 M99.25 58.45 C118.39 36.85, 136.71 14.75, 148.46 1.85 M104.24 58.81 C123.69 36.14, 140.76 14.83, 153.44 2.21 M104.24 58.81 C116.06 46.96, 125.64 33.77, 153.44 2.21 M109.88 58.42 C123.01 43.74, 133.3 32.06, 158.43 2.57 M109.88 58.42 C122.88 43.6, 135.54 28.62, 158.43 2.57 M114.87 58.78 C130.18 40.96, 143.14 26.1, 164.07 2.18 M114.87 58.78 C125.33 46.92, 136.07 35.19, 164.07 2.18 M120.51 58.38 C132.11 45.01, 139.71 32.84, 169.06 2.54 M120.51 58.38 C139.53 36.87, 158.24 14.77, 169.06 2.54 M125.5 58.74 C136.16 47.1, 143.52 34.59, 174.7 2.14 M125.5 58.74 C139.35 42.23, 153.61 27.72, 174.7 2.14 M130.49 59.1 C148.86 38.22, 163.08 20.49, 179.69 2.5 M130.49 59.1 C143.6 43.07, 156.2 28.03, 179.69 2.5 M136.13 58.71 C152.48 38.78, 168.03 21.55, 185.33 2.11 M136.13 58.71 C147.39 46.14, 158.37 32.46, 185.33 2.11 M141.12 59.07 C155.21 45.57, 168.2 26.91, 191.63 0.96 M141.12 59.07 C161.1 38.45, 179.98 15.75, 191.63 0.96 M146.76 58.68 C161.73 43.88, 177.35 25.33, 194.65 3.58 M146.76 58.68 C157.36 46.4, 168.41 34.86, 194.65 3.58 M151.75 59.04 C169.5 41.03, 183.75 18.75, 197.67 6.21 M151.75 59.04 C162.22 46.59, 173.64 34.72, 197.67 6.21 M157.39 58.64 C169.16 42.23, 183.9 31.2, 200.03 9.58 M157.39 58.64 C171.69 41.07, 186.31 23.69, 200.03 9.58 M162.38 59 C176 44.56, 191.37 26.43, 201.74 13.72 M162.38 59 C174.12 45.59, 183.95 33.07, 201.74 13.72 M167.36 59.36 C176.16 47.74, 188.07 35.8, 201.48 20.12 M167.36 59.36 C175.52 50.76, 183.36 40.7, 201.48 20.12 M173.01 58.97 C183.56 49.28, 190.08 38.05, 201.22 26.51 M173.01 58.97 C183.59 45.24, 196.2 32.48, 201.22 26.51 M177.99 59.33 C182.27 52.33, 189.76 48.62, 201.61 32.16 M177.99 59.33 C184.34 53.28, 189.21 46.47, 201.61 32.16 M183.64 58.93 C187.19 54.53, 190.42 50.85, 201.35 38.55 M183.64 58.93 C187.48 54.73, 191.01 50.68, 201.35 38.55 M187.31 60.8 C190.87 54.68, 193.76 52.02, 201.09 44.95 M187.31 60.8 C191.74 55.29, 195.54 51.21, 201.09 44.95" stroke="#fab005" stroke-width="0.5" fill="none"/>
    <path d="M14.5 0 M14.5 0 C49.41 -0.32, 84.15 0.18, 184.5 0 M14.5 0 C50.14 0.55, 85.11 0.59, 184.5 0 M184.5 0 C192.3 -1.83, 200.34 6.31, 199 14.5 M184.5 0 C192.31 1.79, 196.95 3.02, 199 14.5 M199 14.5 C199.1 21.83, 200.48 33.23, 199 43.5 M199 14.5 C198.85 23.21, 199.26 32.08, 199 43.5 M199 43.5 C198.92 52.69, 196.15 57.46, 184.5 58 M199 43.5 C200.74 51.79, 193.81 56.28, 184.5 58 M184.5 58 C130.67 57.75, 75.24 58.1, 14.5 58 M184.5 58 C120.68 58.12, 54.53 59.36, 14.5 58 M14.5 58 C3.32 58.3, -0.39 53.45, 0 43.5 M14.5 58 C5.77 59.21, -0.47 54.78, 0 43.5 M0 43.5 C-0.66 35.7, 1.41 30.98, 0 14.5 M0 43.5 C-0.46 35.83, 0.65 29.78, 0 14.5 M0 14.5 C-0.77 3.43, 2.86 1.55, 14.5 0 M0 14.5 C1.4 6.79, 5.57 -1.58, 14.5 0" stroke="#000000" stroke-width="1" fill="none"/>
  </g>
  <g transform="translate(90.90537235284319 251.70861746470337) rotate(0 50.50996398925781 12.5)">
    <text x="50.50996398925781" y="0" font-family="Virgil, Segoe UI Emoji" font-size="20px" fill="#000000" text-anchor="middle" style="white-space: pre;" direction="ltr" dominant-baseline="text-before-edge">&#x41F;&#x440;&#x438;&#x43A;&#x43B;&#x430;&#x434; 2</text>
  </g>
  <g stroke-linecap="round" transform="translate(44.70194617207835 303.0415553017019) rotate(0 99.5 29)">
    <path d="M2 5.71 C2 5.71, 2 5.71, 2 5.71 M2 5.71 C2 5.71, 2 5.71, 2 5.71 M1.74 12.11 C3.28 8.51, 7.07 6.31, 8.3 4.56 M1.74 12.11 C3.02 10.11, 4.86 8.46, 8.3 4.56 M1.47 18.51 C8.56 12.45, 11.09 3.78, 16.56 1.15 M1.47 18.51 C4.97 14.48, 9.53 7.95, 16.56 1.15 M1.87 24.15 C9.32 15.48, 14.43 7.18, 21.55 1.51 M1.87 24.15 C6.93 19.35, 10.61 12.58, 21.55 1.51 M1.61 30.55 C8.73 22.22, 20.26 9.31, 26.54 1.87 M1.61 30.55 C7.06 23.29, 15.14 14.84, 26.54 1.87 M1.35 36.95 C12.13 25.31, 19.86 14.86, 32.18 1.47 M1.35 36.95 C8.02 28.81, 17.52 19.11, 32.18 1.47 M1.74 42.59 C17.06 27.23, 28.52 8.75, 37.17 1.83 M1.74 42.59 C14.81 27.44, 27.46 13.52, 37.17 1.83 M2.14 48.23 C10.08 39.45, 19.33 29.45, 42.81 1.44 M2.14 48.23 C13.68 34.13, 24.76 21.26, 42.81 1.44 M3.84 52.37 C18.33 37.22, 33.39 17.84, 47.8 1.8 M3.84 52.37 C19.71 34.39, 36.74 14.67, 47.8 1.8 M5.55 56.5 C21.7 37.8, 35.77 18.16, 53.44 1.41 M5.55 56.5 C21.53 36.62, 37.99 17.2, 53.44 1.41 M9.22 58.37 C26.44 36.59, 47.08 15.21, 58.43 1.77 M9.22 58.37 C27.29 37.26, 45.96 15.03, 58.43 1.77 M14.87 57.97 C32.77 36.57, 50.04 14.05, 63.42 2.13 M14.87 57.97 C34.27 35.98, 53.49 15.07, 63.42 2.13 M19.85 58.33 C33.68 44.38, 44.44 29.26, 69.06 1.73 M19.85 58.33 C39.48 37.04, 57.27 16.7, 69.06 1.73 M25.5 57.94 C35.06 43.84, 47 34.42, 74.05 2.09 M25.5 57.94 C38.85 42.37, 54.67 26.14, 74.05 2.09 M30.48 58.3 C42.29 44.63, 51.72 31.44, 79.69 1.7 M30.48 58.3 C48.81 35.98, 66.8 14.89, 79.69 1.7 M35.47 58.66 C53.24 41.19, 68.85 21.76, 84.68 2.06 M35.47 58.66 C47.87 45.6, 60.08 32, 84.68 2.06 M41.11 58.27 C54.86 43.25, 69.33 27.78, 90.32 1.66 M41.11 58.27 C59.49 36.9, 77.97 16.56, 90.32 1.66 M46.1 58.63 C65.17 37.27, 84.12 18.28, 95.31 2.02 M46.1 58.63 C58.05 45.67, 69.9 32.48, 95.31 2.02 M51.74 58.23 C69.23 38.41, 83.22 18.42, 100.95 1.63 M51.74 58.23 C69.01 37.86, 87.85 15.18, 100.95 1.63 M56.73 58.59 C73.47 39.47, 89.89 18.5, 105.94 1.99 M56.73 58.59 C72.12 40.79, 87.7 21.53, 105.94 1.99 M62.37 58.2 C77.74 43.01, 91.05 25.85, 110.92 2.35 M62.37 58.2 C77.35 41.51, 93.34 24.03, 110.92 2.35 M67.36 58.56 C82.87 37.79, 98.02 22.71, 116.57 1.95 M67.36 58.56 C86.69 37.86, 104.87 15.46, 116.57 1.95 M73 58.16 C88.84 41.02, 101.12 22.25, 121.55 2.31 M73 58.16 C82.7 47.01, 92.65 35.38, 121.55 2.31 M77.99 58.52 C91.65 43.65, 105.74 25.2, 127.2 1.92 M77.99 58.52 C94.69 40.38, 110.02 21.59, 127.2 1.92 M82.98 58.88 C100.47 38.34, 118.48 16.74, 132.18 2.28 M82.98 58.88 C100.58 37.76, 119.78 16.87, 132.18 2.28 M88.62 58.49 C100.85 46.74, 109.84 33.56, 137.83 1.88 M88.62 58.49 C105.57 39.39, 122.05 19.63, 137.83 1.88 M93.61 58.85 C108.61 42.48, 124.02 22.46, 142.81 2.24 M93.61 58.85 C112.36 38.44, 129.68 17.93, 142.81 2.24 M99.25 58.45 C116.03 39.83, 133.3 19.72, 148.46 1.85 M99.25 58.45 C108.89 46.17, 121.19 34.61, 148.46 1.85 M104.24 58.81 C121.61 37.33, 140.72 13.04, 153.44 2.21 M104.24 58.81 C119.17 40.04, 134.4 22.94, 153.44 2.21 M109.88 58.42 C128.45 37.87, 145.63 15.69, 158.43 2.57 M109.88 58.42 C127.25 38.19, 145.96 16.18, 158.43 2.57 M114.87 58.78 C130.74 40.26, 144.9 20.21, 164.07 2.18 M114.87 58.78 C133.28 38.17, 149.44 18.33, 164.07 2.18 M120.51 58.38 C133.53 40.03, 151 26.1, 169.06 2.54 M120.51 58.38 C136.07 40.25, 150.12 23.5, 169.06 2.54 M125.5 58.74 C143.46 35.18, 163.97 11.78, 174.7 2.14 M125.5 58.74 C144.74 38.15, 163.72 16.53, 174.7 2.14 M130.49 59.1 C141.94 44.93, 154.73 31.49, 179.69 2.5 M130.49 59.1 C147.17 39.17, 164.55 21.33, 179.69 2.5 M136.13 58.71 C147.86 45.26, 158.78 30.54, 185.33 2.11 M136.13 58.71 C151.1 40.56, 166.09 24.5, 185.33 2.11 M141.12 59.07 C160.16 36.04, 178.08 17.51, 191.63 0.96 M141.12 59.07 C153.22 45.12, 164.35 32.15, 191.63 0.96 M146.76 58.68 C157.82 47.24, 164.41 35.36, 194.65 3.58 M146.76 58.68 C156.46 48.33, 167.02 37.47, 194.65 3.58 M151.75 59.04 C165.43 39.75, 179.75 25.16, 197.67 6.21 M151.75 59.04 C169.04 40.45, 184.47 20.84, 197.67 6.21 M157.39 58.64 C175.12 42.02, 190.93 20.01, 200.03 9.58 M157.39 58.64 C172.63 39.85, 189.63 23.68, 200.03 9.58 M162.38 59 C173.18 47.29, 180.71 37.02, 201.74 13.72 M162.38 59 C176.66 41.52, 191.2 25.03, 201.74 13.72 M167.36 59.36 C181.44 43.78, 192.55 30.69, 201.48 20.12 M167.36 59.36 C175.91 49.09, 184 40.14, 201.48 20.12 M173.01 58.97 C177.73 51.66, 186.33 44.12, 201.22 26.51 M173.01 58.97 C183.34 47.62, 191.24 37.31, 201.22 26.51 M177.99 59.33 C183.45 55.83, 186.59 49.16, 201.61 32.16 M177.99 59.33 C185.26 50.81, 191.81 43.08, 201.61 32.16 M183.64 58.93 C187.71 54.16, 191.63 47.01, 201.35 38.55 M183.64 58.93 C189.77 52.09, 196.71 43.76, 201.35 38.55 M187.31 60.8 C189.65 56.89, 195.81 51.65, 201.09 44.95 M187.31 60.8 C192.91 54.45, 197.31 48.12, 201.09 44.95" stroke="#fab005" stroke-width="0.5" fill="none"/>
    <path d="M14.5 0 M14.5 0 C66.1 0.49, 119.33 -0.29, 184.5 0 M14.5 0 C50.14 0.73, 85.1 0.74, 184.5 0 M184.5 0 C195.51 1.48, 197.39 6.39, 199 14.5 M184.5 0 C192.11 -1.82, 199.27 6.07, 199 14.5 M199 14.5 C200.32 22.26, 198.8 29.66, 199 43.5 M199 14.5 C199.04 24.97, 198.88 33.76, 199 43.5 M199 43.5 C200.98 52.62, 195.68 56.81, 184.5 58 M199 43.5 C198.64 51.45, 194.57 57.18, 184.5 58 M184.5 58 C127.22 56.97, 74.27 59.16, 14.5 58 M184.5 58 C121.59 56.58, 59.68 56.48, 14.5 58 M14.5 58 C4.44 58.28, 0.82 54.22, 0 43.5 M14.5 58 C4.37 59.61, -1.98 54, 0 43.5 M0 43.5 C1.6 33.77, -1.14 24.73, 0 14.5 M0 43.5 C0.83 32.85, -0.27 21.22, 0 14.5 M0 14.5 C-1.97 6.38, 6.05 1.7, 14.5 0 M0 14.5 C0.74 3.26, 6.23 -0.78, 14.5 0" stroke="#000000" stroke-width="1" fill="none"/>
  </g>
  <g transform="translate(94.00197974141429 319.5415553017019) rotate(0 50.19996643066406 12.5)">
    <text x="50.19996643066406" y="0" font-family="Virgil, Segoe UI Emoji" font-size="20px" fill="#000000" text-anchor="middle" style="white-space: pre;" direction="ltr" dominant-baseline="text-before-edge">&#x41F;&#x440;&#x438;&#x43A;&#x43B;&#x430;&#x434; 3</text>
  </g>
  <g stroke-linecap="round" transform="translate(44.99044075199163 370.6183760168001) rotate(0 99.5 29)">
    <path d="M2 5.71 C2 5.71, 2 5.71, 2 5.71 M2 5.71 C2 5.71, 2 5.71, 2 5.71 M1.74 12.11 C4.61 9.41, 7.79 5.56, 8.3 4.56 M1.74 12.11 C3.55 10.16, 4.41 8.95, 8.3 4.56 M1.47 18.51 C7.02 13.03, 10.68 5.49, 16.56 1.15 M1.47 18.51 C5.86 14.21, 11.1 7.49, 16.56 1.15 M1.87 24.15 C6.71 18.74, 8.77 12.74, 21.55 1.51 M1.87 24.15 C9.82 14.98, 15.69 6.85, 21.55 1.51 M1.61 30.55 C7.59 24, 15.94 16.41, 26.54 1.87 M1.61 30.55 C8.84 22.02, 14.68 14.16, 26.54 1.87 M1.35 36.95 C14.02 22.32, 23.72 10.45, 32.18 1.47 M1.35 36.95 C7.81 29.62, 13.57 22.42, 32.18 1.47 M1.74 42.59 C11.65 31.68, 21.63 19.38, 37.17 1.83 M1.74 42.59 C15.6 28.21, 28.21 11.4, 37.17 1.83 M2.14 48.23 C12.57 36.93, 21.8 28.77, 42.81 1.44 M2.14 48.23 C11.64 37.68, 22.28 26.34, 42.81 1.44 M3.84 52.37 C19.7 37.01, 31.3 19.24, 47.8 1.8 M3.84 52.37 C17.78 37.74, 31.54 20.62, 47.8 1.8 M5.55 56.5 C21.56 41.59, 32.39 24.07, 53.44 1.41 M5.55 56.5 C17.78 41.41, 31.81 26.86, 53.44 1.41 M9.22 58.37 C20.78 47.68, 29.19 35.49, 58.43 1.77 M9.22 58.37 C27.34 36.67, 46.39 15.19, 58.43 1.77 M14.87 57.97 C27.78 41.84, 43.06 25.18, 63.42 2.13 M14.87 57.97 C31.07 39.15, 49.1 20.99, 63.42 2.13 M19.85 58.33 C35.78 39.26, 48.28 23.69, 69.06 1.73 M19.85 58.33 C35.16 39.65, 51.7 22.52, 69.06 1.73 M25.5 57.94 C42.52 35.88, 59.3 17.11, 74.05 2.09 M25.5 57.94 C37.74 45.27, 48.02 31.74, 74.05 2.09 M30.48 58.3 C47.98 38.44, 66.19 15.66, 79.69 1.7 M30.48 58.3 C46.82 39.83, 63.71 20.16, 79.69 1.7 M35.47 58.66 C44.84 44.98, 56.11 33.75, 84.68 2.06 M35.47 58.66 C52.06 39.65, 69.87 17.72, 84.68 2.06 M41.11 58.27 C52.04 42.56, 66.74 31.39, 90.32 1.66 M41.11 58.27 C51.76 44.29, 64.02 31.42, 90.32 1.66 M46.1 58.63 C63.89 42.2, 79.76 21.46, 95.31 2.02 M46.1 58.63 C59.53 42.1, 73.79 25.3, 95.31 2.02 M51.74 58.23 C72.61 37.47, 90.65 15.37, 100.95 1.63 M51.74 58.23 C67.18 40.76, 83.41 23.23, 100.95 1.63 M56.73 58.59 C75.45 39.06, 94.6 15.95, 105.94 1.99 M56.73 58.59 C75.01 36.87, 95.3 14.06, 105.94 1.99 M62.37 58.2 C72.84 43.51, 84.23 31.01, 110.92 2.35 M62.37 58.2 C73.14 46.63, 82.63 33.6, 110.92 2.35 M67.36 58.56 C80.82 42.91, 95.01 26.47, 116.57 1.95 M67.36 58.56 C86.01 35.69, 105.25 13.29, 116.57 1.95 M73 58.16 C93.28 35.64, 110.14 13.21, 121.55 2.31 M73 58.16 C87.32 40.17, 101.71 24.69, 121.55 2.31 M77.99 58.52 C90.55 42.2, 102.3 27.22, 127.2 1.92 M77.99 58.52 C91.13 42.83, 104.69 25.98, 127.2 1.92 M82.98 58.88 C101.19 37.61, 117.11 17.88, 132.18 2.28 M82.98 58.88 C98.33 39.9, 114.81 22.22, 132.18 2.28 M88.62 58.49 C107.47 37.37, 127.13 12.44, 137.83 1.88 M88.62 58.49 C105.81 38.98, 121.52 21.04, 137.83 1.88 M93.61 58.85 C105.54 47.02, 115.72 35.05, 142.81 2.24 M93.61 58.85 C107.43 42.83, 121.72 25.42, 142.81 2.24 M99.25 58.45 C113.97 39.27, 130.06 23.92, 148.46 1.85 M99.25 58.45 C112.06 43.67, 125.98 28.62, 148.46 1.85 M104.24 58.81 C121.2 38.7, 139.48 19.99, 153.44 2.21 M104.24 58.81 C116.47 44.93, 128.24 31.06, 153.44 2.21 M109.88 58.42 C121.63 45.6, 133.12 29.29, 158.43 2.57 M109.88 58.42 C127.72 36.88, 145.75 17.78, 158.43 2.57 M114.87 58.78 C129.49 43.21, 144.24 26.59, 164.07 2.18 M114.87 58.78 C126.48 42.98, 140.9 28.54, 164.07 2.18 M120.51 58.38 C129.69 44.59, 142.65 35.92, 169.06 2.54 M120.51 58.38 C137.07 39.48, 153.45 20.05, 169.06 2.54 M125.5 58.74 C141.29 37.52, 159.28 21.46, 174.7 2.14 M125.5 58.74 C137.93 44.53, 148.63 32.69, 174.7 2.14 M130.49 59.1 C140.17 43.3, 154.31 31.23, 179.69 2.5 M130.49 59.1 C142.94 45.21, 153.72 31.91, 179.69 2.5 M136.13 58.71 C150.94 44.09, 165.15 24.62, 185.33 2.11 M136.13 58.71 C151.85 41.14, 168.52 20.63, 185.33 2.11 M141.12 59.07 C154.75 43.1, 173.59 23.21, 191.63 0.96 M141.12 59.07 C157.17 40.1, 171.35 23.3, 191.63 0.96 M146.76 58.68 C162.76 39.97, 176.14 24.12, 194.65 3.58 M146.76 58.68 C162.23 41.98, 177.27 23.53, 194.65 3.58 M151.75 59.04 C160.75 49.72, 170.88 38.42, 197.67 6.21 M151.75 59.04 C170.52 38.68, 188.49 17.96, 197.67 6.21 M157.39 58.64 C169.7 45.5, 180.68 32.15, 200.03 9.58 M157.39 58.64 C167.16 47.05, 175.49 35.48, 200.03 9.58 M162.38 59 C176.25 45.68, 184.75 30.5, 201.74 13.72 M162.38 59 C174.11 43.85, 187.1 31.64, 201.74 13.72 M167.36 59.36 C177.94 49.24, 183.77 40.19, 201.48 20.12 M167.36 59.36 C177.58 47.06, 188.3 36.36, 201.48 20.12 M173.01 58.97 C184.64 46.31, 194.7 34.74, 201.22 26.51 M173.01 58.97 C179.97 49.77, 187.48 41.86, 201.22 26.51 M177.99 59.33 C188.65 47.14, 195.01 37.44, 201.61 32.16 M177.99 59.33 C182.89 53.95, 188.09 47.62, 201.61 32.16 M183.64 58.93 C189.94 50.93, 198.21 43.15, 201.35 38.55 M183.64 58.93 C188.96 52.73, 193.07 47.01, 201.35 38.55 M187.31 60.8 C193.57 52.82, 200.23 46.78, 201.09 44.95 M187.31 60.8 C191.82 55.61, 195.37 50.91, 201.09 44.95" stroke="#fd7e14" stroke-width="0.5" fill="none"/>
    <path d="M14.5 0 M14.5 0 C62.66 -2.23, 106.46 -2.1, 184.5 0 M14.5 0 C66.57 1.27, 117.36 0.69, 184.5 0 M184.5 0 C194.66 -1.91, 197.05 6.18, 199 14.5 M184.5 0 C192.37 0.61, 201.15 6.92, 199 14.5 M199 14.5 C199.72 21.5, 198.09 30.34, 199 43.5 M199 14.5 C198.55 23.84, 198.67 33.55, 199 43.5 M199 43.5 C200.03 54.51, 192.99 57.15, 184.5 58 M199 43.5 C199.29 51.16, 196.05 59.25, 184.5 58 M184.5 58 C144.44 56.78, 106.92 54.99, 14.5 58 M184.5 58 C138.44 56.57, 91.32 56.61, 14.5 58 M14.5 58 C5.88 56.27, -0.52 51.25, 0 43.5 M14.5 58 C2.69 57.49, 0.43 54.83, 0 43.5 M0 43.5 C-1.7 34.6, -0.81 28.48, 0 14.5 M0 43.5 C-0.86 36.12, 0.67 28.21, 0 14.5 M0 14.5 C1.73 2.86, 3.22 1.71, 14.5 0 M0 14.5 C2.23 6.11, 4.54 1.54, 14.5 0" stroke="#000000" stroke-width="1" fill="none"/>
  </g>
  <g transform="translate(105.45047798343694 387.1183760168001) rotate(0 39.03996276855469 12.5)">
    <text x="39.03996276855469" y="0" font-family="Virgil, Segoe UI Emoji" font-size="20px" fill="#000000" text-anchor="middle" style="white-space: pre;" direction="ltr" dominant-baseline="text-before-edge">&#x41A;&#x43E;&#x43D;&#x442;&#x435;&#x43A;&#x441;&#x442;</text>
  </g>
  <g stroke-linecap="round" transform="translate(44.802013096500104 434.28550729102835) rotate(0 99.5 29)">
    <path d="M2 5.71 C2 5.71, 2 5.71, 2 5.71 M2 5.71 C2 5.71, 2 5.71, 2 5.71 M1.74 12.11 C2.66 9.69, 4.6 8.32, 8.3 4.56 M1.74 12.11 C3.74 9.93, 6.16 6.43, 8.3 4.56 M1.47 18.51 C3.99 12.6, 10.21 11.19, 16.56 1.15 M1.47 18.51 C4.12 14.23, 8.1 10.88, 16.56 1.15 M1.87 24.15 C9.85 18.4, 16.24 8.57, 21.55 1.51 M1.87 24.15 C6.99 17.46, 12.9 10.26, 21.55 1.51 M1.61 30.55 C13.11 20.48, 21.96 8.94, 26.54 1.87 M1.61 30.55 C9.36 21.49, 18.07 12.6, 26.54 1.87 M1.35 36.95 C13.26 25.32, 25.45 10.23, 32.18 1.47 M1.35 36.95 C12.45 23.38, 25.63 8.75, 32.18 1.47 M1.74 42.59 C9.16 31.38, 17.42 22.47, 37.17 1.83 M1.74 42.59 C9.86 34.23, 16.6 24.37, 37.17 1.83 M2.14 48.23 C13.13 35.32, 24.95 21.62, 42.81 1.44 M2.14 48.23 C17.46 29.29, 33.31 10.8, 42.81 1.44 M3.84 52.37 C22.33 31.91, 37.42 11.52, 47.8 1.8 M3.84 52.37 C16.74 35.98, 29.75 22.08, 47.8 1.8 M5.55 56.5 C17.75 40.58, 29.17 25.98, 53.44 1.41 M5.55 56.5 C18.32 41.23, 31.52 24.8, 53.44 1.41 M9.22 58.37 C27.44 37.1, 43.36 17.37, 58.43 1.77 M9.22 58.37 C24.57 39.38, 41.06 21.7, 58.43 1.77 M14.87 57.97 C33.46 37.16, 52.86 12.53, 63.42 2.13 M14.87 57.97 C31.84 38.71, 47.34 21.02, 63.42 2.13 M19.85 58.33 C31.79 46.51, 41.97 34.53, 69.06 1.73 M19.85 58.33 C33.67 42.31, 47.96 24.91, 69.06 1.73 M25.5 57.94 C40.02 38.99, 55.91 23.87, 74.05 2.09 M25.5 57.94 C38.13 43.35, 51.88 28.5, 74.05 2.09 M30.48 58.3 C47.44 38.18, 65.72 19.48, 79.69 1.7 M30.48 58.3 C42.71 44.42, 54.48 30.54, 79.69 1.7 M35.47 58.66 C47.38 45.65, 59.04 29.16, 84.68 2.06 M35.47 58.66 C53.54 36.84, 71.81 17.46, 84.68 2.06 M41.11 58.27 C55.74 42.69, 70.49 26.08, 90.32 1.66 M41.11 58.27 C52.72 42.46, 67.14 28.03, 90.32 1.66 M46.1 58.63 C55.42 44.66, 68.53 35.83, 95.31 2.02 M46.1 58.63 C62.89 39.46, 79.49 19.76, 95.31 2.02 M51.74 58.23 C67.54 37, 85.52 20.95, 100.95 1.63 M51.74 58.23 C64.17 44.01, 74.88 32.17, 100.95 1.63 M56.73 58.59 C66.41 42.78, 80.55 30.72, 105.94 1.99 M56.73 58.59 C69.19 44.7, 79.97 31.39, 105.94 1.99 M62.37 58.2 C76.99 43.8, 91.01 24.55, 110.92 2.35 M62.37 58.2 C77.88 40.88, 94.33 20.62, 110.92 2.35 M67.36 58.56 C80.59 43.03, 99.03 23.59, 116.57 1.95 M67.36 58.56 C83.01 40.07, 96.79 23.73, 116.57 1.95 M73 58.16 C89.21 39.22, 102.8 23.14, 121.55 2.31 M73 58.16 C88.67 41.23, 103.92 22.54, 121.55 2.31 M77.99 58.52 C87.67 48.41, 98.47 36.35, 127.2 1.92 M77.99 58.52 C98.07 36.72, 117.31 14.55, 127.2 1.92 M82.98 58.88 C97.11 43.68, 109.93 28.21, 132.18 2.28 M82.98 58.88 C94.18 45.53, 104 32.26, 132.18 2.28 M88.62 58.49 C105.54 41.7, 117.02 23.1, 137.83 1.88 M88.62 58.49 C103.4 39.79, 119.46 24.05, 137.83 1.88 M93.61 58.85 C108.16 44.3, 117.83 30.83, 142.81 2.24 M93.61 58.85 C108.27 41.54, 123.38 25.8, 142.81 2.24 M99.25 58.45 C118.98 36.3, 137.19 15.35, 148.46 1.85 M99.25 58.45 C111.88 42.73, 125.07 28.28, 148.46 1.85 M104.24 58.81 C124.45 35.23, 140.57 14.31, 153.44 2.21 M104.24 58.81 C114.86 46.89, 125.8 33.96, 153.44 2.21 M109.88 58.42 C127.91 36.34, 148.16 14.78, 158.43 2.57 M109.88 58.42 C124.01 42.48, 136.82 26.75, 158.43 2.57 M114.87 58.78 C135.47 34.48, 156.17 12.3, 164.07 2.18 M114.87 58.78 C130.92 40.2, 146.12 22.1, 164.07 2.18 M120.51 58.38 C135.74 41.62, 146.4 26.51, 169.06 2.54 M120.51 58.38 C135.32 42.42, 149.3 24.92, 169.06 2.54 M125.5 58.74 C143.37 39.27, 158.53 24.32, 174.7 2.14 M125.5 58.74 C145.96 36.38, 164 13.43, 174.7 2.14 M130.49 59.1 C149.14 38.78, 164.49 19.3, 179.69 2.5 M130.49 59.1 C145.63 39.92, 162.36 21.04, 179.69 2.5 M136.13 58.71 C155.35 36.24, 172.95 15.61, 185.33 2.11 M136.13 58.71 C155.01 36.43, 175.21 15.3, 185.33 2.11 M141.12 59.07 C157.71 37.3, 175.76 14.98, 191.63 0.96 M141.12 59.07 C154.92 42.21, 168.27 25.49, 191.63 0.96 M146.76 58.68 C159.49 42.91, 173.06 26.62, 194.65 3.58 M146.76 58.68 C164.69 37.33, 180.42 19.15, 194.65 3.58 M151.75 59.04 C171.03 36.22, 188.48 15.91, 197.67 6.21 M151.75 59.04 C166.15 42.62, 181.46 24.08, 197.67 6.21 M157.39 58.64 C169.41 43.03, 179.61 30.18, 200.03 9.58 M157.39 58.64 C173.25 40.08, 190.12 22.44, 200.03 9.58 M162.38 59 C178.56 42.09, 191.99 23.32, 201.74 13.72 M162.38 59 C176.33 42.11, 191.58 26.63, 201.74 13.72 M167.36 59.36 C174.6 52.17, 179.32 44.28, 201.48 20.12 M167.36 59.36 C178.93 44.99, 190.41 30.91, 201.48 20.12 M173.01 58.97 C183.08 47.77, 194.17 34.9, 201.22 26.51 M173.01 58.97 C183.05 48.88, 191.64 37.25, 201.22 26.51 M177.99 59.33 C187.95 47.55, 196.58 39.06, 201.61 32.16 M177.99 59.33 C181.78 53.55, 187.03 47.31, 201.61 32.16 M183.64 58.93 C190.25 54.14, 192.69 45.8, 201.35 38.55 M183.64 58.93 C190.16 53.52, 194.6 45.49, 201.35 38.55 M187.31 60.8 C191.16 54.49, 194.57 50.9, 201.09 44.95 M187.31 60.8 C192.7 54.19, 196.51 49.78, 201.09 44.95" stroke="#e64980" stroke-width="0.5" fill="none"/>
    <path d="M14.5 0 M14.5 0 C74.85 2.23, 132.92 0.39, 184.5 0 M14.5 0 C79.44 -0.16, 144.92 1.3, 184.5 0 M184.5 0 C193.16 -0.55, 199.11 3.6, 199 14.5 M184.5 0 C192.23 1.15, 200.2 6.2, 199 14.5 M199 14.5 C197.39 20.79, 198.45 28.58, 199 43.5 M199 14.5 C198.81 27.06, 199.59 36.83, 199 43.5 M199 43.5 C198.05 51.21, 192.95 58.7, 184.5 58 M199 43.5 C198.98 51.75, 193.96 57.86, 184.5 58 M184.5 58 C135.57 58.36, 88.15 59.69, 14.5 58 M184.5 58 C130.57 57.78, 75.43 58.85, 14.5 58 M14.5 58 C6.31 58.07, 0.93 53.55, 0 43.5 M14.5 58 C4.7 57.67, 0.19 51.32, 0 43.5 M0 43.5 C1.72 38.4, 1.01 29.1, 0 14.5 M0 43.5 C-0.14 34.25, -0.11 25.54, 0 14.5 M0 14.5 C-1.8 5.96, 5.1 1.21, 14.5 0 M0 14.5 C-0.2 6.83, 5.22 2.02, 14.5 0" stroke="#000000" stroke-width="1" fill="none"/>
  </g>
  <g transform="translate(102.62205856769151 450.78550729102835) rotate(0 41.679954528808594 12.5)">
    <text x="41.679954528808594" y="0" font-family="Virgil, Segoe UI Emoji" font-size="20px" fill="#000000" text-anchor="middle" style="white-space: pre;" direction="ltr" dominant-baseline="text-before-edge">Question</text>
  </g>
</svg>
