<?xml version="1.0"?>
<svg xmlns="http://www.w3.org/2000/svg" version="1.1" viewBox="0 0 535.0844116210938 202.2002716064453" width="1070.1688232421875" height="404.4005432128906">
  <!-- svg-source:excalidraw -->
  <defs>
    <style class="style-fonts">
      @font-face {
        font-family: "Virgil";
        src: url("https://excalidraw.com/Virgil.woff2");
      }
      @font-face {
        font-family: "Cascadia";
        src: url("https://excalidraw.com/Cascadia.woff2");
      }
    </style>
  </defs>
  <rect x="0" y="0" width="535.0844116210938" height="202.2002716064453" fill="#ffffff"/>
  <g stroke-linecap="round" transform="translate(18.119415283203125 65.67620849609375) rotate(0 96.59158325195312 61.79759216308594)">
    <path d="M4.51 11.87 C4.51 11.87, 4.51 11.87, 4.51 11.87 M4.51 11.87 C4.51 11.87, 4.51 11.87, 4.51 11.87 M0.97 22.05 C4.87 15.82, 7.99 11.98, 14.75 6.2 M0.97 22.05 C5.18 18.1, 8.52 14.03, 14.75 6.2 M2.68 26.18 C6.56 19.02, 13.72 14.45, 24.33 1.27 M2.68 26.18 C10.8 16.3, 18.64 7.93, 24.33 1.27 M3.07 31.82 C12.51 21.23, 18.86 13.94, 29.97 0.88 M3.07 31.82 C12.76 22.21, 22.5 9.82, 29.97 0.88 M2.81 38.22 C12.63 23.69, 26.06 13.68, 33.65 2.75 M2.81 38.22 C9.08 30.2, 15.97 23.1, 33.65 2.75 M3.21 43.86 C12.59 35.64, 19.31 24.23, 39.29 2.35 M3.21 43.86 C10.82 34.59, 18.4 26.85, 39.29 2.35 M2.95 50.26 C12.43 37.89, 21.23 30.51, 44.28 2.71 M2.95 50.26 C16.68 34.86, 28.79 19.94, 44.28 2.71 M2.68 56.66 C12.09 43.76, 22.9 32.21, 49.92 2.32 M2.68 56.66 C20.52 35.65, 38.94 17.08, 49.92 2.32 M3.08 62.3 C22.84 39.19, 40.55 19.24, 54.91 2.68 M3.08 62.3 C22.41 40.18, 42.88 16.44, 54.91 2.68 M2.82 68.7 C17.73 48.5, 33.69 31.57, 60.55 2.29 M2.82 68.7 C18.57 49.8, 35.52 29.39, 60.55 2.29 M3.21 74.34 C17.26 57.08, 31.47 43.69, 65.54 2.65 M3.21 74.34 C17.09 58.3, 31.19 40.3, 65.54 2.65 M2.95 80.74 C19.69 60.19, 37.57 38.08, 71.18 2.25 M2.95 80.74 C24.93 55, 46.7 30.51, 71.18 2.25 M2.69 87.14 C28.9 55.63, 53.94 24.49, 76.17 2.61 M2.69 87.14 C26.25 62.11, 47.24 36.37, 76.17 2.61 M3.08 92.78 C23.6 68.15, 47.66 41.09, 81.81 2.22 M3.08 92.78 C33.59 57.35, 63.6 23.68, 81.81 2.22 M1.51 100.69 C35.43 63.02, 70.23 20.87, 86.8 2.58 M1.51 100.69 C37.28 62.38, 70.35 23.07, 86.8 2.58 M3.22 104.82 C31.51 72.61, 57.34 41.8, 92.44 2.18 M3.22 104.82 C27.99 76.76, 53.77 47.09, 92.44 2.18 M4.27 109.71 C30.96 77.42, 63.29 43.5, 97.43 2.54 M4.27 109.71 C30.66 78.54, 57.04 46.79, 97.43 2.54 M6.63 113.09 C38.63 76.67, 72.34 37.38, 102.42 2.9 M6.63 113.09 C44.15 70.75, 82.03 28.81, 102.42 2.9 M8.99 116.47 C41.31 79.41, 72.84 44.22, 108.06 2.51 M8.99 116.47 C38.88 81.91, 70.42 47.85, 108.06 2.51 M12.01 119.09 C39.25 87.62, 66.07 57.79, 113.05 2.87 M12.01 119.09 C44.94 80.59, 79.99 39.95, 113.05 2.87 M15.03 121.72 C39.82 95.64, 61.35 67.93, 118.69 2.47 M15.03 121.72 C55.05 75.77, 95.95 29.57, 118.69 2.47 M19.36 122.83 C57.58 76.52, 98.29 34.45, 123.68 2.83 M19.36 122.83 C58.67 81.48, 95.93 38.54, 123.68 2.83 M24.35 123.19 C48.54 96.53, 72.9 67.85, 129.32 2.44 M24.35 123.19 C47.45 97.24, 67.8 72.4, 129.32 2.44 M29.34 123.55 C55.92 92.72, 84.93 57.68, 134.31 2.8 M29.34 123.55 C64.79 82.45, 99.2 41.27, 134.31 2.8 M33.01 125.42 C66.78 85.93, 102.61 44.29, 139.95 2.4 M33.01 125.42 C57.84 94.24, 84.76 63.22, 139.95 2.4 M38 125.78 C71.15 88.55, 105.84 46.7, 144.94 2.76 M38 125.78 C72.38 84.49, 109.5 43.15, 144.94 2.76 M43.64 125.39 C79.12 84.13, 117.7 41.96, 150.58 2.37 M43.64 125.39 C78.33 86.46, 113.41 44.13, 150.58 2.37 M48.63 125.75 C73.22 98.06, 99.53 68.23, 155.57 2.73 M48.63 125.75 C80.99 88.62, 112.76 53.88, 155.57 2.73 M54.27 125.35 C83.76 92.42, 113.64 57.25, 162.52 0.83 M54.27 125.35 C85.1 89.39, 117.09 53.8, 162.52 0.83 M59.26 125.71 C94.47 84.14, 129.74 45.08, 167.51 1.19 M59.26 125.71 C94.1 84.72, 129.04 44.65, 167.51 1.19 M64.9 125.32 C102.34 83.74, 139.56 40.2, 172.49 1.55 M64.9 125.32 C95.4 91.23, 124.63 56.34, 172.49 1.55 M69.89 125.68 C109.56 81.17, 148 34.44, 176.83 2.66 M69.89 125.68 C93.48 97.7, 116.87 71.16, 176.83 2.66 M75.53 125.28 C113.7 83.68, 151.39 39, 180.5 4.53 M75.53 125.28 C106.66 89.33, 138.54 54.11, 180.5 4.53 M80.52 125.64 C119.27 81.08, 159.84 35.72, 184.18 6.4 M80.52 125.64 C114.87 87.01, 147.08 47.81, 184.18 6.4 M86.16 125.25 C117.01 87.17, 149.88 50.63, 186.54 9.78 M86.16 125.25 C110.88 98.48, 135.61 70.43, 186.54 9.78 M91.15 125.61 C117.17 96.81, 139.15 67.19, 189.56 12.4 M91.15 125.61 C117.63 95.39, 146.15 64.01, 189.56 12.4 M96.79 125.21 C123.3 96.67, 147.86 68.03, 190.61 17.29 M96.79 125.21 C121.33 99.24, 142.53 74.26, 190.61 17.29 M101.78 125.58 C130.42 95.71, 154.08 62.9, 192.31 21.43 M101.78 125.58 C128.25 95.1, 153.31 65.92, 192.31 21.43 M107.42 125.18 C124.65 103.47, 141.66 85.72, 194.68 24.8 M107.42 125.18 C139.28 89.72, 170.03 53.51, 194.68 24.8 M112.41 125.54 C139.22 94.25, 165.21 66.1, 194.42 31.2 M112.41 125.54 C130.81 105.17, 149.15 83.56, 194.42 31.2 M118.05 125.15 C142.5 96.5, 170.9 64.58, 194.15 37.6 M118.05 125.15 C137.84 101.31, 158.58 78.5, 194.15 37.6 M123.04 125.51 C143.18 99.84, 165.45 75, 194.55 43.24 M123.04 125.51 C147.61 98.57, 172.32 70.41, 194.55 43.24 M128.68 125.11 C150.72 102.04, 170.39 78.45, 194.29 49.64 M128.68 125.11 C153.54 97.85, 177.4 69.1, 194.29 49.64 M133.67 125.47 C148.31 111.22, 158.08 96.03, 194.68 55.28 M133.67 125.47 C156.16 98.64, 178.42 74.92, 194.68 55.28 M139.31 125.08 C158.45 103.02, 175.1 82.32, 194.42 61.68 M139.31 125.08 C154.88 106.69, 171.78 87.8, 194.42 61.68 M144.3 125.44 C160.49 109.25, 174.75 93.65, 194.82 67.32 M144.3 125.44 C155.85 114.46, 166.17 101.05, 194.82 67.32 M149.29 125.8 C157.78 112.94, 168.45 103.79, 194.55 73.72 M149.29 125.8 C165.8 106.86, 182.5 87.42, 194.55 73.72 M154.93 125.4 C170.86 105.92, 184.4 88.37, 194.95 79.37 M154.93 125.4 C163.09 116.44, 171.99 105.92, 194.95 79.37 M159.92 125.76 C168.01 116.3, 175.97 107.86, 194.69 85.76 M159.92 125.76 C174.51 110.57, 187.07 94.79, 194.69 85.76 M164.9 126.12 C172.5 114.64, 182.69 104.16, 193.77 92.92 M164.9 126.12 C174.44 113.54, 185.47 102.45, 193.77 92.92 M171.2 124.97 C178.67 116.83, 186.19 107.83, 192.85 100.07 M171.2 124.97 C176.08 119.06, 181.81 111.93, 192.85 100.07 M181.44 119.3 C184.56 116.7, 186.83 112.4, 189.31 110.24 M181.44 119.3 C184.01 117.04, 185.7 114.93, 189.31 110.24" stroke="#4c6ef5" stroke-width="0.5" fill="none"/>
    <path d="M30.9 0 M30.9 0 C57.48 2.28, 85.72 1, 162.28 0 M30.9 0 C65.71 1.55, 99.86 0.87, 162.28 0 M162.28 0 C182.71 -1.09, 193.92 11.59, 193.18 30.9 M162.28 0 C183.82 -1.21, 191.52 9.76, 193.18 30.9 M193.18 30.9 C195.49 46.35, 195.29 57.55, 193.18 92.7 M193.18 30.9 C194.39 50.82, 193.95 72.21, 193.18 92.7 M193.18 92.7 C191.67 115.05, 183.04 125.33, 162.28 123.6 M193.18 92.7 C192.1 113.29, 182.46 125.16, 162.28 123.6 M162.28 123.6 C126.81 124.59, 89.66 124.09, 30.9 123.6 M162.28 123.6 C117.94 123.28, 74.56 122.53, 30.9 123.6 M30.9 123.6 C8.83 125.07, -1.17 113.6, 0 92.7 M30.9 123.6 C9.75 124.06, 1.55 113.7, 0 92.7 M0 92.7 C-1.07 76.57, 0.4 57.43, 0 30.9 M0 92.7 C0.21 76.03, -0.59 57.19, 0 30.9 M0 30.9 C0.64 10.08, 11.37 -0.52, 30.9 0 M0 30.9 C-1.27 9.83, 9.88 -1.12, 30.9 0" stroke="#000000" stroke-width="1" fill="none"/>
  </g>
  <g transform="translate(26.861053466796875 74.97380065917969) rotate(0 87.84994506835938 52.5)">
    <text x="87.84994506835938" y="0" font-family="Virgil, Segoe UI Emoji" font-size="28px" fill="#000000" text-anchor="middle" style="white-space: pre;" direction="ltr" dominant-baseline="text-before-edge">&#x41D;&#x430;&#x43F;&#x438;&#x448;&#x438; </text>
    <text x="87.84994506835938" y="35" font-family="Virgil, Segoe UI Emoji" font-size="28px" fill="#000000" text-anchor="middle" style="white-space: pre;" direction="ltr" dominant-baseline="text-before-edge">&#x441;&#x43B;&#x43E;&#x432;&#x43E; &#xAB;&#x441;&#x43C;&#x456;&#x448;&#x43D;&#x43E;&#xBB; </text>
    <text x="87.84994506835938" y="70" font-family="Virgil, Segoe UI Emoji" font-size="28px" fill="#000000" text-anchor="middle" style="white-space: pre;" direction="ltr" dominant-baseline="text-before-edge">&#x437;&#x430;&#x434;&#x43E;&#x43C; &#x43D;&#x430;&#x43F;&#x435;&#x440;&#x435;&#x434;</text>
  </g>
  <g stroke-linecap="round">
    <g transform="translate(214.3968200683596 133.29441968391802) rotate(0 56.70371933970591 0.4006355759592566)">
      <path d="M0.22 0.09 C19.31 0.22, 95.35 0.01, 114.53 0.24 M-1.12 -0.9 C17.84 -0.55, 94.38 1.6, 113.75 1.7" stroke="#000000" stroke-width="1" fill="none"/>
    </g>
    <g transform="translate(214.3968200683596 133.29441968391802) rotate(0 56.70371933970591 0.4006355759592566)">
      <path d="M85.54 12 C93.74 10.27, 104.38 5.96, 112.23 3.47 M85.52 11.37 C91.74 8.28, 99.28 5.99, 113.97 0.91" stroke="#000000" stroke-width="1" fill="none"/>
    </g>
    <g transform="translate(214.3968200683596 133.29441968391802) rotate(0 56.70371933970591 0.4006355759592566)">
      <path d="M85.91 -8.52 C93.92 -4.06, 104.45 -2.17, 112.23 3.47 M85.9 -9.15 C92.02 -7.12, 99.47 -4.28, 113.97 0.91" stroke="#000000" stroke-width="1" fill="none"/>
    </g>
  </g>
  <mask/>
  <g stroke-linecap="round" transform="translate(331.9012451171875 68.60508728027344) rotate(0 96.59158325195312 61.79759216308594)">
    <path d="M4.51 11.87 C4.51 11.87, 4.51 11.87, 4.51 11.87 M4.51 11.87 C4.51 11.87, 4.51 11.87, 4.51 11.87 M0.97 22.05 C4.59 16.62, 9.57 11.27, 14.75 6.2 M0.97 22.05 C6.09 15.24, 11.3 10.58, 14.75 6.2 M2.68 26.18 C7.64 20.71, 13.82 14.23, 24.33 1.27 M2.68 26.18 C9.76 18.31, 17.41 10.69, 24.33 1.27 M3.07 31.82 C14.61 21.85, 23.37 8.4, 29.97 0.88 M3.07 31.82 C11.53 21.16, 21.2 10.49, 29.97 0.88 M2.81 38.22 C11.23 28.41, 18.37 20.54, 33.65 2.75 M2.81 38.22 C11.94 26.92, 21.19 16.25, 33.65 2.75 M3.21 43.86 C14.8 27.68, 28.31 13.93, 39.29 2.35 M3.21 43.86 C14.33 31.52, 24.5 20.45, 39.29 2.35 M2.95 50.26 C18.47 34.71, 30.31 19.12, 44.28 2.71 M2.95 50.26 C17.27 33.37, 31.08 17.42, 44.28 2.71 M2.68 56.66 C13.69 45.03, 24.15 31.58, 49.92 2.32 M2.68 56.66 C17.41 41.55, 29.15 25.83, 49.92 2.32 M3.08 62.3 C20.52 46.09, 34.93 27.68, 54.91 2.68 M3.08 62.3 C15.83 46.44, 29.21 32.34, 54.91 2.68 M2.82 68.7 C18 50.67, 35.28 34.76, 60.55 2.29 M2.82 68.7 C15.94 51.68, 30.29 35.96, 60.55 2.29 M3.21 74.34 C22.59 53.22, 37.25 36.18, 65.54 2.65 M3.21 74.34 C16.6 57.34, 32.03 41.68, 65.54 2.65 M2.95 80.74 C17.85 62.64, 34.52 43.84, 71.18 2.25 M2.95 80.74 C23.88 57.28, 45.63 33.37, 71.18 2.25 M2.69 87.14 C24.24 61.82, 48.04 34.18, 76.17 2.61 M2.69 87.14 C31.21 55.34, 58.5 24.04, 76.17 2.61 M3.08 92.78 C20.77 72.22, 40.47 50.02, 81.81 2.22 M3.08 92.78 C31.11 62.15, 57.27 30.64, 81.81 2.22 M1.51 100.69 C23.23 74.61, 46.87 43.53, 86.8 2.58 M1.51 100.69 C34.45 62.47, 67.96 24.01, 86.8 2.58 M3.22 104.82 C33.58 71.01, 63.24 36.45, 92.44 2.18 M3.22 104.82 C29.82 72.61, 57.96 40.54, 92.44 2.18 M4.27 109.71 C23.07 86.14, 43.61 64.5, 97.43 2.54 M4.27 109.71 C28.22 82.61, 53.36 53.44, 97.43 2.54 M6.63 113.09 C29.05 88.33, 50.79 60.71, 102.42 2.9 M6.63 113.09 C34.09 81.39, 60.33 50.6, 102.42 2.9 M8.99 116.47 C42.41 80.12, 71.32 42.73, 108.06 2.51 M8.99 116.47 C30.63 91.75, 50.65 67.79, 108.06 2.51 M12.01 119.09 C41.68 87.89, 69.05 54.62, 113.05 2.87 M12.01 119.09 C31.86 93.67, 53.24 69.85, 113.05 2.87 M15.03 121.72 C51.42 79.54, 92.28 32.2, 118.69 2.47 M15.03 121.72 C49.73 81.9, 84.33 40.87, 118.69 2.47 M19.36 122.83 C45.2 97.74, 64.31 68.65, 123.68 2.83 M19.36 122.83 C59.64 74.59, 99.41 28.85, 123.68 2.83 M24.35 123.19 C57.63 80.71, 91.6 44.01, 129.32 2.44 M24.35 123.19 C59.84 83.18, 94.97 43.16, 129.32 2.44 M29.34 123.55 C49.57 97.98, 74.96 71.9, 134.31 2.8 M29.34 123.55 C66.18 80.72, 105.28 37.64, 134.31 2.8 M33.01 125.42 C64.22 85.46, 100.76 49.71, 139.95 2.4 M33.01 125.42 C57.4 97.48, 83.12 68.39, 139.95 2.4 M38 125.78 C67.83 89.3, 102.1 52.17, 144.94 2.76 M38 125.78 C61.1 98.98, 84.17 71.94, 144.94 2.76 M43.64 125.39 C68.7 97.41, 92.07 67.15, 150.58 2.37 M43.64 125.39 C66.16 97.69, 91.39 69.48, 150.58 2.37 M48.63 125.75 C76.36 93.5, 103.01 61.45, 155.57 2.73 M48.63 125.75 C84.1 86.45, 117.53 47.83, 155.57 2.73 M54.27 125.35 C90.21 82.08, 126.93 39.2, 162.52 0.83 M54.27 125.35 C80.36 95.7, 107.38 66.37, 162.52 0.83 M59.26 125.71 C100.72 78.32, 143.41 30.54, 167.51 1.19 M59.26 125.71 C98.06 82.76, 135.34 38.56, 167.51 1.19 M64.9 125.32 C98.19 86.24, 132.14 48.46, 172.49 1.55 M64.9 125.32 C104.71 80.22, 143.5 32.44, 172.49 1.55 M69.89 125.68 C99.58 88.72, 131.72 56.31, 176.83 2.66 M69.89 125.68 C99.59 92.72, 128.22 58.07, 176.83 2.66 M75.53 125.28 C109.07 83.33, 145.67 43.47, 180.5 4.53 M75.53 125.28 C102.03 95.8, 127.93 65.3, 180.5 4.53 M80.52 125.64 C114.25 86.22, 147.95 48.17, 184.18 6.4 M80.52 125.64 C120.33 79.79, 161.37 33.49, 184.18 6.4 M86.16 125.25 C111.7 96.56, 133.15 69.21, 186.54 9.78 M86.16 125.25 C113.76 91.89, 141.96 59.93, 186.54 9.78 M91.15 125.61 C126.51 83.72, 165.03 41.38, 189.56 12.4 M91.15 125.61 C115.96 95.67, 139.64 66.47, 189.56 12.4 M96.79 125.21 C129.92 84.43, 163.41 45.78, 190.61 17.29 M96.79 125.21 C134.2 84, 169.66 41.73, 190.61 17.29 M101.78 125.58 C135.75 84.55, 172.68 45.26, 192.31 21.43 M101.78 125.58 C135.43 85.85, 168.73 48.24, 192.31 21.43 M107.42 125.18 C131.99 100.41, 152.79 72.56, 194.68 24.8 M107.42 125.18 C132.21 97.03, 156.75 68.69, 194.68 24.8 M112.41 125.54 C140.78 91.72, 166.99 61.9, 194.42 31.2 M112.41 125.54 C135.64 97.64, 160.41 69.62, 194.42 31.2 M118.05 125.15 C134 103.16, 152.52 84.83, 194.15 37.6 M118.05 125.15 C133.97 107.94, 149.19 90.96, 194.15 37.6 M123.04 125.51 C139.17 109.8, 152.54 92.14, 194.55 43.24 M123.04 125.51 C147.24 96.82, 171.48 68.32, 194.55 43.24 M128.68 125.11 C154.54 96.48, 179.6 66.7, 194.29 49.64 M128.68 125.11 C151.18 97.16, 173.94 71.43, 194.29 49.64 M133.67 125.47 C156.73 99.09, 180.78 70.4, 194.68 55.28 M133.67 125.47 C151.67 107.19, 167.32 88.98, 194.68 55.28 M139.31 125.08 C158.92 101.48, 179.96 78.34, 194.42 61.68 M139.31 125.08 C153.33 107.52, 168.45 90.2, 194.42 61.68 M144.3 125.44 C164.1 102.17, 179.21 83.77, 194.82 67.32 M144.3 125.44 C162.57 101.76, 183.16 80.18, 194.82 67.32 M149.29 125.8 C161.23 115.98, 169.76 101.96, 194.55 73.72 M149.29 125.8 C161.54 112.88, 174.36 97.37, 194.55 73.72 M154.93 125.4 C167.38 108.43, 183.4 93.45, 194.95 79.37 M154.93 125.4 C165.45 112.59, 175.58 100.58, 194.95 79.37 M159.92 125.76 C170.73 114.03, 183.55 99.57, 194.69 85.76 M159.92 125.76 C173.79 110.65, 186.41 96.09, 194.69 85.76 M164.9 126.12 C170.74 119.68, 178.4 112.6, 193.77 92.92 M164.9 126.12 C171.65 119.66, 177.84 111.85, 193.77 92.92 M171.2 124.97 C177.64 116.06, 184.78 108.87, 192.85 100.07 M171.2 124.97 C175.82 119.77, 182.57 113.1, 192.85 100.07 M181.44 119.3 C183.8 115.8, 185.98 112.5, 189.31 110.24 M181.44 119.3 C184.66 115.1, 187.84 111.94, 189.31 110.24" stroke="#12b886" stroke-width="0.5" fill="none"/>
    <path d="M30.9 0 M30.9 0 C70.24 -1.75, 107.48 -1.91, 162.28 0 M30.9 0 C80.01 -1.1, 128.11 -0.64, 162.28 0 M162.28 0 C184.17 0.81, 192.13 8.85, 193.18 30.9 M162.28 0 C182.34 -1.8, 195.47 11.2, 193.18 30.9 M193.18 30.9 C192.99 55.42, 194.62 76.86, 193.18 92.7 M193.18 30.9 C192.21 54.46, 193.49 79.61, 193.18 92.7 M193.18 92.7 C194.92 112.36, 182.88 123.23, 162.28 123.6 M193.18 92.7 C194.75 112.76, 182.52 125.48, 162.28 123.6 M162.28 123.6 C116.29 124.39, 69.66 122.85, 30.9 123.6 M162.28 123.6 C127.07 123.18, 93.63 123.33, 30.9 123.6 M30.9 123.6 C10.61 123.11, 0.41 114.64, 0 92.7 M30.9 123.6 C10.7 123.17, -0.64 111.22, 0 92.7 M0 92.7 C-0.85 77.65, 1.52 65.14, 0 30.9 M0 92.7 C-1.04 69.5, -0.62 46.19, 0 30.9 M0 30.9 C-0.52 9.19, 9.89 -0.37, 30.9 0 M0 30.9 C-1.12 8.79, 9.25 1.46, 30.9 0" stroke="#000000" stroke-width="1" fill="none"/>
  </g>
  <g transform="translate(384.266845703125 107.90267944335938) rotate(0 44.225982666015625 22.5)">
    <text x="44.225982666015625" y="0" font-family="Virgil, Segoe UI Emoji" font-size="36px" fill="#000000" text-anchor="middle" style="white-space: pre;" direction="ltr" dominant-baseline="text-before-edge">&#x43E;&#x43D;&#x448;&#x456;&#x43C;&#x441;</text>
  </g>
  <g transform="translate(10 10) rotate(0 108.83990478515625 12.5)">
    <text x="0" y="0" font-family="Virgil, Segoe UI Emoji" font-size="20px" fill="#000000" text-anchor="start" style="white-space: pre;" direction="ltr" dominant-baseline="text-before-edge">&#x406;&#x43D;&#x441;&#x442;&#x440;&#x443;&#x43A;&#x446;&#x456;&#x44F; &#x434;&#x43B;&#x44F; &#x437;&#x430;&#x43F;&#x438;&#x442;&#x456;&#x432;</text>
  </g>
  <g transform="translate(358.34203338623047 11.204986572265625) rotate(0 66.83993530273438 12.5)">
    <text x="0" y="0" font-family="Virgil, Segoe UI Emoji" font-size="20px" fill="#000000" text-anchor="start" style="white-space: pre;" direction="ltr" dominant-baseline="text-before-edge">&#x420;&#x435;&#x437;&#x443;&#x43B;&#x44C;&#x442;&#x430;&#x442; &#x43C;&#x43E;&#x434;&#x435;&#x43B;&#x456;</text>
  </g>
</svg>
