<?xml version="1.0"?>
<svg xmlns="http://www.w3.org/2000/svg" version="1.1" viewBox="0 0 317.39971923828125 439.34655289222974" width="634.7994384765625" height="878.6931057844595">
  <!-- svg-source:excalidraw -->
  <defs>
    <style class="style-fonts">
      @font-face {
        font-family: "Virgil";
        src: url("https://excalidraw.com/Virgil.woff2");
      }
      @font-face {
        font-family: "Cascadia";
        src: url("https://excalidraw.com/Cascadia.woff2");
      }
    </style>
  </defs>
  <rect x="0" y="0" width="317.39971923828125" height="439.34655289222974" fill="#ffffff"/>
  <g stroke-linecap="round" transform="translate(26.617978716209564 50.13058233975357) rotate(0 131.04021765034145 189.60798527623808)">
    <path d="M7.86 8.16 C7.86 8.16, 7.86 8.16, 7.86 8.16 M7.86 8.16 C7.86 8.16, 7.86 8.16, 7.86 8.16 M3.66 19.09 C8.86 13.1, 13.17 8.48, 18.1 2.48 M3.66 19.09 C7.16 15.68, 11.41 10.59, 18.1 2.48 M2.75 26.24 C12.71 16.17, 18.43 8.65, 24.4 1.33 M2.75 26.24 C9.24 19.44, 16.47 11.79, 24.4 1.33 M2.48 32.64 C8.34 24.83, 18.56 14.51, 30.7 0.18 M2.48 32.64 C9.63 23.31, 18.04 15.31, 30.7 0.18 M2.88 38.28 C12.39 30.35, 19.38 17.59, 34.37 2.05 M2.88 38.28 C11.98 26.5, 22.82 15.62, 34.37 2.05 M2.62 44.68 C13.59 33.21, 26.48 20.81, 39.36 2.41 M2.62 44.68 C12.08 34.92, 18.61 25.26, 39.36 2.41 M2.36 51.07 C11.92 39.27, 22.5 28.55, 45 2.02 M2.36 51.07 C12.51 37.91, 23.73 26.51, 45 2.02 M2.75 56.72 C11.83 45.59, 25.56 32.33, 49.99 2.38 M2.75 56.72 C14.74 42.27, 28.51 28.9, 49.99 2.38 M2.49 63.11 C23.74 38.14, 45.19 16.55, 55.63 1.98 M2.49 63.11 C21.34 41.68, 39.67 21.93, 55.63 1.98 M2.88 68.76 C17.79 55.36, 28.44 37.93, 60.62 2.34 M2.88 68.76 C19.85 49.18, 34.34 31.11, 60.62 2.34 M2.62 75.16 C16.56 61.7, 26.62 44.61, 66.26 1.95 M2.62 75.16 C25.24 49.1, 48.46 22.59, 66.26 1.95 M2.36 81.55 C26.81 52.57, 51.68 23.39, 71.25 2.31 M2.36 81.55 C17.49 63.36, 32.82 44.27, 71.25 2.31 M2.76 87.2 C21.43 68.27, 39.18 47.18, 76.89 1.91 M2.76 87.2 C20.48 65.59, 39.72 44.36, 76.89 1.91 M2.49 93.59 C31.13 58.45, 62.48 24.05, 81.88 2.27 M2.49 93.59 C24.72 69.48, 45.9 43.84, 81.88 2.27 M2.23 99.99 C29.25 68.11, 58.59 32.7, 87.52 1.88 M2.23 99.99 C26.28 72.66, 48.2 45.24, 87.52 1.88 M2.63 105.64 C24.91 77.07, 47.27 50.37, 92.51 2.24 M2.63 105.64 C33.26 70.21, 64.99 33.5, 92.51 2.24 M2.37 112.03 C34.65 75.24, 66.97 36.37, 98.15 1.85 M2.37 112.03 C32.38 76.64, 62.41 40.77, 98.15 1.85 M2.76 117.68 C30.02 88.37, 55.32 58.15, 103.14 2.21 M2.76 117.68 C26.83 88.61, 52.26 60.27, 103.14 2.21 M2.5 124.07 C32.01 89.62, 63.9 50.44, 108.78 1.81 M2.5 124.07 C41.19 79.88, 80.21 34.8, 108.78 1.81 M2.24 130.47 C39.74 92.53, 74.65 51.39, 113.77 2.17 M2.24 130.47 C41.46 85.36, 80.59 38.94, 113.77 2.17 M2.63 136.11 C31.5 97.57, 64.68 61.77, 119.41 1.78 M2.63 136.11 C28.65 106.8, 53.81 75.81, 119.41 1.78 M2.37 142.51 C49.46 86.67, 99.34 31.25, 124.4 2.14 M2.37 142.51 C33.75 106.08, 63.46 72.06, 124.4 2.14 M2.77 148.16 C50.01 95.75, 94.27 47.12, 130.04 1.74 M2.77 148.16 C29.57 118.86, 54.45 88.61, 130.04 1.74 M2.5 154.55 C53.14 98.33, 102.59 38.9, 135.03 2.1 M2.5 154.55 C48.57 102.95, 96.38 48.44, 135.03 2.1 M2.24 160.95 C31.58 126.12, 62.34 87.75, 140.67 1.71 M2.24 160.95 C33.88 123.17, 65.72 86.55, 140.67 1.71 M2.64 166.59 C53.94 110.56, 104.58 52.33, 145.66 2.07 M2.64 166.59 C37.78 123.94, 75.69 82.11, 145.66 2.07 M2.38 172.99 C33.88 134.85, 65.2 97.99, 150.65 2.43 M2.38 172.99 C52.6 115.25, 102.23 57.62, 150.65 2.43 M2.11 179.39 C49.12 124.84, 96.48 70.14, 156.29 2.03 M2.11 179.39 C36.28 140.27, 70.42 102.48, 156.29 2.03 M2.51 185.03 C35.94 146.93, 71.13 106.43, 161.28 2.39 M2.51 185.03 C58.74 120.49, 116.55 53.62, 161.28 2.39 M2.25 191.43 C47.59 140.37, 94.45 85.98, 166.92 2 M2.25 191.43 C43.4 143.49, 84.33 95.34, 166.92 2 M2.64 197.07 C40.26 156.42, 75.26 114.11, 171.91 2.36 M2.64 197.07 C48.37 146.34, 93.62 93.64, 171.91 2.36 M2.38 203.47 C71.68 126.62, 140.17 48.24, 177.55 1.96 M2.38 203.47 C40.27 159.88, 79.14 115, 177.55 1.96 M2.12 209.87 C58.99 146.44, 111.62 84.01, 182.54 2.32 M2.12 209.87 C40.06 164.56, 78.62 119.62, 182.54 2.32 M2.51 215.51 C75.62 131.2, 145.22 49.04, 188.18 1.93 M2.51 215.51 C70.15 135.92, 139.81 55.75, 188.18 1.93 M2.25 221.91 C57.2 158.7, 114.75 92.38, 193.17 2.29 M2.25 221.91 C57.68 157.4, 114.24 94.69, 193.17 2.29 M2.65 227.55 C68.97 151.31, 134.11 74.29, 198.81 1.9 M2.65 227.55 C79.19 138.39, 157.93 50.73, 198.81 1.9 M2.39 233.95 C73.19 153.41, 142.78 74.01, 203.8 2.26 M2.39 233.95 C77.1 147.55, 152.86 59.47, 203.8 2.26 M2.12 240.35 C66.44 165.74, 130.62 93.05, 209.44 1.86 M2.12 240.35 C74.18 158.6, 146.05 76.1, 209.44 1.86 M2.52 245.99 C59.46 181.2, 113.38 118.71, 214.43 2.22 M2.52 245.99 C60.52 180.26, 118.19 113.64, 214.43 2.22 M2.26 252.39 C63.96 177.7, 127.6 104.92, 220.07 1.83 M2.26 252.39 C78.99 166.17, 154.15 79.93, 220.07 1.83 M2 258.79 C55.52 199.19, 107.87 137.99, 225.06 2.19 M2 258.79 C88.39 157.43, 176.36 55.32, 225.06 2.19 M2.39 264.43 C68.24 188.14, 135.65 113.88, 231.36 1.04 M2.39 264.43 C63.66 195.18, 125.01 125.15, 231.36 1.04 M2.13 270.83 C73.02 187.21, 147.6 104.01, 236.34 1.4 M2.13 270.83 C61.54 201.66, 121.78 131.35, 236.34 1.4 M2.52 276.47 C53.58 217.85, 104.13 159.71, 240.67 2.51 M2.52 276.47 C64.49 205.24, 126.12 134.86, 240.67 2.51 M2.26 282.87 C74.21 198.78, 144.62 118.22, 245.66 2.87 M2.26 282.87 C99.12 171.69, 195.71 60.57, 245.66 2.87 M2 289.27 C52.26 234.72, 102.37 177.86, 248.68 5.5 M2 289.27 C52.28 230.64, 102.85 171.52, 248.68 5.5 M2.4 294.91 C69.01 218.16, 134.17 143.65, 252.35 7.37 M2.4 294.91 C67.37 220.94, 130.71 146.91, 252.35 7.37 M2.13 301.31 C77.13 214.23, 150.21 128.8, 256.03 9.24 M2.13 301.31 C75.45 215.3, 148.88 131.89, 256.03 9.24 M2.53 306.95 C67.98 229.09, 136.55 151.59, 258.39 12.61 M2.53 306.95 C75.47 222.52, 148.81 138.03, 258.39 12.61 M2.27 313.35 C90.07 210.21, 178.71 108.6, 260.1 16.75 M2.27 313.35 C59.58 248.02, 114.83 183.66, 260.1 16.75 M2.01 319.75 C103.14 202.1, 204.06 84.9, 262.46 20.13 M2.01 319.75 C68.09 244.09, 136.02 165.97, 262.46 20.13 M2.4 325.39 C90.05 223.1, 177.74 122.16, 263.51 25.02 M2.4 325.39 C99.54 210.82, 197.72 98.2, 263.51 25.02 M2.14 331.79 C84.71 237.09, 167.1 144.65, 262.59 32.17 M2.14 331.79 C90.39 227.6, 180.51 124.66, 262.59 32.17 M1.88 338.19 C65.45 264.71, 131.77 189.55, 262.33 38.57 M1.88 338.19 C84.55 246.05, 165.76 152.68, 262.33 38.57 M2.27 343.83 C98.02 235.89, 192.9 125.15, 262.73 44.21 M2.27 343.83 C64.33 273.11, 125.66 203.03, 262.73 44.21 M2.67 349.47 C102.12 235.22, 203.32 119.01, 262.47 50.61 M2.67 349.47 C61.61 279.94, 120.79 211.93, 262.47 50.61 M3.06 355.11 C67.29 281, 130.16 209.1, 262.2 57 M3.06 355.11 C59.44 287.9, 117.31 222.03, 262.2 57 M2.8 361.51 C69.95 282.99, 138.47 202.96, 262.6 62.65 M2.8 361.51 C80.28 273.65, 155.61 186.72, 262.6 62.65 M4.51 365.65 C83.48 275.91, 161.51 186.39, 262.34 69.04 M4.51 365.65 C88 271.41, 169.95 176.76, 262.34 69.04 M6.87 369.02 C87.12 277.17, 165.88 187.08, 262.73 74.69 M6.87 369.02 C89.37 270.85, 173.43 174.98, 262.73 74.69 M9.89 371.65 C75.71 295.72, 144.1 218.6, 262.47 81.09 M9.89 371.65 C95.93 271.75, 182.23 171.44, 262.47 81.09 M12.25 375.03 C102.9 269.88, 192.82 166.01, 262.21 87.48 M12.25 375.03 C94.64 281.42, 176.96 187.04, 262.21 87.48 M16.58 376.14 C97.22 287.04, 176.18 196.72, 262.6 93.13 M16.58 376.14 C73.07 310.58, 129.01 245.58, 262.6 93.13 M19.6 378.77 C113.5 272.41, 206.48 165.27, 262.34 99.52 M19.6 378.77 C100.35 284.97, 182.24 190.45, 262.34 99.52 M24.59 379.13 C78.21 319.3, 130.99 257.54, 262.74 105.17 M24.59 379.13 C99.48 291.8, 175.15 204.92, 262.74 105.17 M28.92 380.24 C109.05 287.19, 188.02 196.24, 262.48 111.57 M28.92 380.24 C115.98 281.13, 201.75 183.42, 262.48 111.57 M33.91 380.6 C121.4 279.91, 207.9 178.32, 262.21 117.96 M33.91 380.6 C93.88 311.15, 153.19 243.47, 262.21 117.96 M38.89 380.96 C113.98 295.51, 186.14 211.55, 262.61 123.61 M38.89 380.96 C104.46 306.67, 168.98 232, 262.61 123.61 M44.54 380.57 C128.47 283.24, 212.93 185.62, 262.35 130 M44.54 380.57 C112.94 300.69, 182.73 221.56, 262.35 130 M49.52 380.93 C98.26 322.29, 147.27 267.22, 262.74 135.65 M49.52 380.93 C120.95 297.82, 191.17 216.83, 262.74 135.65 M55.17 380.53 C112.09 313.98, 169.25 247.69, 262.48 142.04 M55.17 380.53 C110.38 315.4, 166.37 250.64, 262.48 142.04 M60.15 380.89 C116.25 315.24, 173.47 252.59, 262.22 148.44 M60.15 380.89 C140.76 289.73, 219.71 198.83, 262.22 148.44 M65.8 380.5 C115.76 322.6, 167.16 262.97, 262.61 154.09 M65.8 380.5 C123.74 313.71, 183.1 246.5, 262.61 154.09 M70.78 380.86 C126.99 318.5, 180.72 256.06, 262.35 160.48 M70.78 380.86 C130.14 311.26, 191.38 241.14, 262.35 160.48 M76.43 380.46 C148.04 295.12, 222.99 209.85, 262.75 166.13 M76.43 380.46 C133.5 313.97, 190.05 249.04, 262.75 166.13 M81.41 380.82 C152.58 296.22, 224.05 215.33, 262.49 172.52 M81.41 380.82 C122.83 334.42, 164.16 287.02, 262.49 172.52 M87.06 380.43 C147 312, 206.24 243.42, 262.22 178.92 M87.06 380.43 C155.28 301.58, 224.73 222.41, 262.22 178.92 M92.04 380.79 C155.74 306.22, 219.64 234.3, 262.62 184.57 M92.04 380.79 C160.5 303.89, 227.92 226.42, 262.62 184.57 M97.69 380.4 C161.84 308.16, 224.16 233.64, 262.36 190.96 M97.69 380.4 C160.3 309.96, 222.16 238.66, 262.36 190.96 M102.67 380.76 C148.38 332.69, 190.65 281.93, 262.75 196.61 M102.67 380.76 C161.64 314.9, 219.23 247.99, 262.75 196.61 M107.66 381.12 C167.26 310.07, 230.23 240.35, 262.49 203 M107.66 381.12 C153.84 328.26, 198.59 277.13, 262.49 203 M113.3 380.72 C171.74 311.5, 228.99 245.17, 262.23 209.4 M113.3 380.72 C145.95 343.59, 176.97 307.91, 262.23 209.4 M118.29 381.08 C162.28 332.41, 203.85 284.62, 262.62 215.04 M118.29 381.08 C158.23 334.12, 198.19 287.74, 262.62 215.04 M123.93 380.69 C168.36 329.63, 212.49 276.95, 262.36 221.44 M123.93 380.69 C168.73 331.64, 212.84 280.84, 262.36 221.44 M128.92 381.05 C180.3 324.44, 232.47 263.7, 262.76 227.09 M128.92 381.05 C167.83 336.28, 206.22 293.8, 262.76 227.09 M134.56 380.65 C169.29 339.52, 202.97 299.28, 262.49 233.48 M134.56 380.65 C185.18 323.47, 235.42 265.07, 262.49 233.48 M139.55 381.01 C163.45 351.36, 189.14 323.28, 262.23 239.88 M139.55 381.01 C185.63 328.61, 233.27 276.31, 262.23 239.88 M145.19 380.62 C187.4 331.99, 233.93 279.16, 262.63 245.52 M145.19 380.62 C171.85 350.78, 196.77 321.47, 262.63 245.52 M150.18 380.98 C181.44 342.13, 213.21 307.22, 262.37 251.92 M150.18 380.98 C176.22 353.09, 199.12 324.12, 262.37 251.92 M155.82 380.58 C193.98 334.58, 235.93 291.77, 262.76 257.57 M155.82 380.58 C191.55 340.95, 225.44 298.64, 262.76 257.57 M160.81 380.94 C183.62 355.2, 207.78 329.98, 262.5 263.96 M160.81 380.94 C182.08 357.51, 202.57 334.79, 262.5 263.96 M166.45 380.55 C196.97 347.43, 222.18 312.93, 262.24 270.36 M166.45 380.55 C198.23 344.43, 231.11 307.38, 262.24 270.36 M171.44 380.91 C203.74 346.07, 232.5 309.89, 262.63 276 M171.44 380.91 C199.3 347.4, 230.08 313.09, 262.63 276 M177.08 380.51 C198.34 357.47, 216.48 332.81, 262.37 282.4 M177.08 380.51 C210.38 341.07, 245.07 302.93, 262.37 282.4 M182.07 380.87 C203.47 355.15, 225.92 330.34, 262.77 288.04 M182.07 380.87 C204.54 355.05, 227.07 329.62, 262.77 288.04 M187.71 380.48 C216.49 346.26, 245.02 313.42, 262.5 294.44 M187.71 380.48 C212.84 350.72, 239.51 322.93, 262.5 294.44 M192.7 380.84 C220.92 352.1, 245.72 318.85, 262.24 300.84 M192.7 380.84 C206.59 364.74, 221.66 348.24, 262.24 300.84 M198.34 380.44 C219.48 358.26, 235.61 334.6, 262.64 306.48 M198.34 380.44 C219.45 354.5, 241.96 329.33, 262.64 306.48 M203.33 380.8 C222.23 356.67, 243.62 335.83, 262.38 312.88 M203.33 380.8 C220.61 360.14, 237.88 340.35, 262.38 312.88 M208.97 380.41 C225.38 358.59, 246.39 340.09, 262.77 318.52 M208.97 380.41 C224.13 364.07, 237.52 349.03, 262.77 318.52 M213.96 380.77 C226.43 365.18, 243.25 348.95, 262.51 324.92 M213.96 380.77 C224.64 368.37, 237.46 355.81, 262.51 324.92 M218.95 381.13 C235.66 363.44, 250.19 341.96, 262.25 331.32 M218.95 381.13 C230.67 367.08, 242.79 351.99, 262.25 331.32 M224.59 380.74 C236.9 367.21, 251.95 349.81, 262.64 336.96 M224.59 380.74 C236.47 366.24, 249.78 351.86, 262.64 336.96 M230.89 379.59 C240.81 367.45, 249.86 357.7, 262.38 343.36 M230.89 379.59 C239.49 369.42, 250.29 358.12, 262.38 343.36 M236.53 379.19 C244.99 366.95, 256.46 358.67, 263.43 348.25 M236.53 379.19 C246.07 367.88, 256.76 357.43, 263.43 348.25 M242.83 378.04 C249.41 369.42, 256.04 364.75, 262.51 355.4 M242.83 378.04 C249.34 371.53, 256.23 363.04, 262.51 355.4" stroke="#4c6ef5" stroke-width="0.5" fill="none"/>
    <path d="M32 0 M32 0 C106.28 -1.98, 180.68 -2.78, 230.08 0 M32 0 C73.19 2.69, 113.41 2.32, 230.08 0 M230.08 0 C249.73 -0.65, 262.3 11.12, 262.08 32 M230.08 0 C253.19 1.02, 263.83 9.45, 262.08 32 M262.08 32 C261.55 119.13, 259.37 203.84, 262.08 347.22 M262.08 32 C263.16 103.96, 262.09 175.68, 262.08 347.22 M262.08 347.22 C261.66 368.48, 252.02 377.4, 230.08 379.22 M262.08 347.22 C260.05 366.79, 253.3 378.03, 230.08 379.22 M230.08 379.22 C151.94 379.97, 74.15 379.7, 32 379.22 M230.08 379.22 C152.8 381.29, 73.48 380.06, 32 379.22 M32 379.22 C9.79 380.04, -1.74 366.87, 0 347.22 M32 379.22 C8.65 380.1, 0.16 367.75, 0 347.22 M0 347.22 C1.16 273.14, 2.39 198.86, 0 32 M0 347.22 C0.51 253.93, 0.96 161.39, 0 32 M0 32 C-1.96 11.01, 11.21 -1.98, 32 0 M0 32 C-1.71 12.34, 11.63 2.09, 32 0" stroke="#000000" stroke-width="1" fill="none"/>
  </g>
  <g transform="translate(10 10) rotate(0 148.69985961914062 12.5)">
    <text x="0" y="0" font-family="Virgil, Segoe UI Emoji" font-size="20px" fill="#000000" text-anchor="start" style="white-space: pre;" direction="ltr" dominant-baseline="text-before-edge">A Combined Techniques Prompt</text>
  </g>
  <g stroke-linecap="round" transform="translate(39.65166376839534 63.73527846430295) rotate(0 118.94649517634389 177.9674644339993)">
    <path d="M32.69 1.81 L206.75 0.41 L221.89 1.24 L227.16 4.09 L231.97 13.53 L236.94 18.81 L237.54 31.35 L238.14 323.56 L235.54 338.59 L232.56 344.32 L225.6 351.12 L221.69 354.66 L206.08 357.39 L30.38 356.48 L19.69 353.21 L11.84 352.47 L4.5 344.15 L3.34 338.11 L1.64 325.59 L1.77 23.72 L0.35 18.22 L6.22 8.69 L19.09 0.84 L31.51 -1.58" stroke="none" stroke-width="0" fill="#ffffff"/>
    <path d="M32 0 M32 0 C66.53 1.72, 101.43 2.62, 205.89 0 M32 0 C69.32 -2.08, 106.84 -1.2, 205.89 0 M205.89 0 C225.28 -0.99, 235.92 12.06, 237.89 32 M205.89 0 C225.44 0.08, 237.07 9.57, 237.89 32 M237.89 32 C240.39 113.68, 238.55 198.29, 237.89 323.93 M237.89 32 C238.24 144.68, 238.12 258.18, 237.89 323.93 M237.89 323.93 C237.96 344.18, 228.38 355.04, 205.89 355.93 M237.89 323.93 C236.59 346.05, 229.12 355.8, 205.89 355.93 M205.89 355.93 C167.55 356.38, 133.53 353.77, 32 355.93 M205.89 355.93 C137.28 356.6, 70.47 356.45, 32 355.93 M32 355.93 C11.02 357.85, 1.9 347.12, 0 323.93 M32 355.93 C11.43 356.08, 0.67 344.19, 0 323.93 M0 323.93 C-1.56 218.75, -0.96 114.2, 0 32 M0 323.93 C-2.79 226.88, -1.61 129.78, 0 32 M0 32 C-0.76 9.73, 10.14 -0.75, 32 0 M0 32 C1.83 12.75, 8.53 -0.95, 32 0" stroke="#000000" stroke-width="1" fill="none"/>
  </g>
  <g stroke-linecap="round" transform="translate(53.77059313886093 80.90374945315057) rotate(0 102.5 25)">
    <path d="M3.33 2.89 C3.33 2.89, 3.33 2.89, 3.33 2.89 M3.33 2.89 C3.33 2.89, 3.33 2.89, 3.33 2.89 M0.44 12.31 C3.85 9.31, 5.72 7.31, 10.28 0.99 M0.44 12.31 C3.13 8.64, 7.68 4.36, 10.28 0.99 M0.18 18.71 C4.67 15.62, 7.98 11.48, 14.61 2.1 M0.18 18.71 C4.77 12.52, 10.23 6.41, 14.61 2.1 M0.57 24.35 C6.1 14.4, 12.88 7.03, 20.26 1.71 M0.57 24.35 C6.65 17.34, 11.99 12.73, 20.26 1.71 M0.31 30.75 C8.1 20.38, 14.15 11.94, 25.24 2.07 M0.31 30.75 C9.4 19.66, 18.81 10.12, 25.24 2.07 M0.71 36.39 C10.75 24.84, 24.54 11.13, 30.89 1.67 M0.71 36.39 C6.67 29.23, 12.78 22.18, 30.89 1.67 M1.1 42.03 C14.4 29.57, 26.04 11.87, 35.87 2.03 M1.1 42.03 C14.87 27.97, 26.69 12.99, 35.87 2.03 M3.47 45.41 C16.14 31.83, 29.52 14.45, 41.52 1.64 M3.47 45.41 C18.43 27.8, 33.45 9.96, 41.52 1.64 M5.83 48.79 C20.12 30.96, 35.48 14.17, 46.5 2 M5.83 48.79 C18.1 33.94, 33.24 18.72, 46.5 2 M10.16 49.91 C20.46 39.15, 33.85 23.24, 51.49 2.36 M10.16 49.91 C22.15 37.38, 32.84 26.14, 51.49 2.36 M15.15 50.27 C27.92 38.45, 37.04 27.08, 57.13 1.97 M15.15 50.27 C28.73 33.64, 42.06 18.06, 57.13 1.97 M20.79 49.87 C32.13 38.18, 39.28 28.27, 62.12 2.33 M20.79 49.87 C28.78 39.9, 38.15 31.24, 62.12 2.33 M25.78 50.23 C41.58 34.72, 55.06 16.26, 67.76 1.93 M25.78 50.23 C39.15 33.39, 52.26 17.79, 67.76 1.93 M31.42 49.84 C43.41 35.91, 59.27 20.49, 72.75 2.29 M31.42 49.84 C47.25 33.01, 60.18 17.18, 72.75 2.29 M36.41 50.2 C47.68 38.51, 59.93 24.98, 78.39 1.9 M36.41 50.2 C46.92 39.41, 56.11 26.98, 78.39 1.9 M42.05 49.8 C52.83 37.43, 59.36 29.8, 83.38 2.26 M42.05 49.8 C51.6 38.48, 61.85 26.84, 83.38 2.26 M47.04 50.16 C59.8 37.71, 71.53 22.43, 89.02 1.86 M47.04 50.16 C56.91 38.88, 68.36 26.9, 89.02 1.86 M52.02 50.52 C65.74 35.78, 76.41 21.02, 94.01 2.22 M52.02 50.52 C67.15 34.18, 79.83 19, 94.01 2.22 M57.67 50.13 C69.65 37, 80.24 25.6, 99.65 1.83 M57.67 50.13 C69.86 34.24, 84.22 20.96, 99.65 1.83 M62.65 50.49 C79 33.82, 92.98 18.45, 104.64 2.19 M62.65 50.49 C75.71 37.17, 86.63 21.29, 104.64 2.19 M68.3 50.09 C84.25 33.63, 97.92 19.66, 110.28 1.79 M68.3 50.09 C78.09 38.06, 87.26 26.78, 110.28 1.79 M73.28 50.45 C84.54 38.66, 98.63 21.83, 115.27 2.15 M73.28 50.45 C85.06 35.33, 99.22 20.35, 115.27 2.15 M78.93 50.06 C92.16 34.32, 106.7 20.59, 120.91 1.76 M78.93 50.06 C86.05 40.33, 95 31.32, 120.91 1.76 M83.91 50.42 C93.11 37.21, 101.51 29.7, 125.9 2.12 M83.91 50.42 C99.29 33.92, 113.41 16.87, 125.9 2.12 M89.56 50.03 C99.79 40.84, 108.32 28.67, 131.54 1.72 M89.56 50.03 C98.74 38.36, 110.26 26.91, 131.54 1.72 M94.54 50.39 C113.05 30.78, 127.03 10.65, 136.53 2.08 M94.54 50.39 C109.93 33.72, 125.33 14.72, 136.53 2.08 M100.19 49.99 C112.18 37.35, 124.97 23.17, 141.52 2.44 M100.19 49.99 C115.24 32.45, 130.72 14.41, 141.52 2.44 M105.17 50.35 C114.07 38.22, 123.77 25.89, 147.16 2.05 M105.17 50.35 C116.63 37.8, 126.34 26.85, 147.16 2.05 M110.82 49.96 C122.66 34.59, 132.17 23.53, 152.15 2.41 M110.82 49.96 C120.7 37.81, 131.3 26.35, 152.15 2.41 M115.8 50.32 C128.44 37.97, 140.61 23.59, 157.79 2.01 M115.8 50.32 C126.27 37.91, 138.71 25.26, 157.79 2.01 M121.45 49.92 C134.48 34.08, 148.83 20.98, 162.78 2.37 M121.45 49.92 C134.05 34.06, 148.32 19.46, 162.78 2.37 M126.43 50.28 C140.83 33.35, 152.61 19.92, 168.42 1.98 M126.43 50.28 C136.14 38.91, 147.41 27.18, 168.42 1.98 M131.42 50.64 C142.2 41.47, 150.52 30.94, 173.41 2.34 M131.42 50.64 C142.82 37.4, 155.09 23.12, 173.41 2.34 M137.06 50.25 C147.42 41.05, 154.06 32.02, 179.05 1.95 M137.06 50.25 C152.7 32.04, 166.28 16.55, 179.05 1.95 M142.05 50.61 C152.37 38.29, 162.5 24.24, 184.04 2.31 M142.05 50.61 C157.16 32.87, 172.86 14.82, 184.04 2.31 M147.69 50.21 C157.21 38.4, 164.29 26.84, 189.68 1.91 M147.69 50.21 C162.83 30.79, 179.85 11.71, 189.68 1.91 M152.68 50.57 C167.61 34.31, 179.67 20.95, 195.98 0.76 M152.68 50.57 C168.15 33.91, 182.97 16.51, 195.98 0.76 M158.32 50.18 C171.75 31.64, 185.83 15.5, 199.66 2.63 M158.32 50.18 C168 38.87, 178.41 27.37, 199.66 2.63 M163.31 50.54 C173.19 37.84, 182.94 28.31, 203.33 4.5 M163.31 50.54 C174.19 39.53, 183.35 26.51, 203.33 4.5 M168.95 50.14 C175.49 40.05, 186.52 30.18, 205.69 7.88 M168.95 50.14 C183.66 33.62, 199.01 17.42, 205.69 7.88 M173.94 50.5 C187.09 37.93, 196.5 25.36, 205.43 14.28 M173.94 50.5 C183.08 39.34, 192.12 28.29, 205.43 14.28 M179.58 50.11 C188.14 38.3, 196.77 29.73, 205.83 19.92 M179.58 50.11 C187.45 40.63, 194.44 30.93, 205.83 19.92 M184.57 50.47 C194.74 41.31, 202.85 33.03, 205.57 26.32 M184.57 50.47 C191.9 41.17, 199.32 32.42, 205.57 26.32 M190.21 50.07 C192.24 47.48, 196.52 41.54, 205.96 31.96 M190.21 50.07 C196.27 43.85, 202.82 35.31, 205.96 31.96 M194.55 51.19 C196.51 47.75, 198.67 44.3, 205.7 38.36 M194.55 51.19 C196.48 47.54, 199.34 46.04, 205.7 38.36" stroke="#fa5252" stroke-width="0.5" fill="none"/>
    <path d="M12.5 0 M12.5 0 C68.71 1.03, 122.46 2.18, 192.5 0 M12.5 0 C50.3 0.28, 88.38 -0.22, 192.5 0 M192.5 0 C199.5 1.22, 204.12 3.38, 205 12.5 M192.5 0 C201.87 1.38, 206.01 3.25, 205 12.5 M205 12.5 C206.7 19.65, 203.94 24.6, 205 37.5 M205 12.5 C205.82 17.94, 204.03 24.02, 205 37.5 M205 37.5 C205.7 45.1, 201.89 48.97, 192.5 50 M205 37.5 C202.95 43.66, 201.11 47.89, 192.5 50 M192.5 50 C140.95 49.68, 87.85 50.68, 12.5 50 M192.5 50 C129.77 49.17, 66.92 50.1, 12.5 50 M12.5 50 C2.49 48.16, 1.35 45.81, 0 37.5 M12.5 50 C3.38 47.98, -1.69 47.92, 0 37.5 M0 37.5 C-1.19 27.51, -1.31 18.92, 0 12.5 M0 37.5 C1.23 28.72, 0.4 18.63, 0 12.5 M0 12.5 C1.33 4.27, 5.61 -1.79, 12.5 0 M0 12.5 C1.1 2.63, 5.91 1.88, 12.5 0" stroke="#000000" stroke-width="1" fill="none"/>
  </g>
  <g transform="translate(127.68260333173203 88.40374945315057) rotate(0 28.587989807128906 17.5)">
    <text x="28.587989807128906" y="0" font-family="Virgil, Segoe UI Emoji" font-size="28px" fill="#000000" text-anchor="middle" style="white-space: pre;" direction="ltr" dominant-baseline="text-before-edge">Role</text>
  </g>
  <g stroke-linecap="round" transform="translate(58.72799522803189 207.71812407669938) rotate(0 99.5 29)">
    <path d="M2 5.71 C2 5.71, 2 5.71, 2 5.71 M2 5.71 C2 5.71, 2 5.71, 2 5.71 M1.74 12.11 C3.24 11.05, 5.45 8.3, 8.3 4.56 M1.74 12.11 C4.67 9.1, 6.52 6.72, 8.3 4.56 M1.47 18.51 C6.11 14.84, 12.11 9.27, 16.56 1.15 M1.47 18.51 C4.67 14.31, 10.03 8.85, 16.56 1.15 M1.87 24.15 C5.7 16.78, 12.4 12.43, 21.55 1.51 M1.87 24.15 C7.65 19.01, 12.2 11.41, 21.55 1.51 M1.61 30.55 C8.21 20.03, 18.24 11.67, 26.54 1.87 M1.61 30.55 C9.11 22.56, 17.55 14.06, 26.54 1.87 M1.35 36.95 C10.31 28.89, 13.61 20.8, 32.18 1.47 M1.35 36.95 C8.25 28.65, 15.65 20.86, 32.18 1.47 M1.74 42.59 C10.11 30.63, 20.4 21.8, 37.17 1.83 M1.74 42.59 C8.95 33.78, 18.55 24, 37.17 1.83 M2.14 48.23 C11.87 36, 25.41 25.36, 42.81 1.44 M2.14 48.23 C18.25 29.36, 34.51 12.2, 42.81 1.44 M3.84 52.37 C19.95 34.09, 34.99 19.46, 47.8 1.8 M3.84 52.37 C14.81 41.73, 23.5 29.14, 47.8 1.8 M5.55 56.5 C20.69 39.17, 31.17 24.32, 53.44 1.41 M5.55 56.5 C15.58 46.15, 23.85 33.89, 53.44 1.41 M9.22 58.37 C26.93 39.1, 45.04 18.7, 58.43 1.77 M9.22 58.37 C26.88 37.67, 44.76 16.82, 58.43 1.77 M14.87 57.97 C25.24 45.1, 35.06 30.89, 63.42 2.13 M14.87 57.97 C26.98 45.5, 38.53 31.86, 63.42 2.13 M19.85 58.33 C30.92 44.35, 44.71 30.3, 69.06 1.73 M19.85 58.33 C37.74 36.75, 56.98 15.45, 69.06 1.73 M25.5 57.94 C39.59 44.03, 52.73 26.36, 74.05 2.09 M25.5 57.94 C40.95 39.69, 57.64 19.66, 74.05 2.09 M30.48 58.3 C45.51 42.36, 56.08 25.77, 79.69 1.7 M30.48 58.3 C42.72 42.73, 55 28.11, 79.69 1.7 M35.47 58.66 C51.61 39.84, 68.78 19.66, 84.68 2.06 M35.47 58.66 C52.06 39.75, 68.66 19.81, 84.68 2.06 M41.11 58.27 C56.18 40.62, 71.18 20.71, 90.32 1.66 M41.11 58.27 C54.48 43.91, 66.88 29.09, 90.32 1.66 M46.1 58.63 C57.8 43.34, 70.9 30.09, 95.31 2.02 M46.1 58.63 C59.73 42.74, 74.5 24.5, 95.31 2.02 M51.74 58.23 C69.78 38.73, 87.88 17.53, 100.95 1.63 M51.74 58.23 C68.37 41.6, 83.75 23.41, 100.95 1.63 M56.73 58.59 C75.06 40.17, 91.22 18.77, 105.94 1.99 M56.73 58.59 C68.79 42.22, 82.93 27.15, 105.94 1.99 M62.37 58.2 C74.22 47.13, 82.63 33.35, 110.92 2.35 M62.37 58.2 C80.95 35.95, 100.93 13.95, 110.92 2.35 M67.36 58.56 C80.92 43.11, 92.06 30.62, 116.57 1.95 M67.36 58.56 C85.75 38.18, 102.79 19.72, 116.57 1.95 M73 58.16 C84.03 48.2, 91.11 36.8, 121.55 2.31 M73 58.16 C91.48 37.88, 109.48 15.75, 121.55 2.31 M77.99 58.52 C93.65 40.83, 113.83 18.73, 127.2 1.92 M77.99 58.52 C88.14 46.38, 99.05 32.14, 127.2 1.92 M82.98 58.88 C93.84 45.38, 104.6 33.02, 132.18 2.28 M82.98 58.88 C100.82 39.88, 118.52 19.53, 132.18 2.28 M88.62 58.49 C99.7 42.73, 114.84 29.42, 137.83 1.88 M88.62 58.49 C99.04 45.55, 109.37 33.19, 137.83 1.88 M93.61 58.85 C111.65 39.27, 128.01 19.2, 142.81 2.24 M93.61 58.85 C108.33 41.42, 123.51 23.83, 142.81 2.24 M99.25 58.45 C108.95 44.39, 120.36 34.78, 148.46 1.85 M99.25 58.45 C109.44 47.16, 120.37 34.58, 148.46 1.85 M104.24 58.81 C119.94 39.88, 138.81 17.26, 153.44 2.21 M104.24 58.81 C117.39 43.92, 131.85 26.99, 153.44 2.21 M109.88 58.42 C122.02 45.32, 133.45 29.55, 158.43 2.57 M109.88 58.42 C121.07 46.81, 130.94 34.18, 158.43 2.57 M114.87 58.78 C128.23 45.78, 141.81 28.55, 164.07 2.18 M114.87 58.78 C134.4 37.66, 153.81 15.59, 164.07 2.18 M120.51 58.38 C130.36 46.91, 140.69 34.62, 169.06 2.54 M120.51 58.38 C136.33 41.46, 149.55 25.03, 169.06 2.54 M125.5 58.74 C136.62 47.48, 145.83 35.39, 174.7 2.14 M125.5 58.74 C145.3 36.12, 162.73 14.69, 174.7 2.14 M130.49 59.1 C148.18 39.64, 167.77 17.02, 179.69 2.5 M130.49 59.1 C144.14 43.4, 159.13 26.07, 179.69 2.5 M136.13 58.71 C149.3 40.97, 166.35 27.64, 185.33 2.11 M136.13 58.71 C152.74 39.8, 168.6 20.13, 185.33 2.11 M141.12 59.07 C159.23 34.4, 182.69 15.34, 191.63 0.96 M141.12 59.07 C158.98 38.44, 176.42 18.83, 191.63 0.96 M146.76 58.68 C165.48 38.39, 183.09 15.58, 194.65 3.58 M146.76 58.68 C161.92 41.19, 176.75 24.93, 194.65 3.58 M151.75 59.04 C166.3 40.34, 182.46 22.23, 197.67 6.21 M151.75 59.04 C164.61 44.46, 175.35 31.77, 197.67 6.21 M157.39 58.64 C169.72 45.15, 179.91 32.59, 200.03 9.58 M157.39 58.64 C168.82 43.89, 181.27 29.88, 200.03 9.58 M162.38 59 C177.71 42.43, 191.75 26.95, 201.74 13.72 M162.38 59 C172.36 48.93, 181.53 37.64, 201.74 13.72 M167.36 59.36 C180.38 44.94, 193.84 26.73, 201.48 20.12 M167.36 59.36 C176.64 47.4, 187.54 37.39, 201.48 20.12 M173.01 58.97 C180.46 50.13, 188.2 42.89, 201.22 26.51 M173.01 58.97 C180.72 48.26, 191.31 38.13, 201.22 26.51 M177.99 59.33 C185.42 53.73, 191.12 44.02, 201.61 32.16 M177.99 59.33 C182.67 52.81, 187.35 47.44, 201.61 32.16 M183.64 58.93 C187.82 52.73, 194.68 46.49, 201.35 38.55 M183.64 58.93 C188.98 52.22, 193.4 47.48, 201.35 38.55 M187.31 60.8 C191.69 53.57, 196.95 47.52, 201.09 44.95 M187.31 60.8 C189.7 58.57, 192.98 55.42, 201.09 44.95" stroke="#fab005" stroke-width="0.5" fill="none"/>
    <path d="M14.5 0 M14.5 0 C51.3 1.06, 83.69 1.49, 184.5 0 M14.5 0 C59.86 -0.26, 104 1.19, 184.5 0 M184.5 0 C193.28 -0.78, 199.91 6.04, 199 14.5 M184.5 0 C195.18 -0.92, 198.16 4.64, 199 14.5 M199 14.5 C198.21 21.06, 197.76 29.54, 199 43.5 M199 14.5 C198.3 23, 199.6 30.67, 199 43.5 M199 43.5 C200.05 52.14, 192.38 56.11, 184.5 58 M199 43.5 C199.28 51.06, 193.89 59.14, 184.5 58 M184.5 58 C136.37 59.16, 91.05 59.2, 14.5 58 M184.5 58 C134.92 57.36, 86.4 56.09, 14.5 58 M14.5 58 C6.19 57.97, -0.69 51.41, 0 43.5 M14.5 58 C3.14 60.09, 1.27 52.89, 0 43.5 M0 43.5 C-1.17 33.32, 1.87 22.87, 0 14.5 M0 43.5 C-0.12 34.95, 0.38 25.72, 0 14.5 M0 14.5 C1.45 3.05, 5.79 -1.33, 14.5 0 M0 14.5 C1.75 6.72, 6.86 1.52, 14.5 0" stroke="#000000" stroke-width="1" fill="none"/>
  </g>
  <g transform="translate(112.12802727148892 224.21812407669938) rotate(0 46.09996795654297 12.5)">
    <text x="46.09996795654297" y="0" font-family="Virgil, Segoe UI Emoji" font-size="20px" fill="#000000" text-anchor="middle" style="white-space: pre;" direction="ltr" dominant-baseline="text-before-edge">Contoh 1</text>
  </g>
  <g stroke-linecap="round" transform="translate(54.92012843714156 141.17337212690143) rotate(0 101 27.5)">
    <path d="M1.79 5.53 C1.79 5.53, 1.79 5.53, 1.79 5.53 M1.79 5.53 C1.79 5.53, 1.79 5.53, 1.79 5.53 M1.53 11.93 C3.94 9.63, 6.34 6.38, 8.09 4.38 M1.53 11.93 C3.45 9.75, 5.76 7.2, 8.09 4.38 M1.93 17.57 C8.62 12.91, 11.25 4.17, 15.7 1.73 M1.93 17.57 C6.89 12.02, 10.39 6.89, 15.7 1.73 M1.66 23.97 C5.19 20.26, 8.89 16.75, 20.69 2.09 M1.66 23.97 C5.54 18.37, 9.76 14.55, 20.69 2.09 M1.4 30.37 C7.99 23.25, 11.71 18.29, 26.33 1.69 M1.4 30.37 C8.45 23.79, 13.33 15.31, 26.33 1.69 M1.8 36.01 C9.96 24.2, 20.87 11.83, 31.32 2.05 M1.8 36.01 C9.91 27.04, 16.32 19.15, 31.32 2.05 M1.54 42.41 C16.66 26.48, 27.29 12.58, 36.96 1.66 M1.54 42.41 C15.91 27.2, 28.38 10.75, 36.96 1.66 M3.24 46.54 C20.86 30.57, 36.28 11.53, 41.95 2.02 M3.24 46.54 C15.54 33.84, 27.28 19.51, 41.95 2.02 M3.64 52.19 C15.32 41.45, 24.34 24.87, 47.59 1.62 M3.64 52.19 C18.03 33.93, 33.29 16.6, 47.59 1.62 M7.31 54.06 C23.21 33.08, 39.24 16.74, 52.58 1.98 M7.31 54.06 C17.11 40.76, 28.97 30.05, 52.58 1.98 M10.33 56.68 C26.73 39.64, 43.38 19.97, 58.22 1.59 M10.33 56.68 C22.42 42.26, 35.02 28.74, 58.22 1.59 M15.97 56.29 C25.77 41.66, 38.07 28.23, 63.21 1.95 M15.97 56.29 C27.44 43.11, 37.43 30.94, 63.21 1.95 M20.96 56.65 C39.75 36.38, 58.79 14.86, 68.2 2.31 M20.96 56.65 C31.54 44.57, 41 33.06, 68.2 2.31 M26.6 56.25 C44.6 34.53, 61.62 18.36, 73.84 1.91 M26.6 56.25 C40.54 39.52, 54.72 23.72, 73.84 1.91 M31.59 56.61 C45.77 37.04, 62.18 20.69, 78.83 2.27 M31.59 56.61 C46.96 37.89, 64.36 20.86, 78.83 2.27 M36.58 56.97 C45.59 46.06, 57.36 33.31, 84.47 1.88 M36.58 56.97 C52.8 37.55, 69.24 19.6, 84.47 1.88 M42.22 56.58 C59.74 33.92, 78.38 12.32, 89.46 2.24 M42.22 56.58 C58.57 37.57, 74.66 19.07, 89.46 2.24 M47.21 56.94 C60.44 42.39, 72.16 30.38, 95.1 1.84 M47.21 56.94 C60.8 40.26, 75.51 25.37, 95.1 1.84 M52.85 56.54 C66.95 41.03, 81.01 22.91, 100.09 2.2 M52.85 56.54 C63.22 44.94, 73.56 33.53, 100.09 2.2 M57.84 56.9 C72.78 39.46, 87.62 22.69, 105.73 1.81 M57.84 56.9 C76.72 35.61, 93.86 16.22, 105.73 1.81 M63.48 56.51 C74.39 42.03, 90.18 27.24, 110.72 2.17 M63.48 56.51 C76.84 41.65, 89.48 26.12, 110.72 2.17 M68.47 56.87 C87 36.1, 106.73 12.26, 115.7 2.53 M68.47 56.87 C81.52 43.02, 93.45 27, 115.7 2.53 M74.11 56.47 C84.95 42.73, 101.59 24.21, 121.35 2.14 M74.11 56.47 C89.09 38.14, 105.78 20.16, 121.35 2.14 M79.1 56.83 C90.45 44.73, 97.46 34.52, 126.33 2.5 M79.1 56.83 C95.12 36.72, 111.61 18.95, 126.33 2.5 M84.09 57.19 C100.66 37.74, 120.23 14.97, 131.98 2.1 M84.09 57.19 C100.98 38.32, 115.61 20.74, 131.98 2.1 M89.73 56.8 C104.44 42.07, 114.41 26.95, 136.96 2.46 M89.73 56.8 C107.16 35.94, 125.39 16.59, 136.96 2.46 M94.72 57.16 C111.58 37.5, 126.05 19.3, 142.61 2.07 M94.72 57.16 C110.19 38.85, 125.69 20.48, 142.61 2.07 M100.36 56.77 C111.69 44.6, 122.77 31.87, 147.6 2.43 M100.36 56.77 C112.27 43.48, 124.95 29.02, 147.6 2.43 M105.35 57.13 C115.91 43.3, 127.19 29.86, 153.24 2.03 M105.35 57.13 C119.97 39.87, 133.73 24.22, 153.24 2.03 M110.99 56.73 C128.06 35.43, 144.76 13.97, 158.23 2.39 M110.99 56.73 C125.01 39.68, 138.48 23.89, 158.23 2.39 M115.98 57.09 C129.54 41.4, 143.85 24.79, 163.21 2.75 M115.98 57.09 C130.3 41.27, 143.35 24.95, 163.21 2.75 M121.62 56.7 C131 45.4, 142.62 32.17, 168.86 2.36 M121.62 56.7 C136.17 39.34, 151.92 21.2, 168.86 2.36 M126.61 57.06 C142.76 38.81, 161.88 18.14, 173.84 2.72 M126.61 57.06 C141.88 38.3, 160.19 19.89, 173.84 2.72 M131.59 57.42 C149.55 38, 165.19 19.82, 179.49 2.32 M131.59 57.42 C141.23 46.31, 151.19 34.6, 179.49 2.32 M137.24 57.02 C153.77 42.29, 167.78 23.24, 184.47 2.68 M137.24 57.02 C152.72 37.98, 170.76 19.55, 184.47 2.68 M142.22 57.38 C156.67 45.75, 168 28.35, 190.12 2.29 M142.22 57.38 C154.38 43.44, 167.37 30.7, 190.12 2.29 M147.87 56.99 C159.83 41.83, 170.79 31.13, 195.76 1.89 M147.87 56.99 C163.58 39.83, 178.95 21.07, 195.76 1.89 M152.85 57.35 C162.47 44.83, 173.63 33.14, 199.43 3.76 M152.85 57.35 C163.96 44.19, 176.43 30.13, 199.43 3.76 M158.5 56.95 C166.41 47.34, 175.89 37.7, 201.14 7.9 M158.5 56.95 C175.13 37.68, 193.41 17, 201.14 7.9 M163.48 57.31 C175.77 44.26, 183.22 32.79, 202.85 12.03 M163.48 57.31 C175.61 43.4, 187.8 30.74, 202.85 12.03 M169.13 56.92 C180.55 41.95, 191.88 29.37, 203.24 17.67 M169.13 56.92 C178.33 47.81, 186.28 37.42, 203.24 17.67 M174.11 57.28 C180.18 51.52, 186.22 43.69, 202.98 24.07 M174.11 57.28 C183.24 47.53, 189.77 40.23, 202.98 24.07 M179.1 57.64 C187.44 47.72, 191.91 39.8, 202.72 30.47 M179.1 57.64 C183.55 51.45, 189.17 45.2, 202.72 30.47 M184.74 57.24 C193 48.08, 197.4 42.09, 202.46 36.87 M184.74 57.24 C190.89 50.12, 199.38 41.28, 202.46 36.87 M190.39 56.85 C192.66 52.22, 195.54 47.35, 202.85 42.51 M190.39 56.85 C193.07 54.57, 194.79 51.67, 202.85 42.51" stroke="#228be6" stroke-width="0.5" fill="none"/>
    <path d="M13.75 0 M13.75 0 C58.95 0.49, 107.06 -0.48, 188.25 0 M13.75 0 C59.42 2.08, 105.98 1.08, 188.25 0 M188.25 0 C198.32 1.2, 202.88 3.79, 202 13.75 M188.25 0 C196.58 -0.19, 201.16 6.56, 202 13.75 M202 13.75 C200.37 22.53, 201.56 33.49, 202 41.25 M202 13.75 C202.09 21.08, 202.27 28.62, 202 41.25 M202 41.25 C200.21 48.53, 197.66 53.16, 188.25 55 M202 41.25 C201.73 51.56, 196.9 55.35, 188.25 55 M188.25 55 C136.11 57.08, 81.84 55.12, 13.75 55 M188.25 55 C145.16 54.69, 104.43 55.6, 13.75 55 M13.75 55 C3.9 53.24, -1.47 52.24, 0 41.25 M13.75 55 C5.85 54.73, 0.53 49.01, 0 41.25 M0 41.25 C1.88 32.61, 0.33 29.77, 0 13.75 M0 41.25 C0.62 30.76, 0.68 19.27, 0 13.75 M0 13.75 C0.95 3.25, 6.1 1.64, 13.75 0 M0 13.75 C2.03 6.1, 3.24 1.56, 13.75 0" stroke="#000000" stroke-width="1" fill="none"/>
  </g>
  <g transform="translate(79.97016963587203 151.17337212690143) rotate(0 75.94995880126953 17.5)">
    <text x="75.94995880126953" y="0" font-family="Virgil, Segoe UI Emoji" font-size="28px" fill="#000000" text-anchor="middle" style="white-space: pre;" direction="ltr" dominant-baseline="text-before-edge">Instruction</text>
  </g>
  <g stroke-linecap="round" transform="translate(58.533315058309654 275.33919980445717) rotate(0 99.5 29)">
    <path d="M2 5.71 C2 5.71, 2 5.71, 2 5.71 M2 5.71 C2 5.71, 2 5.71, 2 5.71 M1.74 12.11 C5 8.35, 7.1 7.06, 8.3 4.56 M1.74 12.11 C3.49 10.26, 5.56 8.14, 8.3 4.56 M1.47 18.51 C6.31 10.13, 13.07 3.38, 16.56 1.15 M1.47 18.51 C6.19 12, 10.5 6.09, 16.56 1.15 M1.87 24.15 C5.9 20.27, 9.43 14.83, 21.55 1.51 M1.87 24.15 C9.36 15.91, 15.73 6.76, 21.55 1.51 M1.61 30.55 C6.49 24.26, 10.49 18.87, 26.54 1.87 M1.61 30.55 C9.66 19.61, 19.87 10.61, 26.54 1.87 M1.35 36.95 C9.76 25.78, 20.03 14.86, 32.18 1.47 M1.35 36.95 C8.16 28.71, 17.13 19.58, 32.18 1.47 M1.74 42.59 C7.6 35.06, 18.09 23.77, 37.17 1.83 M1.74 42.59 C15 26.02, 30.29 9.89, 37.17 1.83 M2.14 48.23 C16.47 33.64, 27.66 18.7, 42.81 1.44 M2.14 48.23 C12.63 36.12, 22.02 24.67, 42.81 1.44 M3.84 52.37 C13.28 37.43, 26.86 27.75, 47.8 1.8 M3.84 52.37 C20.65 32.78, 38.58 14.65, 47.8 1.8 M5.55 56.5 C13.72 47.29, 24.36 35.86, 53.44 1.41 M5.55 56.5 C22.91 38.82, 39.06 19.15, 53.44 1.41 M9.22 58.37 C28.73 37.11, 44.9 14.99, 58.43 1.77 M9.22 58.37 C23.69 42.36, 38.55 24.25, 58.43 1.77 M14.87 57.97 C28.45 40.48, 42.82 26.03, 63.42 2.13 M14.87 57.97 C29.91 40.14, 47.12 21.06, 63.42 2.13 M19.85 58.33 C37.28 39.52, 50.11 20.04, 69.06 1.73 M19.85 58.33 C30.07 45.59, 41.76 34.54, 69.06 1.73 M25.5 57.94 C43.54 40.17, 60.17 16.99, 74.05 2.09 M25.5 57.94 C43.75 37.15, 62.66 16.79, 74.05 2.09 M30.48 58.3 C44.19 43, 59.93 25.37, 79.69 1.7 M30.48 58.3 C42.88 46.3, 52.77 32.01, 79.69 1.7 M35.47 58.66 C53.21 38.61, 69.96 19.81, 84.68 2.06 M35.47 58.66 C51.9 40.37, 68.86 21.4, 84.68 2.06 M41.11 58.27 C57.08 37.92, 75.44 21.02, 90.32 1.66 M41.11 58.27 C57.74 39.23, 74.96 18.74, 90.32 1.66 M46.1 58.63 C57.22 47.5, 68.35 31.6, 95.31 2.02 M46.1 58.63 C66.08 37.23, 84.46 15.02, 95.31 2.02 M51.74 58.23 C69.85 36.24, 85.7 18.37, 100.95 1.63 M51.74 58.23 C71.12 36.98, 89.84 14.69, 100.95 1.63 M56.73 58.59 C75.57 37.7, 97.27 12.38, 105.94 1.99 M56.73 58.59 C66.51 47.45, 77.61 34.98, 105.94 1.99 M62.37 58.2 C82.7 37.33, 98.28 15.16, 110.92 2.35 M62.37 58.2 C75.85 41.71, 91.28 26.66, 110.92 2.35 M67.36 58.56 C80.84 42.41, 91.79 30.89, 116.57 1.95 M67.36 58.56 C78.47 44.11, 91.35 30.55, 116.57 1.95 M73 58.16 C93.31 35.05, 110.5 15.19, 121.55 2.31 M73 58.16 C93.06 35.92, 110.76 13.26, 121.55 2.31 M77.99 58.52 C95.09 37.26, 116.55 13.6, 127.2 1.92 M77.99 58.52 C96.04 38.12, 115.68 16.65, 127.2 1.92 M82.98 58.88 C98.88 39.97, 113.35 25.56, 132.18 2.28 M82.98 58.88 C100.37 38.61, 118.94 16.05, 132.18 2.28 M88.62 58.49 C98.09 45.05, 112.88 31.65, 137.83 1.88 M88.62 58.49 C101.33 44.94, 113.5 31.58, 137.83 1.88 M93.61 58.85 C106.94 41.99, 121 26.34, 142.81 2.24 M93.61 58.85 C108 41.31, 123.14 24.11, 142.81 2.24 M99.25 58.45 C108.07 48.33, 118.86 34.49, 148.46 1.85 M99.25 58.45 C119.57 35.61, 137.87 11.85, 148.46 1.85 M104.24 58.81 C121.6 36.88, 139.61 16.63, 153.44 2.21 M104.24 58.81 C121.99 38.22, 141.45 17.24, 153.44 2.21 M109.88 58.42 C125.88 36.76, 145.26 19.18, 158.43 2.57 M109.88 58.42 C124.44 41.09, 139.58 24.22, 158.43 2.57 M114.87 58.78 C136.05 34.53, 153.79 13.68, 164.07 2.18 M114.87 58.78 C132.86 37.25, 151.72 14.61, 164.07 2.18 M120.51 58.38 C136.95 39.23, 153.53 23.03, 169.06 2.54 M120.51 58.38 C136.18 40.43, 153.64 21.49, 169.06 2.54 M125.5 58.74 C145.36 37.97, 162.58 18.56, 174.7 2.14 M125.5 58.74 C139.74 44.64, 152.49 28.74, 174.7 2.14 M130.49 59.1 C149.53 38.21, 166.95 13.12, 179.69 2.5 M130.49 59.1 C149.11 37.43, 167.81 15.74, 179.69 2.5 M136.13 58.71 C148.23 44.51, 160.13 31.04, 185.33 2.11 M136.13 58.71 C154.38 39.56, 169.82 19.16, 185.33 2.11 M141.12 59.07 C151.72 45.4, 160.11 35.06, 191.63 0.96 M141.12 59.07 C153.19 47.23, 163.11 33.87, 191.63 0.96 M146.76 58.68 C161.59 42.75, 176.71 26.02, 194.65 3.58 M146.76 58.68 C159.73 43.2, 171.35 28.16, 194.65 3.58 M151.75 59.04 C163.44 45.15, 175.45 32.85, 197.67 6.21 M151.75 59.04 C161.71 47.75, 170.93 36.49, 197.67 6.21 M157.39 58.64 C169.34 45.88, 183.41 29.56, 200.03 9.58 M157.39 58.64 C171.07 42.99, 183.19 29.66, 200.03 9.58 M162.38 59 C170.3 47.91, 181.27 38.35, 201.74 13.72 M162.38 59 C177.15 43.71, 190.67 26.54, 201.74 13.72 M167.36 59.36 C179.39 44.62, 190.91 29.96, 201.48 20.12 M167.36 59.36 C174.4 50.58, 181.27 41.93, 201.48 20.12 M173.01 58.97 C181.04 49.82, 188.21 38.76, 201.22 26.51 M173.01 58.97 C178.55 52.87, 185.36 45.59, 201.22 26.51 M177.99 59.33 C184.9 48.65, 193.79 38.31, 201.61 32.16 M177.99 59.33 C182.78 52.98, 188.81 47.7, 201.61 32.16 M183.64 58.93 C187.85 53.32, 194.25 48.85, 201.35 38.55 M183.64 58.93 C189.03 53.57, 192.13 48.39, 201.35 38.55 M187.31 60.8 C188.9 55.22, 192.52 51.85, 201.09 44.95 M187.31 60.8 C191.65 55.58, 197.52 49.24, 201.09 44.95" stroke="#fab005" stroke-width="0.5" fill="none"/>
    <path d="M14.5 0 M14.5 0 C69.42 -0.82, 125.05 -0.27, 184.5 0 M14.5 0 C50.69 -1.43, 88.21 -0.43, 184.5 0 M184.5 0 C195.05 -0.8, 198.27 4.67, 199 14.5 M184.5 0 C193.32 1.98, 199.64 3.63, 199 14.5 M199 14.5 C198.49 23.34, 198.38 26.88, 199 43.5 M199 14.5 C199.63 23.38, 198.21 32.34, 199 43.5 M199 43.5 C199.24 51.33, 193.93 58.99, 184.5 58 M199 43.5 C198.48 53.52, 194.26 56.91, 184.5 58 M184.5 58 C123.97 58.13, 62.84 57.06, 14.5 58 M184.5 58 C128.24 56.42, 70.29 55.55, 14.5 58 M14.5 58 C3.36 59.82, 1.11 52.93, 0 43.5 M14.5 58 C5.36 56.6, -1.27 51.62, 0 43.5 M0 43.5 C-0.1 37.96, 1.42 28.8, 0 14.5 M0 43.5 C0.53 32.84, 0.28 23.29, 0 14.5 M0 14.5 C1.52 6.47, 6.6 1.32, 14.5 0 M0 14.5 C-1.35 6.4, 4.74 0.34, 14.5 0" stroke="#000000" stroke-width="1" fill="none"/>
  </g>
  <g transform="translate(107.52335106905184 291.83919980445717) rotate(0 50.50996398925781 12.5)">
    <text x="50.50996398925781" y="0" font-family="Virgil, Segoe UI Emoji" font-size="20px" fill="#000000" text-anchor="middle" style="white-space: pre;" direction="ltr" dominant-baseline="text-before-edge">Contoh 2</text>
  </g>
  <g stroke-linecap="round" transform="translate(62.14672460949487 343.1721376414557) rotate(0 99.5 29)">
    <path d="M2 5.71 C2 5.71, 2 5.71, 2 5.71 M2 5.71 C2 5.71, 2 5.71, 2 5.71 M1.74 12.11 C3.98 10.67, 5.38 7.16, 8.3 4.56 M1.74 12.11 C4.38 9.48, 6.76 7.19, 8.3 4.56 M1.47 18.51 C7.25 10.54, 13.21 7.09, 16.56 1.15 M1.47 18.51 C4.18 13.54, 8.16 9.97, 16.56 1.15 M1.87 24.15 C6.71 17.89, 16.4 8.99, 21.55 1.51 M1.87 24.15 C5.3 18.55, 9.7 14.66, 21.55 1.51 M1.61 30.55 C6.18 23.94, 13.86 19.3, 26.54 1.87 M1.61 30.55 C11.84 20.62, 20.9 7.83, 26.54 1.87 M1.35 36.95 C10.39 25.92, 19.84 15.91, 32.18 1.47 M1.35 36.95 C10.24 27.73, 16.41 19.52, 32.18 1.47 M1.74 42.59 C13.08 29.92, 22.79 21.82, 37.17 1.83 M1.74 42.59 C15.63 27.56, 27.54 14.39, 37.17 1.83 M2.14 48.23 C17.9 30.19, 32.92 12.27, 42.81 1.44 M2.14 48.23 C16.69 31.14, 31.9 13.53, 42.81 1.44 M3.84 52.37 C22.66 34.02, 40.99 11.62, 47.8 1.8 M3.84 52.37 C15.91 40.63, 25.32 26.5, 47.8 1.8 M5.55 56.5 C15.31 45.8, 27.92 31.01, 53.44 1.41 M5.55 56.5 C16.36 43.77, 27.6 31.43, 53.44 1.41 M9.22 58.37 C26.74 35.97, 46.14 13.98, 58.43 1.77 M9.22 58.37 C23.91 40.61, 39.24 22.78, 58.43 1.77 M14.87 57.97 C25.47 45.8, 38.85 32.93, 63.42 2.13 M14.87 57.97 C29.07 42.24, 41.63 27.92, 63.42 2.13 M19.85 58.33 C33.91 38.54, 50.24 21.5, 69.06 1.73 M19.85 58.33 C30.89 47.41, 41.06 35.81, 69.06 1.73 M25.5 57.94 C35.76 44.24, 47.9 32.39, 74.05 2.09 M25.5 57.94 C39.5 43.16, 52.5 26.18, 74.05 2.09 M30.48 58.3 C43.01 44.19, 52.37 29.97, 79.69 1.7 M30.48 58.3 C40.94 44.04, 53.95 30.45, 79.69 1.7 M35.47 58.66 C52.46 39.67, 68.7 20.92, 84.68 2.06 M35.47 58.66 C47.94 44.98, 59.05 31.29, 84.68 2.06 M41.11 58.27 C53.97 45.75, 65.53 31.82, 90.32 1.66 M41.11 58.27 C56.94 39.5, 72.59 21.58, 90.32 1.66 M46.1 58.63 C59.31 41.67, 74.85 26.43, 95.31 2.02 M46.1 58.63 C57.86 44.53, 70.72 30.53, 95.31 2.02 M51.74 58.23 C66.76 40.63, 86.95 20.94, 100.95 1.63 M51.74 58.23 C69.42 37.94, 87.94 16.78, 100.95 1.63 M56.73 58.59 C75.07 37.87, 88.36 20.76, 105.94 1.99 M56.73 58.59 C67.88 46.1, 80.02 32.06, 105.94 1.99 M62.37 58.2 C76.62 39.13, 92.1 22.87, 110.92 2.35 M62.37 58.2 C78.66 41.67, 92.25 23.86, 110.92 2.35 M67.36 58.56 C82.83 41.44, 98.44 22.16, 116.57 1.95 M67.36 58.56 C87.26 36.48, 107.83 12.45, 116.57 1.95 M73 58.16 C91.75 36.45, 111.72 14.33, 121.55 2.31 M73 58.16 C85.94 41.11, 101.91 26.27, 121.55 2.31 M77.99 58.52 C92.83 41.53, 106.78 25.93, 127.2 1.92 M77.99 58.52 C89.38 46.31, 99.03 34.09, 127.2 1.92 M82.98 58.88 C99.99 40.9, 117.32 23.23, 132.18 2.28 M82.98 58.88 C97.53 41.17, 111.68 25.66, 132.18 2.28 M88.62 58.49 C105.29 41.4, 117.51 24.17, 137.83 1.88 M88.62 58.49 C99.43 46.93, 109.6 34.56, 137.83 1.88 M93.61 58.85 C105.04 45.14, 115.45 32.85, 142.81 2.24 M93.61 58.85 C106.99 42.97, 119.98 27.82, 142.81 2.24 M99.25 58.45 C115.88 37.94, 135.93 18.35, 148.46 1.85 M99.25 58.45 C117.45 35.2, 138.03 13.58, 148.46 1.85 M104.24 58.81 C116.56 43.24, 130.31 30.9, 153.44 2.21 M104.24 58.81 C117.04 45.27, 128.66 31.39, 153.44 2.21 M109.88 58.42 C123.61 44.68, 137.11 28.8, 158.43 2.57 M109.88 58.42 C120.41 46.46, 132.2 34.54, 158.43 2.57 M114.87 58.78 C128.57 42.68, 144.55 26.92, 164.07 2.18 M114.87 58.78 C132.88 37.02, 152.36 15.63, 164.07 2.18 M120.51 58.38 C137.58 41.3, 153.92 19.18, 169.06 2.54 M120.51 58.38 C140.74 36.33, 160.01 13.53, 169.06 2.54 M125.5 58.74 C144.45 38.99, 161.1 14.42, 174.7 2.14 M125.5 58.74 C141.36 40.09, 157.57 22.57, 174.7 2.14 M130.49 59.1 C144.13 39.46, 163.22 22.04, 179.69 2.5 M130.49 59.1 C147.25 39.49, 163.11 21.77, 179.69 2.5 M136.13 58.71 C156.28 36.21, 175.72 12.29, 185.33 2.11 M136.13 58.71 C149.29 41.48, 162.92 26.95, 185.33 2.11 M141.12 59.07 C159.96 36.37, 179.35 13.3, 191.63 0.96 M141.12 59.07 C153.77 43.43, 168.16 27.45, 191.63 0.96 M146.76 58.68 C157.13 48.12, 165.98 36.68, 194.65 3.58 M146.76 58.68 C162.38 39, 179.37 20.02, 194.65 3.58 M151.75 59.04 C163.62 46.18, 175.2 29.13, 197.67 6.21 M151.75 59.04 C166.49 41.42, 182.74 22.79, 197.67 6.21 M157.39 58.64 C173.28 40.92, 185.18 24.95, 200.03 9.58 M157.39 58.64 C171.14 43.28, 185.13 27.12, 200.03 9.58 M162.38 59 C172.56 49.05, 183.57 37.51, 201.74 13.72 M162.38 59 C173.9 45.28, 185.7 31.96, 201.74 13.72 M167.36 59.36 C174.03 49.31, 180.97 42.7, 201.48 20.12 M167.36 59.36 C178.49 45.59, 191.14 31.96, 201.48 20.12 M173.01 58.97 C182.37 45.61, 191.28 37.97, 201.22 26.51 M173.01 58.97 C179.14 52.74, 185.63 45.78, 201.22 26.51 M177.99 59.33 C182.2 52.03, 187.61 44.84, 201.61 32.16 M177.99 59.33 C184.79 52.26, 189.83 46.43, 201.61 32.16 M183.64 58.93 C189 55, 189.73 49.3, 201.35 38.55 M183.64 58.93 C189.69 50.98, 195.88 43.44, 201.35 38.55 M187.31 60.8 C189.27 55.72, 196.37 52.58, 201.09 44.95 M187.31 60.8 C192.46 55.22, 198.34 47.56, 201.09 44.95" stroke="#fab005" stroke-width="0.5" fill="none"/>
    <path d="M14.5 0 M14.5 0 C73.04 0.55, 131.26 -1.33, 184.5 0 M14.5 0 C76.29 1.27, 137.62 0.27, 184.5 0 M184.5 0 C193.44 -0.17, 198.27 6.56, 199 14.5 M184.5 0 C194.81 -1.2, 197.76 3.12, 199 14.5 M199 14.5 C198.55 20.97, 199.43 31.92, 199 43.5 M199 14.5 C198.26 21.2, 199.27 28.86, 199 43.5 M199 43.5 C198.76 54.16, 193.72 58.3, 184.5 58 M199 43.5 C199.09 52.08, 195.42 59.06, 184.5 58 M184.5 58 C122.71 55.38, 63.93 55.62, 14.5 58 M184.5 58 C148.83 57.1, 113.12 58.89, 14.5 58 M14.5 58 C5.94 57.76, 0.46 51.95, 0 43.5 M14.5 58 C3.56 56.46, -0.94 55.11, 0 43.5 M0 43.5 C1.65 37.89, 0.72 32.96, 0 14.5 M0 43.5 C0.27 33.99, 0.55 26.62, 0 14.5 M0 14.5 C1.77 6.15, 3.66 1.36, 14.5 0 M0 14.5 C-0.1 5.18, 4.69 -1.14, 14.5 0" stroke="#000000" stroke-width="1" fill="none"/>
  </g>
  <g transform="translate(111.4467581788308 359.6721376414557) rotate(0 50.19996643066406 12.5)">
    <text x="50.19996643066406" y="0" font-family="Virgil, Segoe UI Emoji" font-size="20px" fill="#000000" text-anchor="middle" style="white-space: pre;" direction="ltr" dominant-baseline="text-before-edge">Contoh 3</text>
  </g>
</svg>
