<?xml version="1.0"?>
<svg xmlns="http://www.w3.org/2000/svg" version="1.1" viewBox="0 0 527.0846862792969 202.0805206298828" width="1054.1693725585938" height="404.1610412597656">
  <!-- svg-source:excalidraw -->
  <defs>
    <style class="style-fonts">
      @font-face {
        font-family: "Virgil";
        src: url("https://excalidraw.com/Virgil.woff2");
      }
      @font-face {
        font-family: "Cascadia";
        src: url("https://excalidraw.com/Cascadia.woff2");
      }
    </style>
  </defs>
  <rect x="0" y="0" width="527.0846862792969" height="202.0805206298828" fill="#ffffff"/>
  <g stroke-linecap="round" transform="translate(10 65.55645751953125) rotate(0 96.59158325195312 61.79759216308594)">
    <path d="M4.51 11.87 C4.51 11.87, 4.51 11.87, 4.51 11.87 M4.51 11.87 C4.51 11.87, 4.51 11.87, 4.51 11.87 M0.97 22.05 C6.46 17.23, 8.21 14.34, 14.75 6.2 M0.97 22.05 C5.96 16.81, 8.37 13.71, 14.75 6.2 M2.68 26.18 C8.79 16.54, 17.56 7.26, 24.33 1.27 M2.68 26.18 C6.17 21.03, 12.18 16.02, 24.33 1.27 M3.07 31.82 C9.64 22.68, 19.45 12.93, 29.97 0.88 M3.07 31.82 C12.37 20.86, 22.66 8.67, 29.97 0.88 M2.81 38.22 C13.17 28.42, 22.33 16.9, 33.65 2.75 M2.81 38.22 C13 27.26, 22.72 15.83, 33.65 2.75 M3.21 43.86 C13.51 30.6, 24.66 17.23, 39.29 2.35 M3.21 43.86 C12.39 33.42, 21.53 23.4, 39.29 2.35 M2.95 50.26 C18.24 31.96, 35.31 12.63, 44.28 2.71 M2.95 50.26 C12.64 39.58, 23.77 26.76, 44.28 2.71 M2.68 56.66 C19.42 38.12, 32.64 21.26, 49.92 2.32 M2.68 56.66 C16.4 40.59, 30.16 22.78, 49.92 2.32 M3.08 62.3 C23.79 40.04, 40.84 17.09, 54.91 2.68 M3.08 62.3 C13.94 50.01, 24.6 39.11, 54.91 2.68 M2.82 68.7 C24.5 45.71, 44.59 18.96, 60.55 2.29 M2.82 68.7 C20.31 48.13, 38.72 26.91, 60.55 2.29 M3.21 74.34 C21.66 54.27, 42.32 29.59, 65.54 2.65 M3.21 74.34 C19.75 55.87, 35.07 38.05, 65.54 2.65 M2.95 80.74 C31.22 48.87, 54.52 19.21, 71.18 2.25 M2.95 80.74 C23.8 58.32, 42.12 36.46, 71.18 2.25 M2.69 87.14 C21.84 63.39, 40.18 44.65, 76.17 2.61 M2.69 87.14 C20.3 66.92, 39.38 45.88, 76.17 2.61 M3.08 92.78 C25.22 67.94, 46.52 42.26, 81.81 2.22 M3.08 92.78 C23.54 69.41, 43.87 46.18, 81.81 2.22 M1.51 100.69 C18.63 78.97, 37.26 58.45, 86.8 2.58 M1.51 100.69 C24.73 72.08, 49.22 43.65, 86.8 2.58 M3.22 104.82 C26.4 79.41, 47.46 56.88, 92.44 2.18 M3.22 104.82 C25.14 77.47, 49.17 49.48, 92.44 2.18 M4.27 109.71 C28.5 82.45, 52.54 58.12, 97.43 2.54 M4.27 109.71 C28.51 82.18, 53.72 55.39, 97.43 2.54 M6.63 113.09 C37.28 78.07, 65.01 44.82, 102.42 2.9 M6.63 113.09 C41.17 72.13, 76.48 30.7, 102.42 2.9 M8.99 116.47 C38.67 84.85, 67.01 50.43, 108.06 2.51 M8.99 116.47 C38.7 80.51, 68.2 45.9, 108.06 2.51 M12.01 119.09 C33.32 92.98, 53.78 68.61, 113.05 2.87 M12.01 119.09 C39.47 88.05, 65.62 56.5, 113.05 2.87 M15.03 121.72 C55.81 79.44, 95.53 33.04, 118.69 2.47 M15.03 121.72 C49.92 80.75, 87.28 37.12, 118.69 2.47 M19.36 122.83 C59.48 77.33, 95.38 35.59, 123.68 2.83 M19.36 122.83 C45.18 93.15, 70.05 63.73, 123.68 2.83 M24.35 123.19 C45.19 96.81, 69.12 72.53, 129.32 2.44 M24.35 123.19 C63.07 80.24, 101.64 36.85, 129.32 2.44 M29.34 123.55 C59.87 89.28, 89.55 53.08, 134.31 2.8 M29.34 123.55 C54 96.16, 75.64 69.55, 134.31 2.8 M33.01 125.42 C71.18 80.85, 112.19 32.34, 139.95 2.4 M33.01 125.42 C66.2 84.28, 101.04 44.38, 139.95 2.4 M38 125.78 C75.12 83.23, 112.72 42.56, 144.94 2.76 M38 125.78 C74.79 84.04, 112.92 42.43, 144.94 2.76 M43.64 125.39 C83.04 81.9, 118.53 39.78, 150.58 2.37 M43.64 125.39 C67.42 97.26, 93.2 70.12, 150.58 2.37 M48.63 125.75 C90.57 80.4, 129.83 29.03, 155.57 2.73 M48.63 125.75 C86.58 82.36, 126.12 36.18, 155.57 2.73 M54.27 125.35 C84.67 90.03, 114.24 57.22, 162.52 0.83 M54.27 125.35 C86.21 88.86, 116.73 52.5, 162.52 0.83 M59.26 125.71 C99.41 79.15, 140.14 34.56, 167.51 1.19 M59.26 125.71 C87.69 93.97, 117.64 61.4, 167.51 1.19 M64.9 125.32 C106.09 75.55, 150.58 31.1, 172.49 1.55 M64.9 125.32 C102.45 82.07, 141.84 36.48, 172.49 1.55 M69.89 125.68 C102.15 89.21, 136.4 49.5, 176.83 2.66 M69.89 125.68 C95.45 96.78, 120.45 68.86, 176.83 2.66 M75.53 125.28 C117.41 76.87, 159.84 27.35, 180.5 4.53 M75.53 125.28 C101.75 92.66, 131.3 60.51, 180.5 4.53 M80.52 125.64 C113.48 86.81, 144.15 50.5, 184.18 6.4 M80.52 125.64 C111.08 91.81, 141.15 57.45, 184.18 6.4 M86.16 125.25 C115.64 91.29, 148.46 54.8, 186.54 9.78 M86.16 125.25 C115.63 88.87, 146.6 53.97, 186.54 9.78 M91.15 125.61 C125.68 86.8, 160.87 44.53, 189.56 12.4 M91.15 125.61 C115.15 97.86, 140.52 67.92, 189.56 12.4 M96.79 125.21 C132.6 85.02, 169.48 43.3, 190.61 17.29 M96.79 125.21 C129.44 88.12, 161.86 48.85, 190.61 17.29 M101.78 125.58 C130.31 93.83, 156.01 57.37, 192.31 21.43 M101.78 125.58 C137.24 85.86, 174.11 43.12, 192.31 21.43 M107.42 125.18 C140.9 86.56, 173.02 48.35, 194.68 24.8 M107.42 125.18 C135.62 92.77, 164.78 60.87, 194.68 24.8 M112.41 125.54 C139.25 92.58, 167.6 62.3, 194.42 31.2 M112.41 125.54 C143.04 90.05, 172.7 56.3, 194.42 31.2 M118.05 125.15 C142.29 94.44, 169.09 64.8, 194.15 37.6 M118.05 125.15 C146.17 94.79, 172.47 62.86, 194.15 37.6 M123.04 125.51 C139.25 105.11, 155.36 83.61, 194.55 43.24 M123.04 125.51 C141.84 104.52, 161.72 81.38, 194.55 43.24 M128.68 125.11 C155.98 95.22, 181.17 66.3, 194.29 49.64 M128.68 125.11 C155.53 97.26, 180.88 66.38, 194.29 49.64 M133.67 125.47 C154.66 99.76, 177.96 76.81, 194.68 55.28 M133.67 125.47 C146.44 111.87, 157.47 97.5, 194.68 55.28 M139.31 125.08 C158.34 104.9, 173.1 84.48, 194.42 61.68 M139.31 125.08 C159.95 100.9, 182.97 75.29, 194.42 61.68 M144.3 125.44 C156.18 111.84, 170.54 97.84, 194.82 67.32 M144.3 125.44 C160.18 107.79, 174.44 91.91, 194.82 67.32 M149.29 125.8 C159.62 115.66, 167.88 102.63, 194.55 73.72 M149.29 125.8 C164.8 108.14, 179.48 90.01, 194.55 73.72 M154.93 125.4 C163.42 115.14, 169.54 106, 194.95 79.37 M154.93 125.4 C167.15 112.82, 179.32 98.34, 194.95 79.37 M159.92 125.76 C168.34 116, 177.72 105.59, 194.69 85.76 M159.92 125.76 C169.56 114.21, 177.83 105.23, 194.69 85.76 M164.9 126.12 C176.64 112.91, 184.91 99.53, 193.77 92.92 M164.9 126.12 C175.83 114.62, 186.05 101.33, 193.77 92.92 M171.2 124.97 C176.51 118.93, 179.71 111.55, 192.85 100.07 M171.2 124.97 C178.9 115.99, 187.55 107.53, 192.85 100.07 M181.44 119.3 C185.27 114.95, 188.14 112.91, 189.31 110.24 M181.44 119.3 C184 116.29, 185.79 113.72, 189.31 110.24" stroke="#4c6ef5" stroke-width="0.5" fill="none"/>
    <path d="M30.9 0 M30.9 0 C73.28 0.93, 120.37 0.83, 162.28 0 M30.9 0 C67.73 0.36, 102.96 -0.12, 162.28 0 M162.28 0 C184.56 -1.16, 192.42 9.9, 193.18 30.9 M162.28 0 C184.62 -0.87, 195.48 9.23, 193.18 30.9 M193.18 30.9 C194.48 46.84, 191.1 61.17, 193.18 92.7 M193.18 30.9 C193.24 52.3, 192.68 74.73, 193.18 92.7 M193.18 92.7 C195.12 114.11, 183.28 122.53, 162.28 123.6 M193.18 92.7 C194.19 115.28, 183.71 123.02, 162.28 123.6 M162.28 123.6 C136.28 123.7, 107.47 122.97, 30.9 123.6 M162.28 123.6 C117.81 122.92, 72.75 123.74, 30.9 123.6 M30.9 123.6 C10.53 123.89, -0.15 115.01, 0 92.7 M30.9 123.6 C9.23 122.38, 2.15 113.91, 0 92.7 M0 92.7 C1.78 70.63, -0.64 46.18, 0 30.9 M0 92.7 C-0.94 75.24, 0.25 59.05, 0 30.9 M0 30.9 C1.03 8.69, 10.79 0.5, 30.9 0 M0 30.9 C-0.36 11.02, 10.25 -1.32, 30.9 0" stroke="#000000" stroke-width="1" fill="none"/>
  </g>
  <g transform="translate(18.433609008789062 92.35404968261719) rotate(0 88.15797424316406 35)">
    <text x="88.15797424316406" y="0" font-family="Virgil, Segoe UI Emoji" font-size="28px" fill="#000000" text-anchor="middle" style="white-space: pre;" direction="ltr" dominant-baseline="text-before-edge">Apa saja 3 </text>
    <text x="88.15797424316406" y="35" font-family="Virgil, Segoe UI Emoji" font-size="28px" fill="#000000" text-anchor="middle" style="white-space: pre;" direction="ltr" dominant-baseline="text-before-edge">buku yang bagus?</text>
  </g>
  <g stroke-linecap="round">
    <g transform="translate(206.27740478515648 133.17447335249625) rotate(0 56.704180249743956 0.39288651615945014)">
      <path d="M-0.13 -0.11 C18.89 -0.12, 95.96 0.19, 115.06 0.43 M-1.66 -1.21 C17.18 -1.06, 95.27 1.88, 114.51 1.99" stroke="#000000" stroke-width="1" fill="none"/>
    </g>
    <g transform="translate(206.27740478515648 133.17447335249625) rotate(0 56.704180249743956 0.39288651615945014)">
      <path d="M85.91 12.83 C96.95 8.24, 109.24 3.31, 113.42 2.13 M86.1 11.01 C96.83 7.95, 104.7 5.38, 115.45 1.33" stroke="#000000" stroke-width="1" fill="none"/>
    </g>
    <g transform="translate(206.27740478515648 133.17447335249625) rotate(0 56.704180249743956 0.39288651615945014)">
      <path d="M86.39 -7.68 C97.34 -4.46, 109.45 -1.58, 113.42 2.13 M86.59 -9.51 C97.12 -5.54, 104.83 -1.09, 115.45 1.33" stroke="#000000" stroke-width="1" fill="none"/>
    </g>
  </g>
  <mask/>
  <g stroke-linecap="round" transform="translate(323.9015197753906 68.48533630371094) rotate(0 96.59158325195312 61.79759216308594)">
    <path d="M4.51 11.87 C4.51 11.87, 4.51 11.87, 4.51 11.87 M4.51 11.87 C4.51 11.87, 4.51 11.87, 4.51 11.87 M0.97 22.05 C5.07 18.47, 10.84 12.56, 14.75 6.2 M0.97 22.05 C6.89 17.28, 11.56 11.37, 14.75 6.2 M2.68 26.18 C8.18 17.83, 15.39 9.9, 24.33 1.27 M2.68 26.18 C8.71 19.48, 13.48 13.68, 24.33 1.27 M3.07 31.82 C13.66 20.99, 25.31 8.05, 29.97 0.88 M3.07 31.82 C12.68 20.02, 22.08 9.09, 29.97 0.88 M2.81 38.22 C13.93 23.67, 25.83 11.65, 33.65 2.75 M2.81 38.22 C10.29 30.02, 15.78 23.64, 33.65 2.75 M3.21 43.86 C11.21 33.2, 18.73 26.87, 39.29 2.35 M3.21 43.86 C14.26 31.09, 26 18.25, 39.29 2.35 M2.95 50.26 C11.05 39.84, 21.37 28.03, 44.28 2.71 M2.95 50.26 C18.98 31.92, 35.33 12.54, 44.28 2.71 M2.68 56.66 C19.19 38.48, 36.05 18.89, 49.92 2.32 M2.68 56.66 C14.2 42.85, 27.08 26.95, 49.92 2.32 M3.08 62.3 C16.41 48.2, 31.73 30.73, 54.91 2.68 M3.08 62.3 C17.8 44.58, 33.19 28.08, 54.91 2.68 M2.82 68.7 C16.34 53.51, 31.98 33.31, 60.55 2.29 M2.82 68.7 C21.46 47.45, 40.11 26.44, 60.55 2.29 M3.21 74.34 C17.13 54.82, 31.41 36.93, 65.54 2.65 M3.21 74.34 C19.11 54.81, 34.78 37.65, 65.54 2.65 M2.95 80.74 C18.79 66.98, 32.14 48.23, 71.18 2.25 M2.95 80.74 C28.26 51.07, 53.03 23.3, 71.18 2.25 M2.69 87.14 C32.29 54.92, 62.9 21.29, 76.17 2.61 M2.69 87.14 C18.58 68.04, 37.33 48.82, 76.17 2.61 M3.08 92.78 C21.23 71.67, 40.94 51.31, 81.81 2.22 M3.08 92.78 C27.62 65.66, 49.42 39.51, 81.81 2.22 M1.51 100.69 C35.8 62.83, 69.01 21.34, 86.8 2.58 M1.51 100.69 C35.23 62.11, 67.9 24.61, 86.8 2.58 M3.22 104.82 C23.1 79.64, 45.16 57.49, 92.44 2.18 M3.22 104.82 C26.77 78.94, 50.96 50.53, 92.44 2.18 M4.27 109.71 C26.27 84.41, 45.06 60.52, 97.43 2.54 M4.27 109.71 C35.03 72.6, 66.78 36.97, 97.43 2.54 M6.63 113.09 C37.4 74.92, 71 40.5, 102.42 2.9 M6.63 113.09 C29.24 90.9, 48.26 65.52, 102.42 2.9 M8.99 116.47 C44.49 78.61, 80.17 35.99, 108.06 2.51 M8.99 116.47 C36.42 86.15, 61.7 56.28, 108.06 2.51 M12.01 119.09 C33.73 92.38, 54.36 66.89, 113.05 2.87 M12.01 119.09 C44.03 81.25, 75.96 45.36, 113.05 2.87 M15.03 121.72 C44.15 86.53, 74.29 50.03, 118.69 2.47 M15.03 121.72 C37.52 95.63, 58.99 70.2, 118.69 2.47 M19.36 122.83 C63.02 77.85, 101.57 28.25, 123.68 2.83 M19.36 122.83 C55.97 80.18, 94.29 37.41, 123.68 2.83 M24.35 123.19 C53.89 89.81, 82.09 56.17, 129.32 2.44 M24.35 123.19 C50.01 94.51, 74.29 66.95, 129.32 2.44 M29.34 123.55 C58.81 86.84, 88.83 51.56, 134.31 2.8 M29.34 123.55 C66.13 79.82, 101.87 37.79, 134.31 2.8 M33.01 125.42 C56.53 97.99, 78.58 70.12, 139.95 2.4 M33.01 125.42 C73.4 79.2, 114.44 31.84, 139.95 2.4 M38 125.78 C76.63 79.3, 119.35 34.19, 144.94 2.76 M38 125.78 C71.22 87.01, 103.14 48.54, 144.94 2.76 M43.64 125.39 C71.88 94.04, 103.61 56.99, 150.58 2.37 M43.64 125.39 C80.46 81.66, 118.75 38.97, 150.58 2.37 M48.63 125.75 C74.31 94.93, 99.89 66.91, 155.57 2.73 M48.63 125.75 C79.27 90.47, 109.67 53.76, 155.57 2.73 M54.27 125.35 C88.44 85.79, 125.33 44.01, 162.52 0.83 M54.27 125.35 C80.99 96.41, 105.77 65.8, 162.52 0.83 M59.26 125.71 C93.97 86.17, 129.4 42.87, 167.51 1.19 M59.26 125.71 C99.12 81.79, 136.09 37.59, 167.51 1.19 M64.9 125.32 C97.92 88.49, 129.73 50.22, 172.49 1.55 M64.9 125.32 C106.48 79.9, 147.68 32.5, 172.49 1.55 M69.89 125.68 C113.64 78.95, 151.55 31.83, 176.83 2.66 M69.89 125.68 C110.98 79.82, 150.47 32.59, 176.83 2.66 M75.53 125.28 C102.13 96.55, 126.82 66.38, 180.5 4.53 M75.53 125.28 C107 88.64, 137.99 51.08, 180.5 4.53 M80.52 125.64 C102.71 99.84, 124.01 75.93, 184.18 6.4 M80.52 125.64 C110.64 92.66, 138.34 58.15, 184.18 6.4 M86.16 125.25 C112.99 95.44, 137.25 68.54, 186.54 9.78 M86.16 125.25 C123.48 82.45, 162.76 37.96, 186.54 9.78 M91.15 125.61 C122.05 90.45, 151.11 54.48, 189.56 12.4 M91.15 125.61 C127.41 84.76, 162.31 45.91, 189.56 12.4 M96.79 125.21 C127.71 89.03, 153.45 58.64, 190.61 17.29 M96.79 125.21 C131.97 85.41, 167.71 44.55, 190.61 17.29 M101.78 125.58 C122.9 99.19, 147.89 71.65, 192.31 21.43 M101.78 125.58 C135.19 88.28, 166.65 51.27, 192.31 21.43 M107.42 125.18 C135.77 95.23, 158.24 64.05, 194.68 24.8 M107.42 125.18 C132.47 95.15, 159.53 64.98, 194.68 24.8 M112.41 125.54 C139.07 94.03, 164.75 64.01, 194.42 31.2 M112.41 125.54 C131.53 101.23, 151.6 79.22, 194.42 31.2 M118.05 125.15 C146.52 95.24, 174.32 63.82, 194.15 37.6 M118.05 125.15 C145.85 91.77, 175.2 60.18, 194.15 37.6 M123.04 125.51 C141.96 104.27, 158.18 84.1, 194.55 43.24 M123.04 125.51 C149.57 93.26, 178.29 62.39, 194.55 43.24 M128.68 125.11 C148.31 100.53, 171.61 78.61, 194.29 49.64 M128.68 125.11 C143.65 108.99, 156.56 93.07, 194.29 49.64 M133.67 125.47 C150.95 109.31, 165.55 91.53, 194.68 55.28 M133.67 125.47 C155.86 100.2, 179 73.22, 194.68 55.28 M139.31 125.08 C157.22 105.02, 172.52 87.67, 194.42 61.68 M139.31 125.08 C155.77 105.92, 170.18 88.75, 194.42 61.68 M144.3 125.44 C155.5 112.1, 168.37 99.31, 194.82 67.32 M144.3 125.44 C156.55 112.58, 167.07 97.73, 194.82 67.32 M149.29 125.8 C161.53 110.48, 174.01 97.17, 194.55 73.72 M149.29 125.8 C162.56 111.51, 173.56 97.83, 194.55 73.72 M154.93 125.4 C169.21 106.49, 183.56 89.73, 194.95 79.37 M154.93 125.4 C170.62 108.34, 184.86 90.76, 194.95 79.37 M159.92 125.76 C172.54 112.96, 186.54 96.72, 194.69 85.76 M159.92 125.76 C168.68 115.35, 175.97 105.91, 194.69 85.76 M164.9 126.12 C174.67 113.27, 185.76 102.87, 193.77 92.92 M164.9 126.12 C173.57 116.7, 181.92 106.84, 193.77 92.92 M171.2 124.97 C176.26 119.66, 184.19 111.84, 192.85 100.07 M171.2 124.97 C178.6 116.32, 184.85 108.07, 192.85 100.07 M181.44 119.3 C183.22 116.95, 186.46 114.48, 189.31 110.24 M181.44 119.3 C183.05 117.47, 184.86 114.95, 189.31 110.24" stroke="#12b886" stroke-width="0.5" fill="none"/>
    <path d="M30.9 0 M30.9 0 C69.83 1.08, 111.19 1.43, 162.28 0 M30.9 0 C63.85 -0.3, 95.34 1.37, 162.28 0 M162.28 0 C182.17 -1.66, 193.64 11.51, 193.18 30.9 M162.28 0 C180.89 1.34, 191.11 9.19, 193.18 30.9 M193.18 30.9 C193.56 49.18, 192.61 63.93, 193.18 92.7 M193.18 30.9 C193.15 43.53, 193.55 57.52, 193.18 92.7 M193.18 92.7 C193.85 114.58, 184.22 122.55, 162.28 123.6 M193.18 92.7 C191.59 112.54, 183.84 125.09, 162.28 123.6 M162.28 123.6 C135.22 123.93, 107.43 121.52, 30.9 123.6 M162.28 123.6 C118.25 124.54, 74.14 123.9, 30.9 123.6 M30.9 123.6 C12.12 121.61, 0.47 115, 0 92.7 M30.9 123.6 C11.42 121.41, 1.47 114.77, 0 92.7 M0 92.7 C-2.31 70.24, -0.7 47.54, 0 30.9 M0 92.7 C-0.64 79.01, -0.36 64.87, 0 30.9 M0 30.9 C-1.37 11.02, 9.47 -1.9, 30.9 0 M0 30.9 C-1.91 10.58, 8.54 2.02, 30.9 0" stroke="#000000" stroke-width="1" fill="none"/>
  </g>
  <g transform="translate(332.0931701660156 92.78292846679688) rotate(0 88.39993286132812 37.5)">
    <text x="88.39993286132812" y="0" font-family="Virgil, Segoe UI Emoji" font-size="20px" fill="#000000" text-anchor="middle" style="white-space: pre;" direction="ltr" dominant-baseline="text-before-edge">1984, Lord of the</text>
    <text x="88.39993286132812" y="25" font-family="Virgil, Segoe UI Emoji" font-size="20px" fill="#000000" text-anchor="middle" style="white-space: pre;" direction="ltr" dominant-baseline="text-before-edge">Rings, The Kite </text>
    <text x="88.39993286132812" y="50" font-family="Virgil, Segoe UI Emoji" font-size="20px" fill="#000000" text-anchor="middle" style="white-space: pre;" direction="ltr" dominant-baseline="text-before-edge">Runner</text>
  </g>
  <g transform="translate(51.263763427734375 10) rotate(0 44.919960021972656 12.5)">
    <text x="0" y="0" font-family="Virgil, Segoe UI Emoji" font-size="20px" fill="#000000" text-anchor="start" style="white-space: pre;" direction="ltr" dominant-baseline="text-before-edge">Sebuah Prompt</text>
  </g>
  <g transform="translate(350.3423080444336 11.085235595703125) rotate(0 66.83993530273438 12.5)">
    <text x="0" y="0" font-family="Virgil, Segoe UI Emoji" font-size="20px" fill="#000000" text-anchor="start" style="white-space: pre;" direction="ltr" dominant-baseline="text-before-edge">Output Model</text>
  </g>
</svg>
