<?xml version="1.0"?>
<svg xmlns="http://www.w3.org/2000/svg" version="1.1" viewBox="0 0 528.5075378417969 225.41986083984375" width="1057.0150756835938" height="450.8397216796875">
  <!-- svg-source:excalidraw -->
  <defs>
    <style class="style-fonts">
      @font-face {
        font-family: "Virgil";
        src: url("https://excalidraw.com/Virgil.woff2");
      }
      @font-face {
        font-family: "Cascadia";
        src: url("https://excalidraw.com/Cascadia.woff2");
      }
    </style>
  </defs>
  <rect x="0" y="0" width="528.5075378417969" height="225.41986083984375" fill="#ffffff"/>
  <g stroke-linecap="round" transform="translate(10 65.41986083984375) rotate(0 96.59158325195312 75)">
    <path d="M7.86 8.16 C7.86 8.16, 7.86 8.16, 7.86 8.16 M7.86 8.16 C7.86 8.16, 7.86 8.16, 7.86 8.16 M3.66 19.09 C7.57 13.07, 11.47 10.05, 18.1 2.48 M3.66 19.09 C7.4 15.69, 11.31 10.19, 18.1 2.48 M2.75 26.24 C13.32 16.52, 19.42 5.61, 24.4 1.33 M2.75 26.24 C6.47 19.85, 12.65 16.01, 24.4 1.33 M2.48 32.64 C14.49 20.24, 23.84 8.04, 30.7 0.18 M2.48 32.64 C13.09 21.76, 23.48 8.87, 30.7 0.18 M2.88 38.28 C17.27 23.16, 29.27 11.03, 34.37 2.05 M2.88 38.28 C12.83 28.29, 21.38 16.59, 34.37 2.05 M2.62 44.68 C14.77 30.02, 31.06 14.72, 39.36 2.41 M2.62 44.68 C9.99 35.74, 17.27 27.34, 39.36 2.41 M2.36 51.07 C17.49 34.59, 28.3 22.04, 45 2.02 M2.36 51.07 C13.91 36.78, 26.06 24.39, 45 2.02 M2.75 56.72 C12.34 44.34, 25.27 32.5, 49.99 2.38 M2.75 56.72 C20.29 37.06, 38.74 15.82, 49.99 2.38 M2.49 63.11 C21.66 41.58, 37.02 19.37, 55.63 1.98 M2.49 63.11 C21.38 41.58, 40.78 19.89, 55.63 1.98 M2.23 69.51 C17.09 54.51, 32.17 34.64, 60.62 2.34 M2.23 69.51 C14.26 56.03, 26.2 43.03, 60.62 2.34 M2.62 75.16 C16.9 59.95, 28.55 47.06, 66.26 1.95 M2.62 75.16 C24.47 50.55, 46.52 24.73, 66.26 1.95 M2.36 81.55 C23.43 58.38, 45.67 32.25, 71.25 2.31 M2.36 81.55 C24.14 56.93, 46.08 32.13, 71.25 2.31 M2.1 87.95 C23.55 65.88, 42.64 42.5, 76.89 1.91 M2.1 87.95 C28.72 57.58, 53.44 27.4, 76.89 1.91 M2.49 93.59 C27.62 64.62, 53.08 35.81, 81.88 2.27 M2.49 93.59 C24.61 67.49, 47.81 41.89, 81.88 2.27 M2.23 99.99 C35.25 62.99, 67.2 23.99, 87.52 1.88 M2.23 99.99 C36.84 60.55, 70.26 23.41, 87.52 1.88 M1.97 106.39 C24.37 77.82, 47.29 52.11, 92.51 2.24 M1.97 106.39 C20.64 85.78, 39.93 64.18, 92.51 2.24 M2.37 112.03 C29.57 81.36, 60.2 48.87, 98.15 1.85 M2.37 112.03 C23.92 88.3, 43.71 63.29, 98.15 1.85 M1.45 119.19 C42.79 72.17, 82.55 26.56, 103.14 2.21 M1.45 119.19 C32.76 85.48, 62.92 49.69, 103.14 2.21 M1.84 124.83 C42.33 77.82, 82.21 31.81, 108.78 1.81 M1.84 124.83 C35.61 84.69, 71.81 43.77, 108.78 1.81 M2.89 129.72 C33.67 92.91, 64.43 60.54, 113.77 2.17 M2.89 129.72 C36.54 90.29, 69.95 52.13, 113.77 2.17 M4.6 133.85 C42.29 93.75, 77.31 47.91, 119.41 1.78 M4.6 133.85 C41.37 91.81, 78.9 49.91, 119.41 1.78 M6.31 137.98 C43.48 96.56, 78.43 57.12, 124.4 2.14 M6.31 137.98 C38.99 100.55, 73.19 61.85, 124.4 2.14 M8.01 142.12 C42.52 102.2, 75.29 67.07, 130.04 1.74 M8.01 142.12 C46.68 97.41, 85.69 54.17, 130.04 1.74 M11.69 143.99 C57.51 92.77, 100 41.44, 135.03 2.1 M11.69 143.99 C40.71 109.6, 69.59 76.02, 135.03 2.1 M14.71 146.61 C50.41 107.84, 83.28 69.81, 140.67 1.71 M14.71 146.61 C63.09 91.92, 111.69 38.08, 140.67 1.71 M18.38 148.48 C46.48 117.34, 75.04 82.54, 145.66 2.07 M18.38 148.48 C53.56 107.84, 87.55 66.27, 145.66 2.07 M23.37 148.84 C72.64 92.25, 122.3 33.3, 150.65 2.43 M23.37 148.84 C57.88 106.36, 94.29 66.68, 150.65 2.43 M27.7 149.96 C71.9 100.01, 112.57 50.44, 156.29 2.03 M27.7 149.96 C58.19 115.45, 89.45 78.03, 156.29 2.03 M32.69 150.32 C60.66 116.64, 91.61 82.89, 162.59 0.88 M32.69 150.32 C77.92 101.41, 121.86 51.16, 162.59 0.88 M37.67 150.68 C88.22 92.82, 140.21 33.32, 166.92 2 M37.67 150.68 C79.27 104.7, 119.5 56.76, 166.92 2 M43.32 150.28 C73.64 114.89, 103.41 79, 171.91 2.36 M43.32 150.28 C91.83 96.73, 139.35 40.33, 171.91 2.36 M48.3 150.64 C98.95 93.22, 148.04 34.42, 176.24 3.47 M48.3 150.64 C96.96 95.22, 147.14 38.94, 176.24 3.47 M53.95 150.25 C95.3 101.25, 137.22 53.42, 179.91 5.34 M53.95 150.25 C97.99 99.98, 141.8 49.97, 179.91 5.34 M58.94 150.61 C85.82 122.15, 109.75 89.25, 183.59 7.21 M58.94 150.61 C88.66 114.51, 120.31 79, 183.59 7.21 M64.58 150.21 C102.03 105.32, 140.81 60.14, 186.61 9.84 M64.58 150.21 C103.37 104.33, 144.18 57.67, 186.61 9.84 M69.57 150.57 C114.11 100.7, 158.69 48.69, 188.97 13.22 M69.57 150.57 C103.37 112.92, 135.21 75.57, 188.97 13.22 M75.21 150.18 C106.87 113.54, 138.05 77.3, 191.33 16.59 M75.21 150.18 C113.8 105.23, 152.23 60.92, 191.33 16.59 M80.2 150.54 C112.53 114.49, 144.55 76.16, 193.69 19.97 M80.2 150.54 C116.54 108.16, 153.9 66.26, 193.69 19.97 M85.84 150.14 C123.61 106.19, 160.66 64.66, 194.09 25.62 M85.84 150.14 C117.33 114.35, 149.66 76.96, 194.09 25.62 M90.83 150.5 C116.77 119.72, 142.11 91.64, 193.83 32.01 M90.83 150.5 C131.26 106, 168.43 62.33, 193.83 32.01 M96.47 150.11 C130.68 108.43, 166.99 66.59, 193.57 38.41 M96.47 150.11 C120.62 122.64, 145.29 93.56, 193.57 38.41 M101.46 150.47 C122.75 126.74, 144.68 104.56, 193.3 44.81 M101.46 150.47 C133.96 112.71, 167.87 74.43, 193.3 44.81 M106.44 150.83 C128.2 127.42, 148.42 103.8, 193.7 50.45 M106.44 150.83 C141.57 111.58, 175.58 71.13, 193.7 50.45 M112.09 150.43 C133.39 127.14, 151.05 106.2, 193.44 56.85 M112.09 150.43 C137 119.53, 162.42 91.03, 193.44 56.85 M117.07 150.8 C140.73 122.01, 167.05 96.69, 193.18 63.25 M117.07 150.8 C134.75 131.34, 152.23 111.35, 193.18 63.25 M122.72 150.4 C138.29 128.62, 155.68 112.57, 193.57 68.89 M122.72 150.4 C137.81 132.6, 153.48 114.57, 193.57 68.89 M127.7 150.76 C146.2 131.03, 164.12 109.2, 193.31 75.29 M127.7 150.76 C152.9 121.22, 177.51 92.23, 193.31 75.29 M133.35 150.37 C157.75 122.77, 179.91 96.38, 193.05 81.69 M133.35 150.37 C154.14 126.46, 173.74 103.7, 193.05 81.69 M138.33 150.73 C152.71 137.53, 163.24 119.25, 193.44 87.33 M138.33 150.73 C151.23 137.11, 162.34 122.83, 193.44 87.33 M143.98 150.33 C159.32 131.77, 178.98 111.28, 193.18 93.73 M143.98 150.33 C160.63 130.83, 175.56 114.35, 193.18 93.73 M148.96 150.69 C157.62 139.12, 166.44 127.78, 192.92 100.13 M148.96 150.69 C157.56 140.04, 167.69 130.33, 192.92 100.13 M154.61 150.3 C164.67 139.87, 174.31 128.12, 193.31 105.77 M154.61 150.3 C166.4 138.15, 177.8 123.71, 193.31 105.77 M159.59 150.66 C168.49 140.7, 176.83 131.73, 193.05 112.17 M159.59 150.66 C170.91 137.49, 183.63 123.78, 193.05 112.17 M163.92 151.77 C172.11 139.52, 184.63 129.77, 192.79 118.56 M163.92 151.77 C172.53 142.12, 181.5 131.13, 192.79 118.56 M169.57 151.38 C178.57 141.59, 184.92 133.7, 193.18 124.21 M169.57 151.38 C179.22 140.41, 188.61 131.36, 193.18 124.21 M176.52 149.47 C180.04 142.93, 184.89 141.74, 191.61 132.11 M176.52 149.47 C179.05 145.89, 183.59 141.9, 191.61 132.11" stroke="#4c6ef5" stroke-width="0.5" fill="none"/>
    <path d="M32 0 M32 0 C62.43 -1.61, 94.98 1.32, 161.18 0 M32 0 C81.04 0.03, 127.72 -1.86, 161.18 0 M161.18 0 C181.19 0.89, 192.41 10.46, 193.18 32 M161.18 0 C183.95 2.27, 191.57 9.79, 193.18 32 M193.18 32 C192.41 52.7, 193.45 75.64, 193.18 118 M193.18 32 C192.66 52.34, 191.78 71.93, 193.18 118 M193.18 118 C194.82 139.39, 182.37 148.48, 161.18 150 M193.18 118 C191.59 137.4, 181.45 150.72, 161.18 150 M161.18 150 C126.35 150.31, 93.94 149.08, 32 150 M161.18 150 C113.77 150.24, 67.75 149.16, 32 150 M32 150 C10.6 149.25, 1.21 140.21, 0 118 M32 150 C9.76 148.24, -0.71 140.83, 0 118 M0 118 C-1.13 95.47, 0.53 73.11, 0 32 M0 118 C0.36 96.58, 0.65 74.36, 0 32 M0 32 C-1.84 10.92, 9.6 -1.78, 32 0 M0 32 C0.81 10.8, 8.59 -1.81, 32 0" stroke="#000000" stroke-width="1" fill="none"/>
  </g>
  <g transform="translate(18.041648864746094 90.41986083984375) rotate(0 88.54993438720703 50)">
    <text x="88.54993438720703" y="0" font-family="Virgil, Segoe UI Emoji" font-size="20px" fill="#000000" text-anchor="middle" style="white-space: pre;" direction="ltr" dominant-baseline="text-before-edge">Kamu adalah </text>
    <text x="88.54993438720703" y="25" font-family="Virgil, Segoe UI Emoji" font-size="20px" fill="#000000" text-anchor="middle" style="white-space: pre;" direction="ltr" dominant-baseline="text-before-edge">Shakespeare, seorang </text>
    <text x="88.54993438720703" y="50" font-family="Virgil, Segoe UI Emoji" font-size="20px" fill="#000000" text-anchor="middle" style="white-space: pre;" direction="ltr" dominant-baseline="text-before-edge">Penulis dari Inggris. </text>
    <text x="88.54993438720703" y="75" font-family="Virgil, Segoe UI Emoji" font-size="20px" fill="#000000" text-anchor="middle" style="white-space: pre;" direction="ltr" dominant-baseline="text-before-edge">Tuliskan sebuah pusisi. </text>
  </g>
  <g stroke-linecap="round">
    <g transform="translate(205.5176010074846 146.5434724379221) rotate(0 58.56330570228101 -0.6473650928477355)">
      <path d="M-1.14 0.01 C18.36 -0.26, 96.09 -1.3, 115.88 -1.3 M0.46 -1.04 C20.47 -1.17, 98.78 0.09, 118.27 -0.06" stroke="#000000" stroke-width="1" fill="none"/>
    </g>
    <g transform="translate(205.5176010074846 146.5434724379221) rotate(0 58.56330570228101 -0.6473650928477355)">
      <path d="M90.03 9.01 C94.82 10.02, 102.79 5.6, 118.18 1.59 M90.58 9.72 C99.42 6.23, 110.28 2.85, 118.36 -0.86" stroke="#000000" stroke-width="1" fill="none"/>
    </g>
    <g transform="translate(205.5176010074846 146.5434724379221) rotate(0 58.56330570228101 -0.6473650928477355)">
      <path d="M90.15 -11.51 C94.96 -6.31, 102.91 -6.54, 118.18 1.59 M90.7 -10.8 C99.5 -7.13, 110.32 -3.36, 118.36 -0.86" stroke="#000000" stroke-width="1" fill="none"/>
    </g>
  </g>
  <mask/>
  <g stroke-linecap="round" transform="translate(324.5075378417969 66.84574890136719) rotate(0 97 74)">
    <path d="M7.86 8.16 C7.86 8.16, 7.86 8.16, 7.86 8.16 M7.86 8.16 C7.86 8.16, 7.86 8.16, 7.86 8.16 M3.66 19.09 C8.74 13.86, 11.66 8.66, 18.1 2.48 M3.66 19.09 C7.45 14.94, 11.41 8.28, 18.1 2.48 M2.75 26.24 C10.05 14.71, 20.89 8.65, 24.4 1.33 M2.75 26.24 C8.45 20.91, 14.08 14.51, 24.4 1.33 M2.48 32.64 C13.15 21.07, 24.3 7.02, 30.7 0.18 M2.48 32.64 C11.33 22.69, 21.24 11.3, 30.7 0.18 M2.88 38.28 C17.24 23.88, 26.39 7.78, 34.37 2.05 M2.88 38.28 C12.5 28.09, 22.31 15.33, 34.37 2.05 M2.62 44.68 C12.07 33.75, 17.45 28.24, 39.36 2.41 M2.62 44.68 C12.95 33.39, 22.07 21.27, 39.36 2.41 M2.36 51.07 C20.13 31.63, 33.77 15.11, 45 2.02 M2.36 51.07 C14.07 37.08, 24.65 25.43, 45 2.02 M2.75 56.72 C14.14 44.64, 24.54 29.61, 49.99 2.38 M2.75 56.72 C13.2 44.94, 23.5 32.71, 49.99 2.38 M2.49 63.11 C19.31 43.51, 40.73 19.41, 55.63 1.98 M2.49 63.11 C20.31 41.64, 38.85 20.78, 55.63 1.98 M2.23 69.51 C19.42 44.69, 41.99 22.2, 60.62 2.34 M2.23 69.51 C23.96 43.38, 45.93 19.63, 60.62 2.34 M2.62 75.16 C28.76 47.98, 50.47 18.99, 66.26 1.95 M2.62 75.16 C17.46 58.49, 31.12 40.26, 66.26 1.95 M2.36 81.55 C18.52 62.19, 37.06 43.79, 71.25 2.31 M2.36 81.55 C26.52 53.13, 48.65 25.2, 71.25 2.31 M2.1 87.95 C26.39 61.34, 50.13 34.47, 76.89 1.91 M2.1 87.95 C28.36 58.34, 54.38 26.93, 76.89 1.91 M2.49 93.59 C24.62 67.87, 48.05 41.34, 81.88 2.27 M2.49 93.59 C26.18 67.25, 50.47 40.21, 81.88 2.27 M2.23 99.99 C30.08 70.4, 54.52 38.24, 87.52 1.88 M2.23 99.99 C33.29 64.23, 63.22 30.84, 87.52 1.88 M1.97 106.39 C25.05 79.86, 44.96 56.2, 92.51 2.24 M1.97 106.39 C20.63 85.11, 38.58 62.64, 92.51 2.24 M2.37 112.03 C27.64 80.54, 53.37 51.19, 98.15 1.85 M2.37 112.03 C37.63 72.59, 73.11 30.89, 98.15 1.85 M2.1 118.43 C31.99 85.67, 59.18 50.86, 103.14 2.21 M2.1 118.43 C37.79 76.5, 75.81 33.4, 103.14 2.21 M3.16 123.32 C40.12 81.31, 78.63 36.99, 108.78 1.81 M3.16 123.32 C27.04 95.18, 50.79 68.65, 108.78 1.81 M2.24 130.47 C34.71 95.64, 63.05 62.41, 113.77 2.17 M2.24 130.47 C37.35 90.13, 72 49.38, 113.77 2.17 M4.6 133.85 C37.24 94.39, 72.41 52.98, 119.41 1.78 M4.6 133.85 C28.4 106.58, 52.04 79.52, 119.41 1.78 M6.96 137.23 C54.11 82.52, 100.67 29.44, 124.4 2.14 M6.96 137.23 C39.52 97.51, 73.57 58.94, 124.4 2.14 M9.33 140.61 C60.26 84.73, 106.26 29.76, 130.04 1.74 M9.33 140.61 C42.9 103.41, 74.69 65.74, 130.04 1.74 M12.35 143.23 C58.14 89.72, 103.89 40.14, 135.03 2.1 M12.35 143.23 C58.09 88.55, 104.92 35.2, 135.03 2.1 M16.02 145.1 C65.59 88.34, 114.65 29.04, 140.67 1.71 M16.02 145.1 C49.26 106.22, 81.14 68.95, 140.67 1.71 M19.69 146.97 C49.53 111.53, 81.53 78.27, 145.66 2.07 M19.69 146.97 C64.01 94.96, 110.15 40.81, 145.66 2.07 M24.03 148.09 C49.5 117.49, 80.04 86.9, 150.65 2.43 M24.03 148.09 C62.54 106.1, 98.43 64.27, 150.65 2.43 M29.01 148.45 C77.89 91.13, 128.99 34.27, 156.29 2.03 M29.01 148.45 C66.37 103.42, 106.28 59.69, 156.29 2.03 M33.34 149.56 C69.9 108.89, 102.75 65.34, 162.59 0.88 M33.34 149.56 C77.79 98.83, 121.5 47.63, 162.59 0.88 M38.99 149.17 C74.98 107.26, 109.78 64.65, 167.57 1.24 M38.99 149.17 C78.83 102.03, 120.13 56.3, 167.57 1.24 M43.97 149.53 C86 101.08, 129.3 48.39, 171.91 2.36 M43.97 149.53 C79.71 108.47, 118.36 64.66, 171.91 2.36 M49.62 149.13 C94.9 99.43, 137.61 45.42, 176.89 2.72 M49.62 149.13 C75.88 117.98, 102.46 87.42, 176.89 2.72 M54.6 149.49 C89.47 109.87, 124.07 69.31, 180.57 4.59 M54.6 149.49 C88.15 109.5, 122.17 71.68, 180.57 4.59 M60.25 149.1 C100.25 100.35, 145.35 52.02, 183.59 7.21 M60.25 149.1 C92.15 113.88, 123.71 78.56, 183.59 7.21 M65.23 149.46 C101.97 106.75, 141.69 62.79, 187.26 9.08 M65.23 149.46 C99.93 108.86, 135.3 67.89, 187.26 9.08 M70.88 149.06 C107.07 104.67, 145.85 60.83, 189.62 12.46 M70.88 149.06 C118.92 94.64, 166.47 40.38, 189.62 12.46 M75.86 149.42 C116.08 103.2, 156.46 55.99, 191.33 16.59 M75.86 149.42 C104.21 118.15, 131.57 86.33, 191.33 16.59 M81.51 149.03 C110.5 115.24, 140.57 80.51, 193.69 19.97 M81.51 149.03 C112.29 113.23, 142.71 76.67, 193.69 19.97 M86.49 149.39 C115.89 116.87, 144.2 85.19, 194.74 24.86 M86.49 149.39 C116.4 111.55, 148.42 76.15, 194.74 24.86 M92.14 148.99 C125.14 113.13, 156.07 74.27, 195.14 30.51 M92.14 148.99 C132.22 105.21, 170.51 60.16, 195.14 30.51 M97.12 149.35 C118.77 122.38, 142.41 97.72, 196.85 34.64 M97.12 149.35 C123.16 116.81, 150.35 86.07, 196.85 34.64 M102.11 149.71 C131.47 117.75, 159.72 85.1, 196.58 41.04 M102.11 149.71 C129.72 116.25, 156.39 85.79, 196.58 41.04 M107.75 149.32 C138.77 114.89, 168.46 76.23, 196.98 46.68 M107.75 149.32 C134.25 117.6, 163.24 85.88, 196.98 46.68 M112.74 149.68 C147.2 112.84, 179.53 76.16, 196.72 53.08 M112.74 149.68 C136.37 124.67, 158.11 97.82, 196.72 53.08 M118.38 149.29 C140.43 124.28, 160.62 101.89, 197.11 58.72 M118.38 149.29 C148.14 114.04, 178.1 81.41, 197.11 58.72 M123.37 149.65 C145.83 124.61, 162.97 103.49, 196.85 65.12 M123.37 149.65 C139.21 130.74, 156.58 111.62, 196.85 65.12 M129.01 149.25 C149.84 127.56, 171 101.08, 196.59 71.52 M129.01 149.25 C152.3 123.36, 176.08 95.86, 196.59 71.52 M134 149.61 C156.61 122.72, 183.19 95.96, 196.98 77.16 M134 149.61 C157.9 122.67, 180.97 95.88, 196.98 77.16 M139.64 149.22 C159.45 123.56, 180.27 102.04, 196.72 83.56 M139.64 149.22 C159.53 126.5, 179.94 102.44, 196.72 83.56 M144.63 149.58 C155.96 135.28, 168.93 121.99, 196.46 89.95 M144.63 149.58 C165.19 126.7, 183.36 105.04, 196.46 89.95 M150.27 149.18 C161.08 133.19, 173.63 121.82, 196.86 95.6 M150.27 149.18 C160.9 136.95, 170.94 125.96, 196.86 95.6 M155.26 149.54 C168.82 133.83, 183.88 118.25, 196.59 102 M155.26 149.54 C170.33 130.25, 186.52 113.28, 196.59 102 M160.9 149.15 C172.88 137.14, 181.61 122.13, 196.33 108.39 M160.9 149.15 C168.63 140.46, 176.61 130.65, 196.33 108.39 M165.24 150.26 C172.77 142.16, 181.1 132.01, 196.73 114.04 M165.24 150.26 C173.27 141.95, 180.95 133.57, 196.73 114.04 M170.88 149.87 C179.66 141.55, 187.29 128.2, 193.84 123.45 M170.88 149.87 C179.55 140.8, 186.31 132.62, 193.84 123.45 M177.83 147.96 C183.87 141.41, 186.23 137.3, 192.92 130.61 M177.83 147.96 C181.02 143.13, 185.46 140.02, 192.92 130.61" stroke="#12b886" stroke-width="0.5" fill="none"/>
    <path d="M32 0 M32 0 C64.52 1.77, 94.7 1.71, 162 0 M32 0 C80.7 0.28, 131.77 0.56, 162 0 M162 0 C183.13 1.24, 195.97 9.26, 194 32 M162 0 C182.46 -1.13, 192.94 11.88, 194 32 M194 32 C194.17 54.28, 191.94 80.94, 194 116 M194 32 C194.07 59.76, 194.26 85.81, 194 116 M194 116 C192.48 135.95, 181.66 147.08, 162 148 M194 116 C194.72 136.47, 182.29 146.83, 162 148 M162 148 C128.79 149.63, 94.78 147.84, 32 148 M162 148 C129.02 148.48, 96.67 149.11, 32 148 M32 148 C11.54 147.21, -1.53 136.71, 0 116 M32 148 C12.16 146.84, 0.32 137.55, 0 116 M0 116 C-1.49 94.2, 0.67 72.12, 0 32 M0 116 C0.07 86.03, -0.5 57.36, 0 32 M0 32 C-1.78 11.37, 10.78 -1.81, 32 0 M0 32 C-1.81 11.78, 11 -1.8, 32 0" stroke="#000000" stroke-width="1" fill="none"/>
  </g>
  <g transform="translate(330.66761779785156 103.34574890136719) rotate(0 90.83992004394531 37.5)">
    <text x="90.83992004394531" y="0" font-family="Virgil, Segoe UI Emoji" font-size="20px" fill="#000000" text-anchor="middle" style="white-space: pre;" direction="ltr" dominant-baseline="text-before-edge">Of lovers' hearts </text>
    <text x="90.83992004394531" y="25" font-family="Virgil, Segoe UI Emoji" font-size="20px" fill="#000000" text-anchor="middle" style="white-space: pre;" direction="ltr" dominant-baseline="text-before-edge">and passion's </text>
    <text x="90.83992004394531" y="50" font-family="Virgil, Segoe UI Emoji" font-size="20px" fill="#000000" text-anchor="middle" style="white-space: pre;" direction="ltr" dominant-baseline="text-before-edge">fire...</text>
  </g>
  <g transform="translate(33.5958251953125 10) rotate(0 70.3399429321289 12.5)">
    <text x="0" y="0" font-family="Virgil, Segoe UI Emoji" font-size="20px" fill="#000000" text-anchor="start" style="white-space: pre;" direction="ltr" dominant-baseline="text-before-edge">Sebuah Role Prompt</text>
  </g>
  <g transform="translate(350.22261810302734 10.948638916015625) rotate(0 66.83993530273438 12.5)">
    <text x="0" y="0" font-family="Virgil, Segoe UI Emoji" font-size="20px" fill="#000000" text-anchor="start" style="white-space: pre;" direction="ltr" dominant-baseline="text-before-edge">Output Model</text>
  </g>
</svg>
