<?xml version="1.0"?>
<svg xmlns="http://www.w3.org/2000/svg" version="1.1" viewBox="0 0 623.7363856700904 991.6291920600062" width="1247.4727713401808" height="1983.2583841200124">
  <!-- svg-source:excalidraw -->
  <defs>
    <style class="style-fonts">
      @font-face {
        font-family: "Virgil";
        src: url("https://excalidraw.com/Virgil.woff2");
      }
      @font-face {
        font-family: "Cascadia";
        src: url("https://excalidraw.com/Cascadia.woff2");
      }
    </style>
  </defs>
  <rect x="0" y="0" width="623.7363856700904" height="991.6291920600062" fill="#ffffff"/>
  <g stroke-linecap="round" transform="translate(10 511.04213961588937) rotate(0 59 59)">
    <path d="M31.35 -1.99 L97.4 1.16 L105.82 3.08 L113.48 12.57 L114.5 14.65 L117.34 27.59 L116.94 94.23 L112.63 108.39 L108.26 115.31 L100.74 114.56 L90 118.99 L22.7 116.74 L12.79 115.05 L4.09 106.22 L2.35 102.06 L-0.65 89.74 L1.38 28.22 L0.47 17.28 L2.91 13.06 L11.25 5.02 L14.83 1.85 L29.86 0.34" stroke="none" stroke-width="0" fill="#40c057"/>
    <path d="M29.5 0 M29.5 0 C41.07 -0.57, 53.27 1.65, 88.5 0 M29.5 0 C41.27 -0.69, 54.8 0.02, 88.5 0 M88.5 0 C106.57 -1.39, 118.98 9.93, 118 29.5 M88.5 0 C108.58 1.42, 116.47 11.62, 118 29.5 M118 29.5 C119.53 41.22, 120.21 55.4, 118 88.5 M118 29.5 C118.91 46.34, 118.13 61.72, 118 88.5 M118 88.5 C119.92 106.73, 110.11 116.27, 88.5 118 M118 88.5 C119.09 107.36, 107.24 115.92, 88.5 118 M88.5 118 C66.21 119.21, 44.56 117.27, 29.5 118 M88.5 118 C74.63 117.13, 61.17 117.58, 29.5 118 M29.5 118 C11 119.12, -1.81 106.5, 0 88.5 M29.5 118 C9.84 116.4, 1.21 108.7, 0 88.5 M0 88.5 C0.53 74.5, 0.3 62.37, 0 29.5 M0 88.5 C-0.8 72.08, -1.19 53.75, 0 29.5 M0 29.5 C0.83 8.01, 9.53 -1.23, 29.5 0 M0 29.5 C-0.6 10.5, 8.51 -1.11, 29.5 0" stroke="#343a40" stroke-width="4" fill="none"/>
  </g>
  <g transform="translate(59.19000244140625 547.5421396158894) rotate(0 9.80999755859375 22.5)">
    <text x="9.80999755859375" y="0" font-family="Virgil, Segoe UI Emoji" font-size="36px" fill="#000000" text-anchor="middle" style="white-space: pre;" direction="ltr" dominant-baseline="text-before-edge">I</text>
  </g>
  <g stroke-linecap="round" transform="translate(148.90753346215388 512.122205374279) rotate(0 71 59)">
    <path d="M28.14 1.01 L119.52 -0.26 L132.35 5.78 L134.35 7.67 L138.45 17.26 L141.52 29.38 L142.6 94.75 L140.93 100.74 L133.74 110.2 L124.99 117.88 L111.67 116.03 L23.37 119.35 L16.3 116.23 L7.39 110.68 L2.87 103.2 L2.16 96.09 L-0.38 22.59 L5.19 13.1 L7.34 5.61 L14.6 2.26 L30.56 0.73" stroke="none" stroke-width="0" fill="#40c057"/>
    <path d="M29.5 0 M29.5 0 C50.18 -0.12, 74.96 0.73, 112.5 0 M29.5 0 C51.09 1.09, 72.25 1.52, 112.5 0 M112.5 0 C133.23 -0.58, 143.25 10.9, 142 29.5 M112.5 0 C132.45 0.1, 141.22 7.63, 142 29.5 M142 29.5 C143.08 48.65, 143.68 69.67, 142 88.5 M142 29.5 C142.25 48.05, 142.01 65.88, 142 88.5 M142 88.5 C141.44 109.89, 132.09 118.31, 112.5 118 M142 88.5 C140.21 107.43, 130.53 119.77, 112.5 118 M112.5 118 C86.58 117.53, 66.05 118.63, 29.5 118 M112.5 118 C82.33 118.71, 51.21 118.02, 29.5 118 M29.5 118 C10.41 118.81, -1.2 109.6, 0 88.5 M29.5 118 C10.02 117.48, -0.65 109.27, 0 88.5 M0 88.5 C0.16 70.56, 1.88 52.46, 0 29.5 M0 88.5 C-1.2 76.21, 0.49 62.79, 0 29.5 M0 29.5 C0.73 9.44, 9.88 0.11, 29.5 0 M0 29.5 C1.98 11.86, 8.36 1.76, 29.5 0" stroke="#343a40" stroke-width="4" fill="none"/>
  </g>
  <g transform="translate(186.5715501857867 548.622205374279) rotate(0 33.33598327636719 22.5)">
    <text x="33.33598327636719" y="0" font-family="Virgil, Segoe UI Emoji" font-size="36px" fill="#000000" text-anchor="middle" style="white-space: pre;" direction="ltr" dominant-baseline="text-before-edge">Like</text>
  </g>
  <g stroke-linecap="round" transform="translate(342.78463502100567 421.60675619954566) rotate(0 71 59)">
    <path d="M29.01 1.87 L118 -0.27 L131.3 2.98 L134.63 6.19 L139.33 17.83 L143.13 29.88 L142.39 96.83 L140.06 102.31 L133.55 112.03 L125.44 116.19 L111.76 116.99 L23.59 115.68 L15.08 117.78 L7.49 108.95 L-0.14 101.93 L-1.13 95.8 L-1.48 23.18 L2.88 10.38 L6.97 5.86 L16.29 2.83 L27.88 0.55" stroke="none" stroke-width="0" fill="#40c057"/>
    <path d="M29.5 0 M29.5 0 C62.37 1.39, 94.27 1.08, 112.5 0 M29.5 0 C50.93 0.17, 72.2 0.67, 112.5 0 M112.5 0 C130.74 1.81, 140.64 8.19, 142 29.5 M112.5 0 C133.74 0.26, 140.01 8.49, 142 29.5 M142 29.5 C144.13 43.3, 140.97 56.38, 142 88.5 M142 29.5 C141.45 47.08, 141.14 66.86, 142 88.5 M142 88.5 C143.06 107.52, 131.18 119.88, 112.5 118 M142 88.5 C143.76 107.6, 133.57 116.73, 112.5 118 M112.5 118 C81.68 118.84, 52.48 119.01, 29.5 118 M112.5 118 C90.3 118.38, 70.08 116.83, 29.5 118 M29.5 118 C8.2 119.6, 1.65 107.19, 0 88.5 M29.5 118 C7.74 119.52, 0.68 106.4, 0 88.5 M0 88.5 C-0.58 74.39, 0.17 60.9, 0 29.5 M0 88.5 C1.35 66.69, 0.98 46.61, 0 29.5 M0 29.5 C-1.97 10.67, 10.08 -0.51, 29.5 0 M0 29.5 C1.71 9.25, 9.11 0.17, 29.5 0" stroke="#343a40" stroke-width="4" fill="none"/>
  </g>
  <g transform="translate(380.57464356592754 458.10675619954566) rotate(0 33.209991455078125 22.5)">
    <text x="33.209991455078125" y="0" font-family="Virgil, Segoe UI Emoji" font-size="36px" fill="#000000" text-anchor="middle" style="white-space: pre;" direction="ltr" dominant-baseline="text-before-edge">The</text>
  </g>
  <g stroke-linecap="round" transform="translate(341.6354406462542 565.5380812455908) rotate(0 71 59)">
    <path d="M27.58 0.69 L120.83 1.08 L129.82 6.03 L133.69 6.76 L142.16 17.84 L142.37 30.76 L141.29 96.75 L139.8 101.34 L134.65 109.11 L127.32 118.03 L114.44 118.83 L23.5 117.9 L14.96 114.41 L8.51 112.06 L3.73 101.86 L0.19 97.32 L-0.77 21.47 L4.78 10.92 L6.42 8.17 L17.03 0.12 L27.94 -0.78" stroke="none" stroke-width="0" fill="#40c057"/>
    <path d="M29.5 0 M29.5 0 C47.12 -1.29, 66.51 -2.06, 112.5 0 M29.5 0 C48.79 0.72, 66.85 0.88, 112.5 0 M112.5 0 C134.16 0.86, 141.26 11.66, 142 29.5 M112.5 0 C133.43 -0.5, 144.13 10.92, 142 29.5 M142 29.5 C139.55 52.43, 140.2 75.18, 142 88.5 M142 29.5 C141.33 47.19, 143.11 63.9, 142 88.5 M142 88.5 C143.44 109.61, 133.84 116.84, 112.5 118 M142 88.5 C144.18 106.57, 131.23 115.76, 112.5 118 M112.5 118 C85.4 115.5, 56.64 117.58, 29.5 118 M112.5 118 C80.18 118.77, 47.04 117.52, 29.5 118 M29.5 118 C9.94 119.32, -1.24 109.73, 0 88.5 M29.5 118 C9.06 119.16, 1.93 108.52, 0 88.5 M0 88.5 C-1.36 77.51, 0.62 65.4, 0 29.5 M0 88.5 C-0.98 74.14, -0.83 60.15, 0 29.5 M0 29.5 C-0.19 8.74, 11.09 1.41, 29.5 0 M0 29.5 C-0.31 9.23, 9.79 0.05, 29.5 0" stroke="#343a40" stroke-width="4" fill="none"/>
  </g>
  <g transform="translate(392.65544491871515 602.0380812455908) rotate(0 19.979995727539062 22.5)">
    <text x="19.979995727539062" y="0" font-family="Virgil, Segoe UI Emoji" font-size="36px" fill="#000000" text-anchor="middle" style="white-space: pre;" direction="ltr" dominant-baseline="text-before-edge">It</text>
  </g>
  <g stroke-linecap="round" transform="translate(346.2020067663507 716.151349923599) rotate(0 71 59)">
    <path d="M29.83 -0.77 L121.35 0.01 L131.8 5.75 L132.69 5.61 L138.9 15.95 L143.33 27.97 L143.24 96.66 L142.15 101.5 L135.74 109.35 L124.51 114.86 L112.15 117.99 L21.06 117.11 L18.38 116.1 L6.09 110.34 L1.6 99.6 L1.67 97.29 L0.06 23.67 L4.28 12.02 L6.49 7.06 L17.01 1.59 L31.4 -0.23" stroke="none" stroke-width="0" fill="#fab005"/>
    <path d="M29.5 0 M29.5 0 C53.46 -0.89, 79.14 0.8, 112.5 0 M29.5 0 C58.13 1.27, 88.14 -0.2, 112.5 0 M112.5 0 C131.96 1.63, 140.35 9.44, 142 29.5 M112.5 0 C131.1 -1.21, 140.33 8, 142 29.5 M142 29.5 C141.58 49.21, 140.56 68.06, 142 88.5 M142 29.5 C142.08 47.29, 142.94 63.44, 142 88.5 M142 88.5 C142.11 108.88, 132.65 119.13, 112.5 118 M142 88.5 C141.48 107.65, 131.6 116.17, 112.5 118 M112.5 118 C83.37 116.53, 56.97 116.05, 29.5 118 M112.5 118 C85.06 117.41, 57.22 118.91, 29.5 118 M29.5 118 C8.54 117.13, 1.96 108.61, 0 88.5 M29.5 118 C9.11 117.09, -0.27 107.71, 0 88.5 M0 88.5 C0.06 72.99, 0.82 59.2, 0 29.5 M0 88.5 C-0.5 72.14, -0.39 56.76, 0 29.5 M0 29.5 C1.23 8.61, 8.49 1.79, 29.5 0 M0 29.5 C1.14 11.23, 8.23 -1.13, 29.5 0" stroke="#343a40" stroke-width="4" fill="none"/>
  </g>
  <g transform="translate(376.63002342894833 752.651349923599) rotate(0 40.571983337402344 22.5)">
    <text x="40.571983337402344" y="0" font-family="Virgil, Segoe UI Emoji" font-size="36px" fill="#000000" text-anchor="middle" style="white-space: pre;" direction="ltr" dominant-baseline="text-before-edge">When</text>
  </g>
  <g stroke-linecap="round" transform="translate(340.06461493943607 270.5643863430405) rotate(0 71 59)">
    <path d="M28.86 0.6 L120.92 -0.38 L129.22 2.94 L133.32 7.82 L141.92 17.32 L141.71 27.86 L141.76 94.02 L141.62 101.14 L135.27 112.04 L126 115.35 L110.79 118.91 L22.05 118.68 L15.72 117.79 L7.52 112.38 L3.66 100.32 L-1.12 94.42 L0.24 23.43 L5.97 10.15 L6.51 5.7 L16.15 2.01 L30.22 -0.98" stroke="none" stroke-width="0" fill="#fab005"/>
    <path d="M29.5 0 M29.5 0 C58.25 0.39, 84.2 0.33, 112.5 0 M29.5 0 C56.01 -0.69, 83.85 -0.96, 112.5 0 M112.5 0 C133.49 -1.39, 140.85 10.38, 142 29.5 M112.5 0 C134.27 1.98, 142.88 9.06, 142 29.5 M142 29.5 C140.13 43.15, 143.5 58.04, 142 88.5 M142 29.5 C142.26 48.13, 142.82 65.21, 142 88.5 M142 88.5 C143.71 109.99, 132.21 118.08, 112.5 118 M142 88.5 C142.07 108.78, 133.54 117.54, 112.5 118 M112.5 118 C80.27 117.35, 49.62 116.27, 29.5 118 M112.5 118 C91.16 117.67, 71.26 118.45, 29.5 118 M29.5 118 C8.83 117.42, 0.79 110.11, 0 88.5 M29.5 118 C11.05 117.76, -2.05 107.62, 0 88.5 M0 88.5 C-0.7 66.48, 1.75 41.8, 0 29.5 M0 88.5 C-1.48 64.63, 0.18 42.04, 0 29.5 M0 29.5 C1.48 8.1, 8.83 0.32, 29.5 0 M0 29.5 C1.17 9, 11 0.92, 29.5 0" stroke="#343a40" stroke-width="4" fill="none"/>
  </g>
  <g transform="translate(365.52462165330326 307.0643863430405) rotate(0 45.53999328613281 22.5)">
    <text x="45.53999328613281" y="0" font-family="Virgil, Segoe UI Emoji" font-size="36px" fill="#000000" text-anchor="middle" style="white-space: pre;" direction="ltr" dominant-baseline="text-before-edge">That</text>
  </g>
  <g stroke-linecap="round" transform="translate(350.0142843931808 863.6291920600062) rotate(0 71 59)">
    <path d="M29.25 1.86 L118.29 1.93 L129.4 2.88 L134.2 5.68 L138.85 17.75 L140.89 28.48 L141.58 94.08 L142.07 102.1 L135.28 110.22 L124.83 114.55 L113.42 119.03 L24.53 116.37 L18.56 115.04 L9.07 109.16 L1.48 103.21 L-0.9 97.22 L-1.06 23.82 L2.58 10.27 L9.16 8.8 L15.06 1.07 L31.05 1.38" stroke="none" stroke-width="0" fill="#e64980"/>
    <path d="M29.5 0 M29.5 0 C62.98 -0.79, 95.84 -2.18, 112.5 0 M29.5 0 C48.41 1.12, 66.46 -0.59, 112.5 0 M112.5 0 C130.41 0.37, 141.15 10.58, 142 29.5 M112.5 0 C133.76 1.89, 139.72 11.51, 142 29.5 M142 29.5 C142.41 46.63, 141.12 66.33, 142 88.5 M142 29.5 C142.92 43.19, 142.79 56.92, 142 88.5 M142 88.5 C142.24 109.59, 133.52 116.85, 112.5 118 M142 88.5 C142.06 107.77, 133.85 118.41, 112.5 118 M112.5 118 C91.2 117.45, 72.42 115.63, 29.5 118 M112.5 118 C90.93 118.57, 70.02 118.39, 29.5 118 M29.5 118 C11.47 116.31, 1.8 110.04, 0 88.5 M29.5 118 C8.36 119.7, -0.4 106.62, 0 88.5 M0 88.5 C-0.52 71.23, -1.41 50.93, 0 29.5 M0 88.5 C0.33 66.14, 0.22 45.18, 0 29.5 M0 29.5 C-0.69 11.61, 10.89 -0.25, 29.5 0 M0 29.5 C-1.87 8.11, 10.65 1.78, 29.5 0" stroke="#343a40" stroke-width="4" fill="none"/>
  </g>
  <g transform="translate(364.6743033140792 900.1291920600062) rotate(0 56.33998107910156 22.5)">
    <text x="56.33998107910156" y="0" font-family="Virgil, Segoe UI Emoji" font-size="36px" fill="#000000" text-anchor="middle" style="white-space: pre;" direction="ltr" dominant-baseline="text-before-edge">Trains</text>
  </g>
  <g stroke-linecap="round" transform="translate(340.6479269476513 126.13988543575215) rotate(0 71 59)">
    <path d="M30.91 -0.88 L119.41 -0.81 L129.59 5.68 L135.47 6.37 L138.18 16.49 L140.64 30.36 L141.86 94.33 L138.87 99.51 L136.6 112.61 L124.57 116.4 L111.22 119.22 L23.46 116.05 L16.69 115.63 L8.9 110.48 L1.25 101.71 L2.01 96.36 L0.19 24.56 L2.33 9.69 L7.33 6.87 L16.03 3.47 L30.22 -1.43" stroke="none" stroke-width="0" fill="#e64980"/>
    <path d="M29.5 0 M29.5 0 C48.16 2.39, 63.81 0.04, 112.5 0 M29.5 0 C62.9 1.27, 94.9 0.78, 112.5 0 M112.5 0 C132.78 -0.04, 140.1 8.37, 142 29.5 M112.5 0 C132.42 -0.31, 140.93 9.72, 142 29.5 M142 29.5 C140.5 50.35, 140.99 73.89, 142 88.5 M142 29.5 C141.76 53.41, 141.84 75.22, 142 88.5 M142 88.5 C143.2 107.74, 131.51 118.49, 112.5 118 M142 88.5 C141.38 108.41, 132.81 119.74, 112.5 118 M112.5 118 C90.76 117.68, 68.19 117.16, 29.5 118 M112.5 118 C82.95 118.01, 51.88 118.41, 29.5 118 M29.5 118 C9.29 119.87, 1.25 109.94, 0 88.5 M29.5 118 C8.78 119.97, -0.22 109.28, 0 88.5 M0 88.5 C-1.27 67.75, 0.63 46.96, 0 29.5 M0 88.5 C-0.36 69.8, -0.84 51.52, 0 29.5 M0 29.5 C-1.32 10.32, 10.45 -0.9, 29.5 0 M0 29.5 C1.94 10.69, 9.3 1.44, 29.5 0" stroke="#343a40" stroke-width="4" fill="none"/>
  </g>
  <g transform="translate(364.8119436712841 162.63988543575215) rotate(0 46.83598327636719 22.5)">
    <text x="46.83598327636719" y="0" font-family="Virgil, Segoe UI Emoji" font-size="36px" fill="#000000" text-anchor="middle" style="white-space: pre;" direction="ltr" dominant-baseline="text-before-edge">Frogs</text>
  </g>
  <g transform="translate(354.22677485795066 10) rotate(0 122.41796875 45)">
    <text x="122.41796875" y="0" font-family="Virgil, Segoe UI Emoji" font-size="36px" fill="#000000" text-anchor="middle" style="white-space: pre;" direction="ltr" dominant-baseline="text-before-edge">Probabilitas</text>
    <text x="122.41796875" y="45" font-family="Virgil, Segoe UI Emoji" font-size="36px" fill="#000000" text-anchor="middle" style="white-space: pre;" direction="ltr" dominant-baseline="text-before-edge">dari token berikutnya</text>
  </g>
  <g transform="translate(532.0884211925513 907.5357978186527) rotate(0 40.82398223876953 22.5)">
    <text x="40.82398223876953" y="0" font-family="Virgil, Segoe UI Emoji" font-size="36px" fill="#000000" text-anchor="middle" style="white-space: pre;" direction="ltr" dominant-baseline="text-before-edge">0.05</text>
  </g>
  <g transform="translate(524.274112968802 601.9886919453049) rotate(0 29.573989868164062 22.5)">
    <text x="29.573989868164062" y="0" font-family="Virgil, Segoe UI Emoji" font-size="36px" fill="#000000" text-anchor="middle" style="white-space: pre;" direction="ltr" dominant-baseline="text-before-edge">0.3</text>
  </g>
  <g transform="translate(524.8760055201765 477.3560856729117) rotate(0 29.573989868164062 22.5)">
    <text x="29.573989868164062" y="0" font-family="Virgil, Segoe UI Emoji" font-size="36px" fill="#000000" text-anchor="middle" style="white-space: pre;" direction="ltr" dominant-baseline="text-before-edge">0.3</text>
  </g>
  <g transform="translate(515.5684935714798 315.90296855784504) rotate(0 33.31798553466797 22.5)">
    <text x="33.31798553466797" y="0" font-family="Virgil, Segoe UI Emoji" font-size="36px" fill="#000000" text-anchor="middle" style="white-space: pre;" direction="ltr" dominant-baseline="text-before-edge">0.15</text>
  </g>
  <g transform="translate(530.0815517200463 757.7882368850708) rotate(0 33.31798553466797 22.5)">
    <text x="33.31798553466797" y="0" font-family="Virgil, Segoe UI Emoji" font-size="36px" fill="#000000" text-anchor="middle" style="white-space: pre;" direction="ltr" dominant-baseline="text-before-edge">0.15</text>
  </g>
  <g transform="translate(512.1974682967302 166.43554984869684) rotate(0 40.82398223876953 22.5)">
    <text x="40.82398223876953" y="0" font-family="Virgil, Segoe UI Emoji" font-size="36px" fill="#000000" text-anchor="middle" style="white-space: pre;" direction="ltr" dominant-baseline="text-before-edge">0.05</text>
  </g>
</svg>
