<?xml version="1.0"?>
<svg xmlns="http://www.w3.org/2000/svg" version="1.1" viewBox="0 0 776.855789069341 489.31741435441046" width="1553.711578138682" height="978.6348287088209">
  <!-- svg-source:excalidraw -->
  <defs>
    <style class="style-fonts">
      @font-face {
        font-family: "Virgil";
        src: url("https://excalidraw.com/Virgil.woff2");
      }
      @font-face {
        font-family: "Cascadia";
        src: url("https://excalidraw.com/Cascadia.woff2");
      }
    </style>
  </defs>
  <rect x="0" y="0" width="776.855789069341" height="489.31741435441046" fill="#ffffff"/>
  <g stroke-linecap="round" transform="translate(10 363.3286115423527) rotate(0 173.08746150799516 57.994401406028885)">
    <path d="M217.5 14.5 L322.56 50.32 L333.26 55.22 L335.3 58 L334.79 59.37 L330.71 62.27 L322.56 65.68 L209.83 104.04 L186.81 110.83 L174 112.36 L165.67 111.68 L150.95 108.12 L43.5 72.5 L19.03 63.89 L12.91 60.78 L10.88 58 L11.38 56.63 L15.46 53.73 L29.23 48.31 L138.17 11.95 L161.19 5.15 L174 3.63 L182.33 4.3 L197.05 7.87 L217.5 14.5" stroke="none" stroke-width="0" fill="#40c057"/>
    <path d="M217.5 14.5 M217.5 14.5 C248.69 25.12, 279.89 35.74, 302.67 43.5 M217.5 14.5 C244.08 23.55, 270.66 32.6, 302.67 43.5 M302.67 43.5 C346.17 58, 346.17 58, 302.67 72.5 M302.67 43.5 C346.17 58, 346.17 58, 302.67 72.5 M302.67 72.5 C276.2 81.51, 249.73 90.52, 217.5 101.49 M302.67 72.5 C281.99 79.54, 261.3 86.58, 217.5 101.49 M217.5 101.49 C174 115.99, 174 115.99, 130.5 101.49 M217.5 101.49 C174 115.99, 174 115.99, 130.5 101.49 M130.5 101.49 C110.88 94.95, 91.25 88.41, 43.5 72.5 M130.5 101.49 C99.72 91.23, 68.94 80.98, 43.5 72.5 M43.5 72.5 C0 58, 0 58, 43.5 43.5 M43.5 72.5 C0 58, 0 58, 43.5 43.5 M43.5 43.5 C60.97 37.68, 78.43 31.86, 130.5 14.5 M43.5 43.5 C73.82 33.39, 104.14 23.29, 130.5 14.5 M130.5 14.5 C174 0, 174 0, 217.5 14.5 M130.5 14.5 C174 0, 174 0, 217.5 14.5" stroke="#000000" stroke-width="2" fill="none"/>
  </g>
  <g stroke-linecap="round" transform="translate(185.25352893685704 268.2138125048861) rotate(19.75379021799417 93.94368848263821 63.64085583066111)">
    <path d="M7.81 8.12 C7.81 8.12, 7.81 8.12, 7.81 8.12 M7.81 8.12 C7.81 8.12, 7.81 8.12, 7.81 8.12 M2.7 26.2 C11.41 16.17, 20.12 6.15, 25 0.54 M2.7 26.2 C10.3 17.46, 17.89 8.72, 25 0.54 M2.83 38.24 C11.72 28.01, 20.61 17.78, 34.32 2.01 M2.83 38.24 C9.88 30.13, 16.93 22.02, 34.32 2.01 M2.96 50.28 C12.3 39.54, 21.64 28.8, 44.95 1.98 M2.96 50.28 C18.87 31.98, 34.78 13.68, 44.95 1.98 M2.44 63.07 C22.69 39.78, 42.94 16.49, 55.58 1.94 M2.44 63.07 C17.34 45.93, 32.25 28.79, 55.58 1.94 M2.58 75.11 C24.84 49.5, 47.11 23.89, 66.21 1.91 M2.58 75.11 C26.22 47.91, 49.87 20.7, 66.21 1.91 M2.71 87.16 C27.78 58.32, 52.85 29.48, 76.84 1.87 M2.71 87.16 C26.18 60.16, 49.64 33.16, 76.84 1.87 M2.84 99.2 C25.69 72.91, 48.54 46.63, 87.47 1.84 M2.84 99.2 C32.78 64.76, 62.71 30.32, 87.47 1.84 M3.63 110.48 C39.62 69.08, 75.62 27.67, 98.1 1.8 M3.63 110.48 C36.61 72.55, 69.58 34.62, 98.1 1.8 M7.7 117.99 C39.57 81.34, 71.43 44.68, 108.73 1.77 M7.7 117.99 C42.96 77.43, 78.22 36.87, 108.73 1.77 M13.08 124 C47.39 84.53, 81.7 45.07, 119.36 1.73 M13.08 124 C37.93 95.42, 62.77 66.83, 119.36 1.73 M20.43 127.74 C59.09 83.27, 97.74 38.8, 129.34 2.46 M20.43 127.74 C49.88 93.86, 79.32 59.99, 129.34 2.46 M28.44 130.72 C57.74 97.01, 87.05 63.29, 139.97 2.42 M28.44 130.72 C69.22 83.8, 110.01 36.88, 139.97 2.42 M37.76 132.2 C70.84 94.13, 103.93 56.07, 150.6 2.39 M37.76 132.2 C62.56 103.66, 87.36 75.13, 150.6 2.39 M48.39 132.16 C80.29 95.46, 112.19 58.76, 159.92 3.86 M48.39 132.16 C90.64 83.56, 132.89 34.95, 159.92 3.86 M59.02 132.13 C100.62 84.27, 142.22 36.41, 171.2 3.07 M59.02 132.13 C102.58 82.01, 146.15 31.89, 171.2 3.07 M69.65 132.09 C109.26 86.53, 148.87 40.96, 178.55 6.81 M69.65 132.09 C96.46 101.24, 123.28 70.39, 178.55 6.81 M80.28 132.06 C107.68 100.54, 135.08 69.02, 183.93 12.81 M80.28 132.06 C117.19 89.6, 154.1 47.13, 183.93 12.81 M90.91 132.02 C115.45 103.79, 139.99 75.56, 188 20.33 M90.91 132.02 C127.81 89.57, 164.71 47.12, 188 20.33 M101.54 131.99 C134.98 93.52, 168.43 55.04, 188.14 32.37 M101.54 131.99 C135.5 92.92, 169.47 53.84, 188.14 32.37 M111.51 132.71 C141.91 97.73, 172.32 62.76, 188.27 44.41 M111.51 132.71 C136.96 103.44, 162.4 74.17, 188.27 44.41 M122.14 132.67 C147.64 103.34, 173.14 74.01, 188.4 56.45 M122.14 132.67 C145.66 105.62, 169.18 78.56, 188.4 56.45 M132.77 132.64 C145.04 118.52, 157.31 104.41, 187.88 69.24 M132.77 132.64 C148.8 114.21, 164.82 95.77, 187.88 69.24 M143.4 132.61 C154.31 120.05, 165.22 107.5, 188.01 81.29 M143.4 132.61 C160.87 112.51, 178.34 92.42, 188.01 81.29 M157.31 128.8 C164.93 120.03, 172.56 111.26, 188.15 93.33 M157.31 128.8 C169.25 115.06, 181.19 101.32, 188.15 93.33 M170.56 125.74 C177.65 117.59, 184.74 109.44, 188.93 104.61 M170.56 125.74 C174.94 120.71, 179.32 115.67, 188.93 104.61" stroke="#4c6ef5" stroke-width="1" fill="none"/>
    <path d="M31.82 0 M31.82 0 C77.87 0, 123.92 0, 156.07 0 M31.82 0 C80.19 0, 128.56 0, 156.07 0 M156.07 0 C177.28 0, 187.89 10.61, 187.89 31.82 M156.07 0 C177.28 0, 187.89 10.61, 187.89 31.82 M187.89 31.82 C187.89 49.11, 187.89 66.4, 187.89 95.46 M187.89 31.82 C187.89 50.04, 187.89 68.27, 187.89 95.46 M187.89 95.46 C187.89 116.67, 177.28 127.28, 156.07 127.28 M187.89 95.46 C187.89 116.67, 177.28 127.28, 156.07 127.28 M156.07 127.28 C122.19 127.28, 88.32 127.28, 31.82 127.28 M156.07 127.28 C112.53 127.28, 68.98 127.28, 31.82 127.28 M31.82 127.28 C10.61 127.28, 0 116.67, 0 95.46 M31.82 127.28 C10.61 127.28, 0 116.67, 0 95.46 M0 95.46 C0 76.63, 0 57.8, 0 31.82 M0 95.46 C0 73.77, 0 52.08, 0 31.82 M0 31.82 C0 10.61, 10.61 0, 31.82 0 M0 31.82 C0 10.61, 10.61 0, 31.82 0" stroke="transparent" stroke-width="2" fill="none"/>
  </g>
  <g stroke-linecap="round" transform="translate(210.54069464148415 187.77350262902058) rotate(0 173.08746150799516 57.994401406028885)">
    <path d="M11.56 56.43 C11.56 56.43, 11.56 56.43, 11.56 56.43 M11.56 56.43 C11.56 56.43, 11.56 56.43, 11.56 56.43 M16.29 63.19 C17.83 61.42, 19.36 59.65, 20.88 57.9 M16.29 63.19 C17.27 62.06, 18.25 60.93, 20.88 57.9 M22.98 67.68 C26.1 64.1, 29.21 60.52, 35.45 53.34 M22.98 67.68 C25.73 64.52, 28.47 61.36, 35.45 53.34 M30.99 70.66 C36.09 64.8, 41.19 58.93, 50.01 48.78 M30.99 70.66 C37.06 63.68, 43.13 56.7, 50.01 48.78 M39.65 72.89 C45.7 65.93, 51.76 58.97, 65.24 43.46 M39.65 72.89 C46.13 65.44, 52.6 58, 65.24 43.46 M47.66 75.88 C58.85 63, 70.04 50.13, 79.8 38.9 M47.66 75.88 C59.07 62.75, 70.47 49.63, 79.8 38.9 M55.66 78.86 C67.28 65.49, 78.91 52.12, 95.03 33.58 M55.66 78.86 C69.2 63.29, 82.73 47.72, 95.03 33.58 M64.32 81.09 C79.14 64.04, 93.96 47, 110.25 28.26 M64.32 81.09 C74.55 69.33, 84.77 57.57, 110.25 28.26 M72.33 84.08 C92.32 61.08, 112.31 38.09, 124.81 23.7 M72.33 84.08 C86.73 67.51, 101.14 50.93, 124.81 23.7 M80.34 87.06 C103.95 59.9, 127.56 32.73, 142.66 15.36 M80.34 87.06 C102.76 61.27, 125.18 35.48, 142.66 15.36 M89 89.29 C113.58 61.01, 138.17 32.73, 161.82 5.52 M89 89.29 C111.79 63.07, 134.58 36.86, 161.82 5.52 M97 92.27 C115.65 70.83, 134.29 49.38, 173.76 3.97 M97 92.27 C115.4 71.12, 133.79 49.96, 173.76 3.97 M105.01 95.26 C136.13 59.46, 167.25 23.65, 183.08 5.45 M105.01 95.26 C129.46 67.14, 153.9 39.01, 183.08 5.45 M113.67 97.49 C135.71 72.13, 157.76 46.77, 192.4 6.92 M113.67 97.49 C135.06 72.89, 156.44 48.29, 192.4 6.92 M121.68 100.47 C144.03 74.76, 166.39 49.04, 199.75 10.66 M121.68 100.47 C138.45 81.17, 155.23 61.88, 199.75 10.66 M129.68 103.46 C160.74 67.73, 191.8 32, 208.41 12.89 M129.68 103.46 C153.39 76.19, 177.09 48.92, 208.41 12.89 M138.35 105.69 C163.11 77.19, 187.88 48.7, 217.73 14.37 M138.35 105.69 C165.65 74.28, 192.95 42.87, 217.73 14.37 M146.35 108.67 C172.54 78.55, 198.72 48.42, 225.73 17.35 M146.35 108.67 C170.9 80.43, 195.44 52.2, 225.73 17.35 M154.36 111.66 C176.27 86.45, 198.19 61.23, 233.74 20.34 M154.36 111.66 C179.12 83.17, 203.89 54.68, 233.74 20.34 M163.67 113.13 C192.68 79.76, 221.69 46.39, 242.4 22.57 M163.67 113.13 C188.33 84.77, 212.98 56.41, 242.4 22.57 M174.31 113.1 C202.31 80.88, 230.32 48.66, 250.41 25.55 M174.31 113.1 C198.4 85.38, 222.5 57.66, 250.41 25.55 M186.9 110.8 C203.48 91.73, 220.06 72.66, 258.41 28.53 M186.9 110.8 C205.92 88.92, 224.94 67.04, 258.41 28.53 M200.81 106.99 C218.29 86.89, 235.76 66.79, 266.42 31.52 M200.81 106.99 C216.66 88.77, 232.5 70.54, 266.42 31.52 M212.1 106.2 C236.06 78.63, 260.03 51.06, 275.08 33.75 M212.1 106.2 C234.57 80.35, 257.04 54.5, 275.08 33.75 M227.32 100.88 C240.63 85.57, 253.95 70.26, 283.09 36.73 M227.32 100.88 C247.18 78.04, 267.03 55.21, 283.09 36.73 M242.54 95.56 C257.8 78.02, 273.05 60.48, 291.09 39.72 M242.54 95.56 C257.62 78.22, 272.69 60.88, 291.09 39.72 M257.11 91 C267.26 79.33, 277.41 67.65, 299.1 42.7 M257.11 91 C266.17 80.58, 275.23 70.16, 299.1 42.7 M272.33 85.68 C281.95 74.62, 291.57 63.56, 307.76 44.93 M272.33 85.68 C282.54 73.94, 292.75 62.2, 307.76 44.93 M287.56 80.37 C293.8 73.19, 300.04 66.01, 315.77 47.91 M287.56 80.37 C297.77 68.62, 307.98 56.88, 315.77 47.91 M302.78 75.05 C309.71 67.08, 316.64 59.1, 323.77 50.9 M302.78 75.05 C310.89 65.72, 319 56.39, 323.77 50.9 M317.35 70.49 C320.26 67.13, 323.18 63.77, 331.12 54.64 M317.35 70.49 C320.4 66.97, 323.46 63.45, 331.12 54.64 M13.2 61.03 C13.2 61.03, 13.2 61.03, 13.2 61.03 M13.2 61.03 C13.2 61.03, 13.2 61.03, 13.2 61.03 M22.98 58.92 C21.37 57.52, 19.75 56.12, 16.19 53.02 M22.98 58.92 C21.56 57.69, 20.14 56.45, 16.19 53.02 M46.34 68.63 C40.69 63.72, 35.04 58.81, 24.45 49.61 M46.34 68.63 C41.7 64.6, 37.06 60.56, 24.45 49.61 M66.68 75.72 C59.35 69.34, 52.02 62.97, 31.97 45.54 M66.68 75.72 C58.95 69, 51.22 62.28, 31.97 45.54 M86.27 82.14 C68.85 67, 51.43 51.86, 40.23 42.12 M86.27 82.14 C71.87 69.62, 57.46 57.1, 40.23 42.12 M105.86 88.57 C92.57 77.02, 79.28 65.46, 49.26 39.37 M105.86 88.57 C86.19 71.47, 66.52 54.37, 49.26 39.37 M125.45 95 C105.19 77.39, 84.93 59.77, 58.28 36.61 M125.45 95 C106.56 78.58, 87.68 62.16, 58.28 36.61 M151.83 107.33 C126.52 85.33, 101.21 63.33, 67.3 33.85 M151.83 107.33 C121.83 81.25, 91.83 55.17, 67.3 33.85 M166.89 109.82 C148.53 93.86, 130.17 77.9, 75.57 30.44 M166.89 109.82 C130.96 78.59, 95.03 47.35, 75.57 30.44 M177.42 108.38 C141.67 77.3, 105.93 46.23, 84.59 27.68 M177.42 108.38 C158.68 92.09, 139.95 75.81, 84.59 27.68 M189.46 108.24 C161.79 84.19, 134.11 60.13, 93.61 24.92 M189.46 108.24 C164.32 86.39, 139.19 64.54, 93.61 24.92 M198.48 105.49 C163.88 75.41, 129.28 45.33, 102.63 22.17 M198.48 105.49 C166.74 77.89, 135 50.3, 102.63 22.17 M207.5 102.73 C176.99 76.2, 146.48 49.68, 110.9 18.75 M207.5 102.73 C175.05 74.52, 142.6 46.31, 110.9 18.75 M215.02 98.66 C187.88 75.07, 160.74 51.48, 119.92 15.99 M215.02 98.66 C179.66 67.92, 144.3 37.18, 119.92 15.99 M223.28 95.24 C197.55 72.88, 171.82 50.51, 128.94 13.24 M223.28 95.24 C185.65 62.53, 148.03 29.83, 128.94 13.24 M232.3 92.49 C203.71 67.63, 175.12 42.77, 138.72 11.14 M232.3 92.49 C209.97 73.07, 187.64 53.66, 138.72 11.14 M241.33 89.73 C214.31 66.24, 187.29 42.75, 147.74 8.38 M241.33 89.73 C215.93 67.66, 190.54 45.58, 147.74 8.38 M249.59 86.32 C216.38 57.44, 183.16 28.57, 156.77 5.62 M249.59 86.32 C228.02 67.56, 206.45 48.81, 156.77 5.62 M258.62 83.56 C227.28 56.32, 195.95 29.09, 164.28 1.55 M258.62 83.56 C229.41 58.17, 200.21 32.79, 164.28 1.55 M267.64 80.8 C243.2 59.55, 218.75 38.31, 176.32 1.42 M267.64 80.8 C236.61 53.83, 205.59 26.87, 176.32 1.42 M275.91 77.39 C248.03 53.15, 220.15 28.92, 186.1 -0.68 M275.91 77.39 C248.45 53.52, 220.99 29.65, 186.1 -0.68 M284.93 74.63 C264.22 56.63, 243.5 38.62, 201.91 2.46 M284.93 74.63 C257.26 50.58, 229.59 26.53, 201.91 2.46 M293.95 71.87 C267.41 48.81, 240.88 25.74, 222.25 9.55 M293.95 71.87 C266.14 47.7, 238.33 23.52, 222.25 9.55 M302.22 68.46 C289.73 57.6, 277.24 46.74, 241.84 15.98 M302.22 68.46 C285.81 54.2, 269.41 39.94, 241.84 15.98 M311.24 65.7 C291.77 48.78, 272.31 31.86, 262.18 23.06 M311.24 65.7 C295.53 52.05, 279.83 38.4, 262.18 23.06 M323.28 65.57 C313.81 57.34, 304.34 49.1, 282.53 30.14 M323.28 65.57 C307.01 51.42, 290.73 37.27, 282.53 30.14 M330.79 61.5 C321.76 53.65, 312.72 45.79, 302.11 36.57 M330.79 61.5 C324.99 56.45, 319.18 51.41, 302.11 36.57" stroke="#40c057" stroke-width="1" fill="none"/>
    <path d="M217.5 14.5 M217.5 14.5 C243.72 23.43, 269.93 32.35, 302.67 43.5 M217.5 14.5 C238.52 21.66, 259.54 28.81, 302.67 43.5 M302.67 43.5 C346.17 58, 346.17 58, 302.67 72.5 M302.67 43.5 C346.17 58, 346.17 58, 302.67 72.5 M302.67 72.5 C281.54 79.69, 260.4 86.89, 217.5 101.49 M302.67 72.5 C279.95 80.23, 257.23 87.97, 217.5 101.49 M217.5 101.49 C174 115.99, 174 115.99, 130.5 101.49 M217.5 101.49 C174 115.99, 174 115.99, 130.5 101.49 M130.5 101.49 C109.48 94.48, 88.46 87.48, 43.5 72.5 M130.5 101.49 C98.2 90.73, 65.91 79.97, 43.5 72.5 M43.5 72.5 C0 58, 0 58, 43.5 43.5 M43.5 72.5 C0 58, 0 58, 43.5 43.5 M43.5 43.5 C65.88 36.04, 88.26 28.58, 130.5 14.5 M43.5 43.5 C61.8 37.4, 80.1 31.3, 130.5 14.5 M130.5 14.5 C174 0, 174 0, 217.5 14.5 M130.5 14.5 C174 0, 174 0, 217.5 14.5" stroke="#000000" stroke-width="2" fill="none"/>
  </g>
  <g stroke-linecap="round" transform="translate(308.03906104377074 270.3904183675866) rotate(315.95019319202055 126.08249174360526 69.55347248226423)">
    <path d="M9.5 66.56 C9.5 66.56, 9.5 66.56, 9.5 66.56 M9.5 66.56 C9.5 66.56, 9.5 66.56, 9.5 66.56 M12.26 75.58 C14.95 72.49, 17.64 69.39, 21.45 65.02 M12.26 75.58 C14.52 72.98, 16.79 70.37, 21.45 65.02 M18.95 80.08 C27.08 70.73, 35.21 61.37, 41.92 53.66 M18.95 80.08 C28.06 69.6, 37.17 59.12, 41.92 53.66 M24.99 85.33 C39.89 68.18, 54.79 51.04, 62.39 42.31 M24.99 85.33 C38.16 70.18, 51.33 55.03, 62.39 42.31 M32.34 89.06 C51.68 66.82, 71.01 44.58, 82.86 30.95 M32.34 89.06 C43.28 76.48, 54.21 63.9, 82.86 30.95 M39.69 92.8 C62.04 67.09, 84.39 41.38, 104.64 18.09 M39.69 92.8 C65.58 63.02, 91.47 33.24, 104.64 18.09 M47.04 96.54 C67.31 73.23, 87.58 49.91, 127.08 4.47 M47.04 96.54 C71.82 68.03, 96.61 39.52, 127.08 4.47 M54.39 100.28 C84.07 66.14, 113.75 32, 135.09 7.45 M54.39 100.28 C83.44 66.87, 112.49 33.45, 135.09 7.45 M61.08 104.78 C84.67 77.64, 108.26 50.51, 143.75 9.68 M61.08 104.78 C82.23 80.45, 103.38 56.12, 143.75 9.68 M68.43 108.51 C92.94 80.32, 117.46 52.12, 151.1 13.42 M68.43 108.51 C101.21 70.82, 133.98 33.12, 151.1 13.42 M75.78 112.25 C95.47 89.61, 115.15 66.97, 158.45 17.16 M75.78 112.25 C106.43 77, 137.07 41.75, 158.45 17.16 M83.13 115.99 C103.17 92.94, 123.2 69.9, 164.49 22.41 M83.13 115.99 C111.94 82.85, 140.75 49.72, 164.49 22.41 M90.48 119.73 C107.54 100.12, 124.59 80.5, 171.84 26.15 M90.48 119.73 C107.22 100.48, 123.95 81.23, 171.84 26.15 M97.18 124.23 C123.39 94.07, 149.6 63.92, 178.53 30.64 M97.18 124.23 C118.73 99.43, 140.28 74.64, 178.53 30.64 M104.53 127.96 C131.94 96.43, 159.35 64.9, 185.88 34.38 M104.53 127.96 C124.74 104.72, 144.94 81.47, 185.88 34.38 M111.88 131.7 C137.58 102.14, 163.28 72.58, 192.57 38.87 M111.88 131.7 C131.8 108.79, 151.72 85.87, 192.57 38.87 M119.88 134.69 C143.6 107.4, 167.33 80.11, 199.92 42.61 M119.88 134.69 C137.66 114.23, 155.44 93.78, 199.92 42.61 M129.2 136.16 C146.24 116.56, 163.29 96.95, 207.27 46.35 M129.2 136.16 C145.11 117.86, 161.03 99.55, 207.27 46.35 M139.83 136.13 C154.89 118.81, 169.95 101.49, 213.97 50.85 M139.83 136.13 C168.47 103.18, 197.11 70.24, 213.97 50.85 M157.02 128.55 C175.92 106.8, 194.82 85.06, 221.32 54.59 M157.02 128.55 C177.96 104.46, 198.89 80.38, 221.32 54.59 M177.49 117.19 C193.23 99.09, 208.96 80.99, 228.01 59.08 M177.49 117.19 C189.43 103.47, 201.36 89.74, 228.01 59.08 M197.96 105.84 C205.83 96.78, 213.7 87.73, 236.02 62.06 M197.96 105.84 C212.73 88.85, 227.49 71.87, 236.02 62.06 M218.43 94.48 C226.08 85.69, 233.72 76.9, 242.71 66.56 M218.43 94.48 C223.36 88.81, 228.29 83.14, 242.71 66.56" stroke="#e64980" stroke-width="1" fill="none"/>
    <path d="M158.75 17.5 M158.75 17.5 C177.7 28.26, 196.65 39.01, 220.41 52.5 M158.75 17.5 C174.33 26.34, 189.9 35.18, 220.41 52.5 M220.41 52.5 C252.16 70, 252.16 70, 220.41 87.5 M220.41 52.5 C252.16 70, 252.16 70, 220.41 87.5 M220.41 87.5 C196.74 100.59, 173.07 113.69, 158.75 121.61 M220.41 87.5 C203.81 96.68, 187.21 105.86, 158.75 121.61 M158.75 121.61 C127 139.11, 127 139.11, 95.25 121.61 M158.75 121.61 C127 139.11, 127 139.11, 95.25 121.61 M95.25 121.61 C80.71 113.8, 66.16 105.98, 31.75 87.5 M95.25 121.61 C81.72 114.34, 68.2 107.08, 31.75 87.5 M31.75 87.5 C0 70, 0 70, 31.75 52.5 M31.75 87.5 C0 70, 0 70, 31.75 52.5 M31.75 52.5 C46.34 44.46, 60.93 36.41, 95.25 17.5 M31.75 52.5 C46.27 44.49, 60.8 36.49, 95.25 17.5 M95.25 17.5 C127 0, 127 0, 158.75 17.5 M95.25 17.5 C127 0, 127 0, 158.75 17.5" stroke="transparent" stroke-width="2" fill="none"/>
  </g>
  <g stroke-linecap="round" transform="translate(395.406720438049 90.6282874154968) rotate(19.75379021799417 93.94368848263821 63.64085583066111)">
    <path d="M7.81 8.12 C7.81 8.12, 7.81 8.12, 7.81 8.12 M7.81 8.12 C7.81 8.12, 7.81 8.12, 7.81 8.12 M2.7 26.2 C10.89 16.78, 19.07 7.36, 25 0.54 M2.7 26.2 C10.84 16.83, 18.99 7.46, 25 0.54 M2.83 38.24 C10.81 29.05, 18.8 19.87, 34.32 2.01 M2.83 38.24 C13.05 26.49, 23.26 14.74, 34.32 2.01 M2.96 50.28 C13.59 38.06, 24.21 25.84, 44.95 1.98 M2.96 50.28 C16.11 35.15, 29.26 20.03, 44.95 1.98 M2.44 63.07 C21.83 40.77, 41.21 18.47, 55.58 1.94 M2.44 63.07 C15.29 48.3, 28.13 33.52, 55.58 1.94 M2.58 75.11 C18.87 56.37, 35.17 37.62, 66.21 1.91 M2.58 75.11 C27.48 46.47, 52.38 17.82, 66.21 1.91 M2.71 87.16 C29.3 56.56, 55.9 25.97, 76.84 1.87 M2.71 87.16 C29.97 55.8, 57.22 24.44, 76.84 1.87 M2.84 99.2 C25.37 73.28, 47.9 47.36, 87.47 1.84 M2.84 99.2 C32.79 64.74, 62.74 30.29, 87.47 1.84 M3.63 110.48 C25.41 85.42, 47.2 60.37, 98.1 1.8 M3.63 110.48 C28.54 81.83, 53.45 53.17, 98.1 1.8 M7.7 117.99 C43.98 76.26, 80.27 34.52, 108.73 1.77 M7.7 117.99 C47.54 72.16, 87.38 26.33, 108.73 1.77 M13.08 124 C46.19 85.91, 79.3 47.82, 119.36 1.73 M13.08 124 C53.48 77.53, 93.87 31.06, 119.36 1.73 M20.43 127.74 C52.72 90.59, 85.01 53.45, 129.34 2.46 M20.43 127.74 C47.12 97.04, 73.81 66.34, 129.34 2.46 M28.44 130.72 C69.56 83.41, 110.69 36.1, 139.97 2.42 M28.44 130.72 C68.19 84.99, 107.94 39.27, 139.97 2.42 M37.76 132.2 C63.25 102.87, 88.75 73.54, 150.6 2.39 M37.76 132.2 C69.07 96.17, 100.39 60.14, 150.6 2.39 M48.39 132.16 C82.44 92.98, 116.5 53.8, 159.92 3.86 M48.39 132.16 C84.21 90.95, 120.03 49.75, 159.92 3.86 M59.02 132.13 C101.76 82.95, 144.51 33.78, 171.2 3.07 M59.02 132.13 C81.72 106, 104.43 79.88, 171.2 3.07 M69.65 132.09 C98.01 99.47, 126.37 66.84, 178.55 6.81 M69.65 132.09 C112.34 82.98, 155.02 33.88, 178.55 6.81 M80.28 132.06 C119.8 86.59, 159.33 41.12, 183.93 12.81 M80.28 132.06 C118.55 88.02, 156.83 43.99, 183.93 12.81 M90.91 132.02 C120.89 97.53, 150.88 63.03, 188 20.33 M90.91 132.02 C127.37 90.08, 163.83 48.14, 188 20.33 M101.54 131.99 C130.31 98.89, 159.08 65.8, 188.14 32.37 M101.54 131.99 C124.64 105.41, 147.75 78.82, 188.14 32.37 M111.51 132.71 C139.27 100.78, 167.02 68.85, 188.27 44.41 M111.51 132.71 C132.04 109.09, 152.57 85.47, 188.27 44.41 M122.14 132.67 C143.68 107.89, 165.22 83.11, 188.4 56.45 M122.14 132.67 C136.91 115.69, 151.67 98.7, 188.4 56.45 M132.77 132.64 C147.4 115.81, 162.04 98.97, 187.88 69.24 M132.77 132.64 C152.2 110.28, 171.64 87.93, 187.88 69.24 M143.4 132.61 C158.45 115.3, 173.5 97.98, 188.01 81.29 M143.4 132.61 C156.97 117, 170.53 101.39, 188.01 81.29 M157.31 128.8 C166.67 118.04, 176.02 107.27, 188.15 93.33 M157.31 128.8 C166.71 117.98, 176.12 107.17, 188.15 93.33 M170.56 125.74 C176.67 118.73, 182.77 111.71, 188.93 104.61 M170.56 125.74 C174.54 121.17, 178.52 116.59, 188.93 104.61 M7.74 119.14 C7.74 119.14, 7.74 119.14, 7.74 119.14 M7.74 119.14 C7.74 119.14, 7.74 119.14, 7.74 119.14 M26.57 124.91 C17.37 116.91, 8.17 108.91, 0.91 102.6 M26.57 124.91 C21.31 120.33, 16.05 115.76, 0.91 102.6 M36.35 122.81 C26 113.81, 15.64 104.81, 0.88 91.97 M36.35 122.81 C27.43 115.05, 18.51 107.3, 0.88 91.97 M48.39 122.67 C36.4 112.26, 24.42 101.84, 0.84 81.34 M48.39 122.67 C31.57 108.05, 14.75 93.43, 0.84 81.34 M60.43 122.54 C43.28 107.63, 26.13 92.73, 0.81 70.71 M60.43 122.54 C46.2 110.17, 31.97 97.8, 0.81 70.71 M72.47 122.41 C48.56 101.62, 24.65 80.84, 0.77 60.08 M72.47 122.41 C52 104.61, 31.52 86.81, 0.77 60.08 M84.51 122.27 C58.71 99.85, 32.92 77.43, 0.74 49.45 M84.51 122.27 C61.13 101.95, 37.75 81.63, 0.74 49.45 M97.31 122.8 C67.37 96.78, 37.44 70.76, 0.7 38.82 M97.31 122.8 C71.93 100.74, 46.55 78.68, 0.7 38.82 M109.35 122.66 C75.09 92.89, 40.84 63.11, 0.67 28.19 M109.35 122.66 C77.64 95.11, 45.94 67.55, 0.67 28.19 M121.39 122.53 C77.34 84.24, 33.29 45.95, 3.65 20.19 M121.39 122.53 C87.67 93.22, 53.96 63.92, 3.65 20.19 M133.43 122.4 C94.17 88.27, 54.91 54.14, 5.88 11.52 M133.43 122.4 C84.34 79.73, 35.25 37.05, 5.88 11.52 M145.47 122.26 C104.24 86.42, 63 50.58, 10.38 4.83 M145.47 122.26 C91.87 75.67, 38.27 29.07, 10.38 4.83 M159.02 123.44 C128.12 96.58, 97.21 69.72, 18.64 1.42 M159.02 123.44 C109.07 80.02, 59.12 36.6, 18.64 1.42 M171.06 123.31 C118.02 77.21, 64.99 31.1, 26.91 -2 M171.06 123.31 C117.25 76.53, 63.44 29.76, 26.91 -2 M178.57 119.24 C146.84 91.65, 115.1 64.07, 35.93 -4.75 M178.57 119.24 C122.81 70.77, 67.04 22.29, 35.93 -4.75 M184.58 113.86 C155.48 88.56, 126.38 63.27, 47.97 -4.89 M184.58 113.86 C152.57 86.04, 120.57 58.22, 47.97 -4.89 M188.32 106.51 C159.95 81.86, 131.59 57.2, 60.01 -5.02 M188.32 106.51 C141.41 65.73, 94.5 24.95, 60.01 -5.02 M191.3 98.5 C146.61 59.65, 101.92 20.8, 72.81 -4.5 M191.3 98.5 C151.34 63.77, 111.39 29.04, 72.81 -4.5 M191.27 87.87 C153.17 54.76, 115.07 21.64, 84.85 -4.63 M191.27 87.87 C154.62 56.02, 117.98 24.17, 84.85 -4.63 M191.23 77.24 C155.1 45.83, 118.96 14.42, 96.89 -4.76 M191.23 77.24 C164.95 54.4, 138.67 31.56, 96.89 -4.76 M191.2 66.61 C165.57 44.34, 139.95 22.07, 108.93 -4.9 M191.2 66.61 C168.11 46.54, 145.02 26.47, 108.93 -4.9 M191.92 56.64 C174.95 41.89, 157.98 27.14, 120.97 -5.03 M191.92 56.64 C163.97 32.35, 136.03 8.06, 120.97 -5.03 M191.88 46.01 C168.9 26.03, 145.92 6.05, 133.77 -4.51 M191.88 46.01 C173.45 29.99, 155.02 13.97, 133.77 -4.51 M191.85 35.38 C176.19 21.77, 160.53 8.16, 145.81 -4.64 M191.85 35.38 C179.97 25.06, 168.1 14.74, 145.81 -4.64 M188.79 22.13 C182.32 16.5, 175.84 10.87, 163.89 0.48 M188.79 22.13 C181.68 15.94, 174.57 9.76, 163.89 0.48" stroke="#4c6ef5" stroke-width="1" fill="none"/>
    <path d="M31.82 0 M31.82 0 C77.32 0, 122.82 0, 156.07 0 M31.82 0 C79.56 0, 127.29 0, 156.07 0 M156.07 0 C177.28 0, 187.89 10.61, 187.89 31.82 M156.07 0 C177.28 0, 187.89 10.61, 187.89 31.82 M187.89 31.82 C187.89 51.51, 187.89 71.21, 187.89 95.46 M187.89 31.82 C187.89 49.79, 187.89 67.75, 187.89 95.46 M187.89 95.46 C187.89 116.67, 177.28 127.28, 156.07 127.28 M187.89 95.46 C187.89 116.67, 177.28 127.28, 156.07 127.28 M156.07 127.28 C116.53 127.28, 76.99 127.28, 31.82 127.28 M156.07 127.28 C119.14 127.28, 82.2 127.28, 31.82 127.28 M31.82 127.28 C10.61 127.28, 0 116.67, 0 95.46 M31.82 127.28 C10.61 127.28, 0 116.67, 0 95.46 M0 95.46 C0 75.64, 0 55.81, 0 31.82 M0 95.46 C0 76.71, 0 57.95, 0 31.82 M0 31.82 C0 10.61, 10.61 0, 31.82 0 M0 31.82 C0 10.61, 10.61 0, 31.82 0" stroke="transparent" stroke-width="2" fill="none"/>
  </g>
  <g stroke-linecap="round" transform="translate(420.68086605335066 10) rotate(0 173.08746150799516 57.994401406028885)">
    <path d="M11.56 56.43 C11.56 56.43, 11.56 56.43, 11.56 56.43 M11.56 56.43 C11.56 56.43, 11.56 56.43, 11.56 56.43 M16.29 63.19 C17.29 62.04, 18.29 60.89, 20.88 57.9 M16.29 63.19 C18.1 61.1, 19.91 59.02, 20.88 57.9 M22.98 67.68 C25.57 64.7, 28.16 61.73, 35.45 53.34 M22.98 67.68 C26.41 63.74, 29.83 59.8, 35.45 53.34 M30.99 70.66 C38.03 62.56, 45.07 54.47, 50.01 48.78 M30.99 70.66 C38.43 62.11, 45.87 53.55, 50.01 48.78 M39.65 72.89 C44.84 66.92, 50.03 60.95, 65.24 43.46 M39.65 72.89 C45.88 65.73, 52.1 58.57, 65.24 43.46 M47.66 75.88 C54.39 68.13, 61.13 60.38, 79.8 38.9 M47.66 75.88 C57.67 64.36, 67.68 52.84, 79.8 38.9 M55.66 78.86 C69.52 62.92, 83.38 46.97, 95.03 33.58 M55.66 78.86 C69.55 62.88, 83.44 46.9, 95.03 33.58 M64.32 81.09 C73.73 70.27, 83.13 59.45, 110.25 28.26 M64.32 81.09 C82.64 60.02, 100.95 38.95, 110.25 28.26 M72.33 84.08 C83.17 71.61, 94 59.14, 124.81 23.7 M72.33 84.08 C85.54 68.88, 98.75 53.68, 124.81 23.7 M80.34 87.06 C93.69 71.7, 107.04 56.35, 142.66 15.36 M80.34 87.06 C97.9 66.85, 115.47 46.65, 142.66 15.36 M89 89.29 C114.94 59.45, 140.88 29.61, 161.82 5.52 M89 89.29 C112.6 62.13, 136.21 34.98, 161.82 5.52 M97 92.27 C126.56 58.28, 156.11 24.28, 173.76 3.97 M97 92.27 C118.14 67.96, 139.28 43.65, 173.76 3.97 M105.01 95.26 C130.82 65.57, 156.63 35.88, 183.08 5.45 M105.01 95.26 C135.5 60.18, 165.99 25.11, 183.08 5.45 M113.67 97.49 C133.63 74.53, 153.59 51.56, 192.4 6.92 M113.67 97.49 C135.73 72.11, 157.79 46.74, 192.4 6.92 M121.68 100.47 C144.95 73.7, 168.22 46.93, 199.75 10.66 M121.68 100.47 C137.84 81.88, 154 63.28, 199.75 10.66 M129.68 103.46 C148.99 81.25, 168.3 59.03, 208.41 12.89 M129.68 103.46 C151.96 77.83, 174.24 52.2, 208.41 12.89 M138.35 105.69 C167.4 72.26, 196.46 38.83, 217.73 14.37 M138.35 105.69 C167.39 72.28, 196.43 38.87, 217.73 14.37 M146.35 108.67 C176.09 74.46, 205.82 40.26, 225.73 17.35 M146.35 108.67 C166.7 85.26, 187.05 61.85, 225.73 17.35 M154.36 111.66 C176.67 85.99, 198.98 60.32, 233.74 20.34 M154.36 111.66 C185.72 75.58, 217.08 39.5, 233.74 20.34 M163.67 113.13 C190.84 81.87, 218.01 50.62, 242.4 22.57 M163.67 113.13 C184.06 89.68, 204.45 66.23, 242.4 22.57 M174.31 113.1 C199.32 84.32, 224.33 55.54, 250.41 25.55 M174.31 113.1 C193.99 90.45, 213.68 67.8, 250.41 25.55 M186.9 110.8 C204.74 90.28, 222.58 69.76, 258.41 28.53 M186.9 110.8 C210.87 83.22, 234.85 55.65, 258.41 28.53 M200.81 106.99 C216.14 89.36, 231.46 71.74, 266.42 31.52 M200.81 106.99 C217.66 87.61, 234.5 68.24, 266.42 31.52 M212.1 106.2 C229.05 86.7, 246 67.2, 275.08 33.75 M212.1 106.2 C225.68 90.58, 239.26 74.96, 275.08 33.75 M227.32 100.88 C241.78 84.25, 256.24 67.61, 283.09 36.73 M227.32 100.88 C245.45 80.03, 263.58 59.17, 283.09 36.73 M242.54 95.56 C260.75 74.62, 278.96 53.67, 291.09 39.72 M242.54 95.56 C253.06 83.47, 263.57 71.38, 291.09 39.72 M257.11 91 C270.08 76.09, 283.04 61.17, 299.1 42.7 M257.11 91 C271.21 74.79, 285.3 58.57, 299.1 42.7 M272.33 85.68 C280.37 76.43, 288.42 67.18, 307.76 44.93 M272.33 85.68 C284.39 71.82, 296.44 57.95, 307.76 44.93 M287.56 80.37 C293.87 73.11, 300.18 65.85, 315.77 47.91 M287.56 80.37 C298.73 67.51, 309.91 54.65, 315.77 47.91 M302.78 75.05 C308.52 68.44, 314.27 61.83, 323.77 50.9 M302.78 75.05 C310.65 65.99, 318.53 56.93, 323.77 50.9 M317.35 70.49 C321.27 65.97, 325.2 61.45, 331.12 54.64 M317.35 70.49 C322.17 64.93, 327 59.38, 331.12 54.64" stroke="#40c057" stroke-width="1" fill="none"/>
    <path d="M217.5 14.5 M217.5 14.5 C239.06 21.84, 260.61 29.18, 302.67 43.5 M217.5 14.5 C251.16 25.96, 284.81 37.42, 302.67 43.5 M302.67 43.5 C346.17 58, 346.17 58, 302.67 72.5 M302.67 43.5 C346.17 58, 346.17 58, 302.67 72.5 M302.67 72.5 C276.95 81.26, 251.22 90.01, 217.5 101.49 M302.67 72.5 C279.99 80.22, 257.31 87.94, 217.5 101.49 M217.5 101.49 C174 115.99, 174 115.99, 130.5 101.49 M217.5 101.49 C174 115.99, 174 115.99, 130.5 101.49 M130.5 101.49 C96.72 90.23, 62.94 78.98, 43.5 72.5 M130.5 101.49 C107.95 93.98, 85.4 86.46, 43.5 72.5 M43.5 72.5 C0 58, 0 58, 43.5 43.5 M43.5 72.5 C0 58, 0 58, 43.5 43.5 M43.5 43.5 C66.64 35.79, 89.78 28.07, 130.5 14.5 M43.5 43.5 C67.54 35.49, 91.59 27.47, 130.5 14.5 M130.5 14.5 C174 0, 174 0, 217.5 14.5 M130.5 14.5 C174 0, 174 0, 217.5 14.5" stroke="#000000" stroke-width="2" fill="none"/>
  </g>
  <g stroke-linecap="round" transform="translate(518.3930108340419 92.80489327819743) rotate(315.95019319202055 126.08249174360526 69.55347248226423)">
    <path d="M158.75 17.5 L234.93 60.73 L242.74 66.65 L244.23 70 L243.86 71.65 L240.88 75.15 L230.83 81.69 L153.15 124.68 L136.35 132.89 L127 134.73 L120.92 133.91 L110.18 129.6 L21.33 81.69 L11.29 75.15 L8.31 71.65 L7.94 70 L9.43 66.65 L17.24 60.73 L100.85 14.42 L117.65 6.22 L127 4.38 L133.08 5.2 L143.82 9.5 L158.75 17.5" stroke="none" stroke-width="0" fill="#e64980"/>
    <path d="M158.75 17.5 M158.75 17.5 C182.86 31.19, 206.98 44.87, 220.41 52.5 M158.75 17.5 C171.26 24.6, 183.77 31.7, 220.41 52.5 M220.41 52.5 C252.16 70, 252.16 70, 220.41 87.5 M220.41 52.5 C252.16 70, 252.16 70, 220.41 87.5 M220.41 87.5 C199.94 98.82, 179.47 110.15, 158.75 121.61 M220.41 87.5 C207.33 94.74, 194.24 101.98, 158.75 121.61 M158.75 121.61 C127 139.11, 127 139.11, 95.25 121.61 M158.75 121.61 C127 139.11, 127 139.11, 95.25 121.61 M95.25 121.61 C76.11 111.33, 56.97 101.05, 31.75 87.5 M95.25 121.61 C70.37 108.24, 45.49 94.88, 31.75 87.5 M31.75 87.5 C0 70, 0 70, 31.75 52.5 M31.75 87.5 C0 70, 0 70, 31.75 52.5 M31.75 52.5 C54.36 40.04, 76.96 27.58, 95.25 17.5 M31.75 52.5 C54.81 39.79, 77.87 27.08, 95.25 17.5 M95.25 17.5 C127 0, 127 0, 158.75 17.5 M95.25 17.5 C127 0, 127 0, 158.75 17.5" stroke="transparent" stroke-width="2" fill="none"/>
  </g>
</svg>
